<?xml version="1.0" encoding="utf-8"?>
<!-- Generator: Adobe Illustrator 15.0.2, SVG Export Plug-In  -->
<!DOCTYPE svg PUBLIC "-//W3C//DTD SVG 1.1//EN" "http://www.w3.org/Graphics/SVG/1.1/DTD/svg11.dtd" [
	<!ENTITY ns_flows "http://ns.adobe.com/Flows/1.0/">
]>
<svg version="1.1"
	 xmlns="http://www.w3.org/2000/svg" xmlns:xlink="http://www.w3.org/1999/xlink" xmlns:a="http://ns.adobe.com/AdobeSVGViewerExtensions/3.0/"
	 x="0px" y="0px" width="500px" height="400px" viewBox="-54.25 -36.25 500 400" enable-background="new -54.25 -36.25 500 400"
	 xml:space="preserve">
<defs>
</defs>
<path fill-rule="evenodd" clip-rule="evenodd" fill="#c8c8c8" d="M300.75,96.05l-1.8,0.65l-1,1.25l-1.5,0.75l-1.75-0.25l-1.25,0.75
	l-2.5-1l-2,0.25l-2.25-3.5l-32.5,12v1.25l-0.5,1l-1.75,0.75l1.75-0.75l0.5-1v-1.25l32.5-12l2.25,3.5l2-0.25l2.5,1l1.25-0.75
	l1.75,0.25l1.5-0.75l1-1.25L300.75,96.05l1.5,1.95l1.95,1.8l1.05,2.7l-0.75,1.2l2.15,2.35c-0.067-0.033-0.117-0.066-0.15-0.1
	c-0.066-0.034,0,0.1,0.2,0.4l0.05,0.05c0.073,0.095,0.165,0.22,0.275,0.375c0.26,0.334,0.618,0.809,1.074,1.425
	c0.967,1.233,1.534,1.9,1.7,2c0.2,0.133,0.233,0.05,0.101-0.25c-0.167-0.333-0.267-0.517-0.301-0.55l0.351,0.25
	c0.3,0.233,1.133,0.883,2.5,1.95c0.496,0.404,0.879,0.737,1.149,1c0.226,0.213,0.376,0.38,0.45,0.5
	c0.167,0.233,0.184,0.35,0.05,0.35c-0.166,0-0.267-0.017-0.3-0.05l1.351,1.2l3.6,1.5l5.35,5.1l1.351,1.8l-0.101,0.05
	c-0.066,0.034-0.283,0.117-0.649,0.25c-0.334,0.2-0.5,0.483-0.5,0.85c0,0.4,0.017,0.617,0.05,0.65l-0.45,1.65l4.351,7.2l2.25,2.7
	l0.05,0.15c0,0.1,0.033,0.45,0.1,1.05c0.033,0.367-0.05,0.483-0.25,0.35c-0.233-0.1-0.467-0.283-0.7-0.55
	c-0.233-0.233-0.366-0.367-0.399-0.4l-1.95-0.75l-0.9,0.15l-0.75,0.45l-0.149,8.35l0.75,2.25l1.5,2.7l2.25,1.65l0.1,0.15
	c0.101,0.1,0.334,0.4,0.7,0.9c0.4,0.534,1.033,1.383,1.9,2.55c0.866,1.167,1.416,1.883,1.649,2.15l0.3,0.3
	c-0.024-0.049-0.05-0.091-0.074-0.125l1.125,1.275l3.149,5.1l2.55,9.55l3.301,3.45l0.1,0.25c0.134,0.2,0.45,0.767,0.95,1.7
	c0.5,0.967,0.883,1.634,1.149,2l0.601,0.95l-1.351-0.25l-1.3,1.6l-0.05-0.024l-1-0.351L341.2,182l-61.9,0.4l-41.05,0.25L249.3,140.3
	v-4.55l0.7-2.6l0.95-1.95l1.85-0.275l0.45-0.075v-4.2l-1.3-8.15l0.225-2.7l0.075-0.9l-0.65-2.25l0.25-0.65l0.75-2l-0.05,0.025V110
	l-19.85,7.2l-15.65-11.1l-18.85,2.95l-0.75-2.075l-4.5-12.575l-7.5-13.7l-0.825-3.675L184.5,76.45l-5.8-10.95l14.1-3.15l4.65,2.7
	l5.85,2.25l2.7,1.65l2.25,0.15l2.25,0.45l10,7.5l3.45,2.1l23.2,11.8h1.5l-0.15-1.2l0.6-0.9l0.45,1.05l1.65,0.75l0.149-0.1
	c0.134-0.1,0.483-0.367,1.051-0.8c0.566-0.433,0.916-0.717,1.05-0.85c0.133-0.133,0.184-0.2,0.149-0.2l0.9-1.65l0.45-1.8H253.6
	l-0.6-1.8l0.15-0.85l-0.45-1.65l-1.2-1.5l-1.05-1.05v-1.05l0.45-0.75l0.6-1.5l-0.9,0.15l-0.149,0.05
	c-0.167,0.067-0.566,0.25-1.2,0.55c-0.634,0.267-1.05,0.333-1.25,0.2c-0.2-0.1-0.283-0.167-0.25-0.2l-1.65,0.6l-1.199-0.3
	l-0.45-1.35l0.05-0.15c0.033-0.1,0.116-0.4,0.25-0.9c0.2-0.5,0.45-0.783,0.75-0.85c0.233-0.066,0.384-0.083,0.45-0.05l-0.75-0.45
	v-1.35l1.35-0.9l1.8-2.1l0.601,0.6l0.75,1.5l0.6-0.75l-0.149-1.35l0.149-1.95l-0.6-1.05l-1.351,0.15l-0.6,1.65h-0.1
	c-0.101,0.033-0.367,0.083-0.801,0.15c-0.399,0.067-0.583,0.067-0.55,0s0.066-0.117,0.101-0.15l-0.15-1.05l0.9-1.95l1.35-0.9h0.9
	l2.1,0.75l1.2-0.75V62.5l-2.55-0.75L249.7,61l0.45-1.65l1.649-0.6l0.601-0.6l-0.9-1.05l-1.8-0.75l0.149-1.2l1.5-1.15H248.2
	l-2.25-0.45l-1.05-3l-0.15-2.7l1.95-1.35h0.05c0.134,0,0.667-0.2,1.6-0.6c0.767-0.333,1.267-0.433,1.5-0.3
	c0.233,0.1,0.317,0.267,0.25,0.5c-0.033,0.233-0.066,0.367-0.1,0.4l1.05,1.35l1.675-1.025l0.025-0.025l0.275-0.075L253.1,46.7
	c0.233-0.1,0.65-0.267,1.25-0.5c0.801-0.333,1.267-0.5,1.4-0.5s0.116,0.05-0.05,0.15c-0.167,0.1-0.267,0.167-0.3,0.2l1.8,0.9
	l1.25,0.1L259,47.1l1.05-0.75V45l1.05,1.5l4.801,3.15l1.449,0.45l3.15,1.65l1.35,1.05l5.25,0.45l1.351-0.3l0.149-1.65l0.45-0.15
	l0.45-1.2l1.35-0.6l1.5,0.9v1.95l0.15,0.15c0.1,0.133,0.4,0.533,0.9,1.2l-1.5,2.2l1.05,0.75l0.899,1.35l1.65,0.3l0.6-0.75
	l0.301,1.35l2.55,3l1.8,1.65l0.15,0.1c0.166,0.1,0.616,0.367,1.35,0.8c0.7,0.4,1.05,0.534,1.05,0.4c0.033-0.1,0.033-0.184,0-0.25
	h1.05l0.601-0.9L295.8,64l0.05,0.1c0,0.066,0.034,0.283,0.101,0.65c0.033,0.367-0.134,0.567-0.5,0.6c-0.4,0.033-0.617,0.033-0.65,0
	l-0.75,0.15l0.75,1.65l-0.149,1.05L295.8,70l0.75,1.8l-1.2,0.75l1.2,3l0.45,0.9l0.15,1.2c0-0.066,0.1-0.066,0.3,0
	c0.233,0.033,0.883,0.483,1.95,1.35c0.5,0.367,0.85,0.633,1.05,0.8l-0.601,1.3l-0.899,0.45l-2.101,0.15l-1.899,0.9l0.1,1.9
	l2.25,4.65l0.15,1.95l0.75,1.95l1.2,1.95L300.75,96.05z M328.55,93.2l-0.75-2.4l1.55,0.8l0.4,0.6l2,1.4l1.2,1.55l0.35,2.6v0.8
	l-1.95-0.8l0.4-0.8l-1.2,0.8l-1.399-1L328.55,93.2z M366.7,124.15l1.649-0.35v0.65L368.2,125l-0.45,0.6l-0.65-0.15l-0.25-0.55
	L366.7,124.15z M364.45,123.5l-0.55,0.65l1.05,1.55l0.75,0.35l-0.25,0.85l0.35,1.2l-0.899-0.05l-0.801,0.3v0.75l-0.399,1l-0.5-0.5
	l-0.8,0.2l-1-0.4l-1.551-0.15l-0.699-0.45l-0.15-0.55l-0.8-0.15l-1-0.85l-0.851-0.05l-0.55-0.85l-0.5-0.35l-0.3-0.5l-0.05-0.75
	l0.05-1.55l-0.25-1h0.35l0.7,0.1l0.15,0.55l0.55-0.2l0.7,0.55l1.3-1.2l0.8-0.3l1.9,0.75l0.649-0.1l1.351,0.7L364.45,123.5z
	 M348.3,140.1l0.8,0.7l-0.399,0.7l0.3,0.95l2.3,1.4l2.101,2.8l0.649,1.85l-0.8-0.25l-0.6-0.5l-0.5-0.25l-0.351,0.25l-1.5,0.25
	l0.55-0.65l0.051-0.8l-0.101-2.15l-2.149-0.95l-2-1.25l-0.551-0.6l-0.449-0.65l1.649,0.2l0.45-0.15L348.3,140.1z M291,289.5
	l-1.6,2.3l-0.65,2.95l-1.075-0.05l-6.425-0.3l-3.25,1l-0.5,0.8l-0.8-0.8l-3.3-1.95l-3.551-0.65l-0.649,0.3v-1.3l-0.75-2.175
	l-0.25-0.775l-2.25-3.25l1.6-1.6h1l0.95,2.25l2.3,1l0.95-1.95l-0.95-1v-2.6l-2.899-3.25l-0.65-0.75l0.6-1.55l-0.649-1.301l5.125-3.1
	l0.725-0.45l2.226-0.274L277,270.95l-3.6-4.851h0.024l2.625-0.699L278,264.1l0.55-0.125l2.351-0.524l2.3,1l0.649,2.6l0.775-0.225
	l0.125-0.025l0.375-0.1h0.025l0.649,0.35l-0.35,2.3l1.35,1.601l5.125,2.05l-1.725,3.45l1,1.25l1.75,1.75l1,0.75h1.75l-0.5,1.75v2.25
	l-1.25,2.5l-1.25,0.25l-1.25,0.75L291,289.5l0.45-1.8l1.25-0.75l1.25-0.25l1.25-2.5v-2.25l0.5-1.75h-1.75l-1-0.75l-1.75-1.75
	l-1-1.25l1.725-3.45l1.375,0.55l2.25-0.3l1,1.6l3.601,3.601h1.6l1.3,0.3l0.476-0.15l0.125-0.024l0.375-0.125h0.024l1.3,0.95
	l0.601-0.4l1.325-0.875l0.024-0.025l1.95,1l1.95-3.6l-1.825-2.225l-1.075-1.325l1.075-1.476L311.2,268l1.3-1.3l0.35-2.25
	l1.301-0.351l2.55-0.3h0.05v1.3l1.6-0.35h0.051l0.949,0.35v1.301l2.95,0.949l2.25,1.301l2.601,1L329.1,270h0.051l-0.65,5.5l1.6,2.95
	l1.95,2.6l3.601,3.25l3.899,4.9l0.45,0.7l-0.45,0.6l0.5,14.95l0.15,4.899l0.149,0.801l-0.5,0.199l-1.199,1.351l-2.851,0.149
	l-0.75,0.601h-0.6l-0.15-0.9l0.15-1.35l-1.65,0.6l-0.6,0.45l0.3,1.65l0.6,0.149l0.45-0.3l0.75,0.3l-1.8,1.8l-1.05,0.301l-0.75,0.75
	l-0.75,0.149l-0.45-0.3l-0.75-0.75l-0.75,0.9l-2.55,0.149L325,316.3h-1.05l-1.351,0.45H322l-1.5-1.05l-3.9-0.15l-2.5-0.45l-0.6,0.45
	v-1.6l0.25-1.9l0.05-0.35v-0.05v-1.301l-1.6-2.25l1.825-3.35l1.524-2.8l0.55-1v-0.05l-0.649-4.851v-4.25l-2.601-2.3l-0.35,1.35
	l-2.9-1.649l-3.3,1.649l-2.899,0.95h-3.25l-2.301-1.95l-3.25,1L291,289.5z M71.8,106.05l0.3,2l0.1,0.175l0.9,1.475l2.25,1.6
	l0.4-0.325L77,110l1.2-0.725l0.4-0.225l1.95,0.3v-2.9h0.95h0.05l0.95-1l-0.3-1.6l1.625-3.25l0.025-0.05l0.95,1.925v0.025l1-0.65
	l0.475-0.125l0.775-0.175h0.05l1.95,0.65v1.3l0.575,0.375l1.025,0.625l0.825,0.8l0.8,0.775L92.3,106.1l0.95-1.3l2.3,1.3l2,2.35
	l4.85,5.8l2.95,1.65l1.6,2.6l3.9,0.65l1.55,1.125l7.9,5.725l-13.35,21.45l-9.525,15.325l-3.025,4.9l-7.2-6.475l-3.5-4l-2-1.75
	l-0.25-3l1.25-1.5l-0.75-2h-1l-1.5,0.5l-2.25-1.5l-2.25-0.5l-0.5-1.25l2.25-1.25l0.75,0.25l2.75-1.5l1.75,0.75l0.75-1.75l-1.5-0.25
	l-2.75-1.75l-4.5-1.5l-3.75,0.75l-4.5-0.25l0.25,2v1.75h1.25l2-1.75l0.25,1l-1.75,3.25l-2,1.5l-2,0.5l-2.75,0.25l-0.5,1.5l-2,3.25
	l-1.75-0.75l-1.75,0.5l-1.5,1l-2-0.75l-0.25-1.5l2.25-2.75l-2-2.25l-2.25,1.25l-1.25,1.25l-1.9,2.35l-0.65-0.9l1.3-1.95l0.65-1.95
	l2.6-0.3v-1.65l0.55-2.125l1.4-5.375l0.65-7.15l-0.65-2.3l-0.325-0.15l-0.975-0.5l-1.25-1.475L48.95,125l-1.125-0.825L46.7,123.35
	l-1-1.6l-0.3-1.3l-0.2-2.4l-0.15-1.85l-1.3-3.25l-0.8-0.325l-0.8-0.325H42.1l-8.45-0.65l-0.65-1.3l0.4-0.575l1.25-1.725l2.6-1.95
	l1.975-3.75l0.275-0.5l2.075-1.4l0.825-0.525l0.05-0.025l0.35,2.3l0.925,1.625l0.025,0.025l0.375,0.2l1.275,0.75h0.9h0.05l0.35-1.95
	l0.65-1.3l1.3-0.65l1.3-1.65l2.275-1.925L52.25,97.3l3.55,4.55h3.9l1.95-0.65l2.6,0.35h0.05l2.25,0.95l0.65,1.95v0.05l1.95,0.65
	l2.6-0.65v1.25v0.05L71.8,106.05z M30.075,177.425l-0.025,0.025l-5.5-2.601l-0.4-0.399l-1.25-1.25l-2.55-0.75l0.6-1.2l0.65-2.6
	l1.65,1.3l1.6,1.649l1.6,0.301h0.05l1.3-1.301l-0.3-1.35L27.45,169H25.5l-1.3-0.65l0.025-0.05l0.325-0.95V165.4l0.65-2.601l1.25,0.3
	h0.05l0.3-1.95l1-1.3l0.8-0.325l0.8-0.325l1.65-0.3l0.95-0.325l0.05-0.025l0.3,2.95l-1.3,0.3l-1.65,1.3l-1.3,2.6l1,0.875l1.3,1.125
	l0.35-2.3l1.125-1.15L33,163.1l1.625,1.3h0.025l1.95-0.65l1.2-1.2l0.4-0.4l-3.25-2.3l0.65-1.3l0.65-1.95V154l1-1.925v-0.025l3.9,1.3
	l5.2-1.65l-0.3-0.4l1.9-2.35l1.25-1.25l2.25-1.25l2,2.25l-2.25,2.75l0.25,1.5l2,0.75l1.5-1l1.75-0.5l1.75,0.75l2-3.25l0.5-1.5
	l2.75-0.25l2-0.5l2-1.5l1.75-3.25l-0.25-1l-2,1.75h-1.25v-1.75l-0.25-2l4.5,0.25l3.75-0.75l4.5,1.5l2.75,1.75l1.5,0.25l-0.75,1.75
	l-1.75-0.75l-2.75,1.5l-0.75-0.25l-2.25,1.25l0.5,1.25l2.25,0.5l2.25,1.5l1.5-0.5h1l0.75,2l-1.25,1.5l0.25,3l2,1.75l3.5,4l7.2,6.475
	l-4.05,6.525H90.3l-2.9-0.351l-0.95,1.65l0.1,0.25l-21.3-0.9l-2.6,4.25L50.6,183H48l-0.325-0.4l-0.95-1.225L46.7,181.35l1.6-1.3
	l1-1.95l-7.15-3.25l-1.65-1l-0.75-1.199l-0.25-0.4l-1.6-1.3l-0.625,1.399L36.9,173.2l-1.95,1.125l-3.25,1.825l-0.4,0.324
	L30.075,177.425z M106.95,147.45l-0.3-0.3L106.95,147.45z M121.95,212.3h1.6l0.675,0.2l1.625,0.45l2.25-0.3h3.6l0.425-0.226
	l0.225-0.125v0.025L133,213.3l1.3,0.95l0.85,0.325l0.8,0.325l0.95,2.3l-0.65,1.95h0.05h1.25l0.65,1l1.65-0.65l1.6,1.3l1.95,0.95
	l1.65,4.55l-0.65,2.3l-1,2.301l1.35-0.351l5.2-0.649l0.6,0.8l-4.2,1.8l-1.3,1.3l-0.65,1.3l-2.3,1.301l-1.6,1.949l-1.65,2.65
	l-0.65,0.2l-2.9,0.75l-2.25-1.3l-0.7-0.95l-2.275-0.65l-2.275-0.7l-0.1-0.274l-0.55-1.976l-0.55-1.375l-0.1-0.274l-2.95-0.65
	l-2.425,0.15l-4.075,0.2l-4.85-1.301l-1.175-4l-0.175-0.6l-0.65-1.3l-1.625-0.65l-1.925-3.2l-1.3-2.949h-0.025l-2.575-0.65h-0.05
	l-0.65,1.6l-3.9,0.65l-0.7,0.3l-0.95-0.95v-2.25l-0.4-1.225l-0.25-0.775l-1.6-0.649l-1.65,0.35l-1-1.3l0.7-2.3l-0.35-2.601
	l3.025-4.199l1.225-1.65l0.3-2.3h1.95l1.65-3.25l7.15,4.25l1.65,0.3l1.95-0.3l3.55,0.3h0.05l1.95-1.3l0.725-0.25l3.175-1.05
	l1.3-0.25l0.65,2.199l-1,7.2l0.65,2.25H121.95z M198.825,210.55l0.325,0.8l1.024,1.176l0.025,0.024l-2.7,2.4l-3.55,2.25l-1.65,1.3
	l-0.4-0.225l-1.2-0.726h-0.05l-1.6,0.3l-4.25-3.899l-2.6-7.8l-1.95-3.25l-1.125-0.976L178,200.95l-0.675-1.325L177,199l-1.65-2.3
	l-2.25-1.05l-2.25-1.101l-0.35-0.149l-1-1.95l-2.3-0.95l-1.6-2.4l9.425-9.324l2.675,5.425l2.5,2.75l3.5-1l0.75-1l6-4l1.5-1.5
	l2.75-1.5l-2.75,1.5l-1.5,1.5l-6,4l-0.75,1l-3.5,1l-2.5-2.75l-2.675-5.425l0.025-0.025l2.5-14l0.45-2.275v-0.025l6.325,5.274
	L185.8,170l-0.35,2.55v0.05l1.95,1.301l2.3-0.351l3.25,3.601l3.25,2.6l2.95,0.65l0.649,1.949l5.55,6.351l1.275,1.475l0.025,0.025
	l-2.601,2.899l-11.75,8.5l-0.65,0.95l2.95,4.55l1.95,1.301l1.95,1.35L198.825,210.55z M105.325,220.15l3.875-1.45l4.25-0.5l2,0.5
	l1.25-0.75l2.25,0.5l1.25,0.5l0.5,1l2-0.5l2.5,1l3-1l0.25-1l3-2.25l1-2l-0.75-1.55l0.75,1.55l-1,2l-3,2.25l-0.25,1l-3,1l-2.5-1
	l-2,0.5l-0.5-1l-1.25-0.5l-2.25-0.5l-1.25,0.75l-2-0.5l-4.25,0.5L105.325,220.15z M200.45,304.35l1.95-0.5l0.949-2.6l1.325-1.9
	l1.625,2.851h1.3l0.075-0.875l0.275-2.675l0.7-1.95l0.25-0.65l2.3-2.6v-0.05l-0.351-2.601l0.65-1.95v-1.3l1.65,1.3l4.55-3.25
	l-0.476-2.274l-0.475-2.275l-1-1l-1,1l-1.6,0.3l-1.301-0.975l-1.3-0.975l-1.3-0.65l1.2-1.475l0.399-0.476l-0.649-1.3l1-0.95
	l2.899-0.35l0.45-3.4v-0.05l0.25,0.2l9.75,10.75l1.226,1.024l0.725,0.575v0.05l0.35,3.551l0.65,2.6l3.55,5.25l1.95,0.95l1.975,0.325
	l1.976,0.324l4.85-0.649v0.05l-0.649,3.85v0.025l1.3,3.575v1.95l-0.95,1l-2.3-0.351l-0.976,1.25l-0.324,0.4l-0.226,0.399l-0.725,1.2
	v0.05v0.95l-4.25,16.601l1.3,1.649l0.3,2.9l-0.95-1.05l-0.5,1.75l0.7,3l0.4-0.101l0.95,1.55l0.199,1.051l-0.449,0.85l-1.101,0.6
	l-1.05,0.801l-3.8,3.6l-1.2,3.1l-0.15,2.95l0.75,3.601l-0.35,0.5l-0.85-0.601l-2.5-2.399l-0.95-1.101l-0.75,0.25l-0.2-0.95l-1.1-2
	l-3.95-3.949l-0.95-1.301l-3.55-0.75l-0.5-1.05l-0.351-2.399l-1.399-2.95l0.1-1.351l-3.2-7l-1.949-8.25l0.25-0.85l-0.45-1.55
	l-2.15-3.2l-0.149-0.7l-0.7-1.2l-1.2-4.199l3.45-0.7l2.25,0.25l1.5-1.5l3-2.25l2-0.25l0.25,2.25l0.75,1.25l2-1.5l2-0.25l3.75-1.5
	l1.25-2l3.5-0.25l1.5,0.5l1,1.5l2.75,0.5l3-1.25l0.75-1.5l-0.976-3.175l0.976,3.175l-0.75,1.5l-3,1.25l-2.75-0.5l-1-1.5l-1.5-0.5
	l-3.5,0.25l-1.25,2l-3.75,1.5l-2,0.25l-2,1.5l-0.75-1.25l-0.25-2.25l-2,0.25l-3,2.25l-1.5,1.5l-2.25-0.25l-3.45,0.7L200.45,304.35z"
	/>
<path fill-rule="evenodd" clip-rule="evenodd" fill="#c8c8c8" d="M314.125,251.2l-1.625-0.45l3.025-2.1l1.225-0.851l1.075-2.2
	l1.825-3.649l0.175-0.55l0.524-1.726l2.9-1.925l0.025-0.05l2.425,1.25l1.5,0.25l1,2l2,1.25l2-0.5l2.75-3.25l1.75-0.75l3.25,6.5
	l2.25,10l1.75,0.75l2,2.75l4.5,2l0.75,4.5l1.5,5l-1.5-5l-0.75-4.5l-4.5-2l-2-2.75l-1.75-0.75l-2.25-10l-3.25-6.5l-1.75,0.75
	l-2.75,3.25l-2,0.5l-2-1.25l-1-2l-1.5-0.25l-2.425-1.25l1.375-2.825l0.899-1.725l-0.125-2.45l-0.225-4.05l-11.4-12.7l0.65-3.9V210
	l-2.45,0.275l-0.8,0.074l-1.575-0.425l-2.025-0.575h-6.5l-9.75,1.95h-2.3l-0.225-0.675L279.3,182.4l61.9-0.4l2.55,0.925l1,0.375
	v-0.024l0.05,0.024l1.3-1.6l1.351,0.25l0.45,0.649l0.1,0.4h0.15l4.55,6l0.899,1.8v-0.05c0.034,0,0.167,0.15,0.4,0.45
	c0.2,0.3,0.566,0.916,1.1,1.85c0.534,0.934,0.9,1.533,1.101,1.8l0.25,0.4c0-0.033,0-0.066,0-0.1l3.75,4.8l-0.3,2.55l2.25,2.1
	l1.8,4.351l-1.95,0.3l-0.75-2.1l-1.65-1.95l0.15,1.649l0.9,1.801l-0.601-0.601l-1.649,0.75l-0.9,3.15v3.1l0.6,3.15l4.65,6.6
	l4.05,0.75l3.7,6.15l4.8,5.85l0.75,2.4l2.25,4l-0.3,2.1l0.9,3.3l0.649,0.801l-3.85,3.5L373.1,256.6L362.7,262.45l0.024,0.05H362.7
	l1.95,5.2l-4.726,0.575L359.8,268.3l-0.399,0.05l-6.5,1.601l-3.25-0.65l-3.601-1.95l-0.3,0.65l-3.9,2.6l-0.699,1H338.6h-0.05
	l-0.95,0.95v0.05v2.9l4.25,3.6l1.95,1v2.25l-1.3,5.2l-0.875,0.7l-1.125,0.95l-0.5,0.7l-0.45-0.7l-3.899-4.9l-3.601-3.25l-1.95-2.6
	l-1.6-2.95l0.65-5.5H329.1v-0.05l-1.949-0.3l-2.601-1l-2.25-1.301l-2.95-0.949V265.1l0.65-1.649l-0.35-1.95l0.324-0.475l0.375-0.525
	l-2.25-1.275l2.2-0.625l-0.024-0.024l0.074-0.025l-1-1.3l-1.324,0.65l-1.926-0.95l-0.35-2.3v-1.45v-0.5l-0.125,0.05l-0.4,0.125
	L314.8,253v-0.475l0.425,0.35l-0.425-0.35V251.4L314.125,251.2z M290.05,303.95l-0.7-0.3L289,303.9l-0.25,0.85l1.1,0.7l-0.149,0.85
	l-0.8,0.95l-2.15,0.7l-0.6,0.95l-1.45,0.699l-0.45,0.75l-0.85,0.45l-0.25,0.05c-1.372-1.665-2.747-3.331-4.125-5l-1.375-1.649
	l-5.551-0.65l-1.475-1.5c-0.155-0.17-0.313-0.336-0.475-0.5l6.5-3.899l0.85-1.45l0.5-0.8l3.25-1l3.25,0.35V297l0.475,0.675
	l0.976,1.45l1.45,2.125l0.05-0.025v0.025l1.6-0.65l1,0.95V303.95z M284.975,297.675L284.2,298.2l-1.75,0.5l1.5,5.25l-1.25,2
	l-0.75,2.25l0.75-2.25l1.25-2l-1.5-5.25l1.75-0.5L284.975,297.675z M110.2,62.25v0.7l2.75,2.75l4.25,6.5h-2.25l-0.75-1l-1,1.5h-1
	l-1.25-0.5l-1.25-0.25l-0.75-0.5l-2.25-0.5l-2,1.75l-2.25,3.5l-3.25,0.25l-1,2.25l-2.5,2.5l-4.25-4l-3-0.75h-2.5l-1.75,3l-4,2.25
	l-1.5-0.5l-1.75,0.5l1.75-0.5l1.5,0.5l4-2.25l1.75-3h2.5l3,0.75l4.25,4l2.5-2.5l1-2.25l3.25-0.25l2.25-3.5l2-1.75l2.25,0.5l0.75,0.5
	l1.25,0.25l1.25,0.5h1l1-1.5l0.75,1h2.25l-4.25-6.5l-2.75-2.75V62.25l9.95,4.1l0.45,1.3l0.45,0.825l2.5,4.725l0.8,2.125l1.15,3.425
	l-7.15,1.3l-5.7,2.225L109.2,83.6l-2.925,2l-0.975,0.65l-1.95,1.95l-0.65,1.3l-1.65,1.6l-1.3,2.95l-0.4,2.575L97.5,107.75l0.05,0.7
	l-2-2.35l-2.3-1.3l-0.975,1.275l-0.8-0.775l-0.825-0.85l-1.025-0.575L89.05,103.5v-1.3l-1.95-0.65h-0.05l-0.775,0.175l-0.525,0.125
	l-0.95,0.625l-0.95-1.925l-0.025,0.05l-0.025-0.05l-1.65,3.25l0.35,1.65l-1,1h-0.95v2.9l-1.95-0.3l-0.4,0.225L76.95,110l-1.2,0.975
	l-0.4,0.325l-2.25-1.6l-0.9-1.475l0.2-1.125l0.65-1.65l0.65-1l-1-1.6l-1.3-3.9l0.35-1l-1.3-1.3l0.95-1.95l-0.95-1.95l-1-0.65
	l0.35-1.65l-1.65,0.35l-1.3-1.3l-0.65-3.25h1.3l1.65,1.3l3.55-1.3l1-2.65h2.6l0.65-1.3L75,81.35l-0.65-2.3l-1.65-1.3l-0.3-2.6
	l-0.65-1L70.1,72.2l6.2-1.95l1.95-11.4l6.85-8.15l6.1-9.45l17.45,20.35L110.2,62.25z M116.4,184.15l-0.35,0.149l-1,2.3l-0.95,1.301
	l1.6,2.6l1.3,1.3l0.6,1.476l2.075,5.699l0.275,0.976l1.65,0.649v0.051l-1.3,0.25l-3.175,1.05l-0.775,0.25l-1.95,1.3l-3.55-0.3
	l-1.95,0.3l-1.65-0.3l-7.15-4.25l-1.65,3.25H96.5l-0.35,2.3l-1.175,1.65l-3.025,4.199l0.3,2.601l-0.65,2.3l1,1.3l1.6-0.3l1.65,0.65
	l0.25,0.725l0.4,1.225v2.25l0.95,0.95L96.5,222.4l0.95-0.351l1,1l0.65,3.3l-1.3,2.25l-1,1l-1.3,0.65h-3.2h-0.05l-0.6,2.4l-0.45-0.5
	l-0.85,0.199l-0.95-0.8L82.95,227l-6.3-3.1l-8.7-2.75l-1.9-0.101l0.15-0.899l4.55-12.4v-3.6l0.55-2.9h0.05h0.1l0.775-1.025
	l1.175-1.574l7.15-11.75l3.3-3.551l1.3-0.35l1.95-3.9l0.3-1l-0.85-2.35l-0.1-0.25l0.95-1.65l2.9,0.351h0.05l4.05-6.525l0.3,0.275
	l-0.3-0.275l3.025-4.9l7.875,8.175l2.25,1.3l3.3,2.95l5.5,3.55l2.3,2.3l1,1.601l-1,1l-0.3,0.05l-1.65,0.3L116.4,184.15z
	 M226.025,214.975l2.425,2.226l1.649,0.649l0.801-1.125l0.8-1.125l4.25-2.6h0.35l-0.05,1.25l0.05,0.05l1.9,2.25l3.25,1.95
	l1.649,1.65l0.95,1.949l1.351,0.95l0.949,0.675l0.525,0.976l0.475,1l1.301,1.3l2.6,1.3l0.65,1.95l1.625,1.825l0.975,1.125l0.05,0.25
	l0.25,2l0.625,1.024l0.3,0.525l-2.175,0.7l-3.899-2.601l-9.101,1.95l-0.024,0.05H240.5l-0.65,0.95h-2.6l-6.5-3.25l-8.45-0.35
	l-8.8,7.149l-2.6-1.949l-1.301-0.301h-0.05l-1.274,1.226l-4.7,4.5l-1.625,0.125l-1.5-1.5l-1.25-0.5l-1-1.25l-1.75-1.5l-0.75-0.25
	l1-3l-0.25-2.75l-1.75-1.5l-0.5-1.5l1.25-1l-1.25-2.25l-3.25-4.25l-0.75-0.5l-0.75-1.25l-0.5-1.75l0.1-2.601l-0.1,2.601l0.5,1.75
	l0.75,1.25l0.75,0.5l3.25,4.25l1.25,2.25l-1.25,1l0.5,1.5l1.75,1.5l0.25,2.75l-1,3l0.75,0.25l1.75,1.5l1,1.25l1.25,0.5l1.5,1.5
	l1.625-0.125l-0.825,0.774l-0.05,0.051l-0.25,0.35l-0.101,0.1l-7.2,9.15l-0.125-0.075L194.9,255.3l-20.2-9.45h-2.95l-6.85-2.6
	l-0.025,0.025l-3.525-1.325l-4.2-2.601l-0.35-2.6l0.05-2.15l0.2-7.675l0.75-5.524l0.95-0.95l-2.25-1.65l2.6-4.55l0.4-0.4l1.2-1.199
	l-0.025-0.025l0.025-0.025l-1.6-1.6l-1.95-1l-1-2.25l1-1.3l3.55-1.95l0.35-2v-2.25l2.6-0.3l0.65-1.3l5.5-3.25l1.05-0.801l2.25,1.051
	l2.25,1.05L177,199l0.325,0.625l0.625,1.325l1.175,0.975l1.125,0.976l1.95,3.25l2.6,7.8l4.25,3.899l1.6-0.3l1.25,0.726l0.4,0.225
	l1.65-1.3l3.55-2.25l2.7-2.4l-0.025-0.024l0.025-0.025l0.55-0.5l9.8-6.5l1.125,1.125l1.125,1.125l-1.2,0.75l-0.399,0.25l5.85,8.15
	l2.95-0.65l3.25-2.95l1.3,0.351L226.025,214.975z M72.225,200.225l1.725,2.226l2.25,0.75l1.5,0.25l2.5,1.5l2.25,0.25l3.75,1.75
	l2.25,3h1l2.25,2l-2.25-2h-1l-2.25-3l-3.75-1.75l-2.25-0.25l-2.5-1.5l-1.5-0.25l-2.25-0.75L72.225,200.225z"/>
<path fill-rule="evenodd" clip-rule="evenodd" fill="#c8c8c8" d="M147.975,77.775L133.45,103.95l-1.75,2.5l-4.25-2.5l-4,5.75
	l-5.75-2.25l-1,1l-4.75-2.25l-2.5,2.75l2.75,1.75l3.75,3.75l-2.5,3.25l-1.05,2.575l1.05-2.575l2.5-3.25l-3.75-3.75l-2.75-1.75
	l2.5-2.75l4.75,2.25l1-1l5.75,2.25l4-5.75l4.25,2.5l1.75-2.5L147.975,77.775l0.075,0.025l29.9-12.15l0.7-0.15l5.85,11l0.125,0.525
	l0.825,3.675l7.5,13.7l4.5,12.575l0.7,2.075L182.55,125l-26.4,8.8l-2.6,3.6l-5.55-0.65l-0.35,2.9v0.05l-9.75,5.5l-0.3,9.65l15.3,3.7
	l-1.65,2.6l2.6,3.3l-0.95,5.8v0.05l12.7,18.8l1.6,2.4l2.3,0.95l1,1.95l0.35,0.149l-1,0.8l-5.55,3.25l-0.65,1.301l-2.6,0.35v2.25
	l-0.35,2l-3.55,1.95l-1,1.3l-1.45,0.2l-7.75-4.75h-1.75l-1.5-3.25h-2l-2.5-2l-3.75-4l-2-1.5l-1.75,0.75l-0.75,3l1.5,1l-0.25,2.5
	l-1.25,1.5l-0.75-0.5l-2-2.25l-2-0.75l-0.5-1.5l-1.5-0.5l-2.25,0.5l-1.5,2.25l1.5-2.25l2.25-0.5l1.5,0.5l0.5,1.5l2,0.75l2,2.25
	l0.75,0.5l1.25-1.5l0.25-2.5l-1.5-1l0.75-3l1.75-0.75l2,1.5l3.75,4l2.5,2h2l1.5,3.25h1.75l7.75,4.75l1.45-0.2l1,2.25l1.95,1l1.6,1.6
	l-0.025,0.025l-1.175,1.225l-0.4,0.4l-2.6,4.55l2.25,1.65l-0.95,0.95l-0.75,5.524l-0.15,1.175l-2.7,1.45l-2.2,0.7l-1.05,0.3
	l-0.2,0.101l-0.2,0.05l-0.6-0.8l-5.2,0.649l-1.3,0.3l1-2.25l0.65-2.3l-1.65-4.55l-1.95-1l-1.65-1.3l-1.6,0.649l-0.65-0.949h-0.05
	h-1.25l0.65-1.95l-1-2.3l-0.8-0.325l-0.8-0.325l-1.3-1l-0.65-0.95l-0.05,0.025V212.3l-0.225,0.125L131.7,212.6h-3.55l-2.3,0.351
	l-1.625-0.45l-0.625-0.2h-0.05h-1.6l-0.65-2.3l1-7.15l-0.65-2.25l-0.05-0.05L120,199.9l-0.325-0.926l-2.075-5.699l-0.55-1.525
	l-1.3-1.3l-1.6-2.601l0.95-1.3l1-2.25l0.3-0.149l0.3-0.15l1.65-0.3l0.35-0.05l0.95-1L118.7,181l-2.3-2.25l-5.55-3.6l-3.25-2.9
	l-2.25-1.35l-7.9-8.15l9.525-15.275l5.825,4.925l3.25-0.65l8.5,2.6l7.15-0.35l5.9,0.85l-5.9-0.85l-7.15,0.35l-8.5-2.6l-3.25,0.65
	l-5.825-4.925l-0.025-0.025L120.3,126l-7.9-5.725l-1.55-1.125l-3.9-0.65l-1.6-2.6l-2.95-1.65l-4.85-5.8l-0.05-0.7l1.85-11.125
	l0.45-2.575l1.3-2.9l1.6-1.65l0.65-1.3l1.95-1.95l0.975-0.65l2.975-1.95l3.4-1.375l5.7-2.225l7.15-1.3l-0.3-1.3l-0.85-2.125
	l-0.8-2.125l-2.5-4.725l-0.4-0.775l-0.45-1.35L147.975,77.775z M236.3,212.95h0.05l0.25-7.15l3.601-1l-1.95-22.149l41.05-0.25
	l9.525,28.225l0.225,0.725h2.25l9.8-1.949h6.5l2.025,0.524l1.575,0.425l0.8-0.074l2.45-0.226l-0.65,3.9l11.4,12.7l0.225,4.05
	l0.075,2.45l-0.85,1.725l-1.375,2.825l-0.025,0.05l-2.9,1.925l-0.05,0.025l-0.475,1.7l-0.175,0.55l-1.825,3.649l-1.125,2.2
	l-1.175,0.851l-3.025,2.1l1.625,0.45l0.625,0.2v1.1l-1.05-0.8h-2.5l-2.25-1h-2l0.75-1.25l-2-0.75l-0.5-1.25l-1.75,0.75l-4.25,0.75
	l-2.25-0.75l-1.75,0.25h-3.5l-1.5-1h-1.75l-3-1l-1-2.5l-3.5-3l-2-0.25l-1.5-2.25l-2.75,0.25l-0.75-2.5l-1.5-1.5l-7-2l-2.5,0.25
	l-2.25,3.25h-1.75l-3.175,0.85l3.175-0.85h1.75l2.25-3.25l2.5-0.25l7,2l1.5,1.5l0.75,2.5l2.75-0.25l1.5,2.25l2,0.25l3.5,3l1,2.5l3,1
	h1.75l1.5,1h3.5l1.75-0.25l2.25,0.75l4.25-0.75l1.75-0.75l0.5,1.25l2,0.75l-0.75,1.25h2l2.25,1h2.5l1.05,0.8v0.55l0.5-0.175
	l0.375-0.125l0.125-0.05v0.5v1.45l0.3,2.3l1.95,0.95h0.025l1.324-0.65l0.926,1.325l0.024,0.024l-2.2,0.625l-0.1,0.025l2.3,1.3
	l-0.325,0.476l-0.324,0.475l0.35,1.95l-0.65,1.649l-0.949-0.35h-0.051l-1.6,0.35v-1.3h-0.05l-2.55,0.3H314.1l-1.3,0.351l-0.3,2.25
	l-1.3,1.3l-1.825,2.475l-1.125,1.476l1.125,1.325l1.825,2.225l-1.95,3.6l-1.95-1l-0.024,0.025l-0.025-0.025l-1.3,0.9l-0.601,0.4
	l-1.3-0.95h-0.024H304l-0.35,0.125l-0.125,0.024l-0.476,0.15l-1.3-0.3h-1.6l-3.601-3.601l-1-1.6l-2.25,0.3l-1.375-0.55l-5.125-2.05
	l-1.35-1.601l0.35-2.3l-0.649-0.35h-0.025H285.1l-0.35,0.1l-0.125,0.025l-0.775,0.225l-0.649-2.6l-2.3-1l-2.351,0.524l-0.6,0.125
	L276,265.4l-2.6,0.675l-0.051,0.024L262,250.75l1-0.475l0.95-0.476v-0.024L262,244.9h-1.65l-1.3-1.301l-0.649-2.3l-2.625-4.25
	L255.75,237l-0.325-0.525l-0.625-1.024l-0.25-2l-0.05-0.3l-0.975-1.075l-1.625-1.825l-0.65-1.95l-2.6-1.3l-1.301-1.35l-0.475-0.95
	l-0.525-0.976V223.7l-0.949-0.65l-1.351-0.95l-0.95-1.949l-1.649-1.65l-3.25-1.95l-1.9-2.25l-0.05-0.05l0.05-1.25V212.95z
	 M340,289.95l0.55,0.899L340,289.95l0.55-0.75l1.075-0.95l0.875-0.7l1.3-5.2v-2.25l-1.95-1l-4.25-3.6v-2.9l1-1h2.551h0.05
	l0.649-0.949l3.9-2.601l0.3-0.649l3.601,1.949l3.25,0.65l6.55-1.65l0.35-0.05l0.125-0.024l4.726-0.575l-1.95-5.2h0.024l10.375-5.85
	l2.601-2.95l2.95-2.601l0.899-0.949l2.05,2.5l1.2,1.949l-1.35,2.101l1.35,2.7l3,4.649l2.25,2.7l0.9,0.75l0.6,0.9l-0.899,2.1
	l1.199,3.15l1.65,2.1l1.65,1.65L390.6,278.3v1.9l1.2,2.55l0.75,0.15l-0.45,0.75l-1.05,1.05l-0.45,2.399l1.2,2.7l2.101,3.15
	l0.3,0.899l0.45,0.75L396,295.2l0.75,1.2l0.75,1.949l-0.6,1.051h-0.75l-0.45-0.15l-1.2,1.05l0.6,5.55l3.15,4.301l1.05,2.699
	l-0.45,0.75l-0.55,0.301l-4.1-2.45l-1.75-1.5l-0.5-1l-1.75,0.25l-1-2.5l-1,0.5l-0.5-1l-2,0.25l-5-1l-2.25-3.5l-0.25-7.5l-2-2.5
	l-1-2.25l0.25-5l-3,1l-4.5,4.5l-3.25,1l-0.5,1.5l-3.5,1.25l-5.25,3.5h-3.25l-3,0.5l-2.75,3.25l-1.5,3l-1.25,1l-3.65,0.25l3.65-0.25
	l1.25-1l1.5-3l2.75-3.25l3-0.5h3.25l5.25-3.5l3.5-1.25l0.5-1.5l3.25-1l4.5-4.5l3-1l-0.25,5l1,2.25l2,2.5l0.25,7.5l2.25,3.5l5,1
	l2-0.25l0.5,1l1-0.5l1,2.5l1.75-0.25l0.5,1l1.75,1.5l4.1,2.45l-2.45,1.35l-0.75,2.85l-0.6,1.351l0.6,0.899l1.051,6.75l0.75,1.65
	l-0.601,0.75c0-0.033-0.05,0-0.149,0.1c-0.067,0.067-0.317,0.284-0.75,0.65c-0.434,0.333-0.7,0.467-0.801,0.4
	c-0.1-0.034-0.133-0.067-0.1-0.101l-2.55,1.2l-1.5-0.15l-0.15-1.5L390,329.2l-1.05-0.3l-4.2,3.899l-0.9,1.2l-1.5-0.15l-2.699,2.051
	L378.3,335l-0.6-0.7l-2.4-1.05l-0.45,0.6l-0.899-0.899l-0.75,0.3l-0.55,0.75l-1.65,1.45l-0.9-1.3l-1.949-0.45l-2.4,1.6l-2.4-2.95
	h-1.5l-2.699-1.199l-2.25-1.5l-1.801-0.301v-0.75l1.351-1.949l1.35-0.9l0.601-1.2l1.35-0.75l-0.6-2.1L357.8,322.6v-1.5l-1.05-1.05
	l-1.35-2.1l-0.75-1.5l-1.5-1.2c-0.067,0-0.351-0.017-0.851-0.05c-0.533-0.033-0.95-0.017-1.25,0.05c-0.267,0.033-0.6-0.066-1-0.3
	c-0.399-0.267-0.616-0.417-0.649-0.45l-1.351-0.45l-0.3-1.35l0.3-0.601l-0.45-1.05l-4.149-1.35l-3.075,1.425l-0.175-0.775
	l0.175,0.775l-0.025,0.025l-0.149-0.801l-0.15-4.899l-0.5-14.95L340,289.95z M313.5,315.55l-1.35-0.3l0.149-0.75l-0.75-0.3l-0.3,0.6
	l-0.6-0.45l-0.9-0.149l-0.45-0.3l-0.45,0.149l-0.149-0.899l-1.05-1.5l-0.45-0.9l-0.75-0.15v-1.649c-0.033-0.033-0.2-0.167-0.5-0.4
	c-0.3-0.267-0.584-0.483-0.851-0.649c-0.267-0.134-0.6-0.25-1-0.351c-0.399-0.066-0.616-0.1-0.649-0.1L301.5,307l-1.5-0.9
	l-0.75,0.15l-1.05-0.75l-1.05,0.3l-0.601-0.75l-1.35-0.7l-1.3,0.351l-3.2-0.45l-0.65-0.3v-2.4l-1-0.95l-1.6,0.65v-0.025l-1.5-2.1
	l-0.976-1.45L284.5,297v-2.25v-0.05h3.175l1.075,0.05l0.65-2.95l1.6-2.3l3.6,1.35l3.25-1l2.301,1.95h3.25l2.899-0.95l3.3-1.649
	l2.9,1.649l0.35-1.35l2.601,2.3v4.25l0.649,4.851l-0.55,1.05l-1.524,2.8l-1.825,3.35l1.6,2.25v1.301l-0.05,0.399l-0.25,1.9V315.55z
	 M347.725,182.05l43.775,1.15h-40.7L347.725,182.05z M315.25,252.875l0.5,0.325L315.25,252.875z M260.05,286.25l-0.3-2.25
	l-1.95-1.95v-2.3l1.601-0.65h1.949l0.351-0.05l1.6-0.25l1-0.35l0.65-1.95l1.6-0.65l0.025,0.025l2.325,2.575l2.899,3.25v2.6v0.05
	l0.95,0.95l-0.95,1.95l-2.3-1l-0.95-2.25h-1l-1.6,1.6l-0.05,0.051l2.3,3.25l0.25,0.725l0.75,2.175v1.3v0.051l-1.3,0.649l-2.825,2.55
	l-1.125,1l-2.25,2.95l-2.3,0.3l-1.301,1.65l-2.6,1.6l-0.975,1.325L254.5,305.2l4.25,2.899h2.3l1.95,1l1.3-1l1.601,1l1.649,2.601
	l0.3,0.05l-0.55,0.65l-1.05-0.5l0.35,1.3L266,313.1l-1.45,1.101h-0.95l-0.699,1.3l-0.5,0.35l-0.101,2l-3.35,4.301l-0.8,1.449
	l-0.75,2L256.1,326.7l-2.25,4.05l-2.5,1.55l-0.949,0.851l-0.601,0.199l0.2,0.851l-0.8-0.351l-1.45,0.7l-5.35,0.601l-2.25,0.699
	l-1-0.699l1.199-0.601l-4.75-1.649l-0.949-1.2v-0.8v0.8l-0.351-0.45v-0.05l-0.3-2.9l-1.3-1.649l4.25-16.601v-0.95l0.725-1.25
	l0.226-0.399l0.324-0.4l0.976-1.2l2.3,0.301l0.95-0.95v-0.05v-1.95l-1.3-3.575V299.6l0.649-3.85v-0.05l-4.85,0.649l-1.976-0.324
	L233,295.7l-1.95-0.95l-3.55-5.25l-0.65-2.6l-0.35-3.551v-0.05l-0.725-0.575l0.024-0.024l8.5-8.8l2.65-1.301h2.6l3.25,4.25
	l1.476,1.2l0.475,0.4v6.149v0.051l2.2,0.175l5.6,0.475l0.65,1h0.075l0.675,1.65l-0.75,2.25l-1,1.25l1.25,1.25h2.5l3,2.25l2.75,1.25
	l1.25-0.25h1l1.125,0.399l-1.125-0.399h-1l-1.25,0.25l-2.75-1.25l-3-2.25h-2.5l-1.25-1.25l1-1.25l0.75-2.25l-0.675-1.65h6.774
	V286.25z M289.05,300.6l2.15-1.899l3.5-1h0.75l2.25,1.25l2.75,2.25l3.25,0.25l3.5,1.5h1.5l0.5,1.5l4.825,0.3l-4.825-0.3l-0.5-1.5
	h-1.5l-3.5-1.5l-3.25-0.25l-2.75-2.25l-2.25-1.25h-0.75l-3.5,1L289.05,300.6z M72.2,108.225l-0.1-0.175l-0.3-2l-0.05-0.3v-1.25
	v-0.05l-2.6,0.65l-1.95-0.65l-0.65-1.95l-2.25-0.95h-0.05l-2.6-0.35l-1.95,0.65h-3.9l-3.55-4.55l-0.025,0.025L52.2,97.3l-2.3,1.95
	l-1.3,1.65l-1.3,0.65l-0.65,1.3l-0.35,1.95h-0.9l-1.275-0.75l-0.4-0.225L42.8,102.2l-0.35-2.3l-0.05,0.025V99.9l-0.825,0.55
	l-2.075,1.4l-0.275,0.5l-0.275,0.5l-0.45-0.65L33.3,97v-0.05l0.65-2.25l-1-0.65l1-2.95l-0.35-3.9l-3.4-0.25l-0.65-2.55l-1.4-3.35
	l3.3-0.95l0.95-2.35l-2.35-3.3l0.45-3.3V68.8l0.95-4.3l2.35-1.4l1.45-0.45l0.95-1.9l-2.4-2.4l-0.45-2.8l-0.95-1.9l3.3-5.7L48,15.35
	l1.4-5.65l-0.6-0.65l20.6,6.6l6.3,7l4.15,5.4l11.35,13.2l-6.1,9.45l-6.85,8.15l-1.95,11.4l-6.2,1.95l1.65,1.95l0.65,1l0.3,2.6
	l1.65,1.3l0.65,2.3l1.95,0.95l-0.65,1.3h-2.6l-1,2.65l-3.55,1.3l-1.65-1.3h-1.3l0.65,3.25l1.3,1.3l1.65-0.35l-0.35,1.65l1,0.65
	l0.95,1.95l-0.95,1.95l1.3,1.3l-0.35,1l1.3,3.9l1,1.6l-0.65,1l-0.65,1.65L72.2,108.225z M27.775,186.875l-3.225-2.225l-0.025,0.024
	l-0.975,1.275h-1.3l-1.3-0.65L20,183l0.65-0.95v-1.35l0.95-1.601l-0.025-0.024L20,177.15l-1.65-1.301v-0.024L17.7,173.9h1.95
	l0.525-1.101l0.175-0.35l2.55,0.8l1.25,1.2l0.4,0.399l5.5,2.601l0.025-0.025l0.025,0.025l1.2-0.976l0.4-0.324l3.25-1.825l1.95-1.075
	l0.375-0.9l0.625-1.399l1.6,1.3l0.25,0.4l0.75,1.25l1.65,0.949l7.15,3.25l-1,1.95l-1.6,1.3l0.025,0.025L46.7,181.4l0.975,1.199
	L48,183h2.6l12.05-3.9l2.6-4.25l21.3,0.9l0.85,2.35l-0.3,1l-1.95,3.9l-1.3,0.35l-3.3,3.551l-7.15,11.75l-1.175,1.574l-0.775,1.025
	h-0.1l-2.5-0.35l-0.025,0.05L68.5,201.9l-2.675-0.976L64.95,200.6l-0.35-1.3l-0.65-1.3l-0.425-1.7L63,194.1l0.3-1.949l-0.3-1
	l-0.05,0.024l-8.1,3.226l-1,1l-2.925-1.226l-0.975-0.425l-0.35-2.3l-0.95-0.95l-3.25-1.3l1.3-0.65l-1.95-1.649l-0.025,0.024
	L44.1,187.25l-1,0.3l-4.25-1.6l-6.5-1H30.1l-2.3,1.95L27.775,186.875z M32.2,64.95l4-1.25l3.25-0.25l3.25,0.75l5.25-0.5l2,0.25
	l1.75-0.75l3.75,2.75l4.5,2v1l2.5,2.25l4,1.75l1.25-0.5h1l1.4-0.25l-1.4,0.25h-1l-1.25,0.5l-4-1.75l-2.5-2.25v-1l-4.5-2L51.7,63.2
	l-1.75,0.75l-2-0.25l-5.25,0.5l-3.25-0.75L36.2,63.7L32.2,64.95z M42.7,175.7l-1,1.25l-2.75,1.75h-1l-0.75,0.75l-0.75,0.5l0.5,1.75
	l0.25,2.25l-0.5,1l0.5-1l-0.25-2.25l-0.5-1.75l0.75-0.5l0.75-0.75h1l2.75-1.75L42.7,175.7z M18.6,181.3l-7.1,1.05l1.2-0.949
	l1.95-0.601l1.95-0.2L18.6,181.3z M24.55,184.65l0.4-1.45l1.5-1.75l0.25-1.5l-0.25-2l-0.75-2.25l0.75,2.25l0.25,2l-0.25,1.5
	l-1.5,1.75L24.55,184.65z M214.55,270.8l-0.45,3.4l-2.899,0.35l-1,0.95l0.649,1.3l-0.399,0.476l-1.25,1.475l1.3,0.65l1.35,0.975
	l1.301,0.975l1.6-0.3l1-1l0.95,1l0.524,2.275l0.476,2.274l-4.55,3.25l-1.65-1.3v1.3l-0.65,1.95l0.351,2.601v0.05l-2.3,2.6
	l-0.25,0.65l-0.75,1.95l-0.226,2.675L207.6,302.2h-1.3l-1.625-2.851l-0.024-0.05l-1.301,1.95l-0.949,2.6l-1.95,0.5l-1.7-2.949
	l0.7-1.101l-1.8-2.25l-0.95-2l-2.5-2.399l-1.65-2.15l-2.15-1.3l-2.85-2.4l-1.825-1l1.225-1.1l1.5-1l0.5-0.75l-0.5-2.5l9.5-10.25
	l9.25-3.25l1.5-0.75l-1.5,0.75l-9.25,3.25l-9.5,10.25l0.5,2.5l-0.5,0.75l-1.5,1l-1.225,1.1L183,285.3l-2.25-1.649l-3.95-1.801
	l-1.05-0.949h-2.05l-1.9-1.101l-6.55-2.149l-3-0.601l-1.2-0.55l-2.25-1.35l-1.2,0.25l-1.1-0.601l0.6-1.25h1.65l0.65-1.6v-2.601
	v-0.05l-0.125-0.524l-1.225-4.976l1.65-8.5l5.175-12.024l0.025-0.025l6.85,2.6h2.95l20.2,9.45l0.125,0.125l0.075,0.075L214.55,270.8
	z M208.15,343.95L207.1,343.6l-0.149-1.55l0.5-1.55l0.25-1.3l0.1-1.45l-0.95-0.8l1.2-0.351l1.2,0.95l0.7,1.4l0.7,0.35l0.5-0.1
	l0.449,1.55l-0.35,1.3l-1.55,1.101L208.15,343.95z"/>
<path fill-rule="evenodd" clip-rule="evenodd" fill="#c8c8c8" d="M276.275,271.025l-2.176,0.225l-0.774,0.5l-5.125,3.1l0.649,1.301
	l-0.6,1.55l-1.65-1.851l-0.024,0.025l-0.025-0.025l-1.6,0.65l-0.65,1.95l-0.95,0.3l-1.649,0.3l-0.351,0.05H259.4l-1.601,0.65v2.3
	l1.95,1.95l0.3,2.25h-6.8l-0.65-0.95h-0.05l-5.6-0.475l-2.2-0.226v-6.149l-0.475-0.4l-1.476-1.25l-3.25-4.25h-2.6l-2.601,1.3
	l-0.05,0.051l-8.5,8.8l-1.25-1l-9.75-10.75l-0.25-0.2l-19.4-15.25l7.2-9.15l0.101-0.1l0.3-0.4l0.825-0.774l4.7-4.5l1.324-1.226
	l1.301,0.301l2.6,1.949l8.8-7.149l8.45,0.35l6.5,3.25h2.6h0.051l0.625-0.95l0.024-0.05l9.101-1.95l3.899,2.601l2.175-0.7h0.025
	l0.025,0.05l2.625,4.25l0.649,2.3l1.3,1.301H262l1.95,4.875l-0.95,0.5l-1,0.475l11.35,15.35l0.051-0.024l0.024,0.024H273.4
	l3.6,4.851L276.275,271.025z M269.2,293.1l0.649-0.3l3.551,0.65l3.3,1.95l0.8,0.8l-0.85,1.45l-6.5,3.899
	c0.161,0.164,0.319,0.33,0.475,0.5l1.475,1.5l5.551,0.65l1.375,1.649c1.378,1.669,2.753,3.335,4.125,5l-1.45,0.2l-6.55-1.7
	l-2.601-0.199l-1.1-0.25l-2.601,1.55l-1,1.25l-0.3-0.05l-1.649-2.601l-1.601-1l-1.3,1l-2-1h-2.25l-4.225-2.875l0.975-1.325l2.6-1.6
	l1.301-1.65l2.3-0.3l2.25-2.95l1.125-1l2.825-2.55l1.3-0.649V293.1z M261.45,300.95l1.25,0.5l1-0.75l1.25-0.25l1.5,1l0.75,1.5
	l1.75,0.25l1.25,1l0.75-0.75l-0.75,0.75l-1.25-1l-1.75-0.25l-0.75-1.5l-1.5-1l-1.25,0.25l-1,0.75L261.45,300.95z M65.825,200.925
	L68.5,201.9l0.325-0.95l2.475,0.3l-0.55,2.9v3.6l-4.55,12.4l-0.15,0.899v0.05l-0.4-0.05h-0.1l-0.8-0.45l-0.85,0.45l-1.7-0.25
	l-5.95,0.4L54,222.5l-2.05,1.65l-0.8-0.45l-2.65-1.95l-2.85-2.95l-5.5-7.75l-5-8.95l-1.4-0.5v-0.449L33,201.05l-0.85-0.8l-3.45-2.55
	l-1.3-1.7l-2.4-1.65l-2.1-2.25l-0.5-1.1l-3.1-1.9l-3.6-4.149l0.4-1.45l0.6-1.45l1.3-0.35l0.6-0.4l2-0.55v1.3L19.95,183l1,2.3
	l1.3,0.65h1.3l0.975-1.275l3.225,2.226l0.025-0.025L27.8,186.9l2.3-1.95h2.25l6.5,1l4.25,1.6l1-0.3l0.625-0.325l1.925,1.625
	l-1.275,0.65l-1.425,0.75l-3,3.25l-3.75,3.25l-2,0.75l-1.75,1.5l-1.3,1.55l1.3-1.55l1.75-1.5l2-0.75l3.75-3.25l3-3.25l1.425-0.75
	l3.225,1.3l1,1l0.3,2.25l1.025,0.425l2.925,1.226l1-1l8.1-3.226l0.35,0.976l-0.35,1.949l0.575,2.2l0.425,1.7l0.65,1.3l0.3,1.3
	L65.825,200.925z M216.7,239.45l0.5,3.25l2.25,2.5l1,0.75h1l0.5-1.25l2.25,1.25l0.75,3.25h-1.25l1,4.25l3.25,7l1,1l1.75,1.25
	l0.5-1.25l1.75-1l0.75,1.5l0.5-1.5l3.5-1l3.75,3.75l3,1.75l0.75,0.25l1.25,1l2.25,1.25l1.5,2l1.5,1l3.25,3l0.75-1.25l3.5-4.5l1-2.5
	l1.5,1.25l1-2.25l1-1l-0.5-2.5l2.25-4.5l-2.25,4.5l0.5,2.5l-1,1l-1,2.25l-1.5-1.25l-1,2.5l-3.5,4.5l-0.75,1.25l-3.25-3l-1.5-1
	l-1.5-2l-2.25-1.25l-1.25-1l-0.75-0.25l-3-1.75l-3.75-3.75l-3.5,1l-0.5,1.5l-0.75-1.5l-1.75,1l-0.5,1.25l-1.75-1.25l-1-1l-3.25-7
	l-1-4.25h1.25l-0.75-3.25l-2.25-1.25l-0.5,1.25h-1l-1-0.75l-2.25-2.5L216.7,239.45z M244.45,264.95l-0.5,1.5l-0.75,3.25l-1.25,1.5
	l-3,0.75l3-0.75l1.25-1.5l0.75-3.25L244.45,264.95z"/>
<path fill-rule="evenodd" clip-rule="evenodd" fill="#c8c8c8" d="M198.2,109.05l18.85-2.95l15.65,11.1l19.85-7.2v0.025l-0.7,1.975
	l-0.25,0.65l0.65,2.25l-0.075,0.9l-0.274,2.7l1.3,8.15v4.2l-0.4,0.075l-1.85,0.275l-1,1.95l-0.65,2.6v4.55l-11.05,42.351
	l1.95,22.149l-3.601,1l-0.25,7.15h-0.05h-0.35l-4.25,2.6l-0.8,1.175l-0.801,1.125l-1.649-0.649l-2.425-2.226l-1.476-1.375l-1.3-0.3
	l-3.25,2.95l-2.95,0.65l-5.85-8.15l0.399-0.25l1.25-0.75l-1.175-1.125l-1.125-1.125l-9.8,6.5l-0.55,0.5l-1.05-1.15l-0.325-0.8
	l-0.325-0.85l-1.95-1.3l-1.95-1.301l-2.95-4.55l0.65-0.95l11.75-8.5l2.601-2.899l-0.025-0.025l0.025-0.024l-1.301-1.45l-5.55-6.351
	l-0.649-1.949l-2.95-0.65l-3.25-2.6l-3.25-3.601l-2.3,0.3l-1.95-1.3l0.35-2.55v-0.05l-1.475-1.226L178,163.45v0.025l-0.05-0.025
	l-0.4,2.3l-2.5,14l-0.025,0.025L165.6,189.1l-12.7-18.8v-0.05l0.95-5.8l-2.6-3.3l1.65-2.6l-15.3-3.7l0.3-9.65l9.75-5.5v-0.05
	l0.35-2.9l5.55,0.65l2.6-3.6l26.4-8.8l15.601-15.95H198.2z M195.2,177.95l1.5-2.5l1-2.5l1.25-1l1.25-1.5l1,0.25l0.75-1l1.75-1.5
	l0.75-0.5l1.25-1.5l5-4.25l1-1.25h0.75l1.5,1l3.5-0.5l1.5-0.5l2.25-2.75l-1.75-4l-2-3.25l-9-19.75l-3.5-8.75l-4-8l-0.25-1.5
	l-1.75-3.25l1.75,3.25l0.25,1.5l4,8l3.5,8.75l9,19.75l2,3.25l1.75,4l-2.25,2.75l-1.5,0.5l-3.5,0.5l-1.5-1h-0.75l-1,1.25l-5,4.25
	l-1.25,1.5l-0.75,0.5l-1.75,1.5l-0.75,1l-1-0.25l-1.25,1.5l-1.25,1l-1,2.5L195.2,177.95z M29.1,166.575l-1-0.875l1.3-2.6l1.65-1.3
	l1.3-0.3l-0.3-2.95L32,158.575v-0.025L30.2,159l0.75-4.8l-0.25-6l0.75-2.75l0.25-1.5l-1.75-2.75l-2.25-0.75l-3.925-2.2l-1.825,0.95
	v1.25l-0.75,0.5v2.75l-0.75-0.25l-1.25-1.25l-1-0.25l-1.5,2.25l-1.5-0.5l-3.25,1.25l-1.25-1l-2,0.5l-3.5-2l3.5,2l2-0.5l1.25,1
	l3.25-1.25l1.5,0.5l1.5-2.25l1,0.25l1.25,1.25l0.75,0.25v-2.75l0.75-0.5v-1.25l1.825-0.95l3.925,2.2l2.25,0.75l1.75,2.75l-0.25,1.5
	l-0.75,2.75l0.25,6L30.2,159l-0.8,0.2l-0.8,0.325l-0.85,0.325l-0.95,1.3l-0.35,1.95l-1.25-0.3h-0.05L24.5,165.4v1.949l-0.3,0.95
	h0.025l-0.025,0.05l1.3,0.65h1.95l0.05,0.25l0.25,1.35l-1.3,1.301l-1.6-0.301l-1.6-1.649l-1.65-1.3l-0.65,2.6l-0.6,1.2l-0.175,0.35
	l-0.525,1.05h-2l0.65,1.95l0.05,0.025v0.024L20,177.15l1.575,1.925L20.6,180.7l-2,0.55l0.45-0.3l-0.6-1.05l-0.8-0.351l-1.3-1.1h-1.9
	l-3.8-4.25l-4.25-3.3l-2.85-1.4L5,168.05l-2.85-0.95l1.4-1.85l2.85-0.5l3.8,1.4l2.35-0.45l1.4-2.35v-4.25l-0.45-2.4h-2.35l-4.75-1.4
	l-3.75-2.35l-1.45-2.4l-0.95-3.3l0.5-1.4l3.75-0.95L5,143l-0.95-6.15l1.4-3.75l2.4-9.5l-0.5-4.25l2.35-7.55l1.45-0.45l2.8-1.45
	l0.5-1.9l1.4-1.4l2.85-0.5l3.3-1.4l2.4-1.9l1.85-0.95l0.5-8l1.9-3.8l1.85-1.9l-0.3-1.2l3.4,0.25l0.35,3.9l-1,2.95l1,0.65l-0.65,2.25
	V97l5.2,5.2l0.45,0.65l-1.75,3.25l-2.6,1.95l-1.2,1.725L33,110.35l0.65,1.3l8.45,0.65l0.85,0.325l0.8,0.325l1.3,3.25l0.15,1.85
	l0.15,2.4l0.35,1.3l0.95,1.6l1.175,0.825L48.95,125l0.4,0.475l1.2,1.475l1.025,0.5l0.325,0.15l0.65,2.3l-0.65,7.15l-1.4,5.375
	l-0.6,2.125v1.6l-2.6,0.35l-0.65,1.95l-1.3,1.95l0.7,0.9l0.3,0.4l-5.2,1.65l-3.9-1.3v0.025l-0.05-0.025L36.25,154v2.6l-0.65,1.95
	l-0.65,1.3l1.6,1.3l1.65,1l-0.4,0.4l-1.25,1.2l-1.925,0.65L33,163.1l-1.125,1.15L30.7,165.4l-0.3,2.25L29.1,166.575z M23.775,138.25
	l3.425-1.8l-2-4.5l-0.75-3.75l-0.5-1.25l0.25-5.25l0.5-1l-1.75-0.25l0.25-1.25l4.5-5l0.25-2.5l1.5,1.25l1-0.75l0.75-0.75l1.8-1.1
	l-1.8,1.1l-0.75,0.75l-1,0.75l-1.5-1.25l-0.25,2.5l-4.5,5l-0.25,1.25l1.75,0.25l-0.5,1l-0.25,5.25l0.5,1.25l0.75,3.75l2,4.5
	L23.775,138.25z M156.5,274.8l-10.3-5.95l-0.6-0.8l-6.45-5.149l-0.7-1.051l-1.8-0.85l-4.25-3.25l3.55-4.55l0.75-1.5l1.25-1.75
	l1.25-2.5l-0.25-1.75l-1.25,0.25h-1.75l-3.5,0.5l-2.25-2.5v-2l1.25-2l-1.25,2v2l2.25,2.5l3.5-0.5h1.75l1.25-0.25l0.25,1.75
	l-1.25,2.5l-1.25,1.75l-0.75,1.5l-3.55,4.55l-3.25-2.5l-6.2-2.85l-3-0.95l-4.5-2l-1.1,0.2l-2.95-1.301h-6.95l-1.4,0.25l-1.1-0.1
	l-0.45-0.85l-1.2-0.5l-0.95-1.301l-1.8-1.3l-2.15-0.95l-2.5-3.449l-1.3-0.851v-0.7l-0.85-0.949l-0.25-1.2l1.1,0.1l0.6-0.85l0.35-0.7
	l-0.15-1.55l-0.7-0.8l0.6-2.4h3.2h0.05l1.3-0.65l1-1l0.7-1.225l0.6-1.025l-0.65-3.25l-0.05-0.05l-1-1l0.7-0.25l3.95-0.7l0.65-1.6
	l2.575,0.65h0.025l1.3,2.949l1.925,3.2l-0.625,1.65l-2.5-0.5l-1,0.25l-2.5-1l-1.25,1l-2.1-0.325h-0.05h0.05l2.1,0.325l1.25-1l2.5,1
	l1-0.25l2.5,0.5l0.625-1.65l0.025,0.05l1.6,0.65l0.65,1.3l0.175,0.55l1.175,4l4.85,1.301l4.075-0.2l2.475-0.101l2.9,0.65l0.1,0.225
	l0.55,1.375l0.55,1.976l0.1,0.325l2.275,0.649l2.275,0.65l0.7,0.95l2.25,1.3l2.9-0.75l0.7-0.2l1.6-2.6l1.65-1.95l2.3-1.3l0.65-1.301
	l1.3-1.3l4.35-1.899l0.2-0.101l1.05-0.3l2.2-0.65l2.7-1.449l-0.05,6.449l-0.05,2.15l0.35,2.6l4.2,2.601l3.525,1.325L159.7,255.3
	l-1.65,8.5l1.225,4.976l0.125,0.574v2.601l-0.65,1.6h-1.65L156.5,274.8z"/>
<path fill-rule="evenodd" clip-rule="evenodd" fill="none" stroke="#fff" stroke-width="1" stroke-linecap="round" stroke-linejoin="round" stroke-miterlimit="3" d="
	M300.75,96.05L299.4,95l-1.2-1.95l-0.75-1.95l-0.15-1.95l-2.25-4.65l-0.1-1.9l1.899-0.9l2.101-0.15l0.899-0.45l0.601-1.3
	c-0.2-0.167-0.55-0.433-1.05-0.8c-1.067-0.867-1.717-1.317-1.95-1.35c-0.2-0.066-0.3-0.066-0.3,0l-0.15-1.2l-0.45-0.9l-1.2-3
	l1.2-0.75L295.8,70l-1.149-1.8l0.149-1.05l-0.75-1.65l0.75-0.15c0.033,0.033,0.25,0.033,0.65,0c0.366-0.033,0.533-0.233,0.5-0.6
	c-0.066-0.367-0.101-0.583-0.101-0.65L295.8,64l-0.85-0.45l-0.601,0.9h-1.05c0.033,0.066,0.033,0.15,0,0.25c0,0.133-0.35,0-1.05-0.4
	c-0.733-0.433-1.184-0.7-1.35-0.8l-0.15-0.1l-1.8-1.65l-2.55-3L286.1,57.4l-0.6,0.75l-1.65-0.3l-0.899-1.35l-1.05-0.75l1.5-2.2
	c-0.5-0.667-0.801-1.066-0.9-1.2l-0.15-0.15v-1.95l-1.5-0.9l-1.35,0.6l-0.45,1.2l-0.45,0.15l-0.149,1.65l-1.351,0.3l-5.25-0.45
	l-1.35-1.05l-3.15-1.65l-1.449-0.45L261.1,46.5l-1.05-1.5v1.35L259,47.1l-0.55-0.05l-1.25-0.1l-1.8-0.9
	c0.033-0.033,0.133-0.1,0.3-0.2c0.166-0.1,0.184-0.15,0.05-0.15s-0.6,0.167-1.4,0.5c-0.6,0.233-1.017,0.4-1.25,0.5l-0.074,0.025
	 M252.725,46.825l-1.675,1.025L250,46.5c0.033-0.033,0.066-0.167,0.1-0.4c0.067-0.233-0.017-0.4-0.25-0.5
	c-0.233-0.133-0.733-0.033-1.5,0.3c-0.933,0.4-1.466,0.6-1.6,0.6h-0.05l-1.95,1.35l0.15,2.7l1.05,3L248.2,54h3.149l-1.5,1.15
	l-0.149,1.2l1.8,0.75l0.9,1.05l-0.601,0.6l-1.649,0.6L249.7,61l0.45,0.75l2.55,0.75v0.45l-1.2,0.75l-2.1-0.75h-0.9l-1.35,0.9
	l-0.9,1.95l0.15,1.05c-0.034,0.033-0.067,0.083-0.101,0.15s0.15,0.067,0.55,0c0.434-0.067,0.7-0.117,0.801-0.15h0.1l0.6-1.65
	l1.351-0.15l0.6,1.05l-0.149,1.95l0.149,1.35l-0.6,0.75l-0.75-1.5l-0.601-0.6l-1.8,2.1l-1.35,0.9v1.35l0.75,0.45
	c-0.066-0.033-0.217-0.017-0.45,0.05c-0.3,0.067-0.55,0.35-0.75,0.85c-0.134,0.5-0.217,0.8-0.25,0.9l-0.05,0.15l0.45,1.35l1.199,0.3
	l1.65-0.6c-0.033,0.033,0.05,0.1,0.25,0.2c0.2,0.133,0.616,0.067,1.25-0.2c0.634-0.3,1.033-0.483,1.2-0.55l0.149-0.05l0.9-0.15
	l-0.6,1.5l-0.45,0.75v1.05l1.05,1.05l1.2,1.5l0.45,1.65L253,83.45l0.6,1.8h1.351l-0.45,1.8l-0.9,1.65c0.034,0-0.017,0.066-0.149,0.2
	c-0.134,0.133-0.483,0.417-1.05,0.85c-0.567,0.433-0.917,0.7-1.051,0.8l-0.149,0.1l-1.65-0.75l-0.45-1.05l-0.6,0.9l0.15,1.2h-1.5
	l-23.2-11.8l-3.45-2.1l-10-7.5l-2.25-0.45L206,68.95l-2.7-1.65l-5.85-2.25l-4.65-2.7l-14.1,3.15l5.8,10.95l0.125,0.575l0.825,3.675
	l7.5,13.7l4.5,12.575l0.75,2.075l18.85-2.95l15.65,11.1l19.85-7.2v0.025L252.6,110l-0.75,2l-0.25,0.65l0.65,2.25l-0.075,0.9
	l-0.225,2.7l1.3,8.15v4.2l-0.45,0.075l-1.85,0.275l-0.95,1.95l-0.7,2.6v4.55l-11.05,42.351l41.05-0.25l61.9-0.4l2.55,0.925l1,0.351
	l0.05,0.024l1.3-1.6l1.351,0.25L346.85,181c-0.267-0.366-0.649-1.033-1.149-2c-0.5-0.934-0.816-1.5-0.95-1.7l-0.1-0.25l-3.301-3.45
	l-2.55-9.55l-3.149-5.1l-1.125-1.275c0.024,0.034,0.05,0.076,0.074,0.125l-0.3-0.3c-0.233-0.267-0.783-0.983-1.649-2.15
	c-0.867-1.167-1.5-2.017-1.9-2.55c-0.366-0.5-0.6-0.8-0.7-0.9l-0.1-0.15l-2.25-1.65l-1.5-2.7l-0.75-2.25l0.149-8.35l0.75-0.45
	l0.9-0.15l1.95,0.75c0.033,0.033,0.166,0.167,0.399,0.4c0.233,0.267,0.467,0.45,0.7,0.55c0.2,0.133,0.283,0.017,0.25-0.35
	c-0.066-0.6-0.1-0.95-0.1-1.05l-0.05-0.15l-2.25-2.7l-4.351-7.2l0.45-1.65c-0.033-0.033-0.05-0.25-0.05-0.65
	c0-0.367,0.166-0.65,0.5-0.85c0.366-0.133,0.583-0.216,0.649-0.25l0.101-0.05l-1.351-1.8l-5.35-5.1l-3.6-1.5l-1.351-1.2
	c0.033,0.033,0.134,0.05,0.3,0.05c0.134,0,0.117-0.117-0.05-0.35c-0.074-0.12-0.225-0.287-0.45-0.5
	c-0.271-0.263-0.653-0.596-1.149-1c-1.367-1.067-2.2-1.717-2.5-1.95l-0.351-0.25c0.034,0.033,0.134,0.217,0.301,0.55
	c0.133,0.3,0.1,0.383-0.101,0.25c-0.166-0.1-0.733-0.767-1.7-2c-0.456-0.616-0.814-1.091-1.074-1.425
	c-0.11-0.155-0.202-0.28-0.275-0.375l-0.05-0.05c-0.2-0.3-0.267-0.434-0.2-0.4c0.033,0.033,0.083,0.066,0.15,0.1l-2.15-2.35
	l0.75-1.2l-1.05-2.7l-1.95-1.8l-1.5-1.95 M328.55,93.2l0.601,3.55l1.399,1l1.2-0.8l-0.4,0.8l1.95,0.8v-0.8l-0.35-2.6l-1.2-1.55
	l-2-1.4l-0.4-0.6l-1.55-0.8L328.55,93.2z M306.75,106.3c0,0.036,0,0.069,0,0.1 M306.65,106.05c0.054,0.054,0.087,0.138,0.1,0.25
	 M348.3,140.1l-0.55,0.9l-0.45,0.15l-1.649-0.2l0.449,0.65l0.551,0.6l2,1.25l2.149,0.95l0.101,2.15l-0.051,0.8L350.3,148l1.5-0.25
	l0.351-0.25l0.5,0.25l0.6,0.5l0.8,0.25l-0.649-1.85l-2.101-2.8l-2.3-1.4l-0.3-0.95l0.399-0.7L348.3,140.1z M364.45,123.5l-1.25-0.45
	l-1.351-0.7l-0.649,0.1l-1.9-0.75l-0.8,0.3l-1.3,1.2l-0.7-0.55l-0.55,0.2l-0.15-0.55l-0.7-0.1h-0.35l0.25,1l-0.05,1.55l0.05,0.75
	l0.3,0.5l0.5,0.35l0.55,0.85l0.851,0.05l1,0.85l0.8,0.15l0.15,0.55l0.699,0.45l1.551,0.15l1,0.4l0.8-0.2l0.5,0.5l0.399-1v-0.75
	l0.801-0.3l0.899,0.05l-0.35-1.2l0.25-0.85l-0.75-0.35l-1.05-1.55L364.45,123.5z M366.7,124.15l0.149,0.75l0.25,0.55l0.65,0.15
	l0.45-0.6l0.149-0.55v-0.65L366.7,124.15z M362.725,262.5l-0.024-0.05L373.1,256.6l2.601-2.949l3.85-3.5l-0.649-0.801l-0.9-3.3
	l0.3-2.1l-2.25-4l-0.75-2.4l-4.8-5.85l-3.7-6.15l-4.05-0.75l-4.65-6.6l-0.6-3.15v-3.1l0.9-3.15l1.649-0.75l0.601,0.601l-0.9-1.801
	l-0.15-1.649l1.65,1.95l0.75,2.1l1.95-0.3l-1.8-4.351l-2.25-2.1l0.3-2.55l-3.75-4.8c0,0.033,0,0.066,0,0.1l-0.25-0.4
	c-0.2-0.267-0.566-0.866-1.101-1.8c-0.533-0.934-0.899-1.55-1.1-1.85c-0.233-0.3-0.366-0.45-0.4-0.45v0.05L352.7,189l-4.55-6H348
	l-0.1-0.4l-0.45-0.649 M398.3,313.9l0.55-0.301l0.45-0.75l-1.05-2.699l-3.15-4.301l-0.6-5.55l1.2-1.05l0.45,0.15h0.75l0.6-1.051
	l-0.75-1.949l-0.75-1.2l-1.35-0.601l-0.45-0.75l-0.3-0.899l-2.101-3.15l-1.2-2.7l0.45-2.399l1.05-1.05l0.45-0.75l-0.75-0.15
	l-1.2-2.55v-1.9l2.551-0.899l-1.65-1.65l-1.65-2.1l-1.199-3.15l0.899-2.1l-0.6-0.9l-0.9-0.75l-2.25-2.7l-3-4.649l-1.35-2.7
	l1.35-2.101l-1.2-1.949l-2.05-2.5l-0.899,0.949l-2.95,2.601l-2.601,2.95l-10.375,5.85H362.7l1.95,5.2l-4.726,0.575L359.8,268.3
	l-0.35,0.05L352.9,270l-3.25-0.65l-3.601-1.949l-0.3,0.649l-3.9,2.601L341.2,271.6h-0.05H338.6l-1,1v2.9l4.25,3.6l1.95,1v2.25
	l-1.3,5.2l-0.875,0.7l-1.075,0.95l-0.55,0.75l0.55,0.899 M347.725,182.05l3.075,1.15h40.7 M344.75,183.275v0.024l-1-0.375
	 M309.625,209.925l1.575,0.425l0.8-0.074l2.45-0.275v0.05l-0.65,3.9l11.4,12.7l0.225,4.05l0.125,2.45l-0.899,1.725l-1.375,2.825
	 M314.45,210.05l-2.45,0.226 M288.825,210.625l0.225,0.675h2.3l9.75-1.95h6.5l2.025,0.575L307.6,209.4h-6.5l-9.8,1.949h-2.25
	L288.825,210.625L279.3,182.4 M314.75,252.5v-1.1l-0.625-0.2l-1.625-0.45l3.025-2.1l1.175-0.851l1.125-2.2l1.825-3.649l0.175-0.55
	l0.475-1.7l0.05-0.025l2.9-1.925l0.025-0.05 M324.65,234.875l0.85-1.725l-0.075-2.45 M320.35,239.675l-0.524,1.726 M317.825,245.6
	l-1.075,2.2l-1.225,0.851 M315.625,252.75l0.125-0.05v0.5v1.45l0.35,2.3l1.926,0.95l1.324-0.65l1,1.3l-0.074,0.025l0.024,0.024
	l-2.2,0.625l2.25,1.275l-0.375,0.525l-0.324,0.475l0.35,1.95l-0.65,1.649v1.301l2.95,0.949l2.25,1.301l2.601,1l1.949,0.3V270h0.051
	l-0.65,5.5l1.6,2.95l1.95,2.6l3.601,3.25l3.899,4.9l0.45,0.7l0.5-0.7l1.125-0.95 M314.125,251.2l0.675,0.2v1.125V253l0.425-0.125
	l0.4-0.125 M315.25,252.875l-0.5,0.175v-0.55 M315.25,252.875l0.375-0.125 M318.025,257.9H318l-1.95-0.95l-0.3-2.3 M319.975,261.025
	l0.325-0.476l-2.3-1.3l0.1-0.025 M320.275,258.575l-0.926-1.325 M341.15,271.6l0.699-1l3.9-2.6l0.3-0.65l3.601,1.95l3.25,0.65
	l6.5-1.601l0.399-0.05 M337.6,272.6v-0.05l0.95-0.95h0.05 M329.1,270l-1.949-0.35 M319.35,265.1l-0.949-0.35h-0.051l-1.6,0.35v-1.3
	h-0.05l-2.55,0.3l-1.301,0.351l-0.35,2.25l-1.3,1.3l-1.825,2.475l-1.075,1.476l1.075,1.325l1.825,2.225l-1.95,3.6l-1.95-1
	l-0.024,0.025L305.95,279l-0.601,0.4l-1.3-0.95h-0.024l-0.375,0.125l-0.125,0.024l-0.476,0.15l-1.3-0.3 M300.15,278.45l-3.601-3.601
	l-1-1.6l-2.25,0.3l-1.375-0.55l-5.125-2.05l-1.35-1.601l0.35-2.3l-0.649-0.35h-0.025l-0.375,0.1l-0.125,0.025l-0.775,0.225
	l-0.649-2.6l-2.3-1l-2.351,0.524L278,264.1l-1.95,1.301l-2.625,0.699H273.4l3.6,4.851l-0.725,0.075l-2.226,0.274l-0.725,0.45
	l-5.125,3.1l0.649,1.301l-0.6,1.55l0.65,0.75l2.899,3.25v2.6l0.95,1l-0.95,1.95l-2.3-1l-0.95-2.25h-1l-1.6,1.6l2.25,3.25l0.25,0.775
	l0.75,2.175v1.3l0.649-0.3l3.551,0.65l3.3,1.95l0.8,0.8l0.5-0.8l3.25-1l6.425,0.3l1.075,0.05l0.65-2.95l1.6-2.3l3.6,1.35l3.25-1
	l2.301,1.95h3.25l2.899-0.95l3.3-1.649l2.9,1.649l0.35-1.35l2.601,2.3v4.25l0.649,4.851v0.05l-0.55,1l-1.524,2.8l-1.825,3.35
	l1.6,2.25v1.301v0.05l-0.05,0.35l-0.25,1.9v1.6l0.6-0.45l2.5,0.45l3.9,0.15l1.5,1.05h0.6l1.351-0.45H325l0.45,0.75L328,316.9
	l0.75-0.9l0.75,0.75l0.45,0.3l0.75-0.149l0.75-0.75l1.05-0.301l1.8-1.8l-0.75-0.3l-0.45,0.3l-0.6-0.149l-0.3-1.65l0.6-0.45l1.65-0.6
	l-0.15,1.35l0.15,0.9h0.6l0.75-0.601l2.851-0.149l1.199-1.351l0.5-0.199l-0.149-0.801l-0.15-4.899l-0.5-14.95l0.45-0.6 M312.5,266.7
	l0.3-2.25l1.3-0.351h0.051 M315.55,301.95l0.55-1.05 M340,289.95l-0.45,0.55 M309.375,273.275l-1.125-1.325l1.125-1.476 M305.95,279
	l1.3-0.9l0.025,0.025 M303.65,278.575l0.35-0.125h0.025 M284.75,266.8l0.35-0.1h0.025 M273.4,266.075l2.6-0.675l1.95-1.301
	l0.6-0.125 M263,250.275l-1,0.475l11.35,15.35l0.051-0.024 M273.425,266.1l-0.024-0.024 M273.325,271.75l0.774-0.5l2.176-0.225
	 M272.75,285.3l-0.95-0.95v-0.05 M284.5,294.75l-3.25-0.35 M284.975,297.675L284.5,297v-2.25 M287.675,294.7H284.5v0.05
	 M283.15,310.85c-1.372-1.665-2.747-3.331-4.125-5l-1.375-1.649l-5.551-0.65l-1.475-1.5c-0.155-0.17-0.313-0.336-0.475-0.5
	l6.5-3.899l0.85-1.45 M254.525,305.175l4.225,2.875H261l2,1l1.3-1l1.601,1l1.649,2.601l0.3,0.05l1-1.25l2.601-1.55l1.1,0.25
	l2.601,0.199l6.55,1.7l1.45-0.2l0.25-0.05l0.85-0.45l0.45-0.75l1.45-0.699l0.6-0.95l2.15-0.7l0.8-0.95l0.149-0.85l-1.1-0.7
	l0.25-0.85l0.35-0.25l0.7,0.3l0.65,0.3l3.2,0.45l1.3-0.351l1.35,0.7l0.601,0.75l1.05-0.3l1.05,0.75l0.75-0.15l1.5,0.9l1.95,0.45
	c0.033,0,0.25,0.033,0.649,0.1c0.4,0.101,0.733,0.217,1,0.351c0.267,0.166,0.551,0.383,0.851,0.649c0.3,0.233,0.467,0.367,0.5,0.4
	v1.649l0.75,0.15l0.45,0.9l1.05,1.5l0.149,0.899l0.45-0.149l0.45,0.3l0.9,0.149l0.6,0.45l0.3-0.6l0.75,0.3l-0.149,0.75l1.35,0.3
	 M290.05,303.95v-2.4l-1-0.95l-1.6,0.65v-0.025l-0.05,0.025l-1.45-2.125l-0.976-1.45 M285.95,299.125l1.5,2.1 M340.375,311.125
	l3.075-1.425l4.149,1.35l0.45,1.05l-0.3,0.601l0.3,1.35l1.351,0.45c0.033,0.033,0.25,0.184,0.649,0.45c0.4,0.233,0.733,0.333,1,0.3
	c0.3-0.066,0.717-0.083,1.25-0.05c0.5,0.033,0.783,0.05,0.851,0.05l1.5,1.2l0.75,1.5l1.35,2.1l1.05,1.05v1.5l1.351-0.899l0.6,2.1
	l-1.35,0.75l-0.601,1.2l-1.35,0.9L355.1,328.6v0.75l1.801,0.301l2.25,1.5l2.699,1.199h1.5l2.4,2.95l2.4-1.6l1.949,0.45l0.9,1.3
	l1.65-1.45l0.55-0.75l0.75-0.3l0.899,0.899l0.45-0.6l2.4,1.05l0.6,0.7l1.351,0.9l2.699-2.051l1.5,0.15l0.9-1.2l4.2-3.899l1.05,0.3
	l0.3,0.899l0.15,1.5l1.5,0.15l2.55-1.2c-0.033,0.033,0,0.066,0.1,0.101c0.101,0.066,0.367-0.067,0.801-0.4
	c0.433-0.366,0.683-0.583,0.75-0.65c0.1-0.1,0.149-0.133,0.149-0.1l0.601-0.75l-0.75-1.65l-1.051-6.75l-0.6-0.899l0.6-1.351
	l0.75-2.85l2.45-1.35 M340.375,311.125l-0.175-0.775 M340.35,311.15l0.025-0.025 M341.8,317.25l-1.425-6.125 M313.75,312.05
	l0.05-0.399 M258.45,47.05l-5.5-3.1l-9.75-8.5l-10.5-13l-5-4.25 M110.2,62.25l-1.55-0.65L91.2,41.25l-6.1,9.45l-6.85,8.15
	l-1.95,11.4l-6.2,1.95l1.65,1.95l0.65,1l0.3,2.6l1.65,1.3l0.65,2.3l1.95,0.95l-0.65,1.3h-2.6l-1,2.65l-3.55,1.3l-1.65-1.3h-1.3
	l0.65,3.25l1.3,1.3l1.65-0.35l-0.35,1.65l1,0.65l0.95,1.95l-0.95,1.95l1.3,1.3l-0.35,1l1.3,3.9l1,1.6l-0.65,1l-0.65,1.65l-0.2,1.125
	l0.9,1.475l2.25,1.6l0.4-0.325l1.2-0.975l1.25-0.725l0.4-0.225l1.95,0.3v-2.9h0.95l1-1l-0.35-1.65l1.65-3.25l0.025,0.05l0.025-0.05
	l0.95,1.925l0.95-0.625l0.525-0.125l0.775-0.175h0.05l1.95,0.65v1.3l0.575,0.375l1.025,0.575l0.825,0.85l0.8,0.775l0.975-1.275
	l2.3,1.3l2,2.35l-0.05-0.7l1.85-11.125l0.4-2.575l1.3-2.95l1.65-1.6l0.65-1.3l1.95-1.95l0.975-0.65l2.925-2l3.45-1.325l5.7-2.225
	l7.15-1.3l-1.15-3.425l-0.8-2.125l-2.5-4.725l-0.45-0.825l-0.45-1.3L110.2,62.25z M184.625,77.025L184.5,76.5l-5.85-11l-0.7,0.15
	l-29.9,12.15l-0.075-0.025L120.2,66.35l0.45,1.35l0.4,0.775 M112.4,120.275l7.9,5.725l-13.35,21.45l0.025,0.025l5.825,4.925
	l3.25-0.65l8.5,2.6l7.15-0.35l5.9,0.85l0.3-9.65l9.75-5.5v-0.05l0.35-2.9l5.55,0.65l2.6-3.6l26.4-8.8l15.601-15.95l-0.7-2.075
	 M112.65,82.275l-3.4,1.375l-2.975,1.95 M124.35,75.325l0.85,2.125l0.3,1.3 M97.55,108.45l4.85,5.8l2.95,1.65l1.6,2.6l3.9,0.65
	l1.55,1.125 M165.6,189.1l-12.7-18.8v-0.05l0.95-5.8l-2.6-3.3l1.65-2.6l-15.3-3.7 M251.85,112l0.7-1.975 M198.2,109.05h-0.05
	 M252.8,130.925l0.4-0.075v-4.2l-1.3-8.15l0.274-2.7 M249.3,135.75l0.65-2.6l1-1.95 M48.8,9.05L47.15,6.6l1.5-1.95l-0.5-4.4
	 M91.2,41.25l-11.35-13.2l-4.15-5.4l-6.3-7l-20.6-6.6l0.6,0.65L48,15.35l-12.3,32.6l-3.3,5.7l0.95,1.9l0.45,2.8l2.4,2.4l-0.95,1.9
	L33.8,63.1l-2.35,1.4l-0.95,4.3v2.35l-0.45,3.3l2.35,3.3l-0.95,2.35l-3.3,0.95l1.4,3.35l0.65,2.55l3.4,0.25l0.35,3.9l-1,2.95l1,0.65
	l-0.65,2.25V97l5.2,5.2l0.45,0.65l0.275-0.5l0.275-0.5l2.075-1.4L42.4,99.9v0.025l0.05-0.025l0.35,2.3l0.925,1.625l0.4,0.225
	l1.275,0.75 M46.3,104.8l0.35-1.95l0.65-1.3l1.3-0.65l1.3-1.65l2.3-1.95l0.025,0.025L52.25,97.3l3.55,4.55 M59.7,101.85l1.95-0.65
	l2.6,0.35h0.05l2.25,0.95l0.65,1.95l1.95,0.65l2.6-0.65v0.05l-2.6,0.65l-1.95-0.65v-0.05 M71.75,105.75l0.05,0.3l0.3,2l0.1,0.175
	 M30.2,86.95l0.3,1.2l-1.85,1.9l-1.9,3.8l-0.5,8l-1.85,0.95l-2.4,1.9l-3.3,1.4l-2.85,0.5l-1.4,1.4l-0.5,1.9l-2.8,1.45L9.7,111.8
	l-2.35,7.55l0.5,4.25l-2.4,9.5l-1.4,3.75L5,143l-0.5,1.9l-3.75,0.95l-0.5,1.4l0.95,3.3l1.45,2.4l3.75,2.35l4.75,1.4h2.35l0.45,2.4
	v4.25l-1.4,2.35l-2.35,0.45l-3.8-1.4l-2.85,0.5l-1.4,1.85L5,168.05l-1.45,1.45l2.85,1.4l4.25,3.3l3.8,4.25h1.9l1.3,1.1l0.8,0.351
	l0.6,1.05l-0.45,0.3l2-0.55l0.975-1.625L20,177.15l-1.65-1.301v-0.024L18.3,175.8l-0.65-1.95h2l0.525-1.05l0.175-0.35l0.6-1.2
	l0.65-2.6l1.65,1.3l1.6,1.649l1.6,0.301l1.3-1.301l-0.25-1.35L27.45,169H25.5l-1.3-0.65l0.025-0.05H24.2l0.3-0.95V165.4l0.65-2.601
	h0.05l-0.65,2.601v1.949l-0.325,0.95 M26.45,163.1l0.35-1.95l0.95-1.3l0.85-0.325l0.8-0.325l0.8-0.2l1.8-0.45v0.025l-0.95,0.325
	l-1.65,0.3 M33,110.35l0.4-0.575l1.2-1.725l2.6-1.95l1.75-3.25 M71.8,106.05l-0.05-0.25v-0.05 M78.2,109.275L77,110l-1.25,0.975
	 M86.275,101.725L85.8,101.85l-1,0.65v-0.025 M83.825,100.6l-1.625,3.25l0.3,1.6l-0.95,1H81.5 M102.7,89.5l-1.6,1.65l-1.3,2.9
	l-0.45,2.575 M91.475,105.3l-0.825-0.8l-1.025-0.625 M93.25,104.8l-0.95,1.3l-0.025-0.025 M42.1,112.3l-8.45-0.65l-0.65-1.3
	 M39.225,102.35l-1.975,3.75l-2.6,1.95l-1.25,1.725 M44.125,104.05l-0.375-0.2l-0.025-0.025 M52.225,97.325L49.95,99.25l-1.3,1.65
	l-1.3,0.65l-0.65,1.3l-0.35,1.95H46.3 M42.4,99.925l-0.825,0.525 M47.825,124.175L48.95,125l0.4,0.475l1.25,1.475l0.975,0.5
	l0.325,0.15l0.65,2.3l-0.65,7.15l-1.4,5.375l-0.55,2.125v1.65l-2.6,0.3l-0.65,1.95l-1.3,1.95l0.65,0.9 M94.4,167.675l3.025-4.9
	l9.525-15.325l-0.3-0.3 M51.575,127.45l-1.025-0.5l-1.2-1.475 M42.95,112.625l0.8,0.325l1.3,3.25l0.15,1.85l0.2,2.4l0.3,1.3l1,1.6
	l1.125,0.825l-1.175-0.825l-0.95-1.6l-0.35-1.3l-0.15-2.4 M42.95,112.625L42.1,112.3h0.05L42.95,112.625z M28.6,159.525l-0.8,0.325
	l-1,1.3l-0.3,1.95h-0.05 M29.1,166.575l-1-0.875l1.3-2.6l1.65-1.3l1.3-0.3l-0.3-2.95L32,158.575 M34.95,159.85l0.65-1.3l0.65-1.95
	V154l0.95-1.95l0.05,0.025v-0.025l3.9,1.3l5.2-1.65l-0.3-0.4l-0.7-0.9l1.3-1.95l0.65-1.95l2.6-0.35v-1.6l0.6-2.125 M38.2,162.15
	l-1.65-1l-1.6-1.3L38.2,162.15l-0.4,0.4l-1.2,1.2l-1.95,0.65h-0.025L33,163.1l-1.125,1.15l-1.125,1.15l-0.35,2.3l-1.3-1.125
	l1.3,1.075l0.3-2.25l1.175-1.15 M37.25,152.075l-1,1.925 M118.35,183.7l0.3-0.05l1-1l-1-1.601l-2.3-2.3l-5.5-3.55l-3.3-2.95
	l-2.25-1.3l-7.875-8.175 M106.975,147.475L97.45,162.75l7.9,8.15l2.25,1.35l3.25,2.9l5.55,3.6l2.3,2.25l0.95,1.65l-0.95,1
	l-0.35,0.05l-1.65,0.3l-0.3,0.15l-0.3,0.149l-1,2.25l-0.95,1.3l1.6,2.601l1.3,1.3l0.55,1.525l2.075,5.699L120,199.9l1.6,0.649
	l0.05,0.05l0.65,2.25l-1,7.15l0.65,2.3h-0.05l-0.65-2.25l1-7.2l-0.65-2.199 M123.55,212.3h0.05l0.625,0.2l1.625,0.45l2.3-0.351h3.55
	l0.425-0.175l0.225-0.125v0.025l0.05-0.025l0.65,0.95l1.3,1l0.8,0.325l0.8,0.325l1,2.3l-0.65,1.95h-0.05l0.65-1.95l-0.95-2.3
	 M137.55,219.15h0.05l0.65,0.949l1.6-0.649l1.65,1.3l1.95,1l1.65,4.55l-0.65,2.3l-1,2.25l1.3-0.3l5.2-0.649l0.6,0.8l0.2-0.05
	l0.2-0.101l1.05-0.3l2.2-0.7l2.7-1.45l0.15-1.175l0.75-5.524l0.95-0.95l-2.25-1.65l2.6-4.55l0.4-0.4l1.175-1.225l0.025-0.025
	l-1.6-1.6l-1.95-1l-1-2.25l1-1.3l3.55-1.95l0.35-2v-2.25l2.6-0.35l0.65-1.301l5.55-3.25l1-0.8 M86.55,175.75l-0.1-0.25l0.95-1.65
	l2.9,0.351h0.05l4.05-6.525 M71.35,201.25h0.1l0.775-1.025l1.175-1.574l7.15-11.75l3.3-3.551l1.3-0.35l1.95-3.9l0.3-1l-0.85-2.35
	l-21.3-0.9l-2.6,4.25L50.6,183H48l-0.325-0.4L46.7,181.4l0.025-0.025L46.7,181.35l1.6-1.3l1-1.95l-7.15-3.25L40.5,173.9l-0.75-1.25
	l-0.25-0.4l-1.6-1.3l-0.625,1.399l-0.375,0.9l-1.95,1.075l-3.25,1.825l-0.4,0.324l-1.2,0.976l-0.025-0.025l-0.025,0.025l-5.5-2.601
	l-0.4-0.399l-1.25-1.2l-2.55-0.8l2.55,0.75l1.25,1.25 M71.35,201.25H71.3l-0.55,2.9v3.6l-4.55,12.4l-0.15,0.899l1.9,0.101l8.7,2.75
	l6.3,3.1l6.45,4.55l0.95,0.8l0.85-0.199l0.45,0.5l0.6-2.4h0.05h3.2l1.3-0.65l1-1l1.3-2.25l-0.65-3.3l-1-1L96.5,222.4
	 M65.825,200.925L68.5,201.9l0.325-0.95l0.025-0.05l2.5,0.35 M71.3,201.25l-2.475-0.3 M91.95,210.35l3.025-4.199l1.175-1.65
	l0.35-2.3h1.95l1.65-3.25l7.15,4.25l1.65,0.3l1.95-0.3l3.55,0.3l1.95-1.3l0.775-0.25l3.175-1.05l1.3-0.25V200.6l-1.65-0.649
	l-0.275-0.976 M96.5,202.2l-0.3,2.3l-1.225,1.65 M39.75,172.65l0.75,1.199l1.65,1 M34.95,174.325l1.95-1.125l0.375-0.851
	 M34.625,164.4l1.925-0.65l1.25-1.2 M27.5,169.25l0.3,1.35l-1.3,1.301h-0.05 M30.075,177.425l1.225-0.95 M27.775,186.875L27.8,186.9
	l2.3-1.95h2.25l6.5,1l4.25,1.6l1-0.3l0.625-0.325l0.025-0.024l1.95,1.649l-1.3,0.65l3.25,1.3l0.95,0.95l0.35,2.3l0.975,0.425
	l2.925,1.226l1-1l8.1-3.226L63,191.15l0.3,1L63,194.1l0.525,2.2l0.425,1.7l0.65,1.3l0.35,1.3l0.875,0.325L64.9,200.6l-0.3-1.3
	 M45.375,189.2l1.275-0.65l-1.925-1.625 M27.775,186.875L27.75,186.9l-3.225-2.226l-0.975,1.275h-1.3l-1.3-0.65l-1-2.3l0.65-0.95
	v-1.3l-2,0.55l-0.6,0.4l-1.3,0.35l-0.6,1.45l-0.4,1.45l3.6,4.149l3.1,1.9l0.5,1.1l2.1,2.25l2.4,1.65l1.3,1.7l3.45,2.55l0.85,0.8
	l0.75,0.101v0.449l1.4,0.5l5,8.95l5.5,7.75l2.85,2.95l2.65,1.95l0.8,0.45L54,222.5l2.25-1.3l5.95-0.4l1.7,0.25l0.85-0.45l0.8,0.45
	h0.1l0.4,0.05v-0.05 M63.525,196.3l-0.575-2.2l0.35-1.949l-0.35-0.976 M50.925,194.175L49.9,193.75l-0.3-2.25l-1-1l-3.225-1.3
	 M46.725,181.375l0.95,1.225 M98.45,223.05l0.05,0.05l0.65,3.25l-0.6,1.025l-0.7,1.225l-1,1l-1.3,0.65H95.5 M108.575,226.3
	l-1.925-3.2l-1.3-2.949h-0.025l-2.575-0.65l-0.65,1.6l-3.95,0.7l-0.7,0.25l0.7-0.3l3.9-0.65l0.65-1.6h0.05 M96.1,217.625
	l-0.25-0.725l-1.65-0.65l-1.6,0.3l-1-1.3l0.65-2.3l-0.3-2.601l0.35,2.601l-0.7,2.3 M92.6,216.55l1.65-0.35l1.6,0.649l0.25,0.775
	l0.4,1.225v2.25l0.95,0.95 M92.3,230.25l-0.6,2.4l0.7,0.8l0.15,1.55l-0.35,0.7l-0.6,0.85l-1.1-0.1l0.25,1.2l0.85,0.949v0.7
	l1.3,0.851l2.5,3.449l2.15,0.95l1.8,1.3l0.95,1.301l1.2,0.5l0.45,0.85l1.1,0.1l1.4-0.25h6.95l2.95,1.301l1.1-0.2l4.5,2l3,0.95
	l6.2,2.85l3.25,2.5l4.25,3.25l1.8,0.85l0.7,1.051l6.45,5.149l0.6,0.8l10.3,5.95 M20.175,172.8L19.65,173.9H17.7l0.65,1.925
	 M18.6,181.3l-2-0.7l-1.95,0.2L12.7,181.4l-1.2,0.949 M21.575,179.075L21.6,179.1l-0.95,1.601v1.35L20,183l0.95,2.3 M24.525,184.675
	l0.025-0.024l3.225,2.225 M236.3,212.95h0.05l0.25-7.15l3.601-1l-1.95-22.149 M189.7,173.55l3.25,3.601l3.25,2.6l2.95,0.65
	l0.649,1.949l5.55,6.351l1.301,1.45l-0.025,0.024l0.025,0.025l-2.601,2.899l-11.75,8.5l-0.65,0.95l2.95,4.55l1.95,1.301l1.95,1.3
	l0.325,0.85l0.325,0.8l1.05,1.15l0.55-0.5l9.8-6.5l1.125,1.125l1.175,1.125l-1.25,0.75l-0.399,0.25l5.85,8.15l2.95-0.65l3.25-2.95
	l1.3,0.3l1.476,1.375l2.425,2.226l1.649,0.649l0.801-1.125l0.8-1.175l4.25-2.6h0.35V213 M206.625,190.175l-1.275-1.475
	 M198.825,210.55l-0.325-0.8l-1.95-1.35 M211.6,208.5l1.2-0.75l-1.125-1.125 M226.025,214.975l-1.476-1.324l-1.3-0.351
	 M200.175,212.525l-1.024-1.176 M200.2,212.5l-0.025,0.025l0.025,0.024l-2.7,2.4l-3.55,2.25l-1.65,1.3l-0.4-0.225l-1.25-0.726
	l-1.6,0.3 M203.575,245.075l4.7-4.5l1.274-1.226h0.05l1.301,0.301l2.6,1.949l8.8-7.149l8.45,0.35l6.5,3.25h2.6l0.65-0.95h0.025
	l0.024-0.05l9.101-1.95l3.899,2.601l2.175-0.7l-0.3-0.525l-0.625-1.024l-0.25-2 M254.5,233.2l-0.975-1.125l-1.625-1.825l-0.65-1.95
	l-2.6-1.3l-1.301-1.3l-0.475-1l-0.525-0.976l-0.949-0.675l-1.351-0.95l-0.95-1.949l-1.649-1.65l-3.25-1.95l-1.9-2.25l-0.05-0.05
	l0.05-1.25h-0.35l-4.25,2.6l-0.8,1.125 M190.65,217.55h0.05l1.2,0.726 M195.15,255.5l7.2-9.15l0.101-0.1l0.25-0.35l0.05-0.051
	l0.825-0.774 M202.75,245.85l-0.3,0.4 M195.025,255.425L194.9,255.3l-20.2-9.45h-2.95l-6.85-2.6l-0.025,0.025L159.7,255.3l-1.65,8.5
	l1.225,4.976l0.125,0.524v0.05v2.601l-0.65,1.6h-1.65l-0.6,1.25l1.1,0.601l1.2-0.25l2.25,1.35l1.2,0.55l3,0.601l6.55,2.149
	l1.9,1.101h2.05l1.05,0.949l3.95,1.801L183,285.3l2.725,1.5l1.825,1l2.85,2.4l2.15,1.3l1.65,2.15l2.5,2.399l0.95,2l1.8,2.25
	l-0.7,1.101l1.7,2.949l1.95-0.5l0.949-2.6l1.301-1.95l0.024,0.05l1.625,2.851h1.3l0.075-0.875l0.226-2.675l0.75-1.95l0.25-0.65
	l2.3-2.6v-0.05l-0.351-2.601l0.65-1.95v-1.3l1.65,1.3l4.55-3.25l-0.476-2.274l-0.524-2.275l-0.95-1l-1,1l-1.6,0.3l-1.301-0.975
	l-1.35-0.975l-1.3-0.65l1.25-1.475l0.399-0.476l-0.649-1.3l1-0.95l2.899-0.35 M214.55,270.8l-19.45-15.3l-0.075-0.075l0.125,0.075
	l19.4,15.25V270.8z M209.6,239.35l-1.324,1.226 M253.525,232.075l0.975,1.075l0.05,0.3 M246.875,224.7l0.475,0.95l1.301,1.35
	 M245.4,223.05l0.949,0.65v0.024 M240.525,237.1l-0.625,0.95h-0.051 M263.95,249.775L262,244.9h-1.65l-1.3-1.301l-0.649-2.3
	l-2.625-4.25L255.75,237h-0.025 M255.425,236.475L255.75,237 M263.95,249.775v0.024l-0.95,0.476L263.95,249.775z M185.8,170
	l-1.475-1.275L178,163.45v0.025l-0.45,2.275l-2.5,14l-0.025,0.025 M184.325,168.725l1.475,1.226V170 M185.45,172.55l1.95,1.3
	l2.3-0.3l-2.3,0.351l-1.95-1.301V172.55z M177.55,165.75l0.4-2.3l0.05,0.025 M165.6,189.1l1.6,2.4l2.3,0.95l1,1.95l0.35,0.149
	l2.25,1.101l2.25,1.05L177,199l0.325,0.625L178,200.95l1.125,0.975l1.125,0.976l1.95,3.25l2.6,7.8l4.25,3.899 M173.1,195.65
	l-2.25-1.051l-1.05,0.801l-5.5,3.25l-0.65,1.3l-2.6,0.3 M179.125,201.925l-1.175-0.975l-0.625-1.325 M165.6,189.1l9.425-9.324
	 M117.6,193.275L117,191.8l-1.3-1.3l-1.6-2.6l0.95-1.301l1-2.3l0.35-0.149 M117.125,201.95l-0.725,0.25l-1.95,1.3h-0.05
	 M144.75,230.55l-1.35,0.351l1-2.301l0.65-2.3l-1.65-4.55l-1.95-0.95l-1.6-1.3l-1.65,0.65l-0.65-1 M135.15,214.575l-0.85-0.325
	l-1.3-0.95l-0.65-0.975 M131.7,212.65h-3.6l-2.25,0.3 M132.125,212.425l-0.425,0.226 M150.75,230.65l-4.35,1.899l-1.3,1.3
	l-0.65,1.301l-2.3,1.3l-1.65,1.95l-1.6,2.6l-0.7,0.2l-2.9,0.75l-2.25-1.3l-0.7-0.95l-2.275-0.65L127.8,238.4l-0.1-0.325l-0.55-1.976
	l-0.55-1.375l-0.1-0.225l-2.9-0.65l-2.475,0.101l-4.075,0.2l-4.85-1.301l-1.175-4l-0.175-0.55l-0.65-1.3l-1.6-0.65l-0.025-0.05
	l1.625,0.65l0.65,1.3l0.175,0.6 M138.2,241.2l0.65-0.2l1.65-2.65l1.6-1.949l2.3-1.301l0.65-1.3l1.3-1.3l4.2-1.8 M124.225,212.5
	l-0.675-0.2 M121.125,233.95l2.425-0.15l2.95,0.65l0.1,0.274 M127.7,238.075l0.1,0.274l2.275,0.7 M160.675,212.625l0.025,0.025
	l-1.2,1.199 M156.85,234.6l0.05-6.449l-2.7,1.449l-2.2,0.65 M157.05,226.925l-0.2,7.675l-0.05,2.15l0.35,2.6l4.2,2.601l3.525,1.325
	 M159.4,269.35l-0.125-0.574 M260.05,286.25l-0.3-2.25l-1.95-1.95v-2.3l1.601-0.65h1.949l0.351-0.05l1.649-0.3l0.95-0.3l0.65-1.95
	l1.6-0.65l0.025,0.025l0.024-0.025l1.65,1.851 M252.55,285.3h0.05l0.65,0.95h6.8v0.05h-6.774H253.2L252.55,285.3z M268.9,278.45
	l-2.325-2.575 M264.3,278.45l-1,0.35l-1.6,0.25 M234.3,273.9l0.05-0.051l2.601-1.3h2.6l3.25,4.25l1.476,1.25l0.475,0.4v6.149
	l2.2,0.226l5.6,0.475 M244.275,278.05l-1.476-1.2l-3.25-4.25h-2.6l-2.65,1.301l-8.5,8.8l-0.024,0.024l0.725,0.575v0.05l0.35,3.551
	l0.65,2.6l3.55,5.25l1.95,0.95l1.975,0.325l1.976,0.324l4.85-0.649v0.05l-0.649,3.85 M241.15,299.625l1.3,3.575 M242.45,305.15v0.05
	l-0.95,0.95l-2.3-0.301l-0.976,1.2l-0.324,0.4l-0.226,0.399l-0.725,1.25v0.95l-4.25,16.601l1.3,1.649l0.3,2.9v0.05l0.351,0.45v-0.8
	 M246.95,284.825l-2.2-0.175V284.6 M201.25,305.9l1.2,4.199l0.7,1.2l0.149,0.7l2.15,3.2l0.45,1.55l-0.25,0.85l1.949,8.25l3.2,7
	l-0.1,1.351l1.399,2.95l0.351,2.399l0.5,1.05l3.55,0.75l0.95,1.301l3.95,3.949l1.1,2l0.2,0.95l0.75-0.25l0.95,1.101l2.5,2.399
	l0.85,0.601l0.35-0.5l-0.75-3.601l0.15-2.95l1.2-3.1l3.8-3.6l1.05-0.801l1.101-0.6l0.449-0.85l-0.199-1.051l-0.95-1.55l-0.4,0.101
	l-0.7-3l0.5-1.75l0.95,1.05 M236.95,309.1v-0.05l0.725-1.2 M238.225,307.05l0.976-1.25l2.3,0.351l0.95-1 M268.45,289.625
	l-0.25-0.725l-2.3-3.25l0.05-0.051 M265.075,296.35l2.825-2.55l1.3-0.649V293.1 M254.525,305.175l0.975-1.325l2.6-1.6l1.301-1.65
	l2.3-0.3l2.25-2.95l1.125-1 M234.65,331.7l0.949,1.2l4.75,1.649l-1.199,0.601l1,0.699l2.25-0.699l5.35-0.601l1.45-0.7l0.8,0.351
	l-0.2-0.851l0.601-0.199l0.949-0.851l2.5-1.55l2.25-4.05l1.301-1.101l0.75-2l0.8-1.449l3.35-4.301l0.101-2l0.5-0.35l0.699-1.3h0.95
	L266,313.1l0.6,0.101l-0.35-1.3l1.05,0.5l0.55-0.65l-0.3-0.05L265.9,309.1l-1.601-1l-1.3,1l-1.95-1h-2.3l-4.25-2.899l0.025-0.025
	 M214.55,270.75l0.25,0.2l9.75,10.75l1.25,1 M210.45,277.275l-1.2,1.475l1.3,0.65l1.3,0.975 M215.75,280.05l1,1l0.475,2.275
	 M225.775,282.725l-1.226-1.024 M208.65,296.7l-0.7,1.95l-0.275,2.675 M200.45,304.35l0.8,1.551 M204.675,299.35l-1.325,1.9
	 M208.15,343.95l1.55-0.8l1.55-1.101l0.35-1.3l-0.449-1.55l-0.5,0.1l-0.7-0.35l-0.7-1.4l-1.2-0.95l-1.2,0.351l0.95,0.8l-0.1,1.45
	l-0.25,1.3l-0.5,1.55l0.149,1.55L208.15,343.95z M234.65,331.7v1.85l1.449,1.05l0.9,1.15l6.85,4.4l6.9,5.399"/>
<path fill-rule="evenodd" clip-rule="evenodd" fill="none" stroke="#aaa" stroke-width="0.5" stroke-linecap="round" stroke-linejoin="round" stroke-miterlimit="3" d="
	M253.025,46.725L252.75,46.8l-0.025,0.025 M300.75,96.05l-1.8,0.65l-1,1.25l-1.5,0.75l-1.75-0.25l-1.25,0.75l-2.5-1l-2,0.25
	l-2.25-3.5l-32.5,12v1.25l-0.5,1l-1.75,0.75 M300.45,79.75v0.05c0.333,0.233,0.434,0.284,0.3,0.15
	C300.583,79.85,300.483,79.783,300.45,79.75z M300.75,96.05l1.2,0.75l21.399-0.6L308.1,47.65 M306.75,106.3l0.275,0.475 M347.7,182
	l-0.2-0.05l0.4,0.649l-0.176-0.55L347.7,182z M348.15,183l-0.25-0.4 M323.275,237.7l2.425,1.25l1.5,0.25l1,2l2,1.25l2-0.5l2.75-3.25
	l1.75-0.75l3.25,6.5l2.25,10l1.75,0.75l2,2.75l4.5,2l0.75,4.5l1.5,5 M255.775,237.05l3.175-0.85h1.75l2.25-3.25l2.5-0.25l7,2
	l1.5,1.5l0.75,2.5l2.75-0.25l1.5,2.25l2,0.25l3.5,3l1,2.5l3,1h1.75l1.5,1h3.5l1.75-0.25l2.25,0.75l4.25-0.75l1.75-0.75l0.5,1.25
	l2,0.75l-0.75,1.25h2l2.25,1h2.5l1.05,0.8l0.05,0.025l0.425,0.35h0.025l0.5,0.325 M291.925,273l-1.725,3.45l1,1.25l1.75,1.75l1,0.75
	h1.75l-0.5,1.75v2.25l-1.25,2.5l-1.25,0.25l-1.25,0.75l-0.45,1.8 M340.05,305.45l3.65-0.25l1.25-1l1.5-3l2.75-3.25l3-0.5h3.25
	l5.25-3.5l3.5-1.25l0.5-1.5l3.25-1l4.5-4.5l3-1l-0.25,5l1,2.25l2,2.5l0.25,7.5l2.25,3.5l5,1l2-0.25l0.5,1l1-0.5l1,2.5l1.75-0.25
	l0.5,1l1.75,1.5l4.1,2.45 M261.45,300.95l1.25,0.5l1-0.75l1.25-0.25l1.5,1l0.75,1.5l1.75,0.25l1.25,1l0.75-0.75 M284.975,297.675
	L284.2,298.2l-1.75,0.5l1.5,5.25l-1.25,2l-0.75,2.25 M289.05,300.6l2.15-1.899l3.5-1h0.75l2.25,1.25l2.75,2.25l3.25,0.25l3.5,1.5
	h1.5l0.5,1.5l4.825,0.3 M110.2,62.25v0.7l2.75,2.75l4.25,6.5h-2.25l-0.75-1l-1,1.5h-1l-1.25-0.5l-1.25-0.25l-0.75-0.5l-2.25-0.5
	l-2,1.75l-2.25,3.5l-3.25,0.25l-1,2.25l-2.5,2.5l-4.25-4l-3-0.75h-2.5l-1.75,3l-4,2.25l-1.5-0.5l-1.75,0.5 M147.975,77.775
	L133.45,103.95l-1.75,2.5l-4.25-2.5l-4,5.75l-5.75-2.25l-1,1l-4.75-2.25l-2.5,2.75l2.75,1.75l3.75,3.75l-2.5,3.25l-1.05,2.575
	 M195.2,177.95l1.5-2.5l1-2.5l1.25-1l1.25-1.5l1,0.25l0.75-1l1.75-1.5l0.75-0.5l1.25-1.5l5-4.25l1-1.25h0.75l1.5,1l3.5-0.5l1.5-0.5
	l2.25-2.75l-1.75-4l-2-3.25l-9-19.75l-3.5-8.75l-4-8l-0.25-1.5l-1.75-3.25 M30.2,159l0.75-4.8l-0.25-6l0.75-2.75l0.25-1.5
	l-1.75-2.75l-2.25-0.75l-3.925-2.2l-1.825,0.95v1.25l-0.75,0.5v2.75l-0.75-0.25l-1.25-1.25l-1-0.25l-1.5,2.25l-1.5-0.5l-3.25,1.25
	l-1.25-1l-2,0.5l-3.5-2 M23.775,138.25l3.425-1.8l-2-4.5l-0.75-3.75l-0.5-1.25l0.25-5.25l0.5-1l-1.75-0.25l0.25-1.25l4.5-5l0.25-2.5
	l1.5,1.25l1-0.75l0.75-0.75l1.8-1.1 M32.2,64.95l4-1.25l3.25-0.25l3.25,0.75l5.25-0.5l2,0.25l1.75-0.75l3.75,2.75l4.5,2v1l2.5,2.25
	l4,1.75l1.25-0.5h1l1.4-0.25 M46.05,151.3l1.9-2.35l1.25-1.25l2.25-1.25l2,2.25l-2.25,2.75l0.25,1.5l2,0.75l1.5-1l1.75-0.5
	l1.75,0.75l2-3.25l0.5-1.5l2.75-0.25l2-0.5l2-1.5l1.75-3.25l-0.25-1l-2,1.75h-1.25v-1.75l-0.25-2l4.5,0.25l3.75-0.75l4.5,1.5
	l2.75,1.75l1.5,0.25l-0.75,1.75l-1.75-0.75l-2.75,1.5l-0.75-0.25l-2.25,1.25l0.5,1.25l2.25,0.5l2.25,1.5l1.5-0.5h1l0.75,2l-1.25,1.5
	l0.25,3l2,1.75l3.5,4l7.2,6.475l0.3,0.275 M156.15,207.75l-1.45,0.2l-7.75-4.75h-1.75l-1.5-3.25h-2l-2.5-2l-3.75-4l-2-1.5
	l-1.75,0.75l-0.75,3l1.5,1l-0.25,2.5l-1.25,1.5l-0.75-0.5l-2-2.25l-2-0.75l-0.5-1.5l-1.5-0.5l-2.25,0.5l-1.5,2.25 M72.225,200.225
	l1.725,2.226l2.25,0.75l1.5,0.25l2.5,1.5l2.25,0.25l3.75,1.75l2.25,3h1l2.25,2 M42.7,175.7l-1,1.25l-2.75,1.75h-1l-0.75,0.75
	l-0.75,0.5l0.5,1.75l0.25,2.25l-0.5,1 M32.15,200.25l1.3-1.55l1.75-1.5l2-0.75l3.75-3.25l3-3.25l1.425-0.75 M98.55,227.375h0.05
	l2.1,0.325l1.25-1l2.5,1l1-0.25l2.5,0.5l0.625-1.65 M132.4,257.75l3.55-4.55l0.75-1.5l1.25-1.75l1.25-2.5l-0.25-1.75l-1.25,0.25
	h-1.75l-3.5,0.5l-2.25-2.5v-2l1.25-2 M91.2,232.55L90,233.3l-0.75,1.2l-2.35,1.55 M24.55,184.65l0.4-1.45l1.5-1.75l0.25-1.5l-0.25-2
	l-0.75-2.25 M175.025,179.775l2.675,5.425l2.5,2.75l3.5-1l0.75-1l6-4l1.5-1.5l2.75-1.5 M189.05,217.85l-0.1,2.601l0.5,1.75
	l0.75,1.25l0.75,0.5l3.25,4.25l1.25,2.25l-1.25,1l0.5,1.5l1.75,1.5l0.25,2.75l-1,3l0.75,0.25l1.75,1.5l1,1.25l1.25,0.5l1.5,1.5
	l1.625-0.125 M185.725,286.8l1.225-1.1l1.5-1l0.5-0.75l-0.5-2.5l9.5-10.25l9.25-3.25l1.5-0.75 M216.7,239.45l0.5,3.25l2.25,2.5
	l1,0.75h1l0.5-1.25l2.25,1.25l0.75,3.25h-1.25l1,4.25l3.25,7l1,1l1.75,1.25l0.5-1.25l1.75-1l0.75,1.5l0.5-1.5l3.5-1l3.75,3.75
	l3,1.75l0.75,0.25l1.25,1l2.25,1.25l1.5,2l1.5,1l3.25,3l0.75-1.25l3.5-4.5l1-2.5l1.5,1.25l1-2.25l1-1l-0.5-2.5l2.25-4.5
	 M105.325,220.15l3.875-1.45l4.25-0.5l2,0.5l1.25-0.75l2.25,0.5l1.25,0.5l0.5,1l2-0.5l2.5,1l3-1l0.25-1l3-2.25l1-2l-0.75-1.55
	 M244.45,264.95l-0.5,1.5l-0.75,3.25l-1.25,1.5l-3,0.75 M234.975,296.025l0.976,3.175l-0.75,1.5l-3,1.25l-2.75-0.5l-1-1.5l-1.5-0.5
	l-3.5,0.25l-1.25,2l-3.75,1.5l-2,0.25l-2,1.5l-0.75-1.25l-0.25-2.25l-2,0.25l-3,2.25l-1.5,1.5l-2.25-0.25l-3.45,0.7l-0.8,0.899
	H166.5 M253.275,286.3l0.675,1.65l-0.75,2.25l-1,1.25l1.25,1.25h2.5l3,2.25l2.75,1.25l1.25-0.25h1l1.125,0.399 M253.25,286.25
	l0.025,0.05"/>
<text transform="matrix(0.85 0 0 1 45.6001 52.2744)" fill="#069" font-family="'_sans'" font-size="8">P140</text>
<text transform="matrix(0.85 0 0 1 82.4502 75.124)" fill="#069" font-family="'_sans'" font-size="8">P141</text>
<text transform="matrix(0.85 0 0 1 135.9502 102.9243)" fill="#069" font-family="'_sans'" font-size="8">P142</text>
<text transform="matrix(0.85 0 0 1 78.8501 131.124)" fill="#069" font-family="'_sans'" font-size="8">P143</text>
<text transform="matrix(0.85 0 0 1 25.7002 121.124)" fill="#069" font-family="'_sans'" font-size="8">P144</text>
<text transform="matrix(0.85 0 0 1 46.7002 182.9238)" fill="#069" font-family="'_sans'" font-size="8">P145</text>
<text transform="matrix(0.85 0 0 1 38.3501 197.624)" fill="#069" font-family="'_sans'" font-size="8">P146</text>
<text transform="matrix(0.85 0 0 1 82.5498 189.7744)" fill="#069" font-family="'_sans'" font-size="8">P147</text>
<text transform="matrix(0.85 0 0 1 133.7002 181.624)" fill="#069" font-family="'_sans'" font-size="8">P148</text>
<text transform="matrix(0.85 0 0 1 118.7002 222.624)" fill="#069" font-family="'_sans'" font-size="8">P149</text>
<text transform="matrix(0.85 0 0 1 112.8501 245.7744)" fill="#069" font-family="'_sans'" font-size="8">P150</text>
<text transform="matrix(0.85 0 0 1 173.7002 226.374)" fill="#069" font-family="'_sans'" font-size="8">P151</text>
<text transform="matrix(0.85 0 0 1 179.5498 185.4238)" fill="#069" font-family="'_sans'" font-size="8">P152</text>
<text transform="matrix(0.85 0 0 1 194.2002 146.624)" fill="#069" font-family="'_sans'" font-size="8">P153</text>
<text transform="matrix(0.85 0 0 1 172.4502 268.2744)" fill="#069" font-family="'_sans'" font-size="8">P164</text>
<text transform="matrix(0.85 0 0 1 285.7998 227.7744)" fill="#069" font-family="'_sans'" font-size="8">P155</text>
<text transform="matrix(0.85 0 0 1 312.0498 279.2246)" fill="#069" font-family="'_sans'" font-size="8">P158</text>
<text transform="matrix(0.85 0 0 1 240.25 295.4746)" fill="#069" font-family="'_sans'" font-size="8">P162</text>
<text transform="matrix(0.85 0 0 1 243.1504 251.7744)" fill="#069" font-family="'_sans'" font-size="8">P163</text>
<text transform="matrix(0.85 0 0 1 211.3496 311.874)" fill="#069" font-family="'_sans'" font-size="8">P165</text>
<text transform="matrix(0.85 0 0 1 295.3496 301.0244)" fill="#069" font-family="'_sans'" font-size="8">P159</text>
<text transform="matrix(0.85 0 0 1 272.4004 300.6738)" fill="#069" font-family="'_sans'" font-size="8">P160</text>
<text transform="matrix(0.85 0 0 1 251.6504 302.9238)" fill="#069" font-family="'_sans'" font-size="8">P161</text>
<text transform="matrix(0.85 0 0 1 277.0498 118.7744)" fill="#069" font-family="'_sans'" font-size="8">P154</text>
<text transform="matrix(0.85 0 0 1 344.0498 227.874)" fill="#069" font-family="'_sans'" font-size="8">P156</text>
<text transform="matrix(0.85 0 0 1 358.3496 299.2246)" fill="#069" font-family="'_sans'" font-size="8">P157</text>
</svg>
