<?xml version="1.0" encoding="utf-8"?>
<!-- Generator: Adobe Illustrator 15.0.2, SVG Export Plug-In . SVG Version: 6.00 Build 0)  -->
<!DOCTYPE svg PUBLIC "-//W3C//DTD SVG 1.1//EN" "http://www.w3.org/Graphics/SVG/1.1/DTD/svg11.dtd">
<svg version="1.1" xmlns="http://www.w3.org/2000/svg" xmlns:xlink="http://www.w3.org/1999/xlink" x="0px" y="0px" width="800px"
	 height="600px" viewBox="0 0 800 600" enable-background="new 0 0 800 600" xml:space="preserve">
<g id="Layer_1">
	<g>
		<path fill-rule="evenodd" clip-rule="evenodd" fill="#c8c8c8" d="M241.325,224.45l2.325-1.55l2.55-2.55l2.925-1.35l1.775-0.8
			l0.65,1.85l0.1,0.3l-0.1-0.3l0.1,0.275v0.025l3.6,0.4l0.75,2.15l2.9-0.7l2.2,1.45v-4.75l3.6-2.15l2.2-0.75l0.4,4h0.7l6.35,1.6
			l1.1,1.1l4,0.9l-0.2,2l-8.35,3.1l-2.7,2.2l2.35,7.8l-2,4.9l-12.35,4.9l5.8,17.8l-1.8,8.4l1.65,4.35l1.45-2.55l2.5,2.55l2.4-2.2
			l5.8,5.8l-0.35,1.1l0.9,4.55l3.45,2.2l10.9,16l-10.9-16l-3.45-2.2l-0.9-4.55l0.35-1.1l-5.8-5.8l-2.4,2.2l-2.5-2.55l-1.45,2.55
			l-1.65-4.35l1.8-8.4l-5.8-17.8l12.35-4.9l2-4.9l-2.35-7.8l2.7-2.2l8.35-3.1l0.2-2l-4-0.9l-1.1-1.1L268,220h-0.7l-0.4-4l0.475-1.35
			l0.275-0.8l0.05-0.4l0.3-2.15l-1.45,0.7l-0.75-4.35l1.45-2.9l-1.05-2.2l1.05-1.8l1.1-2.9l0.75-1.1l1.8,3.25l3.25-1.45l-1.05-2.15
			l1.05-2.95l2.95-1.45l1.05-2.15l0.025,0.025l1.025,1.2L280,192l2.15,0.4l-0.7-2.55l1.45-0.35h2.2l-0.025-0.05l-0.725-2.9h1.1
			l0.35-2.15l1.1-2.55l-1.1-2.9l4.425-5.6l1.025-1.3l0.05-0.4l0.7-5.45l1.05-3.6l-1.05-1.85v-4l1.8-0.7l2.2,2.55l1.775-1.05
			l0.725-0.4l2.95,1.05c0.033,0,0.35,0,0.95,0h0.05c0.6,0,1.267-0.034,2-0.1c0.733-0.033,1.3-0.117,1.7-0.25
			c0.6-0.167,1.217-0.267,1.85-0.3c0.667-0.033,1.017-0.05,1.05-0.05l1.45-4.75l-1.45-17.8l-0.125-0.3l-0.2-0.4l-0.025-0.075
			l-0.2-0.425l0.175,0.35l0.025,0.075l0.225,0.475l-0.225-0.475l-0.025-0.075l-0.175-0.35l-0.05-0.125l-0.65-1.525l1.175-0.5
			l-1.175,0.45l-0.175-0.35l1.8-0.275l-0.45,0.175l0.45-0.175l0.05-0.025h0.025l0.025-0.025l1.625-1.075l3.55-1.6l-1.35-1.65
			l0.8-2.2l1.1-4.6l2.15,3l1.95,0.55l0.8,1.05l1.65,0.85l1.05,3.25l2.5,1.1l1.35-0.25l2.45-2.2l0.8-2.2l4.35,1.95l4.4,0.25l2.15-1.1
			v-5.7l2.45-1.1l4.4-3v-3l3.25,1.1l2.7,0.55l0.55,1.6l1.1,1.95l2.45,2.15l4.1,1.65l1.65,3l1.9,0.25l1.65-0.55l2.15,1.95l3.3-1.4
			c0.033,0,0.333-0.167,0.9-0.5c0.567-0.333,1.083-0.7,1.55-1.1c0.433-0.4,0.9-0.6,1.4-0.6c0.467,0,0.717,0.017,0.75,0.05h2.45
			l1.65-1.65l3,0.55h1.9l2.45-0.55l3-0.3l2.75,1.95l3.1,1.35l-1.85,3.25l4.35,9.45l-1.45,2.55l2.95,1.85l1.05,2.5l-3.25,3.65
			l-4.35,1.45L389,150.6l-4.35,3.6l-5.1,5.85l2.2,2.9l6.55,1.45l7.25,5.1l0.75,2.15l3.6,0.75l2.95,3.65v3.6l-3.649,0.75l-0.75,2.15
			l-5.8,10.9l-34.15,1.5l-1.45,0.7l-3.3,1.1l-0.4,0.65l-0.7,1.15h-2.5l-4.75-2.15L315.6,212l-0.7,1.85l-2.2,2.15l1.45,1.45l3.25,5
			l0.75,1.2l1.8,4l0.75,2.55l1.075,1.075l1.075,1.075l-1.05,3.625V236l1.8,2.55v1.1l-1.1,4.7l-1.8,1.1l-1.1,3.975v0.025l1.1,6.5V256
			l-2.55,6.9l-2.55,4.35l1.8,1.8l-0.35,2.9V272l1.45,4.325v0.025l-1.8,7.25l-5.1,3.65l-0.35,4.35l4.35,4.35l0.825,2.45l0.275,0.85
			l1.8-0.75l1.5,2.65l0.35,0.625v0.024c0.101,4.104-1.299,5.786-4.2,5.05l-2.525-1.05H313.6l0.425,0.95l0.125,0.3l0.55,4.5v0.05
			l-0.55,0.551l0.2,1.6l-0.9,0.9l-0.05,0.05l-1.05-0.95l-0.95-2.15l-0.35-2.75l0.55-3.6l-2.15-0.55l-1.3,0.35l-0.2,1.601v0.05
			l-3.05,2.35l-4-3.25l-1.65,1.05L294,306.7l-2.75-1.65L288,307.6l-3.45,0.9l-3.3-1.45l-5.1-1.1c-0.033,0-0.367,0.017-1,0.05
			s-1.383,0.083-2.25,0.15l-0.925,0.074c-0.492,0.042-0.967,0.084-1.425,0.125c-0.7,0.067-1.133,0.117-1.3,0.15
			c-0.233,0.134-0.35,0.417-0.35,0.85v0.051c-0.027,0.358-0.036,0.592-0.025,0.699l0.025,0.051l-2.2-0.2l-2.15,2.55l-0.9-1.25
			l-1.45,2.35l-1.3-0.75v1.101l0.9,1.1l0.075,0.4L262,314.1v0.051c-0.033,0-0.183,0.1-0.45,0.3c-0.2,0.125-0.4,0.233-0.6,0.325
			l-0.2,0.074c-0.3,0.034-0.55-0.066-0.75-0.3l-0.175-0.175c-0.117-0.126-0.175-0.201-0.175-0.225l-1.45-0.75l-2.2,0.75
			c-0.007,0.088-0.023,0.305-0.05,0.649l-0.1,1c-0.016,0.132-0.032,0.266-0.05,0.4l-0.075,0.675
			c-0.021,0.146-0.045,0.271-0.075,0.375c-0.133,0.267-0.283,0.45-0.45,0.55c-0.162,0.097-0.262,0.147-0.3,0.15
			c-0.033-0.033-0.3-0.233-0.8-0.601c-0.314-0.251-0.605-0.484-0.875-0.699l-0.475-0.351l-0.05-0.05l-0.575-0.325
			c-0.232-0.124-0.507-0.266-0.825-0.425c-0.633-0.333-1.25-0.634-1.85-0.9c-0.567-0.3-0.867-0.449-0.9-0.449L246,310.7l-0.7-1.65
			l0.175-0.325L246,307.8v-0.05l-0.9-6.35l-0.9-2.7v-0.025l0.275-0.55l0.275-0.525l0.35-1.65l-1.25-0.9l-0.95-1.25l-0.35-1.65
			l-0.45,0.35l-0.45,0.35l-0.75-0.35l0.4-1.6l-0.2-1.1l-0.8-1.65l-1.65-0.25l-1.35-0.85l-0.3-3l0.85-1.6l-0.55-0.85l-1.95,0.55
			l-2.7-0.55l-0.55-2.15l-1.1-1.65l-3-0.55h0.55l2.45,0.55l-2.45-0.55l0.95-1.2l2.35-2.9l-1.65-4.1l-2.55-1.45l-2.2,1.45l-3.25-1.1
			v-0.05v-1.425c0.012-0.113,0.029-0.221,0.05-0.325V266l0.025-0.775c0.006-0.125,0.015-0.25,0.025-0.375v-0.1
			c0.034-0.2,0.05-0.4,0.05-0.6c0.017-0.141,0.033-0.274,0.05-0.4l0.05-0.25c0.03-0.234,0.063-0.435,0.1-0.6
			c0.233-0.6,0.583-1.217,1.05-1.85c0.184-0.263,0.334-0.479,0.45-0.65c0.193-0.247,0.31-0.38,0.35-0.4l1.45-5.1v-0.05l-0.75-6.15
			l2.2-4l3.6-4.7l1.85-3.65h2.9V232l2.9-2.2l1.8-4.7l0.05-0.025L241.325,224.45z M223.375,50.175L222.15,51.4l-0.4,0.4l-1.1,1.65
			l-0.8,2.175L219,57.8v4.6h-1.35l-3.8-0.8l-1.9,1.9l-1.4,1.9l-1.9,1.95l0.55,4.35l-0.5,3.45l-0.05,0.35l-5.7,1.9l-6.3,3.3
			l-0.8,0.075l-2.45,0.175V81v2.95l-0.55,1.1v1.35l-1.65,0.3l-1,1.625l-1.7,2.725v1.9l0.55,2.75l1.35,2.45l-0.55,2.15l1.9,2.4
			l1.35,1.7l0.8,0.325l1.95,0.775l1.35,3.8v0.025l-1.9,2.425l-0.55,3.55v0.05l0.3,5.4l-2.25,0.425l-0.75,0.125l-0.075,0.05
			l-1.875,1.3l-1.6,0.85l-1.1,1.35l-2.2-1.65l-3.25,2.2l-2.45,3.25l-1.65-0.25l-0.8,1.9l-0.3,4.1l1.625,1.075l0.025,0.025l-1.35,1.9
			H177l-2.4,0.25l-1.1-0.075l-3-0.175l-4.1-1.65l-0.55,0.8l-1.35-0.8v3l-2.7,1.9l-2.5,0.3h-1.6l-2.45-0.55l-1.075-0.525
			l-1.025-0.525l-0.025-0.525l0.025-0.225v-0.05l-0.55-0.9l-0.875,0.15L150.6,138h-0.05l-0.4-0.075l-1.2-0.275h-0.125h-0.475h-2.65
			l-1.25-0.35l-0.025-0.025l1.425,0.325l2.5,0.05l-2.5-0.05l-1.425-0.325l-0.075-0.025L142,135.9l-1.2-0.7l-0.45-2.3l-1.175-6.6
			l8.475-3.95l3.65-1.3l-0.15-1.35l-1.55-0.2l-0.75-1.35L154,117h1.55v-1.35l0.95,0.4l3.85-3.65l1.15-13.45l3.05,3.1l10.4-10.95
			l8.05-0.4l5.5,0.35L183,90.7l-8.05,0.4l-10.4,10.95l-3.05-3.1l-1.15,13.45l-3.85,3.65l-0.95-0.4V117H154l-5.15,1.15l0.75,1.35
			l1.55,0.2l0.15,1.35l-3.65,1.3l-8.475,3.95l-4.225-23.5v-0.05l1.075-0.725l0.775-0.525l2.35-0.2l1.8,1.45l4,1.1l1.25-0.15h0.05
			l0.15-0.9v-0.05l-1.05-1.25l0.15-0.9l2.9-0.55l-0.9-3.1l0.2-1.1l0.15-6.9l2-7.075V81.85l-0.275-0.5l-1.175-2.2l0.55-1.8l0.2-1.65
			l0.275-0.075l0.825-0.275l-0.1-0.9l-0.1-1.1l-0.9-0.4l-0.9,0.2l-0.55,0.35l-5.65-6.7l-2.15-0.2l-0.55-0.7l1.05-2l-1.05-1.1
			l0.15-2.35l0.75-1.3l0.15-0.9l-0.9-1.3l-1.45,0.4l0.55-0.65l-0.15,0.45l-0.4,0.2l0.4-0.2l0.15-0.45l2.2-2.45l0.8-5.45l1.65-19.9
			l-0.55-3l1.1-2.2l4.35,1.95l2.7,1.6h4.1l-0.25,1.4l1.35,0.8l1.35,1.65h1.4l2.45,1.9l4.9-2.45L168.3,30l1.4,0.25l2.15-0.55
			l1.35-1.35l1.4,0.8l1.1,1.4l1.9,1.6l2.15-0.55h3.55l1.65-1.05l1.65,2.15l-1.4,1.4v1.6l6.55,5.2l2.2,1.35l2.15,0.55l2.2,0.25
			l2.2,0.55l2.45-1.6l1.9,2.45l0.8-1.9l1.9-0.85l1.4-1.1l3,3.85l3.8,1.9L219,46.9l3.85,2.15l0.025,0.05l-0.025-0.05L219,46.9
			l4.05,2.15l0.4-0.05l-0.35,0.05h-0.05l-0.175,0.05l0.525,1.05L223.375,50.175z M169.75,173.75l0.75,0.4l0.925,0.2l3.175,6.8h0.05
			l2.05-0.1l1.725-0.95l0.5-0.175l-0.5,0.175l0.45-0.25l0.05,0.075l0.625,1.425l-0.1,0.3h0.05l-0.5,1.55l-3.2,0.65v1.3v0.05
			l0.3,0.725l0.5,1.225l-1,0.5v0.025l-0.05,0.025l-0.2,1.9l-1,0.25l0.575,1l-1.325,0.2l0.1,0.025l-0.1,0.025l1.05,0.3l-1.15,0.7
			l-1.65,1.55l-1.75,0.6l-1.35,1.05l-0.8-0.5h-0.05l-4.3,0.7l-0.2-0.6l-10.35,0.3l-0.75-0.6l-3.75,0.6l-0.1-0.25h-0.025l-0.025-0.05
			l-4.35-0.3l-0.05-0.15l-0.45-1.95l-1.65-4.95l2.825-0.125l2.875-0.125l-0.25-1.65l-1.1-4.05h-0.025l-0.025-0.05l-2.7,0.55
			l-3.25-0.3l0.55-5.95l-0.05,0.025V175.8l-2.4,0.525l0.25-1.275V175l-1.075-0.55l-1.075-1.3l0.25-1.65l1.4-1.9l-0.075-0.025
			l0.025-0.025l-1.65-0.3l-1.9,1.4l-3.55,0.25l-1.85-0.525l-0.3-1.625h-0.05v-0.05h-2.4l0.1-3.95l0.9-2.7l0.75-0.9l0.9-0.2l2,0.9
			l3.4,2.9h0.05l1.45-0.15l0.7-0.9v-0.05v-1.45l0.55-1.45l-1.275-0.95l-3.075-2.325l-0.15-3.625l0.5-0.7l0.4-2.2h2.9l1.25-0.55v-1.8
			l1.1-0.2l0.5,0.3l0.9,0.6l0.75,1.45l0.575,0.525l0.525,0.575l0.15,3.6h0.05v0.05l0.9,0.2h1.65l2.175,0.55l1.225,1.55l0.05,0.05
			l0.2-0.15l0.2,0.9h0.025l0.025,0.05l1.4-0.2l-0.1,0.75h0.05v0.05l0.6-0.1l-0.45,2.25l-0.275,0.2H149.9l-1.85,1.55l-0.15-0.45
			l-0.45-1.4l-0.025,0.05l-0.025-0.05l-2.15,2.25l-1.3-1.8l-0.05-0.05l-0.6,0.4l-0.85,2.8l-1.45,0.95l-0.1,1l0.2,0.25l0.65,0.85
			l1.45,0.2l1.025-0.3l0.175,0.275l0.15,0.325l0.3,2.2l0.75,0.3l1.45-1.15l1.35,0.1l1.3,1.6l0.05,0.05l0.9,0.1l0.95,0.55l1.65,0.3
			l1.05-0.3l-0.3-2.05l-0.15-1.05l1.1-3.45l0.15-0.5l5.05,0.1l1.45,1.15l2,0.675l0.65,0.225l0.75,2.05h0.025l0.025,0.05l2.85-0.45
			l0.1,2.8l0.9,1.55L169.75,173.75z M153.05,139.3l0.075-0.475l0.025,0.525L153.05,139.3z M152.425,137.725l0.175-0.025l0.55,0.9
			l-0.05-0.05l-0.7-0.8l-0.65,0.1L152.425,137.725z M143.95,137.05l0.25,0.15l0.15,0.1l-0.1-0.05L143.95,137.05z M111.05,162.75
			l0.05,0.8l0.05,0.2l0.15,0.65l0.3,6.8l-0.5-7.65l-0.75-2.8L111.05,162.75z M109.675,158.2l0.675,2.55l-4-11.175l3.05,7.675
			L109.675,158.2z M118.4,181.75l0.55,0.475l1.65,1.425l0.875,1.175L125.15,190l2.1,4.025c-0.669-1.069-1.436-2.227-2.3-3.475
			c-0.9-1.3-1.784-2.55-2.65-3.75c-0.867-1.2-1.583-2.183-2.15-2.95c-0.566-0.767-0.867-1.167-0.9-1.2L118.4,181.75z
			 M130.25,201.875c-0.211-0.629-0.428-1.321-0.65-2.075c-0.108-0.367-0.208-0.716-0.3-1.05L130.25,201.875z M135.05,218.6
			l-0.225-1.4l0.125,0.4L135.05,218.6z M135.9,168.95l1.45-2l3.25-0.2l-3.25,0.2L135.9,168.95z M140.75,175.8
			c0.067,0,0.383,0.05,0.95,0.15c0.533,0.066,1.033,0.1,1.5,0.1c0.466,0,0.633-0.083,0.5-0.25c-0.267-0.3-0.483-0.667-0.65-1.1
			c-0.167-0.434-0.25-0.667-0.25-0.7l-0.35-1.65l-0.75-1.25v-1.3l2.4-0.35l-2.4,0.35v1.3l0.75,1.25l0.35,1.65
			c0,0.033,0.083,0.267,0.25,0.7c0.167,0.433,0.383,0.8,0.65,1.1c0.133,0.167-0.034,0.25-0.5,0.25c-0.467,0-0.967-0.033-1.5-0.1
			C141.133,175.85,140.817,175.8,140.75,175.8z M136.25,305.4l-0.225,0.6l-0.125,0.3l0.25-1l0.025,0.025l0.975-1.925l-0.575,1.35
			l-0.325,0.625V305.4z M140.25,318.5l2.55,0.25l3.25,1.4l1.1,1.25l-1.3-1.25l-3.25-1.301L140.25,318.5z M139.275,317.6L136.6,315.2
			l-1.25-3.851l1.45,3.9L139.275,317.6z M187.725,357.375c0.043-0.065,0.168-0.29,0.375-0.675c0.233-0.434,0.267-0.816,0.1-1.15
			c-0.133-0.233-0.383-0.684-0.75-1.35c-0.367-0.7-0.717-1.367-1.05-2c-0.333-0.601-0.517-0.934-0.55-1l-0.35-5.05l0.35,5.05
			c0.033,0.066,0.217,0.399,0.55,1c0.333,0.633,0.684,1.3,1.05,2c0.367,0.666,0.617,1.116,0.75,1.35
			c0.167,0.334,0.133,0.717-0.1,1.15C187.893,357.085,187.768,357.31,187.725,357.375l-0.025-0.025l-3.85,0.2l-2-1.45l-0.5,3.25
			l-1.65-1.1l-2.35,1.1l-1.65-1.8l-2.55,0.9l-1.1-0.351l-2-0.899l-0.55,2l-1.45-0.4l-0.35-1.1l-2.35,0.75l-1.3,2.2l-0.7-2.4
			l-1.45,0.55l-6.2-0.899l-2.55-2.7l-2.55-1.65l-2.7,0.2l-1.1-2.55l-2.7,1.45l-2.2-1.65l-0.35,2.35L139.7,355l-4.9-0.2l-3.65-1.25
			l0.4-7.45l1.1-6.199l-1.5-11.801l-0.7-1.1l-0.55-2.35l1.8-0.351l0.95-3.1l2,0.899l1.25,1.101l1.65,0.7l2.35-0.5l2.35-1.5
			l1.3-0.351V323l2,2.55c0.034,0.033,0.35,0.2,0.95,0.5c0.633,0.267,1.333,0.55,2.1,0.851c0.767,0.3,1.383,0.466,1.85,0.5
			c0.4,0.033,0.65-0.117,0.75-0.45l0.25-0.15l-0.25,0.15c0.133-0.3,0.2-0.617,0.2-0.95c0-0.194-0.008-0.344-0.025-0.45
			c0.045-0.016,0.087-0.032,0.125-0.05c-0.038,0.018-0.08,0.034-0.125,0.05c0.004-0.039,0.004-0.072,0-0.1l0.125,0.05l-0.15,1.15
			v0.05l0.1,0.1l1.85,1.7v6l2.2,0.25l3-2.7l4.1,0.8l1.25,0.726l0.65,0.375l2.75-2.2l0.8-1.05l2.7,0.8l2.75-0.55l1.65,0.55l2.45-0.8
			l1.35,1.899l0.375-1.375l0.475-1.675l-1.1-1.899l-0.8-1.9l0.7-1.45l0.35-0.7l2.2,3l1.05-1.1l1.95-0.8l0.5,2.149l-0.8,5.45
			l2.45,0.851l8.75-1.101l4.05,0.8h0.05l6.25,0.301l0.55,4.6l3.55,1.65l1.6,2.699l0.55,3.551l1.35,0.55l7.95,1.399l4.9,0.25l0.15,2
			l-0.55,0.7l-0.4,0.95l-0.45,2.05l-0.4,0.8l1.25,0.851l0.15,1.75l-1.65,1.649h-0.75h-0.6v0.025l0.4,1.875l-0.95,2.6l-0.7-0.8
			l-0.95-1.1l-0.025,0.024l-0.025-0.024l-1.6,1.6l-0.55,2.45l-3.3,0.85H213l-1.35,0.551v2.699l-2.15,0.301v-1.101l-1.65-0.85
			l-2.15-0.25l1.05-2.2l-2.45-2.45l-2.45,0.55l-0.25-2.699l-0.55-1.95h-1.35l-0.725,0.45l-0.675,0.399l-1.325,1.601L196,362.3
			l-0.1,0.075l-0.05-0.125l-0.1,0.25l0.1-0.1l0.125,0.55l0.375,1.649l-0.675-1.925l-0.025-0.075l0.1-0.1l-0.1,0.1l0.025,0.075
			l-0.875,0.875l-0.2-2.35l-0.55-0.75l-3.25-0.75l-1.85,0.2L187.725,357.375z M145.55,325.55c0.034,0.033,0.35,0.184,0.95,0.45
			c0.633,0.267,1.333,0.55,2.1,0.85c0.767,0.267,1.383,0.45,1.85,0.551c-0.467-0.034-1.083-0.2-1.85-0.5
			c-0.767-0.301-1.467-0.584-2.1-0.851C145.9,325.75,145.583,325.583,145.55,325.55z M163.85,333.575v1.825l1.25,0.55l-1.25,6.35
			l13.6-2.35l4.4,6.2l5.45-0.95l1.6-1.05l6.2,0.5l1.65-5.601l-1.85-1.649l-4.35,0.55l-2,1.649l-3.45-2.75v-2.899l1.3-0.351
			l-1.3,0.351v2.899l3.45,2.75l2-1.649l4.35-0.55l1.85,1.649l-1.65,5.601l-6.2-0.5l-1.6,1.05l-5.45,0.95l-4.4-6.2l-13.6,2.35
			l1.25-6.35l-1.25-0.55V333.575z M302.4,411.875l3-2.525l6.55-4l0.25-0.1v0.9l-2.45,3.3l-2.15,1.649l0.5,1.9l2.2,1.9l-1.65,2.699
			l-2.15,4.65l-0.3,7.35l-1.6,3l-5.75,3.301l-3.25,5.449h-1.65l-1.9,1.601l-2.45-1.351l-2.75,0.801l-1.35-1.351l-3,2.75l-1.9-0.85
			l-5.45,0.55l-3.3-0.8l-4.35,1.899v2.75l-2.15,3.801l-0.55,5.149v2.2l-0.55,1.35l-4.1,3.551h-2.45l-2.2,2.449l-0.15,0.101
			c-0.1,0.033-0.45,0.184-1.05,0.45c-0.566,0.3-1.517,0.75-2.85,1.35c-1,0.5-1.617,0.95-1.85,1.35c-0.2,0.4-0.2,0.75,0,1.051
			c0.233,0.267,0.5,0.483,0.8,0.649c0.3,0.167,0.467,0.25,0.5,0.25l-0.85,3.8l-2.15,1.351l-2.75,6.55l-2.45,1.65l-2.45,4.899
			l-1.65-0.25l-2.15,2.15l-5.45,2.75l-4.9,10.6l-3.85,1.65l-1.1,2.2l-1.35-0.551l-3.55,1.9l0.55,2.75l-3,3l0.3,1.6l-2.75,1.351
			l-2.7,2.2L207,522.85l-2.2,1.601l-2.7-0.5l-1.35-1.4l-0.55-0.8l0.25-0.8l-0.55-2.2l-1.9-0.3l-0.25,2.2H195l-1.35-2.45l-4.1,0.55
			l0.3-3.25L189,513l1.35-0.5h2.2l-0.8-1.95L189,508.65l-1.9,0.3l-0.05,0.1c0,0.134-0.066,0.45-0.2,0.95
			c-0.2,0.533-0.517,0.816-0.95,0.85c-0.433,0.034-0.667,0.034-0.7,0l-0.3-2.199l-0.8-1.351l-1.65-1.649l0.85-1.351l1.9-1.899
			l2.15-0.851h2.75l8.7,2.5l3.3-1.1l0.8-1.9l-8.45-71.149l0.025-0.95l0.025-2.9l0.9-0.95l1.5-0.55h1.25l0.95-1.05l0.55-1.5l1.3-0.35
			l0.3-0.101l1-1.2h2.45l1.6,1l1.65,1.051l2.45,1.199h2.2l0.95,3.95l1.65,0.55l1.75-1.1l2.6-0.5h3.55l3-3.55l2.225-0.175
			l1.725-0.125l0.25-6.25l10.375,0.1l2.425,0.05l-0.025-0.05l-0.375-1.45V415l0.3-2.15l0.95-2.05l-1.1-2.3l1.65-0.55l3.25,0.399
			l1.35-1.25l1.8,0.15l1.2,2.6l2.525,3.301l1.025,1.35l0.2-0.725l0.2-0.676l0.15-1.75l1.9-0.399l-0.95-6.55l0.95-3.7l-0.25-1.2
			l0.8,0.1l0.25,0.051l3.25-0.5l1.45,2.949l0.85,2.726l1.35,4.524h1.8l1.3,0.825l3.8,2.425l9.45-1.449l5.8-1.801v0.025l1.8,4.325
			l1.275,1.375l2.025,2.274l2.55-1.1l3.4-2.025l2.05-1.225L302.4,411.875z M222.6,358.625V358.6h0.6l-0.25,0.15L222.6,358.625z
			 M195.85,362.25l2.45-2.7L195.85,362.25z M258.65,399.6v0.051l-0.8-0.15l0.8,0.15V399.6z M199.1,466l1.65-1.05l1.45,1.05l2.35-4.7
			l4.7,0.55l2,0.9l0.55,0.35l2.55-0.55l0.9,2l16.2,4.55l0.35-6l0.75,0.551l1.25-4.15l0.75-4.55l3.25,2.55l0.35,1.8l-1.25,0.351
			l0.9,1.3l3.65-2.75l1.8-1.101l-0.35-1.8l-1.1,0.55l0.2-1.649h3.25l0.75,0.2l1.05-1.45V451.1l2.55,1.5l2.2-4.75l-1.65-2.199
			l1.45-5.25l-0.15-1.45l5.25-1.101l2.2-2.35v1.8l3.45,0.75v3.25l0.55,3.65l1.8-0.2l2.55,0.55l-2.55-0.55l-1.8,0.2l-0.55-3.65v-3.25
			l-3.45-0.75v-1.8l-2.2,2.35l-5.25,1.101l0.15,1.45l-1.45,5.25l1.65,2.199l-2.2,4.75l-2.55-1.5v1.851L246,454.4l-0.75-0.2H242
			l-0.2,1.649l1.1-0.55l0.35,1.8l-1.8,1.101l-3.65,2.75l-0.9-1.3l1.25-0.351l-0.35-1.8l-3.25-2.55l-0.75,4.55l-1.25,4.15
			l-0.75-0.551l-0.35,6l-16.2-4.55l-0.9-2l-2.55,0.55l-0.55-0.35l-2-0.9l-4.7-0.55l-2.35,4.7l-1.45-1.05L199.1,466z M194.475,428.95
			l-0.125-2.75l0.2-5.5l-0.05,5.3v0.05l-0.15,0.15l0.15-0.15L194.475,428.95z"/>
		<path fill-rule="evenodd" clip-rule="evenodd" fill="#c8c8c8" d="M278.175,189.875l-0.025-0.025L277.1,192l-2.95,1.45l-1.05,2.95
			l1.05,2.15L270.9,200l-1.8-3.25l-0.75,1.1l-1.1,2.9l-1.05,1.8l1.05,2.2l-1.45,2.9l0.75,4.35l1.45-0.7l-0.3,2.15l-0.05,0.35
			l-0.275,0.85L266.9,216l-2.2,0.75l-3.6,2.15v4.75l-2.2-1.45l-2.9,0.7l-0.7-2.15h-0.05l-3.6-0.4v-0.025l-0.1-0.275l-0.5-1.55
			l-0.15-0.3l0.025-0.05l3.625-4.35l0.375-1.075l0.375-1.075h-0.025l-1.825-1.45l-2.15-4.75l-2.2-1.8l-1.45,0.7l-6.2-4l-2.5-9.45
			l-2.95-1.8l0.4-2.55l-2.2-3.6v-0.025l0.125-0.375l2.775-7.25l-0.35-1.8l-0.5-0.9l-0.5-0.9l-0.25-0.425l-0.2-0.325l-0.35-3.65
			l-0.75-1.45l0.35-2.55l-4.35-3.65l-2.2-3.6l-7.6-1.45v-0.05v-1.8l2.9-2.9l-1.125-1.825L221.1,146.2l-2.55-6.15l4.8,0.15
			c0.066-0.034,0.617-0.284,1.65-0.75c1.033-0.467,2.267-1.067,3.7-1.8c1.433-0.733,2.767-1.483,4-2.25c1.2-0.8,2-1.5,2.4-2.1
			c0.7-1.233,1.283-2.183,1.75-2.85c0.433-0.633,0.667-0.95,0.7-0.95l-1.75-7.3c0.034,0,0.55-0.117,1.55-0.35
			c1-0.267,2.183-0.55,3.55-0.85c1.4-0.3,2.717-0.583,3.95-0.85c1.233-0.233,2.133-0.35,2.7-0.35c0.733,0,1.617,0.034,2.65,0.1
			c1,0.033,1.9,0.083,2.7,0.15c0.767,0.067,1.184,0.1,1.25,0.1c0-0.033,0.017-0.4,0.05-1.1c0.066-0.7,0.15-1.533,0.25-2.5
			c0.1-0.966,0.233-1.867,0.4-2.7c0.2-0.833,0.417-1.383,0.65-1.65c0.367-0.367,0.8-0.767,1.3-1.2c0.467-0.433,0.883-0.8,1.25-1.1
			c0.367-0.3,0.567-0.467,0.6-0.5l8.25-11.15V92.8l10.15,1.8l1.5,6.9l2.5-1.45l3.65-1.45l2.55-8l1.45-3.25h9.6h-9.6l-1.45,3.25
			l-2.55,8l-3.65,1.45l-2.5,1.45l-1.5-6.9l-10.15-1.8v5.45l-8.25,11.15c-0.033,0.033-0.233,0.2-0.6,0.5
			c-0.367,0.3-0.783,0.667-1.25,1.1c-0.5,0.433-0.933,0.833-1.3,1.2c-0.233,0.267-0.45,0.816-0.65,1.65
			c-0.167,0.833-0.3,1.733-0.4,2.7c-0.1,0.967-0.184,1.8-0.25,2.5c-0.034,0.7-0.05,1.067-0.05,1.1c-0.066,0-0.483-0.033-1.25-0.1
			c-0.8-0.066-1.7-0.117-2.7-0.15c-1.034-0.066-1.917-0.1-2.65-0.1c-0.566,0-1.466,0.117-2.7,0.35c-1.233,0.267-2.55,0.55-3.95,0.85
			c-1.367,0.3-2.55,0.583-3.55,0.85c-1,0.233-1.517,0.35-1.55,0.35l1.75,7.3c-0.033,0-0.267,0.317-0.7,0.95
			c-0.467,0.667-1.05,1.617-1.75,2.85c-0.4,0.6-1.2,1.3-2.4,2.1c-1.233,0.767-2.567,1.517-4,2.25c-1.434,0.733-2.667,1.333-3.7,1.8
			c-1.033,0.466-1.583,0.716-1.65,0.75l-4.8-0.15l-1.8-7.65l-3.65,1.45l-3.25,2.2l-1.1,2.55l-5.8,5.45L202.9,144l-6.525-10
			l-0.325-0.5l-1.1-4l-1.45-2.2l-0.25-0.575l-0.85-1.925l-0.6-2.15l-0.1-0.4l0.35-0.95l0.75-0.125l2.25-0.375v-0.05l-0.3-5.4
			l0.55-3.55l1.9-2.45v-0.025V109.3l-1.35-3.8l-1.95-0.775l-0.75-0.325l-1.4-1.7l-1.9-2.4l0.55-2.15l-1.35-2.45l-0.55-2.75v-1.9
			l1.7-2.725l1.05-1.625l1.6-0.25V86.4v-1.35L193.4,84v-0.05V81l2.45-0.225l0.8-0.075h0.05l6.25-3.25l5.7-1.9l0.05-0.4l0.5-3.45
			l-0.55-4.35l1.95-1.9l1.35-1.9l1.9-1.9l3.8,0.8h1.4V57.8l0.8-2.175l0.8-2.175l1.1-1.65l0.4-0.4l1.25-1.2l-0.025-0.025l0.025-0.025
			l-0.525-1.05l0.175-0.05l0.05,0.05l1.35-0.3h0.05l2.15,2.2l1.1,1.9l5.2,1.1l4.35-0.3l0.25,1.1l-0.8,1.65L240,58.9l4.1-3l6.55-0.8
			l1.35-3.55h2.75l0.55-1.9l3.8-0.3l0.8-3l3.3-1.9l0.25-1.65l1.35-2.15l0.85,0.55l1.35-0.3l0.3-3.25l1.9-1.65l1.35,3l0.8,0.55
			l-1.6,3.25l1.35,3.3v3.8l1.1,0.85l3.55,3.8l4.35,0.55l2.7-2.45l2.2,2.7h1.35l1.65,2.2l6.55,1.35l0.55,2.2l3.8,11.45l-0.55,1.35
			l0.55,5.15l-0.8,3.3l0.2,5l0.05,1.25l1.35,1.1l1.4,2.45l1.6,1.35l1.65,6.85l3,3.25l-0.55,1.1l-1.1,0.25l-3,5.45l-0.25,1.65
			l1.35,2.45l2.2,6l-0.3,3.3l1.65,5.45l2.175,2.125L309.5,131.4h-0.025l-0.05,0.025l-1.8,0.275H307.6l0.2,0.4h-0.025h-0.025
			l0.525,1.15l0.175,0.375l0.05,0.125l0.2,0.425l0.025,0.075l0.2,0.4l0.125,0.3l1.45,17.8l-1.45,4.75
			c-0.033,0-0.383,0.017-1.05,0.05c-0.633,0.034-1.25,0.133-1.85,0.3c-0.4,0.133-0.967,0.217-1.7,0.25c-0.733,0.066-1.4,0.1-2,0.1
			h-0.05c-0.6,0-0.917,0-0.95,0l-2.9-1.1l-0.775,0.45L296,158.6l-2.2-2.55l-1.8,0.7v4l1.05,1.85l-1.05,3.6l-0.7,5.45l-0.05,0.35
			l-1.025,1.35l-4.425,5.6l1.1,2.9l-1.1,2.55l-0.35,2.15h-1.1l0.725,2.9H282.9l-1.45,0.4l0.7,2.55L280,192l-0.8-0.925l-1-1.225
			L278.175,189.875z M353.35,197.4l0.4-0.65l3.3-1.1l1.45-0.7l34.15-1.5l4.35,2.2l-0.7,4.35v7.25l-0.75,5.85l1.45,2.15l3.65,1.45
			l-0.75,2.9l-3.6,5.85l-5.1,1.45l1.45,2.9l-3.65,8l1.5,3.6h-3.65l-5.1-2.15c-0.033,0-0.383-0.033-1.05-0.1
			c-0.667-0.1-1.5-0.183-2.5-0.25c-0.967-0.1-1.934-0.2-2.9-0.3c-0.933-0.067-1.683-0.1-2.25-0.1c-0.767,0.033-1.533,0.167-2.3,0.4
			s-1.417,0.467-1.95,0.7c-0.533,0.233-0.816,0.35-0.85,0.35l2.9,4.4h-3.65l-4.55,8.05l-0.8,4.4l0.3,7.35l-1.95,4.35l-3.8,5.75
			l-3,1.6l1.1,3l0.55,5.45l-3.85,3.3l-6.25-0.55l-5.7,4.35l2.15,3l-0.55,3l3,2.2l1.65,2.7l5.7,3l-0.25,5.45l-1.65,3l0.55,4.65
			l-1.9,2.149l-1.9,10.101l-1.1-0.25l-1.1,1.35l-1.9,0.8l-1.1-1.1l-1.6-0.8l-1.95,0.25l0.85,0.85l1.35,5.15l-1.9,2.199l-4.9,1.9
			l-1.4,4.35l2.2,1.4l0.8,2.15l1.65,1.1l1.65,0.3l0.05,0.101c0.067,0.1,0.233,0.383,0.5,0.85s0.717,1.233,1.35,2.3
			c0.6,1.033,0.767,1.617,0.5,1.75c-0.267,0.101-0.633,0.033-1.1-0.2c-0.467-0.267-0.717-0.416-0.75-0.449l-2.45,2.149l0.55,3.55
			l1.9,4.351l-1.9,3.3l-1.4,5.15l0.3,1.649l-0.85,0.851l-0.5,2.949l-1.95,1.101l-3.25,3.3l-6,1.1l-1.1-2.199l-2.15,0.55l-1.1,1.899
			v2.75l-2.75,0.801l-3,3l-0.25,15.25l-0.05-0.9l-0.25,0.1l-6.55,4l-3,2.525l-1.35,1.075l-2.05,1.274l-3.4,2.025l-2.55,1.1
			l-2.025-2.274L289.8,413.7l-1.8-4.351l-0.05,0.025v-0.025l-5.8,1.801l-9.45,1.449l-3.8-2.425l-1.25-0.825h-0.05h-1.8l-1.35-4.524
			l-0.8-2.775l-1.45-2.95l-3.25,0.5h-0.25l-0.15-1l-0.9-1.6h-0.05l-1.25,0.15l-1.8-2.15l0.7-1.45l-1.25-3.3l0.7-0.4l0.95-0.5
			l0.15-1.25h1.65l-0.55-2.949l0.65-0.95l0.45-0.65v-1.1l-2.2-1.65l-1.75-3.649l-1.15-0.9l-1.15-0.9l-1.4-2.199l-0.075-0.426
			l-0.325-1.875L249.8,368l-1.5-2.2l-2.625-1.125L244.8,364.3l-0.45-0.075l-2.85-0.475l-1.9-1.2l-2.2,0.25l-0.65-1.2l-1.5-1.8
			l0.1-1.5l-1.75-0.399l-4.9,2.199l-2.05-0.55l-1.575,2.625l-0.625,1.025l-1.2,0.45L222,363.1l-0.65-0.75v-0.05l0.7,0.8l0.95-2.6
			l-0.4-1.875l0.35,0.125l0.25-0.15h0.75l1.65-1.649l-0.15-1.75l-1.25-0.851l0.4-0.8l0.45-2.05l0.4-0.95l0.55-0.7l-0.15-2l1.05-1.35
			h1.1l1.1,1.25l1.45-1.8l1.45,0.55v-0.9v-0.05l-1.8-0.7l-0.2-0.75l-1.45-1.8l3.3-1.1l1.45,1.45l0.525-0.275l0.55-0.275L236,342.65
			l-0.35-2.9l1.25,0.2l0.9,2l1.65-0.55L240,340.3l0.9-1.25l0.55-2.75l1.65-1.649l-1.25-0.2l-0.4-1.25l1.65-0.55l-1.25-1.25v-2
			l0.3-2.051l0.05-0.3l0.9-2l1.25-0.35v-0.95l1.1-0.35l-0.45-0.9l-0.45-0.95l-1.25,0.4l-1.275-0.925l0.525-0.525l-0.025-0.025
			l0.025-0.024l-0.35-0.7l-0.75-2.9l0.75-1.8h-0.025L242.2,315l-1.85-0.35l-1.25-1.25l-1.8,0.35l0.35-1.45l1.45-1.05l0.35-2.55
			l-0.15-2.75l-0.175-0.325l-0.575-0.975l0.35-3.95l1.45-0.2l0.4-1.1l-1.375-2.425l-0.45-0.825l0.575-0.35l0.35-0.2v-1.1l1.35-1.2
			l0.45-0.4l0.45-0.4l0.45-0.35l0.35,1.65l0.95,1.25l1.25,0.9l-0.35,1.65l-0.275,0.525l-0.275,0.525v0.025v0.025l0.9,2.7l0.9,6.35
			l-0.525,0.975l-0.175,0.325l0.7,1.65l2.55,3.45c0.034,0,0.333,0.149,0.9,0.449c0.6,0.267,1.216,0.567,1.85,0.9
			c0.318,0.159,0.593,0.301,0.825,0.425l0.575,0.325l0.05,0.05l0.475,0.351c0.27,0.215,0.561,0.448,0.875,0.699
			c0.5,0.367,0.767,0.567,0.8,0.601c0.039-0.003,0.139-0.054,0.3-0.15c0.167-0.1,0.316-0.283,0.45-0.55
			c0.03-0.104,0.055-0.229,0.075-0.375l0.075-0.675c0.018-0.135,0.035-0.269,0.05-0.4l0.1-1c0.026-0.345,0.043-0.562,0.05-0.649
			l2.2-0.75l1.45,0.75c0,0.023,0.059,0.099,0.175,0.225L260,314.55c0.2,0.233,0.45,0.334,0.75,0.3l0.2-0.074
			c0.2-0.092,0.4-0.2,0.6-0.325c0.267-0.2,0.417-0.3,0.45-0.3V314.1l-0.125-0.649L261.8,313l-0.9-1.05v-1.101l1.3,0.75l1.45-2.35
			l0.9,1.25l2.15-2.55l2.2,0.2l-0.025-0.051h0.025c0-0.032,0-0.265,0-0.699v-0.051c0-0.433,0.117-0.716,0.35-0.85
			c0.167-0.033,0.6-0.083,1.3-0.15c0.458-0.041,0.934-0.083,1.425-0.125l0.925-0.074c0.867-0.067,1.617-0.117,2.25-0.15
			s0.967-0.05,1-0.05l5.1,1.1l3.3,1.45l3.45-0.9l3.25-2.55l2.75,1.65l5.25,0.149l1.65-1.05l4,3.25l3.05-2.35v-0.05l0.2-1.601
			l1.3-0.35l2.15,0.55l-0.55,3.6l0.35,2.75l0.95,2.15l1.05,0.95l0.05-0.05l4.5,2.55l1.3,7.649l1.45,0.7l-0.35,3.65l-3.1,3.1
			l-4.35,5.45l-1.65,0.9l0.35,0.699l0.75,0.4l4.7,5.05l-0.9,3.851L310,351.9l2.5,7.449l-2,2.551l1.3,3.25L310,378.8l7.45,2.2
			l0.8,3.35l-0.8-3.35l-7.45-2.2l1.8-13.649l-1.3-3.25l2-2.551L310,351.9l6.15-3.25l0.9-3.851l-4.7-5.05l-0.75-0.4l-0.35-0.699
			l1.65-0.9l4.35-5.45l3.1-3.1l0.35-3.65l-1.45-0.7l-1.3-7.649l-4.5-2.55l0.9-0.9l-0.2-1.6l0.55-0.551v-0.05l-0.55-4.5l-0.125-0.3
			l-0.4-0.95l2.525,1.05c2.901,0.736,4.301-0.946,4.2-5.05v-0.024v-0.025l-0.35-0.6l-1.5-2.65l-1.8,0.7l-0.275-0.8l-0.825-2.45
			l-4.35-4.35l0.35-4.35l5.1-3.65l1.8-7.25v-0.025V276.3l-1.45-4.35l0.35-2.9l-1.8-1.8l2.55-4.35l2.55-6.9v-0.05l-1.1-6.5v-0.025
			l1.1-3.975l1.8-1.1l1.1-4.7v-1.1v-0.05l-1.8-2.525l1.05-3.625l-1.075-1.075l-1.075-1.125l-0.75-2.55l-1.8-4l-0.75-1.15l-3.25-5
			L312.7,216l2.2-2.15l0.7-1.85l29.8-15.6l4.75,2.15h2.5h0.05L353.35,197.4z M128.05,161.1l-0.65-1.1l-3.8-2.45l-3-0.8l-5.45-7.9
			l-3.25-1.9l-1.9,0.8l-1.2-4.475l1.2,4.475l1.9-0.8l3.25,1.9l5.45,7.9l3,0.8l3.8,2.45L128.05,161.1l-0.75,0.9l-0.9,2.75l-0.1,3.95
			h0.05h2.4v0.05l0.3,1.6l0.05,0.025l1.85,0.525l3.55-0.25l1.9-1.4l1.65,0.3l-0.025,0.025l-1.375,1.875l-0.25,1.65l1.1,1.35h0.025
			L138.6,175v0.05l-0.3,1.3l0.05-0.025l2.4-0.525v0.075l-0.55,5.925h0.05l3.25,0.3l2.7-0.55l0.025,0.05l1.075,4l0.25,1.65
			l-2.825,0.175l-2.825,0.125h-0.05l2.15,6.9l0.05,0.15l4.35,0.3l0.025,0.05l5.975,19l1.1,2.75l1.05,1.35l-0.25,1.65h-2.7h-0.05
			l-0.8,0.275l-0.8,0.275l-2.45-0.55l-1.1-1.35l-0.25-1.1h-1.1l-4.1,1.35l-2.45,0.8l-1.9,1.1l-3.5-1.875l-0.05-0.025h0.05v0.025
			V218.6h-0.05l-0.1-1l-0.125-0.4l-4.575-15.325l-0.95-3.125l-0.55-1.85c-0.133-0.566-0.617-1.5-1.45-2.8l-0.05-0.075l-2.1-4.025
			l-3.675-5.175L120.6,183.6l-1.65-1.375l-0.55-0.475l-0.05-0.05l-2.85-2.4c-0.033-0.033-0.233-0.283-0.6-0.75
			c-0.367-0.466-0.75-0.95-1.15-1.45c-0.032-0.047-0.065-0.089-0.1-0.125c-0.303-0.468-0.47-0.793-0.5-0.975
			c0-0.2,0.067-0.483,0.2-0.85c0.1-0.367,0.217-0.7,0.35-1c0.063-0.143,0.113-0.259,0.15-0.35v-0.15
			c0.033-0.033,0.217-0.083,0.55-0.15c0.333-0.1,0.7-0.217,1.1-0.35c0.4-0.1,0.7-0.183,0.9-0.25c0.233-0.133,0.217-0.4-0.05-0.8
			c-0.267-0.367-0.434-0.583-0.5-0.65l-1.05-0.2h-0.05l-2.325,1H112.4l-0.8-1.05l-0.3-6.8v-0.05l-0.15-0.6l-0.05-0.2l-0.05-0.8
			l-1.375-4.55l-0.275-0.95l-3.05-7.675l-0.5-1.275l-0.675-1.225l-0.35-0.7l-0.025-0.025l4-3.075l4.15-3.175l-0.55-2.15v-0.05
			l0.85-0.8l0.5-2.45l-1.35-0.8l22.35-2.75l2.75,1.35l3.25,2.75l2.15,1.25l1.05,0.6l0.3,0.2l0.1,0.05l-0.15-0.1l0.15,0.05l0.05,0.05
			l1.25,0.35h0.05h2.65h0.475l1.325,0.275l0.4,0.075h0.05l1.125-0.2l0.675-0.1l0.025,0.025l-0.675,0.125L150.6,138l1.15-0.15
			l0.65-0.1l0.7,0.8l0.025,0.275l-0.075,0.475l0.1,0.05h-0.05V140l-1.05,1.1l0.225,1.825l0.275,2.375l-0.35,2.15l-0.7,1.1
			l-1.175,1.1l-1.225,1.1l-0.55,1.05h-1.25v0.05l0.2,1.05l1.05,1.1v2.2l0.2,1.25l-0.55,0.35l-1.225-1.55l-0.025-0.05l-2.2-0.55
			h-1.65l-0.85-0.2h-0.05l-0.15-3.6v-0.05l-0.525-0.525l-0.575-0.525l-0.75-1.45l-0.9-0.6l-0.55-0.35l-1.1,0.2v1.8l-1.25,0.55h-2.9
			l-0.35,2.2l-0.55,0.7l0.15,3.65l0.05,0.025l3.075,2.325l1.225,0.95l-0.5,1.45v1.45l-0.75,0.9l-1.4,0.2h-0.05l-3.4-2.9l-0.05-0.05
			l-2-0.9L128.05,161.1z M137.85,174.9c0.033,0.033-0.05,0.2-0.25,0.5c-0.167,0.3-0.567,0.567-1.2,0.8
			c-0.467,0.133-1.217,0.25-2.25,0.35c-1.033,0.1-1.983,0.184-2.85,0.25c-0.9,0.067-1.383,0.1-1.45,0.1h-8.5l-4.7,3.025l4.7-3.025
			h8.5c0.066,0,0.55-0.033,1.45-0.1c0.867-0.066,1.817-0.15,2.85-0.25c1.033-0.1,1.783-0.216,2.25-0.35
			c0.633-0.233,1.033-0.5,1.2-0.8C137.8,175.1,137.883,174.933,137.85,174.9z M257.55,384.2c0.633,0.033,1.133,0.083,1.5,0.149
			l0.6,0.101l2.7,1.8l2-0.7l0.75-3.649l-1.25-2.2l6.35-3.25l0.9-1.8l-3.25-6.2l1.45-1.45l-0.55-3.45l0.55-0.899l-0.75-2.95l4.2-1.45
			l-0.2-2l5.65-0.5l3.25,0.7l6.75-7.45l-4.55-6.9l-6-7.449L271.1,315l0.7-1.6l1.85-0.2l2.55,1.649l-0.75-8.35l0.75,8.35l-2.55-1.649
			l-1.85,0.2l-0.7,1.6l6.55,19.65l6,7.449l4.55,6.9l-6.75,7.45l-3.25-0.7l-5.65,0.5l0.2,2l-4.2,1.45l0.75,2.95l-0.55,0.899
			l0.55,3.45l-1.45,1.45l3.25,6.2l-0.9,1.8l-6.35,3.25l1.25,2.2l-0.75,3.649l-2,0.7l-2.7-1.8l-0.6-0.101
			C258.683,384.283,258.183,384.233,257.55,384.2z"/>
		<path fill-rule="evenodd" clip-rule="evenodd" fill="#c8c8c8" d="M154.9,165.575v0.025l-5-4l5,4l-1.05,3.45v0.05l0.15,1.05l0.25,2
			l-1.05,0.3l-1.65-0.3l-0.9-0.55l-0.95-0.1l-1.3-1.6l-0.05-0.05l-1.35-0.1l-1.45,1.15l-0.7-0.3l-0.3-2.2l-0.15-0.275l-0.175-0.275
			l-0.025-0.05l-1,0.3l-1.45-0.2l-0.65-0.8l-0.2-0.25l0.1-1l1.45-0.95l0.85-2.8l0.6-0.4l0.05,0.05l1.3,1.8l2.15-2.25l0.025,0.05
			l0.475,1.35l0.15,0.45l1.85-1.55h0.025l0.725,0.35l0.55-1.1l1.15-1.55l1.15,0.9l0.7,0.05l-0.85,0.95l1.65-0.1l-1.05,0.9l-0.05,1.5
			L154.9,165.575l-1-2.075l0.05-1.5l1.05-0.9l-1.65,0.1l0.85-0.95l-0.7-0.05l-1.15-0.9l-1.15,1.55l-0.55,1.1l-0.725-0.35l0.275-0.2
			l0.45-2.25v-0.05l-0.6,0.1H150l0.1-0.75v-0.05l-1.425,0.2h-0.025l-0.2-0.9l0.3-0.25l-0.15-1.25V154l-1.1-1.1l-0.2-1.05h1.3
			l0.55-1.1l1.175-1.1l1.175-1.1l0.7-1.1l0.4-2.15l-0.325-2.375l-0.225-1.825l1.1-1.1v-0.65l1.025,0.525l1.025,0.525l2.45,0.55h0.05
			h1.6l2.5-0.3l2.7-1.9v-3l1.35,0.8l0.55-0.8l4.1,1.65l3,0.175l5.2,6.625l-5.5,0.55l-1.05-1.65l-2.75,1.4l-0.8,2.15l-2.2-0.8
			l-2.45,7.1l3.55,3.25l3.25,0.55l0.75,5.65c0.033,0,0.233,0.1,0.6,0.3c0.367,0.2,0.783,0.4,1.25,0.6
			c0.433,0.233,0.783,0.35,1.05,0.35s0.767,0.033,1.5,0.1c0.7,0.067,1.383,0.117,2.05,0.15c0.7,0.067,1.15,0.1,1.35,0.1
			c0.233,0,0.733-0.083,1.5-0.25c0.8-0.133,1.55-0.267,2.25-0.4c0.733-0.167,1.117-0.25,1.15-0.25l-0.35,4l-3.65,1.45l6.95,8.55
			l-8.225,2.825l8.225-2.825l-6.95-8.55l3.65-1.45l0.35-4c-0.034,0-0.417,0.083-1.15,0.25c-0.7,0.133-1.45,0.267-2.25,0.4
			c-0.767,0.167-1.267,0.25-1.5,0.25c-0.2,0-0.65-0.033-1.35-0.1c-0.667-0.033-1.35-0.083-2.05-0.15c-0.733-0.067-1.233-0.1-1.5-0.1
			s-0.617-0.117-1.05-0.35c-0.467-0.2-0.883-0.4-1.25-0.6c-0.367-0.2-0.567-0.3-0.6-0.3l-0.75-5.65l-3.25-0.55l-3.55-3.25l2.45-7.1
			l2.2,0.8l0.8-2.15l2.75-1.4l1.05,1.65l5.5-0.55l-5.2-6.625l1.1,0.075l2.4-0.25h0.05l1.35-1.9l-0.025-0.025l0.025-0.025l-1.65-1.05
			l0.3-4.1l0.8-1.9l1.65,0.25l2.45-3.25l3.25-2.2l2.2,1.65l1.1-1.35l1.6-0.85l1.875-1.3l-0.325,0.85l0.15,0.45l0.6,2.15l0.85,1.925
			l0.2,0.575l1.45,2.2l1.1,3.95l0.375,0.55l6.525,10l0.05,0.05l5.8-5.45l1.1-2.55l3.25-2.2l3.65-1.45l1.8,7.65l2.55,6.15
			l1.075,1.825l1.075,1.825l-2.9,2.9v1.8h0.05v0.05l7.6,1.45l2.2,3.6l4.35,3.65l-0.4,2.5l0.75,1.5l0.35,3.6l0.25,0.375l0.25,0.425
			l-1.25,0.25h-0.05l-1.35-0.65l-1.55-0.4l-1.2-1.65l-1.55,0.2l-0.75-0.8l-1.2,0.3h-0.05l-1.8-0.3h-0.05l-0.7,2.75l-2.375,0.925
			l-0.025,0.025l-1.125-1.125L220.7,171.2l-1.275,0.825l-1.275,0.825l-2.5,0.2l-2.3-0.1l-0.425-0.3l-0.675-0.5l-3.2,0.4l-0.55,0.85
			l-1.7,0.2h-0.05l-2.05-0.75l-1.95,0.1l-2.7,5.8l-2.3,1.45l-2.9,1.15l-0.3,1.05l-0.075,0.2l-0.025,0.1h-1.55l-1.15-0.75l-1.45-0.7
			h-2h-0.05l-0.5,0.125l-0.175,0.025l-1.125,0.25h-0.05l-0.95-1.15l-0.95,0.225l-0.6,0.125l-0.5,0.9l-1.95,0.1l-1.925-0.2H179.5
			h-0.05l0.1-0.3l-0.625-1.425l-0.05-0.075l-0.025-0.05l-0.65,0.375l-0.45,0.25l-1.05,0.625l-2.05,0.1h-0.05l-3.175-6.8l-0.025-0.05
			l-0.95-0.2l-0.7-0.35l-0.85-0.45l-0.9-1.55l-0.1-2.8l-2.875,0.4H165l-0.75-2.05l-0.65-0.225l-2-0.725l-1.45-1.15l-5.1-0.1
			L154.9,165.575z M157.15,220h1.35l2.325,1.35l0.925,0.55l1.125,1.3l2.725,3.3l5.45,10.1l-0.55,7.1l-0.8,1.1l4.35,9.5l4.35,0.85
			l0.25-8.45h0.05l0.525,0.125l0.525,0.125v9.55l0.8,0.325l0.6,0.225l2.15-0.3l0.85-2.15l9.25-0.8l0.55,2.15l9.8,3.55l2.2,0.55
			l3.25,2.45l7.4,2.05l0.125,0.025l0.375,0.125h0.025l1.325-0.55h3.9c-0.033,0.167-0.05,0.35-0.05,0.55v0.05
			c-0.012,0.159-0.021,0.317-0.025,0.475L222.25,266v0.15c-0.021,0.104-0.038,0.212-0.05,0.325v1.425v0.05l3.25,1.1l2.2-1.45
			l2.55,1.45l1.65,4.1l-2.35,2.9l-0.95,1.15h-1.1l-2.7,0.3l3.25,2.7l1.35,2.75l1.1,1.65l-0.325,0.4l-1.025,1.2l-1.65,1.1l-1.6,0.3
			l-0.275,0.4l-0.825,1.2l-2.2-0.55l-3.8,0.55l-1.875,0.55h-0.025l0.775-2.4l0.025-0.05l-3.25-0.55l-2.65,0.1l-8,0.2l-0.8,1.9
			l1.35,3l-8.95,3.8l-2.25,0.8v0.05l-0.25,7.9h-2.45l-0.5-3.45l-0.05-0.399l-1.1-1.351l-4.6-2.2l-3.3,2.45L176.2,302l-1.35,1.65
			l-2.7-0.25l-0.825-2.45l-0.275-0.851l0.25-6.25l0.55-1.9l-0.9-3.1l-0.2-0.75l-1.6-0.8l-0.55-1.9l-3.3-3.3h-1.025
			c0.221-0.521,0.396-1.122,0.525-1.8c0.1-0.7,0.233-1.5,0.4-2.4c0.133-0.9,0.233-1.683,0.3-2.35c0.1-0.9,0.25-1.55,0.45-1.95
			c0.167-0.4,0.267-0.583,0.3-0.55l1.05-1.3c0-0.033-0.05-0.367-0.15-1c-0.1-0.6-0.167-1.233-0.2-1.9c-0.034-0.633,0.033-1,0.2-1.1
			c0.2-0.067,0.55-0.217,1.05-0.45c0.466-0.233,0.917-0.45,1.35-0.65c0.434-0.2,0.667-0.316,0.7-0.35l2-1.25l2.9-0.95l0.15-1.6
			l-1.25-1.65l2.55-0.2l-1.45-5.6l1.45,5.6l-2.55,0.2l1.25,1.65l-0.15,1.6l-2.9,0.95l-2,1.25c-0.033,0.034-0.267,0.15-0.7,0.35
			c-0.433,0.2-0.883,0.417-1.35,0.65c-0.5,0.233-0.85,0.383-1.05,0.45c-0.167,0.1-0.233,0.467-0.2,1.1c0.033,0.667,0.1,1.3,0.2,1.9
			c0.1,0.633,0.15,0.967,0.15,1l-1.05,1.3c-0.033-0.033-0.133,0.15-0.3,0.55c-0.2,0.4-0.35,1.05-0.45,1.95
			c-0.067,0.667-0.167,1.45-0.3,2.35c-0.167,0.9-0.3,1.7-0.4,2.4c-0.129,0.679-0.304,1.279-0.525,1.8h-0.025l-4.4,3l-1.05,2.2
			l-3,3.25l-2.2,1.1l-1.35,4.65l-1.1,2.7v0.05l-0.3,2.7l-0.675,1.125l-0.675,1.075l0.55,1.35h-0.025l-3.225,0.8l-5.2,0.551
			l-2.3-0.125l-1.8-0.125l-1.225-0.976l-0.025-0.024v-0.025l0.325-0.625l2.225-4.25v-4.95l2.9-10.15v-14.55l-1.2-3.8h5.6l5.05-2.7
			l-0.55-0.9l1.3-1.65l2.9-2.2l2.55,0.2l2.35,1.25l8-3.8l1.25,1.45c0.033,0,0.25-0.05,0.65-0.15c0.367-0.133,0.7-0.333,1-0.6
			c0.2-0.2,0.333-0.517,0.4-0.95c0.067-0.467,0.117-0.9,0.15-1.3c0-0.4,0-0.617,0-0.65l2.9-0.75l-2.9,0.75c0,0.034,0,0.25,0,0.65
			c-0.033,0.4-0.083,0.833-0.15,1.3c-0.067,0.433-0.2,0.75-0.4,0.95c-0.3,0.267-0.633,0.466-1,0.6c-0.4,0.1-0.617,0.15-0.65,0.15
			l-1.25-1.45l-8,3.8l-2.35-1.25l-2.55-0.2l-2.9,2.2l-1.3,1.65l0.55,0.9l-5.05,2.7h-5.6l-0.1-0.35l-0.7-11.1l-1.65-3.3l0.2-3.45
			l-1.45-19.25l-1.375-8.925l-0.325-2.05l3.5,1.875l1.9-1.05l2.45-0.85l4.1-1.35h1.1l0.25,1.1l1.1,1.35l2.45,0.55l0.8-0.275
			l0.85-0.275h2.7L157.15,220z M222.3,264.75v0.1c-0.01,0.125-0.019,0.25-0.025,0.375C222.279,265.067,222.288,264.909,222.3,264.75
			z M222.25,266c-0.022,0.176-0.039,0.334-0.05,0.475C222.211,266.334,222.228,266.176,222.25,266z M195.4,425.1l-0.9,0.9l1.5-48.1
			l2.95-2.75l4,0.399l2.2,2l3.8-0.95l8.55,2.75l3.25,3.45l-2.7,4.7l-6.95,9.3l2.75,2.55l-3.45,3.051l-2.55-1.45l0.35,8.55l1.45,5.8
			l-3.35,6.05l3.35-6.05l-1.45-5.8l-0.35-8.55l2.55,1.45l3.45-3.051l-2.75-2.55l6.95-9.3l2.7-4.7l-3.25-3.45l-8.55-2.75l-3.8,0.95
			l-2.2-2l-4-0.399L196,377.9l0.4-13.25l-0.425-1.7l-0.125-0.55l0.05-0.025l0.1-0.075l0.2-0.2l0.775-0.949l1.325-1.601l0.675-0.399
			l0.675-0.4H201l0.55,1.9l0.3,2.699l2.45-0.55l2.45,2.45l-1.1,2.2l2.2,0.3l1.6,0.8v1.101h0.05l2.15-0.301v-2.699L213,366.1h1.9
			l3.3-0.85l0.55-2.45l1.6-1.6l0.025,0.024l0.975,1.125l0.65,0.75l1.25,0.551l1.2-0.4l0.625-1.075l1.575-2.625l2.05,0.55l4.9-2.199
			l1.75,0.399l-0.15,1.5l1.5,1.8l0.7,1.2l2.2-0.25l1.9,1.2l2.85,0.475l0.4,0.075l0.925,0.375l2.625,1.125l1.5,2.2l0.15,2.85
			l0.325,1.875l0.075,0.476l1.35,2.149l1.2,0.9l1.15,0.9l1.75,3.649l1.35,1.101l0.85,0.55v1.1l-0.45,0.65l-0.65,0.95l0.55,2.949
			h-1.65l-0.2,1.25l-0.9,0.5l-0.7,0.4l1.25,3.3l-0.7,1.45l1.8,2.15l1.25-0.15l0.95,1.6l0.1,1l-0.8-0.1l0.25,1.2l-0.95,3.7l0.95,6.55
			l-1.9,0.399l-0.15,1.75l-0.2,0.676l-0.2,0.675l-1.025-1.3l-2.525-3.301l-1.2-2.6l-1.8-0.15l-1.35,1.25l-3.25-0.399l-1.65,0.55
			l1.1,2.3l-0.95,2.05l-0.3,2.15v0.05l0.375,1.45h-2.4l-10.375-0.1l-0.25,6.25l-1.725,0.125L226.1,422.9l-3,3.55h-3.55l-2.6,0.55
			l-1.75,1.1l-1.65-0.55l-0.95-3.95h-2.2l-2.45-1.199l-1.65-1.051l-1.6-1h-2.45l-1,1.2l-0.3,0.101l-1.3,0.3l-0.55,1.5l-0.95,1.1
			h-1.25L195.4,425.1z"/>
		<path fill-rule="evenodd" clip-rule="evenodd" fill="#c8c8c8" d="M136.025,102.025l-1.075,0.725v0.05l4.225,23.5l1.175,6.6
			l0.4,2.3l-3.25-2.75l-2.75-1.35l-22.35,2.75l1.35,0.8l-0.5,2.45l-0.85,0.8v0.05l0.55,2.15l-4.15,3.175l-4,3.075l0.025,0.025
			L104.8,146.4l-9.45-14.35l-11.65-10.9l-0.55-1.3l1.85-1.1l0.7-1.25l-0.15-3.25l-0.4-1.5l0.75-0.7l0.9-2.55l3.1-2l2.15-4l7.65-7.8
			l1.65-0.55l2-4.75l9.25-8.15l4.9-7.3l4.55-5.6l1.3,0.15l8.35-7.45l6.35-4.7L139.5,57l0.9,1.25l-0.15,0.9l-0.75,1.3l-0.2,2.35
			l1.1,1.1l-1.1,2l0.55,0.7h0.05l2.15,0.2l5.65,6.7l0.55-0.35l0.9-0.2l0.9,0.4l0.075,1.1l0.075,0.9l-0.775,0.275L149.15,75.7
			l-0.2,1.65l-0.55,1.8l1.175,2.2l0.275,0.525l-2,7.075l-0.15,6.9l-0.2,1.1l0.9,3.1l-2.9,0.55l-0.2,0.9l1.1,1.3l-0.2,0.9l-1.25,0.15
			l-4-1.1l-1.8-1.45l-2.35,0.2h-0.05L136.025,102.025z M225,168.65l1.8,0.3h0.05l1.2-0.3l0.75,0.8l1.55-0.2l1.2,1.65l1.55,0.4
			l1.35,0.65h0.05l1.25-0.2l0.5,0.85l0.5,0.9l0.35,1.8l-2.775,7.25l-0.125,0.35v0.025v0.025l2.2,3.6l-0.4,2.55l2.95,1.8l2.5,9.45
			l6.2,4l1.45-0.7l2.2,1.8l2.15,4.75l1.825,1.45l-0.35,1.075l-0.375,1.075l-3.625,4.35l-1.8,0.85l-2.925,1.35l-2.55,2.55
			l-2.325,1.55l-0.925,0.6v0.025l-0.05,0.025l-1.8,4.7l-2.9,2.2v4.35h-2.9L230.9,240l-3.6,4.7l-2.2,4l0.75,6.15l-1.45,5.1
			c-0.042,0.042-0.158,0.191-0.35,0.45c-0.116,0.17-0.266,0.387-0.45,0.65c-0.467,0.633-0.817,1.25-1.05,1.85
			c-0.037,0.166-0.07,0.366-0.1,0.6l-0.05,0.25c-0.017,0.126-0.033,0.259-0.05,0.4h-3.9l-1.325,0.55l-0.4-0.125l-0.125-0.025
			l-7.4-2.05l-3.25-2.45l-2.2-0.55l-9.8-3.55l-0.55-2.15l-9.25,0.8l-0.85,2.15l-2.15,0.3l-0.6-0.225l-0.75-0.325v-9.55l-0.575-0.125
			L178.7,246.7h-0.05l-0.25,8.45l-4.35-0.85l-4.35-9.5l0.8-1.1l0.55-7.1l-5.45-10.1l-2.725-3.3l-1.075-1.3l-0.975-0.55L158.5,220
			h-1.35l-0.8-0.3l0.25-1.65l-1.1-1.35l-6.95-21.5l3.75-0.6l0.75,0.6l10.35-0.3l0.2,0.6l4.3-0.7h0.05l0.8,0.5l1.35-1.05l1.75-0.6
			l1.65-1.55l1.15-0.7l-0.95-0.325l-0.1-0.025l1.325-0.2h0.025l-0.6-1l1-0.25l0.25-1.925v-0.025l1-0.5l-0.5-1.225l-0.3-0.775v-1.3
			l3.2-0.65l0.5-1.55h0.025l1.925,0.2l1.95-0.1h0.05l0.5-0.9l0.55-0.125l0.95-0.225l0.95,1.15h0.05l1.125-0.25l0.175-0.025
			l0.55-0.125h2l1.45,0.7l1.15,0.75h1.55h0.05v-0.025c0.054,0.119,0.121,0.278,0.2,0.475c0.2,0.533,0.45,1.117,0.75,1.75
			c0.3,0.633,0.617,1.184,0.95,1.65c0.4,0.7,0.6,1.4,0.6,2.1c0,0.733-0.017,1.117-0.05,1.15l-2.55,4.55
			c0,0.033,0.067,0.283,0.2,0.75s0.333,0.967,0.6,1.5c0.233,0.533,0.5,0.933,0.8,1.2c0.467,0.367,0.933,0.767,1.4,1.2
			s0.8,0.833,1,1.2c0.133,0.3,0.317,0.917,0.55,1.85c0.267,0.967,0.5,1.883,0.7,2.75c0.233,0.867,0.35,1.333,0.35,1.4l1.65,2.5
			c0.033,0,0.184,0.1,0.45,0.3c0.267,0.167,0.417,0.367,0.45,0.6c0.034,0.267-0.267,0.517-0.9,0.75c-0.7,0.233-1.383,0.45-2.05,0.65
			c-0.7,0.2-1.283,0.35-1.75,0.45c-0.467,0.133-0.717,0.2-0.75,0.2c-0.033-0.033-0.283-0.133-0.75-0.3c-0.5-0.133-1-0.25-1.5-0.35
			c-0.533-0.1-0.867-0.067-1,0.1c-0.233,0.3-0.5,0.583-0.8,0.85c-0.3,0.267-0.466,0.4-0.5,0.4l-3.1,1.3l3.5,9.95L171.1,224l1.1,2.35
			l-4,3.1l4-3.1l-1.1-2.35l21.85-0.4l-3.5-9.95l3.1-1.3c0.034,0,0.2-0.133,0.5-0.4c0.3-0.267,0.567-0.55,0.8-0.85
			c0.133-0.167,0.467-0.2,1-0.1c0.5,0.1,1,0.217,1.5,0.35c0.467,0.167,0.717,0.267,0.75,0.3c0.033,0,0.283-0.066,0.75-0.2
			c0.467-0.1,1.05-0.25,1.75-0.45c0.667-0.2,1.35-0.417,2.05-0.65c0.633-0.233,0.934-0.483,0.9-0.75
			c-0.033-0.233-0.183-0.434-0.45-0.6c-0.267-0.2-0.417-0.3-0.45-0.3l-1.65-2.5c0-0.067-0.117-0.534-0.35-1.4
			c-0.2-0.867-0.433-1.783-0.7-2.75c-0.233-0.933-0.417-1.55-0.55-1.85c-0.2-0.367-0.533-0.767-1-1.2s-0.933-0.833-1.4-1.2
			c-0.3-0.267-0.567-0.667-0.8-1.2c-0.267-0.533-0.467-1.033-0.6-1.5s-0.2-0.717-0.2-0.75l2.55-4.55
			c0.033-0.033,0.05-0.417,0.05-1.15c0-0.7-0.2-1.4-0.6-2.1c-0.333-0.466-0.65-1.017-0.95-1.65c-0.3-0.633-0.55-1.217-0.75-1.75
			c-0.079-0.197-0.146-0.356-0.2-0.475l0.4-1.325l2.9-1.15l2.3-1.45l2.65-5.75l1.95-0.15l2.05,0.75h0.05l1.7-0.2h0.05l0.5-0.85
			l3.2-0.4l0.675,0.5L213.4,173l2.3,0.1l2.45-0.25l1.275-0.825l1.3-0.8l1.125,1.125l0.025-0.025l0.025,0.025l2.35-0.9L225,168.65z
			 M89.1,125.6l8.25-8.85l14.2-9.95l1.95,2.85l3.65-1.7l0.75,1.5l8.25-3.45l1.9-3.65l3.3-0.75l0.2-1.15l3.05-1.75l-4.2-6.15l-1-3.45
			l0.8-3.25l4-1.9l3.85-3.85l2.7-4.25l5.95,2.5l0.2-2.85l3.225-1.05L146.9,75.5l-0.2,2.85l-5.95-2.5l-2.7,4.25l-3.85,3.85l-4,1.9
			l-0.8,3.25l1,3.45l4.2,6.15l-3.05,1.75l-0.2,1.15l-3.3,0.75l-1.9,3.65l-8.25,3.45l-0.75-1.5l-3.65,1.7l-1.95-2.85l-14.2,9.95
			L89.1,125.6z M171.05,300.1v0.051l0.275,0.8l0.825,2.45l2.7,0.3l1.35-1.65l4.65-2.45l3.3-2.45l4.6,2.2l1.1,1.35l0.05,0.35
			l0.5,3.45l-1.3,2.55c0.033,0.033,0.167,0.316,0.4,0.851c0.233,0.5,0.4,1,0.5,1.5c0.067,0.466-0.05,0.85-0.35,1.149
			c-0.267,0.3-0.517,0.584-0.75,0.851c-0.2,0.3-0.483,0.649-0.85,1.05c-0.367,0.366-0.566,0.566-0.6,0.6
			c0,0.033-0.267,0.233-0.8,0.601c-0.5,0.333-1.083,0.616-1.75,0.85c-0.6,0.134-0.933,0.267-1,0.4c-0.1,0.133,0,0.55,0.3,1.25
			c0.333,0.666,0.767,1.05,1.3,1.149c0.533,0.101,0.833,0.134,0.9,0.101c-0.033,0.033-0.1,0.25-0.2,0.649
			c-0.1,0.434-0.217,0.95-0.35,1.55c-0.133,0.567-0.267,1.101-0.4,1.601c-0.1,0.533-0.217,1.083-0.35,1.649
			c-0.1,0.601-0.184,1.117-0.25,1.551c-0.067,0.399-0.1,0.616-0.1,0.649c0-0.033,0.033-0.25,0.1-0.649
			c0.066-0.434,0.15-0.95,0.25-1.551c0.133-0.566,0.25-1.116,0.35-1.649c0.133-0.5,0.267-1.033,0.4-1.601
			c0.133-0.6,0.25-1.116,0.35-1.55c0.1-0.399,0.167-0.616,0.2-0.649c-0.066,0.033-0.367,0-0.9-0.101
			c-0.533-0.1-0.967-0.483-1.3-1.149c-0.3-0.7-0.4-1.117-0.3-1.25c0.067-0.134,0.4-0.267,1-0.4c0.667-0.233,1.25-0.517,1.75-0.85
			c0.533-0.367,0.8-0.567,0.8-0.601c0.033-0.033,0.233-0.233,0.6-0.6c0.367-0.4,0.65-0.75,0.85-1.05
			c0.233-0.267,0.483-0.551,0.75-0.851c0.3-0.3,0.417-0.684,0.35-1.149c-0.1-0.5-0.267-1-0.5-1.5
			c-0.233-0.534-0.367-0.817-0.4-0.851l1.3-2.55h2.45l0.25-7.9l2.25-0.85l8.95-3.8l-1.35-3l0.8-1.9l8-0.2l2.65-0.05l3.225,0.55
			l-0.775,2.4h0.025l-0.025,0.05l1.9-0.55l3.8-0.55l2.2,0.55l0.825-1.25l0.275-0.4l1.6-0.25l1.65-1.1l1.025-1.25l0.325-0.4
			l-1.1-1.65L228,280.2l-3.25-2.7l2.7-0.25H228l3,0.55l1.1,1.65l0.55,2.15l2.7,0.55l1.95-0.55l0.5,0.85l-0.8,1.6l0.3,3l1.35,0.85
			l1.65,0.25l0.8,1.65l0.2,1.1l-0.4,1.6l0.75,0.4l-0.45,0.4l-1.4,1.2v1.1l-0.3,0.2l-0.575,0.35H238.9l0.475,0.825l1.375,2.425
			l-0.4,1.1l-1.45,0.2l-0.35,3.95v0.05l0.575,0.925l0.175,0.325l0.15,2.75l-0.35,2.55l-1.45,1.05l-0.35,1.45v0.05l1.8-0.399
			l1.25,1.3l1.825,0.35h0.025l-0.75,1.8l0.75,2.9l0.325,0.725l0.025,0.025l-0.525,0.525L242,321.05l1.3,0.9l1.25-0.351l0.45,0.9
			l0.45,0.9l-1.1,0.35v0.95l-1.25,0.35l-0.9,2l-0.05,0.3l-0.35,2.051v2l1.3,1.25l-1.65,0.55l0.35,1.3l1.3,0.15l-1.65,1.649
			l-0.55,2.75l-0.9,1.25l-0.55,1.101l-1.65,0.55l-0.9-2l-1.25-0.2l0.35,2.9l-1.625-0.551h-0.025l-0.525,0.275l-0.525,0.275
			l-1.45-1.45l-3.3,1.1l1.45,1.8l0.2,0.75l1.8,0.75v0.9l-1.45-0.55l-1.45,1.8l-1.1-1.25h-1.1l-1.05,1.35l-4.9-0.25L213,346.2
			l-1.35-0.55l-0.55-3.551l-1.6-2.699l-3.55-1.65l-0.55-4.6l-6.25-0.301h-0.05l-4.05-0.8l-8.75,1.101l-2.45-0.851l0.8-5.45
			l-0.5-2.149l-1.95,0.8l-1.05,1.1l-2.2-3l-0.35,0.7l-0.75,1.45l0.8,1.95l1.1,1.899l-0.425,1.625l-0.375,1.375l-1.35-1.899
			l-2.45,0.8l-1.65-0.55l-2.75,0.55l-2.7-0.8l-0.8,1.05l-2.75,2.2l-0.65-0.375l-1.25-0.726l-4.1-0.8l-3,2.7l-2.2-0.25v-6l-1.85-1.7
			l-0.1-0.1v-0.05l0.15-1.15l-0.125-0.05h-0.025c-0.033-0.033-0.033-0.05,0-0.05l-4-1.45l-0.2-2.55l-1.1-1.25l-3.25-1.4l-2.55-0.25
			l-0.975-0.9l-2.475-2.35l-1.45-3.9l-0.4-1.05l0.95-2v-1.95l0.125-0.35l0.225-0.6l0.025,0.024l1.225,0.976l1.8,0.125l2.3,0.175
			l5.2-0.55l3.25-0.801l-0.025-0.05h0.025l-0.55-1.35l0.675-1.075l0.675-1.075v-0.05l0.3-2.7l1.1-2.7l1.35-4.65l2.2-1.1l3-3.25
			l1.05-2.2l4.4-3h1.05l3.3,3.3l0.55,1.9l1.6,0.8l0.2,0.7l0.9,3.1l-0.55,1.9L171.05,300.1z M81.85,470.25
			c0.066,0.267,0.033,0.483-0.1,0.65c-0.133,0.166-0.217,0.25-0.25,0.25l-0.25,1c-0.067,0-0.4,0.199-1,0.6s-1.133,0.783-1.6,1.15
			c-0.267,0.233-0.283,0.5-0.05,0.8c0.2,0.3,0.483,0.6,0.85,0.899c0.367,0.334,0.65,0.634,0.85,0.9c0.2,0.434,0.167,0.934-0.1,1.5
			c-0.3,0.566-0.55,1.066-0.75,1.5c-0.133,0.333-0.434,0.35-0.9,0.05c-0.433-0.333-0.9-0.633-1.4-0.899c-0.433-0.2-0.816-0.2-1.15,0
			c-0.3,0.166-0.733,0.483-1.3,0.949c-0.4,0.301-0.65,0.367-0.75,0.2c-0.1-0.133-0.1-0.366,0-0.7c0.1-0.3,0.25-0.533,0.45-0.699
			c0.233-0.233,0.217-0.684-0.05-1.351c-0.267-0.633-0.517-1.267-0.75-1.899c-0.167-0.667-0.2-1.284-0.1-1.851
			c0.133-0.566,0.217-0.866,0.25-0.899c0-0.034,0.1-0.233,0.3-0.601c0.167-0.366,0.367-0.8,0.6-1.3c0.2-0.5,0.35-0.917,0.45-1.25
			c0.1-0.3,0.316-0.517,0.65-0.65c0.333-0.1,0.65-0.183,0.95-0.25c0.333-0.066,0.533-0.166,0.6-0.3
			c0.067-0.233,0.233-0.416,0.5-0.55c0.267-0.167,0.633-0.116,1.1,0.15c0.3,0.166,0.517,0.35,0.65,0.55
			c0.167,0.233,0.35,0.45,0.55,0.649c0.2,0.233,0.533,0.467,1,0.7S81.817,470.017,81.85,470.25z M107.6,456.7
			c0.4-0.2,0.783-0.351,1.15-0.45c0.333-0.134,0.517-0.2,0.55-0.2c0.067,0.033,0.434,0.334,1.1,0.9c0.667,0.566,1.3,1.083,1.9,1.55
			c0.6,0.4,1.083,0.833,1.45,1.3c0.4,0.467,0.317,1.033-0.25,1.7c-0.6,0.667-0.95,1.184-1.05,1.55c-0.1,0.367,0.033,0.7,0.4,1
			c0.3,0.3,0.533,0.5,0.7,0.601c0.167,0.066,0.383,0.416,0.65,1.05c0.167,0.434,0.183,0.783,0.05,1.05
			c-0.133,0.3-0.333,0.616-0.6,0.95c-0.267,0.333-0.5,0.8-0.7,1.399c-0.267,0.934-0.517,1.534-0.75,1.801
			c-0.2,0.3-0.3,0.433-0.3,0.399c-0.033-0.033-0.15-0.35-0.35-0.95c-0.2-0.6-0.4-1.199-0.6-1.8c-0.233-0.5-0.517-0.767-0.85-0.8
			c-0.367,0-0.817,0.05-1.35,0.15c-0.533,0.1-1,0.3-1.4,0.6s-0.8,0.467-1.2,0.5c-0.4,0-0.85-0.15-1.35-0.45
			c-0.533-0.3-1.033-0.8-1.5-1.5c-0.433-0.7-0.566-1.45-0.4-2.25c0.2-0.8,0.417-1.366,0.65-1.7c0.167-0.199,0.317-0.55,0.45-1.05
			s0.25-1,0.35-1.5c0.1-0.533,0.15-0.95,0.15-1.25c0.033-0.267,0.233-0.566,0.6-0.899c0.333-0.301,0.683-0.567,1.05-0.801
			c0.333-0.233,0.517-0.35,0.55-0.35C106.9,457.083,107.2,456.9,107.6,456.7z M108.1,449.8c-0.133,0.634-0.233,1.184-0.3,1.65
			c-0.033,0.434-0.133,0.934-0.3,1.5c-0.133,0.566-0.217,0.883-0.25,0.95l-1.9,1.1c-0.367-0.033-0.684,0.116-0.95,0.45
			c-0.267,0.333-0.5,0.733-0.7,1.2c-0.233,0.466-0.45,0.866-0.65,1.199c-0.3,0.434-0.35,0.817-0.15,1.15
			c0.2,0.366,0.283,0.934,0.25,1.7c-0.066,0.566-0.267,1.2-0.6,1.899c-0.3,0.667-0.617,1.284-0.95,1.851
			c-0.3,0.566-0.467,0.95-0.5,1.149c0.033,0.2,0.167,0.567,0.4,1.101c0.233,0.566,0.5,1.116,0.8,1.649
			c0.3,0.567,0.55,0.967,0.75,1.2c0.267,0.367,0.534,0.684,0.8,0.95l0.4,0.4c0.033-0.034,0.283-0.134,0.75-0.301
			c0.433-0.166,0.767-0.199,1-0.1c0.167,0.2,0.083,0.55-0.25,1.05c-0.333,0.533-0.65,0.967-0.95,1.3
			c-0.233,0.233-0.35,0.517-0.35,0.851c0,0.333-0.017,0.866-0.05,1.6c-0.066,0.7-0.2,1.184-0.4,1.45s-0.433,0.55-0.7,0.85
			c-0.2,0.233-0.4,0.584-0.6,1.051c-0.233,0.466-0.434,0.933-0.6,1.399c-0.2,0.434-0.35,0.75-0.45,0.95
			c-0.167,0.267-0.467,0.634-0.9,1.1c-0.467,0.467-0.883,1.017-1.25,1.65c-0.267,0.366-0.567,0.483-0.9,0.35
			c-0.333-0.133-0.65-0.399-0.95-0.8c-0.267-0.399-0.433-0.8-0.5-1.2c-0.066-0.6-0.267-1.199-0.6-1.8
			c-0.333-0.633-0.716-1.033-1.15-1.2c-0.4-0.066-0.7,0.217-0.9,0.851c-0.2,0.666-0.4,1.333-0.6,2
			c-0.133,0.399-0.316,0.566-0.55,0.5c-0.267-0.066-0.6-0.233-1-0.5c-0.367-0.3-0.85-0.566-1.45-0.8c-0.533-0.233-0.7-0.567-0.5-1
			c0.2-0.4,0.517-0.801,0.95-1.2c0.4-0.367,0.65-0.634,0.75-0.8c0.066-0.233-0.017-0.601-0.25-1.101
			c-0.267-0.533-0.684-1.083-1.25-1.649c-0.333-0.334-0.45-0.551-0.35-0.65s0.3-0.184,0.6-0.25c0.3-0.1,0.55-0.3,0.75-0.6
			c0.133-0.301,0.05-0.467-0.25-0.5c-0.333-0.067-0.717-0.051-1.15,0.05c-0.434,0.133-0.75,0.283-0.95,0.45
			c-0.3,0.233-0.6,0.183-0.9-0.15c-0.3-0.333-0.5-0.684-0.6-1.05c-0.067-0.4-0.083-1.017-0.05-1.851c0.033-0.8,0.05-1.5,0.05-2.1
			c0.067-0.566,0.25-1.017,0.55-1.35c0.333-0.367,0.517-0.551,0.55-0.551c0.033-0.033,0.233-0.116,0.6-0.25
			c0.367-0.166,0.75-0.333,1.15-0.5c0.4-0.166,0.683-0.283,0.85-0.35c0.133-0.066,0.333-0.366,0.6-0.9
			c0.233-0.533,0.483-1.166,0.75-1.899c0.267-0.733,0.5-1.434,0.7-2.101c0.233-0.966,0.3-1.933,0.2-2.899
			c-0.1-0.934-0.267-1.884-0.5-2.851c-0.1-0.6,0.2-0.933,0.9-1c0.667-0.066,1.45-0.05,2.35,0.051c0.867,0.1,1.6,0.1,2.2,0
			c0.867-0.2,1.75-0.5,2.65-0.9c0.9-0.4,1.517-0.783,1.85-1.15c0.267-0.366,0.517-0.866,0.75-1.5c0.2-0.666,0.5-1.35,0.9-2.05
			c0.267-0.434,0.567-0.649,0.9-0.649c0.3,0,0.617,0.083,0.95,0.25c0.333,0.166,0.667,0.3,1,0.399
			C108.083,448.75,108.233,449.167,108.1,449.8z M116.8,445.15c-0.283,0.089-0.549,0.173-0.8,0.25c-0.433,0.166-0.667,0.25-0.7,0.25
			c0.034,0.033,0.05,0.267,0.05,0.699c0.033,0.467-0.033,0.884-0.2,1.25c-0.2,0.367-0.45,0.584-0.75,0.65
			c-0.3,0.033-0.583-0.116-0.85-0.45c-0.2-0.233-0.517-0.45-0.95-0.649c-0.4-0.167-0.783-0.317-1.15-0.45l-0.55-0.15
			c0-0.033,0.017-0.3,0.05-0.8c0.033-0.5,0.017-1.05-0.05-1.65c-0.066-0.6-0.25-1.033-0.55-1.3c-0.5-0.366-1.033-0.649-1.6-0.85
			c-0.533-0.233-0.833-0.367-0.9-0.4l-0.3-0.3c-0.2-0.2-0.566-0.45-1.1-0.75c-0.5-0.333-1-0.65-1.5-0.95
			c-0.534-0.333-1.217-0.316-2.05,0.05c-0.933,0.4-1.867,0.667-2.8,0.801c-0.934,0.1-1.6,0.316-2,0.649
			c-0.333,0.334-0.567,0.684-0.7,1.05c-0.1,0.334-0.233,0.817-0.4,1.45c-0.167,0.601-0.417,1.084-0.75,1.45
			c-0.333,0.333-0.733,0.667-1.2,1c-0.466,0.333-0.983,0.684-1.55,1.05c-0.6,0.334-1.083,0.767-1.45,1.3c-0.4,0.567-1.066,1.233-2,2
			c-0.9,0.767-1.767,1.284-2.6,1.551c-0.8,0.133-1.417,0.116-1.85-0.051c-0.434-0.166-0.65-0.267-0.65-0.3l-1.6,0.15
			c-0.033,0.033-0.167,0.267-0.4,0.7c-0.267,0.399-0.5,0.767-0.7,1.1c-0.133,0.233-0.233,0.467-0.3,0.7
			c-0.1,0.233-0.35,0.533-0.75,0.899c-0.434,0.334-0.8,0.551-1.1,0.65c-0.3,0.066-0.583,0.134-0.85,0.2
			c-0.3,0.066-0.617,0.116-0.95,0.149c-0.333,0.067-0.55,0.267-0.65,0.601c-0.066,0.399-0.15,0.8-0.25,1.2
			c-0.1,0.433-0.316,0.616-0.65,0.55c-0.367-0.066-0.7-0.134-1-0.2c-0.3-0.1-0.5-0.267-0.6-0.5c-0.066-0.233-0.066-0.467,0-0.7
			c0.067-0.2,0.184-0.566,0.35-1.1c0.2-0.566,0.317-1.25,0.35-2.05c0.066-0.801,0.017-1.534-0.15-2.2c-0.233-0.634-0.583-1.3-1.05-2
			c-0.5-0.7-0.867-1.283-1.1-1.75c-0.233-0.4-0.466-0.8-0.7-1.2c-0.267-0.4-0.2-0.934,0.2-1.6c0.4-0.767,0.567-1.684,0.5-2.75
			c-0.033-1.101-0.033-2.034,0-2.801c0.067-0.5,0.117-1.216,0.15-2.149l4.6-0.101l3.6-1.1l1.85-4.35l4.7,3.25l9.45-2.551l8,1.851
			l0.35,1.05h4l2.55,1.1l2.9-1.1l2.95,2.2l-1.85,2.55V445.15v-4.9l1.85-2.55l-2.95-2.2l-2.9,1.1l-2.55-1.1h-4l-0.35-1.05l-8-1.851
			l-9.45,2.551l-4.7-3.25l-1.85,4.35l-3.6,1.1l-4.6,0.101c0.066-0.9,0.083-1.8,0.05-2.7c0-0.866-0.067-1.5-0.2-1.9
			c-0.133-0.399-0.4-0.949-0.8-1.649c-0.4-0.733-0.767-1.4-1.1-2c-0.367-0.601-0.55-0.917-0.55-0.95
			c-0.067,0.033-0.333,0.15-0.8,0.35c-0.466,0.233-0.867,0.417-1.2,0.551c-0.3,0.066-0.817,0.116-1.55,0.149c-0.7,0-1.3,0-1.8,0
			c-0.333,0-0.75,0.017-1.25,0.05c-0.5,0-0.95-0.017-1.35-0.05c-0.433-0.066-0.7-0.184-0.8-0.35c-0.1-0.334-0.3-0.717-0.6-1.15
			s-0.633-0.583-1-0.45c-0.4,0.2-0.833,0.367-1.3,0.5c-0.5,0.134-0.767,0.2-0.8,0.2c0-0.033-0.133-0.184-0.4-0.45
			c-0.233-0.267-0.583-0.283-1.05-0.05c-0.267,0.2-0.467,0.45-0.6,0.75c-0.167,0.334-0.35,0.617-0.55,0.851
			c-0.2,0.199-0.517,0.25-0.95,0.149c-0.733-0.2-1.3-0.467-1.7-0.8c-0.433-0.366-0.7-0.684-0.8-0.95
			c-0.067-0.233-0.267-0.7-0.6-1.399c-0.3-0.7-0.6-1.367-0.9-2c-0.3-0.667-0.45-1.017-0.45-1.051l-0.2-3.05l0.2-2.3
			c0-0.033,0.033-0.267,0.1-0.7c0.033-0.399,0.05-0.75,0.05-1.05c0-0.2,0-0.5,0-0.9c0-0.399,0-0.767,0-1.1c0-0.3,0-0.467,0-0.5
			l-0.2-0.45c-0.1-0.333-0.2-1.017-0.3-2.05c-0.066-1.1-0.033-2.1,0.1-3s0.217-1.384,0.25-1.45l0.65-0.1
			c0.4-0.066,0.934-0.017,1.6,0.149c0.667,0.167,1.4,0.567,2.2,1.2c0.767,0.634,1.45,1.05,2.05,1.25
			c0.567,0.2,1.017,0.283,1.35,0.25l0.5-0.05l1.25-2.35c0.033,0.033,0.333,0.183,0.9,0.449c0.533,0.267,1.184,0.417,1.95,0.45
			c0.5-0.033,1.1-0.166,1.8-0.399c0.733-0.233,1.434-0.434,2.1-0.601c0.667-0.2,1.2-0.217,1.6-0.05c0.4,0.2,1.1,0.434,2.1,0.7
			c0.966,0.3,1.9,0.6,2.8,0.899c0.867,0.267,1.367,0.5,1.5,0.7c0.1,0.167,0.4,0.184,0.9,0.05c0.5-0.133,0.917-0.233,1.25-0.3
			c0.333-0.1,0.317-0.017-0.05,0.25c-0.567,0.5-0.867,1-0.9,1.5c-0.034,0.5-0.017,0.767,0.05,0.8c0.033,0.067,0.25,0.2,0.65,0.4
			c0.434,0.2,0.8,0.184,1.1-0.05c0.3-0.3,0.633-0.684,1-1.15s0.567-0.733,0.6-0.8l0.35-0.25c0.233-0.134,0.533-0.2,0.9-0.2
			c0.333-0.033,0.683,0.117,1.05,0.45c0.533,0.566,0.983,1,1.35,1.3c0.333,0.334,0.717,0.384,1.15,0.15
			c0.467-0.3,1.033-0.55,1.7-0.75c0.667-0.233,1.283-0.217,1.85,0.05c0.566,0.233,1.05,0.316,1.45,0.25
			c0.434-0.033,0.667-0.066,0.7-0.1c0.033,0,0.417,0.017,1.15,0.05s1.483,0,2.25-0.101c0.767-0.1,1.233-0.316,1.4-0.649
			c0.2-0.566,0.533-1.233,1-2c0.434-0.767,0.8-1.351,1.1-1.75c0.2-0.267,0.533-0.684,1-1.25c0.433-0.533,0.85-1.05,1.25-1.55
			c0.4-0.467,0.6-0.717,0.6-0.75c0.033,0,0.25-0.017,0.65-0.051c0.367,0,0.783-0.066,1.25-0.199c0.433-0.134,0.75-0.351,0.95-0.65
			c0.233-0.467,0.316-1.017,0.25-1.65c-0.067-0.666-0.15-1.233-0.25-1.699c-0.034-0.5,0.066-1,0.3-1.5s0.367-0.767,0.4-0.801
			c0-0.033,0.05-0.133,0.15-0.3c0.067-0.2,0.25-0.3,0.55-0.3c0.267,0,0.683,0.25,1.25,0.75c0.933,0.767,1.85,1.35,2.75,1.75
			c0.9,0.366,1.583,0.684,2.05,0.95c0.5,0.3,1,0.733,1.5,1.3s0.783,1.017,0.85,1.35c0,0.301,0.05,0.684,0.15,1.15
			s0.167,0.733,0.2,0.8c0,0.033,0.017,0.267,0.05,0.7c0,0.467,0,0.983,0,1.55c0,0.533-0.017,0.967-0.05,1.3
			c-0.067,0.4,0.15,0.7,0.65,0.9c0.5,0.167,1.167,0.467,2,0.9c0.8,0.399,1.5,0.699,2.1,0.899c0.566,0.2,1,0.434,1.3,0.7
			c0.267,0.233,0.65,0.417,1.15,0.55c0.5,0.167,0.934,0.45,1.3,0.851c0.233,0.267,0.5,0.416,0.8,0.449
			c0.3,0.034,0.567,0.101,0.8,0.2c0.233,0.134,0.417,0.45,0.55,0.95c0.2,0.767,0.45,1.434,0.75,2c0.3,0.6,0.583,1.233,0.85,1.9
			c0.267,0.767,0.45,1.533,0.55,2.3s0.15,1.184,0.15,1.25c0.067,0,0.317-0.101,0.75-0.3c0.467-0.233,0.817-0.483,1.05-0.75
			c0.2-0.267,0.383-0.267,0.55,0c0.2,0.267,0.3,0.683,0.3,1.25c0.033,0.5,0.066,1,0.1,1.5c0.034,0.5-0.117,1.066-0.45,1.699
			c-0.3,0.601-0.533,1.101-0.7,1.5c-0.167,0.367-0.467,0.817-0.9,1.351c-0.3,0.333-0.583,0.55-0.85,0.649
			c-0.267,0.101-0.4,0.233-0.4,0.4c-0.033,0.134,0.15,0.434,0.55,0.9c0.667,0.733,1.367,1.399,2.1,2c0.7,0.633,1.133,1.083,1.3,1.35
			c0.066,0.2,0.133,0.6,0.2,1.2c0.033,0.6,0.033,1.233,0,1.899c-0.033,0.634-0.167,1.15-0.4,1.551
			c-0.267,0.333-0.733,0.633-1.4,0.899c-0.667,0.233-1.3,0.4-1.9,0.5c-0.6,0.134-0.917,0.2-0.95,0.2c0,0.033-0.183,0.233-0.55,0.6
			c-0.333,0.367-0.867,0.7-1.6,1c-0.467,0.134-0.817,0.184-1.05,0.15c-0.267-0.033-0.5,0-0.7,0.1c-0.2,0.101-0.45,0.417-0.75,0.95
			c-0.367,0.9-0.6,1.617-0.7,2.15c-0.066,0.5-0.3,0.8-0.7,0.899c-0.333,0.067-0.75,0.184-1.25,0.351
			C117.225,445.021,117.008,445.087,116.8,445.15z"/>
		
			<path fill-rule="evenodd" clip-rule="evenodd" fill="none" stroke="#fff" stroke-width="0.5" stroke-linecap="round" stroke-linejoin="round" stroke-miterlimit="3" d="
			M392.65,193.45l5.8-10.9l0.75-2.15l3.649-0.75v-3.6l-2.95-3.65l-3.6-0.75l-0.75-2.15l-7.25-5.1l-6.55-1.45l-2.2-2.9l5.1-5.85
			l4.35-3.6l5.85-0.75l4.35-1.45l3.25-3.65l-1.05-2.5l-2.95-1.85l1.45-2.55l-4.35-9.45l1.85-3.25l-3.1-1.35l-2.75-1.95l-3,0.3
			l-2.45,0.55h-1.9l-3-0.55l-1.65,1.65h-2.45c-0.033-0.033-0.283-0.05-0.75-0.05c-0.5,0-0.967,0.2-1.4,0.6
			c-0.467,0.4-0.983,0.767-1.55,1.1c-0.566,0.333-0.867,0.5-0.9,0.5l-3.3,1.4l-2.15-1.95l-1.65,0.55l-1.9-0.25l-1.65-3l-4.1-1.65
			l-2.45-2.15l-1.1-1.95l-0.55-1.6l-2.7-0.55l-3.25-1.1v3l-4.4,3l-2.45,1.1v5.7l-2.15,1.1l-4.4-0.25l-4.35-1.95l-0.8,2.2l-2.45,2.2
			l-1.35,0.25l-2.5-1.1l-1.05-3.25l-1.65-0.85l-0.8-1.05l-1.95-0.55l-2.15-3l-1.1,4.6l-0.8,2.2l1.35,1.65l-3.55,1.6l-1.625,1.075
			L309.5,131.4h-0.025l-0.05,0.025l-0.45,0.175l-1.175,0.5l0.65,1.525l0.05,0.125l0.175,0.35l0.025,0.075l0.225,0.475l0.125,0.3
			l1.45,17.8l-1.45,4.75c-0.033,0-0.383,0.017-1.05,0.05c-0.633,0.034-1.25,0.133-1.85,0.3c-0.4,0.133-0.967,0.217-1.7,0.25
			c-0.733,0.066-1.4,0.1-2,0.1h-0.05c-0.6,0-0.917,0-0.95,0l-2.95-1.05l-0.725,0.4L296,158.6l-2.2-2.55l-1.8,0.7v4l1.05,1.85
			l-1.05,3.6l-0.7,5.45l-0.05,0.4l-1.025,1.3l-4.425,5.6l1.1,2.9l-1.1,2.55l-0.35,2.15h-1.1l0.725,2.9l0.025,0.05h-2.2l-1.45,0.35
			l0.7,2.55L280,192l-0.8-0.925l-1.025-1.2l-0.025-0.025L277.1,192l-2.95,1.45l-1.05,2.95l1.05,2.15L270.9,200l-1.8-3.25l-0.75,1.1
			l-1.1,2.9l-1.05,1.8l1.05,2.2l-1.45,2.9l0.75,4.35l1.45-0.7l-0.3,2.15l-0.05,0.4l-0.275,0.8L266.9,216 M353.35,197.4l0.4-0.65
			l3.3-1.1l1.45-0.7l34.15-1.5 M318.25,384.35l1.1-1.899l2.15-0.55l1.1,2.199l6-1.1l3.25-3.3l1.95-1.101l0.5-2.949l0.85-0.851
			l-0.3-1.649l1.4-5.15l1.9-3.3l-1.9-4.351l-0.55-3.55l2.45-2.149c0.033,0.033,0.283,0.183,0.75,0.449
			c0.467,0.233,0.833,0.301,1.1,0.2c0.267-0.133,0.1-0.717-0.5-1.75c-0.633-1.066-1.083-1.833-1.35-2.3s-0.433-0.75-0.5-0.85
			l-0.05-0.101l-1.65-0.3l-1.65-1.1l-0.8-2.15l-2.2-1.4l1.4-4.35l4.9-1.9l1.9-2.199l-1.35-5.15l-0.85-0.85l1.95-0.25l1.6,0.8
			l1.1,1.1l1.9-0.8l1.1-1.35l1.1,0.25l1.9-10.101l1.9-2.149l-0.55-4.65l1.65-3l0.25-5.45l-5.7-3l-1.65-2.7l-3-2.2l0.55-3l-2.15-3
			l5.7-4.35l6.25,0.55l3.85-3.3l-0.55-5.45l-1.1-3l3-1.6l3.8-5.75l1.95-4.35l-0.3-7.35l0.8-4.4l4.55-8.05h3.65l-2.9-4.4
			c0.033,0,0.316-0.117,0.85-0.35c0.534-0.233,1.184-0.467,1.95-0.7s1.533-0.367,2.3-0.4c0.567,0,1.317,0.033,2.25,0.1
			c0.967,0.1,1.934,0.2,2.9,0.3c1,0.067,1.833,0.15,2.5,0.25c0.667,0.067,1.017,0.1,1.05,0.1l5.1,2.15h3.65l-1.5-3.6l3.65-8
			l-1.45-2.9l5.1-1.45l3.6-5.85l0.75-2.9l-3.65-1.45l-1.45-2.15l0.75-5.85V200l0.7-4.35l-4.35-2.2 M353.35,197.4l-0.65,1.15h-0.05
			h-2.5l-4.75-2.15L315.6,212l-0.7,1.85l-2.2,2.15l1.45,1.45l3.25,5l0.75,1.15l1.8,4l0.75,2.55l1.075,1.125l1.075,1.075l-1.05,3.625
			l1.8,2.525v0.05v1.1l-1.1,4.7l-1.8,1.1l-1.1,3.975v0.025l1.1,6.5V256l-2.55,6.9l-2.55,4.35l1.8,1.8l-0.35,2.9l1.45,4.35v0.025
			v0.025l-1.8,7.25l-5.1,3.65l-0.35,4.35l4.35,4.35l0.825,2.45l0.275,0.8l1.8-0.7l1.5,2.65l0.35,0.6v0.025v0.024
			c0.101,4.104-1.299,5.786-4.2,5.05l-2.525-1.05l0.4,0.95l0.125,0.3l0.55,4.5v0.05l-0.55,0.551l0.2,1.6l-0.9,0.9l4.5,2.55
			l1.3,7.649l1.45,0.7l-0.35,3.65l-3.1,3.1l-4.35,5.45l-1.65,0.9l0.35,0.699l0.75,0.4l4.7,5.05l-0.9,3.851L310,351.9l2.5,7.449
			l-2,2.551l1.3,3.25L310,378.8l7.45,2.2l0.8,3.35 M352.65,198.55l0.7-1.15 M298.3,87.35l-0.2-5l0.8-3.3l-0.55-5.15l0.55-1.35
			l-3.8-11.45l-0.55-2.2L288,57.55l-1.65-2.2H285l-2.2-2.7l-2.7,2.45l-4.35-0.55l-3.55-3.8l-1.1-0.85v-3.8l-1.35-3.3l1.6-3.25
			l-0.8-0.55l-1.35-3l-1.9,1.65L267,40.9l-1.35,0.3l-0.85-0.55l-1.35,2.15l-0.25,1.65l-3.3,1.9l-0.8,3l-3.8,0.3l-0.55,1.9H252
			l-1.35,3.55l-6.55,0.8l-4.1,3l-3.25-2.45l0.8-1.65l-0.25-1.1l-4.35,0.3l-5.2-1.1l-1.1-1.9l-2.15-2.2h-0.05l-1.35,0.3l-0.05-0.05
			l-0.175,0.05l0.525,1.05l-0.025,0.025L223.4,50.2l-1.25,1.2l-0.4,0.4l-1.1,1.65l-0.8,2.175l-0.8,2.175v4.65h-1.4l-3.8-0.8
			l-1.9,1.9l-1.35,1.9l-1.95,1.9l0.55,4.35l-0.5,3.45l-0.05,0.4l-5.7,1.9l-6.25,3.25h-0.05l-0.8,0.075L193.4,81v2.95V84l-0.55,1.05
			v1.35v0.05l-1.6,0.25l-1.05,1.625l-1.7,2.725v1.9l0.55,2.75l1.35,2.45l-0.55,2.15l1.9,2.4l1.4,1.7l0.75,0.325l1.95,0.775l1.35,3.8
			v0.025v0.025l-1.9,2.45l-0.55,3.55l0.3,5.4v0.05l-2.25,0.375l-0.75,0.125l-0.35,0.95l0.1,0.4l0.6,2.15l0.85,1.925l0.25,0.575
			l1.45,2.2l1.1,4l0.325,0.5l6.525,10l0.05,0.05l5.8-5.45l1.1-2.55l3.25-2.2l3.65-1.45l1.8,7.65l4.8,0.15
			c0.066-0.034,0.617-0.284,1.65-0.75c1.033-0.467,2.267-1.067,3.7-1.8c1.433-0.733,2.767-1.483,4-2.25c1.2-0.8,2-1.5,2.4-2.1
			c0.7-1.233,1.283-2.183,1.75-2.85c0.433-0.633,0.667-0.95,0.7-0.95l-1.75-7.3c0.034,0,0.55-0.117,1.55-0.35
			c1-0.267,2.183-0.55,3.55-0.85c1.4-0.3,2.717-0.583,3.95-0.85c1.233-0.233,2.133-0.35,2.7-0.35c0.733,0,1.617,0.034,2.65,0.1
			c1,0.033,1.9,0.083,2.7,0.15c0.767,0.067,1.184,0.1,1.25,0.1c0-0.033,0.017-0.4,0.05-1.1c0.066-0.7,0.15-1.533,0.25-2.5
			c0.1-0.966,0.233-1.867,0.4-2.7c0.2-0.833,0.417-1.383,0.65-1.65c0.367-0.367,0.8-0.767,1.3-1.2c0.467-0.433,0.883-0.8,1.25-1.1
			c0.367-0.3,0.567-0.467,0.6-0.5l8.25-11.15V92.8l10.15,1.8l1.5,6.9l2.5-1.45l3.65-1.45l2.55-8l1.45-3.25H298.3z M309.525,131.375
			l-2.175-2.125l-1.65-5.45l0.3-3.3l-2.2-6l-1.35-2.45l0.25-1.65l3-5.45l1.1-0.25l0.55-1.1l-3-3.25l-1.65-6.85l-1.6-1.35l-1.4-2.45
			l-1.35-1.1l-0.05-1.25 M219,46.9l-3.25-0.55l-3.8-1.9l-3-3.85l-1.4,1.1l-1.9,0.85l-0.8,1.9l-1.9-2.45l-2.45,1.6l-2.2-0.55
			l-2.2-0.25l-2.15-0.55l-2.2-1.35l-6.55-5.2v-1.6l1.4-1.4l-1.65-2.15l-1.65,1.05h-3.55l-2.15,0.55l-1.9-1.6l-1.1-1.4l-1.4-0.8
			l-1.35,1.35l-2.15,0.55L168.3,30l-2.15,0.55l-4.9,2.45l-2.45-1.9h-1.4l-1.35-1.65l-1.35-0.8l0.25-1.4h-4.1l-2.7-1.6l-4.35-1.95
			l-1.1,2.2l0.55,3l-1.65,19.9l-0.8,5.45l-2.2,2.45l-0.15,0.45l-0.4,0.2l1.45-0.4l0.9,1.3l-0.15,0.9l-0.75,1.3l-0.15,2.35l1.05,1.1
			l-1.05,2l0.55,0.7l2.15,0.2l5.65,6.7l0.55-0.35l0.9-0.2l0.9,0.4l0.1,1.1l0.1,0.9l-0.825,0.275L149.15,75.7l-0.2,1.65l-0.55,1.8
			l1.175,2.2l0.275,0.5v0.025l-2,7.075l-0.15,6.9l-0.2,1.1l0.9,3.1l-2.9,0.55l-0.15,0.9l1.05,1.25v0.05l-0.15,0.9h-0.05l-1.25,0.15
			l-4-1.1l-1.8-1.45l-2.35,0.2l-0.775,0.525l-1.075,0.725v0.05l4.225,23.5 M222.875,49.1l-0.025-0.05L219,46.9 M223.05,49.05h0.05
			l0.35-0.05L223.05,49.05L219,46.9 M224.45,48.8l-1,0.2 M193.4,81v-0.05l2.45-0.175 M192.85,85.05l0.55-1.1 M190.2,88.325l1-1.625
			l1.65-0.3 M208.65,67.35l1.9-1.95l1.4-1.9l1.9-1.9l3.8,0.8H219v-4.6l0.85-2.175 M196.65,80.7l6.3-3.3l5.7-1.9l0.05-0.35
			 M222.15,51.4l1.225-1.225 M218.55,140.05l2.55,6.15l1.075,1.825l1.125,1.825l-2.9,2.9v1.8v0.05l7.6,1.45l2.2,3.6l4.35,3.65
			l-0.35,2.55l0.75,1.45l0.35,3.65l0.2,0.325l0.25,0.425l0.5,0.9l0.5,0.9l0.35,1.8l-2.775,7.25l-0.125,0.375v0.025l2.2,3.6
			l-0.4,2.55l2.95,1.8l2.5,9.45l6.2,4l1.45-0.7l2.2,1.8l2.15,4.75l1.825,1.45h0.025l-0.375,1.075l-0.375,1.075l-3.625,4.35
			l-0.025,0.05l0.15,0.3l0.5,1.55l0.1,0.275v0.025l3.6,0.4h0.05l0.7,2.15l2.9-0.7l2.2,1.45v-4.75l3.6-2.15l2.2-0.75 M193.9,104.725
			l-0.8-0.325l-1.35-1.7 M191.8,122.65l-0.15-0.45l0.325-0.85l-1.875,1.3l-1.6,0.85l-1.1,1.35l-2.2-1.65l-3.25,2.2l-2.45,3.25
			l-1.65-0.25l-0.8,1.9l-0.3,4.1l1.65,1.05l-0.025,0.025l0.025,0.025l-1.35,1.9H177l-2.4,0.25l-1.1-0.075l-3-0.175l-4.1-1.65
			l-0.55,0.8l-1.35-0.8v3l-2.7,1.9l-2.5,0.3h-1.6h-0.05l-2.45-0.55l-1.025-0.525l-1.025-0.525V140l-1.1,1.1l0.225,1.825l0.325,2.375
			l-0.4,2.15l-0.7,1.1l-1.175,1.1l-1.175,1.1l-0.55,1.1h-1.3l0.2,1.05l1.1,1.1v2.2l0.15,1.25l-0.3,0.25l0.2,0.9h0.025l1.425-0.2
			v0.05l-0.1,0.75h0.05l0.6-0.1v0.05l-0.45,2.25l-0.275,0.2 M178.925,179.925l0.625,1.425l-0.1,0.3h0.05h0.025l1.925,0.2l1.95-0.1
			l0.5-0.9l0.6-0.125l0.95-0.225l0.95,1.15h0.05l1.125-0.25l0.175-0.025l0.5-0.125h0.05h2l1.45,0.7l1.15,0.75h1.55l0.025-0.1
			 M194.55,182.4l0.3-1.05l2.9-1.15l2.3-1.45l2.7-5.8l1.95-0.1l2.05,0.75h0.05l1.7-0.2l0.55-0.85l3.2-0.4l0.675,0.5l0.425,0.3
			l2.3,0.1l2.5-0.2l1.275-0.825l1.275-0.825l0.025,0.025l1.125,1.125l0.025-0.025l2.375-0.925l0.7-2.75H225l-0.75,2.8l-2.35,0.9
			l-0.025-0.025 M226.8,168.95h0.05l1.2-0.3l0.75,0.8l1.55-0.2l1.2,1.65l1.55,0.4l1.35,0.65h0.05l1.25-0.25 M191.975,121.35
			l0.075-0.05 M192.8,121.175l2.25-0.425 M194.75,115.35v-0.05l0.55-3.55l1.9-2.425 M178.375,135.475l-1.625-1.075 M154.9,165.575
			l0.15-0.475l5.1,0.1l1.45,1.15l2,0.725l0.65,0.225l0.75,2.05h0.025l2.875-0.4l0.1,2.8l0.9,1.55l0.85,0.45l0.7,0.35l0.95,0.2
			l0.025,0.05l3.175,6.8h0.05l2.05-0.1l1.05-0.625 M178.2,180.175l0.65-0.375l0.025,0.05l0.05,0.075 M196.375,134L196,133.45
			l-1.1-3.95l-1.45-2.2l-0.2-0.575 M167.9,168.95l-2.85,0.45l-0.025-0.05 M176.1,185.925l-0.3-0.725v-0.05v-1.3l3.2-0.65l0.5-1.55
			 M178.875,179.85l-0.45,0.25l-1.725,0.95 M171.425,174.35l-0.925-0.2l-0.75-0.4 M174.65,191.4l-1.15,0.7l-1.65,1.55l-1.75,0.6
			l-1.35,1.05l-0.8-0.5h-0.05l-4.3,0.7l-0.2-0.6l-10.35,0.3l-0.75-0.6l-3.75,0.6l6.95,21.5l1.1,1.35l-0.25,1.65l0.8,0.3h1.35
			l2.325,1.35l0.975,0.55l1.075,1.3l2.725,3.3l5.45,10.1l-0.55,7.1l-0.8,1.1l4.35,9.5l4.35,0.85l0.25-8.45h0.05l0.525,0.125
			l0.575,0.125v9.55l0.75,0.325l0.6,0.225l2.15-0.3l0.85-2.15l9.25-0.8l0.55,2.15l9.8,3.55l2.2,0.55l3.25,2.45l7.4,2.05l0.125,0.025
			l0.4,0.125l1.325-0.55h3.9c0.017-0.141,0.033-0.274,0.05-0.4l0.05-0.25c0.03-0.234,0.063-0.435,0.1-0.6
			c0.233-0.6,0.583-1.217,1.05-1.85c0.184-0.263,0.334-0.479,0.45-0.65c0.192-0.258,0.309-0.408,0.35-0.45l1.45-5.1l-0.75-6.15
			l2.2-4l3.6-4.7l1.85-3.65h2.9V232l2.9-2.2l1.8-4.7l0.05-0.025v-0.025l0.925-0.6l2.325-1.55l2.55-2.55l2.925-1.35l1.8-0.85
			 M175.6,187.675v-0.025l1-0.5l-0.5-1.225 M175.35,189.6l0.2-1.9l0.05-0.025L175.35,189.6z M173.7,191.075l0.95,0.325l-1.05-0.3
			L173.7,191.075z M174.925,190.85l-1.325,0.2l0.1,0.025 M174.35,189.85l0.6,1h-0.025L174.35,189.85l1-0.25 M175.8,185.15l0.3,0.775
			 M194.5,182.675v0.025h-0.05 M194.5,182.675l0.4-1.325l2.9-1.15l2.3-1.45l2.65-5.75l1.95-0.15 M184.5,180.725l-0.55,0.125
			l-0.5,0.9h-0.05 M188.3,181.25l-0.55,0.125 M235.5,171.275l-0.25-0.375l-0.35-3.6l-0.75-1.5l0.4-2.5 M235.75,171.75l-1.25,0.2
			 M220.4,154.55h-0.05v-1.8l2.9-2.9l-1.075-1.825 M218.15,172.85l-2.45,0.25l-2.3-0.1l-0.475-0.35 M220.725,171.225l-1.3,0.8
			 M209.05,172.55l-0.5,0.85h-0.05 M234.2,182.925V182.9l0.125-0.35 M308.45,133.625l-0.175-0.375l-0.525-1.15h0.025h0.025l-0.2-0.4
			h0.025l1.8-0.275 M307.625,131.7l0.175,0.35l1.175-0.45 M308.925,134.65l-0.2-0.4l-0.025-0.075l-0.2-0.425 M308.275,133.25
			l-0.5-1.15 M281.45,189.85l1.45-0.4h2.175 M278.175,189.875l0.025-0.025l1,1.225 M297.775,157.55l0.775-0.45l2.9,1.1
			 M290.225,173.35l1.025-1.35l0.05-0.35 M140.4,58.25L139.5,57l-1.45,0.35l-6.35,4.7l-8.35,7.45l-1.3-0.15l-4.55,5.6l-4.9,7.3
			l-9.25,8.15l-2,4.75L99.7,95.7l-7.65,7.8l-2.15,4l-3.1,2l-0.9,2.55l-0.75,0.7l0.4,1.5l0.15,3.25l-0.7,1.25l-1.85,1.1l0.55,1.3
			l11.65,10.9l9.45,14.35l0.025-0.025l-0.025-0.025l4-3.075l4.15-3.175l-0.55-2.15v-0.05l0.85-0.8l0.5-2.45l-1.35-0.8l22.35-2.75
			l2.75,1.35l3.25,2.75l-0.4-2.3l-1.175-6.6 M138.6,56.7l-0.55,0.65 M139.9,66.6h-0.05l-0.55-0.7l1.1-2l-1.1-1.1l0.2-2.35
			 M150.125,74.45l-0.075-1.1 M149.425,75.625l0.775-0.275l-0.075-0.9 M149.85,81.875l-0.275-0.525 M146.2,103.7l0.2-0.9l-1.1-1.3
			l0.2-0.9 M136.025,102.025l0.725-0.525h0.05 M140.35,132.9l0.45,2.3l1.2,0.7l2.35,1.35l0.075,0.025l1.425,0.325l2.5,0.05h0.475
			h0.125l1.2,0.275l0.4,0.075h0.05l1.125-0.2 M153.15,138.55v0.05l-0.025,0.225l0.025,0.525 M150.6,138l1.15-0.15l0.65-0.1l0.7,0.8
			l0.05,0.05 M152.4,137.7l-0.675,0.1 M150.15,137.925l-1.325-0.275 M145.7,137.65h-0.05l-1.25-0.35l-0.05-0.05l-0.15-0.05l0.15,0.1
			l-0.1-0.05l-0.3-0.2l-1.05-0.6l-2.15-1.25 M144.425,137.275l0.025,0.025l1.25,0.35h2.65 M144.2,137.2l-0.25-0.15 M153.125,138.825
			l-0.025-0.275 M153.05,139.3l0.075-0.475 M152.05,141.1l1.05-1.1v-0.65 M154.175,139.875l1.075,0.525l2.45,0.55 M152.2,147.45
			l0.35-2.15l-0.275-2.375 M142,135.9l0.9,0.55 M104.825,146.375l0.35,0.7l0.675,1.225l0.5,1.275l3.05,7.675l0.275,0.95l1.375,4.55
			l0.05,0.8l0.05,0.2l0.15,0.6v0.05l0.3,6.8l0.8,1.05h0.025l2.325-1h0.05l1.05,0.2c0.066,0.066,0.233,0.283,0.5,0.65
			c0.267,0.4,0.283,0.667,0.05,0.8c-0.2,0.067-0.5,0.15-0.9,0.25c-0.4,0.133-0.767,0.25-1.1,0.35
			c-0.333,0.067-0.517,0.117-0.55,0.15v0.15c-0.037,0.091-0.087,0.208-0.15,0.35c-0.133,0.3-0.25,0.633-0.35,1
			c-0.133,0.367-0.2,0.65-0.2,0.85c0.03,0.182,0.197,0.507,0.5,0.975c0.035,0.036,0.068,0.078,0.1,0.125
			c0.4,0.5,0.783,0.983,1.15,1.45c0.367,0.467,0.567,0.717,0.6,0.75l2.85,2.4l0.05,0.05l0.85,0.9c0.033,0.033,0.333,0.434,0.9,1.2
			c0.567,0.767,1.283,1.75,2.15,2.95c0.867,1.2,1.75,2.45,2.65,3.75c0.864,1.248,1.63,2.406,2.3,3.475l0.05,0.075
			c0.833,1.3,1.317,2.233,1.45,2.8l0.55,1.85l0.95,3.125l4.575,15.325l0.125,0.4l0.1,1h0.05v0.025l3.5,1.875l1.9-1.1l2.45-0.8
			l4.1-1.35h1.1l0.25,1.1l1.1,1.35l2.45,0.55l0.8-0.275l0.8-0.275h0.05h2.7l0.25-1.65l-1.05-1.35l-1.1-2.75l-5.975-19l-0.025-0.05
			l-4.35-0.3l-0.05-0.15l-2.15-6.9h0.05l2.825-0.125l2.825-0.175l-0.25-1.65l-1.075-4l-0.025-0.05l-2.7,0.55l-3.25-0.3h-0.05
			l0.55-5.925V175.8l-2.4,0.525l-0.05,0.025l0.3-1.3V175l-1.075-0.55H137.5l-1.1-1.35l0.25-1.65l1.375-1.875l0.025-0.025l-1.65-0.3
			l-1.9,1.4l-3.55,0.25l-1.85-0.525l-0.05-0.025l-0.3-1.6v-0.05h-2.4h-0.05l0.1-3.95l0.9-2.75l0.75-0.9l0.9-0.2l2,0.9l0.05,0.05
			 M105.175,147.075L104.8,146.4 M106.35,149.575l4,11.175l-0.675-2.55 M111.3,164.4l-0.15-0.65 M114.8,171.25l0.025,0.025
			l-2.4,0.975 M111.1,163.55l0.5,7.65 M111.05,162.75l-0.7-2l0.75,2.8 M148.2,157.8l0.55-0.35l-0.2-1.25V154l-1.05-1.1
			 M147.3,151.85v-0.05h1.25l0.55-1.05l1.225-1.1 M141.525,151.275l0.525,0.525v0.05l0.15,3.6h0.05l0.85,0.2h1.65l2.2,0.55
			l0.025,0.05l1.225,1.55 M146.975,156.25l-2.175-0.55h-1.65l-0.9-0.2v-0.05 M148.45,157.7l-0.2,0.15l-0.05-0.05 M150.1,158.45
			l-1.4,0.2l-0.025-0.05 M150.65,159.15l-0.6,0.1v-0.05 M147.425,161.35l0.025-0.05l0.45,1.4l0.15,0.45l1.85-1.55 M147.9,162.7
			l-0.475-1.35l-0.025-0.05l-2.15,2.25l-1.3-1.8l-0.05-0.05l-0.6,0.4l-0.85,2.8l-1.45,0.95l-0.1,1l0.2,0.25l0.65,0.8l1.45,0.2l1-0.3
			l0.025,0.05l0.175,0.275l0.15,0.275l0.3,2.2l0.7,0.3l1.45-1.15l1.35,0.1l0.05,0.05l1.3,1.6l0.95,0.1l0.9,0.55l1.65,0.3l1.05-0.3
			l-0.25-2l-0.15-1.05v-0.05l1.05-3.45v-0.025 M148.4,169.9l-1.35-0.1l-1.45,1.15l-0.75-0.3l-0.3-2.2l-0.15-0.325 M144.225,167.85
			l-1.025,0.3l-1.45-0.2l-0.65-0.85 M154,170.15l0.3,2.05l-1.05,0.3l-1.65-0.3l-0.95-0.55l-0.9-0.1l-0.05-0.05 M163.6,167.075
			l-2-0.675l-1.45-1.15l-5.05-0.1l-0.15,0.5l-1.1,3.45 M139.3,148.7l0.9,0.6l0.75,1.45l0.575,0.525 M132.8,157.475l-0.05-0.025
			l-0.15-3.65l0.55-0.7l0.35-2.2h2.9l1.25-0.55v-1.8l1.1-0.2l0.55,0.35l-0.5-0.3l-1.1,0.2v1.8l-1.25,0.55h-2.9l-0.4,2.2l-0.5,0.7
			L132.8,157.475l3.075,2.325l1.275,0.95l-0.55,1.45v1.45v0.05l-0.7,0.9l-1.45,0.15h-0.05l-3.4-2.9l-2-0.9l-0.9,0.2l-0.75,0.9
			l-0.9,2.7l-0.1,3.95 M136.6,162.2l0.5-1.45l-1.225-0.95 M128.75,168.75h0.05l0.3,1.625 M134.45,164.75l1.4-0.2l0.75-0.9
			 M138.025,169.575l0.075,0.025l-1.4,1.9l-0.25,1.65l1.075,1.3 M140.75,175.875l0.05-0.025l-0.55,5.95 M138.6,175.05l-0.25,1.275
			 M146.225,181.6h0.025l1.1,4.05l0.25,1.65l-2.875,0.125 M141.9,187.55l1.65,4.95l0.45,1.95 M148.425,194.95h0.025l0.1,0.25
			 M142.05,151.85l-0.525-0.575 M153.6,219.7l-0.85,0.275 M162.875,223.2l-1.125-1.3l-0.925-0.55 M157.15,220l-0.85-0.3
			 M129.3,198.75c0.092,0.333,0.192,0.683,0.3,1.05c0.222,0.754,0.438,1.446,0.65,2.075 M135.05,218.6l0.05,0.025l0.325,2.05
			l1.375,8.925l1.45,19.25l-0.2,3.45l1.65,3.3l0.7,11.1l0.1,0.35l1.2,3.8v14.55l-2.9,10.15v4.95l-2.225,4.25l-0.325,0.625v0.025
			l0.025,0.024l1.225,0.976l1.8,0.125l2.3,0.125l5.2-0.551l3.225-0.8h0.025l-0.55-1.35l0.675-1.075l0.675-1.125l0.3-2.7V299l1.1-2.7
			l1.35-4.65l2.2-1.1l3-3.25l1.05-2.2l4.4-3h0.025h1.025l3.3,3.3l0.55,1.9l1.6,0.8l0.2,0.75l0.9,3.1l-0.55,1.9l-0.25,6.25
			l0.275,0.851l0.825,2.45l2.7,0.25l1.35-1.65l4.65-2.45l3.3-2.45l4.6,2.2l1.1,1.351l0.05,0.399l0.5,3.45 M134.825,217.2l0.225,1.4
			 M135.425,220.675l-0.375-2.075 M142.95,218.6l-2.45,0.85l-1.9,1.05 M170.95,288.85l-0.2-0.7l-1.6-0.8l-0.55-1.9l-3.3-3.3h-1.05
			l-4.4,3l-1.05,2.2l-3,3.25l-2.2,1.1l-1.35,4.65l-1.1,2.7 M150.85,301.75v0.05l-0.675,1.075 M150.025,305.3l0.025,0.05l-3.25,0.801
			l-5.2,0.55l-2.3-0.175 M140.25,318.5l2.35,0.35l3.25,1.301l1.3,1.25l-1.1-1.25l-3.25-1.4L140.25,318.5z M135.9,306.3l0.125-0.3
			l0.225-0.6 M136.025,306l-0.125,0.35v1.95l-0.95,2l0.4,1.05l1.45,3.9l2.475,2.35l0.975,0.9 M135.35,311.35l1.25,3.851l2.675,2.399
			 M108.45,316.3h24.7c0.067,0.066,0.533,0.45,1.4,1.15c0.9,0.7,1.95,1.399,3.15,2.1c1.167,0.7,2.2,1.066,3.1,1.101
			c0.034-0.034,0.3-0.15,0.8-0.351c0.467-0.2,0.983-0.233,1.55-0.1c0.567,0.1,1,0.616,1.3,1.55c0,0.033,0.183,0.316,0.55,0.85
			c0.367,0.534,0.883,1.117,1.55,1.75c0.667,0.601,1.417,1.051,2.25,1.351c0.832,0.288,1.69,0.237,2.575-0.15
			c0.004-0.039,0.004-0.072,0-0.1h-0.025c-0.033-0.033-0.033-0.05,0-0.05l-4-1.45l-0.2-2.55 M145.55,325.55l-2-2.55v-1.45
			l-1.3,0.351l-2.35,1.5l-2.35,0.5l-1.65-0.7l-1.25-1.101l-2-0.899l-0.95,3.1l-1.8,0.351l0.55,2.35l0.7,1.1l1.5,11.801l-1.1,6.199
			l-0.4,7.45l3.65,1.25l4.9,0.2l1.85-1.65l0.35-2.35l2.2,1.65l2.7-1.45l1.1,2.55l2.7-0.2l2.55,1.65l2.55,2.7l6.2,0.899l1.45-0.55
			l0.7,2.4l1.3-2.2l2.35-0.75l0.35,1.1l1.45,0.4l0.55-2l2,0.899l1.1,0.351l2.55-0.9l1.65,1.8l2.35-1.1l1.65,1.1l0.5-3.25l2,1.45
			l3.85-0.2l0.025,0.025l1.225,2.525l1.85-0.2l3.25,0.75l0.55,0.75l0.2,2.35l0.875-0.875l-0.025-0.075l0.1-0.1l0.1-0.25l2.45-2.7
			 M151.375,325.55c0.045-0.016,0.087-0.032,0.125-0.05l-0.125-0.05 M151.375,325.55c0.017,0.106,0.025,0.256,0.025,0.45
			c0,0.333-0.066,0.65-0.2,0.95l0.25-0.15l-0.1-0.1v-0.05l0.15-1.15 M151.2,326.95c-0.1,0.333-0.35,0.483-0.75,0.45
			c-0.467-0.034-1.083-0.2-1.85-0.5c-0.767-0.301-1.467-0.584-2.1-0.851c-0.6-0.3-0.917-0.467-0.95-0.5 M150.45,327.4
			c-0.467-0.101-1.083-0.284-1.85-0.551c-0.767-0.3-1.467-0.583-2.1-0.85c-0.6-0.267-0.917-0.417-0.95-0.45 M151.45,326.8l1.85,1.7
			v6l2.2,0.25l3-2.7l4.1,0.8l1.25,0.726l0.65,0.375l2.75-2.2l0.8-1.05l2.7,0.8l2.75-0.55l1.65,0.55l2.45-0.8l1.35,1.899l0.375-1.375
			l0.425-1.625l-1.1-1.899l-0.8-1.95l0.75-1.45l0.35-0.7l2.2,3l1.05-1.1l1.95-0.8l0.5,2.149l-0.8,5.45l2.45,0.851l8.75-1.101
			l4.05,0.8h0.05l6.25,0.301l0.55,4.6l3.55,1.65l1.6,2.699l0.55,3.551l1.35,0.55l7.95,1.399l4.9,0.25l1.05-1.35h1.1l1.1,1.25
			l1.45-1.8l1.45,0.55v-0.9l-1.8-0.75l-0.2-0.75l-1.45-1.8l3.3-1.1l1.45,1.45l0.525-0.275l0.525-0.275h0.025L236,342.65l-0.35-2.9
			l1.25,0.2l0.9,2l1.65-0.55L240,340.3l0.9-1.25l0.55-2.75l1.65-1.649l-1.3-0.15l-0.35-1.3l1.65-0.55l-1.3-1.25v-2l0.35-2.051
			l0.05-0.3l0.9-2l1.25-0.35v-0.95l1.1-0.35l-0.45-0.9l-0.45-0.9l-1.25,0.351l-1.3-0.9l0.025-0.024l0.525-0.525l-0.025-0.025
			l-0.325-0.725l-0.75-2.9l0.75-1.8h-0.025l-1.825-0.35l-1.25-1.3l-1.8,0.399v-0.05l0.35-1.45l1.45-1.05l0.35-2.55l-0.15-2.75
			l-0.175-0.325l-0.575-0.925v-0.05l0.35-3.95l1.45-0.2l0.4-1.1l-1.375-2.425l-0.475-0.825h0.025l0.575-0.35l0.3-0.2v-1.1l1.4-1.2
			l0.45-0.4l-0.75-0.4l0.4-1.6l-0.2-1.1l-0.8-1.65l-1.65-0.25l-1.35-0.85l-0.3-3l0.8-1.6l-0.5-0.85l-1.95,0.55l-2.7-0.55l-0.55-2.15
			l-1.1-1.65l-3-0.55h-0.55l-2.7,0.25l3.25,2.7l1.35,2.75l1.1,1.65l-0.325,0.4l-1.025,1.25l-1.65,1.1l-1.6,0.25l-0.275,0.4
			l-0.825,1.25l-2.2-0.55l-3.8,0.55l-1.9,0.55l0.025-0.05h-0.025l0.775-2.4l-3.225-0.55l-2.65,0.05l-8,0.2l-0.8,1.9l1.35,3
			l-8.95,3.8l-2.25,0.85l-0.25,7.9h-2.45 M73.7,437.45c0.066-0.9,0.083-1.8,0.05-2.7c0-0.866-0.067-1.5-0.2-1.9
			c-0.133-0.399-0.4-0.949-0.8-1.649c-0.4-0.733-0.767-1.4-1.1-2c-0.367-0.601-0.55-0.917-0.55-0.95
			c-0.067,0.033-0.333,0.15-0.8,0.35c-0.466,0.233-0.867,0.417-1.2,0.551c-0.3,0.066-0.817,0.116-1.55,0.149c-0.7,0-1.3,0-1.8,0
			c-0.333,0-0.75,0.017-1.25,0.05c-0.5,0-0.95-0.017-1.35-0.05c-0.433-0.066-0.7-0.184-0.8-0.35c-0.1-0.334-0.3-0.717-0.6-1.15
			s-0.633-0.583-1-0.45c-0.4,0.2-0.833,0.367-1.3,0.5c-0.5,0.134-0.767,0.2-0.8,0.2c0-0.033-0.133-0.184-0.4-0.45
			c-0.233-0.267-0.583-0.283-1.05-0.05c-0.267,0.2-0.467,0.45-0.6,0.75c-0.167,0.334-0.35,0.617-0.55,0.851
			c-0.2,0.199-0.517,0.25-0.95,0.149c-0.733-0.2-1.3-0.467-1.7-0.8c-0.433-0.366-0.7-0.684-0.8-0.95
			c-0.067-0.233-0.267-0.7-0.6-1.399c-0.3-0.7-0.6-1.367-0.9-2c-0.3-0.667-0.45-1.017-0.45-1.051l-0.2-3.05l0.2-2.3
			c0-0.033,0.033-0.267,0.1-0.7c0.033-0.399,0.05-0.75,0.05-1.05c0-0.2,0-0.5,0-0.9c0-0.399,0-0.767,0-1.1c0-0.3,0-0.467,0-0.5
			l-0.2-0.45c-0.1-0.333-0.2-1.017-0.3-2.05c-0.066-1.1-0.033-2.1,0.1-3s0.217-1.384,0.25-1.45l0.65-0.1
			c0.4-0.066,0.934-0.017,1.6,0.149c0.667,0.167,1.4,0.567,2.2,1.2c0.767,0.634,1.45,1.05,2.05,1.25
			c0.567,0.2,1.017,0.283,1.35,0.25l0.5-0.05l1.25-2.35c0.033,0.033,0.333,0.183,0.9,0.449c0.533,0.267,1.184,0.417,1.95,0.45
			c0.5-0.033,1.1-0.166,1.8-0.399c0.733-0.233,1.434-0.434,2.1-0.601c0.667-0.2,1.2-0.217,1.6-0.05c0.4,0.2,1.1,0.434,2.1,0.7
			c0.966,0.3,1.9,0.6,2.8,0.899c0.867,0.267,1.367,0.5,1.5,0.7c0.1,0.167,0.4,0.184,0.9,0.05c0.5-0.133,0.917-0.233,1.25-0.3
			c0.333-0.1,0.317-0.017-0.05,0.25c-0.567,0.5-0.867,1-0.9,1.5c-0.034,0.5-0.017,0.767,0.05,0.8c0.033,0.067,0.25,0.2,0.65,0.4
			c0.434,0.2,0.8,0.184,1.1-0.05c0.3-0.3,0.633-0.684,1-1.15s0.567-0.733,0.6-0.8l0.35-0.25c0.233-0.134,0.533-0.2,0.9-0.2
			c0.333-0.033,0.683,0.117,1.05,0.45c0.533,0.566,0.983,1,1.35,1.3c0.333,0.334,0.717,0.384,1.15,0.15
			c0.467-0.3,1.033-0.55,1.7-0.75c0.667-0.233,1.283-0.217,1.85,0.05c0.566,0.233,1.05,0.316,1.45,0.25
			c0.434-0.033,0.667-0.066,0.7-0.1c0.033,0,0.417,0.017,1.15,0.05s1.483,0,2.25-0.101c0.767-0.1,1.233-0.316,1.4-0.649
			c0.2-0.566,0.533-1.233,1-2c0.434-0.767,0.8-1.351,1.1-1.75c0.2-0.267,0.533-0.684,1-1.25c0.433-0.533,0.85-1.05,1.25-1.55
			c0.4-0.467,0.6-0.717,0.6-0.75c0.033,0,0.25-0.017,0.65-0.051c0.367,0,0.783-0.066,1.25-0.199c0.433-0.134,0.75-0.351,0.95-0.65
			c0.233-0.467,0.316-1.017,0.25-1.65c-0.067-0.666-0.15-1.233-0.25-1.699c-0.034-0.5,0.066-1,0.3-1.5s0.367-0.767,0.4-0.801
			c0-0.033,0.05-0.133,0.15-0.3c0.067-0.2,0.25-0.3,0.55-0.3c0.267,0,0.683,0.25,1.25,0.75c0.933,0.767,1.85,1.35,2.75,1.75
			c0.9,0.366,1.583,0.684,2.05,0.95c0.5,0.3,1,0.733,1.5,1.3s0.783,1.017,0.85,1.35c0,0.301,0.05,0.684,0.15,1.15
			s0.167,0.733,0.2,0.8c0,0.033,0.017,0.267,0.05,0.7c0,0.467,0,0.983,0,1.55c0,0.533-0.017,0.967-0.05,1.3
			c-0.067,0.4,0.15,0.7,0.65,0.9c0.5,0.167,1.167,0.467,2,0.9c0.8,0.399,1.5,0.699,2.1,0.899c0.566,0.2,1,0.434,1.3,0.7
			c0.267,0.233,0.65,0.417,1.15,0.55c0.5,0.167,0.934,0.45,1.3,0.851c0.233,0.267,0.5,0.416,0.8,0.449
			c0.3,0.034,0.567,0.101,0.8,0.2c0.233,0.134,0.417,0.45,0.55,0.95c0.2,0.767,0.45,1.434,0.75,2c0.3,0.6,0.583,1.233,0.85,1.9
			c0.267,0.767,0.45,1.533,0.55,2.3s0.15,1.184,0.15,1.25c0.067,0,0.317-0.101,0.75-0.3c0.467-0.233,0.817-0.483,1.05-0.75
			c0.2-0.267,0.383-0.267,0.55,0c0.2,0.267,0.3,0.683,0.3,1.25c0.033,0.5,0.066,1,0.1,1.5c0.034,0.5-0.117,1.066-0.45,1.699
			c-0.3,0.601-0.533,1.101-0.7,1.5c-0.167,0.367-0.467,0.817-0.9,1.351c-0.3,0.333-0.583,0.55-0.85,0.649
			c-0.267,0.101-0.4,0.233-0.4,0.4c-0.033,0.134,0.15,0.434,0.55,0.9c0.667,0.733,1.367,1.399,2.1,2c0.7,0.633,1.133,1.083,1.3,1.35
			c0.066,0.2,0.133,0.6,0.2,1.2c0.033,0.6,0.033,1.233,0,1.899c-0.033,0.634-0.167,1.15-0.4,1.551
			c-0.267,0.333-0.733,0.633-1.4,0.899c-0.667,0.233-1.3,0.4-1.9,0.5c-0.6,0.134-0.917,0.2-0.95,0.2c0,0.033-0.183,0.233-0.55,0.6
			c-0.333,0.367-0.867,0.7-1.6,1c-0.467,0.134-0.817,0.184-1.05,0.15c-0.267-0.033-0.5,0-0.7,0.1c-0.2,0.101-0.45,0.417-0.75,0.95
			c-0.367,0.9-0.6,1.617-0.7,2.15c-0.066,0.5-0.3,0.8-0.7,0.899c-0.333,0.067-0.75,0.184-1.25,0.351
			c-0.226,0.07-0.442,0.137-0.65,0.2 M321.775,231.275L320.7,230.2l-0.75-2.55l-1.8-4l-0.75-1.2 M323.6,238.55l-1.8-2.55v-0.025
			 M267.375,214.65l0.275-0.85l0.05-0.35 M251.55,220.05l0.1,0.3 M251.55,220.05l-0.65-1.85l-1.775,0.8 M254.925,212.725l0.35-1.075
			 M256,222.9l-0.75-2.15 M244.475,298.125l0.275-0.525l0.35-1.65l-1.25-0.9l-0.95-1.25l-0.35-1.65l-0.45,0.35l-0.45,0.4
			 M318.5,276.325L317.05,272v-0.05 M241.325,224.45l-0.925,0.625 M180.55,256.825l-0.8-0.325v-9.55l-0.525-0.125 M193.1,296.6
			v-0.05l2.25-0.8 M225.85,254.85v0.05l-1.45,5.1c-0.04,0.02-0.157,0.153-0.35,0.4 M222.2,267.95l3.25,1.1l2.2-1.45l2.55,1.45
			l1.65,4.1l-2.35,2.9l-0.95,1.2l2.45,0.55 M222.25,266l0.025-0.775c0.004-0.158,0.013-0.316,0.025-0.475v-0.05
			c0-0.2,0.017-0.383,0.05-0.55c0,0.2-0.017,0.4-0.05,0.6v0.1c-0.01,0.125-0.019,0.25-0.025,0.375 M217.125,264.7H217.1
			l-0.375-0.125 M222.25,266v0.15c-0.021,0.104-0.038,0.212-0.05,0.325v1.425 M222.25,266c-0.022,0.176-0.039,0.334-0.05,0.475
			 M216.875,289.75l1.875-0.55l3.8-0.55l2.2,0.55l0.825-1.2 M211.75,286.85l2.65-0.1l3.25,0.55l-0.025,0.05 M237.3,281.6l0.55,0.85
			l-0.85,1.6 M224.75,277.5l2.7-0.3h1.1l0.95-1.15 M228.55,277.25H228 M225.85,287.6l1.6-0.3l1.65-1.1l1.025-1.2 M240.9,292.5
			l0.75,0.35l0.45-0.35 M241.2,293.3l-1.35,1.2v1.1l-0.35,0.2 M238.925,296.15l0.45,0.825 M238.55,304.65l0.575,0.975 M237.3,313.75
			l1.8-0.35l1.25,1.25l1.85,0.35l-0.025,0.05 M242.2,319.75l0.35,0.7l-0.025,0.024 M242.15,327.35l-0.3,2.051v2l1.25,1.25
			 M230.2,344.85l1.8,0.7v0.05 M234.375,342.1l-0.55,0.275 M241.45,333.2l0.4,1.25l1.25,0.2 M189.9,301.05l-0.05-0.35l-1.1-1.35
			l-4.6-2.2l-3.3,2.45l-4.65,2.45l-1.35,1.65l-2.7-0.3 M171.325,300.95l-0.275-0.8V300.1 M178.6,324.3l-0.7,1.45l0.8,1.9l1.1,1.899
			l-0.475,1.675 M201.85,363.35l-0.3-2.699l-0.55-1.9h-1.35l-0.675,0.4l-0.675,0.399l-1.325,1.601L196.2,362.1l-0.2,0.2l-0.1,0.075
			l-0.05,0.025l0.125,0.55l0.425,1.7L196,377.9l-1.5,48.1l0.9-0.9 M206.3,421.35l1.65,1.051l2.45,1.199h2.2l0.95,3.95l1.65,0.55
			l1.75-1.1l2.6-0.55h3.55l3-3.55l2.225-0.125l1.725-0.125l0.25-6.25l10.375,0.1h2.4l-0.375-1.45V415l0.3-2.15l0.95-2.05l-1.1-2.3
			l1.65-0.55l3.25,0.399l1.35-1.25l1.8,0.15l1.2,2.6l2.525,3.301l1.025,1.3l0.2-0.675l0.2-0.676l0.15-1.75l1.9-0.399l-0.95-6.55
			l0.95-3.7l-0.25-1.2l0.8,0.1l-0.1-1l-0.95-1.6l-1.25,0.15l-1.8-2.15l0.7-1.45l-1.25-3.3l0.7-0.4l0.9-0.5l0.2-1.25h1.65
			l-0.55-2.949l0.65-0.95l0.45-0.65v-1.1l-0.85-0.55l-1.35-1.101l-1.75-3.649l-1.15-0.9l-1.2-0.9l-1.35-2.149l-0.075-0.476
			l-0.325-1.875L249.8,368l-1.5-2.2l-2.625-1.125l-0.925-0.375l-0.4-0.075l-2.85-0.475l-1.9-1.2l-2.2,0.25l-0.7-1.2l-1.5-1.8
			l0.15-1.5l-1.75-0.399l-4.9,2.199l-2.05-0.55l-1.575,2.625l-0.625,1.075l-1.2,0.4L222,363.1l-0.65-0.75l-0.975-1.125l-0.025-0.024
			l-1.6,1.6l-0.55,2.45l-3.3,0.85H213l-1.35,0.551v2.699l-2.15,0.301h-0.05v-1.101l-1.6-0.8l-2.2-0.3l1.1-2.2l-2.45-2.45l-2.45,0.55
			 M198.975,359.15l0.725-0.45h1.35l0.55,1.95l0.25,2.699 M195.85,362.25l0.05,0.125 M195.85,362.4l-0.1,0.1 M195.675,362.675
			l0.675,1.925l-0.375-1.649 M196,362.3l0.975-1.149 M223.2,358.6h0.75l1.65-1.649l-0.15-1.75l-1.25-0.851l0.4-0.8l0.45-2.05
			l0.4-0.95l0.55-0.7l-0.15-2 M222.6,358.625l0.35,0.125l0.25-0.15h-0.6V358.625z M223.25,363.65l1.2-0.45l0.625-1.025
			 M235.35,358.3l-0.1,1.5l1.5,1.8l0.65,1.2 M206.75,365.25l-1.05,2.2l2.15,0.25l1.65,0.85v1.101 M220.375,361.225l0.025-0.024
			l0.95,1.1l0.7,0.8l0.95-2.6l-0.4-1.875 M221.35,362.3v0.05 M320.35,301.775L320,301.15 M318.5,298.5l-1.8,0.75l-0.275-0.85
			 M268.9,307.4v-0.051c0-0.433,0.117-0.716,0.35-0.85c0.167-0.033,0.6-0.083,1.3-0.15c0.458-0.041,0.934-0.083,1.425-0.125
			l0.925-0.074c0.867-0.067,1.617-0.117,2.25-0.15s0.967-0.05,1-0.05l5.1,1.1l3.3,1.45l3.45-0.9l3.25-2.55l2.75,1.65l5.25,0.149
			l1.65-1.05l4,3.25l3.05-2.35v-0.05l0.2-1.601l1.3-0.35l2.15,0.55l-0.55,3.6l0.35,2.75l0.95,2.15l1.05,0.95l0.05-0.05
			 M314.025,306.75l-0.425-0.95h0.025 M268.875,308.1c-0.011-0.107-0.002-0.341,0.025-0.699c0,0.435,0,0.667,0,0.699H268.875
			l0.025,0.051l-2.2-0.2l-2.15,2.55l-0.9-1.25l-1.45,2.35l-1.3-0.75v1.101l0.9,1.05l0.075,0.45L262,314.1v0.051
			c-0.033,0-0.183,0.1-0.45,0.3c-0.2,0.125-0.4,0.233-0.6,0.325l-0.2,0.074c-0.3,0.034-0.55-0.066-0.75-0.3l-0.175-0.175
			c-0.117-0.126-0.175-0.201-0.175-0.225l-1.45-0.75l-2.2,0.75c-0.007,0.088-0.023,0.305-0.05,0.649l-0.1,1
			c-0.016,0.132-0.032,0.266-0.05,0.4l-0.075,0.675c-0.021,0.146-0.045,0.271-0.075,0.375c-0.133,0.267-0.283,0.45-0.45,0.55
			c-0.162,0.097-0.262,0.147-0.3,0.15c-0.033-0.033-0.3-0.233-0.8-0.601c-0.314-0.251-0.605-0.484-0.875-0.699l-0.475-0.351
			l-0.05-0.05l-0.575-0.325c-0.232-0.124-0.507-0.266-0.825-0.425c-0.633-0.333-1.25-0.634-1.85-0.9
			c-0.567-0.3-0.867-0.449-0.9-0.449L246,310.7l-0.7-1.65l0.175-0.325L246,307.75l-0.9-6.35l-0.9-2.7v-0.025v-0.025l0.275-0.525
			l-0.275,0.55 M257.55,384.2c0.633,0.033,1.133,0.083,1.5,0.149l0.6,0.101l2.7,1.8l2-0.7l0.75-3.649l-1.25-2.2l6.35-3.25l0.9-1.8
			l-3.25-6.2l1.45-1.45l-0.55-3.45l0.55-0.899l-0.75-2.95l4.2-1.45l-0.2-2l5.65-0.5l3.25,0.7l6.75-7.45l-4.55-6.9l-6-7.449
			L271.1,315l0.7-1.6l1.85-0.2l2.55,1.649l-0.75-8.35 M246,307.75v0.05l-0.525,0.925 M261.875,313.45l-0.075-0.4l-0.9-1.1
			 M242.025,321.025l1.275,0.925l1.25-0.4l0.45,0.95 M244.35,364.225l0.45,0.075l0.875,0.375 M255.8,380.8l2.2,1.65
			 M250.275,372.725l0.075,0.426l1.4,2.199l1.15,0.9 M255.8,388.1l-0.15,1.25l-0.95,0.5 M312.2,405.25l0.05,0.9l0.25-15.25l3-3
			l2.75-0.801v-2.75 M302.4,411.875l3-2.525l6.55-4l0.25-0.1 M194.475,428.95l-0.025,0.95l8.45,71.149l-0.8,1.9l-3.3,1.1l-8.7-2.5
			h-2.75l-2.15,0.851l-1.9,1.899l-0.85,1.351l1.65,1.649l0.8,1.351l0.3,2.199c0.033,0.034,0.267,0.034,0.7,0
			c0.434-0.033,0.75-0.316,0.95-0.85c0.133-0.5,0.2-0.816,0.2-0.95l0.05-0.1l1.9-0.3l2.75,1.899l0.8,1.95h-2.2L189,513l0.85,2.5
			l-0.3,3.25l4.1-0.55l1.35,2.45h2.75l0.25-2.2l1.9,0.3l0.55,2.2l-0.25,0.8l0.55,0.8l1.35,1.4l2.7,0.5l2.2-1.601l1.65-2.199l2.7-2.2
			l2.75-1.351l-0.3-1.6l3-3l-0.55-2.75l3.55-1.9l1.35,0.551l1.1-2.2l3.85-1.65l4.9-10.6l5.45-2.75l2.15-2.15l1.65,0.25l2.45-4.899
			l2.45-1.65l2.75-6.55l2.15-1.351l0.85-3.8c-0.033,0-0.2-0.083-0.5-0.25c-0.3-0.166-0.566-0.383-0.8-0.649
			c-0.2-0.301-0.2-0.65,0-1.051c0.233-0.399,0.85-0.85,1.85-1.35c1.333-0.6,2.283-1.05,2.85-1.35c0.6-0.267,0.95-0.417,1.05-0.45
			l0.15-0.101l2.2-2.449h2.45l4.1-3.551l0.55-1.35v-2.2l0.55-5.149l2.15-3.801v-2.75l4.35-1.899l3.3,0.8l5.45-0.55l1.9,0.85l3-2.75
			l1.35,1.351l2.75-0.801l2.45,1.351l1.9-1.601h1.65l3.25-5.449l5.75-3.301l1.6-3l0.3-7.35l2.15-4.65l1.65-2.699l-2.2-1.9l-0.5-1.9
			l2.15-1.649l2.45-3.3v-0.9 M287.95,409.375v-0.025l-5.8,1.801l-9.45,1.449l-3.8-2.425l-1.3-0.825h-1.8l-1.35-4.524l-0.85-2.726
			l-1.45-2.949l-3.25,0.5l-0.25-0.051v0.051l-0.8-0.15 M287.95,409.375l0.05-0.025l1.8,4.351l1.225,1.375l2.025,2.274l2.55-1.1
			l3.4-2.025l2.05-1.274l1.35-1.075L301.05,413l-2.05,1.225 M291.025,415.075l-1.275-1.375l-1.8-4.325 M257.6,397h0.05l0.9,1.6
			l0.15,1h0.25l3.25-0.5l1.45,2.95l0.8,2.775 M267.6,409.35h0.05l1.25,0.825 M243.075,416.5l0.025,0.05l-2.425-0.05 M255.85,413.775
			l-0.2,0.725l-1.025-1.35 M228.325,422.775l-2.225,0.175l-3,3.55h-3.55l-2.6,0.5 M200.95,421.65l0.3-0.101l1-1.2h2.45l1.6,1
			 M200.95,421.65l-1.3,0.35l-0.55,1.5l-0.95,1.05h-1.25l-1.5,0.55l-0.9,0.95l-0.025,2.9 M198.15,424.55l0.95-1.1l0.55-1.5l1.3-0.3
			 M194.35,426.2l0.15-0.15V426l0.05-5.3L194.35,426.2l0.125,2.75 M73.7,437.45c-0.034,0.934-0.083,1.649-0.15,2.149
			c-0.033,0.767-0.033,1.7,0,2.801c0.067,1.066-0.1,1.983-0.5,2.75c-0.4,0.666-0.466,1.199-0.2,1.6c0.233,0.4,0.467,0.8,0.7,1.2
			c0.233,0.467,0.6,1.05,1.1,1.75c0.467,0.7,0.817,1.366,1.05,2c0.167,0.666,0.216,1.399,0.15,2.2c-0.033,0.8-0.15,1.483-0.35,2.05
			c-0.167,0.533-0.283,0.899-0.35,1.1c-0.066,0.233-0.066,0.467,0,0.7c0.1,0.233,0.3,0.4,0.6,0.5c0.3,0.066,0.633,0.134,1,0.2
			c0.333,0.066,0.55-0.117,0.65-0.55c0.1-0.4,0.184-0.801,0.25-1.2c0.1-0.334,0.317-0.533,0.65-0.601
			c0.333-0.033,0.65-0.083,0.95-0.149c0.267-0.066,0.55-0.134,0.85-0.2c0.3-0.1,0.667-0.316,1.1-0.65
			c0.4-0.366,0.65-0.666,0.75-0.899c0.066-0.233,0.167-0.467,0.3-0.7c0.2-0.333,0.433-0.7,0.7-1.1c0.233-0.434,0.367-0.667,0.4-0.7
			l1.6-0.15c0,0.033,0.216,0.134,0.65,0.3c0.433,0.167,1.05,0.184,1.85,0.051c0.833-0.267,1.7-0.784,2.6-1.551
			c0.934-0.767,1.6-1.433,2-2c0.367-0.533,0.85-0.966,1.45-1.3c0.567-0.366,1.083-0.717,1.55-1.05c0.467-0.333,0.867-0.667,1.2-1
			c0.333-0.366,0.583-0.85,0.75-1.45c0.167-0.633,0.3-1.116,0.4-1.45c0.133-0.366,0.367-0.716,0.7-1.05
			c0.4-0.333,1.066-0.55,2-0.649c0.933-0.134,1.867-0.4,2.8-0.801c0.833-0.366,1.517-0.383,2.05-0.05c0.5,0.3,1,0.617,1.5,0.95
			c0.533,0.3,0.9,0.55,1.1,0.75l0.3,0.3c0.066,0.033,0.367,0.167,0.9,0.4c0.567,0.2,1.1,0.483,1.6,0.85
			c0.3,0.267,0.483,0.7,0.55,1.3c0.067,0.601,0.083,1.15,0.05,1.65c-0.034,0.5-0.05,0.767-0.05,0.8l0.55,0.15
			c0.367,0.133,0.75,0.283,1.15,0.45c0.433,0.199,0.75,0.416,0.95,0.649c0.267,0.334,0.55,0.483,0.85,0.45
			c0.3-0.066,0.55-0.283,0.75-0.65c0.167-0.366,0.233-0.783,0.2-1.25c0-0.433-0.017-0.666-0.05-0.699c0.034,0,0.267-0.084,0.7-0.25
			c0.25-0.077,0.517-0.161,0.8-0.25 M108.1,449.8c0.133-0.633-0.017-1.05-0.45-1.25c-0.333-0.1-0.667-0.233-1-0.399
			c-0.333-0.167-0.65-0.25-0.95-0.25c-0.333,0-0.633,0.216-0.9,0.649c-0.4,0.7-0.7,1.384-0.9,2.05
			c-0.233,0.634-0.483,1.134-0.75,1.5c-0.333,0.367-0.95,0.75-1.85,1.15c-0.9,0.4-1.783,0.7-2.65,0.9c-0.6,0.1-1.333,0.1-2.2,0
			c-0.9-0.101-1.684-0.117-2.35-0.051c-0.7,0.067-1,0.4-0.9,1c0.233,0.967,0.4,1.917,0.5,2.851c0.1,0.967,0.033,1.934-0.2,2.899
			c-0.2,0.667-0.433,1.367-0.7,2.101c-0.267,0.733-0.517,1.366-0.75,1.899c-0.267,0.534-0.466,0.834-0.6,0.9
			c-0.167,0.066-0.45,0.184-0.85,0.35c-0.4,0.167-0.783,0.334-1.15,0.5c-0.367,0.134-0.567,0.217-0.6,0.25
			c-0.033,0-0.217,0.184-0.55,0.551c-0.3,0.333-0.483,0.783-0.55,1.35c0,0.6-0.017,1.3-0.05,2.1c-0.034,0.834-0.017,1.45,0.05,1.851
			c0.1,0.366,0.3,0.717,0.6,1.05c0.3,0.333,0.6,0.384,0.9,0.15c0.2-0.167,0.517-0.317,0.95-0.45c0.433-0.101,0.816-0.117,1.15-0.05
			c0.3,0.033,0.383,0.199,0.25,0.5c-0.2,0.3-0.45,0.5-0.75,0.6c-0.3,0.066-0.5,0.15-0.6,0.25s0.017,0.316,0.35,0.65
			c0.566,0.566,0.983,1.116,1.25,1.649c0.233,0.5,0.316,0.867,0.25,1.101c-0.1,0.166-0.35,0.433-0.75,0.8
			c-0.434,0.399-0.75,0.8-0.95,1.2c-0.2,0.433-0.033,0.767,0.5,1c0.6,0.233,1.083,0.5,1.45,0.8c0.4,0.267,0.733,0.434,1,0.5
			c0.233,0.066,0.417-0.101,0.55-0.5c0.2-0.667,0.4-1.334,0.6-2c0.2-0.634,0.5-0.917,0.9-0.851c0.434,0.167,0.817,0.567,1.15,1.2
			c0.333,0.601,0.534,1.2,0.6,1.8c0.067,0.4,0.233,0.801,0.5,1.2c0.3,0.4,0.617,0.667,0.95,0.8c0.333,0.134,0.633,0.017,0.9-0.35
			c0.367-0.634,0.783-1.184,1.25-1.65c0.433-0.466,0.733-0.833,0.9-1.1c0.1-0.2,0.25-0.517,0.45-0.95
			c0.167-0.467,0.367-0.934,0.6-1.399c0.2-0.467,0.4-0.817,0.6-1.051c0.267-0.3,0.5-0.583,0.7-0.85s0.333-0.75,0.4-1.45
			c0.033-0.733,0.05-1.267,0.05-1.6c0-0.334,0.117-0.617,0.35-0.851c0.3-0.333,0.617-0.767,0.95-1.3c0.333-0.5,0.417-0.85,0.25-1.05
			c-0.233-0.1-0.567-0.066-1,0.1c-0.467,0.167-0.717,0.267-0.75,0.301l-0.4-0.4c-0.267-0.267-0.533-0.583-0.8-0.95
			c-0.2-0.233-0.45-0.633-0.75-1.2c-0.3-0.533-0.566-1.083-0.8-1.649c-0.233-0.533-0.367-0.9-0.4-1.101
			c0.033-0.199,0.2-0.583,0.5-1.149c0.333-0.566,0.65-1.184,0.95-1.851c0.333-0.699,0.534-1.333,0.6-1.899
			c0.033-0.767-0.05-1.334-0.25-1.7c-0.2-0.333-0.15-0.717,0.15-1.15c0.2-0.333,0.417-0.733,0.65-1.199
			c0.2-0.467,0.433-0.867,0.7-1.2c0.267-0.334,0.583-0.483,0.95-0.45l1.9-1.1c0.033-0.067,0.117-0.384,0.25-0.95
			c0.167-0.566,0.267-1.066,0.3-1.5C107.867,450.983,107.967,450.434,108.1,449.8z M107.6,456.7c-0.4,0.2-0.7,0.383-0.9,0.55
			c-0.034,0-0.217,0.116-0.55,0.35c-0.367,0.233-0.717,0.5-1.05,0.801c-0.367,0.333-0.567,0.633-0.6,0.899
			c0,0.3-0.05,0.717-0.15,1.25c-0.1,0.5-0.217,1-0.35,1.5s-0.283,0.851-0.45,1.05c-0.233,0.334-0.45,0.9-0.65,1.7
			c-0.167,0.8-0.033,1.55,0.4,2.25c0.467,0.7,0.967,1.2,1.5,1.5c0.5,0.3,0.95,0.45,1.35,0.45c0.4-0.033,0.8-0.2,1.2-0.5
			s0.867-0.5,1.4-0.6c0.533-0.101,0.983-0.15,1.35-0.15c0.333,0.033,0.617,0.3,0.85,0.8c0.2,0.601,0.4,1.2,0.6,1.8
			c0.2,0.601,0.317,0.917,0.35,0.95c0,0.033,0.1-0.1,0.3-0.399c0.233-0.267,0.483-0.867,0.75-1.801c0.2-0.6,0.433-1.066,0.7-1.399
			c0.267-0.334,0.467-0.65,0.6-0.95c0.133-0.267,0.117-0.616-0.05-1.05c-0.267-0.634-0.483-0.983-0.65-1.05
			c-0.167-0.101-0.4-0.301-0.7-0.601c-0.367-0.3-0.5-0.633-0.4-1c0.1-0.366,0.45-0.883,1.05-1.55c0.567-0.667,0.65-1.233,0.25-1.7
			c-0.367-0.467-0.85-0.899-1.45-1.3c-0.6-0.467-1.233-0.983-1.9-1.55c-0.667-0.566-1.033-0.867-1.1-0.9
			c-0.033,0-0.216,0.066-0.55,0.2C108.383,456.35,108,456.5,107.6,456.7z M81.85,470.25c-0.033-0.233-0.283-0.467-0.75-0.7
			s-0.8-0.467-1-0.7c-0.2-0.199-0.383-0.416-0.55-0.649c-0.133-0.2-0.35-0.384-0.65-0.55c-0.467-0.267-0.833-0.317-1.1-0.15
			c-0.267,0.134-0.433,0.316-0.5,0.55c-0.066,0.134-0.267,0.233-0.6,0.3c-0.3,0.067-0.617,0.15-0.95,0.25
			c-0.333,0.134-0.55,0.351-0.65,0.65c-0.1,0.333-0.25,0.75-0.45,1.25c-0.233,0.5-0.433,0.934-0.6,1.3
			c-0.2,0.367-0.3,0.566-0.3,0.601c-0.033,0.033-0.117,0.333-0.25,0.899c-0.1,0.566-0.067,1.184,0.1,1.851
			c0.233,0.633,0.483,1.267,0.75,1.899c0.267,0.667,0.283,1.117,0.05,1.351c-0.2,0.166-0.35,0.399-0.45,0.699
			c-0.1,0.334-0.1,0.567,0,0.7c0.1,0.167,0.35,0.101,0.75-0.2c0.566-0.466,1-0.783,1.3-0.949c0.333-0.2,0.717-0.2,1.15,0
			c0.5,0.267,0.967,0.566,1.4,0.899c0.467,0.3,0.767,0.283,0.9-0.05c0.2-0.434,0.45-0.934,0.75-1.5c0.267-0.566,0.3-1.066,0.1-1.5
			c-0.2-0.267-0.483-0.566-0.85-0.9c-0.367-0.3-0.65-0.6-0.85-0.899c-0.233-0.3-0.217-0.566,0.05-0.8c0.467-0.367,1-0.75,1.6-1.15
			s0.933-0.6,1-0.6l0.25-1c0.033,0,0.117-0.084,0.25-0.25C81.883,470.733,81.917,470.517,81.85,470.25z M196.35,364.6l-1.8,56.101"
			/>
		
			<path fill-rule="evenodd" clip-rule="evenodd" fill="none" stroke="#aaa" stroke-width="0.7" stroke-linecap="round" stroke-linejoin="round" stroke-miterlimit="3" d="
			M266.9,216l0.4,4h0.7l6.35,1.6l1.1,1.1l4,0.9l-0.2,2l-8.35,3.1l-2.7,2.2l2.35,7.8l-2,4.9l-12.35,4.9l5.8,17.8l-1.8,8.4l1.65,4.35
			l1.45-2.55l2.5,2.55l2.4-2.2l5.8,5.8l-0.35,1.1l0.9,4.55l3.45,2.2l10.9,16 M139.175,126.3l8.475-3.95l3.65-1.3l-0.15-1.35
			l-1.55-0.2l-0.75-1.35L154,117h1.55v-1.35l0.95,0.4l3.85-3.65l1.15-13.45l3.05,3.1l10.4-10.95l8.05-0.4l5.5,0.35 M173.5,137.575
			l5.2,6.625l-5.5,0.55l-1.05-1.65l-2.75,1.4l-0.8,2.15l-2.2-0.8l-2.45,7.1l3.55,3.25l3.25,0.55l0.75,5.65
			c0.033,0,0.233,0.1,0.6,0.3c0.367,0.2,0.783,0.4,1.25,0.6c0.433,0.233,0.783,0.35,1.05,0.35s0.767,0.033,1.5,0.1
			c0.7,0.067,1.383,0.117,2.05,0.15c0.7,0.067,1.15,0.1,1.35,0.1c0.233,0,0.733-0.083,1.5-0.25c0.8-0.133,1.55-0.267,2.25-0.4
			c0.733-0.167,1.117-0.25,1.15-0.25l-0.35,4l-3.65,1.45l6.95,8.55l-8.225,2.825 M194.475,182.6l0.075-0.2 M149.925,161.6
			l0.725,0.35l0.55-1.1l1.15-1.55l1.15,0.9l0.7,0.05l-0.85,0.95l1.65-0.1l-1.05,0.9l-0.05,1.5l1,2.075l0.05,0.075l-0.05-0.05l-5-4
			H149.925z M177.75,180.425l0.45-0.25 M178.425,180.1l-0.225,0.075 M178.425,180.1l0.5-0.175 M194.5,182.675
			c0.054,0.119,0.121,0.278,0.2,0.475c0.2,0.533,0.45,1.117,0.75,1.75c0.3,0.633,0.617,1.184,0.95,1.65c0.4,0.7,0.6,1.4,0.6,2.1
			c0,0.733-0.017,1.117-0.05,1.15l-2.55,4.55c0,0.033,0.067,0.283,0.2,0.75s0.333,0.967,0.6,1.5c0.233,0.533,0.5,0.933,0.8,1.2
			c0.467,0.367,0.933,0.767,1.4,1.2s0.8,0.833,1,1.2c0.133,0.3,0.317,0.917,0.55,1.85c0.267,0.967,0.5,1.883,0.7,2.75
			c0.233,0.867,0.35,1.333,0.35,1.4l1.65,2.5c0.033,0,0.184,0.1,0.45,0.3c0.267,0.167,0.417,0.367,0.45,0.6
			c0.034,0.267-0.267,0.517-0.9,0.75c-0.7,0.233-1.383,0.45-2.05,0.65c-0.7,0.2-1.283,0.35-1.75,0.45
			c-0.467,0.133-0.717,0.2-0.75,0.2c-0.033-0.033-0.283-0.133-0.75-0.3c-0.5-0.133-1-0.25-1.5-0.35c-0.533-0.1-0.867-0.067-1,0.1
			c-0.233,0.3-0.5,0.583-0.8,0.85c-0.3,0.267-0.466,0.4-0.5,0.4l-3.1,1.3l3.5,9.95L171.1,224l1.1,2.35l-4,3.1 M194.475,182.6
			c0.008,0.026,0.017,0.051,0.025,0.075 M89.1,125.6l8.25-8.85l14.2-9.95l1.95,2.85l3.65-1.7l0.75,1.5l8.25-3.45l1.9-3.65l3.3-0.75
			l0.2-1.15l3.05-1.75l-4.2-6.15l-1-3.45l0.8-3.25l4-1.9l3.85-3.85l2.7-4.25l5.95,2.5l0.2-2.85l3.225-1.05h0.025 M128.05,161.1
			l-0.65-1.1l-3.8-2.45l-3-0.8l-5.45-7.9l-3.25-1.9l-1.9,0.8l-1.2-4.475 M137.85,174.9c0.033,0.033-0.05,0.2-0.25,0.5
			c-0.167,0.3-0.567,0.567-1.2,0.8c-0.467,0.133-1.217,0.25-2.25,0.35c-1.033,0.1-1.983,0.184-2.85,0.25
			c-0.9,0.067-1.383,0.1-1.45,0.1h-8.5l-4.7,3.025 M135.9,168.95l1.45-2l3.25-0.2 M140.75,175.8c0.067,0,0.383,0.05,0.95,0.15
			c0.533,0.066,1.033,0.1,1.5,0.1c0.466,0,0.633-0.083,0.5-0.25c-0.267-0.3-0.483-0.667-0.65-1.1c-0.167-0.434-0.25-0.667-0.25-0.7
			l-0.35-1.65l-0.75-1.25v-1.3l2.4-0.35 M140.5,267.05h5.6l5.05-2.7l-0.55-0.9l1.3-1.65l2.9-2.2l2.55,0.2l2.35,1.25l8-3.8l1.25,1.45
			c0.033,0,0.25-0.05,0.65-0.15c0.367-0.133,0.7-0.333,1-0.6c0.2-0.2,0.333-0.517,0.4-0.95c0.067-0.467,0.117-0.9,0.15-1.3
			c0-0.4,0-0.617,0-0.65l2.9-0.75 M164.275,282.1c0.221-0.521,0.396-1.122,0.525-1.8c0.1-0.7,0.233-1.5,0.4-2.4
			c0.133-0.9,0.233-1.683,0.3-2.35c0.1-0.9,0.25-1.55,0.45-1.95c0.167-0.4,0.267-0.583,0.3-0.55l1.05-1.3c0-0.033-0.05-0.367-0.15-1
			c-0.1-0.6-0.167-1.233-0.2-1.9c-0.034-0.633,0.033-1,0.2-1.1c0.2-0.067,0.55-0.217,1.05-0.45c0.466-0.233,0.917-0.45,1.35-0.65
			c0.434-0.2,0.667-0.316,0.7-0.35l2-1.25l2.9-0.95l0.15-1.6l-1.25-1.65l2.55-0.2l-1.45-5.6 M140.5,267.05h-30.95 M187.725,357.375
			c0.043-0.065,0.168-0.29,0.375-0.675c0.233-0.434,0.267-0.816,0.1-1.15c-0.133-0.233-0.383-0.684-0.75-1.35
			c-0.367-0.7-0.717-1.367-1.05-2c-0.333-0.601-0.517-0.934-0.55-1l-0.35-5.05 M190.4,304.5l-1.3,2.55
			c0.033,0.033,0.167,0.316,0.4,0.851c0.233,0.5,0.4,1,0.5,1.5c0.067,0.466-0.05,0.85-0.35,1.149c-0.267,0.3-0.517,0.584-0.75,0.851
			c-0.2,0.3-0.483,0.649-0.85,1.05c-0.367,0.366-0.566,0.566-0.6,0.6c0,0.033-0.267,0.233-0.8,0.601
			c-0.5,0.333-1.083,0.616-1.75,0.85c-0.6,0.134-0.933,0.267-1,0.4c-0.1,0.133,0,0.55,0.3,1.25c0.333,0.666,0.767,1.05,1.3,1.149
			c0.533,0.101,0.833,0.134,0.9,0.101c-0.033,0.033-0.1,0.25-0.2,0.649c-0.1,0.434-0.217,0.95-0.35,1.55
			c-0.133,0.567-0.267,1.101-0.4,1.601c-0.1,0.533-0.217,1.083-0.35,1.649c-0.1,0.601-0.184,1.117-0.25,1.551
			c-0.067,0.399-0.1,0.616-0.1,0.649 M116.8,445.15l2.2,3.8l15.25,3.85h22.35 M164.25,282.15c0.007-0.017,0.016-0.033,0.025-0.05
			 M163.85,333.575v1.825l1.25,0.55l-1.25,6.35l13.6-2.35l4.4,6.2l5.45-0.95l1.6-1.05l6.2,0.5l1.65-5.601l-1.85-1.649l-4.35,0.55
			l-2,1.649l-3.45-2.75v-2.899l1.3-0.351 M196,377.9l2.95-2.75l4,0.399l2.2,2l3.8-0.95l8.55,2.75l3.25,3.45l-2.7,4.7l-6.95,9.3
			l2.75,2.55l-3.45,3.051l-2.55-1.45l0.35,8.55l1.45,5.8l-3.35,6.05 M199.1,466l1.65-1.05l1.45,1.05l2.35-4.7l4.7,0.55l2,0.9
			l0.55,0.35l2.55-0.55l0.9,2l16.2,4.55l0.35-6l0.75,0.551l1.25-4.15l0.75-4.55l3.25,2.55l0.35,1.8l-1.25,0.351l0.9,1.3l3.65-2.75
			l1.8-1.101l-0.35-1.8l-1.1,0.55l0.2-1.649h3.25l0.75,0.2l1.05-1.45V451.1l2.55,1.5l2.2-4.75l-1.65-2.199l1.45-5.25l-0.15-1.45
			l5.25-1.101l2.2-2.35v1.8l3.45,0.75v3.25l0.55,3.65l1.8-0.2l2.55,0.55 M116.8,445.15v-4.9l1.85-2.55l-2.95-2.2l-2.9,1.1l-2.55-1.1
			h-4l-0.35-1.05l-8-1.851l-9.45,2.551l-4.7-3.25l-1.85,4.35l-3.6,1.1l-4.6,0.101l-25.95,0.6"/>
	</g>
</g>
<g id="Layer_2">
	<text transform="matrix(0.85 0 0 1 167.5 74.9741)" fill="#069" font-family="'_sans'" font-size="8">P6</text>
	<text transform="matrix(0.85 0 0 1 178.2002 146.3242)" fill="#069" font-family="'_sans'" font-size="8">P8</text>
	<text transform="matrix(0.85 0 0 1 205 193.874)" fill="#069" font-family="'_sans'" font-size="8">P11</text>
	<text transform="matrix(0.85 0 0 1 253.7002 126.4243)" fill="#069" font-family="'_sans'" font-size="8">P7</text>
	<text transform="matrix(0.85 0 0 1 285.6504 216.1743)" fill="#069" font-family="'_sans'" font-size="8">P13</text>
	<text transform="matrix(0.85 0 0 1 157.1006 349.2744)" fill="#069" font-family="'_sans'" font-size="8">P15</text>
	<text transform="matrix(0.85 0 0 1 218.9004 389.874)" fill="#069" font-family="'_sans'" font-size="8">P17</text>
	<text transform="matrix(0.85 0 0 1 91.9004 437.4746)" fill="#069" font-family="'_sans'" font-size="8">P4</text>
	<text transform="matrix(0.85 0 0 1 324.1504 325.1738)" fill="#069" font-family="'_sans'" font-size="8">P16</text>
	<text transform="matrix(0.85 0 0 1 217.8506 434.9746)" fill="#069" font-family="'_sans'" font-size="8">P18</text>
	<text transform="matrix(0.85 0 0 1 188.7002 312.1738)" fill="#069" font-family="'_sans'" font-size="8">P14</text>
	<text transform="matrix(0.85 0 0 1 101.0498 107.9243)" fill="#069" font-family="'_sans'" font-size="8">P5</text>
	<text transform="matrix(0.85 0 0 1 153 251.5742)" fill="#069" font-family="'_sans'" font-size="8">P12</text>
	<text transform="matrix(0.85 0 0 1 154.5 174.2241)" fill="#069" font-family="'_sans'" font-size="8">P9</text>
	<text transform="matrix(0.85 0 0 1 123 181.9243)" fill="#069" font-family="'_sans'" font-size="8">P10</text>
</g>
</svg>
