<?xml version="1.0" encoding="utf-8"?>
<!-- Generator: Adobe Illustrator 15.0.2, SVG Export Plug-In . SVG Version: 6.00 Build 0)  -->
<!DOCTYPE svg PUBLIC "-//W3C//DTD SVG 1.1//EN" "http://www.w3.org/Graphics/SVG/1.1/DTD/svg11.dtd">
<svg version="1.1" id="Layer_1" xmlns="http://www.w3.org/2000/svg" xmlns:xlink="http://www.w3.org/1999/xlink" x="0px" y="0px"
	 width="800px" height="600px" viewBox="0 0 800 600" enable-background="new 0 0 800 600" xml:space="preserve">
<g>
	<path fill-rule="evenodd" clip-rule="evenodd" fill="#c8c8c8" d="M374.95,181.825V181.8l1.175-0.5L374.95,181.825z M375.925,190.1
		l-0.025,0.05l-2.95-6.5l-0.55,0.425l-1.65,1.275l-3,1.5l-2.85,4l-0.075,2.55l-0.075,1.9l3.8,6.6l0.925,0.25l-1.225-0.3V207
		l-0.475,0.425L366.3,208.7l-0.2-0.55h-0.05h0.05l0.2,0.55l1.475-1.275l-1.475,1.325l-0.25-0.6l-9.65,1l-0.65,2.35l-3.65,3.65
		l-2.7,7l-2.65,0.7l-3.7-2l-3.65,4.3l2.7,8h-0.05l-33.65-5.65v0.3l-0.025-0.025L304.6,224.5l-3.65-5.3l-0.025-0.025l-0.35-0.225
		L297.45,217h-0.025l-2.975,0.85l-2.5,2.5v-0.1l-0.15-2.05l-0.05-0.025l-0.775-0.5L288.3,216l0.15-3.15l-1-3h-0.025l-7.475,1.5
		l-0.05-0.05l-2.6-2.8l-1-3.5l-3.35-3.15l-1.75-4.6l-7.4-1.05l-2.35-1.35l-5.65,4l-0.425-0.325l0.375,0.275l5.65-4l2.35,1.35
		l7.425,1.05h0.025l-0.45-1.55l3.5-2.35v-1.8l3.35-3.35l-1-3.85l2.8-1.3l2.2-3.2l3.3-2.15l2.325-3.825l0.025-0.025l7.35,6.5l3.15-4
		l0.05-0.65l0.3-4.5l1.65-4.35l2.85-0.15l3.5-0.85l1.15-0.8l0.35-4.35l-0.7-1l1-6.5l0.8-2.45c0.093-0.012,0.193-0.029,0.3-0.05
		c0.442-0.059,0.859-0.142,1.25-0.25c0.5-0.133,0.783-0.217,0.85-0.25c0.022-0.022,0.172-0.097,0.45-0.225L312,149.7
		c0.165-0.078,0.34-0.161,0.525-0.25c0.44-0.197,0.932-0.414,1.475-0.65c0.26-0.13,0.51-0.247,0.75-0.35
		c0.423-0.193,0.806-0.343,1.15-0.45c0.412-0.168,0.854-0.352,1.325-0.55c0.355-0.158,0.73-0.325,1.125-0.5
		c0.43-0.215,0.88-0.398,1.35-0.55l1.025-0.275c0.169-0.049,0.344-0.091,0.525-0.125h0.05c0.125-0.018,0.25-0.035,0.375-0.05
		c0.555-0.015,1.046,0.085,1.475,0.3c0.567,0.233,1,0.5,1.3,0.8c0.3,0.267,0.45,0.417,0.45,0.45l6.85,1l3,1l0.35,2.3l3.375,1.225
		l0.775,0.275l3.65,2l1.85,4l3.65,1l2.5,2.5l0.45,0.075l2.55,0.425l1-1.8h0.05l1.65-0.2l0.2,0.875l0.6,2.625l1.85,1.2l0.025-0.025
		L361.6,165l0.825,0.325l0.825,0.325l0.35,2.65l-0.35-2.65l-0.825-0.325l0.875,0.325l0.3,2.65l2.625,1.7l1.075,0.65l2,3.65
		l-0.5,2.35l4,6.5L375.925,190.1z M356.8,162.175l0.65,2.625l1.825,1.175L359.25,166l-1.85-1.2L356.8,162.175z M386.2,198.4v-1.225
		l0.1,3.475h-0.05L386.2,198.4z M379.1,209.1l0.15-2.45l2-3.8l0.15-1.85h0.05l-0.15,1.8l-2,3.85L379.1,209.1z M387.45,177.825
		l-2.5,4.825l0.275,2.75l-0.325-2.75l2.5-4.8L387.45,177.825z M396.75,174.35l-6.5-13.5l-0.425-2.975l0.475,2.925l6.5,13.5
		L396.75,174.35z M389.55,146.975l-0.25,0.325l-0.1,2.175l0.05-2.125L389.55,146.975z M394.45,138.325l-0.625,1.525l0.575-1.5
		L394.45,138.325z M377.8,135.175v-0.025l3,1.65l2.375,0.125l-2.425-0.075L377.8,135.175z M311.1,150.15
		c-0.067,0.033-0.35,0.117-0.85,0.25c0.05-0.018,0.1-0.035,0.15-0.05C310.833,150.217,311.067,150.15,311.1,150.15z
		 M338.475,153.025l0.825,0.275l3.65,2l1.85,4l3.65,1l2.5,2.5l0.4,0.075l-0.45-0.075l-2.5-2.5l-3.65-1l-1.85-4l-3.65-2
		L338.475,153.025z M319.7,146.4c-0.47,0.152-0.92,0.335-1.35,0.55c-0.395,0.175-0.77,0.342-1.125,0.5
		c0.358-0.171,0.733-0.354,1.125-0.55C318.775,146.704,319.225,146.537,319.7,146.4z M321.675,145.95
		c0.551-0.025,1.06,0.058,1.525,0.25c0.533,0.267,0.966,0.533,1.3,0.8c0.3,0.3,0.45,0.467,0.45,0.5l6.85,1l3,1l0.3,2.3l-0.35-2.3
		l-3-1l-6.85-1c0-0.033-0.15-0.183-0.45-0.45c-0.3-0.3-0.733-0.566-1.3-0.8C322.721,146.036,322.229,145.936,321.675,145.95z
		 M312.525,149.45c0.453-0.222,0.961-0.455,1.525-0.7c0.242-0.11,0.476-0.21,0.7-0.3c-0.24,0.103-0.49,0.22-0.75,0.35
		C313.457,149.036,312.965,149.253,312.525,149.45z M297.8,175.65l3.4,3.45l1.35-1.35l0.55,3.1l-0.4,0.75l0.8,4.05l2.7,1.35
		l3.45,3.85l2.5,1.35l3.45,9.05l2.9,1.75l4.8-0.6l2.15-2.3l4.8,3.45l1.55,1.95l2.5-2.15l3.25-1.7l3.1,0.75l-0.95-6.5l2.9-6.15
		l2.7-3.7l2.9,1l2.85-3.1l0.4,3.25l2.5,1.55l1.15,2.3l-1.55,2.7l1.95,1.35l1.75-1.9l1.15,0.95l3.85-1.35l2.575,0.6l-2.575-0.6
		l-3.85,1.35l-1.15-0.95l-1.75,1.9l-1.95-1.35l1.55-2.7l-1.15-2.3l-2.5-1.55l-0.4-3.25l-2.85,3.1l-2.9-1l-2.7,3.7l-2.9,6.15
		l0.95,6.5l-3.1-0.75l-3.25,1.7l-2.5,2.15l-1.55-1.95l-4.8-3.45l-2.15,2.3l-4.8,0.6l-2.9-1.75l-3.45-9.05l-2.5-1.35L306.2,187
		l-2.7-1.35l-0.8-4.05l0.4-0.75l-0.55-3.1l-1.35,1.35L297.8,175.65z M372.95,183.65l-0.2-0.5l-4-6.5l0.5-2.35l-2-3.65l-1.025-0.65
		l1.025,0.65l2,3.65l-0.5,2.35l4,6.5L372.95,183.65z M364.9,190.85v-0.05l2.85-4l3-1.5l1.65-1.225l-1.65,1.225l-3,1.5l-2.85,4
		V190.85z M391.175,237.25l-0.925-1.1l-8-12.5l-3.65-8.3v-0.05l3.7,8.35l8,12.5L400.95,249l-2.65,2.65l-3.5,1.35h-0.05l3.5-1.35
		l2.65-2.65l-9.7-11.75H391.175z M368.25,201.85v-0.05l0.3,0.1l-0.3-0.1V201.85z M389.1,255.15h-0.05v-1.5h0.05V255.15z
		 M385.1,237.5h-0.05l-0.425-0.1L385.1,237.5z M396.3,351.475l-0.25-0.975l1.5-19.15l1.7-7.199l-0.5-10.5l-4-36.5l0.4-1.4l4.6-15.6
		l1.2-0.9l-1.15,0.9l-5,17l4,36.5l0.5,10.5l-1.7,7.149l-1.5,19.2L396.3,351.475z M402.275,254.15h0.024l2,1l-1.5,2.65l-0.05,0.025
		l1.5-2.675L402.275,254.15z M345.525,423.225L316.1,411.5l-29.5-35.2c-0.075-0.025-0.15-0.051-0.225-0.075L285.7,376l-6.6-9.5
		v-6.35l1.35-2.65l-0.35-12l3-5l2-6.7l-4.65-3l-2-6l-0.65-5l-3.35,2l1.35-5.3l2.65-1.35l2.35,1.35l8.3-4l-3.3-4.7l-6.7-3l-5-6.3
		l-3.3-3.35l-0.7-6.65l1.25-0.875l0.05,0.025l2.7-1.8l2.35-9l2-1l4.35,1.65h4.65l4.05-0.6l0.25-0.05v2.3l3,5.7l10.3,10l2.35,0.3
		l3.65-6.65h0.05l2.95-0.35l2.35,3l3.65,2l0.025-0.025l1.575-0.85l11.4-6.425l2,2l-0.65,6l2.65,2.3l7,8.7l-1.65,3.301l1,1.35
		l-0.65,3.35l21.3,6.301l-1,19l-2.65,3l0.35,3.699l-1.35,2l2.35,1.65h25l9.55,3l2,7.8l5,11.351l-1.85,3l0.575,0.35l2.425,1.5h3.149
		l5.5,6.8l17.7,16.2l-0.7,1.3l-6.149,1.851l1.649,2.649l1.5-1.5l1.5-0.3l1.2,10h-2.2l-1.8,2.3l2,0.2l-0.2,2.8l-1.149-0.5l-1.65,1.5
		l-0.5,4l5-0.3l-0.5,2.8l2.5,3l0.8,2.851l-1.8,3.149h-1.5l-1.35-1.3l-1.15,2l-22.2-11l-5.149-5.35l-5.85-0.851l-10.15-5.149
		l-9.65,2.149l-25.85,9.2L345.525,423.225l2.825-2.125l0.2-2.5l1.9-0.35l-0.2-2.7l3.1-3.85l-4.25-2.15l2.15-6.899l3.65-2.9l3.65-0.6
		l0.95,1.35l4.45-0.95l-2.7-8.85l3.25-4.25l6.55,1.149l3.5,3.101l3.45-2.5l2.1-2.9l2.5-1.55l22.15-4.4l-6.15-3.85l1.15-1.75
		l2.275,0.25l-2.275-0.25l-1.15,1.75l6.15,3.85l-22.15,4.4l-2.5,1.55l-2.1,2.9l-3.45,2.5l-3.5-3.101l-6.55-1.149l-3.25,4.25
		l2.7,8.85l-4.45,0.95l-0.95-1.35l-3.65,0.6l-3.65,2.9l-2.15,6.899l4.25,2.15l-3.1,3.85l0.2,2.7l-1.9,0.35l-0.2,2.5L345.525,423.225
		z M468.6,392.8l1.5,1.2l1.5,0.15l0.351,3.149l-0.851,1.2l-2.149-2.2l-0.351-2.5V392.8z M464.45,394.8l0.85-1.3l1.3,0.3l1,1.7
		l-1.8,1.15L464.45,394.8z M441.05,322.35l2,1l-2.7,1.351l-1-0.7l1.351-0.8L441.05,322.35z M448.7,331.5l1.35-2.15l-0.2-2.5
		l2.351-0.649l2.5,2.8l5.35,13.85l-1.2,1l0.7,2.351l2.3,2.149l-1,2.15v4l-0.649,2l-10.351,0.85l-3.5-3.649l-2-1.2L444.2,351v-6
		l6.149-4.65l0.851-2.149l-1-2L448.7,331.5z M299.975,59.425L299.25,56.8l-5.65-6.3l1.7,1.65l4,4.65L299.975,59.425z M277.75,49
		h0.05l0.05,0.05L277.75,49z M169.95,38.5l-1.2-2h0.05L169.95,38.5z M274.2,48.4l1.25,1.25h-0.05L274.2,48.4z M267.6,44.075
		l-0.85-0.275l-1.325-1.65l1.375,1.65L267.6,44.075z M263.8,39.875L262.9,38v-2.2h0.05V38L263.8,39.875z M257.225,34.5L256.25,34
		h0.05L257.225,34.5z M252.9,49.275V49.3l-2.475-1.3h0.025L252.9,49.275z M232.1,49.7l-1.2-0.7l-1.4-1.35l1.45,1.35L232.1,49.7z
		 M225.25,44.8h0.05l1.05,0.575L225.25,44.8z M220.5,44.9l0.8,0.25h-0.05L220.5,44.9z M244.275,45.325L244.3,45.3l1.425,1.2
		L244.275,45.325z M185.875,58.975l1.55,1L187.4,60l-0.45-0.3L185.875,58.975z M180.225,54.325L178.9,53.15L178.6,51l0.35,2.15
		L180.225,54.325z M297.8,64.15l2,3.35l-0.7,1.65l0.65-1.65l-2-3.35H297.8z M293.925,73.8l0.975-1.5l0.5-0.1l-0.45,0.1L293.925,73.8
		z M280.8,50.3l0.85,0.45l-0.9-0.45H280.8z M300.95,87.775L300.9,87.8l-1-1.3l-1.5-3.2l-2.5-0.8l-0.5-3.7l-0.9-2.25l0.95,2.25
		l0.5,3.7l2.5,0.8l1.5,3.2L300.95,87.775z M320.1,89.8l-1.2-2.15l-2.125-2.475l0.025-0.025l2.15,2.5L320.1,89.8z M309.55,87.675
		l1.4,1.625l0.65,0.175l-0.7-0.175L309.55,87.675z M321.45,90.225l0.85,0.275l1.5,7.15h-0.05l-1.5-7.15L321.45,90.225z
		 M271.175,197.2l0.025,0.05L271.175,197.2z M323.525,102.475l-1.075,1.675l0.575,2.425l-0.625-2.425L323.525,102.475z
		 M322.9,111.475l0.7-2.475l-0.65,2.5L322.9,111.475z M318.425,110.15l-0.55,0.375l0.525-0.375H318.425z M312.55,118.7l0.35-0.05
		l1.85-3.35l0.65-2.375l-0.6,2.375l-1.85,3.35L312.55,118.7z M304.15,147c-0.191-0.266-0.375-0.549-0.55-0.85
		c-0.2-0.433-0.267-0.767-0.2-1c0.2-0.4,0.467-0.85,0.8-1.35c0.333-0.5,0.517-0.767,0.55-0.8l2.15-1.2l0.85-2.15l0.5-4.65
		l-1.35-3.35l1.05-1.7l-1,1.7l1.35,3.35l-0.5,4.65l-0.85,2.15l-2.15,1.2c-0.066,0.033-0.25,0.3-0.55,0.8
		c-0.333,0.5-0.6,0.95-0.8,1.35c-0.1,0.233-0.034,0.567,0.2,1C303.8,146.45,303.967,146.733,304.15,147z M304.35,147.25
		c0.267,0.333,0.417,0.517,0.45,0.55c0,0.034,0.233,0.25,0.7,0.65c0.433,0.433,0.9,0.867,1.4,1.3c0.5,0.467,0.85,0.767,1.05,0.9
		c0.041,0.021,0.091,0.037,0.15,0.05c-0.08-0.012-0.146-0.029-0.2-0.05c-0.2-0.133-0.55-0.433-1.05-0.9
		c-0.5-0.433-0.967-0.867-1.4-1.3c-0.434-0.4-0.667-0.617-0.7-0.65C304.717,147.767,304.583,147.583,304.35,147.25z M155.1,40.5
		l-1.675-0.675l0.025-0.025L155.1,40.5z M145.925,39.125L145.9,39.15l-2.625-2.975l0.025-0.025L145.925,39.125z M133.45,62.95h-0.05
		l-0.05,1.35l-7.5,10v0.025l1.5,5.475h-0.025l-2.225,0.5l-1.75,12.25l-1.75,2.25l0.025,0.025l3.225,8.475v0.05l-1,7.7l1.75,3.5
		l6.5-2.5l7.75,3.25l2,3.5l-0.025,0.025l-2.725,3.225v0.05l1.25,4.7l-4.5,5.25l0.025,0.025l4.225,3.725v0.05l-0.75,3.2l-0.025,0.025
		l-1.975,3.225l-1,3.75l-0.025,0.05l-1.725,3.95l-0.45,1.4h0.025l-0.025,0.05l-1.05,0.35l-2.5,3l-2.75,2l-2.75,0.75l-1.5,6.25h-2.75
		l-3.5-1.5l-2-8.75h-1.5l-3.75,0.5l-3.5-5.75h-2.75l-0.75,3.75l-3.5,0.5l-2.75,3l-6-0.5l-5.75-3l-2.25,2.75l-6.5,0.2h-0.025H76.3
		l-0.7-2.7l-7.5-5.5l-3,0.65l-2.15-6.15v-0.05l-0.5-4.6l2-3.5h-0.025l-8.475-1.85l-1.65-4v-0.025l0.275-0.5L56.1,124l-3.3-3.15
		l0.3-8.65l-0.025-0.025L50.8,110.2v-0.05l0.45-2.95l0.05-0.35l1-3.65v-0.025l-0.125-0.425l-0.05-0.125L51.6,101l-4.65-0.65l-2-1.65
		l-4.35,0.15l-4-2L35.8,95l-2-1.8l0.025-0.025l4.625-6.825V86.3l-0.35-3.1l2.15-0.525l0.7-0.175l0.975-1.3l0.375-0.5v-0.025
		l-1-3.325l-3-2.35l-0.85-5.3v-0.05l0.35-4.15l2.05-1.975L41.1,62.3l2.5-0.125l-2.5,0.175l-1.25,1.175l1.25-1.175l2.5-0.175L46.1,62
		l2.85,1l2.85,2.65l2.65,3.15l3.85-1l1.15-3.65l3-1.85l2.35,0.5l1.65-0.3l-1.65,0.35l-2.35-0.5l-3,1.85l-1.15,3.65l-3.85,1L48.95,63
		l5.5,5.85l3.85-1l1.15-3.65l3-1.85l2.35,0.5l1.65-0.35l1.325,1.15L69.1,64.8l2.5,3.85h2.7l3.3,3.15l4.5-1l0.75,1.125L82.1,70.85
		l-3.775,0.85L77.6,71.85l-3.3-3.15h-2.7l-2.5-3.85l-1.325-1.2l1.325,1.2l2.5,3.85h2.7l3.3,3.15l0.725-0.15l3.775-0.85l0.75,1.075
		L83.6,73l1.75-0.9l1.75-0.9l2.35,0.15l2.35-4l1.15-1.2L94.1,65l1.75-0.35l2.25-0.45l4-3.35l3,1.85l0.575-1.05L106.6,60l1.5-0.2
		l1.7-6.475L108.95,52l0.15-4.15l0.85-1.5V46.3v0.05l-0.85,1.5V47.8l0.85-1.5l-0.35-4.6l0.175-0.625L109.6,41.7v-0.05l0.175-0.575
		L110.8,37.5l2.25-0.65l2.25-0.65l3.15,2.65l-3.15-2.65l-2.25,0.65l2.25-0.7l3.15,2.65v0.05l-0.35,4.95l2.25-0.6l-2.25,0.65V43.8
		v0.05l2.25-0.65l0.75-0.2l1.25,5.875l0.1,0.425l2.35-1l0.8,1.2l-0.8-1.15l-2.35,1l-0.1-0.475l0.1,0.475l2.35-1l0.8,1.15l4,2.5
		l0.7,7.3v0.05l0.8,3.35l2.3,0.25l-2.3-0.25l-0.8-3.35V59.3l0.8,3.35L133.45,62.95z M41.925,81.2l0.375-0.525V80.7L41.925,81.2z
		 M33.825,93.175L33.8,93.15l4.65-6.85v0.05L33.825,93.175z M38.1,83.2v-0.05l2.15-0.475L38.1,83.2z M172.375,45.25l-1.125-0.75
		l-0.075-2.25l0.125,2.25L172.375,45.25z M92.95,66.15l-1.15,1.2l-2.35,4L87.1,71.2l-1.75,0.9l1.75-0.95l2.35,0.15l2.35-4
		L92.95,66.15z M95.85,64.65l2.25-0.5l4-3.35l3,1.85l0.575-1L105.1,62.7l-3-1.85l-4,3.35L95.85,64.65z M127.325,79.8l-1.475-5.45
		v-0.025v0.025L127.325,79.8z M124.85,103.35l-3.25-8.5l0.025-0.025L121.6,94.85L124.85,103.35z M64.425,133.2h0.025l-2,3.5v-0.05
		L64.425,133.2z M54.3,127.325V127.3l0.275-0.475L54.3,127.325z M51.25,107.2l0.05-0.4l1-3.625v0.025l-1,3.65L51.25,107.2z
		 M53.075,112.175l5.275-0.325l2.5,1l2.5-2l5.25,0.5l3.5-5.5l5,2l1.25-6l2-6.5v-4l-2.5-3.25l0.475-16.4L77.85,88.1l2.5,3.25v4
		l-2,6.5l-1.25,6l-5-2l-3.5,5.5l-5.25-0.5l-2.5,2l-2.5-1L53.075,112.175z M109.8,53.325v0.025l-1.7,6.5L106.6,60l1.5-0.15l1.7-6.5
		V53.325z M134.15,151.5l0.025-0.05l1.925-0.65l3.5,3.5l1.75,0.5l-0.025,0.05l-1.725-0.5l-3.5-3.5L134.15,151.5z M142.575,168.825
		l-1.725-3.225l-0.125-0.525l0.125,0.475l1.75,3.25L142.575,168.825z M76.45,155.5l-0.125-0.45h0.025L76.45,155.5z M77.975,196.325
		L77.95,196.3l1.25-1.35L77.975,196.325z M78.825,202.8H78.8l0.4-1.15L78.825,202.8z M141.825,118.825l-1.975-3.475l-7.75-3.25
		l-6.5,2.5l-1.75-3.5v-0.05v0.05l1.75,3.5l6.5-2.5l7.75,3.25L141.825,118.825z M140.1,135.85l-4.25-3.75l0.025-0.025l-0.025,0.025
		L140.1,135.85z M247.75,198.5l0.7,2l-0.975,0.375l0.925-0.375L247.75,198.5z M162.125,195.15l2.8,0.7l-2.825-0.65L162.125,195.15z
		 M160.1,173.15l0.125,0.4l-3.625-0.2l-2-3l-3,1.5l-2.25,6l-5.75,4.25l-4.5-3.25l-1.5-4l0.025-0.025l1.475,3.975l4.5,3.25l5.75-4.25
		l2.25-6l3-1.5l2,3l3.6,0.2L160.1,173.15z M167.85,196.45l-0.025,0.025L167.85,196.45z M210.125,249.225v-0.05l3.475-0.125l5,0.5
		l-5-0.5l-3.475,0.125l3.125-12.675l1.7-0.15l1,1.65l0.5-2.15l-1.35-2.15l-0.65-4.35l6.8-0.65l0.35-0.7l-0.15-1.3l-2.35-0.7
		l-2.65-2.3l-2-4.2l-1.35-2v-2.3l0.65-2.5l-0.8-2.85l3.8,0.35l-3.8-0.35l0.8,2.85l-0.65,2.5v2.3l1.35,2l2,4.2l2.65,2.3l2.35,0.7
		l0.15,1.3l-0.35,0.7l-6.8,0.65l0.65,4.35l1.35,2.15l-0.5,2.15l-1-1.65l-1.7,0.15l-3.125,12.675l-3.275,0.125l-1.75,2.5l-2-1.75
		h-1.75l-3.75-4l-5-7.25l5,7.25l3.75,4h1.75l2,1.75l1.75-2.5l3.275-0.125V249.225l-3.275,0.125l-1.75,2.5l-2-1.75h-1.75l-3.75-4
		l-5-7.25v-0.05v-3.5l1.475-2.725L192.6,230.1l-2,2.25l-3.5-1.5l-4,1.25l-2.75,1.25l-2.75-4.25l-5.5-4h-1.75l-3-2v-0.05l3,2h1.75
		l5.5,4l2.75,4.25l2.75-1.25l4-1.25l3.5,1.5l2-2.25l1.5,2.5l-0.025,0.025l0.025-0.025l-1.5-2.5l-2,2.25l-3.5-1.5l-4,1.25l-2.75,1.25
		l-2.75-4.25l-5.5-4h-1.75l-3-2l-0.5-9.45l-3-2.2l0.025-0.025l2.975,2.175v0.05v-0.05l-2.975-2.175l0.225-0.275l1.25-5.25l1-7
		l1.55-2.4l-0.075,0.025L167.8,196.5h-0.025l0.075-0.05l4.9-2.3l7-1l3,0.65l2.65,3.35l3-4.65v-4.35l2,2l1.7,8.65l6.65-3.3l4,7l1-2
		h7.35l7,10.65l7,3.35l3,3l5-8l1.65-5.7l5.35-2.3l1.65,1.65l3.4-1.35l2.95,2.7l1.9,10.8l0.45,2.525l2.375,1.2l0.975,0.475l0.65,8.7
		l-1.35,9l-2.65,4l-1.775-0.525L248.1,240.5l-2.65,2.7l-10-2l-0.2,2.65l-0.15,2.65l-0.975,2.125l-0.975,2.125h-0.05l1.025-2.125
		l-1.025,2.125l-5.575-0.65l-2.175-0.3l-1.25-3.25l-1.75-1l-4,1.75v0.05v-0.05l4-1.75l1.75,1l1.25,3.25l2.175,0.3l-2.175-0.25
		l-1.25-3.25l-1.75-1l-4,1.75l0.25,2.2v0.05l-5-0.5L210.125,249.225z M152.85,244.1l-0.875,0.15l0.775-0.15H152.85z
		 M137.425,291.525l-0.7,1.525l0.675-1.55L137.425,291.525z M162.65,310.6l0.6-0.75h0.025L162.65,310.6z M169.775,307.175L168.1,308
		l1.65-0.85L169.775,307.175z M271.35,282.3v0.05l-3.225,2.725l-0.025-0.025L271.35,282.3z M196.125,308.325l6.725,4.725
		l-0.025,0.025l-6.725-4.726L196.125,308.325z M204.35,280.575l3.5,5.975l-0.025,0.025l-3.475-5.975V280.575z M204.55,279.9h0.025
		l-0.15,0.45L204.55,279.9z M340.65,202.4l8.25,8.1l6-3.1l1.5,1.75l-1.5-1.75l-6,3.1L340.65,202.4z M343.05,220.85l0.05-0.05l3.65,2
		l2.65-0.65l-2.65,0.65l-3.65-2L343.05,220.85z M300.575,218.95l0.325,0.2l0.025,0.025l-0.025-0.025L300.575,218.95z M291.95,220.25
		l2.45-2.45l3-0.8h0.025H297.4l-3,0.8L291.95,220.25z M279.9,211.3l7.5-1.5l0.025,0.05l-0.025-0.05L279.9,211.3z M290.975,217.675
		l0.775,0.475v0.025v-0.025L290.975,217.675z M289.4,260.675l-1.325-0.8l0.025-0.025L289.4,260.675z M311.1,288.5l-3.65,6.65h-0.05
		h0.05L311.1,288.5z M321.65,292.275l-1.55,0.875l-0.025-0.025l0.025,0.025L321.65,292.275z M234.875,256.5l-1.125-2l-0.475-2.75
		l0.525,2.75L234.875,256.5z M248.675,240.675l1.725,0.475l2.7-4l1.3-9l-0.65-8.65l-0.925-0.475l0.925,0.475l0.65,8.65l-1.3,9
		l-2.7,4L248.675,240.675z M250.45,217.825l-0.05-0.025l-0.4-2.5l0.4,2.5L250.45,217.825z M235.25,243.85l0.15-2.7l10,2l2.7-2.65
		l-2.7,2.65l-10-2L235.25,243.85z M229.1,217.15l1.15,0.3v1.5l-1,1.35l2.5,1.85l0.85,5.65l-1,1.5l1.5,2.65l0.65,3.7l-0.85,0.8v1.5
		l-0.8,2l2.5,1l-2.5-1l0.8-2v-1.5l0.85-0.8l-0.65-3.7l-1.5-2.65l1-1.5l-0.85-5.65l-2.5-1.85l1-1.35v-1.5L229.1,217.15z
		 M342.1,313.15l-3.9,0.55l-2.55,0.75l-2.5,2.7l-1.5,2.699l-0.4,3.65l-1.55,1.95v3.45l0.4,3.25l-3.65,1.55l1.5,5.399H317.4
		l-4.85,3.45l-1.3,6.351l5,6.35l6.35,1.55l0.75,3.101l1.95,2.1l-6.55,3.1l-1.15-2.35l-3.1,3.5l-0.4,12.9l-3.85,2.699l-2.7,5.351
		l3.3,1.95l-0.4,1.899l4.45,4.25l6.15,4.05l1.15,6.15l1.15,1.55l-0.95,0.75l1.35,3.7l-0.6,2.5l0.6-2.5l-1.35-3.7l0.95-0.75
		l-1.15-1.55l-1.15-6.15l-6.15-4.05l-4.45-4.25l0.4-1.899l-3.3-1.95l2.7-5.351l3.85-2.699l0.4-12.9l3.1-3.5l1.15,2.35l6.55-3.1
		l-1.95-2.1l-0.75-3.101l-6.35-1.55l-5-6.35l1.3-6.351l4.85-3.45h10.55l-1.5-5.399l3.65-1.55l-0.4-3.25v-3.45l1.55-1.95l0.4-3.65
		l1.5-2.699l2.5-2.7l2.55-0.75L342.1,313.15z M455.1,397.8l2,2.351l-2.149-0.351l-1-1.8v-1L455.1,397.8z"/>
	<path fill-rule="evenodd" clip-rule="evenodd" fill="#c8c8c8" d="M377.8,135.175l2.95,1.675l2.425,0.075l6.125,0.225l8.3-0.5
		l-3.15,1.675l-0.05,0.025l-0.575,1.5l-1.225,3l-3.05,4.125l-0.3,0.375l-0.05,2.125L389.1,153l0.725,4.875l0.425,2.975l6.5,13.5
		l-1.5,1l-3.65-1l-4.15,3.475l-0.05,0.025l-2.5,4.8l0.325,2.75l0.975,11.775v1.225l-5.1-0.4l-2,2l-5.5,3.2h-0.05l-4.075-1.05
		l-0.925-0.25l-3.8-6.6l0.075-1.9l0.075-2.55l2.85-4l3-1.5l1.65-1.275l0.55-0.425l2.95,6.5l0.025-0.05l1.325-3.6l-2.35-4.65
		l0.05-0.025l1.175-0.525l1.775-0.8l1.85-3.15l-1.5-7L377.9,160l-1.8-1.35l-3.2-4.15l1-2.5l0.7-3.35l3.65-3.15l-0.5-4.65v-5.7
		L377.8,135.175z M379.6,198.55l0.4-2.75l2.5-0.6l-1.4-2.5l-1.1-1.4l-0.65-1.75l-1.6-0.35l-0.9,1.1l-0.6-0.25l0.6,0.25l0.9-1.1
		l1.6,0.35l0.65,1.75l1.1,1.4l1.4,2.5l-2.5,0.6L379.6,198.55z M169.325,155.725l-2.575-0.575l-2.35,6.65l3.7,3.7l3,0.65l-5,7h-6
		l0.1,0.35l-3.6-0.2l-2-3l-3,1.5l-2.25,6l-5.75,4.25l-4.5-3.25l-1.475-3.975L137.6,174.8l3-2.75l1.975-3.225l0.025-0.025l-1.75-3.25
		l-0.125-0.475l-0.025-0.15l-1.1-4.325v-0.05l1.725-5.7l0.025-0.05l-1.75-0.5l-3.5-3.5l-1.925,0.65h-0.025l0.45-1.4l1.725-3.95
		l0.025-0.05l1-3.75l1.975-3.225l4.775,1.275l3.5-1.25h5.25l3.5-3.25l-1.25-8.5l5.75-3.25l3.75,3.25l5.25,2l2.75-2l5.25,1l4,2.5
		l2,4.25l3.75,5.5l2,1.75l-0.75,3l3.075,1.025l-3.075-1.025l0.75-3l-2-1.75l-3.75-5.5l-2-4.25l-4-2.5l-5.25-1l-2.75,2l-5.25-2
		l-3.75-3.25l-5.75,3.25l1.25,8.5l-3.5,3.25h-5.25l-3.5,1.25l-4.775-1.275l0.025-0.025l0.75-3.2v-0.05l-4.225-3.725l-0.025-0.025
		l4.5-5.25l-1.25-4.7v-0.05l2.725-3.225l0.025-0.025l-2-3.5l-7.75-3.25l-6.5,2.5l-1.75-3.5l1-7.7v-0.05l-3.225-8.475L121.6,94.8
		l1.75-2.25l1.75-12.25l2.225-0.5h0.025l-1.5-5.475V74.3l7.5-10l0.05-1.35h0.05l0.3,0.05l0.35-3.35l2.8-5h1.5l2.2-9.65l-0.35-7.5
		l3-1.35l0.025,0.025l2.625,2.975l0.025-0.025l1.325-2.325h0.05l1.8,0.2l2.5,4.3l1.8-1.5l0.025,0.025L155.1,40.5l2,2.15l0.8-2
		l3.7-1.15l3.5-2.2l3.65-0.8l1.2,2l1.15,2l0.075,1.75l0.075,2.25l1.125,0.75l2.725,1.9l3.5,3.85l0.3,2.15l1.325,1.175L184.1,57.8
		l1.775,1.175l1.075,0.725l0.45,7.1l3.7,8.35l2.3,3.65l-3,7.35l2.35,7.65l-3,1.35l-3.35,2.65l-0.3,3.7l0.65,9l2.35,3.65l0.3,6
		l5.7,11l-3.175,15.225l-0.175,0.775l10.35,3.65l-0.7,5l-5,2.7l-2.3,0.3l-4.7,3.7l-2.3,0.875l-2,0.775l-9.7-2.65l-1.3-4.7
		L169.325,155.725l0.775-3.375l-3.25-0.75l-2,1.5l-3.75-2l-1.75,1l-2.75,0.75l-2.75-1.75l0.25-3l-4.5-0.5l-5.5,0.25l-3.75-1.75
		h-4.025h4.025l3.75,1.75l5.5-0.25l4.5,0.5l-0.25,3l2.75,1.75l2.75-0.75l1.75-1l3.75,2l2-1.5l3.25,0.75L169.325,155.725z
		 M166.85,213.6l0.5,9.45v0.05l3,2h1.75l5.5,4l2.75,4.25l2.75-1.25l4-1.25l3.5,1.5l2-2.25l1.475,2.475L192.6,235.3v3.5v0.05l5,7.25
		l3.75,4h1.75l2,1.75l1.75-2.5l3.275-0.125l3.475-0.125l5,0.5v-0.05l-0.25-2.2l4-1.75l1.75,1l1.25,3.25l2.175,0.25l5.575,0.65h0.05
		l-0.05,0.1l0.175,0.9l0.475,2.75l1.125,2l2.2,4l0.075,0.1l0.2,0.35l-0.5-0.1l-0.1,1.225l-4.15-0.275l-4.5,1.5l-6.75-0.5l-3.5-3
		l-2.5-2.75l-2.75,4.25l2.25,5.25l-3.5,0.5h-4l0.475-3l-0.475,3h4l3.5-0.5l-2.25-5.25l2.75-4.25l2.5,2.75l3.5,3l6.75,0.5l4.5-1.5
		l4.15,0.275l-0.65,7.725v0.05l-3.25,0.25l-2.25,8l-1.75,0.25l-3.5-1.75l-4.5,1.75l-6-1l-2.25-2l-2,2l-4.75-1l-1.25,3.55h-0.025
		h-0.025l-3.7-0.8l-3.75-1.5l-4.25-1l-1.5-2.75l-2.975,0.4l-0.525-3.45l1.75-1.25l2-4.75l2.5,0.75l1.75,3.25l3,0.25l0.25-3.5l4.75-2
		l3.975,0.5l2.3-14.825l-2.3,14.825l-3.975-0.5l-4.75,2l-0.25,3.5l-3-0.25l-1.75-3.25l-2.5-0.75l-2,4.75l-1.75,1.25l0.525,3.45
		l-0.775,0.1l-2.75,3l-7.5,1.5l-4.5,1.75h-2.75l-3.25-7l0.25-5.75l-0.25-9l-2.5-2.5l-4.25-1.75l-2.5-5.25l-4.75-5.25h-0.1l0.35-3
		l1-3.75l0.5-4.75l2.75-1.5v-2.5l-1.5-9l3-1.75l5-6.45L166.85,213.6z"/>
	<path fill-rule="evenodd" clip-rule="evenodd" fill="#c8c8c8" d="M379.1,209.1l-0.5,6.2v0.05l3.65,8.3l8,12.5l0.925,1.1l0.025,0.05
		l-2.45,0.55l-3.65-0.35l-0.475-0.1l-3.475-0.75l-2.4-0.5l-4.35-7.95l-8.1-19.45l1.475-1.325L368.25,207l4-0.7l1.15,1.5l-1.95,3.5
		l1.15,5.95l5.65-1.6l-5.65,1.6l-1.15-5.95l1.95-3.5l-1.15-1.5l-4,0.7v-5.15l1.225,0.3l4.075,1.05h0.05l5.5-3.2l2-2l5.1,0.4
		l0.05,2.25l-4.8,0.35h-0.05l-0.15,1.85l-2,3.8L379.1,209.1z M373.55,203.2l1.35,3.3l2.7-0.6l0.6-2.3l2.85-2.1l-2.85,2.1l-0.6,2.3
		l-2.7,0.6L373.55,203.2z M285.7,376l-15.75-5.7l-1.65-8.649l-2.2-2.15l-1.8,2.3l-33.5-23.3l-14-16.7l-11.75-2.55l-6-1.3l2.55-2.351
		l1.25-2.5l-0.025-0.024l0.025-0.025l-6.725-4.725l3.475-3.976v-0.05l0.75-8.2l2-3v-0.05l-0.25-2.7l1.75,0.25l1.7-1.7l2.3-2.3
		l-0.025-0.025l0.025-0.025l-3.5-5.975l0.075-0.225l0.15-0.45h0.025l1.25-3.55l4.75,1l2-2l2.25,2l6,1l4.5-1.75l3.5,1.75l1.75-0.25
		l2.25-8l3.25-0.25v-0.05l0.65-7.725l0.1-1.225l0.5,0.1l12.5,3.15l1.75,3l-0.25,3.95v0.05l1.75,2.25l3,0.25l4-2.75l4.75-1
		l-1.25,6.45v0.05l1,3.5l3,0.75l2.5-2.25l1.25,1.5v2.45l-3.25,2.75l0.025,0.025L268.1,285.1l0.75,1.75l2.5,0.775l-1.25,0.875
		l0.7,6.65l3.3,3.35l5,6.3l6.7,3l3.3,4.7l-8.3,4l-2.35-1.35l-2.65,1.35l-1.35,5.3l3.35-2l0.65,5l2,6l4.65,3l-2,6.7l-3,5l0.35,12
		l-1.35,2.65v6.35L285.7,376z M205.05,319.25l1.55-4.95l2.25-5.25l3,2.75l15.25,2.5l3.75-3l0.5-5.5l-1.5-5l-1.75-1.75l0.325-2.95
		H223.6l0.5-2.25l-2-1l1-2.25v-3.25c-0.033,0.033-0.633,0.2-1.8,0.5c-1.2,0.333-2.716,0.667-4.55,1
		c-1.833,0.333-3.767,0.533-5.8,0.6c-1.924,0.064-3.724-0.119-5.4-0.55c1.676,0.431,3.476,0.614,5.4,0.55
		c2.033-0.067,3.966-0.267,5.8-0.6c1.833-0.333,3.35-0.667,4.55-1c1.167-0.3,1.767-0.467,1.8-0.5v3.25l-1,2.25l2,1l-0.5,2.25h4.825
		l-0.325,2.95l1.75,1.75l1.5,5l-0.5,5.5l-3.75,3l-15.25-2.5l-3-2.75l-2.25,5.25L205.05,319.25z M228.425,296.1l0.175-1.55l4.5-6.5
		l3.5-2.75l3.75-2l7.25,0.75l0.25,2.5l7,0.5l6.75,5.25l3-2.5l2-4.5l1-4.7l-1,4.7l-2,4.5l-3,2.5l-6.75-5.25l-7-0.5l-0.25-2.5
		l-7.25-0.75l-3.75,2l-3.5,2.75l-4.5,6.5L228.425,296.1z"/>
	<path fill-rule="evenodd" clip-rule="evenodd" fill="#c8c8c8" d="M308.1,150.7c0.147,0.033,0.347,0.033,0.6,0l-0.8,2.45l-1,6.5
		l0.7,1l-0.35,4.35l-1.15,0.8l-3.5,0.85l-2.85,0.15l-1.65,4.35l-0.3,4.5l-0.05,0.65l-3.15,4l-7.35-6.5l-0.025,0.025L284.1,168.6
		l-2.5-3.25l-3,0.5l-5.25-1l-0.75-2.75l-3,0.25l-2.75-2.5l-5-3.25l-4.5-5.25l-3.5-5l-3.5-3.75v12.75l-3.25,3l-4,0.5l1,7.25l-3,2.75
		l-0.75,2.5l-1.25,0.5l-1.25-1.75l-4.25-0.5l-2.75,2.75l-0.25,4.75l-1.25,2.25l-1.75-0.25l-2.25,1.75l-3.15,5.175l-0.85-2.925
		l-2-1.75l-4.5,1.75l-4.5-6l-8,4.5l-6.25-1l-4-2.75l-3.25-3l-1.75-11.475l2.3-0.875l4.7-3.7l2.3-0.3l5-2.7l0.7-5l-10.35-3.65
		l0.175-0.775l3.175-15.225l-5.7-11l-0.3-6l-2.35-3.65l-0.65-9l0.3-3.7l3.35-2.65l3-1.35l-2.35-7.65l3-7.35l-2.3-3.65l-3.7-8.35
		l-0.45-7.1l0.45,0.3l0.025-0.025l1.475-1.325l0.2-2.85l3.5-1.3l4-0.5l6.5,4.15l3.8-0.85l1.35-0.65l1-2.15l2.5-2.5l0.85-3
		l-2.35-1.85l2.15-2.35h0.05l3.95,0.5l2.2-1l1.9,0.6l0.75,0.25h0.05l3.95-0.35l1.1,0.575l1.75,0.925l1.4,1.35l1.4,1.35l1.2,0.7
		l3.5,2.1l3.65-0.3l5-6.2l0.025,0.025l1.45,1.175l2.375,2l2.3-0.5h0.025l2.475,1.3v-0.025l0.5-3.475l-1.15-4.15L252.6,39l-0.2-2.85
		l1-2.35l2.85,0.2l0.975,0.5l2.375,1.3h3.3V38l0.9,1.875l0.3,0.625l1.325,1.65l1.325,1.65l0.85,0.275l3.5,1.225l3.1,3.1l1.2,1.25
		h0.05l2.3-0.65l0.1,0.05l2.95,1.25h-0.05l0.9,0.45l1.45,0.75l10.5-1l5.65,6.3l0.725,2.625L301.1,63.8l-3.3,0.35h-0.05l2,3.35
		l-0.65,1.65l-0.5,2.5l-3.2,0.55l-0.5,0.1l-0.975,1.5l-0.325,0.5l0.9,2.25l0.9,2.25l0.5,3.7l2.5,0.8l1.5,3.2l1,1.3l0.05-0.025
		l1.45-0.625h0.05l4.15,0.5l2.5-0.5l0.45,0.525l1.35,1.625l0.7,0.175l2,0.525l-0.2-2.85l1.35-0.35l2-1.65l0.025,0.025l2.125,2.475
		l1.2,2.15l1.35,0.425l0.8,0.275l1.5,7.15h0.05l2.3-0.15v2.15l-1.5,1.15l-1.075,1.675l-1.125,1.675l0.625,2.425L323.6,109
		l-0.7,2.475v0.025l-4.475-1.35H318.4l-0.525,0.375l-2.275,1.625l-0.2,0.775l-0.65,2.375l-1.85,3.35l-0.35,0.05l-2.45,0.3v6.15
		l-0.5,2l-1.65,2.8l-1.05,1.7l1.35,3.35l-0.5,4.65l-0.85,2.15l-2.15,1.2c-0.033,0.033-0.217,0.3-0.55,0.8
		c-0.333,0.5-0.6,0.95-0.8,1.35c-0.066,0.233,0,0.567,0.2,1c0.175,0.301,0.359,0.584,0.55,0.85l0.2,0.25
		c0.233,0.333,0.367,0.517,0.4,0.55c0.033,0.034,0.267,0.25,0.7,0.65c0.433,0.433,0.9,0.867,1.4,1.3c0.5,0.467,0.85,0.767,1.05,0.9
		C307.954,150.671,308.021,150.688,308.1,150.7z M288.075,259.875l1.325,0.8l2.4,1.525l3-4h0.65l2.9,4.65l3.45,1.35l0.95-2.5
		l0.4-4.45h10.4l10.95,2.9l6.75,2.9l5-5.4l7.7-0.75l4.25-4.45l7.7-2.3l1.55-3.3l3.85-0.15l3.45,1.5l3.65-1.5l3.3,1.5l4.6,1.2
		l2.3-2.7l1.55-2.5l1-7.55l-1,7.55l-1.55,2.5l-2.3,2.7l-4.6-1.2l-3.3-1.5l-3.65,1.5l-3.45-1.5l-3.85,0.15l-1.55,3.3l-7.7,2.3
		l-4.25,4.45l-7.7,0.75l-5,5.4l-6.75-2.9l-10.95-2.9h-10.4l-0.4,4.45l-0.95,2.5l-3.45-1.35l-2.9-4.65h1.65l2.35-4.7l2.65-3.3
		l2.7-6.35l3-4l0.6-12.05v-0.3l33.65,5.65h0.05l-2.7-8l3.65-4.3l3.7,2l2.65-0.7l2.7-7l3.65-3.65l0.65-2.35l9.65-1l0.25,0.6
		l8.1,19.45l4.35,7.95l2.4,0.5l3.475,0.75l0.425,0.1h0.05l3.65,0.35l2.45-0.55l-0.025-0.05h0.025l9.7,11.75l-2.65,2.65l-3.5,1.35
		l-5.65,0.65h-0.05v1.5h0.05h9.65l3.5-1h0.025l1.975,1l-1.5,2.675v0.025l-1.8,1.4l-1.2,0.9l-4.6,15.6l-0.4,1.4l4,36.5l0.5,10.5
		l-1.7,7.199l-1.5,19.15l0.25,0.975v0.025l-9.55-3h-25l-2.35-1.65l1.35-2l-0.35-3.699l2.65-3l1-19l-21.3-6.301l0.65-3.35l-1-1.35
		l1.65-3.301l-7-8.7l-2.65-2.3l0.65-6l-2-2l-11.4,6.425l-1.575,0.85l-0.025,0.025l-3.65-2l-2.35-3l-2.95,0.35h-0.05l-3.65,6.65
		l-2.35-0.3l-10.3-10l-3-5.7v-2.3l-0.25,0.05l0.6-1.05l-6-6.35l-2.65-2.3l0.35-4.7L288.075,259.875z M380.15,244.2l1.9,1.15
		l0.2,3.25l1.75,1.15l3.25,0.95l0.8,2.15l-4.25,3.85l-0.55,1.9l2.65,2.15l-2.65,14.8l11.9,0.2l-11.9-0.2l2.65-14.8l-2.65-2.15
		l0.55-1.9l4.25-3.85l-0.8-2.15l-3.25-0.95l-1.75-1.15l-0.2-3.25L380.15,244.2z M160.1,173.15h6l5-7l-3-0.65l-3.7-3.7l2.35-6.65
		l2.575,0.575l4.775,1.075l1.3,4.7l9.7,2.65l2-0.775l1.75,11.475l3.25,3l4,2.75l6.25,1l8-4.5l4.5,6l4.5-1.75l2,1.75l0.85,2.925
		l3.15-5.175l2.25-1.75l1.75,0.25l1.25-2.25l0.25-4.75l2.75-2.75l4.25,0.5l1.25,1.75l1.25-0.5l0.75-2.5l3-2.75l-1-7.25l4-0.5l3.25-3
		V142.6l3.5,3.75l3.5,5l4.5,5.25l5,3.25l2.75,2.5l3-0.25l0.75,2.75l5.25,1l3-0.5l2.5,3.25l3.125,5.225l-2.325,3.825l-3.3,2.15
		l-2.2,3.2l-2.8,1.3l1,3.85l-3.35,3.35v1.8l-3.5,2.35l0.45,1.55h-0.025l-7.425-1.05l-2.35-1.35l-5.65,4l-0.375-0.275L251.4,195.5
		l-4.3,1l0.65,2l0.65,2l-0.925,0.375l-2.325,0.925l-3.4,1.35l-1.65-1.65l-5.35,2.3l-1.65,5.7l-5,8l-3-3l-7-3.35l-7-10.65h-7.35l-1,2
		l-4-7l-6.65,3.3l-1.7-8.65l-2-2v4.35l-3,4.65l-2.65-3.35l-3-0.65l-7,1l-4.9,2.3l-0.075,0.05h-0.025l-2.825-0.65l-2.8-0.7
		l3.675-9.65l-3.35-4.3l-2.2-7.65h-0.025L160.1,173.15z M222.2,186.025l0.4,1.325l-0.25,2.25l3.5,1l-0.25,3l-3.25,1.25l-1,4.5l1,3
		l-8.6,1l8.6-1l-1-3l1-4.5l3.25-1.25l0.25-3l-3.5-1l0.25-2.25L222.2,186.025z M137.4,291.5l-0.675,1.55l-1.125,2.6l-7.15,0.35h-0.05
		l-10-6.35l-5.8-5.3l-1.5-3.85l-3.35-3v-4.35l5-4.65l-1.5-2.5l-1.6-4.375l4.95-4.075l1-2.5l7.5-2.25l1.5,1l1.75-1l2-3.25l3,1.25
		l4.5,2.75l4-1.75l5.5-6.5l-5.5,6.5l-4,1.75l-4.5-2.75l-3-1.25l-2,3.25l-1.75,1l-1.5-1l-7.5,2.25l-1,2.5l-4.95,4.075l-1.75-4.775
		l0.85-3.2l2.85-5.5l3.8-1.65l0.7-7.65l-0.7-3.1l3.45-1.65l0.25-1.5l2.25-1.75l4.25,0.75l3.75-3.25l-3.75-4.75l1.25-2.5l4.5,4.75
		l3.75,0.5l2.75,0.75l2.25,4.5l1.25,8l4,4.75l3.25,0.5l3.375-0.6l0.875-0.15l4.75,5.25l2.5,5.25l4.25,1.75l2.5,2.5l0.25,9
		l-0.25,5.75l3.25,7h2.75l4.5-1.75l7.5-1.5l2.75-3l0.775-0.1l2.975-0.4l1.5,2.75l4.25,1l3.75,1.5l3.7,0.8l-0.125,0.45l-0.075,0.225
		v0.025l3.475,5.975l0.025,0.025l-2.3,2.3l-1.7,1.7l-1.75-0.25l0.25,2.7v0.05l-2,3l-0.75,8.2v0.05l-3.475,3.976l-0.025,0.024
		l6.725,4.726l0.025,0.024l-1.25,2.5l-2.55,2.351l-0.65-0.101l-21.3-6.699l-3.35-3.301l-2.45,0.801h-0.05l-1.475-1.476l-0.025-0.024
		L168.1,308l-1.7,0.85l-3.125,1h-0.025l-0.6,0.75l-1.55,1.9l-2.5-0.15l-0.85-5.199l-1-3.5l-2-1.301h-3.65l-3.5-1.35l-2.7-1.65
		l0.35-1.35l-1.65-3.85l-3.15-0.15h-0.05l-2.975-2.475L137.4,291.5l-6.05-6.45l1.25-4.25l3.25-5.75l2.75-2.75l4.5-0.75l4-2.25
		l1.25-1.75l4.5-4.25l2.75-3.75l-2.5-2.5l-2.75,3.25l-3.25-3l1-3l3-0.5l1.25-1.25l-1.25-2.75l1.5-1.5l3.35-0.15l-3.35,0.15l-1.5,1.5
		l1.25,2.75l-1.25,1.25l-3,0.5l-1,3l3.25,3l2.75-3.25l2.5,2.5l-2.75,3.75l-4.5,4.25l-1.25,1.75l-4,2.25l-4.5,0.75l-2.75,2.75
		l-3.25,5.75l-1.25,4.25L137.4,291.5z M144.6,295.35l4-3.75l1-3.25l2,0.25l3-0.75l1.25-4.5l2.75-2.25l6-0.25l3,1.25l2.5-1.5
		l-2.5,1.5l-3-1.25l-6,0.25l-2.75,2.25l-1.25,4.5l-3,0.75l-2-0.25l-1,3.25L144.6,295.35z M343.95,256.9l0.6,1.95l-7.55,4l-4.2,4.65
		l3.05,13.45l-1.35,2.5l-0.75,2.15l0.75-2.15l1.35-2.5l-3.05-13.45l4.2-4.65l7.55-4L343.95,256.9z"/>
	<path fill-rule="evenodd" clip-rule="evenodd" fill="#c8c8c8" d="M247.475,200.875l0.975-0.375l-0.7-2l-0.65-2l4.3-1l3.975,3.025
		l0.425,0.325l5.65-4l2.35,1.35l7.4,1.05l1.75,4.6l3.35,3.15l1,3.5l2.6,2.8l0.05,0.05l7.475-1.5h0.025l1,3L288.3,216l2.675,1.675
		l0.775,0.5l0.05,0.025l0.15,2.05v0.1l2.5-2.5l2.975-0.85h0.025l3.125,1.95l0.35,0.225l0.025,0.025l3.65,5.3l3.775,3.275
		l0.025,0.025l-0.6,12.05l-3,4l-2.7,6.35l-2.65,3.3l-2.35,4.7h-1.65h-0.65l-3,4l-2.4-1.525l-1.3-0.825l-0.025,0.025L283.8,262.5
		l-0.35,4.7l2.65,2.3l6,6.35l-0.6,1.05l-4.05,0.6h-4.65l-4.35-1.65l-2,1l-2.35,9l-2.7,1.8l-0.05-0.025l-2.5-0.775l-0.75-1.75
		l0.025-0.025l3.225-2.725v-0.05v-2.45l-1.25-1.5l-2.5,2.25l-3-0.75l-1-3.5v-0.05l1.25-6.45l-4.75,1l-4,2.75l-3-0.25l-1.75-2.25
		v-0.05l0.25-3.95l-1.75-3l-12.5-3.15l-0.2-0.35l-0.075-0.1l-2.2-4l-1.075-2l-0.525-2.75l-0.175-0.9l0.05-0.1l0.975-2.125
		l0.975-2.125l0.15-2.65l0.2-2.65l10,2l2.65-2.7l0.575,0.175l1.775,0.525l2.65-4l1.35-9l-0.65-8.7l-0.975-0.475l-2.375-1.2
		L250,215.3l-1.9-10.8l-2.95-2.7L247.475,200.875z M142.575,168.825l-1.975,3.225l-3,2.75l0.025,0.025l-0.025,0.025l1.5,4l4.5,3.25
		l5.75-4.25l2.25-6l3-1.5l2,3l3.625,0.2h0.025l2.2,7.65l3.35,4.3l-3.675,9.65l-0.025,0.05l2.825,0.65l2.825,0.65h0.025h0.025
		l0.025-0.025l0.075-0.025l-1.55,2.4l-1,7l-1.25,5.25l-0.225,0.275l-0.025,0.025l-5,6.45l-3,1.75l1.5,9v2.5l-2.75,1.5l-0.5,4.75
		l-1,3.75l-0.35,3l-0.775,0.15l-3.375,0.6l-3.25-0.5l-4-4.75l-1.25-8l-2.25-4.5l-2.75-0.75l-3.75-0.5l-4.5-4.75l-3-7.25l0.75-3.5
		l7-2.75l3.5-2.25l-0.75-6.25l-3-1.25l-1.5,3.25l-4,1.75l-2.25-6h-3.75l-4.5,2.25l-5.25,0.25l-4,4.5l-5-1.25l-1.75,4.5h-4
		l-3.75,3.25l-3,3.25l3-3.25l3.75-3.25h4l1.75-4.5l5,1.25l4-4.5l5.25-0.25l4.5-2.25h3.75l2.25,6l4-1.75l1.5-3.25l3,1.25l0.75,6.25
		l-3.5,2.25l-7,2.75l-0.75,3.5l3,7.25l-1.25,2.5l3.75,4.75l-3.75,3.25l-4.25-0.75l-2.25,1.75l-0.25,1.5l-3.45,1.65l-0.1-0.55
		l-5.2-7.35l-1.15-3.65l-3.5-2.35l-2.5-2.65L95.6,218l-6.15-3l-4.35-4.8l-1-3.35l-0.025-0.025L81.3,204.2l-2.5-1.35l0.025-0.05
		l0.375-1.15l0.4-1.15l-1.65-4.15l0.025-0.025l1.225-1.375l0.4-0.45l1.35-4.3l-4.5-4.5l-1.65-2.2l1-3.5l-1.2-11.65l-1.15-0.15v-0.05
		l-0.5-4.65l3.5-8l-0.1-0.45l6.5-0.2l2.25-2.75l5.75,3l6,0.5l2.75-3l3.5-0.5l0.75-3.75h2.75l3.5,5.75l3.75-0.5h1.5l2,8.75l3.5,1.5
		h2.75l1.5-6.25l2.75-0.75l2.75-2l2.5-3l1.05-0.35l1.95-0.65l3.5,3.5l1.725,0.5l-1.725,5.7v0.05l1.1,4.325l0.025,0.15l0.125,0.525
		L142.575,168.825z M119.85,196.85l-0.75-10.75l4.75-0.5l0.25-6.5l5.5-2.75l7.5-0.25l-7.5,0.25l-5.5,2.75l-0.25,6.5l-4.75,0.5
		L119.85,196.85z M254.9,227.95l3,2.7l1.7-0.5l2.3,1.15l2.2,0.15l0.15,6.2l2.15,2.15l-0.025,0.55l8.725-3.15l2.2-3.5l-2.35-4
		l-0.65-2.5l1.15-0.2v-2.15l0.65-3.15l0.7-1.7l2,1l0.8-2.3v-2.35l2.85-0.35l1.65-3.5l2.7-1.65l-2.7,1.65l-1.65,3.5l-2.85,0.35v2.35
		l-0.8,2.3l-2-1l-0.7,1.7l-0.65,3.15V227l-1.15,0.2l0.65,2.5l2.35,4l-2.2,3.5l-8.725,3.15l0.025-0.55l-2.15-2.15l-0.15-6.2
		l-2.2-0.15l-2.3-1.15l-1.7,0.5L254.9,227.95z M266.375,240.35l-0.125,4.6l2.65,5.5l2.5,3.5l2.7-0.15l2.65,1.85l-2.35,8l-2.8,7.5
		l4.8,5l-4.8-5l2.8-7.5l2.35-8l-2.65-1.85l-2.7,0.15l-2.5-3.5l-2.65-5.5L266.375,240.35z"/>
	
		<path fill-rule="evenodd" clip-rule="evenodd" fill="none" stroke="#fff" stroke-width="0.5" stroke-linecap="round" stroke-linejoin="round" stroke-miterlimit="3" d="
		M377.8,135.175l-0.05-0.025v5.7l0.5,4.65l-3.65,3.15l-0.7,3.35l-1,2.5l3.2,4.15l1.8,1.35l0.35,10.35l1.5,7l-1.85,3.15l-1.775,0.8
		l-1.175,0.525l-0.05,0.025l2.35,4.65l-1.325,3.6l-0.025,0.05l-2.95-6.5l-0.55,0.425l-1.65,1.275l-3,1.5l-2.85,4l-0.075,2.55
		l-0.075,1.9l3.8,6.6l0.925,0.25l4.075,1.05h0.05l5.5-3.2l2-2l5.1,0.4v-1.225l-0.975-11.775l-0.325-2.75l2.5-4.8l0.05-0.025
		l4.15-3.475l3.65,1l1.5-1l-6.5-13.5l-0.425-2.975L389.1,153l0.1-3.525l0.05-2.125l0.3-0.375l3.05-4.125l1.225-3l0.575-1.5
		l0.05-0.025l3.15-1.675l-8.3,0.5l-6.125-0.225l-2.425-0.075L377.8,135.175z M383.175,136.925L380.8,136.8l-3-1.65v0.025
		 M393.825,139.85l0.625-1.525 M389.2,149.475l0.1-2.175l0.25-0.325 M396.75,174.35l0.05-0.05l-6.5-13.5l-0.475-2.925 M363.6,168.3
		l-0.35-2.65l-0.825-0.325L361.6,165l-2.325,0.975L359.25,166l-1.85-1.2l-0.6-2.625l-0.2-0.875l-1.65,0.2h-0.05l-1,1.8l-2.55-0.425
		l-0.45-0.075l-2.5-2.5l-3.65-1l-1.85-4l-3.65-2l-0.775-0.275L335.1,151.8l-0.35-2.3l-3-1l-6.85-1c0-0.033-0.15-0.183-0.45-0.45
		c-0.3-0.3-0.733-0.566-1.3-0.8c-0.429-0.214-0.92-0.314-1.475-0.3c-0.125,0.015-0.25,0.032-0.375,0.05h-0.05
		c-0.181,0.034-0.355,0.076-0.525,0.125L319.7,146.4c-0.47,0.152-0.92,0.335-1.35,0.55c-0.395,0.175-0.77,0.342-1.125,0.5
		c-0.472,0.198-0.913,0.381-1.325,0.55c-0.344,0.107-0.727,0.257-1.15,0.45c-0.24,0.103-0.49,0.22-0.75,0.35
		c-0.543,0.236-1.035,0.453-1.475,0.65c-0.185,0.089-0.36,0.172-0.525,0.25l-0.45,0.225c-0.277,0.128-0.428,0.203-0.45,0.225
		c-0.067,0.033-0.35,0.117-0.85,0.25c-0.391,0.108-0.808,0.191-1.25,0.25c-0.107,0.021-0.207,0.038-0.3,0.05l-0.8,2.45l-1,6.5l0.7,1
		l-0.35,4.35l-1.15,0.8l-3.5,0.85l-2.85,0.15l-1.65,4.35l-0.3,4.5 M362.425,165.325l0.875,0.325l0.3,2.65l2.625,1.7l1.075,0.65
		l2,3.65l-0.5,2.35l4,6.5l3.125,6.95 M356.8,162.175l0.65,2.625l1.825,1.175 M372.95,183.65l-0.2-0.5l-4-6.5l0.5-2.35l-2-3.65
		l-1.025-0.65 M376.125,181.3l-1.175,0.5v0.025 M364.9,190.85v-0.05l2.85-4l3-1.5l1.65-1.225 M385.225,185.4l-0.275-2.75l2.5-4.825
		 M386.25,200.65h0.05l-0.1-3.475 M381.45,201l4.8-0.35l-0.05-2.25 M379.1,209.1l0.15-2.45l2-3.8l0.15-1.85h0.05 M379.1,209.1
		l0.2-2.45l2-3.85l0.15-1.8 M391.175,237.25l-0.925-1.1l-8-12.5l-3.65-8.3v-0.05l0.5-6.2 M368.25,201.85v-0.05l0.3,0.1
		 M369.475,202.15l-1.225-0.3V207 M366.05,208.15h0.05l0.2,0.55l1.475-1.275L368.25,207 M367.775,207.425l-1.475,1.325l8.1,19.45
		l4.35,7.95l2.4,0.5l3.475,0.75l0.475,0.1l3.65,0.35l2.45-0.55l-0.025-0.05 M366.3,208.75l-0.25-0.6l-9.65,1l-0.65,2.35l-3.65,3.65
		l-2.7,7l-2.65,0.7l-3.7-2l-3.65,4.3l2.7,8h-0.05l-33.65-5.65v0.3l-0.6,12.05l-3,4l-2.7,6.35l-2.65,3.3l-2.35,4.7h-1.65
		 M395.15,275.75l4.6-15.6l1.2-0.9l1.8-1.4v-0.025l1.5-2.675l-1.975-1h-0.025l-3.5,1h-9.65h-0.05v-1.5h0.05l5.65-0.65l3.5-1.35
		l2.65-2.65l-9.7-11.75h-0.025 M385.1,237.5h-0.05l-0.425-0.1 M394.75,253h0.05l3.5-1.35l2.65-2.65l-10.65-12.85l-8-12.5l-3.7-8.35
		 M389.1,255.15v-1.5 M396.3,351.475l-0.25-0.975l1.5-19.15l1.7-7.199l-0.5-10.5l-4-36.5l0.4-1.4 M402.75,257.825l0.05-0.025
		l1.5-2.65l-2-1h-0.024 M396.3,351.475l-0.2-0.975l1.5-19.2l1.7-7.149l-0.5-10.5l-4-36.5l5-17l1.15-0.9 M291.5,276.9l0.25-0.05v2.3
		l3,5.7l10.3,10l2.35,0.3l3.65-6.65h0.05l2.95-0.35l2.35,3l3.65,2l0.025-0.025l1.575-0.85l11.4-6.425l2,2l-0.65,6l2.65,2.3l7,8.7
		l-1.65,3.301l1,1.35l-0.65,3.35l21.3,6.301l-1,19l-2.65,3l0.35,3.699l-1.35,2l2.35,1.65h25l9.55,3v-0.025 M345.525,423.225
		L347.45,424l25.85-9.2l9.65-2.149l10.15,5.149l5.85,0.851L404.1,424l22.2,11l1.15-2l1.35,1.3h1.5l1.8-3.149l-0.8-2.851l-2.5-3
		l0.5-2.8l-5,0.3l0.5-4l1.65-1.5l1.149,0.5l0.2-2.8l-2-0.2l1.8-2.3h2.2l-1.2-10l-1.5,0.3l-1.5,1.5l-1.649-2.649l6.149-1.851l0.7-1.3
		l-17.7-16.2l-5.5-6.8h-3.149l-2.425-1.5l-0.575-0.35l1.85-3l-5-11.351l-2-7.8 M471.2,304.5H428.1l0.351,47.35l-32.15-0.35
		 M431.1,313.85h40.2v55.25h-40.2V313.85z M448.7,331.5l1.5,4.7l1,2l-0.851,2.149L444.2,345v6l0.149,1.5l2,1.2l3.5,3.649
		l10.351-0.85l0.649-2v-4l1-2.15l-2.3-2.149l-0.7-2.351l1.2-1L454.7,329l-2.5-2.8l-2.351,0.649l0.2,2.5L448.7,331.5z M441.05,322.35
		l-0.35,0.851l-1.351,0.8l1,0.7l2.7-1.351L441.05,322.35z M464.45,394.8l1.35,1.851l1.8-1.15l-1-1.7l-1.3-0.3L464.45,394.8z
		 M468.6,392.8v1l0.351,2.5l2.149,2.2l0.851-1.2l-0.351-3.149l-1.5-0.15L468.6,392.8z M277.85,49.05l-0.1-0.05l-2.3,0.65h-0.05
		l-1.2-1.25l-3.1-3.1l-3.5-1.225l-0.85-0.275l-1.325-1.65L264.1,40.5l-0.3-0.625L262.9,38v-2.2h-3.3l-2.375-1.3L256.25,34l-2.85-0.2
		l-1,2.35l0.2,2.85l-0.35,2.65l1.15,4.15l-0.5,3.475V49.3l-2.475-1.3H250.4l-2.3,0.5l-2.375-2l-1.45-1.175L244.25,45.3l-5,6.2
		l-3.65,0.3l-3.5-2.1l-1.2-0.7l-1.4-1.35l-1.4-1.35l-1.75-0.925l-1.1-0.575l-3.95,0.35h-0.05l-0.75-0.25l-1.9-0.6l-2.2,1l-3.95-0.5
		h-0.05l-2.15,2.35L212.6,49l-0.85,3l-2.5,2.5l-1,2.15l-1.35,0.65l-3.8,0.85L196.6,54l-4,0.5l-3.5,1.3l-0.2,2.85l-1.475,1.325
		L187.4,60l-0.45-0.3l0.45,7.1l3.7,8.35l2.3,3.65l-3,7.35l2.35,7.65l-3,1.35l-3.35,2.65l-0.3,3.7l0.65,9l2.35,3.65l0.3,6l5.7,11
		l-3.175,15.225l-0.175,0.775l10.35,3.65l-0.7,5l-5,2.7l-2.3,0.3l-4.7,3.7l-2.3,0.875 M287.225,173.825l0.025-0.025l7.35,6.5l3.15-4
		l0.05-0.65 M277.85,49.05L277.8,49h-0.05 M299.975,59.425L299.3,56.8l-4-4.65l-1.7-1.65l5.65,6.3L299.975,59.425z M297.8,64.15
		l3.3-0.35l-1.125-4.375 M299.1,69.15l0.65-1.65l-2-3.35h0.05 M295.4,72.2l3.2-0.55l0.5-2.5l0.7-1.65l-2-3.35 M293.925,73.8
		l0.975-1.5l0.5-0.1 M293.6,50.5l-10.5,1l-1.45-0.75l-0.9-0.45h0.05l-2.95-1.25 M281.65,50.75l-0.85-0.45 M293.925,73.8l1.025-1.5
		l0.45-0.1 M294.5,76.55l-0.9-2.25l0.325-0.5 M300.95,87.775l-1-1.275l-1.5-3.2l-2.5-0.8l-0.5-3.7l-0.95-2.25l0.9,2.25l0.5,3.7
		l2.5,0.8l1.5,3.2l1,1.3L300.95,87.775z M309.55,87.675l-0.45-0.525l-2.5,0.5l-4.15-0.5h-0.05l-1.45,0.625 M311.6,89.475l-0.7-0.175
		l-1.35-1.625 M316.775,85.175l-0.025-0.025l-2,1.65l-1.35,0.35l0.2,2.85l-2-0.525l-0.65-0.175l-1.4-1.625 M320.1,89.8l-1.15-2.15
		l-2.15-2.5l-0.025,0.025l2.125,2.475L320.1,89.8z M321.45,90.225L320.1,89.8 M323.8,97.65h-0.05l-1.5-7.15l-0.8-0.275 M323.8,97.65
		l-1.5-7.15l-0.85-0.275 M323.525,102.475l1.075-1.675l1.5-1.15V97.5l-2.3,0.15 M245.725,46.5l-1.425-1.2l-0.025,0.025
		 M252.9,49.275L250.45,48h-0.025 M263.8,39.875L262.95,38v-2.2h-0.05 M257.225,34.5L256.3,34h-0.05 M267.6,44.075l-0.8-0.275
		l-1.375-1.65 M221.3,45.15l-0.8-0.25 M226.35,45.375L225.3,44.8h-0.05 M232.1,49.7l-1.15-0.7l-1.45-1.35 M247.75,198.5l-0.65-2
		l4.3-1l3.975,3.025l0.375,0.275l5.65-4l2.35,1.35l7.425,1.05h0.025l-0.45-1.55l3.5-2.35v-1.8l3.35-3.35l-1-3.85l2.8-1.3l2.2-3.2
		l3.3-2.15l2.325-3.825 M308.4,227.8l-0.025-0.025L304.6,224.5l-3.65-5.3l-0.025-0.025l-0.35-0.225L297.45,217h-0.025l-2.975,0.85
		l-2.5,2.5v-0.1l-0.15-2.05l-0.05-0.025l-0.775-0.5L288.3,216l0.15-3.15l-1-3h-0.025l-7.475,1.5l-0.05-0.05l-2.6-2.8l-1-3.5
		l-3.35-3.15l-1.75-4.6l-7.4-1.05l-2.35-1.35l-5.65,4l-0.425-0.325 M271.175,197.2l0.025,0.05 M323.025,106.575l-0.625-2.425
		l1.125-1.675 M323.025,106.575l-0.575-2.425l1.075-1.675 M317.875,110.525l0.525-0.375h0.025l4.475,1.35v-0.025l0.7-2.475
		l-0.575-2.425 M317.875,110.525l0.55-0.375 M322.9,111.475l0.05,0.025l0.65-2.5 M315.4,112.925l0.2-0.775l2.275-1.625
		 M317.225,147.45c0.358-0.171,0.733-0.354,1.125-0.55c0.425-0.196,0.875-0.363,1.35-0.5 M321.675,145.95
		c0.551-0.025,1.06,0.058,1.525,0.25c0.533,0.267,0.966,0.533,1.3,0.8c0.3,0.3,0.45,0.467,0.45,0.5l6.85,1l3,1l0.3,2.3
		 M312.55,118.7l0.4-0.05l1.85-3.35l0.6-2.375l-0.65,2.375l-1.85,3.35L312.55,118.7z M307.95,129.95l1.65-2.8l0.5-2V119l2.45-0.3
		 M304.15,147c-0.183-0.267-0.35-0.55-0.5-0.85c-0.233-0.433-0.3-0.767-0.2-1c0.2-0.4,0.466-0.85,0.8-1.35
		c0.3-0.5,0.483-0.767,0.55-0.8l2.15-1.2l0.85-2.15l0.5-4.65l-1.35-3.35l1-1.7l-1.05,1.7l1.35,3.35l-0.5,4.65l-0.85,2.15l-2.15,1.2
		c-0.033,0.033-0.217,0.3-0.55,0.8c-0.333,0.5-0.6,0.95-0.8,1.35c-0.066,0.233,0,0.567,0.2,1
		C303.775,146.451,303.959,146.734,304.15,147z M304.35,147.25l-0.2-0.25 M308.1,150.7c-0.08-0.012-0.146-0.029-0.2-0.05
		c-0.2-0.133-0.55-0.433-1.05-0.9c-0.5-0.433-0.967-0.867-1.4-1.3c-0.434-0.4-0.667-0.617-0.7-0.65
		c-0.033-0.033-0.167-0.216-0.4-0.55 M308.1,150.7c-0.059-0.013-0.109-0.03-0.15-0.05c-0.2-0.133-0.55-0.433-1.05-0.9
		c-0.5-0.433-0.967-0.867-1.4-1.3c-0.467-0.4-0.7-0.617-0.7-0.65c-0.033-0.033-0.183-0.216-0.45-0.55 M312.525,149.45
		c0.453-0.222,0.961-0.455,1.525-0.7c0.242-0.11,0.476-0.21,0.7-0.3 M308.7,150.7c-0.253,0.033-0.453,0.033-0.6,0 M310.25,150.4
		c0.05-0.018,0.1-0.035,0.15-0.05c0.434-0.133,0.667-0.2,0.7-0.2 M338.475,153.025l0.825,0.275l3.65,2l1.85,4l3.65,1l2.5,2.5
		l0.4,0.075 M275.45,49.65l-1.25-1.25 M169.95,38.5l-1.15-2h-0.05L169.95,38.5l1.15,2l0.075,1.75l0.125,2.25l1.075,0.75l2.725,1.9
		l3.5,3.85l0.35,2.15l1.275,1.175L184.1,57.8l1.775,1.175l1.55,1 M168.75,36.5l-3.65,0.8l-3.5,2.2l-3.7,1.15l-0.8,2l-2-2.15
		l-1.675-0.675L153.4,39.8l-1.8,1.5l-2.5-4.3l-1.8-0.2h-0.05l-1.325,2.325L145.9,39.15l-2.625-2.975l-0.025-0.025l-3,1.35l0.35,7.5
		l-2.2,9.65h-1.5l-2.8,5L133.75,63l-0.3-0.05h-0.05l-0.05,1.35l-7.5,10v0.025l1.5,5.475h-0.025l-2.225,0.5l-1.75,12.25l-1.75,2.25
		l0.025,0.025l3.225,8.475v0.05l-1,7.7l1.75,3.5l6.5-2.5l7.75,3.25l2,3.5l-0.025,0.025l-2.725,3.225v0.05l1.25,4.7l-4.5,5.25
		l0.025,0.025l4.225,3.725v0.05l-0.75,3.2l-0.025,0.025l4.775,1.275l3.5-1.25h5.25l3.5-3.25l-1.25-8.5l5.75-3.25l3.75,3.25l5.25,2
		l2.75-2l5.25,1l4,2.5l2,4.25l3.75,5.5l2,1.75l-0.75,3l3.075,1.025 M172.375,45.25l-1.125-0.75l-0.075-2.25 M113.05,36.85l2.25-0.65
		l3.15,2.65V38.8l-3.15-2.65L113.05,36.85l-2.25,0.65l-1.025,3.575L109.6,41.65v0.05l0.175-0.625 M122.35,48.875L121.1,43l-0.75,0.2
		l-2.25,0.65V43.8l0.35-4.95 M125.6,49.5l-0.8-1.15l-2.35,1l-0.1-0.475 M125.6,49.5l-0.8-1.2l-2.35,1l-0.1-0.425 M120.35,43.2
		l-2.25,0.6 M145.925,39.125L143.3,36.15l-0.025,0.025 M155.1,40.5l-1.65-0.7l-0.025,0.025 M130.3,59.3l-0.7-7.3l-4-2.5
		 M133.45,62.95l-2.35-0.3l-0.8-3.35v0.05l0.8,3.35l2.3,0.25 M127.325,79.8l-1.475-5.45v-0.025 M124.85,103.35l-3.25-8.5
		l0.025-0.025 M186.95,59.7l-1.075-0.725 M180.225,54.325L178.9,53.15L178.6,51 M109.95,46.3l-0.85,1.5v0.05l0.85-1.5V46.3z
		 M109.6,41.7l0.35,4.6 M66.45,62.5l-1.65,0.3l-2.35-0.5l-3,1.85L58.3,67.8l-3.85,1l-2.65-3.15L48.95,63l5.5,5.85l3.85-1l1.15-3.65
		l3-1.85l2.35,0.5L66.45,62.5l1.325,1.15 M82.85,71.925L82.1,70.8l-4.5,1l-3.3-3.15h-2.7l-2.5-3.85l-1.325-1.15l1.325,1.2l2.5,3.85
		h2.7l3.3,3.15l0.725-0.15l3.775-0.85L82.85,71.925z M43.6,62.175L41.1,62.3l-1.25,1.225l1.25-1.175L43.6,62.175z M39.85,63.525
		L37.8,65.5l-0.35,4.15v0.05L38.3,75l3,2.35l1,3.325V80.7l-0.375,0.5l-0.975,1.3l-0.7,0.175L38.1,83.2l0.35,3.1v0.05l-4.625,6.825
		L33.8,93.2l2,1.8l0.8,1.85l4,2l4.35-0.15l2,1.65L51.6,101l0.525,1.625l0.05,0.125l0.125,0.425v0.025l-1,3.65l-0.05,0.35l-0.45,2.95
		v0.05l2.275,1.975L53.1,112.2l-0.3,8.65l3.3,3.15l-1.525,2.825l-0.275,0.5v0.025l1.65,4l8.475,1.85h0.025l-2,3.5l0.5,4.6v0.05
		l2.15,6.15l3-0.65l7.5,5.5l0.7,2.7h0.025h0.025l6.5-0.2l2.25-2.75l5.75,3l6,0.5l2.75-3l3.5-0.5l0.75-3.75h2.75l3.5,5.75l3.75-0.5
		h1.5l2,8.75l3.5,1.5h2.75l1.5-6.25l2.75-0.75l2.75-2l2.5-3l1.05-0.35l0.025-0.05h-0.025l0.45-1.4l1.725-3.95l0.025-0.05l1-3.75
		l1.975-3.225 M48.95,63l-2.85-1l-2.5,0.175 M40.25,82.675L38.1,83.15v0.05 M38.45,86.3l-4.65,6.85l0.025,0.025 M42.3,80.675
		L41.925,81.2 M106.6,60l-0.925,1.65L105.1,62.7l-3-1.85l-4,3.35l-2.25,0.45L94.1,65l-1.15,1.15l-1.15,1.2l-2.35,4L87.1,71.2
		l-1.75,0.9L83.6,73l-0.75-1.075 M109.8,53.325v0.025l-1.7,6.5L106.6,60 M109.1,47.85L108.95,52l0.85,1.325l-1.7,6.475l-1.5,0.2
		 M105.675,61.65l-0.575,1l-3-1.85l-4,3.35l-2.25,0.5 M92.95,66.15L91.8,67.3l-2.35,4l-2.35-0.15l-1.75,0.95 M52.3,103.175l-1,3.625
		l-0.05,0.4 M54.575,126.825L54.3,127.3v0.025 M64.425,133.2l-1.975,3.45v0.05 M76.45,155.5l-0.1-0.45 M76.325,155.05l0.125,0.45
		l-3.5,8l0.5,4.65v0.05l1.15,0.15L75.8,180l-1,3.5l1.65,2.2l4.5,4.5l-1.35,4.3l-0.4,0.45l-1.225,1.375l-0.025,0.025l1.65,4.15
		l-0.4,1.15l-0.375,1.15l-0.025,0.05l2.5,1.35l2.775,2.625l0.025,0.025l1,3.35l4.35,4.8l6.15,3l7.35,1.2l2.5,2.65l3.5,2.35
		l1.15,3.65l5.2,7.35l0.1,0.55l3.45-1.65l0.25-1.5l2.25-1.75l4.25,0.75l3.75-3.25l-3.75-4.75l1.25-2.5 M79.2,194.95l-1.25,1.35
		l0.025,0.025 M141.825,118.825l-1.975-3.475l-7.75-3.25l-6.5,2.5l-1.75-3.5v-0.05 M140.1,135.85l-4.25-3.75l0.025-0.025
		 M169.325,155.725l4.775,1.075l1.3,4.7l9.7,2.65l2-0.775 M134.175,151.45l1.925-0.65l3.5,3.5l1.75,0.5l-0.025,0.05l-1.725,5.7v0.05
		l1.1,4.325l0.025,0.15l0.125,0.475l1.75,3.25l-0.025,0.025l-1.975,3.225l-3,2.75l0.025,0.025l1.475,3.975l4.5,3.25l5.75-4.25
		l2.25-6l3-1.5l2,3l3.6,0.2l-0.1-0.35h6l5-7l-3-0.65l-3.7-3.7l2.35-6.65l2.575,0.575 M141.325,154.85l-1.725-0.5l-3.5-3.5
		l-1.95,0.65 M142.575,168.825l-1.725-3.225l-0.125-0.525 M160.225,173.55l-3.625-0.2l-2-3l-3,1.5l-2.25,6l-5.75,4.25l-4.5-3.25
		l-1.5-4l0.025-0.025 M162.125,195.15l3.675-9.65l-3.35-4.3l-2.2-7.65h-0.025 M164.925,195.85l-2.825-0.65l0.025-0.05
		L164.925,195.85z M167.85,196.45l-0.025,0.025l0.075-0.025l-1.55,2.4l-1,7l-1.25,5.25l-0.225,0.275l2.975,2.175v0.05l0.5,9.45l3,2
		h1.75l5.5,4l2.75,4.25l2.75-1.25l4-1.25l3.5,1.5l2-2.25l1.5,2.5l-0.025,0.025L192.6,235.3v3.5l5,7.25l3.75,4h1.75l2,1.75l1.75-2.5
		l3.275-0.125l3.475-0.125l5,0.5 M167.825,196.475L167.8,196.5h-0.025h-0.025l-2.825-0.65 M167.775,196.5l0.075-0.05l4.9-2.3l7-1
		l3,0.65l2.65,3.35l3-4.65v-4.35l2,2l1.7,8.65l6.65-3.3l4,7l1-2h7.35l7,10.65l7,3.35l3,3l5-8l1.65-5.7l5.35-2.3l1.65,1.65l3.4-1.35
		l2.325-0.925l0.925-0.375l-0.65-2l0.7,2l-0.975,0.375 M160.1,173.15l0.125,0.4 M163.85,211.4l-5,6.45l-3,1.75l1.5,9v2.5l-2.75,1.5
		l-0.5,4.75l-1,3.75l-0.35,3h0.1l4.75,5.25l2.5,5.25l4.25,1.75l2.5,2.5l0.25,9l-0.25,5.75l3.25,7h2.75l4.5-1.75l7.5-1.5l2.75-3
		l0.775-0.1 M210.125,249.225l-3.275,0.125l-1.75,2.5l-2-1.75h-1.75l-3.75-4l-5-7.25v-0.05 M166.85,213.6l-3-2.2l0.025-0.025
		 M194.075,232.575L192.6,230.1l-2,2.25l-3.5-1.5l-4,1.25l-2.75,1.25l-2.75-4.25l-5.5-4h-1.75l-3-2v-0.05 M115.4,235.75l0.7,3.1
		l-0.7,7.65l-3.8,1.65l-2.85,5.5l-0.85,3.2l1.75,4.775l1.6,4.375l1.5,2.5l-5,4.65v4.35l3.35,3l1.5,3.85l5.8,5.3l10,6.35h0.05
		l7.15-0.35l1.125-2.6l0.675-1.55 M151.975,244.25l-3.375,0.6l-3.25-0.5l-4-4.75l-1.25-8l-2.25-4.5l-2.75-0.75l-3.75-0.5l-4.5-4.75
		 M151.975,244.25l0.775-0.15 M152.85,244.1l-0.875,0.15 M137.425,291.525L140.4,294h0.05l3.15,0.15l1.65,3.85l-0.35,1.35l2.7,1.65
		l3.5,1.35h3.65l2,1.301l1,3.5l0.85,5.199l2.5,0.15l1.55-1.9l0.6-0.75h0.025l3.125-1l1.7-0.85l1.65-0.85l0.025,0.024l1.475,1.476
		h0.05l2.45-0.801l3.35,3.301l21.3,6.699l0.65,0.101l2.55-2.351l1.25-2.5l-0.025-0.024l-6.725-4.726l0.025-0.024l3.475-3.976v-0.05
		l0.75-8.2l2-3v-0.05l-0.25-2.7l1.75,0.25l1.7-1.7l2.3-2.3l-0.025-0.025l-3.475-5.975v-0.025l0.075-0.225l0.125-0.45l-3.7-0.8
		l-3.75-1.5l-4.25-1l-1.5-2.75l-2.975,0.4 M136.725,293.05l0.7-1.525 M79.2,201.65l-0.4,1.15h0.025 M168.1,308l1.675-0.825
		 M162.65,310.6l0.625-0.75 M343.05,220.85l0.05-0.05l3.65,2l2.65-0.65 M300.575,218.95l0.325,0.2l0.025,0.025 M291.95,220.25
		l2.45-2.45l3-0.8h0.025 M279.9,211.3l7.5-1.5l0.025,0.05 M290.975,217.675l0.775,0.475v0.025 M291.5,276.9l0.6-1.05l-6-6.35
		l-2.65-2.3l0.35-4.7l4.275-2.625l0.025-0.025l1.3,0.825l2.4,1.525l3-4h0.65 M289.4,260.675l-1.325-0.8 M271.35,287.625l0.05,0.025
		l2.7-1.8l2.35-9l2-1l4.35,1.65h4.65l4.05-0.6 M311.1,288.5l-3.65,6.65h-0.05 M321.65,292.275l-1.55,0.875l-0.025-0.025
		 M245.15,201.8l2.95,2.7l1.9,10.8l0.45,2.525l2.375,1.2l0.975,0.475l0.65,8.7l-1.35,9l-2.65,4l-1.775-0.525L248.1,240.5l-2.65,2.7
		l-10-2l-0.2,2.65l-0.15,2.65l-0.975,2.125l-0.975,2.125l-0.05,0.1l0.175,0.9l0.525,2.75l1.075,2l2.2,4l0.075,0.1l0.2,0.35
		l12.5,3.15l1.75,3l-0.25,3.95v0.05l1.75,2.25l3,0.25l4-2.75l4.75-1l-1.25,6.45v0.05l1,3.5l3,0.75l2.5-2.25l1.25,1.5v2.45v0.05
		l-3.225,2.725L268.1,285.1l0.75,1.75l2.5,0.775l-1.25,0.875l0.7,6.65l3.3,3.35l5,6.3l6.7,3l3.3,4.7l-8.3,4l-2.35-1.35l-2.65,1.35
		l-1.35,5.3l3.35-2l0.65,5l2,6l4.65,3l-2,6.7l-3,5l0.35,12l-1.35,2.65v6.35l6.6,9.5l0.675,0.225c0.075,0.024,0.15,0.05,0.225,0.075
		l29.5,35.2l29.425,11.725 M248.675,240.675l1.725,0.475l2.7-4l1.3-9l-0.65-8.65l-0.925-0.475 M250.45,217.825l-0.05-0.025l-0.4-2.5
		 M235.25,243.85l0.15-2.7l10,2l2.7-2.65 M218.35,247.35v-0.05l4-1.75l1.75,1l1.25,3.25l2.175,0.3l5.575,0.65l1.025-2.125
		 M227.525,250.1l-2.175-0.25l-1.25-3.25l-1.75-1l-4,1.75l0.25,2.2v0.05l-5-0.5l-3.475,0.125 M233.15,250.75h-0.05 M234.875,256.5
		l-1.125-2l-0.475-2.75 M236.75,262.075l0.1-1.225l0.5,0.1 M204.575,279.9h0.025l1.25-3.55l4.75,1l2-2l2.25,2l6,1l4.5-1.75l3.5,1.75
		l1.75-0.25l2.25-8l3.25-0.25v-0.05l0.65-7.725 M204.575,279.9l-0.15,0.45 M204.55,279.9h0.025 M204.35,280.575l3.5,5.975
		l-0.025,0.025 M268.125,285.075l-0.025-0.025l3.25-2.75 M196.125,308.325l6.725,4.725l-0.025,0.025 M285.7,376l-15.75-5.7
		l-1.65-8.649l-2.2-2.15l-1.8,2.3l-33.5-23.3l-14-16.7l-11.75-2.55l-6-1.3 M455.1,397.8l-1.149-0.8v1l1,1.8l2.149,0.351L455.1,397.8
		z"/>
	
		<path fill-rule="evenodd" clip-rule="evenodd" fill="none" stroke="#aaa" stroke-width="0.7" stroke-linecap="round" stroke-linejoin="round" stroke-miterlimit="3" d="
		M297.8,175.65l3.4,3.45l1.35-1.35l0.55,3.1l-0.4,0.75l0.8,4.05l2.7,1.35l3.45,3.85l2.5,1.35l3.45,9.05l2.9,1.75l4.8-0.6l2.15-2.3
		l4.8,3.45l1.55,1.95l2.5-2.15l3.25-1.7l3.1,0.75l-0.95-6.5l2.9-6.15l2.7-3.7l2.9,1l2.85-3.1l0.4,3.25l2.5,1.55l1.15,2.3l-1.55,2.7
		l1.95,1.35l1.75-1.9l1.15,0.95l3.85-1.35l2.575,0.6 M379.6,198.55l0.4-2.75l2.5-0.6l-1.4-2.5l-1.1-1.4l-0.65-1.75l-1.6-0.35
		l-0.9,1.1l-0.6-0.25 M373.55,203.2l1.35,3.3l2.7-0.6l0.6-2.3l2.85-2.1 M368.25,207l4-0.7l1.15,1.5l-1.95,3.5l1.15,5.95l5.65-1.6
		 M295.45,258.2l2.9,4.65l3.45,1.35l0.95-2.5l0.4-4.45h10.4l10.95,2.9l6.75,2.9l5-5.4l7.7-0.75l4.25-4.45l7.7-2.3l1.55-3.3
		l3.85-0.15l3.45,1.5l3.65-1.5l3.3,1.5l4.6,1.2l2.3-2.7l1.55-2.5l1-7.55 M380.15,244.2l1.9,1.15l0.2,3.25l1.75,1.15l3.25,0.95
		l0.8,2.15l-4.25,3.85l-0.55,1.9l2.65,2.15l-2.65,14.8l11.9,0.2 M402.025,374l-2.275-0.25l-1.15,1.75l6.15,3.85l-22.15,4.4
		l-2.5,1.55l-2.1,2.9l-3.45,2.5l-3.5-3.101l-6.55-1.149l-3.25,4.25l2.7,8.85l-4.45,0.95l-0.95-1.35l-3.65,0.6l-3.65,2.9l-2.15,6.899
		l4.25,2.15l-3.1,3.85l0.2,2.7l-1.9,0.35l-0.2,2.5l-2.825,2.125 M415.15,352.4l-7.9,17.899l-3.85,3.851l-1.375-0.15 M187.1,163.375
		l1.75,11.475l3.25,3l4,2.75l6.25,1l8-4.5l4.5,6l4.5-1.75l2,1.75l0.85,2.925l3.15-5.175l2.25-1.75l1.75,0.25l1.25-2.25l0.25-4.75
		l2.75-2.75l4.25,0.5l1.25,1.75l1.25-0.5l0.75-2.5l3-2.75l-1-7.25l4-0.5l3.25-3V142.6l3.5,3.75l3.5,5l4.5,5.25l5,3.25l2.75,2.5
		l3-0.25l0.75,2.75l5.25,1l3-0.5l2.5,3.25l3.125,5.225 M222.2,186.025l0.4,1.325l-0.25,2.25l3.5,1l-0.25,3l-3.25,1.25l-1,4.5l1,3
		l-8.6,1 M53.075,112.175l5.275-0.325l2.5,1l2.5-2l5.25,0.5l3.5-5.5l5,2l1.25-6l2-6.5v-4l-2.5-3.25l0.475-16.4 M126.85,221.1
		l-3-7.25l0.75-3.5l7-2.75l3.5-2.25l-0.75-6.25l-3-1.25l-1.5,3.25l-4,1.75l-2.25-6h-3.75l-4.5,2.25l-5.25,0.25l-4,4.5l-5-1.25
		l-1.75,4.5h-4l-3.75,3.25l-3,3.25 M136.325,146.1h4.025l3.75,1.75l5.5-0.25l4.5,0.5l-0.25,3l2.75,1.75l2.75-0.75l1.75-1l3.75,2
		l2-1.5l3.25,0.75l-0.775,3.375 M119.85,196.85l-0.75-10.75l4.75-0.5l0.25-6.5l5.5-2.75l7.5-0.25 M210.125,249.175l3.125-12.675
		l1.7-0.15l1,1.65l0.5-2.15l-1.35-2.15l-0.65-4.35l6.8-0.65l0.35-0.7l-0.15-1.3l-2.35-0.7l-2.65-2.3l-2-4.2l-1.35-2v-2.3l0.65-2.5
		l-0.8-2.85l3.8,0.35 M188.375,274.25l-0.525-3.45l1.75-1.25l2-4.75l2.5,0.75l1.75,3.25l3,0.25l0.25-3.5l4.75-2l3.975,0.5
		l2.3-14.825v-0.05 M109.65,261.625l4.95-4.075l1-2.5l7.5-2.25l1.5,1l1.75-1l2-3.25l3,1.25l4.5,2.75l4-1.75l5.5-6.5 M155.95,248.15
		l-3.35,0.15l-1.5,1.5l1.25,2.75l-1.25,1.25l-3,0.5l-1,3l3.25,3l2.75-3.25l2.5,2.5l-2.75,3.75l-4.5,4.25l-1.25,1.75l-4,2.25
		l-4.5,0.75l-2.75,2.75l-3.25,5.75l-1.25,4.25l6.05,6.45l0.025,0.025 M144.6,295.35l4-3.75l1-3.25l2,0.25l3-0.75l1.25-4.5l2.75-2.25
		l6-0.25l3,1.25l2.5-1.5 M340.65,202.4l8.25,8.1l6-3.1l1.5,1.75 M254.9,227.95l3,2.7l1.7-0.5l2.3,1.15l2.2,0.15l0.15,6.2l2.15,2.15
		l-0.025,0.55l8.725-3.15l2.2-3.5l-2.35-4l-0.65-2.5l1.15-0.2v-2.15l0.65-3.15l0.7-1.7l2,1l0.8-2.3v-2.35l2.85-0.35l1.65-3.5
		l2.7-1.65 M343.95,256.9l0.6,1.95l-7.55,4l-4.2,4.65l3.05,13.45l-1.35,2.5l-0.75,2.15 M266.375,240.35l-0.125,4.6l2.65,5.5l2.5,3.5
		l2.7-0.15l2.65,1.85l-2.35,8l-2.8,7.5l4.8,5 M229.1,217.15l1.15,0.3v1.5l-1,1.35l2.5,1.85l0.85,5.65l-1,1.5l1.5,2.65l0.65,3.7
		l-0.85,0.8v1.5l-0.8,2l2.5,1 M207.825,264.05l-0.475,3h4l3.5-0.5l-2.25-5.25l2.75-4.25l2.5,2.75l3.5,3l6.75,0.5l4.5-1.5l4.15,0.275
		 M205.05,319.25l1.55-4.95l2.25-5.25l3,2.75l15.25,2.5l3.75-3l0.5-5.5l-1.5-5l-1.75-1.75l0.325-2.95H223.6l0.5-2.25l-2-1l1-2.25
		v-3.25c-0.033,0.033-0.633,0.2-1.8,0.5c-1.2,0.333-2.716,0.667-4.55,1c-1.833,0.333-3.767,0.533-5.8,0.6
		c-1.924,0.064-3.724-0.119-5.4-0.55 M228.425,296.1l0.175-1.55l4.5-6.5l3.5-2.75l3.75-2l7.25,0.75l0.25,2.5l7,0.5l6.75,5.25l3-2.5
		l2-4.5l1-4.7 M342.1,313.15l-3.9,0.55l-2.55,0.75l-2.5,2.7l-1.5,2.699l-0.4,3.65l-1.55,1.95v3.45l0.4,3.25l-3.65,1.55l1.5,5.399
		H317.4l-4.85,3.45l-1.3,6.351l5,6.35l6.35,1.55l0.75,3.101l1.95,2.1l-6.55,3.1l-1.15-2.35l-3.1,3.5l-0.4,12.9l-3.85,2.699
		l-2.7,5.351l3.3,1.95l-0.4,1.899l4.45,4.25l6.15,4.05l1.15,6.15l1.15,1.55l-0.95,0.75l1.35,3.7l-0.6,2.5"/>
	
		<path fill-rule="evenodd" clip-rule="evenodd" fill="none" stroke="#000000" stroke-width="0.6" stroke-linecap="round" stroke-linejoin="round" stroke-miterlimit="3" d="
		M46.1,33.3l-0.6,1.5 M42.3,38.55l-0.7,0.7l-0.15,2 M41.3,42.25l-0.2,2.5h-0.45 M39.6,44.6l-2.95-0.3 M36.2,45.15l-1.2,2.7
		 M45.1,35.8l-2.05,2.05 M36.15,52.5l1.15,2.75 M37.7,56.15l0.85,2.1l0.4,0.65 M39.5,59.75l1.6,2.55 M34.6,48.8l1.15,2.75
		 M75.05,217.05l2.25-1.95 M77.8,214.25l1.1-2.75 M81.1,207.25l2.975-0.425 M79.3,210.55l1.1-2.75 M52.2,212.8l1.9,0.55l0.65,0.75
		 M55.45,214.8l2,2.2 M58.15,217.75l1.45,1.6l0.75,0.4 M61.25,220.25l2.6,1.45 M64.8,221.85h3 M68.8,221.85h0.75l1.7-1.45
		 M48.35,211.7l2.85,0.8 M47.1,211.35l0.25,0.05 M72,219.7l2.25-1.95 M138.85,301.8v-0.25l-1.3-2.35 M139.25,305.75L139,302.8
		 M139.75,309.75l-0.15-0.45l-0.2-2.5 M141.05,321.1l0.9-2.8 M142.35,317.3l-0.95-2.8 M141.05,313.5l-0.95-2.8 M140.75,324.9
		l-0.4-1.601l0.4-1.2 M142.9,332.65l-0.75-2.851 M141.8,328.75l-0.75-2.85 M139.95,339.3l0.85-0.25l1-1.8 M137.4,341.75l0.45-1.7
		l1.15-0.35 M137.1,343.05l0.05-0.3 M142.25,336.3l1.05-2l-0.1-0.649 M137,298.25l-1.4-2.6 M269,374.6l1.05-2.8 M267.6,378.35
		l1.05-2.8 M266.2,382.1l1.05-2.8 M264.8,385.8l1.05-2.8 M263.4,389.55l1.05-2.8 M262,393.3l1.05-2.8 M259.2,400.8l0.15-0.25
		l0.9-2.5 M257.75,404.55l1.05-2.75 M259,408.2l-1.2-2.7 M258.5,411.5l1.35-1.45l-0.4-0.899 M255.85,413.05l1.5-0.25l0.45-0.5
		 M462.55,402.1l-2.95-0.199 M471.85,401.65h-0.25 M466.55,401.9l-2.95,0.149 M470.55,401.7l-2.95,0.149 M454.6,401.5l-2.949-0.2
		 M450.6,401.2l-1-0.05l-1.949-0.301 M446.65,400.65l-2.95-0.45 M442.7,400.05l-2.75-0.399 M458.55,401.8l-2.95-0.2 M434.7,399.3
		l-2.95-0.149 M438.7,399.55l-2.95-0.149 M260.6,397.05l1.05-2.8"/>
</g>
<text transform="matrix(0.85 0 0 1 340.5498 353.2744)" fill="#069" font-family="'_sans'" font-size="8">P91</text>
<text transform="matrix(0.85 0 0 1 345.2002 265.7744)" fill="#069" font-family="'_sans'" font-size="8">P85</text>
<text transform="matrix(0.85 0 0 1 246.2002 304.7744)" fill="#069" font-family="'_sans'" font-size="8">P90</text>
<text transform="matrix(0.85 0 0 1 181.0498 253.4243)" fill="#069" font-family="'_sans'" font-size="8">P88</text>
<text transform="matrix(0.85 0 0 1 123.1504 270.9243)" fill="#069" font-family="'_sans'" font-size="8">P89</text>
<text transform="matrix(0.85 0 0 1 194.7998 218.5742)" fill="#069" font-family="'_sans'" font-size="8">P87</text>
<text transform="matrix(0.85 0 0 1 124.2998 185.5742)" fill="#069" font-family="'_sans'" font-size="8">P80</text>
<text transform="matrix(0.85 0 0 1 149.2998 101.8242)" fill="#069" font-family="'_sans'" font-size="8">P79</text>
<text transform="matrix(0.85 0 0 1 238.5498 122.3242)" fill="#069" font-family="'_sans'" font-size="8">P81</text>
<text transform="matrix(0.85 0 0 1 93.0498 85.6743)" fill="#069" font-family="'_sans'" font-size="8">P78</text>
<text transform="matrix(0.85 0 0 1 259.6504 220.2744)" fill="#069" font-family="'_sans'" font-size="8">P86</text>
<text transform="matrix(0.85 0 0 1 318.4502 181.5742)" fill="#069" font-family="'_sans'" font-size="8">P84</text>
<text transform="matrix(0.85 0 0 1 367.5498 220.7744)" fill="#069" font-family="'_sans'" font-size="8">P83</text>
<text transform="matrix(0.85 0 0 1 374.4502 152.0742)" fill="#069" font-family="'_sans'" font-size="8">P82</text>
</svg>
