<?xml version="1.0" encoding="utf-8"?>
<!-- Generator: Adobe Illustrator 15.0.2, SVG Export Plug-In . SVG Version: 6.00 Build 0)  -->
<!DOCTYPE svg PUBLIC "-//W3C//DTD SVG 1.1//EN" "http://www.w3.org/Graphics/SVG/1.1/DTD/svg11.dtd">
<svg version="1.1" id="Layer_1" xmlns="http://www.w3.org/2000/svg" xmlns:xlink="http://www.w3.org/1999/xlink" x="0px" y="0px"
	 width="800px" height="600px" viewBox="0 0 800 600" enable-background="new 0 0 800 600" xml:space="preserve">
<g>
	<path fill-rule="evenodd" clip-rule="evenodd" fill="#c8c8c8" d="M236.7,277.05l0.4-0.975l0.1-0.225l0.125-0.525l0.025-0.175l1.1-5
		l3.5-0.5l2.775-1.125l0.975-0.375h3.2l2-2.75l1.5-0.5v-1.2l-3.5-3.25l-1.75-5.425l-0.25-0.825l-3.2-2.2l-0.85-0.375l-2.4-1.125
		l-2-1.25l-1.5-1.5l-2.95-0.5h-0.025h-0.025l-0.35,0.1l-0.6,0.15l-1.4-1.125l-1.35-1.125l1-2.75l0.75-1.45l0.25-0.5L231,238.8
		l0.75-2.5l20.4-13.95l18.1-2.45l-0.35,21.6l11.65-11.1c0-0.033,0.117-0.2,0.35-0.5c0.267-0.267,0.567-0.566,0.9-0.9
		c0.367-0.3,0.717-0.5,1.05-0.6c0.533-0.033,1.15,0.033,1.85,0.2c0.7,0.2,1.183,0.367,1.45,0.5c0.2,0.066,0.483,0.217,0.85,0.45
		c0.367,0.233,0.7,0.45,1,0.65c0.3,0.233,0.467,0.35,0.5,0.35l8.3,8.65h7.45v-24.05h4.5v-15.1c0.033,0,0.4-0.05,1.1-0.15
		c0.667-0.133,1.45-0.3,2.35-0.5c0.867-0.167,1.6-0.4,2.2-0.7c0.434-0.233,1.217-0.8,2.35-1.7c1.1-0.867,2.283-1.867,3.55-3
		c1.3-1.1,2.434-2.117,3.4-3.05c1-0.934,1.6-1.55,1.8-1.85c0.233-0.4,0.483-0.883,0.75-1.45c0.233-0.533,0.45-1,0.65-1.4
		c0.167-0.4,0.25-0.617,0.25-0.65h12.825H328.15c0,0.033-0.083,0.25-0.25,0.65c-0.2,0.4-0.417,0.867-0.65,1.4
		c-0.267,0.567-0.517,1.05-0.75,1.45c-0.2,0.3-0.8,0.917-1.8,1.85c-0.967,0.933-2.1,1.95-3.4,3.05c-1.267,1.133-2.45,2.133-3.55,3
		c-1.133,0.9-1.917,1.467-2.35,1.7c-0.6,0.3-1.333,0.533-2.2,0.7c-0.9,0.2-1.684,0.367-2.35,0.5c-0.7,0.1-1.067,0.15-1.1,0.15v15.1
		h-4.5v24.05h-7.45l-8.3-8.65c-0.033,0-0.2-0.117-0.5-0.35c-0.3-0.2-0.633-0.417-1-0.65c-0.367-0.233-0.65-0.383-0.85-0.45
		c-0.267-0.133-0.75-0.3-1.45-0.5c-0.7-0.167-1.317-0.233-1.85-0.2c-0.333,0.1-0.684,0.3-1.05,0.6c-0.333,0.333-0.633,0.633-0.9,0.9
		c-0.233,0.3-0.35,0.467-0.35,0.5l-11.65,11.1l0.35-21.6l0.3-0.05V201.7l-28.1-13.7l-0.1-1.35l3.325-2.625L245.7,184l0.7,0.5
		l0.625-0.375l1.875-1.075h3.5l1.55,0.95l1.2,0.75l4.7,0.25l1.75-1l-1.5-2.45v-0.025l0.15-0.425l1.35-3.3l-2.5-3.5l0.75-1.75
		l-1.45-2.5l-0.25-0.45l2.45-3.25l2.5,0.25l1-1v-1.5l-2.5-2l-1-1.25l0.4-2.2l0.1-0.5l4.75-0.25l0.1-0.5l0.4-2l1.25-1.25l4.45-0.25
		l3,1l2.25-1.5l0.425-0.5l1.325-1.5l3.2,0.5l1-1l2.35-4l0.25,0.55l10.25,1.15l0.5,3.15l6.5,3.65l4,3l2.65-4.15l4.15-8.5l3.15,8.15
		l6.6,6.8l4-0.5l3.65,1.65l7.65,6.15l4.65,2.65l-1.35,6l-2.3,2.65l1.025,6.3l0.625,3.8l-1,6.5l-2.65,1.15l-3.5-0.85l-2.3,3.65
		l-1.2-2.15l-5.45,4.5l1,5.95l3.3,3.85l-1.5,0.9l-1,2.25l3.2-1.5l1.65,1.65l0.3,4.65l-3.45,3.5l0.8,2.65l1.85-1.85l0.8,1.65l2.5,1.5
		l1,1.2l-0.35,3.45l-4.65,3.65l-4.3,2.15l-5.65,1.2l-5.95,3.45l7.3-2.3l7.3,0.8l2.1-0.2l-1.075,2.1l-1.125,2.1L341,264.4l-0.55-0.05
		l-2.15-0.2h-0.05l-6.2,3.25l-5.25,3.75l-10.45-1.25l-22.15,7.7c-0.034,0-0.317,0.133-0.85,0.4l-0.425,0.2
		c-0.45,0.2-0.925,0.45-1.425,0.75c-0.667,0.433-1.167,0.9-1.5,1.4c-0.333,0.533-0.633,1.1-0.9,1.7l-0.275,0.65
		c-0.146,0.341-0.271,0.657-0.375,0.95c-0.133,0.434-0.2,0.667-0.2,0.7l-2.75,3.2l-7.95,2.5h-3.25l-1.5-1l-2-0.75l-2.2-0.5h-0.05
		l-0.75,0.75l-2.95,1.25l-4-2.25l0.75-3.45l-2.5-1.25l-2,1.25l-2.95,0.7l-2.5-1.95l-1.25-1.5l-2.25,0.75l-1.75-0.25l-5.7-4.5
		L236.7,277.05z M330,237.7l2-1.35l0.85,1.85L330,237.7z M339.95,225.6v3.8l-3.8,6.65L333,235.7l3.45-2.8l1.35-7l1.65-2
		L339.95,225.6z M298.3,131.5l2.65-2l6,0.5l2.3-1.95l0.35-1l2.65,1.65l0.5,1.65l-3.3,0.85l1.45,3.3l2.35,2.8v3l-2.5,3l-8.3,2.8
		l-7.8-1l-5.3-2.45l2.5-3l3.45-1l4.65,1l3-1l0.65-2.35l-4.65-2.45L298.3,131.5z M314.05,135.8l0.3-2l1.7-2.35l0.5,2.7L314.05,135.8z
		 M317.5,133.65l0.7,1.5l-1.2,1.65l-1.45-1.15L317.5,133.65z M312.25,130.85l1.65,0.5l-0.3,1.5h-2.65l0.8-2H312.25z M165,250.95
		l-1.75,7.75l-0.95,1.75l-3.5,1l-1.25,1.1l-0.05,0.05l-0.9,0.8l-2.625-0.475l-2.625-0.475l-3.5-1.75l-2.7-2l-3.25-3.5h-2.5
		l-0.65-0.875l-0.85-1.125l-2.75-0.75l-0.85-0.5l-3.575-6.35l2.775-0.55l-2.775,0.55L128.7,242l-0.175-2.85h0.175h-0.175
		l-0.025-0.45l0.2,0.45l0.125,0.275l0.375,0.875l1.75,0.2l1.725-0.2l2.225-0.25V240l0.05-0.4h0.025l0.75,0.1l0.925,0.1l3.75-1.75
		l9.2-1.75l2.3-1.8l0.6,1.4l0.35,0.9l0.075,0.4l0.675,4.05l2.25,2.25l1.575,2.675l0.625,1.075l3.25,0.25L165,250.95z M135.725,239.7
		l2.275,4.65l-5.65,3l5.65-3L135.725,239.7z M78.15,289.45v4.8v0.05l2.5,1l3,2.25l4.2,1.25l1.875,1.275l0.625,0.425l8.7,2.75
		l5.25,3.9l3.15,2.649l3.55,3.4l2.8,3.675l0.55,0.725l-0.1,1.851l-1.5,1.2L112,321.9l-0.75-0.5l-2-0.75l-1.7-1.45l-0.025,0.024
		L107.5,319.2l-0.9,1.2l-0.8,1l-3,0.25l-0.75,4.75l-1,1l-0.2-0.15v-0.05l-1.5-1.05l-0.75-1.5h-0.05l-0.6,0.149l-0.375,0.101
		l-1.475-1v-2.5l-1-3.7l0.25-0.75v-1.5l-2.25,0.25l-2.2-1l-0.025,0.024L90.85,314.7l-1.225,0.725l-4.475-1.975l-3.5-3l-1.95-0.5
		l-3.25-1.7l-0.025,0.025L76.4,308.25l-2.225,2.675l-6.425-7.175l-0.025,0.025L67.7,303.75L64.475,305l-2.225-0.75v0.025
		l-0.05-0.025l-1.825,2.45l-0.625,0.8l-0.25,1.7l-2.7,0.75L56.75,310l-1.25,1.2v9l-1,3.45L51,326.4l-1.15,1.75l-0.5-0.351l-2-2.649
		l-2.95-1.65l-1.85-1.65l0.65-3L40.75,322l-1.5,0.35l-0.7-1l1.5-5l0.7-4.3v-4l3.3-1.3l4-2.85l9.75-10.75l6-5.15l6.15-10.15l2,1.7
		v1.8l-1.7,3.65l3.15,2.65L78.15,289.45z M78.05,264.6l1,1.35l0.15,0.8l-1.45,1l-3.5-2.5l-1-1.5l2.3-0.15L78.05,264.6z M78.25,294.8
		h-8.1l-7.5,8.95l7.5-8.95H78.25z M368.55,456.55l-0.45,0.175L368.55,456.55l-0.4,0.2l-0.05-0.025l-3.8-1.024l2.85-1.75l0.025-0.025
		l0.825-1.649l0.5-0.976l2.3-1.649v-0.025V449.6l2.8,0.801c0.033,0.033,0.15,0.199,0.35,0.5c0.2,0.333,0.4,0.666,0.6,1
		c0.2,0.366,0.284,0.649,0.25,0.85c-0.1,0.167-0.333,0.434-0.7,0.8c-0.367,0.334-0.733,0.634-1.1,0.9
		c-0.333,0.267-0.517,0.416-0.55,0.45h0.025l1.475,0.85l3.15,0.55l1.75-2.5l2.25-2.2l2.5-0.25l1.95-0.75l7.25-8.949l2.5-6l4.95-4.5
		l9.95-3.2l0.25,0.05l-0.125,0.875l-0.375,2.475l1.149,1.5l1.851,2.5l2,0.65l2,0.7l1.225,1.1l3.075,2.851l3.7,2.55l-0.55,0.05
		l-1-0.1l1.649,2.35l-1.649,0.8l-9.15-0.2l-4.35,1.95l-2.9,2.4l-8.5-0.15l-7.95,3.3l-4.8,3.351l-5.65,2.149h-3.5l-5.375-3.675
		l1.25-0.524l-1.25,0.524l-0.275-0.175L368.55,456.55z M409.3,417l0.351,0.45l0.3,4.95l0.7,4l-0.2,1.6l-0.25-0.05l-9.95,3.2
		l-4.95,4.5l-2.5,6l-7.25,8.949l-1.95,0.75l-2.5,0.25l-2.25,2.2l-1.75,2.5l-3.15-0.55l-1.475-0.85h-0.025
		c0.033-0.034,0.216-0.184,0.55-0.45c0.367-0.267,0.733-0.566,1.1-0.9c0.367-0.366,0.6-0.633,0.7-0.8
		c0.034-0.2-0.05-0.483-0.25-0.85c-0.2-0.334-0.4-0.667-0.6-1c-0.2-0.301-0.317-0.467-0.35-0.5l-2.8-0.801l0.35-2.3v-0.05L369.8,440
		l0.35-5l-0.7-2.65l-0.3-2.949v-0.051l2.05-25.3l3.9-0.125l2.35-0.075l2.15-0.375l2.15-0.324l4.525,3.1l1.775,1.25l1.875,0.725
		l3.125,1.226l3.725,0.399L399,410.15l6.3,1.649l1.15,1.476L409.3,417z"/>
	<path fill-rule="evenodd" clip-rule="evenodd" fill="#c8c8c8" d="M285.6,146.9l-2.35,4l-1,1l-3.2-0.5H279l-1.275,1.5l-0.425,0.5
		l-2.25,1.5l-3-1l-4.45,0.25h-0.05l-1.2,1.25l-0.4,2l-0.1,0.45l-4.75,0.25l-0.1,0.55l-0.4,2.2l1,1.25l2.5,2v1.5l-1,1l-2.5-0.25
		l-2.45,3.25l-0.3-0.55l-1.95-0.8l-1.5-0.65l-0.5-1.25l-2-0.25l-2,0.75l-2.25-2.25l-2.25-1.25l1.75-1.5l-2-0.5l-3.45-3l-2-5.95
		l-9.1-2.7v-0.025l0.8-1.425l4.8-6.3l2.25,0.5l7.7-7.5L243.7,133l5.45-7.75l3.75-3.2l2.25-6.5l-2-4.25l-1.25-6.2l2.5-4.5l4.95-2.45
		l4.1-1.35l1.875,0.2l0.775,1.6l-1.8,2.2l-0.2,1.95l1.5,2.85l-0.8,12.75l-3.35,4l0.2,7l3.8,14.25l1,2.15l0.65,8.3l-0.65-8.3l-1-2.15
		l-3.8-14.25l-0.2-7l3.35-4l0.8-12.75l-1.5-2.85l0.2-1.95l1.8-2.2l-0.775-1.6l4.575,0.45l3.8,5.35l7,1.15l0.3,3.3l-0.3,8.45
		l-3.85,5.35l1.7,0.8l0.15,3l1.5,3.15l1,1.35l3.65,3.15l-2.15,6.1l2.15,2.85l-0.35,2.8L285.6,146.9z M397.2,249.775l7.95-0.975
		L397.2,249.775l0.25-2.475l3.75-0.65l4.8,1.3l-0.85,0.85l-1.051,1.05l-3.1,1.45l-3.95-0.2L397.2,249.775z M340.45,264.35l1.3,1.05
		l0.25,1.5l0.05-0.025l0.5-0.125l0.95,2.65l3.75-0.75l3.45,1.75l4.25-2l-1.5,4.75l4.75,5.45l5.7-5.95l6,2.45l-0.025,0.05
		l-0.45,1.025l-0.775,1.675l2,1l7.7-0.75l6.2,0.75l4.75-0.5l-0.75-3.2v-0.05l0.75-2.45l4.45,0.5V269h0.05l2.15-0.55l-1.25-4.85
		l1.65-2.1l1.25-4.05l-2.05-3.2l1-1.25l4.601-0.65l3.35-1.25l2.625-2.55L408,247.7l3.55,0.2l0.175,0.075l5.375,2.375l4.2,5.05
		l0.2-1.8v-4.3l19.95,11.6l12.75,11.4l-3.8,2.85l-2.95,9.3l1.8,2.85l2.75-4.65l0.8-6.5l3.4-3.25l4,0.2l8.6,10.75l10.55,5.5v5.3
		l1.801,3.65l0.8-8.35l13.6,9.15l1.2,0.15l0.8,7.25l-1.3,1.1l-2.15,1.851v4.5l-2.35,2.975l-2.4,2.976l-2.1-0.025L421.9,318.7
		l-3.4,4.075l-1.35,1.625l-7.2,4.25l-3.2-0.25h-0.05l-0.4,0.074l-18.5,3.15l-14.65,2.475l-5-3.449l-3.75-1.5h-3.7h-0.05l-1.1,0.875
		l-1.1,0.875l-0.25-5.5l3-3.7l-0.5-2.5l0.5-2.5l-0.25-3.25l3-9.2l2.95-5.7l1-9.75l-2.5-4.95l3.25-6l-3.25,6l2.5,4.95l-1,9.75
		l-2.95,5.7l-3,9.2l0.25,3.25l-0.5,2.5l0.5,2.5l-3,3.7l0.25,5.5l-6.7-3l-2.25-0.5h-0.05l-0.25,2.5l-1.7,1.449l-0.375,0.95L347,332.6
		l-2.25,0.75l-2.15,1.551l-1.35,0.949l-0.5,2l-1.25,1.5l1,2.5l-2.5,0.45l-1,1.75v2.25l1,0.75l-0.75,4.25l-1.45,2.95l-2.5,0.775
		l-2.5,0.725l-1.225,0.75l-1.275,0.75l1.125,1.125l0.375,0.375l-1,1.5h-1.95h-0.05l-1.75,0.75l-1.275,0.95l-0.425,0.3L318.1,363
		l0.25,1.25l-2,0.7l-0.25-0.15l-0.45-0.3l-0.025,0.025L315.6,364.5l-2,1.7l2,3.5l-0.5,1l1.25,3.75l-1.75,1.75l-1.95,0.95h-0.75
		l-0.375,0.875L310.9,379.4l0.5,1l-1.25,1.75l-0.5,4.649v0.101l1.325,2.949l0.425,1l1.5,2.25l-6.075,6.051l-1.425,1.399l-3.2-1
		l-3.95-2.25l-2-5.45l-0.025,0.025l-0.025-0.025l-1.475,1.476l-0.975-2.726l-4.5-2.25l-0.75,1.25l-2.2,0.25h-0.05l-1.25,2l0.5,2.75
		l-1.1,1.101l-1.1,1.1l-6.6,2.601l-1.625,0.625l-4.225-3.226h-4l-5.45,1l-0.025,0.05h-0.025l-1.5,4.2l-1,5.75l1.25,3h1.75l1.25,1.7
		l5.2,5.25l-0.725,0.25l-3.675,1.2l-3,0.25l-0.025,0.05h-0.025l-0.975,2.725L256.9,423.3l0.025,0.05H256.9l-0.275-0.85l-0.025-0.05
		l-1.95,0.25l-1.925-1.05l-2.075-1.15l-1.5-3l-2.75-0.5h-6.7l-5.5-4.25l-1.95-3.45l-4.95,0.25h-0.05l3.75-5l0.75,0.325l0.95,0.425
		v-0.024l0.75-2.226l-0.775-1.8l-0.4-0.9l-0.025-0.05h2.7l-1.75-3.7l-3.2-1.25l-1.25-1.25l-0.75-2.5l-2.2-1.649l-0.75-0.575
		L225,389.35l-0.25-2.199l-2-3l-2.95-1l-0.25,3.5l-3.5-0.75l-2-1.25h-2.95h-0.05l-0.55,0.149l-2.4,0.601l-1.25,1.75l-3.25,1
		l0.25,2.449l-1.5,0.75l-0.5,3.726v0.024l-6.95-4.25l-0.25-5.949l-2-1.75l-3.25-10.2l0.5-5.75l-0.5-3.7l2.5-3.5l-0.5-6.25l-1.75-2.7
		l-2-5l-3.175-2l-0.775-0.5l-4-9.2l0.5-3.949l4.25-5.25h0.05l2.65,0.25l5.5-4h0.05l3.2,0.5l2-1.25l-0.75-2.45l-1.75-2l-1.25-3.75
		l2.5-1l1-7.7l3.45-1h0.05l3.2,0.75h0.025h0.025l3.95-0.75V300l-2.25-1.5l-1-2.7l4.1-5.6h0.025l2.575-0.15l9.95,4l5,0.25l2-0.25
		l-0.25-1.5l0.75-3l3.2-1.475l0.05-0.025l0.35-1.95l0.6-3.25l0.8-1.45l2.45-4.35l4,0.3l5.7,4.5l1.75,0.25l2.25-0.75l1.25,1.5
		l2.5,1.95l2.95-0.7l2-1.25l2.5,1.25l-0.75,3.45l4,2.25l2.95-1.25l0.75-0.75h0.05l2.2,0.5l2,0.75l1.5,1h3.25l7.95-2.5l2.75-3.2
		c0-0.033,0.067-0.267,0.2-0.7c0.104-0.292,0.229-0.609,0.375-0.95l0.275-0.65c0.267-0.6,0.566-1.167,0.9-1.7
		c0.333-0.5,0.833-0.967,1.5-1.4c0.5-0.3,0.975-0.55,1.425-0.75l0.425-0.2c0.533-0.267,0.816-0.4,0.85-0.4l22.15-7.7l10.45,1.25
		l5.25-3.75l6.2-3.25h0.05L340.45,264.35z M411.725,247.975l-4.6,0.575L411.725,247.975z M386.3,249.25l1.175-0.525l-0.85,0.6
		l0.85-0.6l2.825-1.225l0.5,2.75l-1.825-0.4l-1.3-0.3l-1.05-0.225L386.3,249.25z M428.15,386.85v0.4l0.149,1.2l-0.1-0.05
		c-0.101-0.034-0.367-0.167-0.8-0.4c-0.267-0.134-0.334-0.3-0.2-0.5c0.133-0.167,0.316-0.316,0.55-0.45
		C427.983,386.917,428.116,386.85,428.15,386.85z M428.3,383.3c0.233,0.033,0.467,0.134,0.7,0.3c0.2,0.167,0.316,0.267,0.35,0.301
		l2.351,0.3l-3.25,0.75l-1.8,1.05l-1.051-1.35l0.9-1.051c0.066,0,0.316-0.05,0.75-0.149C427.684,383.35,428.033,383.3,428.3,383.3z
		 M418.3,382.1l1.8,1.051l-0.75,0.6l-1.5-0.3V383L418.3,382.1z M415.15,381.2l0.149,0.899l-1.6-0.75l0.149-0.75L415.15,381.2z
		 M432.6,395.6l1.601,0.9l-1.75,1.2l-2.4-0.45l-1.8-1.05l2.25-1.2L432.6,395.6z M435.3,394.9v-1.2l3-0.75l1.45,0.6l-0.3,1.05
		l-2.2,0.75L435.3,394.9z M252.3,85.2h2.65l0.85,1.5l-2.35-0.15L252.3,85.2z M244.5,54.85L244.35,53l1.5-1.95l2.65-0.5l2,5.8
		l-0.15,3.3l0.45,2.15l-3.45-0.3l-1.85-1.85l-0.15-1.8l-1.85-0.35l-1.45,3.15L244.2,64l-1.5,0.95l-1-0.45l-1.35,0.95l-1.8,2.2
		l-3.35,0.65l-5.3,0.3l-1.5-2.8l1.5-4.3l2.35-1.85l2.8-1.3l0.35,1.3l7.8-2.95L244.5,54.85z M277.9,49.85l2.15,1.35l3.5,0.15
		l2.5,4.45l-3,4.65v4.35l1.15,2.65l-4.15,4.95l-1.3-2.65l-1.5,2.85l-3.65,1.15l-3.5,0.65l-4.3,2.15l-2.65,2.35l-3,1.3l-0.85,1.7
		l-1.5,1.95l-2.15-3.3l0.85-3.8v-3l-1.85-2.65l1.2-6l0.3-3.8l3.15-4.65l4.65-0.15l3.65-4.65l1.35-0.65l1.5-1l2.15-0.35H277.9z
		 M283.05,92.85l-2.35-4.15l3-3l6.15,0.65l0.65,2.85l4,2.65L292.15,93l-3.65,0.2l-0.3,2.8L283.05,92.85z M229.85,126.15l-4.8-1.15
		l-2.2-4.65l-3.8-5.65l-0.35-2.15l-2.3-1l-4.5-1.2l-3.2,1.2l-0.7,0.05l2.35-10.3l1.95-3.8l4.35-3.5l4.3,2.3l3.3,3.85l0.85,4.15
		l1.8,1.65l3.5,6.15l-0.3,0.1c-0.233,0.066-0.9,0.3-2,0.7c-0.767,0.267-1.35,0.333-1.75,0.2c-0.367-0.1-0.617-0.267-0.75-0.5
		c-0.1-0.2-0.15-0.317-0.15-0.35l-2,1.15l-1.65,0.5l0.15,2.85l1.3-1l7,0.8l0.65,4.5l-0.3,3.15l-0.75,1.925V126.15z M229.1,71.6
		l-0.85-0.7l1.5-1l2.15-0.5l1.35,1.35L229.1,71.6z M284.7,69.75l0.65-3.3L288,65.3v2.8l-1,2h-0.8L284.7,69.75z M291,53.5l-1.15,0.65
		l-1.35-1.5l1.35-1.15L291,53.5z M296.8,59l-0.15,2.65l-2.15,0.85l-1.65-2.7l2.15-1.45L296.8,59z M168.25,190.95l-4.375-0.325
		l2.325-6.025l2-0.65h2.3l2-1l3.65,0.5l1.65-0.5l0.85-1.85l-0.85,1.85l-1.65,0.5l-3.65-0.5l-2,1h-2.3l-2,0.65l-2.325,6.025
		L159.4,190.3l-1.55-0.1l-0.5-2.7l3.7-1.75v-4l5.3-4.95l4.2-2.6l4.45,1.3l3.65,5.6l8.65-0.35l2.65-1.3l7.45,3.05l-7.45-3.05
		l-2.65,1.3l-8.65,0.35l-3.65-5.6l-4.45-1.3l1.45-0.9l7.65-3.65l3.8-6.65l1.85-6.3l4.15-5.45l3.95-7.15l4.175-2.85h0.625h-0.625
		l1.725-1.175l0.05-0.025l0.3,1.15l1.75,2l2.25,1.2l0.25,2.75l-3.75,3l-1.25,13.95l-1.25,2l-0.75,1.2l-0.125,0.55l-0.975,4.475
		l-0.65,2.975l2.5,0.75l-0.25,2v4.45l3.75,1l2,2l-2,5.95l-2.5,2.25l0.75,3.25l4.25,2l1.35,2.15l-0.025,0.025L204.2,202.5
		l-0.825,1.425l-3.975,2.225v0.025l-0.05,0.025l-2.2,5.2l-1.325,4.375l-0.175,0.575l-2,4l-0.775,1.125l-3.95,5.575h-2.475
		l-0.35-0.35l-1.15-1.15l-2.75,0.75l-2.95-1.975l-0.5-1.975l-1.025-1.85l-2.475-4.65l2.25-2.5l-2-3.95l-0.325-3.775l-0.425-4.675
		v-0.05l-1.75-1.95l-1.75-1.5l-1.225-3.425l-0.725-2.075l-1-1H168.25z M283.85,117.9l1.15,1.5l-3,1.8l-1.15-0.5v-0.5L283.85,117.9z
		 M285.15,120.2l0.85,1.5l-1.85,1.8l-2.15,0.85l0.35-2.5L285.15,120.2z M290.85,105.25l1.45-1l0.85,1.7l-0.5,1.3l-2.15-0.15
		L290.85,105.25z M309.4,110.55l0.65,1.85h-1.5l-1.15-1.65L309.4,110.55z M285.8,126.05l-1.95,1.3l-2-0.65l3.8-2.35L285.8,126.05z
		 M144.85,211.425l0.05-0.025l0.5,4.75l2.25,1.95l-0.25,1.25l0.25,2.5l3.7,1l2.25-0.5h3.75l0.5,1.25l-1.5,2l0.5,4.7l-3.75,1.5
		l-1.5,2l0.3,0.7l-2.3,1.8l-9.2,1.75l-3.75,1.75l-0.925-0.1l-0.75-0.1h-0.025l0.25-2.3l2-2.75l1.2-2.25l-0.25-2.25l-1.275-0.175
		l-0.425-0.075h-0.05h-1.2l-2.75,0.5l-0.45-0.45l1.95-2l0.25-3.25l2.5-4.5l0.75-2l-3.25-1l-0.5-3.45l4-4l1.3-2.125l0.05-0.075
		l-0.15,2.7l-1.45,2.75v1.95v0.05l3.35,0.725l-1.15,2.675l1.35,2.65l4,0.65l0.5,2.5l-1.5,1.65l-3.5,0.15l-1.65,1.2v1.15l-1.65,1
		l1.65-1v-1.15l1.65-1.2l3.5-0.15l1.5-1.65l-0.5-2.5l-4-0.65l-1.35-2.65l1.15-2.675l0.1,0.025l0.75-2L144.85,211.425z
		 M128.375,236.4l-0.075-1.25l0.55-0.9l-0.375,2.15H128.375h0.1l-0.075,0.5v-0.05L128.375,236.4z M138.175,320.9l-1.975,2
		l-0.05,0.05l-1.75,3.45l-6.4,5.05l-0.05,0.05l0.45-2.1l-0.45-4.5l-1.75-0.75l-0.75-8.95l-1-3.2l-3.25-6.25l0.25-3.5l0.925-0.1
		l1.575-0.15l0.75-2.025l0.25-0.675h1l1.5-1.5l1.625-0.625l0.325-0.125l-0.025-0.025l-0.725-1.475l1-0.925l1.25-1.075l-0.025-0.025
		l-0.975-0.975l-1-1.5l0.25-1.5l0.65-1.1l0.35-0.6l0.75-2.55l0.575-0.4l1.175-0.8l2.25-2.25l1.25-2.75l3.45-1l3.75-1.7l0.025-0.05
		l1.475-2.45l0.25-2.5l-0.25-2.75l1.25-1l1.25,2.5l2.25,0.5l5.45-3.75l2.25-3.2l0.2-1.1l0.05-0.05l1.25-1.1l3.5-1l0.95-1.75
		l1.75-7.75l0.25,0.3l3,0.75l3-2.75l1.75-7.2l0.75-2l3.45-0.5l0.05-0.05l1.7-1.45l0.25-0.25h1.5l4,1.5l1.95,2.75l5.25,1.5l0.75,1.45
		l-1.75,2.25l0.15,0.925l0.6,3.575l-0.75,3.7l4,2l-0.75,3.25l1.25,0.5l1.275,0.175l0.425,0.075l0.45,2.25l0.3,1.75l-0.5,2.95
		l-1.45,1.75l-0.75,5.25l-1.25,2.25l-0.75,2.2l0.25,2.5l-0.5,1.75l-0.6,1.15l-0.15-0.625V284.6l-0.7,0.55l-2.55,1.95l-14.15,4.175
		l-0.8,0.275l-4.7,4.75l0.5,8.45L171,309l-3.75,5.2l-10.7,5l-7.2,4.7l-5.2,2.725l-0.05,0.025l-1.5-4.7l1-4.5h-0.7h-0.05l-3.5,2.25
		L138.175,320.9z M143.375,276.35l1.775,2.65l1,2.65l2.3,0.85l2,2.3l1.8,0.35l2.2,2.5l0.5,2.65l2.3,0.3l1.8,2.5l4.5,2.65l3.15,0.5
		l2.15,1.65l-2.15-1.65l-3.15-0.5l-4.5-2.65l-1.8-2.5l-2.3-0.3l-0.5-2.65l-2.2-2.5l-1.8-0.35l-2-2.3l-2.3-0.85l-1-2.65
		L143.375,276.35z M56.75,310l0.05-0.05l2.7-0.75l0.25-1.7l0.625-0.8l1.875-2.425v-0.025l2.225,0.75H64.5l3.225-1.225l0.025-0.025
		l6.425,7.175l0.025,0.025l2.225-2.675l0.025-0.025l3.25,1.7l1.95,0.5l3.5,3l4.475,1.975l0.025,0.025l1.225-0.726L90.9,314.7l2.2,1
		l2.25-0.25v1.5l-0.25,0.75l1,3.7v2.5l1.475,1H97.6l0.35-0.101l0.6-0.149h0.05l0.75,1.5l1.5,1.05v0.05l-0.05-0.05v2.95h-1.7
		l-0.45-0.075L97.6,329.9h-0.05l-1.95,6.449l-1.5,3.25v1v2.25l0.5,2.45l-1.75,7.25l1,0.5l2,0.25l2.45,1.7l1.5,0.75l1.5,3.75
		l-1.5,9.45l-2.25,3.75l0.75,4l4.75,1.7l1,4.5l-3.25,8.199l1,5l-1.25,5.2l0.75,2.25l-0.75,1.75l-1.25,1.5l1.25,3.75l1.25,1.25
		l0.75,1.2l1.5,0.5l0.75,1l-1.25,2.25V421l1.75,3.7l0.25,2.5l-1.25,2.25l1,2.75l1.25,1.25l-0.75,3.95v0.75l0.55,1.149H106
		l-0.5,4.351l-1,1.649v3.8l1,2.851l-2.35,0.3l-0.5,2.85l-0.65,1l-2.15,0.15l0.3,4l-2.95,1.5l-1.85-3.2l-1,0.2l-2.15,0.15l-1.5,3.8
		l-3.15,0.35l-0.65,3.3l-1.5-1.149l-1.3,1l-2,3.149l0.15,3l-0.1,0.2c-0.1,0.134-0.35,0.566-0.75,1.3s-0.633,1.284-0.7,1.65
		c-0.1,0.333-0.133,0.5-0.1,0.5l-1.65-1l-2-0.5l-0.65-4.3l-1.2-0.351l-0.65-1.649l1.35-2.15l0.15-7.149l1.8-2.15l1.7-4.3l-0.2-4.15
		l-0.8-1.35l-3.35-2l-1.8,0.85h-1.15l-0.5-2l-1.85-0.85l-0.5-2.8l0.65-3.801l-4.95-9l1.8-1.3l1-1.85l-0.5-2.45l-1.3-2.5l0.65-1.35
		l0.15-1.15l-2.95-2.8l-0.35-2.5l2.65-5l2.8-2.8l2.85-5.15l0.65-3.3l2.65-4.5l2.65-1.851L77.6,384.4l-0.85-5.15l-1.15-0.85
		l-0.65-1.65l0.35-4.95l-1-1.35l-0.7-2.3l-0.3-3.65l-3.65-3.15l-9.8,3.301L54.7,364l-3.15-2.15l0.15-2.699l3-2.45h2.65l2-2
		L61,351.85l2-0.8l1-2.85l0.5-5.8l1.125-2.476l1.825,0.025l1.5-0.851l1.2,0.351l1.15-0.5l0.5,0.8l-0.35,0.85l0.85,0.5l4.3,1.65
		l1.65-0.15l0.5,2l-0.3,2l2.8,3.15l0.15,1l4.35,2.3l1.15-0.35l1.3,0.35l0.35-1.149l1.15-0.851l1.65,1.15l1.5,0.35l-1.5-0.35
		l-1.65-1.15l-1.15,0.851l-0.35,1.149l-1.3-0.35l-1.15,0.35l-4.35-2.3l-0.15-1l-2.8-3.15l0.3-2l-0.5-2l-1.65,0.15l-4.3-1.65
		l-0.85-0.5l0.35-0.85l-0.5-0.8l-1.15,0.5l-1.2-0.351l-1.5,0.851l-1.825-0.025l1.525-3.975l1.35,1l0.8-1.7l-1-1.45l1.85-1.85
		l-1.35-1.3l-1.3,1.949l-3.85,1.851l-8.45-3l-5.3-3.351l1.15-1.699l3.5-2.75l1-3.5v-8.95L56.75,310z M129.075,297.175l3.725,3.575
		l1.35,3.45l4,3l1.5,2.35l0.5,6.101l2.8,1.199l-2.8-1.199l-0.5-6.101l-1.5-2.35l-4-3l-1.35-3.45L129.075,297.175z M183.75,450.2
		c0.016-0.005,0.033-0.005,0.05,0v-0.05c0.188,0.048,0.221,0.148,0.1,0.3c-0.133,0.166-0.233,0.267-0.3,0.3L183.75,450.2z
		 M479.8,407.1l1.65,1.801l-2.101,2.199l-0.449-2.949l-1.65-0.601l-1.75-0.899h-1.35V408l-2.25,1.05l-0.9-1.35l1.5-1.8l2.1-0.601
		l3.7,0.75L479.8,407.1z M450.6,414.5l2.101-0.7l0.6,2.351h-2.55L450,417.05l-1.3,0.601l-2.851,0.75v-1.2L450.6,414.5z M448.7,408.1
		l-1.351-0.449l-0.6,2.1l-3.55-1.05l-2.101-1.8l-1.35,1.5l-2.8-0.75L435,406.6l-6.1-2.05l-2.101-1.05l-5.05,0.45l-2.2-1.65
		l2.65-1.35l3.149,0.45l7.7-0.45l1.351-0.601l-1.2-1.449l3.6-2.25h1.351l2.8,4.449l1.8,2.25l3.1-0.149l1.801-1.8l3.699,1.949
		l2.551,2.101l-1.65,1.3l-1.3,0.75l-0.45,2.1l-1.05,0.301L448.7,408.1z M441.25,413.975l2.5,1.726l-0.55,4.05l-1.05,0.6l-2.025-0.75
		l0.475-1.85l0.25-2.75L441.25,413.975l-0.4,1.025l-0.25,2.75l-0.475,1.85l-0.825-0.3l-3.1-0.6l-0.601,1.649l2.351,0.601
		l5.399,2.649l4.601-3.85l4.75,0.15l2.25,1.05l-1.351,0.7l-0.899,2.25l2.1-0.601l1.15,1.05l0.325,0.176L448.3,429.2l-2.75,1.95
		l-5.45-0.25l-4.75,0.25l-3.5,1.5l-9.699,0.25l-3.95-2.95l-7.75-1.95l0.2-1.6l-1-8.95v-0.05L409.3,417l3-3.55l3.65-0.351l1-2.3
		l2.3-2l0.45-2.6l5.45-0.3l0.3,0.75l1.95,3.399l2.55,1.5l1.45,0.45l1.8-2.4l2.399,0.75l2.801,3.301l1.949-0.301L441.25,413.975z
		 M424.95,443.2l-3.7-2.55l-3.075-2.851l-1.225-1.149l-2-0.65l-2-0.65l-1.851-2.5l-1.1-1.5l0.325-2.475L410.45,428l7.75,1.95
		l3.95,2.95l9.699-0.25l3.5-1.5l4.75-0.25l5.45,0.25l2.75-1.95l7.976-4.675l2.225,1.175l0.75,2.2l1.65,1.35l1.5,0.9L460.3,431.8
		l-1.649,3.25l-2.4-0.149l-1.15-3.4l-3.3,1.2l2.101,1.35l1.199,1.3l-0.899,0.75l-1.8,3l-2.95-0.149l-0.15,3.399l-4.8,0.301
		l-3.55-1.051L434.1,444l-3.55,0.3l-3.45-1.35L424.95,443.2z M459.8,424.65l-0.149-1.801l0.899-0.149l2.55,0.6h2.95l1.05,1.5
		l1.65,1.351l1.65,0.699l2.949,0.601l1.95,1.2l-2.1,1.5l-3.25-0.15l-2.7,0.75l-2.8,2.65l-1.351-1l0.75-1.351l-0.75-1.95
		L459.8,424.65z M457.75,414.7l-1.45,0.3l-1.2-0.15l0.9-0.899h1L457.75,414.7z M330.15,436h0.05l0.05-0.05l2.75-1.3l1.5,2l-1.5,1.5
		l-1.85,0.35L330.15,436z"/>
	<path fill-rule="evenodd" clip-rule="evenodd" fill="#c8c8c8" d="M260.1,181.525v0.025l1.5,2.45l-1.75,1l-4.7-0.25l-1.2-0.75
		l-1.55-1h-3.5l-1.875,1.125L246.4,184.5l-0.7-0.5l-0.025,0.025L245.65,184l-3.45,2.75l-2.75-0.5l-0.75,1.15l-0.75,1.1l-5.75,2.5
		l-1.1,2.1l-0.6,1.1l-6.75,3.5v0.05v1.2l-6.25-1.225l-2.45-0.525l-1.125,1.125l-0.375,0.375l-4.2,0.25h-0.05l-1.2,1.25l-2.75,1.5
		l-0.35-0.55l-0.025-0.025L205,201.1l-1.35-2.15l-4.25-2l-0.75-3.25l2.5-2.25l2-5.95l-2-2l-3.75-1v-4.45l0.25-2l-2.5-0.75
		l0.65-2.975l0.975-4.475l0.125-0.5l0.75-1.25l1.25-2l1.25-13.95l3.75-3l-0.25-2.75l-2.25-1.2l-1.75-2l-0.3-1.15l-0.05,0.025v-0.025
		l0.9-0.6l1.65-5.95l-1-5.35l1.35-5.8l-0.15-6.8l3.45-0.65l2.15-2.15l0.25-0.825l0.1-0.325l0.7-0.05l3.2-1.2l4.5,1.2l2.3,1
		l0.35,2.15l3.8,5.65l2.2,4.65l4.8,1.15l-0.6,1.7l-11.6,16.9l0.15,5l0.2,0.225l-1.05,2.775l-0.15,4l-4.8,3.3v2.8l3,1l0.15,3.85
		l-1.65,0.8l-7.5,5.15l-2.45-2.15h-4.85l-2.9,0.825l2.9-0.825h4.85l2.45,2.15l7.5-5.15l1.65-0.8l-0.15-3.85l-3-1v-2.8l4.8-3.3
		l0.15-4l1.05-2.775l2.95,3.575l2,0.7l6.45-2.35l1.2-2.2l9.1,2.7l2,5.95l3.45,3l2,0.5l-1.75,1.5l2.25,1.25l2.25,2.25l2-0.75l2,0.25
		l0.5,1.25l1.5,0.65l1.95,0.85l0.55,0.95l1.45,2.5l-0.75,1.75l2.5,3.5l-1.35,3.3l-0.15,0.4V181.525z M389.45,241l-1,1l-5.775,1.475
		l-12.025-2.125l0.8-3.15v-1.5l1-1.15l2.35-0.2l1.3-1.65l2.15,1.65l2.65,1l3.85,0.85l1.125-0.35l-1.125,0.35l-3.85-0.85l-2.65-1
		l-2.15-1.65l-1.3,1.65l-2.35,0.2l-1,1.15v1.5l-0.8,3.15l12.025,2.125L378.6,244.5l-4.725,2.25l-0.375-0.125L368.15,245h-2.75
		l-0.75,5.75l-3.5,1.7h-1.45l-2,0.25l-1,4l-9.45,8.7l-4.7,1.35l-0.5,0.125l-0.25-1.475l-1.35-1.05l0.55,0.05h0.05L329.6,245
		l1.075-2.1l1.075-2.1l0.625-0.05l3.925-0.4l5.5,0.85l4.3-0.7h2.3l-2.45-2.8l-0.55-2.5l9.8,1.3l7.05-2.75l0.45-1.7l5.6-4.7
		l6.05-6.95l7.25,1.65v2.55l2.5,4.25l1.45,4.05l-0.8,3.35l1.125,0.6l1.975,1.1l4.2-1.9l-1.25,3.6L389.45,241l-0.65,0.25L389.45,241z
		 M104.5,283.05l-0.05,0.15l-1.95,2.8l0.8,3.35l4.8,3.3l10.95,12.75l-10.95-12.75l-4.8-3.3l-0.8-3.35l1.95-2.8L104.5,283.05l0.8-0.9
		l0.9-2.3l4.8-1l10.2-5.5l6,0.75v0.05l1.75,8.65l0.925,1.75l0.525,1h0.025l0.475-0.3l-0.025,0.05l-0.725,2.5l-0.35,0.65l-0.65,1.1
		l-0.25,1.5l1,1.5l0.975,0.975l-1.225,1.1l-1,0.925l0.725,1.475l-1.925,0.725l-1.5,1.5h-1l-0.25,0.725L123.95,302l-1.575,0.15
		l-1.175,0.1l-1.25,1l-0.75,4.2l0.5,2.25l-0.975,1.5l-0.975,1.5l-2.25-0.25v1.75l-0.5,4.2l-1.2-1.525L111,313.2l-3.55-3.4l-1.4-1.35
		l-1.75-1.3l-5.25-3.9l-8.7-2.75l-0.625-0.425l-1.875-1.325l-4.2-1.25l-3-2.25l-2.5-1v-4.8v-0.05l1.4,0.55l8.8,0.5l6.95-1.35
		l5.15-1.65L104.5,283.05z"/>
	<path fill-rule="evenodd" clip-rule="evenodd" fill="#c8c8c8" d="M242.35,186.65l0.1,1.35l28.1,13.7v18.15l-0.3,0.05l-18.1,2.45
		l-20.4,13.95l-0.75,2.5l1.2,1.75l-0.2,0.5l-0.75,1.45l-1,2.75l1.35,1.125l1.35,1.125H233l0.6-0.15l0.35-0.1h0.025H234l2.95,0.5
		l1.5,1.5l2,1.25l2.4,1.125l0.8,0.375l3.25,2.25l0.25,0.775l1.75,5.425l3.5,3.25v1.2l-1.5,0.5l-2,2.75h-3.2h-0.05l-0.925,0.375
		l-2.775,1.125l-3.5,0.5l-1.1,5l-0.025,0.175l-0.125,0.525l-0.1,0.225l-2.85,5.325l-0.8,1.45l-0.6,3.25l-0.4,1.975l-3.2,1.475
		l-0.75,3l0.25,1.5l-2,0.25l-5-0.25l-9.95-4l-2.575,0.15l0.075-0.15l-4.95-2.2l-1.5-0.5l-0.5-2.225V285.1l-1.1,0.425l-2.9,1.075
		l-3.45-0.5l-2.25,0.5l-0.35-1.35l0.6-1.15l0.5-1.75l-0.25-2.5l0.75-2.2l1.25-2.25l0.75-5.25l1.45-1.75l0.5-2.95l-0.3-1.75
		l-0.4-2.25l-0.475-0.075L195.4,261.2l-1.25-0.5l0.75-3.25l-4-2l0.75-3.7l-0.6-3.575l-0.15-0.925l1.75-2.25l-0.75-1.45l-5.25-1.5
		l-1.95-2.75l-4-1.5h-1.5l4.5-4.5l0.55-0.25l1.125-0.5l1.025-0.45v-0.025l-1.2-2.725v-0.025l0.9-2.575l0.3,0.35h2.5l0.025-0.05
		l3.95-5.575l0.775-1.075l2-4l0.175-0.625l1.325-4.375l2.2-5.2l0.05-0.025l3.95-2.225l0.025-0.025l0.825-1.425l0.8-1.35l0.35,0.55
		l2.75-1.5l1.2-1.25h0.05l4.2-0.25l0.375-0.375l1.125-1.075l2.45,0.475l6.25,1.225v-1.2l6.75-3.5l0.6-1.15l1.1-2.1l5.75-2.5
		l0.75-1.1l0.75-1.1l2.75,0.45L242.35,186.65z M384.55,252.6l-11.5-0.45l6.25,7l-4.55,2.95l-8.15-5.05l3.95,5.7l-1.45,2.55l2.1,3.2
		l6.85-1.1l4.4-3.15l3.75-0.45l0.4,1.9l2.9-0.4l1.65,1.05l2.1,2.75l0.5-0.1v4.15l-4.45-0.5l-0.75,2.45v0.05l0.75,3.2l-4.75,0.5
		l-6.2-0.75l-7.7,0.75l-2-1l0.775-1.675l0.475-1.025h-0.025l0.025-0.05l-6-2.45l-5.7,5.95l-4.75-5.45l1.5-4.75l-4.25,2l-3.45-1.75
		l-3.75,0.75l-0.95-2.65l4.7-1.35l9.45-8.7l1-4l2-0.25h1.45l3.5-1.7l0.75-5.75h2.75l5.35,1.625l0.35,0.125h0.025l4.725-2.25
		l4.075-1.025l0.225,0.025l-0.225-0.025L388.45,242l-0.4,0.4l-5.15,1.1l2.85,6l0.575,0.025l-0.925,0.625L384.55,252.6l0.85-2.45
		l0.925-0.625l1.35,0.025l1.3,0.3l-0.525,1l-0.8,1.55L384.55,252.6z M349.5,327.4l2.25,0.5l6.7,3l1.1-0.875l1.15-0.875h3.7l3.75,1.5
		l5,3.449l14.65-2.475l18.5-3.15l0.45-0.074l3.2,0.25H410l7.2-4.25l1.3-1.625l3.4-4.075l65.35,1.175l2.15,0.075l2.35-3.025
		l2.35-2.975v-4.5l2.15-1.851l1.35-1.1l-0.8-7.25l4.95,0.65l7.55,3.7h7.4l2-3.449l-1-2.05l0.2-2.65h4.8l1,1.85l7.55,2.4l5.8,6.95
		l2.601,7.3l-2.4,7.3l1.45,2.5l1.5,1.05l0.3,1.65l-1.65,3.85l-1.8,0.9l-0.3,1.95l-2.65,2.949l-7.3,6.25L513.25,348l-8,1.2
		l-10.15,3.149l-7.3,4.75l-10.85,4l-3.101,1.801l-4.199-0.601l-5.2,1.95h-0.101c-0.1-0.033-0.366-0.05-0.8-0.05
		c-0.467-0.033-1.2-0.066-2.2-0.101c-1.533-0.066-2.55-0.083-3.05-0.05l-0.7,0.05l-2.949-0.6l-2.4,0.15l-3.7-1.051l-3,4.301
		l-3.7,0.449l-3.149-1.05l-2.351-2.5l-0.75-5.8l-2.1-1.5l-2.125-0.425L429.5,354.8l-0.6-0.399l-1-0.851h-1l-1.75,0.25l-4.25-0.25
		l-4.2-1l-1.75-4.75l-0.5-2.75l-3.75-1.25l-4.45,0.25l-2-1.2l-2-3l-2.5-1.75l-6.45-2.25l-5.5-4.225l5.5,4.225l6.45,2.25l2.5,1.75
		l2,3l2,1.2l4.45-0.25l3.75,1.25l0.5,2.75l1.75,4.75l4.2,1l4.25,0.25l1.75-0.25h1l1,0.851L427.1,355.6l-4.149-0.899l-3.601,1.05
		l-1.199,2.85l1.8,0.15l1.5-0.9l1.5,0.601l2.05,1.6l2.55-0.45l0.15,0.9l-6.7,2.4l-3.25,0.75l-5.4-1.2l-5.199,0.45L403.6,365
		l-1.35,1.6v1.65l-3.15,1.5l-1.15,3.1h-1.05l-2.7,0.75v2.301v1.6l0.2,0.1c0.167,0.101,0.65,0.4,1.45,0.9
		c0.533,0.333,0.967,0.5,1.3,0.5c0.333-0.033,0.567-0.116,0.7-0.25c0.167-0.134,0.25-0.217,0.25-0.25l1.3,0.3l1.65,2.55l2.25,2.551
		l0.75,2.649L403,388.8l1.65,1.75l1.3,2.4l1.649,1.2l-0.149,1.35l1.5,0.3l1.8,2.65l3.1,2.85h1.801l1.949,2.05l0.551,3l1.55-0.149
		l-0.45,2.6l-2.3,2l-1,2.3l-3.65,0.351l-3,3.55l-2.85-3.725l-1.101-1.476l-6.35-1.7l-2.225-0.25l-3.725-0.399l-3.125-1.226
		l-1.875-0.774l-1.775-1.2l-4.525-3.1l-2.15,0.324l-4.5,0.45l-3.9,0.125V404l-2.7,0.1l-9.95,7l-1.35-4.35l-1.3-1.3v-1.65l-5.3-3.35
		l-1-3.65l-1.65-1.95l0.225-1.074l0.075-0.226v-0.05l-2.65-2.65l-0.525-1.225l3.325-0.075l2.65,2.15l3.5,2.149l2-0.85l3.95-1
		l2.5-1.65l4.3-1.149l1.2-0.15l1.8,1.5l1.5-1.7l0.35-1.949l2.8-2.7l-1.5-1.45v-1.35l1.85-2l2.8-0.301l0.65-3.5l2.5-2.149l1,1.649
		l2.85-0.5l3.15,0.15l1.65,0.7h1.5l1.65,0.8l1.15-0.35l-1.15,0.35l-1.65-0.8h-1.5l-1.65-0.7l-3.15-0.15l-2.85,0.5l-1-1.649
		l-2.5,2.149l-0.65,3.5l-2.8,0.301l-1.85,2v1.35l1.5,1.45l-2.8,2.7l-0.35,1.949l-1.5,1.7l-1.8-1.5l-1.2,0.15l-4.3,1.149l-2.5,1.65
		l-3.95,1l-2,0.85l-3.5-2.149l-2.65-2.15l-3.325,0.075l-0.775-1.775l-2,0.65l-0.025,0.05h-0.025l-0.625,0.95l-1.675,2.35l-1.85,1.25
		l-1.15,0.75l-3.3-0.699L331,390.5l-4.65,3.35h-2.65l-1-3.649l-2.3-2.7l-1.35-0.3l-1-2l-3.95,2.3l-4.4-0.75v0.05h-0.05l0.5-4.649
		l1.25-1.75l-0.5-1l0.625-1.375l0.375-0.825h0.75l2-1l1.75-1.75l-1.25-3.75l0.5-1l-2-3.45l1.975-1.725l0.025-0.025l0.45,0.3l0.3,0.2
		l1.95-0.75L318.1,363l5.25-0.75l0.425-0.3L325.1,361l1.75-0.75h1.95h0.05l0.95-1.5l-0.375-0.375l-1.075-1.125l1.225-0.75
		l1.225-0.75l2.5-0.725l2.5-0.726l1.5-3l0.75-4.25l-1-0.75v-2.25l1-1.7l2.5-0.5l-1-2.5l1.25-1.5l0.5-2l1.3-0.949l2.15-1.551
		l2.25-0.75l0.125-0.3l0.375-0.899l1.75-1.5L349.5,327.4z M388.45,250.85l-1.55,0.2L388.45,250.85z M431.375,356.075l-0.125-0.025
		l-1.75-1.25L431.375,356.075z M134.4,252.25l-0.1-0.25l0.85,0.5l2.75,0.75l0.85,1.075l0.65,0.875h2.5l3.25,3.5l2.7,2l3.5,1.75
		l2.625,0.475l2.625,0.525l0.9-0.85l-0.2,1.1l-2.25,3.2l-5.45,3.75l-2.25-0.5l-1.25-2.5l-1.25,1l0.25,2.75l-0.25,2.5l-1.475,2.45
		l-0.025,0.05l-3.75,1.7l-3.45,1l-1.25,2.75l-2.25,2.25l-1.175,0.8l-0.6,0.4l0.025-0.05l-0.475,0.3l-0.55-1l-0.925-1.75l-1.75-8.65
		v-0.05l-6-0.75l-10.2,5.5l-4.8,1l1.25-3.15l1.35-10.95l-2.425-3l10.075-4.65l3.15,2.85l0.15,1l-2,1.5l0.35,1.65l1.15,0.5l1.5-0.35
		l2,0.85l1.45-0.35l2.5-2.15l4,0.15l0.65,2.65l-0.15,5.5l-1.35,1.15l-2.65,1.1l2.65-1.1l1.35-1.15l0.15-5.5l-0.65-2.65l-4-0.15
		l-2.5,2.15l-1.45,0.35l-2-0.85l-1.5,0.35l-1.15-0.5l-0.35-1.65l2-1.5l-0.15-1l-3.15-2.85l-10.075,4.65l-0.925-1.15l11.95-4.15
		l8.15-8.1l0.1-0.4l1.15,0.5l4.15,1.8L134.4,252.25z M115,318.4l0.5-4.2v-1.75l2.25,0.25l0.975-1.5l1.025-1.5l-0.5-2.2l0.75-4.25
		l1.2-1h0.25l-0.25,3.5l3.25,6.25l1,3.2l0.75,8.95l1.75,0.75l0.45,4.5l-0.45,2.1l0.05-0.05v0.05l-0.3,1.35l0.25,4.75L126,344.2
		l-0.8,2.6v2.25l-0.75,3.5l-0.075,1.5l-3.475,0.8l-2.5-1.649l-0.7-2l1-1.3l-0.8-3.5l-1.85-1.15h-2.65l-3.15-0.5l-3-1.85L94.1,340.6
		l13.15,2.301l3,1.85l3.15,0.5h2.65l1.85,1.15l0.8,3.5l-1,1.3l0.7,2l2.5,1.649l3.475-0.8l-0.425,10.2l-2,2.2v2.25l1,1v2l0.05-0.025
		v0.025l3.225-2.25l0.425,0.149l1.05,0.351l1.75,4l1.75,1.5l0.875,1.05l1.075,1.4l0.75,4v1.25h0.05h1.95l2,2l1.025,1.75l0.975,1.75
		l-0.25,4.449l-0.75,2.5l-0.75,4.75l-2.5,1.95l-1,1.5l1,1.5v3.5l-1.5,0.5l-1.5,1l-1.225,1.101l-1.225,1.1l-1.5-1.45l-1,0.75
		l-0.425,0.476l-1.325,1.475l-1,2l-1.25,5.5l-1.5,2l-1.1,0.725L120,424.7l-2.25-1.45l-1.4,5.9l-0.6,2.3l-3.5,2l-0.75,1.95l-1.5,2
		v2.5l-0.75-0.75l-2.85,0.149h-0.05l-0.55-1.149v-0.75l0.75-3.95l-1.25-1.25l-1-2.75l1.25-2.25l-0.25-2.5l-1.75-3.7v-4.25l1.25-2.25
		l-0.75-1l-1.5-0.5l-0.75-1.2l-1.25-1.25l-1.25-3.75l1.25-1.5l0.75-1.75l-0.75-2.25l1.25-5.2l-1-5l3.25-8.199l-1-4.5l-4.75-1.7
		l-0.75-4l2.25-3.75l1.5-9.45l-1.5-3.75L98.3,355l-2.45-1.7l-2-0.25l-1-0.5l1.75-7.25l-0.5-2.45v-2.25v-1l1.5-3.25l1.95-6.449h0.05
		l1.05,0.175l0.4,0.075h0.05h1.7v-2.95l0.05,0.05l0.2,0.15l1-1l0.75-4.75l3-0.25l0.8-1l0.925-1.176l0.025-0.024l1.7,1.45l2,0.75
		l0.75,0.5l0.75-1.25l1.5-1.2l0.1-1.851l0.65,0.851V318.4z M184.25,233.05h4.5l2-1l0.8-0.7l2.2,0.85l3.3,0.5l0.8,2l3.85,1.8l2.5-0.8
		l1.3-3l1-0.35l0.65-0.8l1.85-9.3l1.3-0.85l4.35,2l2.3-1.3l2.65-2.2l1.85,0.35l0.8,1.35v1.8l-1.65,2.15l-0.8,1.35l-0.2,1.3h9.65
		l0.3,0.7l0.7,0.8v0.7l-1,1.3l0.15,1l0.5,0.85l-0.85,1.95l0.7,0.2l0.65,2.15l0.5,0.35l-0.5-0.35l-0.65-2.15l-0.7-0.2l0.85-1.95
		l-0.5-0.85l-0.15-1l1-1.3v-0.7l-0.7-0.8l-0.3-0.7h-9.65l0.2-1.3l0.8-1.35l1.65-2.15v-1.8l-0.8-1.35l-1.85-0.35l-2.65,2.2l-2.3,1.3
		l-4.35-2l-1.3,0.85l-1.85,9.3l-0.65,0.8l-1,0.35l-1.3,3l-2.5,0.8l-3.85-1.8l-0.8-2l-3.3-0.5l-2.2-0.85l-0.8,0.7l-2,1H184.25z
		 M206.5,232.35l1.2,1.85l-0.5,1.65l-0.5,1l-4.65,5.65l-2.5,1.15l-1.3,2.2l-3.5,1.65l-3.7,0.675l3.7-0.675l3.5-1.65l1.3-2.2
		l2.5-1.15l4.65-5.65l0.5-1l0.5-1.65L206.5,232.35z"/>
	<path fill-rule="evenodd" clip-rule="evenodd" fill="#c8c8c8" d="M309.7,386.8v-0.05l4.4,0.75l3.95-2.3l1,2l1.35,0.3l2.3,2.7
		l1,3.649h2.65l4.65-3.35l2.65,2.65l3.3,0.699H337l1.1-0.75l1.85-1.25l1.675-2.35l0.65-0.95l0.025-0.05l2-0.65l0.775,1.775
		l0.525,1.225l2.65,2.65v0.05l-0.075,0.226l-0.225,1.074l1.65,1.95l1,3.65l5.3,3.35v1.65l1.3,1.3l1.35,4.35l9.95-7l2.7-0.1v0.05
		l-2.05,25.3v0.051l0.3,2.949l0.7,2.65l-0.35,5l1.35,7.25v0.05l-0.35,2.3v0.025l-2.3,1.625l-0.5,1.025l-0.825,1.649l-2.825,1.726
		l-0.625-0.176l-0.875-0.225l-1.975-2.9l-0.175-0.6l-2-5.45l-0.15-1.2l1.15-0.149l1.8-1l0.35-0.65v-3.35l-1.15-2.3l-1.35-1.351
		l-1.8,1l-1.65,1.351l-3.15-1.5l-1.2-5.301l0.35-1.649l3-1.5l1-1l-0.5-1.5l-2.65-1l-7.65,0.35l-5.15-0.2l-3-1.949l-0.5-3.351
		l2.15-3.649l5.65-4.95l-0.15-1.7l-2.35-1.65v-2.8l1-3.5l-3.3-9.1l3.3,9.1l-1,3.5v2.8l2.35,1.65l0.15,1.7l-5.65,4.95l-2.15,3.649
		l0.5,3.351l3,1.949l5.15,0.2l7.65-0.35l2.65,1l0.5,1.5l-1,1l-3,1.5l-0.35,1.649l1.2,5.301l3.15,1.5l1.65-1.351l1.8-1l1.35,1.351
		l1.15,2.3v3.35l-0.35,0.65l-1.8,1l-1.15,0.149l0.15,1.2l2,5.45l0.175,0.6l-0.175-0.25l-0.35-0.25l0.35-0.1l-0.35,0.1l-3.45-2.449
		l-2.35-2.65l-3.45-0.8l-3.5-1.65l-3.3-2.85l-4.35-2.5l-2-1.8l0.2-0.851l-2.5-0.649L335,434.3l-2.85-0.3l-1.9,1.95L330.2,436h-0.05
		l-4.1,0.15l3.275,4.925l-1.175-0.925L326.5,438l-3.8-2.35l-3.5-1.301l-2.65,1l-0.65,2.301l-0.35,0.649l-1.65,0.351l-3.8-2.301
		l-5.5-5.5l-3.3-2.649l-6-0.65l-5.8-4.35l-4.15-1.3l-11.6-1.5l-5-2.5l5,2.5l11.6,1.5l4.15,1.3l5.8,4.35l6,0.65l3.3,2.649l5.5,5.5
		l3.8,2.301l1.65-0.351l0.35-0.649l0.65-2.301l2.65-1l3.5,1.301l3.8,2.35l1.65,2.15l1.175,0.925l1.825,2.725l-0.15,5.95l3.15,1.5
		l-0.3,3l0.3,1.5L332,457.7l-3,1.35l-5.65-2.35l5,4l-1,1.5l2.85,2.5l0.45,2.3l-0.65,1l-2.475-1H327.5l-2.3-1.65l-5,2.5l-2.95-0.149
		l-3.5-0.7l-8.3-4.95l1-2l-2.5-2l-0.35-1.35l-3.65-1.15l-1.65-2.3l-10.6-5.3l-0.65-2.5l-4.15-4h-3.85l-2.65,4l-4.8-0.2l-0.65-1.45
		l-9.95,1.95l-4.65-1l-2.85,2.5l-2.3,0.2l-0.5-2.7l-5.5-0.3l-1.35-1.05l1.35-1.051l1-1.25l1.5-2.699l1.25,1.75l2.5-0.5l2-0.75
		l0.95-3.25l-0.7-3.45v-0.05l3.45-5.2l0.25-2l-0.125-0.4l-0.35-1.2l-0.025-0.05l2.975-1.075l0.025-0.024l0.975-2.7l0.025-0.05
		l3-0.25l3.675-1.2l0.775-0.25l-5.2-5.25l-1.25-1.75h-1.75l-1.25-3l1-5.7l1.475-4.2l0.025-0.05l5.45-1h4l4.225,3.226l0.025,0.024
		l1.6-0.649l6.6-2.601l1.1-1.1l1.15-1.101l-0.5-2.75l1.25-2l2.2-0.25l0.75-1.25l4.5,2.25l0.975,2.726l0.025,0.024l1.475-1.475
		l0.025-0.025l2,5.45l3.95,2.25l3.2,1h0.05l1.375-1.399l6.075-6.051l-1.5-2.25l-0.425-1l-1.275-3V386.8z M177.725,220.5l0.975,1.85
		l0.5,1.95l0.05,0.025l2.95,1.975l2.75-0.75l1.15,1.15l-0.9,2.6v0.025v0.025l1.2,2.725l-1.025,0.475l-1.125,0.5l-0.55,0.25
		l-6.45,6.2l-3.5,0.5l-0.75,2l-1.75,7.2l-3,2.75l-2.95-0.75l-4-3.75l-3.25-0.25l-0.625-1.025l-1.575-2.675l-2.25-2.25l-0.675-4.05
		l-0.075-0.45l-0.35-0.85l-0.6-1.4l-0.3-0.7l1.5-2l3.75-1.5l-0.5-4.7l1.5-2l-0.5-1.25h-3.75l-2.25,0.5l-3.7-1l-0.25-2.5l0.25-1.25
		l-2.25-1.95l-0.5-4.75l-0.05,0.025V211.4l-3.2,2.2l-0.6,1.575l-0.15,0.425l-0.075-0.025l0.225-0.4l-0.225,0.4l-3.375-0.725v-1.95
		l1.45-2.75l0.15-2.7l-0.05,0.075v-0.075l0.05-0.075v0.075v-0.075l9.55-13.175l4.75-2.5l3.95-4.2l0.5,2.7h0.05l1.55,0.1l4.475,0.325
		l4.375,0.325l1,1l0.775,2.075l1.225,3.425l1.75,1.5l1.75,1.95v0.05l0.425,4.675l0.325,3.775l2,3.95l-2.25,2.5L177.725,220.5z
		 M159.4,190.3v4.1l-1.15,3.3l-4,5.15L151.6,204l-2,3l0.35,1.5l-0.35-1.5l2-3l2.65-1.15l4-5.15l1.15-3.3V190.3z M145.95,215.8
		l3.65-6.85h4.15l2.5,4.65l2.8,0.5l0.35-2.95l-0.15-3.65l6.95-2.85l8.975,0.975l-8.975-0.975l-6.95,2.85l0.15,3.65l-0.35,2.95
		l-2.8-0.5l-2.5-4.65h-4.15L145.95,215.8z M131.7,201.55l1.15,1.8l-1,1.7h-3.65v-2.5L131.7,201.55z"/>
	<path fill-rule="evenodd" clip-rule="evenodd" fill="#c8c8c8" d="M132,229.85l0.45,0.45l2.75-0.5h1.2l0.475,0.075l1.275,0.175
		l0.25,2.25l-3.2,5l-0.25,2.3l-0.05,0.4l-2.225,0.3l-1.725,0.2l-1.75-0.25l-0.375-0.825l-0.125-0.275l-0.2-0.45l-0.3-0.7l0.2-1.15
		v0.05l0.075-0.5l0.375-2.15l0.25-0.4l0.875,0.1l1.725,2.45h-3.225h3.225l-1.725-2.45l-0.875-0.1l1.45-2.45l0.425-0.45l0.4,0.075
		l-0.4-0.075L132,229.85z M132.4,234.2l-2.425-0.25l-0.275-0.4l0.275,0.4L132.4,234.2z M131.1,239.15h-2.4H131.1z M134.65,239.05
		l-2.3-1.7l-0.65-0.95l0.65,0.95L134.65,239.05z M134.4,236.4h-2.7H134.4z M136,231.8l-4.625-0.775L136,231.8z M131.375,231.025
		l4.125,5.175L131.375,231.025z"/>
	<path fill-rule="evenodd" clip-rule="evenodd" fill="#c8c8c8" d="M126.9,224.8l-0.2,2.95l2.15,1.5l-1.8,0.65l-3.8-1.8l-2.35-2
		l1.85-2l1.8,1L126.9,224.8z M125.65,248.95l0.275-0.95l0.45-1.55l1.95-0.375l-1.95,0.375l0.475-1.6l-0.5-1.8l0.8-0.05l-0.8,0.05
		l-0.85-3l0.5-0.9l1.575-2.75h0.75h-0.75l0.675-1.2l0.075,1.2l0.025,0.5l-0.2,1.15l0.3,0.65l0.025,0.45l0.175,2.85l2.025,3.6
		l-2.35,0.475l0.175,0.475l-0.8,1.325l0.8-1.325l-0.175-0.475l-0.575-1.575l0.2-2.95l-0.2,2.95l0.575,1.575l2.35-0.475l3.725,6.65
		l-3.45-1l-4.15-1.8L125.65,248.95z M127.7,247.875L125.925,248L127.7,247.875l-0.9,1.575L127.7,247.875l1.7-0.125L127.7,247.875z
		 M128.475,239.15H126H128.475z"/>
	<polygon fill-rule="evenodd" clip-rule="evenodd" fill="#fff" points="74.65,227.925 75.4,229.6 71.75,227.6 75.75,226.45 
		74.65,227.9 	"/>
	<path fill-rule="evenodd" clip-rule="evenodd" fill="#c8c8c8" d="M202.35,285.125l0.5,2.225l1.5,0.5l4.95,2.2l-0.075,0.15H209.2
		l-4.1,5.6l1,2.7l2.25,1.5v2.75l-3.95,0.75h-0.025h-0.025l-3.2-0.75h-0.05l-3.45,1l-1,7.7l-2.5,1l1.25,3.75l1.75,2l0.75,2.45
		l-2,1.25l-3.2-0.5h-0.05l-5.5,4l-2.65-0.25h-0.05l-4.25,5.25l-0.5,3.949l4,9.2l0.775,0.5l-2.675,2l-1,1.851l-2.5,0.5l-2.45,0.149
		l-2.35-1.149l-3.3,2.149l-1.15,1.351l-0.2,1.149l-0.15,2.15l-2.15,1.649l-6.65,3l-1.65-0.649l-0.5-1l-4,1l-3.15,1.8l1.35,1l-5,9.45
		l0.5,3.5l-0.5,3.5l-1.8,1.8l-1,1.35l-1.15,0.65l-2.85-0.65l-2.5-1.85l-1.15,1l-1.5-0.8h-1.15H135l1.5,0.8l1.15-1l2.5,1.85
		l2.85,0.65l1.15-0.65l1-1.35l1.8-1.8l0.5-3.5l-0.5-3.5l5-9.45l-1.35-1l3.15-1.8l4-1l0.5,1l1.65,0.649l6.65-3l2.15-1.649l0.15-2.15
		l0.2-1.149l1.15-1.351l3.3-2.149l2.35,1.149l2.45-0.149l2.5-0.5l1-1.851l2.675-2l3.175,2l2,5l1.75,2.7l0.5,6.25l-2.5,3.5l0.5,3.7
		l-0.5,5.75l3.25,10.2l2,1.75l0.25,5.949l6.95,4.25v-0.024l0.05,0.024l0.5-3.75l1.5-0.75l-0.25-2.449l3.25-1l1.2-1.75l2.4-0.601
		l0.6-0.149h2.95l2,1.25l3.5,0.75l0.25-3.5l2.95,1l2,3l0.25,2.199l0.05,0.025v0.025l0.75,0.55l2.2,1.649l0.75,2.5l1.25,1.25
		l3.2,1.25l1.75,3.7h-2.7l0.025,0.05h-0.025l0.425,0.9l0.775,1.8l-0.75,2.226l-0.95-0.4L231,404.55l-3.75,5h0.05l4.95-0.25
		l1.95,3.45l5.5,4.25h6.7l2.75,0.5l1.5,3l2.075,1.15l1.925,1.1l1.975-0.25l0.275,0.85l0.375,1.2l0.125,0.4l-0.25,2l-3.45,5.2v0.05
		l0.7,3.45l-0.95,3.25l-2,0.75l-2.5,0.5l-1.25-1.75l-1.5,2.699l-1,1.25l-1.35,1.051l-0.95-0.75l-3.65-0.851l-2.85,3l-0.1,0.05
		c-0.1,0.034-0.383,0.15-0.85,0.351c-0.467,0.2-1.25,0.517-2.35,0.95c-1.6,0.6-2.617,0.949-3.05,1.05
		c-0.466,0.1-0.667,0.133-0.6,0.1l-2.65-2.35l-1.15-0.65l-0.2,0.15c-0.167,0.133-0.6,0.467-1.3,1c-0.5,0.366-0.85,0.483-1.05,0.35
		c-0.233-0.133-0.367-0.316-0.4-0.55c-0.034-0.267-0.05-0.417-0.05-0.45l-0.35-1.649l-3.15-3.851l-2.5,0.2l0.2,3l-1.65,2.3
		l-3.35,1.5l-3-0.85l-1.15-1l-2.65,1.2l-3.65,0.5l-0.5-2.851l-1-2.5l-0.15,0.05c-0.133,0.034-0.517,0.134-1.15,0.301
		c-0.667,0.133-1.083,0.083-1.25-0.15c-0.2-0.2-0.283-0.316-0.25-0.35l-2.5-3.5v2.149l-3.3,1l-1.35,4.351l1.35,2.649l-3,0.8
		l-3.65-1.3l-0.85,3.351v0.05c-0.017-0.005-0.034-0.005-0.05,0c-0.295-0.035-1.045,0.148-2.25,0.55
		c-1.467,0.533-2.433,0.934-2.9,1.2c-0.367,0.2-0.567,0.35-0.6,0.45l-0.15-4.601l-2.35-1.5l-1-3.35l-3.95,0.2L169.4,441l-3.2-1.5
		l-3.45,1c0-0.033-0.05-0.017-0.15,0.05s-0.417,0.217-0.95,0.45c-0.5,0.267-1.35,0.7-2.55,1.3c-1.2,0.601-2.067,0.884-2.6,0.851
		c-0.5,0-0.8-0.101-0.9-0.301c-0.133-0.199-0.184-0.316-0.15-0.35l-3.85-2l-4.3,1.15L144,439l-1,1.5l-0.5,4.45l-2.65,2.5l-2.5-0.8
		l-1.15,1.149l-0.35,2.15l-3,2.8l-2.95-0.5l-3.35-2.95l-1-2.35l-2.3-0.65l-2.15-1.35l-3-1l-1.85,0.85l-3.65-0.5l-1.45-3.3l-1.1-1.1
		v-2.5l1.5-2l0.75-1.95l3.5-2l0.55-2.3l1.4-5.9l2.25,1.45l1.1-0.726l1.15-0.725l1.5-2l1.25-5.5l1-2l1.275-1.475l0.425-0.476l1-0.75
		l1.5,1.45l1.225-1.1l1.275-1.101l1.5-1l1.5-0.5v-3.5l-1-1.5l1-1.5l2.5-1.95l0.75-4.75l0.7-2.5l0.25-4.449l-0.975-1.75l-0.975-1.75
		l-2-2h-0.05h-1.95v-1.25l-0.75-4l-1.125-1.4l-0.875-1.05l-1.75-1.5l-1.75-4l-1.05-0.351l-0.4-0.149h-0.025L123,371.7v-0.025V369.7
		l-1-1v-2.25l2-2.2l0.5-11.7l0.75-3.5v-2.25l0.75-2.6l1.95-6.601l-0.25-4.75l0.3-1.35l6.45-5.1l1.75-3.5l1.975-2l1.225-1.2l3.5-2.25
		h0.7l-1,4.5l1.5,4.7l0.05-0.025v0.025l5.25-2.75l7.2-4.7l10.7-5l3.75-5.25l-1.25-4.2l-0.5-8.45l4.7-4.75l0.75-0.275l14.15-4.175
		l2.55-1.95l0.7-0.525l0.15,0.625l0.35,1.35l2.25-0.5l3.45,0.5l2.9-1.075L202.35,285.125z"/>
	<polygon fill-rule="evenodd" clip-rule="evenodd" fill="#c8c8c8" points="346.25,454.75 349.4,456.45 350.6,458.9 350.9,460.25 
		355.75,462.4 360.7,463.4 364.5,464.75 365.85,467.2 355.4,467.7 347.45,467.55 341.45,465.25 336.95,465.9 331.5,462.75 
		330.85,460.6 336.8,455.1 340.95,453.6 	"/>
	
		<path fill-rule="evenodd" clip-rule="evenodd" fill="none" stroke="#fff" stroke-width="0.5" stroke-linecap="round" stroke-linejoin="round" stroke-miterlimit="3" d="
		M299.25,40.15l72.15,73.4l0.2,12.95l0.95,59.1l0.1,5.6l-0.025,0.05L398,209.9l21.7,15.95h63.45L581,321.7L507.3,396.6l0.75,40.851
		h72.2 M340.975,185.6l-1.025-6.3l2.3-2.65l1.35-6l-4.65-2.65l-7.65-6.15l-3.65-1.65l-4,0.5l-6.6-6.8l-3.15-8.15l-4.15,8.5
		l-2.65,4.15l-4-3l-6.5-3.65l-0.5-3.15l-10.25-1.15l-0.25-0.55l-2.35,4l-1,1 M279.05,151.4l-1.325,1.5l-0.425,0.5l-2.25,1.5l-3-1
		l-4.45,0.25l-1.25,1.25l-0.4,2l-0.1,0.5l-4.75,0.25l-0.1,0.5l-0.4,2.2l1,1.25l2.5,2v1.5l-1,1l-2.5-0.25l-2.45,3.25l0.25,0.45
		l1.45,2.5l-0.75,1.75l2.5,3.5l-1.35,3.3l-0.15,0.425v0.025l1.5,2.45l-1.75,1l-4.7-0.25l-1.2-0.75l-1.55-0.95h-3.5l-1.875,1.075
		L246.4,184.5l-0.7-0.5l-0.025,0.025l-3.325,2.625l0.1,1.35l28.1,13.7v18.15l-0.3,0.05l-18.1,2.45l-20.4,13.95l-0.75,2.5l1.25,1.75
		l-0.25,0.5l-0.75,1.45l-1,2.75l1.35,1.125l1.4,1.125l0.6-0.15 M331.75,240.8l-2.1,0.2l-7.3-0.8l-7.3,2.3l5.95-3.45l5.65-1.2
		l4.3-2.15l4.65-3.65l0.35-3.45l-1-1.2l-2.5-1.5l-0.8-1.65l-1.85,1.85l-0.8-2.65l3.45-3.5l-0.3-4.65l-1.65-1.65l-3.2,1.5l1-2.25
		l1.5-0.9l-3.3-3.85l-1-5.95l5.45-4.5l1.2,2.15l2.3-3.65l3.5,0.85l2.65-1.15l1-6.5l-0.625-3.8 M419.7,241.5v-15.65 M419.7,241.5
		v1.75h-14.05H399.8l-0.975,0.85l-4.275,3.65l-3.75,2.5l-0.35,0.35l-2.1,2.15l-0.75,1.5l-1.5,1.2l0.2,0.625l1.55,4.625l3.95,2
		l1.25,2.25l0.75,4.05 M397.2,249.775l0.25-2.475l3.75-0.65l4.8,1.3l-0.85,0.85 M407.125,248.55L408,247.7l3.55,0.2l0.175,0.075
		 M496.25,307.6l1.3-1.1l-0.8-7.25l-1.2-0.15l-13.6-9.15l-0.8,8.35l-1.801-3.65v-5.3l-10.55-5.5l-8.6-10.75l-4-0.2l-3.4,3.25
		l-0.8,6.5l-2.75,4.65l-1.8-2.85l2.95-9.3l3.8-2.85l-12.75-11.4l-19.95-11.6v4.3l-0.2,1.8l-4.2-5.05l-5.375-2.375 M407.125,248.55
		l-2.625,2.55l-3.35,1.25L396.55,253l-1,1.25l2.05,3.2l-1.25,4.05l-1.65,2.1l1.25,4.85L393.8,269h-0.05v4.15l-4.45-0.5l-0.75,2.45
		v0.05l0.75,3.2l-4.75,0.5l-6.2-0.75l-7.7,0.75l-2-1 M358.45,330.9l1.1-0.875l1.1-0.875h0.05h3.7l3.75,1.5l5,3.449l14.65-2.475
		l18.5-3.15l0.4-0.074h0.05l3.2,0.25l7.2-4.25l1.35-1.625l3.4-4.075l65.35,1.175l2.1,0.025l2.4-2.976l2.35-2.975v-4.5l2.15-1.851
		 M385.875,236.85l-1.125-0.6l0.8-3.35l-1.45-4.05l-2.5-4.25v-2.55l-7.25-1.65l-6.05,6.95l-5.6,4.7l-0.45,1.7l-7.05,2.75l-9.8-1.3
		l0.55,2.5l2.45,2.8h-2.3l-4.3,0.7l-5.5-0.85l-3.925,0.4l-0.625,0.05l-1.075,2.1L329.6,245l11.45,19.4H341l-0.55-0.05l1.35,1.05
		l0.25,1.475l0.5-0.125l4.7-1.35l9.45-8.7l1-4l2-0.25 M361.15,252.45l3.5-1.7l0.75-5.75h2.75l5.35,1.625l0.375,0.125l4.725-2.25
		l4.075-1.025 M373.875,246.75h-0.025l-0.35-0.125 M385.875,236.85l1.975,1.1l4.2-1.9l-1.25,3.6l-1.35,1.35l2.6-1l1.95-2.5
		l0.8-5.575L398,209.9 M388.8,241.25l0.65-0.25 M382.9,243.5l5.15-1.1l0.4-0.4l-5.775,1.475 M388.45,242l1-1 M339.95,225.6l-0.5-1.7
		l-1.65,2l-1.35,7l-3.45,2.8l3.15,0.35l3.8-6.65V225.6z M330,237.7l2.85,0.5l-0.85-1.85L330,237.7z M372.625,191.25l-12.675,33.3
		L333.6,239l-1.225,1.75 M341,264.4L329.55,245l1.125-2.1 M342.55,266.75l0.95,2.65l3.75-0.75l3.45,1.75l4.25-2l-1.5,4.75l4.75,5.45
		l5.7-5.95l6,2.45l-0.025,0.05h0.025l-0.475,1.025l-0.775,1.675 M236.7,277.05l4,0.3l5.7,4.5l1.75,0.25l2.25-0.75l1.25,1.5l2.5,1.95
		l2.95-0.7l2-1.25l2.5,1.25l-0.75,3.45l4,2.25l2.95-1.25l0.75-0.75h0.05l2.2,0.5l2,0.75l1.5,1h3.25l7.95-2.5l2.75-3.2
		c0-0.033,0.067-0.267,0.2-0.7c0.104-0.292,0.229-0.609,0.375-0.95l0.275-0.65c0.267-0.6,0.566-1.167,0.9-1.7
		c0.333-0.5,0.833-0.967,1.5-1.4c0.5-0.3,0.975-0.55,1.425-0.75l0.425-0.2c0.533-0.267,0.816-0.4,0.85-0.4l22.15-7.7l10.45,1.25
		l5.25-3.75l6.2-3.25h0.05l2.15,0.2 M342.05,266.875L342,266.9l-0.25-1.5l-1.3-1.05 M397.2,249.775l-0.15,1.325l3.95,0.2l3.1-1.45
		l1.051-1.05 M390.8,250.25l-0.5-2.75l-2.825,1.225 M386.325,249.525l-0.575-0.025l-2.85-6 M386.3,249.25l1.175-0.525 M384.55,252.6
		l3.1-0.2l0.8-1.55l0.525-1 M387.675,249.55l-1.35-0.025 M393.75,269l-0.5,0.1l-2.1-2.75l-1.65-1.05l-2.9,0.4l-0.4-1.9l-3.75,0.45
		l-4.4,3.15l-6.85,1.1l-2.1-3.2l1.45-2.55l-3.95-5.7l8.15,5.05l4.55-2.95l-6.25-7l11.5,0.45 M369.425,276.175l0.45-1.025
		 M431.375,356.075l2.125,0.425l2.1,1.5l0.75,5.8l2.351,2.5l3.149,1.05l3.7-0.449l3-4.301l3.7,1.051l2.4-0.15l2.949,0.6l0.7-0.05
		c0.5-0.033,1.517-0.017,3.05,0.05c1,0.034,1.733,0.067,2.2,0.101c0.434,0,0.7,0.017,0.8,0.05h0.101l5.2-1.95l4.199,0.601
		l3.101-1.801l10.85-4l7.3-4.75l10.15-3.149l8-1.2l13.55-5.65l7.3-6.25l2.65-2.949l0.3-1.95l1.8-0.9l1.65-3.85l-0.3-1.65l-1.5-1.05
		l-1.45-2.5l2.4-7.3l-2.601-7.3l-5.8-6.95l-7.55-2.4l-1-1.85h-4.8l-0.2,2.65l1,2.05l-2,3.449h-7.4l-7.55-3.7l-4.95-0.65l0.8,7.25
		l-1.35,1.1 M333.3,355.025l2.5-0.775l1.45-2.95l0.75-4.25l-1-0.75v-2.25l1-1.75l2.5-0.45l-1-2.5l1.25-1.5l0.5-2l1.35-0.949
		l2.15-1.551l2.25-0.75l0.125-0.3l0.375-0.95l1.7-1.449l0.25-2.5h0.05l2.25,0.5l6.7,3 M342.6,334.9l-1.3,0.949l-0.5,2l-1.25,1.5
		l1,2.5l-2.5,0.5l-1,1.7v2.25l1,0.75l-0.75,4.25l-1.5,3l-2.5,0.726l-2.5,0.725l-1.225,0.75l-1.225,0.75l1.075,1.125l0.375,0.375
		l-0.95,1.5h-0.05h-1.95L325.1,361l-1.325,0.95l-0.425,0.3L318.1,363l0.25,1.25L316.4,365l-0.3-0.2l-0.45-0.3l-0.025,0.025
		l-1.975,1.725l2,3.45l-0.5,1l1.25,3.75l-1.75,1.75l-2,1h-0.75l-0.375,0.825L310.9,379.4l0.5,1l-1.25,1.75l-0.5,4.649h0.05v-0.05
		l4.4,0.75l3.95-2.3l1,2l1.35,0.3l2.3,2.7l1,3.649h2.65l4.65-3.35l2.65,2.65l3.3,0.699l1.15-0.75l1.85-1.25l1.675-2.35l0.625-0.95
		h0.025l0.025-0.05l2-0.65l0.775,1.775 M394.2,375.9V373.6l2.7-0.75h1.05l1.15-3.1l3.15-1.5v-1.65l1.35-1.6l3.551-2.1l5.199-0.45
		l5.4,1.2l3.25-0.75l6.7-2.4l-0.15-0.9l-2.55,0.45l-2.05-1.6l-1.5-0.601l-1.5,0.9l-1.8-0.15l1.199-2.85l3.601-1.05l4.149,0.899
		l1.801-1.199 M360.7,329.15l-1.15,0.875 M349.5,327.4l-0.25,2.5l-1.75,1.5l-0.375,0.899 M329.425,358.375l-1.125-1.125l1.275-0.75
		 M323.775,361.95l1.275-0.95l1.75-0.75h0.05 M328.8,360.25l1-1.5 M342.275,388.55l-0.65,0.95 M338.1,393.1l-1.1,0.75h-0.05
		 M371.2,404.05V404l-2.7,0.1l-9.95,7l-1.35-4.35l-1.3-1.3v-1.65l-5.3-3.35l-1-3.65l-1.65-1.95l0.225-1.074l0.075-0.226v-0.05
		l-2.65-2.65l-0.525-1.225 M419.7,406.2l-1.55,0.149l-0.551-3l-1.949-2.05h-1.801l-3.1-2.85l-1.8-2.65l-1.5-0.3l0.149-1.35
		l-1.649-1.2l-1.3-2.4L403,388.8l1.05-2.25l-0.75-2.649l-2.25-2.551l-1.65-2.55l-1.3-0.3c0,0.033-0.083,0.116-0.25,0.25
		c-0.133,0.134-0.367,0.217-0.7,0.25c-0.333,0-0.767-0.167-1.3-0.5c-0.8-0.5-1.283-0.8-1.45-0.9l-0.2-0.1v-1.6 M424.4,394.2
		l16.899-14.05h0.05 M431.375,356.075l-0.125-0.025l-1.75-1.25 M418.5,322.775l-1.3,1.625l-7.2,4.25h-0.05 M406.75,328.4
		l-0.45,0.074 M415.15,381.2l-1.301-0.601l-0.149,0.75l1.6,0.75L415.15,381.2z M418.3,382.1l-0.45,0.9v0.45l1.5,0.3l0.75-0.6
		L418.3,382.1z M428.3,383.3c-0.267,0-0.616,0.05-1.05,0.15c-0.434,0.1-0.684,0.149-0.75,0.149l-0.9,1.051l1.051,1.35l1.8-1.05
		l3.25-0.75l-2.351-0.3c-0.033-0.034-0.149-0.134-0.35-0.301C428.767,383.434,428.533,383.333,428.3,383.3z M428.15,386.85
		c-0.034,0-0.167,0.067-0.4,0.2c-0.233,0.134-0.417,0.283-0.55,0.45c-0.134,0.2-0.066,0.366,0.2,0.5
		c0.433,0.233,0.699,0.366,0.8,0.4l0.1,0.05l-0.149-1.2 M432.6,395.6l1.601,0.9l-1.75,1.2l-2.4-0.45l-1.8-1.05l2.25-1.2L432.6,395.6
		z M435.3,394.9l1.95,0.449l2.2-0.75l0.3-1.05l-1.45-0.6l-3,0.75V394.9z M507.3,396.6H462V381.15l-20.65-1 M491.75,316.925
		l-2.35,3.025l-2.15-0.075 M496.8,299.25l-0.2-59.75 M277.9,49.85h-5.3l-2.15,0.35l-1.5,1l-1.35,0.65l-3.65,4.65l-4.65,0.15
		l-3.15,4.65l-0.3,3.8l-1.2,6l1.85,2.65v3l-0.85,3.8l2.15,3.3l1.5-1.95l0.85-1.7l3-1.3l2.65-2.35l4.3-2.15l3.5-0.65l3.65-1.15
		l1.5-2.85l1.3,2.65l4.15-4.95l-1.15-2.65v-4.35l3-4.65l-2.5-4.45l-3.5-0.15L277.9,49.85z M244.5,54.85l-1.3,1.85l-7.8,2.95
		l-0.35-1.3l-2.8,1.3l-2.35,1.85l-1.5,4.3l1.5,2.8l5.3-0.3l3.35-0.65l1.8-2.2l1.35-0.95l1,0.45l1.5-0.95l-2.15-3.35l1.45-3.15
		l1.85,0.35l0.15,1.8l1.85,1.85l3.45,0.3l-0.45-2.15l0.15-3.3l-2-5.8l-2.65,0.5l-1.5,1.95L244.5,54.85z M252.3,85.2l1.15,1.35
		l2.35,0.15l-0.85-1.5H252.3z M265.325,97l-1.875-0.2l-4.1,1.35l-4.95,2.45l-2.5,4.5l1.25,6.2l2,4.25l-2.25,6.5l-3.75,3.2L243.7,133
		l2.45,1.95l-7.7,7.5l-2.25-0.5l-4.8,6.3l-0.8,1.425v0.025l9.1,2.7l2,5.95l3.45,3l2,0.5l-1.75,1.5l2.25,1.25l2.25,2.25l2-0.75
		l2,0.25l0.5,1.25l1.5,0.65l1.95,0.8l0.3,0.55 M285.6,146.9l-1.1-2.65l0.35-2.8l-2.15-2.85l2.15-6.1l-3.65-3.15l-1-1.35l-1.5-3.15
		l-0.15-3l-1.7-0.8l3.85-5.35l0.3-8.45l-0.3-3.3l-7-1.15l-3.8-5.35L265.325,97 M283.05,92.85L288.2,96l0.3-2.8l3.65-0.2l2.35-1.15
		l-4-2.65l-0.65-2.85l-6.15-0.65l-3,3L283.05,92.85z M296.8,59l-1.8-0.65l-2.15,1.45l1.65,2.7l2.15-0.85L296.8,59z M291,53.5
		l-1.15-2l-1.35,1.15l1.35,1.5L291,53.5z M284.7,69.75l1.5,0.35h0.8l1-2v-2.8l-2.65,1.15L284.7,69.75z M229.1,71.6l4.15-0.85
		l-1.35-1.35l-2.15,0.5l-1.5,1L229.1,71.6z M229.85,126.15v-0.025l0.75-1.925l0.3-3.15l-0.65-4.5l-7-0.8l-1.3,1l-0.15-2.85l1.65-0.5
		l2-1.15c0,0.033,0.05,0.15,0.15,0.35c0.133,0.233,0.383,0.4,0.75,0.5c0.4,0.133,0.983,0.066,1.75-0.2c1.1-0.4,1.767-0.633,2-0.7
		l0.3-0.1l-3.5-6.15l-1.8-1.65l-0.85-4.15l-3.3-3.85l-4.3-2.3l-4.35,3.5l-1.95,3.8L208,111.6l0.7-0.05l3.2-1.2l4.5,1.2l2.3,1
		l0.35,2.15l3.8,5.65l2.2,4.65L229.85,126.15z M184.6,41.7v42v28.15 M208,111.6l-0.1,0.325l-0.25,0.825l-2.15,2.15l-3.45,0.65
		l0.15,6.8l-1.35,5.8l1,5.35l-1.65,5.95l-0.9,0.6v0.025l0.05-0.025l0.3,1.15l1.75,2l2.25,1.2l0.25,2.75l-3.75,3l-1.25,13.95l-1.25,2
		l-0.75,1.25l-0.125,0.5l-0.975,4.475 M218,149.975l-0.2-0.225l-0.15-5l11.6-16.9l0.6-1.7 M237.45,124.8h0.05l-11.95,22.4
		l5.05,2.475 M229.85,126.125l7.6-1.325 M207.9,111.925l-23.3-0.075v7.95v21.45h12.975l1.725-1.175 M197.575,141.25h0.625
		 M197.575,141.25l-4.175,2.85l-3.95,7.15l-4.15,5.45l-1.85,6.3l-3.8,6.65L172,173.3l-1.45,0.9l-4.2,2.6l-5.3,4.95v4l-3.7,1.75
		l0.5,2.7l1.55,0.1l4.475,0.325 M197.4,182.5v-4.45l0.25-2l-2.5-0.75l0.65-2.975 M196.775,167.85l0.125-0.55l0.75-1.2
		 M168.25,190.95h0.05l1,1l0.725,2.075l1.225,3.425l1.75,1.5l1.75,1.95v0.05l0.425,4.675l0.325,3.775l2,3.95l-2.25,2.5l2.475,4.65
		l1.025,1.85l0.5,1.975l2.95,1.975l2.75-0.75l1.15,1.15l0.35,0.35h2.475l3.95-5.575l0.775-1.125l2-4l0.175-0.575l1.325-4.375
		l2.2-5.2l0.05-0.025v-0.025l3.975-2.225l0.825-1.425l0.775-1.375L205,201.1l-1.35-2.15l-4.25-2l-0.75-3.25l2.5-2.25l2-5.95l-2-2
		l-3.75-1 M170.025,194.025l-0.775-2.075l-1-1l-4.375-0.325 M230.6,149.7l-1.2,2.2l-6.45,2.35l-2-0.7l-2.95-3.575 M213.925,198.325
		l1.125-1.125l2.45,0.525l6.25,1.225v-1.2v-0.05l6.75-3.5l0.6-1.1l1.1-2.1l5.75-2.5l0.75-1.1l0.75-1.15l2.75,0.5l3.45-2.75
		l0.025,0.025 M217.5,197.725l-2.45-0.475l-1.125,1.075l-0.375,0.375l-4.2,0.25h-0.05l-1.2,1.25l-2.75,1.5 M205,201.15l-0.8,1.35
		 M231.1,193.1l-0.6,1.15l-6.75,3.5 M242.35,186.65l-0.15,0.1l-2.75-0.45l-0.75,1.1 M309.4,110.55l-2,0.2l1.15,1.65h1.5
		L309.4,110.55z M290.85,105.25l-0.35,1.85l2.15,0.15l0.5-1.3l-0.85-1.7L290.85,105.25z M285.15,120.2l-2.8,1.65l-0.35,2.5
		l2.15-0.85l1.85-1.8L285.15,120.2z M283.85,117.9l-3,2.3v0.5l1.15,0.5l3-1.8L283.85,117.9z M285.6,146.9l8.15-15.4l1.7-5h76.15
		 M298.3,131.5l0.65,2.35l4.65,2.45l-0.65,2.35l-3,1l-4.65-1l-3.45,1l-2.5,3l5.3,2.45l7.8,1l8.3-2.8l2.5-3v-3l-2.35-2.8l-1.45-3.3
		l3.3-0.85l-0.5-1.65l-2.65-1.65l-0.35,1l-2.3,1.95l-6-0.5L298.3,131.5z M285.8,126.05l-0.15-1.7l-3.8,2.35l2,0.65L285.8,126.05z
		 M317.5,133.65l-1.95,2l1.45,1.15l1.2-1.65L317.5,133.65z M314.05,135.8l2.5-1.65l-0.5-2.7l-1.7,2.35L314.05,135.8z M311.75,130.85
		l-0.8,2h2.65l0.3-1.5l-1.65-0.5 M277.725,152.9l1.275-1.5h0.05 M266.35,155.4l1.2-1.25h0.05 M261,158.65l0.1-0.55l4.75-0.25
		l0.1-0.45 M258.4,170.05l-0.55-0.95l-1.95-0.85 M260.1,181.525V181.5l0.15-0.4 M247.025,184.125L248.9,183h3.5l1.55,1
		 M157.85,190.2h-0.05l-0.5-2.7l-3.95,4.2l-4.75,2.5l-9.55,13.175v0.075l-0.15,2.7l-1.45,2.75v1.95l3.375,0.725l0.075,0.025
		l0.15-0.425l0.6-1.575l3.2-2.2v0.025l0.05-0.025l0.5,4.75l2.25,1.95l-0.25,1.25l0.25,2.5l3.7,1l2.25-0.5h3.75l0.5,1.25l-1.5,2
		l0.5,4.7l-3.75,1.5l-1.5,2l0.3,0.7l0.6,1.4l0.35,0.85l0.075,0.45l0.675,4.05l2.25,2.25l1.575,2.675l0.625,1.025l3.25,0.25l4,3.75
		l2.95,0.75l3-2.75L173,242l0.75-2l3.5-0.5l6.45-6.2l0.55-0.25l1.125-0.5l1.025-0.475l-1.2-2.725v-0.025V229.3l0.9-2.6 M184.6,119.8
		h-42.7V186h14.2l1.25,1.5 M131.7,201.55l-3.5,1v2.5h3.65l1-1.7L131.7,201.55z M139.05,207.375V205.9h-43.7 M139,207.525l-1.3,2.125
		l-4,4l0.5,3.45l3.25,1l-0.75,2l-2.5,4.5l-0.25,3.25l-1.95,2l0.45,0.45l2.75-0.5h1.2h0.05l0.425,0.075l1.275,0.175l0.25,2.25
		l-1.2,2.25l-2,2.75l-0.25,2.3h0.025l0.75,0.1l0.925,0.1l3.75-1.75l9.2-1.75l2.3-1.8 M139,207.525l0.05-0.075 M139.05,207.375
		L139,207.45v0.075 M95.35,221.3h32.35v-3h4.15l0.65,5.5l-0.5,6.05l-1.025,1.1l-0.425,0.45l-1.45,2.45l-0.25,0.4l-0.375,2.15
		 M140.8,215.625l-3.35-0.725v-0.05 M144.85,211.425l-3.2,2.225l-0.75,2l-0.1-0.025 M136.875,229.875L136.4,229.8 M126.9,224.8
		l-2.35,0.3l-1.8-1l-1.85,2l2.35,2l3.8,1.8l1.8-0.65l-2.15-1.5L126.9,224.8z M129.975,233.95l-0.875-0.1 M128.375,236.4l0.025,0.45
		v0.05l0.075-0.5 M128.85,234.25l-0.55,0.9l0.075,1.25 M128.325,236.4l-0.075-1.2l-0.675,1.2L126,239.15l-0.5,0.9l0.85,3l0.5,1.8
		l-0.475,1.6l-0.45,1.55 M128.325,236.4l0.025,0.5l-0.2,1.15l0.3,0.65l0.025,0.45 M128.525,239.15l-0.025-0.45l-0.3-0.7l0.2-1.15
		 M128.7,239.15l-0.2-0.45 M128.7,239.15l0.125,0.275l0.375,0.825l1.75,0.25l1.725-0.2l2.225-0.3l0.05-0.4 M128.525,239.15
		L128.7,242l2.025,3.6 M130.95,240.5l-1.75-0.2l-0.375-0.875 M130.675,245.6l-2.025-3.6l-0.175-2.85 M130.675,245.6l3.725,6.65
		l-0.1-0.25l0.85,0.5l2.75,0.75l0.85,1.075l-0.85-1.125l-2.75-0.75l-0.85-0.5l-3.575-6.35 M134.9,240v0.05l-2.225,0.25 M132.4,234.2
		l-2.425-0.25 M135.2,237.3l3.2-5 M152.925,237.2l-0.075-0.4l-0.35-0.9 M165,250.95l-3.7-3.45l-3.25-0.25l-0.625-1.075
		 M111.6,249.35h8.3l1.3-0.4h4.45l0.275-0.95 M106.375,262.75l2.425,3l-1.35,10.95l-1.25,3.15l4.8-1l10.2-5.5l6,0.75v0.05
		 M106.375,262.75l-0.925-1.15l11.95-4.15l8.15-8.1l0.1-0.4l1.15,0.5l4.15,1.8l3.45,1 M106.125,249.35h5.475 M95.15,252.575V263.1
		v17.45h10.45 M106.125,249.35H95.15v0.75v2.475 M104.5,283.05l-4.05,4.4l-5.15,1.65l-6.95,1.35l-8.8-0.5l-1.4-0.55v0.05l-4.75-1.8
		L70.25,285l1.7-3.65v-1.8l-2-1.7L63.8,288l-6,5.15l-9.75,10.75l-4,2.85l-3.3,1.3v4l-0.7,4.3l-1.5,5l0.7,1l1.5-0.35l2.45-3.15
		l-0.65,3l1.85,1.65l2.95,1.65l2,2.649l0.5,0.351L51,326.4l3.5-2.75l1-3.45v-9l1.25-1.2l0.05-0.05l2.7-0.75l0.25-1.7l0.625-0.8
		l1.825-2.45l0.05,0.025v-0.025l2.225,0.75l3.225-1.25l0.025,0.025l0.025-0.025l6.425,7.175l2.225-2.675l0.025,0.025l0.025-0.025
		l3.25,1.7l1.95,0.5l3.5,3l4.475,1.975l1.225-0.725l0.025,0.024L90.9,314.7l2.2,1l2.25-0.25v1.5l-0.25,0.75l1,3.7v2.5l1.475,1
		l0.375-0.101l0.6-0.149h0.05l0.75,1.5l1.5,1.05v0.05l0.2,0.15l1-1l0.75-4.75l3-0.25l0.8-1l0.9-1.2l0.025,0.024l0.025-0.024
		l1.7,1.45l2,0.75l0.75,0.5l0.75-1.25l1.5-1.2l0.1-1.851l-0.55-0.725 M78.15,294.25l2.5,1l3,2.25l4.2,1.25l1.875,1.325l0.625,0.425
		l8.7,2.75l5.25,3.9l1.75,1.3l1.4,1.35l3.55,3.4l2.8,3.675l1.2,1.525l0.5-4.2v-1.75l2.25,0.25l0.975-1.5l0.975-1.5l-0.5-2.25
		l0.75-4.2l1.25-1l1.175-0.1l1.575-0.15l0.75-2.025l0.25-0.725h1l1.5-1.5l1.925-0.725l-0.725-1.475l1-0.925l1.225-1.1l-0.975-0.975
		l-1-1.5l0.25-1.5l0.65-1.1l0.35-0.65l0.725-2.5l0.025-0.05l-0.475,0.3H130.4l-0.525-1l-0.925-1.75l-1.75-8.65 M94.85,273.05h-9.3
		L78.1,282l0.05,7.4 M104.5,283.05l0.8-0.9l0.9-2.3 M85.55,273.05v-14.6H69.3v17.6l-3,6.8l-1.5,0.65l-1.5,4l-5.95,4.45l-4,4.65H32.3
		v12.45l4.45,5v19.9l-8.1,1.85l-2,11.25l4.3,0.55l9.6-7l7.65-0.149l1.85-11.95 M138.75,254.325l0.65,0.875h2.5l3.25,3.5l2.7,2
		l3.5,1.75l2.625,0.475l2.625,0.475l0.9-0.8l0.05-0.05l1.25-1.1l3.5-1l0.95-1.75l1.75-7.75 M157.5,262.6l-0.2,1.1l-2.25,3.2
		l-5.45,3.75l-2.25-0.5l-1.25-2.5l-1.25,1l0.25,2.75l-0.25,2.5l-1.475,2.45 M157.5,262.6l-0.9,0.85l-2.625-0.525 M131.475,284.9
		l1.175-0.8l2.25-2.25l1.25-2.75l3.45-1l3.75-1.7l0.025-0.05 M131.475,284.9l-0.575,0.4l-0.75,2.55l-0.35,0.6 M130.875,285.3
		l0.6-0.4 M130.875,293.525l0.025,0.025l-1.25,1.075 M129.875,284.55l0.55,1 M74.65,227.925l54.45,5.925 M78.05,264.6l-2.5-1
		l-2.3,0.15l1,1.5l3.5,2.5l1.45-1l-0.15-0.8L78.05,264.6z M89.725,300.075L87.85,298.8l-4.2-1.25l-3-2.25l-2.5-1v-0.05
		 M67.725,303.775L64.5,305h-0.025 M76.425,308.275L74.2,310.95l-0.025-0.025 M56.75,310l-1.2,1.2v8.95l-1,3.5l-3.5,2.75L49.9,328.1
		l5.3,3.351l8.45,3l3.85-1.851l1.3-1.949l1.35,1.3l-1.85,1.85l1,1.45l-0.8,1.7l-1.35-1l-1.525,3.975L64.5,342.4l-0.5,5.8l-1,2.85
		l-2,0.8l-1.65,2.851l-2,2H54.7l-3,2.45l-0.15,2.699L54.7,364l5.15,0.65l9.8-3.301l3.65,3.15l0.3,3.65l0.7,2.3l1,1.35l-0.35,4.95
		l0.65,1.65l1.15,0.85l0.85,5.15l0.15,4.449L75.1,390.7l-2.65,4.5l-0.65,3.3l-2.85,5.15l-2.8,2.8l-2.65,5l0.35,2.5l2.95,2.8
		l-0.15,1.15L66,419.25l1.3,2.5l0.5,2.45l-1,1.85l-1.8,1.3l4.95,9l-0.65,3.801l0.5,2.8l1.85,0.85l0.5,2h1.15l1.8-0.85l3.35,2
		l0.8,1.35l0.2,4.15l-1.7,4.3l-1.8,2.15l-0.15,7.149l-1.35,2.15l0.65,1.649l1.2,0.351l0.65,4.3l2,0.5l1.65,1
		c-0.033,0,0-0.167,0.1-0.5c0.066-0.366,0.3-0.917,0.7-1.65s0.65-1.166,0.75-1.3l0.1-0.2l-0.15-3l2-3.149l1.3-1l1.5,1.149l0.65-3.3
		l3.15-0.35l1.5-3.8l2.15-0.15l1-0.2l1.85,3.2l2.95-1.5l-0.3-4l2.15-0.15l0.65-1l0.5-2.85l2.35-0.3l-1-2.851v-3.8l1-1.649l0.5-4.351
		h0.35l-0.55-1.149v-0.75l0.75-3.95l-1.25-1.25l-1-2.75l1.25-2.25l-0.25-2.5l-1.75-3.7v-4.25l1.25-2.25l-0.75-1l-1.5-0.5l-0.75-1.2
		l-1.25-1.25l-1.25-3.75l1.25-1.5l0.75-1.75l-0.75-2.25l1.25-5.2l-1-5l3.25-8.199l-1-4.5l-4.75-1.7l-0.75-4l2.25-3.75l1.5-9.45
		l-1.5-3.75L98.3,355l-2.45-1.7l-2-0.25l-1-0.5l1.75-7.25l-0.5-2.45v-2.25v-1l1.5-3.25l1.95-6.449h0.05l1.05,0.175l0.45,0.075h-0.05
		l-0.4-0.075 M100.8,330.15v-2.95l0.05,0.05 M62.25,304.275l-1.875,2.425 M51.55,361.85L46.8,364l-1.5,3.2l-2.5,3l-0.75,1.75
		l-1.5,0.75l-4.45,0.75l-5-1.5l-4.75-0.75l-1.25-2.5l-1.7-2.45l-1-1l-6,0.25l0.5,3.7l-9.7,4.25 M30.95,347.6l3.5,0.45l0.5,3.5
		l16.6,10.3 M142.9,317.45h0.7l-1,4.5l1.5,4.7l0.05-0.025l5.2-2.725l7.2-4.7l10.7-5L171,309l-1.25-4.25l-0.5-8.45l4.7-4.75
		l0.8-0.275l14.15-4.175l2.55-1.95l0.7-0.55v0.025l0.15,0.625l0.6-1.15l0.5-1.75l-0.25-2.5l0.75-2.2l1.25-2.25l0.75-5.25l1.45-1.75
		l0.5-2.95l-0.3-1.75l-0.45-2.25l-0.425-0.075L195.4,261.2l-1.25-0.5l0.75-3.25l-4-2l0.75-3.7l-0.6-3.575l-0.15-0.925l1.75-2.25
		l-0.75-1.45l-5.25-1.5l-1.95-2.75l-4-1.5h-1.5l-0.25,0.25l-1.7,1.45l-0.05,0.05l-3.45,0.5l-0.75,2l-1.75,7.2l-3,2.75l-3-0.75
		l-0.25-0.3 M138.175,320.9l1.175-1.2l3.5-2.25h0.05l-3.5,2.25L138.175,320.9z M129.375,297.025l0.025,0.025l-0.325,0.125
		l-1.625,0.625l-1.5,1.5h-1l-0.25,0.675 M121.45,302.25l-0.25,3.5l3.25,6.25l1,3.2l0.75,8.95l1.75,0.75l0.45,4.5l-0.45,2.1
		l0.05-0.05l6.4-5.05l1.75-3.45l0.05-0.05l1.975-2 M136.2,322.9l-1.75,3.5l-6.45,5.1l-0.3,1.35l0.25,4.75L126,344.2l-0.75,2.6v2.25
		l-0.75,3.5l-0.5,11.7l-2,2.2v2.25l1,1v1.975v0.025l3.225-2.25h0.025l0.4,0.149l1.05,0.351l1.75,4l1.75,1.5l0.875,1.05l1.125,1.4
		l0.75,4v1.25h1.95h0.05l2,2l0.975,1.75l0.975,1.75l-0.25,4.449l-0.7,2.5l-0.75,4.75l-2.5,1.95l-1,1.5l1,1.5v3.5l-1.5,0.5l-1.5,1
		l-1.275,1.101l-1.225,1.1l-1.5-1.45l-1,0.75l-0.425,0.476L126,413.75l-1,2l-1.25,5.5l-1.5,2l-1.15,0.725L120,424.7l-2.25-1.45
		l-1.4,5.9l-0.55,2.3l-3.5,2l-0.75,1.95l-1.5,2v2.5l1.1,1.1l1.45,3.3l3.65,0.5l1.85-0.85l3,1l2.15,1.35l2.3,0.65l1,2.35l3.35,2.95
		l2.95,0.5l3-2.8l0.35-2.15l1.15-1.149l2.5,0.8l2.65-2.5l0.5-4.45l1-1.5l3.3,2.65l4.3-1.15l3.85,2
		c-0.034,0.033,0.017,0.15,0.15,0.35c0.1,0.2,0.4,0.301,0.9,0.301c0.533,0.033,1.4-0.25,2.6-0.851c1.2-0.6,2.05-1.033,2.55-1.3
		c0.533-0.233,0.85-0.384,0.95-0.45s0.15-0.083,0.15-0.05l3.45-1l3.2,1.5l1.15,2.15l3.95-0.2l1,3.35l2.35,1.5L178,452.4
		c0.033-0.101,0.233-0.25,0.6-0.45c0.467-0.267,1.433-0.667,2.9-1.2c1.205-0.401,1.955-0.585,2.25-0.55
		c0.016-0.005,0.033-0.005,0.05,0v-0.05l0.85-3.351l3.65,1.3l3-0.8l-1.35-2.649l1.35-4.351l3.3-1v-2.149l2.5,3.5
		c-0.033,0.033,0.05,0.149,0.25,0.35c0.167,0.233,0.583,0.283,1.25,0.15c0.633-0.167,1.017-0.267,1.15-0.301l0.15-0.05l1,2.5
		l0.5,2.851l3.65-0.5l2.65-1.2l1.15,1l3,0.85l3.35-1.5l1.65-2.3l-0.2-3l2.5-0.2l3.15,3.851l0.35,1.649
		c0,0.033,0.017,0.184,0.05,0.45c0.033,0.233,0.167,0.417,0.4,0.55c0.2,0.134,0.55,0.017,1.05-0.35c0.7-0.533,1.133-0.867,1.3-1
		l0.2-0.15l1.15,0.65l2.65,2.35c-0.067,0.033,0.133,0,0.6-0.1c0.434-0.101,1.45-0.45,3.05-1.05c1.1-0.434,1.883-0.75,2.35-0.95
		c0.466-0.2,0.75-0.316,0.85-0.351l0.1-0.05l2.85-3l3.65,0.851l0.95,0.75l1.35-1.051l1-1.25l1.5-2.699l1.25,1.75l2.5-0.5l2-0.75
		l0.95-3.25l-0.7-3.45v-0.05l3.45-5.2l0.25-2l-0.125-0.4l-0.375-1.2l-0.275-0.85l-1.975,0.25l-1.925-1.1l-2.075-1.15l-1.5-3
		l-2.75-0.5h-6.7l-5.5-4.25l-1.95-3.45l-4.95,0.25h-0.05l3.75-5l0.75,0.325l0.95,0.4l0.75-2.226l-0.775-1.8l-0.425-0.9h0.025
		l-0.025-0.05h2.7l-1.75-3.7l-3.2-1.25l-1.25-1.25l-0.75-2.5l-2.2-1.649l-0.75-0.55v-0.025L225,389.35l-0.25-2.199l-2-3l-2.95-1
		l-0.25,3.5l-3.5-0.75l-2-1.25h-2.95l-0.6,0.149l-2.4,0.601l-1.2,1.75l-3.25,1l0.25,2.449l-1.5,0.75l-0.5,3.75l-0.05-0.024v0.024
		l-6.95-4.25l-0.25-5.949l-2-1.75l-3.25-10.2l0.5-5.75l-0.5-3.7l2.5-3.5l-0.5-6.25l-1.75-2.7l-2-5l-3.175-2 M128,331.5v-0.05
		 M174.75,291.275L174,291.55l-4.7,4.75l0.5,8.45l1.25,4.2l-3.75,5.25l-10.7,5l-7.2,4.7l-5.25,2.75v-0.025 M121.45,302.25h-0.25
		l-1.2,1l-0.75,4.25l0.5,2.2l-1.025,1.5 M107.525,319.225L106.6,320.4 M115,318.4v0.05l-0.65-0.851 M107.45,309.8l-3.15-2.649
		 M90.875,314.725l-1.225,0.726l-0.025-0.025 M97.95,324.8L97.6,324.9h-0.025 M124.375,354.05l0.075-1.5l0.75-3.5v-2.25l0.8-2.6
		 M123,371.675l-0.05,0.025v-2l-1-1v-2.25l2-2.2l0.425-10.2 M126.65,369.6l-0.425-0.149 M133.95,383.15h-0.05v-1.25l-0.75-4
		l-1.075-1.4 M138.925,386.9l-1.025-1.75l-2-2 M131.425,411.4l1.225-1.101l1.5-1l1.5-0.5v-3.5l-1-1.5l1-1.5l2.5-1.95l0.75-4.75
		l0.75-2.5 M122.375,302.15l-0.925,0.1 M234,247.25l2.95,0.5l1.5,1.5l2,1.25l2.4,1.125L243.7,252l3.2,2.2l0.25,0.825l1.75,5.425
		l3.5,3.25v1.2l-1.5,0.5l-2,2.75 M245.7,268.15l-0.975,0.375l-2.775,1.125l-3.5,0.5l-1.1,5l-0.025,0.175l-0.125,0.525l-0.1,0.225
		l-0.4,0.975l-2.45,4.35 M247.15,255.025l-0.25-0.775l-3.25-2.25l-0.8-0.375 M244.725,268.525l0.925-0.375h0.05 M203.375,203.925
		l-0.025,0.025l-3.95,2.225 M204.975,201.125L205,201.15 M232,241.05l0.2-0.5l-1.2-1.75 M195.825,215.775l-0.175,0.625l-2,4
		l-0.775,1.075 M179.25,224.325l-0.05-0.025l-0.5-1.95l-0.975-1.85 M188.925,227.05l-0.025,0.05h-2.5l-0.3-0.35l-0.9,2.575
		 M186.4,232.075v0.025l-1.025,0.45 M183.7,233.3l-4.5,4.5 M196.675,261.375l0.475,0.075l0.4,2.25 M192.15,284.625l-0.7,0.525
		 M202.35,285.125l-1.1,0.4l-2.9,1.075l-3.45-0.5l-2.25,0.5l-0.35-1.35 M201.25,285.525l1.1-0.425v0.025l0.5,2.225l1.5,0.5l4.95,2.2
		l-0.075,0.15l2.575-0.15l9.95,4l5,0.25l2-0.25l-0.25-1.5l0.75-3l3.2-1.475l0.4-1.975l0.6-3.25l0.8-1.45l2.85-5.325 M233,247.5
		h-0.05l-1.35-1.125 M209.225,290.2H209.2l-4.1,5.6l1,2.7l2.25,1.5v2.75l-3.95,0.75h-0.025 M204.35,303.5l-3.2-0.75h-0.05l-3.45,1
		l-1,7.7l-2.5,1l1.25,3.75l1.75,2l0.75,2.45l-2,1.25l-3.2-0.5h-0.05l-5.5,4l-2.65-0.25h-0.05l-4.25,5.25l-0.5,3.949l4,9.2l0.775,0.5
		 M232.85,286.1l-0.35,1.95l-0.05,0.025 M201.85,395.075l0.5-3.726l1.5-0.75l-0.25-2.449l3.25-1l1.25-1.75 M210.5,384.8l0.55-0.149
		h0.05 M225.05,389.375l0.75,0.575 M311.525,378.025l0.375-0.875h0.75l1.95-0.95l1.75-1.75l-1.25-3.75l0.5-1l-2-3.5l2-1.7
		l0.025,0.025 M316.1,364.8l0.25,0.15l2-0.7 M286.3,389.85l-1.25,2l0.5,2.75l-1.15,1.101l-1.1,1.1l-6.6,2.601l-1.6,0.649
		l-0.025-0.024l-4.225-3.226h-4l-5.45,1l-0.025,0.05l-1.475,4.2l-1,5.7l1.25,3h1.75l1.25,1.75l5.2,5.25l-0.775,0.25l-3.675,1.2
		l-3,0.25l-0.025,0.05l-0.975,2.7l-0.025,0.024L256.9,423.3l0.025,0.05l0.35,1.2 M284.4,395.7l1.1-1.101l-0.5-2.75l1.25-2h0.05
		l2.2-0.25l0.75-1.25l4.5,2.25l0.975,2.726l1.475-1.476l0.025,0.025l0.025-0.025l2,5.45l3.95,2.25l3.2,1l1.425-1.399l6.075-6.051
		l-1.5-2.25l-0.425-1l-1.325-2.949V386.8 M296.225,391.875l-1.475,1.475l-0.025-0.024 M309.7,386.8v0.05l1.275,3 M306.825,399.15
		l-1.375,1.399h-0.05 M275.075,400.025l1.625-0.625 M267.575,418l0.725-0.25l-5.2-5.25l-1.25-1.7h-1.75l-1.25-3l1-5.75l1.5-4.2
		h0.025 M259.875,422.225l0.975-2.725h0.025 M256.9,423.35h0.025 M252.725,421.65l1.925,1.05l1.95-0.25l0.025,0.05 M243.85,443.4
		l1.35,1.05l5.5,0.3l0.5,2.7l2.3-0.2l2.85-2.5l4.65,1l9.95-1.95l0.65,1.45l4.8,0.2l2.65-4h3.85l4.15,4l0.65,2.5l10.6,5.3l1.65,2.3
		l3.65,1.15l0.35,1.35l2.5,2l-1,2l8.3,4.95l3.5,0.7l2.95,0.149l5-2.5l2.3,1.65h0.025l2.475,1l0.65-1l-0.45-2.3l-2.85-2.5l1-1.5l-5-4
		l5.65,2.35l3-1.35l2.15-1.95l-0.3-1.5l0.3-3l-3.15-1.5l0.15-5.95l-1.825-2.725l-3.275-4.925l4.1-0.15l1,2.5l1.85-0.35l1.5-1.5
		l-1.5-2l-2.75,1.3L330.2,436h-0.05 M232.275,400.35l0.4,0.9 M232.7,405.275v0.024l-0.95-0.425 M183.75,450.2l-0.15,0.55
		c0.066-0.033,0.167-0.134,0.3-0.3c0.121-0.151,0.088-0.252-0.1-0.3 M121.1,423.975l1.1-0.725l1.5-2l1.25-5.5l1-2l1.325-1.475
		 M106.35,439.3h0.05l2.85-0.149l0.75,0.75v-2.5l1.5-2l0.75-1.95l3.5-2l0.6-2.3 M479.8,407.1l1.65,1.801l-2.101,2.199l-0.449-2.949
		l-1.65-0.601l-1.75-0.899h-1.35V408l-2.25,1.05l-0.9-1.35l1.5-1.8l2.1-0.601l3.7,0.75L479.8,407.1z M448.7,408.1l0.75,1.801
		l1.05-0.301l0.45-2.1l1.3-0.75l1.65-1.3l-2.551-2.101l-3.699-1.949l-1.801,1.8l-3.1,0.149l-1.8-2.25l-2.8-4.449H436.8l-3.6,2.25
		l1.2,1.449l-1.351,0.601l-7.7,0.45l-3.149-0.45l-2.65,1.35l2.2,1.65l5.05-0.45l2.101,1.05l6.1,2.05l1.95,1.051l2.8,0.75l1.35-1.5
		l2.101,1.8l3.55,1.05l0.6-2.1L448.7,408.1z M450.6,414.5l-4.75,2.7v1.2l2.851-0.75l1.3-0.601l0.75-0.899h2.55l-0.6-2.351
		L450.6,414.5z M456.275,424.525l-0.325-0.176l-1.15-1.05l-2.1,0.601l0.899-2.25l1.351-0.7l-2.25-1.05l-4.75-0.15l-4.601,3.85
		l-5.399-2.649l-2.351-0.601l0.601-1.649l3.1,0.6l0.825,0.3 M441.25,413.975l-0.9-0.625l-1.949,0.301l-2.801-3.301l-2.399-0.75
		l-1.8,2.4l-1.45-0.45l-2.55-1.5l-1.95-3.399l-0.3-0.75l-5.45,0.3l-0.45,2.6l-2.3,2l-1,2.3l-3.65,0.351l-3,3.55l0.351,0.4v0.05
		l1,8.95l-0.2,1.6 M457.75,414.7l-0.75-0.75h-1l-0.9,0.899l1.2,0.15L457.75,414.7z M459.8,424.65l3.3,4.449l0.75,1.95l-0.75,1.351
		l1.351,1l2.8-2.65l2.7-0.75l3.25,0.15l2.1-1.5l-1.95-1.2l-2.949-0.601l-1.65-0.699l-1.65-1.351l-1.05-1.5h-2.95l-2.55-0.6
		l-0.899,0.149L459.8,424.65z M456.275,424.525l2.225,1.175l0.75,2.2l1.65,1.35l1.5,0.9 M424.95,443.2l2.149-0.25l3.45,1.35
		l3.55-0.3l6.851-2.4l3.55,1.051l4.8-0.301l0.15-3.399l2.95,0.149l1.8-3l0.899-0.75l-1.199-1.3l-2.101-1.35l3.3-1.2l1.15,3.4
		l2.4,0.149l1.649-3.25l2.101-1.649 M441.25,413.975l2.5,1.726l-0.55,4.05l-1.05,0.6l-2.025-0.75 M424.4,394.2l-6.75,5.6l2,3.5
		l0.05,2.9 M406.45,413.275l-1.15-1.476l-6.3-1.649l-2.225-0.301l-3.725-0.399l-3.125-1.226l-1.875-0.725l-1.775-1.25l-4.525-3.1
		l-2.15,0.324l-2.15,0.375l-2.35,0.075l-3.9,0.125l-2.05,25.3v0.051l0.3,2.949l0.7,2.65l-0.35,5l1.35,7.25v0.05l-0.35,2.3
		 M396.775,409.85L399,410.1l6.35,1.7l1.101,1.476L409.3,417 M410.65,426.4l-0.7-4l-0.3-4.95L409.3,417 M411.1,432.85l-1.149-1.5
		l0.375-2.475L410.45,428 M410.325,428.875L410,431.35l1.1,1.5l1.851,2.5l2,0.65l2,0.65l1.225,1.149l3.075,2.851l3.7,2.55
		 M418.175,437.8l-1.225-1.1l-2-0.7 M371.225,455.425l5.375,3.675h3.5l5.65-2.149l4.8-3.351l7.95-3.3l8.5,0.15l2.9-2.4l4.35-1.95
		l9.15,0.2l1.649-0.8l-1.649-2.35l1,0.1l0.55-0.05 M386.275,406.25l1.775,1.2l1.875,0.774 M375.1,403.925l4.5-0.45 M360.875,452.35
		l1.975,2.9l0.875,0.225l0.625,0.176l2.825-1.726l0.825-1.649l0.5-1.025l2.3-1.625V449.6 M330.25,435.95l1.9-1.95l2.85,0.3
		l0.65,1.351l2.5,0.649l-0.2,0.851l2,1.8l4.35,2.5l3.3,2.85l3.5,1.65l3.45,0.8l2.35,2.65l3.45,2.449l0.35,0.25l0.175,0.25
		 M368.35,478.15l0.8-2.301V472.7l-0.5-2.15l-1.15-2.2L365,464.7l-3-2.3l-0.65-4.5l0.5-1.95l1.875-0.476 M346.25,454.75l-5.3-1.15
		l-4.15,1.5l-5.95,5.5l0.65,2.15l5.45,3.15l4.5-0.65l6,2.3l7.95,0.15l10.45-0.5l-1.35-2.45l-3.8-1.35l-4.95-1l-4.85-2.15l-0.3-1.35
		l-1.2-2.45L346.25,454.75z M327.525,467l1.125,3.35l4.3-1.649l0.7-1.351l13.25,0.351 M370.8,449.625v0.025l-2.3,1.649l-0.5,0.976
		 M368.1,456.725l0.05,0.025l0.4-0.2l2.4-1.3l0.275,0.175 M367.175,453.925l-0.025,0.025l-2.85,1.75l3.8,1.024"/>
	
		<path fill-rule="evenodd" clip-rule="evenodd" fill="none" stroke="#aaa" stroke-width="0.7" stroke-linecap="round" stroke-linejoin="round" stroke-miterlimit="3" d="
		M270.25,219.9l-0.35,21.6l11.65-11.1c0-0.033,0.117-0.2,0.35-0.5c0.267-0.267,0.567-0.566,0.9-0.9c0.367-0.3,0.717-0.5,1.05-0.6
		c0.533-0.033,1.15,0.033,1.85,0.2c0.7,0.2,1.183,0.367,1.45,0.5c0.2,0.066,0.483,0.217,0.85,0.45c0.367,0.233,0.7,0.45,1,0.65
		c0.3,0.233,0.467,0.35,0.5,0.35l8.3,8.65h7.45v-24.05h4.5v-15.1c0.033,0,0.4-0.05,1.1-0.15c0.667-0.133,1.45-0.3,2.35-0.5
		c0.867-0.167,1.6-0.4,2.2-0.7c0.434-0.233,1.217-0.8,2.35-1.7c1.1-0.867,2.283-1.867,3.55-3c1.3-1.1,2.434-2.117,3.4-3.05
		c1-0.934,1.6-1.55,1.8-1.85c0.233-0.4,0.483-0.883,0.75-1.45c0.233-0.533,0.45-1,0.65-1.4c0.167-0.4,0.25-0.617,0.25-0.65h12.825
		h31.575 M368.65,277.85l-3.25,6l2.5,4.95l-1,9.75l-2.95,5.7l-3,9.2l0.25,3.25l-0.5,2.5l0.5,2.5l-3,3.7l0.25,5.5 M382.675,243.475
		l-12.025-2.125l0.8-3.15v-1.5l1-1.15l2.35-0.2l1.3-1.65l2.15,1.65l2.65,1l3.85,0.85l1.125-0.35 M382.9,243.5l-0.225-0.025
		 M394.8,231.925l-5.6,3.925l-3.325,1 M387.475,248.725l0.125-0.075l3.95-1.8l1.5-1.35l0.075-0.7l0.875-7.3 M387.475,248.725
		l-0.85,0.6 M384.55,252.6l0.85-2.45l0.925-0.625l0.3-0.2 M386.3,256.075l-1.75-3.475 M387.8,331.625l5.5,4.225l6.45,2.25l2.5,1.75
		l2,3l2,1.2l4.45-0.25l3.75,1.25l0.5,2.75l1.75,4.75l4.2,1l4.25,0.25l1.75-0.25h1l1,0.851l0.6,0.399l1.875,1.275 M345.075,389.625
		l3.325-0.075l2.65,2.15l3.5,2.149l2-0.85l3.95-1l2.5-1.65l4.3-1.149l1.2-0.15l1.8,1.5l1.5-1.7l0.35-1.949l2.8-2.7l-1.5-1.45v-1.35
		l1.85-2l2.8-0.301l0.65-3.5l2.5-2.149l1,1.649l2.85-0.5l3.15,0.15l1.65,0.7h1.5l1.65,0.8l1.15-0.35l0.5-0.15l27.05,0.35
		l2.65,18.101 M441.35,380.15l-0.75-7.7l-6.25-9.2l0.25-4l-1.5-2l-1.725-1.175 M265.325,97l0.775,1.6l-1.8,2.2l-0.2,1.95l1.5,2.85
		l-0.8,12.75l-3.35,4l0.2,7l3.8,14.25l1,2.15l0.65,8.3 M184.6,83.7h54.35v10.25l22.5-4.95l3.875,8 M238.7,94l0.25-0.05
		 M195.8,172.325l2.9-0.825h4.85l2.45,2.15l7.5-5.15l1.65-0.8l-0.15-3.85l-3-1v-2.8l4.8-3.3l0.15-4l1.05-2.775 M237.45,124.8
		l1.5-1.75v-29.1 M170.55,174.2l4.45,1.3l3.65,5.6l8.65-0.35l2.65-1.3l7.45,3.05 M163.875,190.625l2.325-6.025l2-0.65h2.3l2-1
		l3.65,0.5l1.65-0.5l0.85-1.85 M170.55,174.2l-0.7-0.2l-1.15-2.65v-51.3 M225.55,147.2l-7.1,1.55l-0.45,1.225 M140.825,215.575
		l0.225-0.4 M159.4,190.3v4.1l-1.15,3.3l-4,5.15L151.6,204l-2,3l0.35,1.5 M145.95,215.8l3.65-6.85h4.15l2.5,4.65l2.8,0.5l0.35-2.95
		l-0.15-3.65l6.95-2.85l8.975,0.975 M140.8,215.625l-1.15,2.675l1.35,2.65l4,0.65l0.5,2.5l-1.5,1.65l-3.5,0.15l-1.65,1.2v1.15
		l-1.65,1 M140.825,215.575l-0.025,0.05 M131.7,236.4l-1.725-2.45l-0.275-0.4 M128.325,246.075l0.175,0.475l-0.8,1.325l-0.9,1.575
		 M127.95,241.55l-0.2,2.95l0.575,1.575 M134.65,239.05l-2.3-1.7l-0.65-0.95 M135.725,239.7l2.275,4.65l-5.65,3 M131.375,231.025
		l4.125,5.175 M127.2,274.15l2.65-1.1l1.35-1.15l0.15-5.5l-0.65-2.65l-4-0.15l-2.5,2.15l-1.45,0.35l-2-0.85l-1.5,0.35l-1.15-0.5
		l-0.35-1.65l2-1.5l-0.15-1l-3.15-2.85l-10.075,4.65 M95.15,263.1h10.5l0.725-0.35 M104.95,281.05l-0.45,2l-0.05,0.15l-1.95,2.8
		l0.8,3.35l4.8,3.3l10.95,12.75 M143.375,276.35l1.775,2.65l1,2.65l2.3,0.85l2,2.3l1.8,0.35l2.2,2.5l0.5,2.65l2.3,0.3l1.8,2.5
		l4.5,2.65l3.15,0.5l2.15,1.65 M78.25,294.8h-8.1l-7.5,8.95 M65.625,339.925l1.825,0.025l1.5-0.851l1.2,0.351l1.15-0.5l0.5,0.8
		l-0.35,0.85l0.85,0.5l4.3,1.65l1.65-0.15l0.5,2l-0.3,2l2.8,3.15l0.15,1l4.35,2.3l1.15-0.35l1.3,0.35l0.35-1.149l1.15-0.851
		l1.65,1.15l1.5,0.35 M48.2,340.45l9-0.7l8.425,0.175 M129.075,297.175l3.725,3.575l1.35,3.45l4,3l1.5,2.35l0.5,6.101l2.8,1.199
		 M184.475,344.05l-2.675,2l-1,1.851l-2.5,0.5l-2.45,0.149l-2.35-1.149l-3.3,2.149l-1.15,1.351l-0.2,1.149l-0.15,2.15l-2.15,1.649
		l-6.65,3l-1.65-0.649l-0.5-1l-4,1l-3.15,1.8l1.35,1l-5,9.45l0.5,3.5l-0.5,3.5l-1.8,1.8l-1,1.35l-1.15,0.65l-2.85-0.65l-2.5-1.85
		l-1.15,1l-1.5-0.8h-1.15 M94.1,340.6l13.15,2.301l3,1.85l3.15,0.5h2.65l1.85,1.15l0.8,3.5l-1,1.3l0.7,2l2.5,1.649l3.475-0.8
		 M184.25,233.05h4.5l2-1l0.8-0.7l2.2,0.85l3.3,0.5l0.8,2l3.85,1.8l2.5-0.8l1.3-3l1-0.35l0.65-0.8l1.85-9.3l1.3-0.85l4.35,2l2.3-1.3
		l2.65-2.2l1.85,0.35l0.8,1.35v1.8l-1.65,2.15l-0.8,1.35l-0.2,1.3h9.65l0.3,0.7l0.7,0.8v0.7l-1,1.3l0.15,1l0.5,0.85l-0.85,1.95
		l0.7,0.2l0.65,2.15l0.5,0.35 M206.5,232.35l1.2,1.85l-0.5,1.65l-0.5,1l-4.65,5.65l-2.5,1.15l-1.3,2.2l-3.5,1.65l-3.7,0.675
		 M329.325,441.075l-1.175-0.925L326.5,438l-3.8-2.35l-3.5-1.301l-2.65,1l-0.65,2.301l-0.35,0.649l-1.65,0.351l-3.8-2.301l-5.5-5.5
		l-3.3-2.649l-6-0.65l-5.8-4.35l-4.15-1.3l-11.6-1.5l-5-2.5 M440.125,419.6l-0.025,0.15l-2.5-0.25L436.9,420l4.699,2l1.75,0.25
		l2.25-2.5l1.5-1l3.45-0.25l4,1.25l1.5,1.5l1.25,2.675v0.025l4.7,5.5l0.4,0.7l-1.4,2.05l0.25,1.95l2.75,2.5L474.95,476
		 M440.125,419.6l0.475-1.85l0.25-2.75l0.4-1.025 M410.45,428l7.75,1.95l3.95,2.95l9.699-0.25l3.5-1.5l4.75-0.25l5.45,0.25
		l2.75-1.95l7.976-4.675 M457.3,423.925l-1.024,0.601 M420.2,405.05h5.5l1.2,1.25l1,2.25l3,1.75l1-1.25l3.25,0.5l3.699,1.7
		l2.75,1.75l-0.35,0.975 M370.8,449.6l2.8,0.801c0.033,0.033,0.15,0.199,0.35,0.5c0.2,0.333,0.4,0.666,0.6,1
		c0.2,0.366,0.284,0.649,0.25,0.85c-0.1,0.167-0.333,0.434-0.7,0.8c-0.367,0.334-0.733,0.634-1.1,0.9
		c-0.333,0.267-0.517,0.416-0.55,0.45h0.025l1.475,0.85l3.15,0.55l1.75-2.5l2.25-2.2l2.5-0.25l1.95-0.75l7.25-8.949l2.5-6l4.95-4.5
		l9.95-3.2l0.25,0.05 M339.45,392.7l3.3,9.1l-1,3.5v2.8l2.35,1.65l0.15,1.7l-5.65,4.95l-2.15,3.649l0.5,3.351l3,1.949l5.15,0.2
		l7.65-0.35l2.65,1l0.5,1.5l-1,1l-3,1.5l-0.35,1.649l1.2,5.301l3.15,1.5l1.65-1.351l1.8-1l1.35,1.351l1.15,2.3v3.35l-0.35,0.65
		l-1.8,1l-1.15,0.149l0.15,1.2l2,5.45l0.175,0.6 M360.35,451.85l0.35-0.1 M361.7,455.25l-0.825-2.9 M360.35,451.85l-4.3,1.25
		l-7.95-0.5l-8.5-3.5l-10.275-8.024 M368.55,456.55l-0.45,0.175l-0.9,0.375l1.45,2.45l0.2,0.7l-1,1.75l-0.15,0.25l-1,2.95
		 M371.225,455.425l1.25-0.524 M371.225,455.425l-2.675,1.125"/>
	
		
		<path fill-rule="evenodd" clip-rule="evenodd" fill="none" stroke="#aaa" stroke-width="0.35" stroke-linecap="round" stroke-linejoin="round" stroke-miterlimit="3" d="
		M367.85,462l8.625,1.225 M366.1,461.75l1.75,0.25"/>
</g>
<text transform="matrix(0.85 0 0 1 331.6504 293.4878)" fill="#069" font-family="'_sans'" font-size="7.95">P187</text>
<text transform="matrix(0.85 0 0 1 424.2002 339.7871)" fill="#069" font-family="'_sans'" font-size="7.95">P188</text>
<text transform="matrix(0.85 0 0 1 429.7002 397.2871)" fill="#069" font-family="'_sans'" font-size="7.95">P189</text>
<text transform="matrix(0.85 0 0 1 374.7002 432.6875)" fill="#069" font-family="'_sans'" font-size="7.95">P190</text>
<text transform="matrix(0.85 0 0 1 314.7002 420.8379)" fill="#069" font-family="'_sans'" font-size="7.95">P191</text>
<text transform="matrix(0.85 0 0 1 102.1006 292.3877)" fill="#069" font-family="'_sans'" font-size="7.95">P176</text>
<text transform="matrix(0.85 0 0 1 77.5 368.9883)" fill="#069" font-family="'_sans'" font-size="7.95">P178</text>
<text transform="matrix(0.85 0 0 1 102.4004 356.6377)" fill="#069" font-family="'_sans'" font-size="7.95">P181</text>
<text transform="matrix(0.85 0 0 1 159.9004 378.5879)" fill="#069" font-family="'_sans'" font-size="7.95">P182</text>
<text transform="matrix(0.85 0 0 1 156.2998 279.2876)" fill="#069" font-family="'_sans'" font-size="7.95">P180</text>
<text transform="matrix(0.85 0 0 1 66.7998 298.7378)" fill="#069" font-family="'_sans'" font-size="7.95">P177</text>
<text transform="matrix(0.85 0 0 1 330.5498 202.6875)" fill="#069" font-family="'_sans'" font-size="7.95">P183</text>
<text transform="matrix(0.85 0 0 1 369.8506 209.8877)" fill="#069" font-family="'_sans'" font-size="7.95">P184</text>
<text transform="matrix(0.85 0 0 1 397.2998 232.2876)" fill="#069" font-family="'_sans'" font-size="7.95">P186</text>
<text transform="matrix(0.85 0 0 1 364.2998 252.5874)" fill="#069" font-family="'_sans'" font-size="7.95">P185</text>
<text transform="matrix(0.85 0 0 1 219.1006 159.1875)" fill="#069" font-family="'_sans'" font-size="7.95">P168</text>
<text transform="matrix(0.85 0 0 1 244.1504 99.7876)" fill="#069" font-family="'_sans'" font-size="7.95">P167</text>
<text transform="matrix(0.85 0 0 1 175.9502 183.8877)" fill="#069" font-family="'_sans'" font-size="7.95">P169</text>
<text transform="matrix(0.85 0 0 1 155.5 210.4375)" fill="#069" font-family="'_sans'" font-size="7.95">P170</text>
<text transform="matrix(0.85 0 0 1 210.1504 240.0376)" fill="#069" font-family="'_sans'" font-size="7.95">P179</text>
<text transform="matrix(0.85 0 0 1 95.2002 210.4375)" fill="#069" font-family="'_sans'" font-size="7.95">P171</text>
<text transform="matrix(0.85 0 0 1 118.6006 253.3877)" fill="#069" font-family="'_sans'" font-size="7.95">P175</text>
<text transform="matrix(0.85 0 0 1 143.5498 252.5376)" fill="#069" font-family="'_sans'" font-size="7.95">P174</text>
<text transform="matrix(0.85 0 0 1 54.2002 227.0874)" fill="#069" font-family="'_sans'" font-size="7.95">P172</text>
<text transform="matrix(0.85 0 0 1 106.7002 241.1875)" fill="#069" font-family="'_sans'" font-size="7.95">P173</text>
</svg>
