<?xml version="1.0" encoding="utf-8"?>
<!-- Generator: Adobe Illustrator 15.0.2, SVG Export Plug-In . SVG Version: 6.00 Build 0)  -->
<!DOCTYPE svg PUBLIC "-//W3C//DTD SVG 1.1//EN" "http://www.w3.org/Graphics/SVG/1.1/DTD/svg11.dtd">
<svg version="1.1" id="Layer_1" xmlns="http://www.w3.org/2000/svg" xmlns:xlink="http://www.w3.org/1999/xlink" x="0px" y="0px"
	 width="800px" height="600px" viewBox="0 0 800 600" enable-background="new 0 0 800 600" xml:space="preserve">
<g>
	<path fill-rule="evenodd" clip-rule="evenodd" fill="#c8c8c8" d="M239.7,323.2l2.6-2.3l3.35,0.649l2.45-0.35l2.15-5.8l2.45-2.45
		l1.55-2.15c0.433,0.233,1.183,0.517,2.25,0.851c1.1,0.333,2.283,0.666,3.55,1c1.233,0.333,2.3,0.616,3.2,0.85s1.367,0.35,1.4,0.35
		l3.7-0.6H272l7.4,2.15l1.9-0.2l0.2,2.05l-0.3,5.8l-2.15,1.25l2.15,5.2l6.15,2.45L285.2,339l-4.3,2.75l-2.75-0.3l-0.9,0.3l1.2,0.95
		l5.55,5.2l-2.8,3.649l-8.85,1.55l-4,4.301l-3.4,1.85L262.5,358l-3.35-0.6l0.9-0.601l0.65-3.399l-2.15-1.2l-4.9-0.95l-7.4-6.1
		l0.95-3.7l-3.4-5.2l-3.95-1.25l0.6-11L239.7,323.2z"/>
	
		<path fill-rule="evenodd" clip-rule="evenodd" fill="none" stroke="#fff" stroke-width="0.65" stroke-linecap="round" stroke-linejoin="round" stroke-miterlimit="3" d="
		M239.7,323.2l0.75,0.8l-0.6,11l3.95,1.25l3.4,5.2l-0.95,3.7l7.4,6.1l4.9,0.95l2.15,1.2l-0.65,3.399l-0.9,0.601l3.35,0.6l2.45,1.25
		l3.4-1.85l4-4.301l8.85-1.55l2.8-3.649l-5.55-5.2l-1.2-0.95l0.9-0.3l2.75,0.3l4.3-2.75l2.15-7.05l-6.15-2.45l-2.15-5.2l2.15-1.25
		l0.3-5.8l-0.2-2.05l-1.9,0.2l-7.4-2.15h-3.65l-3.7,0.6c-0.033,0-0.5-0.116-1.4-0.35s-1.967-0.517-3.2-0.85
		c-1.267-0.334-2.45-0.667-3.55-1c-1.067-0.334-1.817-0.617-2.25-0.851l-1.55,2.15l-2.45,2.45l-2.15,5.8l-2.45,0.35l-3.35-0.649
		L239.7,323.2z"/>
</g>
<g>
	<polygon fill-rule="evenodd" clip-rule="evenodd" fill="#c8c8c8" points="145.85,392.6 146.1,393.95 145.85,393.25 	"/>
	
		<polygon fill-rule="evenodd" clip-rule="evenodd" fill="none" stroke="#fff" stroke-width="0.65" stroke-linecap="round" stroke-linejoin="round" stroke-miterlimit="3" points="
		145.85,392.6 145.85,393.25 146.1,393.95 	"/>
</g>
<g>
	<polygon fill-rule="evenodd" clip-rule="evenodd" fill="#c8c8c8" points="389.25,156.6 393.3,152.9 391.7,154.65 	"/>
	
		<polygon fill-rule="evenodd" clip-rule="evenodd" fill="none" stroke="#fff" stroke-width="0.65" stroke-linecap="round" stroke-linejoin="round" stroke-miterlimit="3" points="
		389.25,156.6 391.7,154.65 393.3,152.9 	"/>
</g>
<g>
	<polygon fill-rule="evenodd" clip-rule="evenodd" fill="#c8c8c8" points="207.5,252.9 211.05,250.25 244.55,246.15 313.1,229.8 
		310.05,230.6 310.95,236 310.65,241.45 308.55,247.75 283.4,245.55 275.4,265.45 275.1,275.9 271.75,276.8 264.7,286 
		261.95,283.85 261.65,280.8 242,279.25 240.8,278.35 239.85,273.4 237.7,269.45 231.3,267.6 224.55,263 207.35,253.1 	"/>
	
		<path fill-rule="evenodd" clip-rule="evenodd" fill="none" stroke="#fff" stroke-width="0.65" stroke-linecap="round" stroke-linejoin="round" stroke-miterlimit="3" d="
		M316.1,229l-3,0.8l-3.05,0.8l0.9,5.4l-0.3,5.45l-2.1,6.3l-25.15-2.2l-8,19.9l-0.3,10.45l-3.35,0.9l-7.05,9.2l-2.75-2.15l-0.3-3.05
		L242,279.25l-1.2-0.9l-0.95-4.95l-2.15-3.95l-6.4-1.85l-6.75-4.6l-17.2-9.9l0.15-0.2l-1.1,0.8l-4.75,3.5 M207.5,252.9l3.55-2.65
		l33.5-4.1l68.55-16.35 M206.4,253.7l1.15-0.9l-0.05,0.1"/>
</g>
<g>
	<path fill-rule="evenodd" clip-rule="evenodd" fill="#c8c8c8" d="M153.4,360.15l6.55-1.601l3.3-1.25l-1.95-4.1l5,3.6l7.05,2.45
		l12.55,1.85l4,4.301l-7.35,2.449l-7.05,3.051l4,1.55l6.7,0.899c0.066,0,0.3,0.034,0.7,0.101c0.434,0.1,0.85,0.233,1.25,0.399
		c0.4,0.2,0.567,0.45,0.5,0.75c-0.1,0.301-0.267,0.7-0.5,1.2c-0.233,0.467-0.467,0.884-0.7,1.25c-0.2,0.367-0.3,0.566-0.3,0.601
		l-0.95,1.55l-0.6,4.25l4,1.25l0.5,0.25l-6.35-1.15l-7.65-2.5l0.3,12.601l-11-0.601l-9.2-4.3l-7.7,0.3l-2.45-0.6l-0.2,2.2v-0.7
		l-7.55,2.25c-0.033-0.066-0.1-0.45-0.2-1.15c-0.133-0.733-0.2-1.434-0.2-2.1c-0.066-0.434-0.483-1-1.25-1.7
		c-0.733-0.7-1.483-1.333-2.25-1.9c-0.733-0.566-1.133-0.866-1.2-0.899l-4.3-2.45l-1.65-5.3l0.65-3.101l-0.6-4
		c0.767-0.166,1.5-0.316,2.2-0.449c0.667-0.167,1.15-0.25,1.45-0.25c0.367,0.033,1.233,0.316,2.6,0.85
		c1.4,0.533,2.934,1.134,4.6,1.8c1.667,0.7,3.117,1.316,4.35,1.851c1.233,0.533,1.883,0.816,1.95,0.85l1.6-2.05l4.5,4.5l4.5,6.1
		l5.75,2.05l5.3,2.851c0.033,0,0.117-0.15,0.25-0.45c0.133-0.267,0.15-0.6,0.05-1c-0.1-0.366-0.467-0.7-1.1-1
		c-0.7-0.3-1.367-0.667-2-1.1c-0.6-0.434-1.1-0.834-1.5-1.2c-0.4-0.334-0.6-0.517-0.6-0.55l-3.3-1.25l-4.05-4.9l-3.3-7.35
		L153.4,360.15z"/>
	
		<path fill-rule="evenodd" clip-rule="evenodd" fill="none" stroke="#fff" stroke-width="0.65" stroke-linecap="round" stroke-linejoin="round" stroke-miterlimit="3" d="
		M153.4,360.15l-2.85,9l3.3,7.35l4.05,4.9l3.3,1.25c0,0.033,0.2,0.216,0.6,0.55c0.4,0.366,0.9,0.767,1.5,1.2
		c0.633,0.433,1.3,0.8,2,1.1c0.633,0.3,1,0.634,1.1,1c0.1,0.4,0.083,0.733-0.05,1c-0.133,0.3-0.217,0.45-0.25,0.45l-5.3-2.851
		l-5.75-2.05l-4.5-6.1l-4.5-4.5l-1.6,2.05c-0.067-0.033-0.717-0.316-1.95-0.85c-1.233-0.534-2.683-1.15-4.35-1.851
		c-1.667-0.666-3.2-1.267-4.6-1.8c-1.367-0.533-2.233-0.816-2.6-0.85c-0.3,0-0.784,0.083-1.45,0.25
		c-0.7,0.133-1.433,0.283-2.2,0.449l0.6,4l-0.65,3.101l1.65,5.3l4.3,2.45c0.066,0.033,0.466,0.333,1.2,0.899
		c0.767,0.567,1.517,1.2,2.25,1.9c0.767,0.7,1.184,1.267,1.25,1.7c0,0.666,0.067,1.366,0.2,2.1c0.1,0.7,0.167,1.084,0.2,1.15
		l7.55-2.25v0.7l0.2-2.2l2.45,0.6l7.7-0.3l9.2,4.3l11,0.601l-0.3-12.601l7.65,2.5l6.35,1.15l-0.5-0.25l-4-1.25l0.6-4.25l0.95-1.55
		c0-0.034,0.1-0.233,0.3-0.601c0.233-0.366,0.466-0.783,0.7-1.25c0.233-0.5,0.4-0.899,0.5-1.2c0.067-0.3-0.1-0.55-0.5-0.75
		c-0.4-0.166-0.816-0.3-1.25-0.399c-0.4-0.066-0.633-0.101-0.7-0.101l-6.7-0.899l-4-1.55l7.05-3.051l7.35-2.449l-4-4.301
		l-12.55-1.85l-7.05-2.45l-5-3.6l1.95,4.1l-3.3,1.25L153.4,360.15z"/>
</g>
<g>
	<polygon fill-rule="evenodd" clip-rule="evenodd" fill="#c8c8c8" points="158.7,351.6 160.75,348.3 168.95,324.6 174.65,327.05 
		176.3,325.85 177.1,328.3 178.75,329.1 185.3,330.75 189.3,332.25 189.6,334.4 192.65,335.95 191.75,341.45 195.7,339.6 
		197.55,341.75 201.25,348.2 208.3,353.1 209.2,362.3 208.6,360.45 207.65,362.3 204.3,362.6 200.6,360.15 198.15,358.95 
		193.55,363.25 189.9,365.35 185.9,361.1 173.35,359.25 166.3,356.8 161.3,353.15 160.35,351.15 	"/>
	
		<polygon fill-rule="evenodd" clip-rule="evenodd" fill="none" stroke="#fff" stroke-width="0.65" stroke-linecap="round" stroke-linejoin="round" stroke-miterlimit="3" points="
		158.7,351.6 160.35,351.15 161.3,353.15 166.3,356.8 173.35,359.25 185.9,361.1 189.9,365.35 193.55,363.25 198.15,358.95 
		200.6,360.15 204.3,362.6 207.65,362.3 208.6,360.45 209.2,362.3 208.3,353.1 201.25,348.2 197.55,341.75 195.7,339.6 
		191.75,341.45 192.65,335.95 189.6,334.4 189.3,332.25 185.3,330.75 178.75,329.1 177.1,328.3 176.3,325.85 174.65,327.05 
		168.95,324.6 160.75,348.3 	"/>
</g>
<g>
	<polygon fill-rule="evenodd" clip-rule="evenodd" fill="#c8c8c8" points="195.1,388.4 190.9,385.3 192.95,386.25 	"/>
	
		<polygon fill-rule="evenodd" clip-rule="evenodd" fill="none" stroke="#fff" stroke-width="0.65" stroke-linecap="round" stroke-linejoin="round" stroke-miterlimit="3" points="
		195.1,388.4 192.95,386.25 190.9,385.3 	"/>
</g>
<g>
	<polygon fill-rule="evenodd" clip-rule="evenodd" fill="#c8c8c8" points="138.95,408.55 132.25,411.65 125.7,405.65 132.75,411.25 
			"/>
	
		<polyline fill-rule="evenodd" clip-rule="evenodd" fill="none" stroke="#fff" stroke-width="0.65" stroke-linecap="round" stroke-linejoin="round" stroke-miterlimit="3" points="
		145.1,405.8 138.95,408.55 132.25,411.65 125.7,405.65 132.75,411.25 138.95,408.55 	"/>
</g>
<g>
	<path fill-rule="evenodd" clip-rule="evenodd" fill="#c8c8c8" d="M362.65,190.15l1.25-4.95l10.2-12.65l0.85-6.15l16.75-11.75
		l1.45-1.6l6.95,7.85c-0.033,0.033-0.183,0.4-0.45,1.1c-0.233,0.7-0.3,1.5-0.2,2.4c0.1,0.867,0.633,1.6,1.6,2.2
		c0.033-0.033,0.233-0.2,0.601-0.5c0.399-0.333,0.866-0.684,1.399-1.05s1.05-0.633,1.55-0.8s1.101-0.267,1.801-0.3
		c0.666-0.034,1.316-0.05,1.949-0.05c0.634-0.033,1.117-0.083,1.45-0.15c0.367-0.067,0.8-0.133,1.3-0.2c0.5-0.1,0.967-0.167,1.4-0.2
		c0.4-0.033,0.616-0.05,0.65-0.05l2.35,0.95l2.85-0.75l1.2-1.15l0.851,0.7c0.566,0.467,1.399,0.967,2.5,1.5
		c1.1,0.534,2.433,0.95,4,1.25l1.55,4.3l-1.2,4.5l1.2,2.05l-1.601,1.6l-3.3,6.15l5.351,6.55l-2.9,4.1l2.05,4.5l4.101-0.45l2.05,3.3
		l-6.55,4.9l-7.351,9l0.4,4.1l-1.2,0.8l-3.3,7.75l-7.351,7.75L396.2,258.8l-1.65-1.65l-2.45,2.45l-1.6,0.8l-2.4,0.3h-4.55l-1.5-1.5
		l-3.9,2.1l-9.95,3l-1.8-1.2l-3-0.3l-4.85-1.5l1.5-3l1.5-4.25v-1.8l-3.9-3l-5.7-0.9l-1.25-2.7l-9.3-2.75l-5.75-0.3l-2.7,2.15
		l-3.3,0.6l1.8-2.75l-1.5-0.9l-0.3-4.5l-4.85,2.4l-3.3,7.25l-5.45,9.35h-3.6l-0.3-2.45l-3.3-2.1l-0.3-3.9l2.1-6.35l0.3-5.4
		l-0.9-5.45l6-1.6l22.1-9l3.25-6.95v-2.45l8.2-6.1l4.5-7.4L362.65,190.15z"/>
	
		<path fill-rule="evenodd" clip-rule="evenodd" fill="none" stroke="#fff" stroke-width="0.65" stroke-linecap="round" stroke-linejoin="round" stroke-miterlimit="3" d="
		M362.65,190.15l-8.55,6.9l-4.5,7.4l-8.2,6.1V213l-3.25,6.95l-22.1,9l-6,1.6l0.9,5.45l-0.3,5.4l-2.1,6.35l0.3,3.9l3.3,2.1l0.3,2.45
		h3.6l5.45-9.35l3.3-7.25l4.85-2.4l0.3,4.5l1.5,0.9l-1.8,2.75l3.3-0.6l2.7-2.15l5.75,0.3l9.3,2.75l1.25,2.7l5.7,0.9l3.9,3v1.8
		l-1.5,4.25l-1.5,3l4.85,1.5l3,0.3l1.8,1.2l9.95-3l3.9-2.1l1.5,1.5h4.55l2.4-0.3l1.6-0.8l2.45-2.45l1.65,1.65l12.649-22.1
		l7.351-7.75l3.3-7.75l1.2-0.8l-0.4-4.1l7.351-9l6.55-4.9l-2.05-3.3l-4.101,0.45l-2.05-4.5l2.9-4.1l-5.351-6.55l3.3-6.15l1.601-1.6
		l-1.2-2.05l1.2-4.5l-1.55-4.3c-1.567-0.3-2.9-0.716-4-1.25c-1.101-0.533-1.934-1.033-2.5-1.5l-0.851-0.7l-1.2,1.15l-2.85,0.75
		l-2.35-0.95c-0.034,0-0.25,0.017-0.65,0.05c-0.434,0.033-0.9,0.1-1.4,0.2c-0.5,0.067-0.933,0.133-1.3,0.2
		c-0.333,0.067-0.816,0.117-1.45,0.15c-0.633,0-1.283,0.017-1.949,0.05c-0.7,0.033-1.301,0.133-1.801,0.3s-1.017,0.433-1.55,0.8
		s-1,0.717-1.399,1.05c-0.367,0.3-0.567,0.467-0.601,0.5c-0.967-0.6-1.5-1.333-1.6-2.2c-0.1-0.9-0.034-1.7,0.2-2.4
		c0.267-0.7,0.417-1.067,0.45-1.1l-6.95-7.85l-1.45,1.6l-16.75,11.75l-0.85,6.15l-10.2,12.65L362.65,190.15z"/>
</g>
<g>
	<path fill-rule="evenodd" clip-rule="evenodd" fill="#c8c8c8" d="M571.85,203.5l-1.85,6.75l0.3,6.75l3.65,2.75l-4.3,5.5
		l-0.601,6.15l-2.45,1.85l-5.199,0.3l-1.551,3.05l-6.75,1.85l-2.449-5.2l-2.45-0.95l-2.45,4.6l-8.9,6.45l-0.899,4.3l-4.601,5.2
		l-3.149-0.2l-0.4,4.1l-4.1,5.3l-7.351,4.1l-6.55-2.45H499.15l-4.9-3.7l-2.85-6.55l-6.15-6.1l-6.5-1.25l-3.3-5.7l-6.95-2.9
		l-1.6-4.05l-3.301-3.7l-6.55-3.65v-5.75l4.5-0.8l-0.8-3.3L455,213l-7.35-8.2l-2.45-1.6l-4.9,3.65l-7.35,1.25l0.8-4.9l0.45-0.85
		l-2.05-3.25l-4.101,0.4L426,195l2.85-4.1l-5.3-6.5l3.25-6.15l1.65-1.65l-1.2-2l1.2-4.5l-1.65-4.5l4.101-4.1l-0.4-9.8l-2.85-14.75
		l0.8-12.65l4.899-1.2l3.301-2.05l-0.851-2.9l10.65-7.75c0.033,0,0.267-0.283,0.7-0.85c0.399-0.533,0.75-1.2,1.05-2
		c0.267-0.8,0.217-1.617-0.15-2.45l-4.899-7.35v-4.5l0.449-1.2l2.851,2.8l3.649,0.45l6.15,10.2l1.65,7.75l0.399,6.55l4.9-1.65
		l3.7,1.25l2.449-1.65l5.7,10.65l3.7,3.25l3.25,4.5l3.7,2.05l2,2.45l7.399-2.05l7.75-10.2l1.801-4.05l-0.9,2.5l6.15,2.15l6.149,1.25
		l3.351,1.2l2.149-0.6l7.351,0.6l9.8,13.5l6.149,6.75l-0.3,4.9l-10.45,10.7l-8.25,9.2l-3.699,11.95l2.75,11.35l16.55-1.8l6.149,4.55
		l4.601,2.8H566.6L571.85,203.5z"/>
	
		<path fill-rule="evenodd" clip-rule="evenodd" fill="none" stroke="#fff" stroke-width="0.65" stroke-linecap="round" stroke-linejoin="round" stroke-miterlimit="3" d="
		M504.65,124.35l-0.9,2.5l6.15,2.15l6.149,1.25l3.351,1.2l2.149-0.6l7.351,0.6l9.8,13.5l6.149,6.75l-0.3,4.9l-10.45,10.7l-8.25,9.2
		l-3.699,11.95l2.75,11.35l16.55-1.8l6.149,4.55l4.601,2.8H566.6l5.25-1.85l0.601-2.15 M504.65,124.35l-1.801,4.05l-7.75,10.2
		l-7.399,2.05l-2-2.45l-3.7-2.05l-3.25-4.5l-3.7-3.25l-5.7-10.65l-2.449,1.65l-3.7-1.25l-4.9,1.65l-0.399-6.55l-1.65-7.75
		l-6.15-10.2l-3.649-0.45l-2.851-2.8l-0.449,1.2v4.5l4.899,7.35c0.367,0.833,0.417,1.65,0.15,2.45c-0.3,0.8-0.65,1.467-1.05,2
		c-0.434,0.567-0.667,0.85-0.7,0.85l-10.65,7.75l0.851,2.9l-3.301,2.05l-4.899,1.2l-0.8,12.65l2.85,14.75l0.4,9.8l-4.101,4.1
		l1.65,4.5l-1.2,4.5l1.2,2l-1.65,1.65l-3.25,6.15l5.3,6.5L426,195l2.05,4.5l4.101-0.4l2.05,3.25l-0.45,0.85l-0.8,4.9l7.35-1.25
		l4.9-3.65l2.45,1.6L455,213l5.75,3.25l0.8,3.3l-4.5,0.8v5.75l6.55,3.65l3.301,3.7l1.6,4.05l6.95,2.9l3.3,5.7l6.5,1.25l6.15,6.1
		l2.85,6.55l4.9,3.7H509.8l6.55,2.45l7.351-4.1l4.1-5.3l0.4-4.1l3.149,0.2l4.601-5.2l0.899-4.3l8.9-6.45l2.45-4.6l2.45,0.95
		l2.449,5.2l6.75-1.85l1.551-3.05l5.199-0.3l2.45-1.85l0.601-6.15l4.3-5.5L570.3,217l-0.3-6.75l1.85-6.75 M507.35,118.15l-2.699,6.2
		 M442.35,90.8l0.9,0.9l0.35,0.3v0.05l-0.35-0.35"/>
</g>
<g>
	<polygon fill-rule="evenodd" clip-rule="evenodd" fill="#c8c8c8" points="146.05,419.95 148.5,417.15 146.7,419.65 146.4,420.3 
		141.45,420.85 	"/>
	
		<polygon fill-rule="evenodd" clip-rule="evenodd" fill="none" stroke="#fff" stroke-width="0.65" stroke-linecap="round" stroke-linejoin="round" stroke-miterlimit="3" points="
		146.05,419.95 141.45,420.85 146.4,420.3 146.7,419.65 148.5,417.15 	"/>
</g>
<g>
	<polygon fill-rule="evenodd" clip-rule="evenodd" fill="#c8c8c8" points="70,369.95 49.5,368.45 52.25,358.95 56.85,357.7 
		75.55,357.7 81.05,357.1 83.55,358.9 86.9,357.4 95.35,358.1 100.6,364.15 105.95,366.45 100.05,371.6 100.05,375.5 97,375.9 
		96.15,376.75 94.15,372.65 95.75,371.4 95.55,369.55 93.3,369.15 92.7,371 91.05,371 91.05,368.55 88.6,366.7 86.35,366.9 
		86.6,368.55 75.95,366.7 70,370.25 	"/>
	
		<polygon fill-rule="evenodd" clip-rule="evenodd" fill="none" stroke="#fff" stroke-width="0.65" stroke-linecap="round" stroke-linejoin="round" stroke-miterlimit="3" points="
		70,369.95 70,370.25 75.95,366.7 86.6,368.55 86.35,366.9 88.6,366.7 91.05,368.55 91.05,371 92.7,371 93.3,369.15 95.55,369.55 
		95.75,371.4 94.15,372.65 96.15,376.75 97,375.9 100.05,375.5 100.05,371.6 105.95,366.45 100.6,364.15 95.35,358.1 86.9,357.4 
		83.55,358.9 81.05,357.1 75.55,357.7 56.85,357.7 52.25,358.95 49.5,368.45 	"/>
</g>
<g>
	<polygon fill-rule="evenodd" clip-rule="evenodd" fill="#c8c8c8" points="77.6,370.8 79.45,369.4 85.8,374.5 87.6,372.05 
		90.05,373.25 91.5,374.5 94.15,372.65 96.2,376.75 94.35,378.6 88.85,379.2 88.85,383.9 88.2,387.55 81.3,387.55 83.1,381.25 
		77.2,376.75 	"/>
	
		<polygon fill-rule="evenodd" clip-rule="evenodd" fill="none" stroke="#fff" stroke-width="0.65" stroke-linecap="round" stroke-linejoin="round" stroke-miterlimit="3" points="
		77.6,370.8 77.2,376.75 83.1,381.25 81.3,387.55 88.2,387.55 88.85,383.9 88.85,379.2 94.35,378.6 96.2,376.75 94.15,372.65 
		91.5,374.5 90.05,373.25 87.6,372.05 85.8,374.5 79.45,369.4 	"/>
</g>
<g>
	<path fill-rule="evenodd" clip-rule="evenodd" fill="#c8c8c8" d="M108.4,367.5l6.15-0.4l9,3.7l-3.9-1.05l-0.8,4.3l-1.45,3.9
		l0.2,2.85l-10.6,7.15l10.2,9.8l3.6,4.3l-7.7-7.95l-0.2,2.851l-0.55,0.35c-0.367,0.233-0.85,0.45-1.45,0.65
		c-0.433,0.166-0.933,0.416-1.5,0.75c-0.566,0.3-1.066,0.583-1.5,0.85c-0.433,0.3-0.667,0.45-0.7,0.45l-1.85,1.85l-3.05-3.05
		l-0.6-3.1l-1.85-1.8l3.05-4.5l-9-4.7l-1.2,0.2l-0.2,2.649h-4.35l0.65-3.7v-4.699l5.5-0.601L97,375.9l3.05-0.4v-3.9l5.85-5.149
		L108.4,367.5z"/>
	
		<path fill-rule="evenodd" clip-rule="evenodd" fill="none" stroke="#fff" stroke-width="0.65" stroke-linecap="round" stroke-linejoin="round" stroke-miterlimit="3" d="
		M108.4,367.5l-2.5-1.05l-5.85,5.149v3.9L97,375.9l-2.7,2.649l-5.5,0.601v4.699l-0.65,3.7h4.35l0.2-2.649l1.2-0.2l9,4.7l-3.05,4.5
		l1.85,1.8l0.6,3.1l3.05,3.05l1.85-1.85c0.033,0,0.267-0.15,0.7-0.45c0.434-0.267,0.934-0.55,1.5-0.85
		c0.567-0.334,1.067-0.584,1.5-0.75c0.6-0.2,1.083-0.417,1.45-0.65l0.55-0.35l0.2-2.851l7.7,7.95l-3.6-4.3l-10.2-9.8l10.6-7.15
		l-0.2-2.85l1.45-3.9l0.8-4.3l3.9,1.05l-9-3.7L108.4,367.5z"/>
</g>
<g>
	<polygon fill-rule="evenodd" clip-rule="evenodd" fill="#c8c8c8" points="14.25,338.4 15.5,334.4 15.5,332.85 22.2,330.1 
		25.3,320.3 25.6,329.8 26.2,330.7 25,335.95 27.45,340.55 35.1,345.75 40.3,347.9 44.6,350.65 46.75,355.25 50.75,357.7 
		52.25,358.9 49.5,368.4 70.05,369.95 69.75,373.35 72.5,371 73.7,371.4 76.2,370.15 77.6,370.8 77.2,376.7 76.2,382.2 75.15,385.5 
		75.75,387.35 72.9,389.8 70.45,390.2 68,389.8 67.8,393.45 65.75,396.3 63.6,398.45 57.8,394.8 54.1,385.3 51.65,383.45 
		44.6,384.05 41.55,382.2 40.9,379.45 41.55,378.25 40,378.85 36.35,373.35 28.05,367.2 25.3,364.45 26.2,358.3 25.9,353.7 
		28.35,348.8 18.25,349.1 	"/>
	
		<polygon fill-rule="evenodd" clip-rule="evenodd" fill="none" stroke="#fff" stroke-width="0.65" stroke-linecap="round" stroke-linejoin="round" stroke-miterlimit="3" points="
		14.25,338.4 18.25,349.1 28.35,348.8 25.9,353.7 26.2,358.3 25.3,364.45 28.05,367.2 36.35,373.35 40,378.85 41.55,378.25 
		40.9,379.45 41.55,382.2 44.6,384.05 51.65,383.45 54.1,385.3 57.8,394.8 63.6,398.45 65.75,396.3 67.8,393.45 68,389.8 
		70.45,390.2 72.9,389.8 75.75,387.35 75.15,385.5 76.2,382.2 77.2,376.7 77.6,370.8 76.2,370.15 73.7,371.4 72.5,371 69.75,373.35 
		70.05,369.95 49.5,368.4 52.25,358.9 50.75,357.7 46.75,355.25 44.6,350.65 40.3,347.9 35.1,345.75 27.45,340.55 25,335.95 
		26.2,330.7 25.6,329.8 25.3,320.3 22.2,330.1 15.5,332.85 15.5,334.4 	"/>
</g>
<g>
	<polygon fill-rule="evenodd" clip-rule="evenodd" fill="#c8c8c8" points="394.75,151.55 393.3,152.9 393.3,152.85 	"/>
	
		<polyline fill-rule="evenodd" clip-rule="evenodd" fill="none" stroke="#fff" stroke-width="0.65" stroke-linecap="round" stroke-linejoin="round" stroke-miterlimit="3" points="
		394.75,151.55 393.3,152.9 393.3,152.85 394.75,151.55 399.05,147.6 	"/>
</g>
<g>
	<path fill-rule="evenodd" clip-rule="evenodd" fill="#c8c8c8" d="M447.7,204.8l7.35,8.2l5.75,3.25l0.8,3.3l-4.5,0.8v5.7l6.551,3.7
		l3.25,3.7l1.649,4.05l6.95,2.9l3.25,5.7l6.55,1.25l6.15,6.1l2.85,6.55l4.9,3.7h10.649l6.5,2.45l7.4-4.1l4.05-5.3l0.45-4.1l3.15,0.2
		l2.149,4.9l-2.45,8.3l-3.1,4.6l5.85,3.35l2.15-1.85l3.05,2.15l1.851,3.7l3.35,1.5l-1.8,4l-8.3,1.85l-4.601,5.5l-2.45,0.3l-4.6,5.25
		l-4.6-1.55l-0.9,4.6l1.2,2.45l-4.3,2.449h-8.551l-4,10.101l2.45,3.7v8.25l5.5-2.15l-0.899,13.2l-6.45,4.3L498,340.8l-3.4,5.25
		l0.601,4.601L494,358.3l-7.65,13.2l-0.35,4.25l-4.55,6.45l-5.55-3.65l-4.301-1.25l-4.899-3.35l-5.5,5.8l-8.9,0.9l-3.35,3.699
		l-6.75-4.899L429.6,381l-14.399,4.9l-3.05,2.75l0.3,4.3l-5.8,3.35l-6.75,2.75l-4,3.101l-6.15-7.051l-4.25-2.149l-5.85,1.85
		l-3.05,1.5l-5.85-3.649l-3.65-4.9l-3.7-0.35l-6.15-2.15l-4.9,0.95l-6.1-4l-11.35,2.45l-0.6-2.75l7.05-9.2l-4.6-3.351l-10.45-1.55
		l2.45-1.05v-1.8l-3.6-4.55l-2.4-1.5l4.2-2.7l2.7-0.3v-2.7l2.1-1.55l-2.4-0.601l-2.4-2.1l1.2-3.601l2.4-4.5l7.55-6.649l0.6-4.8
		l2.1-4.551l10.55-6.899l-0.9-1.851l-0.3-1.8l12.05-0.3l1.8-2.7l-1.5-2.399l1.8-1.2l11.45-0.9l2.4-2.75l3.35-1.8l6.3-1.8l9.35-0.6
		l1.5-1.8l-0.3-4.85l-3.3-0.3l1.5-3l-0.6-1.5l-9.95,5.7l-0.9-3l-6.65,1.2l-4.8,3.65l-3.9-0.3l-3.05-4.85l1.2-1.8l-1.8-0.9l0.6-2.1
		l2.75-1.8l0.3-3.05l4.5-0.9l2.7-2.4l0.9-2.4l1.5,1.5l0.3,3.3l2.75-4.2l9.05-6.65l3.3,1.5l0.3-4.5c0-0.066,0.284-0.417,0.85-1.05
		c0.567-0.667,1.383-1.317,2.45-1.95c0.667-0.4,1-0.733,1-1c0.033-0.267-0.067-0.467-0.3-0.6c-0.233-0.133-0.367-0.2-0.4-0.2
		l-3.9-0.3l-2.65-1.7l2.45-2.45l1.65,1.6l12.7-22.05l7.35-7.75l3.25-7.8l1.25-0.8l-0.45-4.1l7.4-9l6.5-4.9l-0.4,0.85l-0.8,4.9
		l7.35-1.25l4.9-3.65L447.7,204.8z"/>
	
		<path fill-rule="evenodd" clip-rule="evenodd" fill="none" stroke="#fff" stroke-width="0.65" stroke-linecap="round" stroke-linejoin="round" stroke-miterlimit="3" d="
		M447.7,204.8l-2.45-1.6l-4.9,3.65L433,208.1l0.8-4.9l0.4-0.85l-6.5,4.9l-7.4,9l0.45,4.1l-1.25,0.8l-3.25,7.8l-7.35,7.75
		l-12.7,22.05l-1.65-1.6l-2.45,2.45l2.65,1.7l3.9,0.3c0.033,0,0.167,0.066,0.4,0.2c0.233,0.133,0.333,0.333,0.3,0.6
		c0,0.267-0.333,0.6-1,1c-1.067,0.633-1.883,1.283-2.45,1.95c-0.566,0.633-0.85,0.983-0.85,1.05l-0.3,4.5l-3.3-1.5l-9.05,6.65
		l-2.75,4.2l-0.3-3.3l-1.5-1.5l-0.9,2.4l-2.7,2.4l-4.5,0.9l-0.3,3.05l-2.75,1.8l-0.6,2.1l1.8,0.9l-1.2,1.8l3.05,4.85l3.9,0.3
		l4.8-3.65l6.65-1.2l0.9,3l9.95-5.7l0.6,1.5l-1.5,3l3.3,0.3l0.3,4.85l-1.5,1.8l-9.35,0.6l-6.3,1.8l-3.35,1.8l-2.4,2.75l-11.45,0.9
		l-1.8,1.2l1.5,2.399l-1.8,2.7l-12.05,0.3l0.3,1.8l0.9,1.851l-10.55,6.899l-2.1,4.551l-0.6,4.8l-7.55,6.649l-2.4,4.5l-1.2,3.601
		l2.4,2.1l2.4,0.601l-2.1,1.55v2.7l-2.7,0.3l-4.2,2.7l2.4,1.5l3.6,4.55v1.8l-2.45,1.05l10.45,1.55l4.6,3.351l-7.05,9.2l0.6,2.75
		l11.35-2.45l6.1,4l4.9-0.95l6.15,2.15l3.7,0.35l3.65,4.9l5.85,3.649l3.05-1.5l5.85-1.85l4.25,2.149l6.15,7.051l4-3.101l6.75-2.75
		l5.8-3.35l-0.3-4.3l3.05-2.75L429.6,381l12.601-1.55l6.75,4.899l3.35-3.699l8.9-0.9l5.5-5.8l4.899,3.35l4.301,1.25l5.55,3.65
		l4.55-6.45l0.35-4.25l7.65-13.2l1.2-7.649l-0.601-4.601l3.4-5.25l3.95,0.95l6.45-4.3l0.899-13.2l-5.5,2.15v-8.25l-2.45-3.7
		l4-10.101h8.551l4.3-2.449l-1.2-2.45l0.9-4.6l4.6,1.55l4.6-5.25l2.45-0.3l4.601-5.5l8.3-1.85l1.8-4l-3.35-1.5l-1.851-3.7
		l-3.05-2.15l-2.15,1.85l-5.85-3.35l3.1-4.6l2.45-8.3l-2.149-4.9l-3.15-0.2l-0.45,4.1l-4.05,5.3l-7.4,4.1l-6.5-2.45H499.2l-4.9-3.7
		l-2.85-6.55l-6.15-6.1l-6.55-1.25l-3.25-5.7l-6.95-2.9l-1.649-4.05l-3.25-3.7l-6.551-3.7v-5.7l4.5-0.8l-0.8-3.3l-5.75-3.25
		L447.7,204.8z"/>
</g>
<g>
	<path fill-rule="evenodd" clip-rule="evenodd" fill="#c8c8c8" d="M335.65,242.6l5.75,0.3l9.3,2.7l1.2,2.7l5.75,0.95l3.9,3v1.8
		l-1.5,4.2l-1.5,3.05l4.8,1.5l3.05,0.3l1.8,1.2l9.95-3l3.9-2.15l1.5,1.55h4.55l2.4-0.3l1.6-0.8l2.6,1.7l3.95,0.3
		c0.033,0,0.15,0.066,0.35,0.2c0.233,0.133,0.35,0.333,0.35,0.6s-0.333,0.6-1,1c-1.067,0.633-1.883,1.283-2.45,1.95
		c-0.6,0.633-0.9,0.983-0.9,1.05l-0.3,4.5l-3.3-1.5l-9.05,6.65l-2.7,4.2l-0.3-3.3l-1.5-1.5l-2.5,1l-1.25-0.6l-1.85-0.6l-0.3,0.9
		l-1.85,0.9l-6.2,0.95l-3.7,1.6l-3.25,0.85L345.9,287l-3.25-0.85l-5.35,4.5l0.45,6.55l-1.65,1.65l-2.05,4.05l-7.75,2.449v3.7
		l-3.3,4.5l-2.05-0.399l-2,2.449l-7.4-0.85l-4.05-1.2l-10.25-2.05l-2.85,1.65h-7.35l-5.75,2.05l-1.9,0.2l-7.35-2.15h-3.7l-3.7,0.6
		c-0.033,0-0.5-0.116-1.4-0.35s-1.967-0.517-3.2-0.85c-1.267-0.334-2.45-0.667-3.55-1c-1.067-0.334-1.817-0.617-2.25-0.851
		l-0.6-1.85l0.9-0.95l0.9-3.35l2.15-1.551l-0.3-1.199l-3.95-3.05l-5.55-1.55l-5.5-2.45l-1.45-2.25c-0.434-0.7-0.917-1.45-1.45-2.25
		l-3.85-6.4l-0.15-0.7c0.067-0.4,0.2-0.717,0.4-0.95c0.2-0.233,0.317-0.35,0.35-0.35l4.6-3.65l1.25,0.9l19.6,1.55l0.3,3.05
		l2.75,2.15l7.05-9.2l3.4-0.9l0.3-10.45l7.95-19.9l25.2,2.2l0.3,3.95l3.3,2.1l0.3,2.4h3.6l5.45-9.35l3.3-7.2l4.85-2.45l0.3,4.55
		l1.5,0.9l-1.8,2.7l3.3-0.6L335.65,242.6z"/>
	
		<path fill-rule="evenodd" clip-rule="evenodd" fill="none" stroke="#fff" stroke-width="0.65" stroke-linecap="round" stroke-linejoin="round" stroke-miterlimit="3" d="
		M335.65,242.6l-2.7,2.1l-3.3,0.6l1.8-2.7l-1.5-0.9l-0.3-4.55l-4.85,2.45l-3.3,7.2l-5.45,9.35h-3.6l-0.3-2.4l-3.3-2.1l-0.3-3.95
		l-25.2-2.2l-7.95,19.9l-0.3,10.45l-3.4,0.9l-7.05,9.2l-2.75-2.15l-0.3-3.05L242,279.2l-1.25-0.9l-4.6,3.65
		c-0.033,0-0.15,0.117-0.35,0.35c-0.2,0.233-0.333,0.55-0.4,0.95l0.15,0.7l3.85,6.4c0.533,0.8,1.017,1.55,1.45,2.25l1.45,2.25
		l5.5,2.45l5.55,1.55l3.95,3.05l0.3,1.199l-2.15,1.551l-0.9,3.35l-0.9,0.95l0.6,1.85c0.433,0.233,1.183,0.517,2.25,0.851
		c1.1,0.333,2.283,0.666,3.55,1c1.233,0.333,2.3,0.616,3.2,0.85s1.367,0.35,1.4,0.35l3.7-0.6h3.7l7.35,2.15l1.9-0.2l5.75-2.05h7.35
		l2.85-1.65l10.25,2.05l4.05,1.2l7.4,0.85l2-2.449l2.05,0.399l3.3-4.5v-3.7l7.75-2.449l2.05-4.05l1.65-1.65l-0.45-6.55l5.35-4.5
		l3.25,0.85l11.05-6.55l3.25-0.85l3.7-1.6l6.2-0.95l1.85-0.9l0.3-0.9l1.85,0.6l1.25,0.6l2.5-1l1.5,1.5l0.3,3.3l2.7-4.2l9.05-6.65
		l3.3,1.5l0.3-4.5c0-0.066,0.3-0.417,0.9-1.05c0.567-0.667,1.383-1.317,2.45-1.95c0.667-0.4,1-0.733,1-1s-0.117-0.467-0.35-0.6
		c-0.2-0.133-0.317-0.2-0.35-0.2l-3.95-0.3l-2.6-1.7l-1.6,0.8l-2.4,0.3h-4.55l-1.5-1.55l-3.9,2.15l-9.95,3l-1.8-1.2l-3.05-0.3
		l-4.8-1.5l1.5-3.05l1.5-4.2v-1.8l-3.9-3l-5.75-0.95l-1.2-2.7l-9.3-2.7L335.65,242.6z"/>
</g>
<g>
	<polygon fill-rule="evenodd" clip-rule="evenodd" fill="#c8c8c8" points="342.65,286.2 345.95,287 356.95,280.5 360.25,279.65 
		363.9,278.05 370.15,277.1 372,276.2 372.3,275.25 374.15,275.9 375.35,276.5 377.85,275.5 376.95,277.9 374.25,280.3 
		369.75,281.2 369.45,284.25 366.7,286.05 366.1,288.15 367.9,289.05 366.7,290.85 369.75,295.7 373.65,296 378.45,292.35 
		385.1,291.15 386,294.15 395.95,288.45 396.55,289.95 395.05,292.95 398.35,293.25 398.65,298.1 397.15,299.9 387.8,300.5 
		381.5,302.3 378.15,304.1 375.75,306.8 364.3,307.75 362.5,308.95 364,311.35 362.2,314.05 350.15,314.35 350.45,316.15 
		351.35,317.95 340.8,324.9 338.7,329.4 338.1,334.25 330.55,340.85 328.15,345.4 326.95,349 329.35,351.1 331.75,351.7 
		329.65,353.25 329.65,355.95 326.95,356.25 322.7,358.95 325.15,360.45 328.75,365 328.75,366.8 326.3,367.85 320.2,372.15 
		317.1,372.45 309.75,370 305.45,370.9 296.25,369.4 286.75,370 282.5,374.3 261.65,381.95 256.75,380.1 254.6,380.4 247.85,380.4 
		244.15,374.3 243.85,369.4 248.15,367.85 249.35,365.1 257.35,363.55 259.2,357.45 262.55,358.05 265,359.25 268.35,357.45 
		272.35,353.15 281.25,351.6 284,347.9 278.5,342.7 277.25,341.8 278.2,341.5 280.95,341.8 285.25,339.05 287.4,332 281.25,329.55 
		279.1,324.3 281.25,323.1 281.55,317.25 281.35,315.25 287.05,313.2 294.45,313.2 297.3,311.55 307.5,313.6 311.6,314.8 
		318.95,315.65 321,313.2 323.05,313.6 326.3,309.1 326.3,305.4 334.1,302.95 336.1,298.9 337.75,297.25 337.35,290.7 	"/>
	
		<polygon fill-rule="evenodd" clip-rule="evenodd" fill="none" stroke="#fff" stroke-width="0.65" stroke-linecap="round" stroke-linejoin="round" stroke-miterlimit="3" points="
		342.65,286.2 337.35,290.7 337.75,297.25 336.1,298.9 334.1,302.95 326.3,305.4 326.3,309.1 323.05,313.6 321,313.2 318.95,315.65 
		311.6,314.8 307.5,313.6 297.3,311.55 294.45,313.2 287.05,313.2 281.35,315.25 281.55,317.25 281.25,323.1 279.1,324.3 
		281.25,329.55 287.4,332 285.25,339.05 280.95,341.8 278.2,341.5 277.25,341.8 278.5,342.7 284,347.9 281.25,351.6 272.35,353.15 
		268.35,357.45 265,359.25 262.55,358.05 259.2,357.45 257.35,363.55 249.35,365.1 248.15,367.85 243.85,369.4 244.15,374.3 
		247.85,380.4 254.6,380.4 256.75,380.1 261.65,381.95 282.5,374.3 286.75,370 296.25,369.4 305.45,370.9 309.75,370 317.1,372.45 
		320.2,372.15 326.3,367.85 328.75,366.8 328.75,365 325.15,360.45 322.7,358.95 326.95,356.25 329.65,355.95 329.65,353.25 
		331.75,351.7 329.35,351.1 326.95,349 328.15,345.4 330.55,340.85 338.1,334.25 338.7,329.4 340.8,324.9 351.35,317.95 
		350.45,316.15 350.15,314.35 362.2,314.05 364,311.35 362.5,308.95 364.3,307.75 375.75,306.8 378.15,304.1 381.5,302.3 
		387.8,300.5 397.15,299.9 398.65,298.1 398.35,293.25 395.05,292.95 396.55,289.95 395.95,288.45 386,294.15 385.1,291.15 
		378.45,292.35 373.65,296 369.75,295.7 366.7,290.85 367.9,289.05 366.1,288.15 366.7,286.05 369.45,284.25 369.75,281.2 
		374.25,280.3 376.95,277.9 377.85,275.5 375.35,276.5 374.15,275.9 372.3,275.25 372,276.2 370.15,277.1 363.9,278.05 
		360.25,279.65 356.95,280.5 345.95,287 	"/>
</g>
<g>
	<path fill-rule="evenodd" clip-rule="evenodd" fill="#c8c8c8" d="M193.9,394.8c-0.4-0.566-0.483-1.35-0.25-2.35
		s0.517-1.917,0.85-2.75c0.367-0.834,0.567-1.283,0.6-1.351l1.85,0.65l4,2.45l1.8-0.65l2.45-5.2l5.55,0.301l2.45-7.051l2.15,0.301
		l2.15-1.2l5.5-9.8h2.15l12.55,2.149l0.9-0.149l0.95,0.149l4.3-0.95l0.3,4.9l3.7,6.15h6.7l2.15-0.301l4.9,1.851l1.85,5.2l-6.4,16.25
		l-1.85,6.399l-10.75,0.65l-6.75,1.2l-3.05,3.399l-2.75,1.2l-2.45,6.15l-5.55-1.551l-7.35,0.301l-3.35-3.051l-0.95-0.6l-2.15-2.15
		l-2.1-4l-1.85-1.199c-0.033-0.034-0.417-0.284-1.15-0.75c-0.7-0.434-1.55-1-2.55-1.7c-0.967-0.7-1.883-1.417-2.75-2.15
		c-0.8-0.733-1.317-1.483-1.55-2.25c-0.267-0.733-0.383-1.35-0.35-1.85c0-0.533,0.017-0.8,0.05-0.8l-1.8-3.101
		c-0.033,0-0.25-0.267-0.65-0.8C195,396.25,194.5,395.6,193.9,394.8z"/>
	
		<path fill-rule="evenodd" clip-rule="evenodd" fill="none" stroke="#fff" stroke-width="0.65" stroke-linecap="round" stroke-linejoin="round" stroke-miterlimit="3" d="
		M193.9,394.8c0.6,0.8,1.1,1.45,1.5,1.95c0.4,0.533,0.617,0.8,0.65,0.8l1.8,3.101c-0.033,0-0.05,0.267-0.05,0.8
		c-0.033,0.5,0.083,1.116,0.35,1.85c0.233,0.767,0.75,1.517,1.55,2.25c0.867,0.733,1.783,1.45,2.75,2.15c1,0.7,1.85,1.267,2.55,1.7
		c0.733,0.466,1.117,0.716,1.15,0.75l1.85,1.199l2.1,4l2.15,2.15l0.95,0.6l3.35,3.051l7.35-0.301l5.55,1.551l2.45-6.15l2.75-1.2
		l3.05-3.399l6.75-1.2l10.75-0.65l1.85-6.399l6.4-16.25l-1.85-5.2l-4.9-1.851l-2.15,0.301h-6.7l-3.7-6.15l-0.3-4.9l-4.3,0.95
		l-0.95-0.149l-0.9,0.149l-12.55-2.149H223l-5.5,9.8l-2.15,1.2l-2.15-0.301l-2.45,7.051l-5.55-0.301l-2.45,5.2l-1.8,0.65l-4-2.45
		l-1.85-0.65c-0.033,0.067-0.233,0.517-0.6,1.351c-0.333,0.833-0.617,1.75-0.85,2.75S193.5,394.233,193.9,394.8z"/>
</g>
<g>
	<path fill-rule="evenodd" clip-rule="evenodd" fill="#c8c8c8" d="M146.05,393.95l-0.25-1.351l0.2-3.949l2.45,0.649l7.7-0.3
		l9.2,4.25l11,0.65l-0.3-12.601l7.7,2.45l6.3,1.15l0.8,0.399l4.2,3.05c-0.033,0.067-0.216,0.517-0.55,1.351
		c-0.367,0.833-0.667,1.75-0.9,2.75c-0.2,1-0.117,1.783,0.25,2.35c0.633,0.8,1.15,1.45,1.55,1.95c0.367,0.533,0.567,0.8,0.6,0.8
		l1.85,3.101c-0.033,0-0.067,0.25-0.1,0.75c-0.033,0.533,0.083,1.166,0.35,1.899c0.233,0.767,0.75,1.517,1.55,2.25
		c0.867,0.733,1.8,1.45,2.8,2.15c0.966,0.666,1.816,1.233,2.55,1.7c0.7,0.466,1.067,0.716,1.1,0.75l1.85,1.199l2.15,4l2.15,2.15
		l0.9,0.6L211,418.4l-4.6,2.75l-1.85,3.399l-2.45-0.3l-0.6,3.05l-2.15-1.25l-1.2-4.6l-4-2.15l-6.75,2.8l-6.45-3.399l-9.2-3.95
		l-8.55,3.05l-16.85,2.5l0.3-0.649l1.8-2.45l0.35-4.3l-1.85-2.45l-1.55-1.55l-0.3-3.051l2.75-2.149l0.3-5.851l-1.35-1.8
		L146.05,393.95z"/>
	
		<path fill-rule="evenodd" clip-rule="evenodd" fill="none" stroke="#fff" stroke-width="0.65" stroke-linecap="round" stroke-linejoin="round" stroke-miterlimit="3" d="
		M146.05,393.95l0.75,2.1l1.35,1.8l-0.3,5.851l-2.75,2.149l0.3,3.051l1.55,1.55l1.85,2.45l-0.35,4.3l-1.8,2.45l-0.3,0.649l16.85-2.5
		l8.55-3.05l9.2,3.95l6.45,3.399l6.75-2.8l4,2.15l1.2,4.6l2.15,1.25l0.6-3.05l2.45,0.3l1.85-3.399l4.6-2.75l2.15-0.301l-0.9-0.6
		l-2.15-2.15l-2.15-4l-1.85-1.199c-0.033-0.034-0.4-0.284-1.1-0.75c-0.733-0.467-1.583-1.034-2.55-1.7c-1-0.7-1.934-1.417-2.8-2.15
		c-0.8-0.733-1.316-1.483-1.55-2.25c-0.267-0.733-0.383-1.366-0.35-1.899c0.033-0.5,0.067-0.75,0.1-0.75L196,397.55
		c-0.033,0-0.233-0.267-0.6-0.8c-0.4-0.5-0.917-1.15-1.55-1.95c-0.367-0.566-0.45-1.35-0.25-2.35c0.233-1,0.533-1.917,0.9-2.75
		c0.333-0.834,0.517-1.283,0.55-1.351l-4.2-3.05l-0.8-0.399l-6.3-1.15l-7.7-2.45l0.3,12.601l-11-0.65l-9.2-4.25l-7.7,0.3L146,388.65
		l-0.2,3.949L146.05,393.95z"/>
</g>
<g>
	<polygon fill-rule="evenodd" clip-rule="evenodd" fill="#c8c8c8" points="204.9,327.05 209.8,329.5 210.45,331.65 222.1,327.05 
		224.55,324.3 226.7,325.2 229.75,322.75 238.65,322.15 239.55,323.35 239.7,323.25 240.45,324 239.85,335 243.85,336.25 
		247.2,341.45 246.3,345.15 253.65,351.25 258.55,352.2 260.7,353.4 260.1,356.8 259.15,357.4 257.35,363.55 249.35,365.05 
		248.15,367.8 243.85,369.35 238.6,370.15 227.3,368.15 223,368.15 218.7,363.2 218.4,361.7 213.2,364.15 209.2,362.3 208.3,353.1 
		201.25,348.2 197.55,341.75 195.7,339.6 191.75,341.45 192.65,335.95 189.6,334.4 189.3,332.25 192.95,331.65 192.65,328.9 
		192.65,327.65 201.55,326.15 204.9,323.05 205.85,324.6 	"/>
	
		<polygon fill-rule="evenodd" clip-rule="evenodd" fill="none" stroke="#fff" stroke-width="0.65" stroke-linecap="round" stroke-linejoin="round" stroke-miterlimit="3" points="
		204.9,327.05 205.85,324.6 204.9,323.05 201.55,326.15 192.65,327.65 192.65,328.9 192.95,331.65 189.3,332.25 189.6,334.4 
		192.65,335.95 191.75,341.45 195.7,339.6 197.55,341.75 201.25,348.2 208.3,353.1 209.2,362.3 213.2,364.15 218.4,361.7 
		218.7,363.2 223,368.15 227.3,368.15 238.6,370.15 243.85,369.35 248.15,367.8 249.35,365.05 257.35,363.55 259.15,357.4 
		260.1,356.8 260.7,353.4 258.55,352.2 253.65,351.25 246.3,345.15 247.2,341.45 243.85,336.25 239.85,335 240.45,324 239.7,323.25 
		239.55,323.35 238.65,322.15 229.75,322.75 226.7,325.2 224.55,324.3 222.1,327.05 210.45,331.65 209.8,329.5 	"/>
</g>
<g>
	<polygon fill-rule="evenodd" clip-rule="evenodd" fill="#c8c8c8" points="223.3,315.7 223.6,320.9 224.5,324.3 222.05,327.05 
		210.4,331.65 209.8,329.5 204.9,327.05 205.8,324.6 204.9,323.05 201.55,326.15 198.15,326.45 195.1,327.35 192.65,327.65 
		194.8,319.4 192.95,314.15 194.5,314.15 197.25,316.3 200.6,315.4 201.85,314.15 200.3,312.05 199.4,311.1 204.9,308.05 
		208.6,304.65 209.5,305.3 212.85,303.15 215,305.6 218.1,310.2 220.85,312.65 222.7,313.85 	"/>
	
		<polygon fill-rule="evenodd" clip-rule="evenodd" fill="none" stroke="#fff" stroke-width="0.65" stroke-linecap="round" stroke-linejoin="round" stroke-miterlimit="3" points="
		223.3,315.7 222.7,313.85 220.85,312.65 218.1,310.2 215,305.6 212.85,303.15 209.5,305.3 208.6,304.65 204.9,308.05 199.4,311.1 
		200.3,312.05 201.85,314.15 200.6,315.4 197.25,316.3 194.5,314.15 192.95,314.15 194.8,319.4 192.65,327.65 195.1,327.35 
		198.15,326.45 201.55,326.15 204.9,323.05 205.8,324.6 204.9,327.05 209.8,329.5 210.4,331.65 222.05,327.05 224.5,324.3 
		223.6,320.9 	"/>
</g>
<g>
	<path fill-rule="evenodd" clip-rule="evenodd" fill="#c8c8c8" d="M238.65,306.8l4.3-4.3l2.6,0.45l4.75,4.75l3.35,0.35v0.9
		l-0.15,0.25c-0.1,0.2-0.117,0.434-0.05,0.7c0.066,0.3,0.35,0.6,0.85,0.899l-1.55,2.15l-2.45,2.45l-2.15,5.8l-2.45,0.3l-3.4-0.6
		l-2.6,2.3l-1.05-1.05l-8.9,0.6l-3.05,2.45l-2.15-0.9l-1.05-5.5l-0.2-3.1l-0.6-1.851l1.55-0.899l2.45-0.95l1.35-2.3l-2-5.65
		l1.55-0.3l1.55-2.45h1.5L238.65,306.8z"/>
	
		<path fill-rule="evenodd" clip-rule="evenodd" fill="none" stroke="#fff" stroke-width="0.65" stroke-linecap="round" stroke-linejoin="round" stroke-miterlimit="3" d="
		M238.65,306.8l-8-5.5h-1.5l-1.55,2.45l-1.55,0.3l2,5.65l-1.35,2.3l-2.45,0.95l-1.55,0.899l0.6,1.851l0.2,3.1l1.05,5.5l2.15,0.9
		l3.05-2.45l8.9-0.6l1.05,1.05l2.6-2.3l3.4,0.6l2.45-0.3l2.15-5.8l2.45-2.45l1.55-2.15c-0.5-0.3-0.783-0.6-0.85-0.899
		c-0.067-0.267-0.05-0.5,0.05-0.7l0.15-0.25v-0.9l-3.35-0.35l-4.75-4.75l-2.6-0.45L238.65,306.8z"/>
</g>
<g>
	<path fill-rule="evenodd" clip-rule="evenodd" fill="#c8c8c8" d="M231.3,267.6l6.4,1.85l2.15,4l0.95,4.9l-5.55,4.3l0.15,0.65
		c-0.033,0.267,0.017,0.55,0.15,0.85c0.2,0.4,0.684,1.2,1.45,2.4c0.733,1.2,1.55,2.483,2.45,3.85l0.1,0.2l1.3,2.05
		c0.433,0.667,0.783,1.2,1.05,1.6l0.4,0.65l6.15,2.75l4.9,1.25l4,3.05l0.3,1.2l-2.15,1.55l-0.9,3.35l-4.3-0.3l-4.9-4.9l-2.45-0.3
		l-4.3,4.3l-8-5.5h-1.5l-1.55,2.45l-1.55,0.3l1.25,3.95l0.4,0.851l0.2,0.699l-1.2,2.45l-2.45,0.95l-1.55,0.9l-4.6-3.7l-3.05-4.601
		l-2.15-2.449l-0.95-2.75l3.7-6.101l6.45-7.7l2.15-3.65l-0.35-1.85l-1.8-1.85l-0.95-2.75l3.4-13.5L231.3,267.6z"/>
	
		<path fill-rule="evenodd" clip-rule="evenodd" fill="none" stroke="#fff" stroke-width="0.65" stroke-linecap="round" stroke-linejoin="round" stroke-miterlimit="3" d="
		M231.3,267.6l-6.75-4.6l-3.4,13.5l0.95,2.75l1.8,1.85l0.35,1.85l-2.15,3.65l-6.45,7.7l-3.7,6.101l0.95,2.75l2.15,2.449l3.05,4.601
		l4.6,3.7l1.55-0.9l2.45-0.95l1.2-2.45l-0.2-0.699l-0.4-0.851l-1.25-3.95l1.55-0.3l1.55-2.45h1.5l8,5.5l4.3-4.3l2.45,0.3l4.9,4.9
		l4.3,0.3l0.9-3.35l2.15-1.55l-0.3-1.2l-4-3.05l-4.9-1.25l-6.15-2.75l-0.4-0.65c-0.267-0.4-0.617-0.933-1.05-1.6l-1.3-2.05l-0.1-0.2
		c-0.9-1.367-1.717-2.65-2.45-3.85c-0.767-1.2-1.25-2-1.45-2.4c-0.133-0.3-0.183-0.583-0.15-0.85l-0.15-0.65l5.55-4.3l-0.95-4.9
		l-2.15-4L231.3,267.6z"/>
</g>
<g>
	<path fill-rule="evenodd" clip-rule="evenodd" fill="#c8c8c8" d="M198.15,358.95l2.45,1.25l3.7,2.45l3.35-0.301l0.95-1.85l0.6,1.85
		l4,1.801l5.2-2.45l0.3,1.55l4.3,4.9l-5.5,9.8l-2.15,1.25l-2.15-0.3l-2.45,7.05l-5.55-0.351l-2.45,5.25l-1.8,0.601l-4-2.45
		l-1.85-0.6l-2.15-2.15l-2.05-0.95l-0.4-0.3l-0.4-0.05l-0.5-0.25l-4-1.2l0.6-4.3l0.95-1.55c0-0.034,0.1-0.233,0.3-0.601
		c0.2-0.366,0.433-0.783,0.7-1.25c0.233-0.467,0.4-0.866,0.5-1.2c0.067-0.3-0.1-0.55-0.5-0.75c-0.4-0.166-0.816-0.3-1.25-0.399
		c-0.433-0.066-0.667-0.101-0.7-0.101l-6.75-0.899l-3.95-1.55l7.05-3.051l7.35-2.449l3.65-2.15L198.15,358.95z"/>
	
		<path fill-rule="evenodd" clip-rule="evenodd" fill="none" stroke="#fff" stroke-width="0.65" stroke-linecap="round" stroke-linejoin="round" stroke-miterlimit="3" d="
		M198.15,358.95l-4.6,4.3l-3.65,2.15l-7.35,2.449l-7.05,3.051l3.95,1.55l6.75,0.899c0.033,0,0.267,0.034,0.7,0.101
		c0.434,0.1,0.85,0.233,1.25,0.399c0.4,0.2,0.567,0.45,0.5,0.75c-0.1,0.334-0.267,0.733-0.5,1.2c-0.267,0.467-0.5,0.884-0.7,1.25
		c-0.2,0.367-0.3,0.566-0.3,0.601l-0.95,1.55l-0.6,4.3l4,1.2l0.5,0.25l0.4,0.05l0.4,0.3l2.05,0.95l2.15,2.15l1.85,0.6l4,2.45
		l1.8-0.601l2.45-5.25l5.55,0.351l2.45-7.05l2.15,0.3l2.15-1.25l5.5-9.8l-4.3-4.9l-0.3-1.55l-5.2,2.45l-4-1.801l-0.6-1.85
		l-0.95,1.85l-3.35,0.301l-3.7-2.45L198.15,358.95z"/>
</g>
<g>
	<polygon fill-rule="evenodd" clip-rule="evenodd" fill="#c8c8c8" points="190.9,385.3 190.1,384.95 190.5,385 	"/>
	
		<polygon fill-rule="evenodd" clip-rule="evenodd" fill="none" stroke="#fff" stroke-width="0.65" stroke-linecap="round" stroke-linejoin="round" stroke-miterlimit="3" points="
		190.9,385.3 190.5,385 190.1,384.95 	"/>
</g>
<g>
	<polygon fill-rule="evenodd" clip-rule="evenodd" fill="#c8c8c8" points="148.5,417.15 146.05,419.9 141.45,420.85 139.3,425.75 
		134.4,426.65 134.1,430.65 132.85,431.25 130.4,427.9 127.95,431.55 124.9,431.55 122.45,434.95 119.4,434 117.25,431.55 
		114.5,435.25 111.1,436.8 98.25,430.95 93.95,424.2 89.95,423.3 83.85,423 82.05,418.85 83.5,415.65 87.8,413.8 94.25,409.5 
		96.1,405.5 96.4,401.2 97.6,398.75 98.85,400.3 100.4,404.6 105,406.75 110.2,406.45 116.65,404 118.45,399.7 121.35,402.65 
		121.85,403.05 125.7,405.65 132.25,411.65 145.15,405.8 145.45,408.9 148.8,412.85 	"/>
	
		<polygon fill-rule="evenodd" clip-rule="evenodd" fill="none" stroke="#fff" stroke-width="0.65" stroke-linecap="round" stroke-linejoin="round" stroke-miterlimit="3" points="
		148.5,417.15 148.8,412.85 145.45,408.9 145.15,405.8 132.25,411.65 125.7,405.65 121.85,403.05 121.35,402.65 118.45,399.7 
		116.65,404 110.2,406.45 105,406.75 100.4,404.6 98.85,400.3 97.6,398.75 96.4,401.2 96.1,405.5 94.25,409.5 87.8,413.8 
		83.5,415.65 82.05,418.85 83.85,423 89.95,423.3 93.95,424.2 98.25,430.95 111.1,436.8 114.5,435.25 117.25,431.55 119.4,434 
		122.45,434.95 124.9,431.55 127.95,431.55 130.4,427.9 132.85,431.25 134.1,430.65 134.4,426.65 139.3,425.75 141.45,420.85 
		146.05,419.9 	"/>
</g>
<g>
	<polygon fill-rule="evenodd" clip-rule="evenodd" fill="#c8c8c8" points="145.45,408.9 147,410.4 148.85,412.85 	"/>
	
		<polygon fill-rule="evenodd" clip-rule="evenodd" fill="none" stroke="#fff" stroke-width="0.65" stroke-linecap="round" stroke-linejoin="round" stroke-miterlimit="3" points="
		145.45,408.9 148.85,412.85 147,410.4 	"/>
</g>
<g>
	<path fill-rule="evenodd" clip-rule="evenodd" fill="#c8c8c8" d="M70.45,390.2l2.45-0.4l2.85-2.45l-0.6-1.85l1.05-3.25l0.6-3.9
		l0.4-1.6l5.9,4.5l-1.8,6.3h11.2l0.25-2.649l1.2-0.2l9,4.7l-3.05,4.5l1.8,1.85l0.65,3.05l3.05,3.05l1.85-1.8
		c0-0.033,0.217-0.184,0.65-0.45c0.434-0.267,0.934-0.566,1.5-0.899c0.567-0.334,1.067-0.566,1.5-0.7
		c0.633-0.233,1.133-0.467,1.5-0.7c0.367-0.2,0.55-0.316,0.55-0.35l0.2-2.851l5.35,5.601l-1.85,4.3l-6.45,2.45l-5.2,0.3l-4.6-2.1
		l-1.55-4.301l-1.2-1.55l-1.25,2.45l-0.3,4.3l-1.85,4l-6.45,4.25l-4.25,1.851l-1.45,3.199l-0.2-0.35l-2.35-5.9l-6.75-8.3l-5.2,0.351
		l-3.4-0.95l-3.05,0.6l2.45-5.8l2.15-2.15l2.05-2.85l0.2-3.7L70.45,390.2z"/>
	
		<path fill-rule="evenodd" clip-rule="evenodd" fill="none" stroke="#fff" stroke-width="0.65" stroke-linecap="round" stroke-linejoin="round" stroke-miterlimit="3" d="
		M70.45,390.2L68,389.8l-0.2,3.7l-2.05,2.85l-2.15,2.15l-2.45,5.8l3.05-0.6l3.4,0.95l5.2-0.351l6.75,8.3l2.35,5.9l0.2,0.35
		l1.45-3.199l4.25-1.851l6.45-4.25l1.85-4l0.3-4.3l1.25-2.45l1.2,1.55l1.55,4.301l4.6,2.1l5.2-0.3l6.45-2.45l1.85-4.3l-5.35-5.601
		l-0.2,2.851c0,0.033-0.184,0.149-0.55,0.35c-0.367,0.233-0.867,0.467-1.5,0.7c-0.433,0.134-0.933,0.366-1.5,0.7
		c-0.566,0.333-1.066,0.633-1.5,0.899c-0.433,0.267-0.65,0.417-0.65,0.45l-1.85,1.8l-3.05-3.05l-0.65-3.05l-1.8-1.85l3.05-4.5
		l-9-4.7l-1.2,0.2l-0.25,2.649H81.3l1.8-6.3l-5.9-4.5l-0.4,1.6l-0.6,3.9l-1.05,3.25l0.6,1.85l-2.85,2.45L70.45,390.2z"/>
</g>
<g>
	<path fill-rule="evenodd" clip-rule="evenodd" fill="#c8c8c8" d="M123.6,370.8l3.65-1.05l0.05,0.1
		c-0.966,0.233-1.816,0.45-2.55,0.65S123.633,370.8,123.6,370.8z"/>
	
		<path fill-rule="evenodd" clip-rule="evenodd" fill="none" stroke="#fff" stroke-width="0.65" stroke-linecap="round" stroke-linejoin="round" stroke-miterlimit="3" d="
		M123.6,370.8c0.033,0,0.417-0.1,1.15-0.3s1.583-0.417,2.55-0.65l-0.05-0.1L123.6,370.8z"/>
</g>
<g>
	
		<path fill-rule="evenodd" clip-rule="evenodd" fill="none" stroke="#fff" stroke-width="0.5" stroke-linecap="round" stroke-linejoin="round" stroke-miterlimit="3" d="
		M123.55,370.8c0.034,0,0.417-0.1,1.15-0.3c0.733-0.2,1.583-0.417,2.55-0.65v-0.1L123.55,370.8z"/>
</g>
<g>
	<path fill-rule="evenodd" clip-rule="evenodd" fill="#c8c8c8" d="M118.9,374.05l0.8-4.3l3.9,1.05c0.033-0.033,0.4-0.133,1.1-0.3
		c0.733-0.2,1.583-0.417,2.55-0.65l0.6,4l-0.6,3.051l1.65,5.35l4.3,2.45c0.033,0.033,0.433,0.333,1.2,0.899
		c0.767,0.534,1.517,1.15,2.25,1.851c0.767,0.733,1.184,1.316,1.25,1.75c0,0.666,0.067,1.35,0.2,2.05c0.1,0.733,0.167,1.134,0.2,1.2
		l7.55-2.25l-0.1,1.85l0.1,0.55v0.65l0.25,0.7l0.25,1.45l0.5,0.649v0.101l1.35,1.699l-0.3,5.851l-2.75,2.149l-12.4,5.4l-7.25-5.7
		l-0.15-0.149l-1.15-0.9l-2.6-1.65l-0.8-0.8l-3.55-4.3l-10.25-9.8l10.65-7.15l-0.2-2.85L118.9,374.05z"/>
	
		<path fill-rule="evenodd" clip-rule="evenodd" fill="none" stroke="#fff" stroke-width="0.65" stroke-linecap="round" stroke-linejoin="round" stroke-miterlimit="3" d="
		M118.9,374.05l-1.45,3.9l0.2,2.85L107,387.95l10.25,9.8l3.55,4.3l0.8,0.8l2.6,1.65l1.15,0.9l0.15,0.149l7.25,5.7l12.4-5.4
		l2.75-2.149l0.3-5.851l-1.35-1.699v-0.101l-0.5-0.649l-0.25-1.45l-0.25-0.7v-0.65l-0.1-0.55l0.1-1.85l-7.55,2.25
		c-0.033-0.066-0.1-0.467-0.2-1.2c-0.133-0.7-0.2-1.384-0.2-2.05c-0.066-0.434-0.483-1.017-1.25-1.75
		c-0.733-0.7-1.483-1.316-2.25-1.851c-0.767-0.566-1.167-0.866-1.2-0.899l-4.3-2.45l-1.65-5.35l0.6-3.051l-0.6-4
		c-0.967,0.233-1.817,0.45-2.55,0.65c-0.7,0.167-1.067,0.267-1.1,0.3l-3.9-1.05L118.9,374.05z"/>
</g>
<g>
	
		<path fill-rule="evenodd" clip-rule="evenodd" fill="none" stroke="#fff" stroke-width="0.5" stroke-linecap="round" stroke-linejoin="round" stroke-miterlimit="3" d="
		M118.85,374.05l-1.45,3.9l0.2,2.85l-10.6,7.15l10.2,9.8l3.6,4.3l0.8,0.8l3.9,2.7l0.15,0.15l7.1,5.55l12.35-5.4l2.75-2.149
		l0.3-5.851l-1.3-1.75l-0.05-0.05l-0.45-0.649l-0.3-1.45l-0.25-0.7v-0.65l-0.1-0.55l0.1-1.85l-7.55,2.25
		c0-0.066-0.067-0.467-0.2-1.2c-0.1-0.7-0.167-1.384-0.2-2.05c-0.067-0.434-0.467-1.017-1.2-1.75c-0.767-0.7-1.533-1.334-2.3-1.9
		c-0.733-0.533-1.133-0.816-1.2-0.85l-4.3-2.45l-1.65-5.35l0.65-3.051l-0.6-4c-0.967,0.233-1.817,0.45-2.55,0.65
		c-0.733,0.167-1.117,0.267-1.15,0.3l-3.9-1.05L118.85,374.05z"/>
</g>
<g>
	<polygon fill-rule="evenodd" clip-rule="evenodd" fill="#c8c8c8" points="145.85,390.95 145.85,392.65 145.75,392.05 	"/>
	
		<polygon fill-rule="evenodd" clip-rule="evenodd" fill="none" stroke="#fff" stroke-width="0.65" stroke-linecap="round" stroke-linejoin="round" stroke-miterlimit="3" points="
		145.85,390.95 145.75,392.05 145.85,392.65 	"/>
</g>
<g>
	
		<polygon fill-rule="evenodd" clip-rule="evenodd" fill="none" stroke="#fff" stroke-width="0.5" stroke-linecap="round" stroke-linejoin="round" stroke-miterlimit="3" points="
		145.85,390.9 145.75,392.05 145.85,392.6 	"/>
</g>
<g>
	<polygon fill-rule="evenodd" clip-rule="evenodd" fill="#c8c8c8" points="146.35,395.4 146.1,393.95 146.85,396.05 	"/>
	
		<polygon fill-rule="evenodd" clip-rule="evenodd" fill="none" stroke="#fff" stroke-width="0.65" stroke-linecap="round" stroke-linejoin="round" stroke-miterlimit="3" points="
		146.35,395.4 146.85,396.05 146.1,393.95 	"/>
</g>
<g>
	
		<polygon fill-rule="evenodd" clip-rule="evenodd" fill="none" stroke="#fff" stroke-width="0.5" stroke-linecap="round" stroke-linejoin="round" stroke-miterlimit="3" points="
		146.35,395.4 146.85,396.05 146.1,393.95 	"/>
</g>
<g>
	<polygon fill-rule="evenodd" clip-rule="evenodd" fill="#c8c8c8" points="77.6,370.8 76.15,370.2 73.7,371.4 72.45,371 
		69.7,373.35 70,370.25 75.95,366.7 86.55,368.55 86.35,366.9 88.6,366.7 91.05,368.55 91.05,369.5 88.95,372.7 87.6,372 
		85.75,374.45 79.4,369.35 	"/>
	
		<polygon fill-rule="evenodd" clip-rule="evenodd" fill="none" stroke="#fff" stroke-width="0.65" stroke-linecap="round" stroke-linejoin="round" stroke-miterlimit="3" points="
		77.6,370.8 79.4,369.35 85.75,374.45 87.6,372 88.95,372.7 91.05,369.5 91.05,368.55 88.6,366.7 86.35,366.9 86.55,368.55 
		75.95,366.7 70,370.25 69.7,373.35 72.45,371 73.7,371.4 76.15,370.2 	"/>
</g>
<g>
	<polygon fill-rule="evenodd" clip-rule="evenodd" fill="#c8c8c8" points="93.3,369.15 95.55,369.6 95.75,371.4 91.5,374.5 
		90.05,373.25 88.95,372.7 91.05,369.5 91.05,371 92.7,371 	"/>
	
		<polygon fill-rule="evenodd" clip-rule="evenodd" fill="none" stroke="#fff" stroke-width="0.65" stroke-linecap="round" stroke-linejoin="round" stroke-miterlimit="3" points="
		93.3,369.15 92.7,371 91.05,371 91.05,369.5 88.95,372.7 90.05,373.25 91.5,374.5 95.75,371.4 95.55,369.6 	"/>
</g>
<g>
	<path fill-rule="evenodd" clip-rule="evenodd" fill="#c8c8c8" d="M503.3,85.9l-2.45-11l4.9-3.3l2.05-4.05l8.95-1.65l4.1-4.9
		l1.25-1.25l5.301,2.85l-2.45,6.15l-0.8,9.8l5.3,15.55l1.6,12.65h2.9l9,2.05l1.6,2.85l3.7-0.4l3.05,3.45v2.5
		c0,0.033,0.25,0.483,0.75,1.35c0.467,0.867,1.15,1.883,2.05,3.05c0.9,1.133,2,2.133,3.301,3c1.267,0.9,2.683,1.367,4.25,1.4
		c2.233,0.033,3.899,0.617,5,1.75c1.1,1.1,1.733,2.6,1.899,4.5c0.134,1.867-0.083,3.933-0.649,6.2
		c-0.467,2.033-0.551,3.867-0.25,5.5c0.267,1.633,0.616,2.933,1.05,3.9c0.467,0.967,0.717,1.467,0.75,1.5
		c0,0.033-0.084,0.483-0.25,1.35c-0.134,0.833-0.367,1.783-0.7,2.85c-0.333,1.034-0.767,1.883-1.3,2.55
		c-0.533,0.667-1.167,0.833-1.9,0.5c-1.066-0.467-2.25-0.483-3.55-0.05c-1.333,0.434-2.533,1.1-3.6,2c-1.067,0.9-1.801,1.8-2.2,2.7
		c-0.3,0.633-1.033,0.767-2.2,0.4s-2.467-0.933-3.9-1.7c-1.399-0.8-2.616-1.534-3.649-2.2c-1.033-0.7-1.584-1.067-1.65-1.1l0.3-4.9
		l-6.1-6.75l-9.8-13.5l-7.4-0.6l-2.149,0.6l-3.351-1.25l-6.149-1.2l-6.101-2.15l0.45-1.6l3.1-7.1l-2.85,0.85l3.7-6.15l2.45-9
		l-5.75-2.85L503.3,85.9z"/>
	
		<path fill-rule="evenodd" clip-rule="evenodd" fill="none" stroke="#fff" stroke-width="0.65" stroke-linecap="round" stroke-linejoin="round" stroke-miterlimit="3" d="
		M503.3,85.9l1.601,15.15l5.75,2.85l-2.45,9l-3.7,6.15l2.85-0.85l-3.1,7.1l-0.45,1.6l6.101,2.15l6.149,1.2l3.351,1.25l2.149-0.6
		l7.4,0.6l9.8,13.5l6.1,6.75l-0.3,4.9c0.066,0.033,0.617,0.4,1.65,1.1c1.033,0.667,2.25,1.4,3.649,2.2
		c1.434,0.767,2.733,1.333,3.9,1.7s1.9,0.233,2.2-0.4c0.399-0.9,1.133-1.8,2.2-2.7c1.066-0.9,2.267-1.566,3.6-2
		c1.3-0.433,2.483-0.417,3.55,0.05c0.733,0.333,1.367,0.167,1.9-0.5c0.533-0.667,0.967-1.517,1.3-2.55
		c0.333-1.066,0.566-2.017,0.7-2.85c0.166-0.867,0.25-1.317,0.25-1.35c-0.033-0.033-0.283-0.533-0.75-1.5
		c-0.434-0.967-0.783-2.267-1.05-3.9c-0.301-1.633-0.217-3.467,0.25-5.5c0.566-2.267,0.783-4.333,0.649-6.2
		c-0.166-1.9-0.8-3.4-1.899-4.5c-1.101-1.133-2.767-1.717-5-1.75c-1.567-0.033-2.983-0.5-4.25-1.4c-1.301-0.867-2.4-1.867-3.301-3
		c-0.899-1.167-1.583-2.184-2.05-3.05c-0.5-0.867-0.75-1.316-0.75-1.35v-2.5l-3.05-3.45l-3.7,0.4l-1.6-2.85l-9-2.05h-2.9l-1.6-12.65
		l-5.3-15.55l0.8-9.8l2.45-6.15l-5.301-2.85L520.85,61l-4.1,4.9l-8.95,1.65l-2.05,4.05l-4.9,3.3L503.3,85.9z"/>
</g>
<g>
	<path fill-rule="evenodd" clip-rule="evenodd" fill="#c8c8c8" d="M581.9,70.15l-4.9,8.9l-4.9,6.75l2.15,8.9l-0.9,3.65l2.75,4.6
		v5.55l4.9,2.15l2.15,4.6l-2.15,5.2l0.3,10.4l3.101,1.25l-4.601,15.3l-4.6,0.95l-1.25,1.85l4.3,4.25l-4,16.55l2.75,13.8l3.4,7.05
		l0.6,4l-1.85,2.15l-2.75-4l-2.15,2.45l-1.85,4.9l-0.551,2.15l-2.199,0.95l-3.051,0.9H552.2l-4.601-2.75l-6.149-4.6l-16.55,1.85
		l-2.75-11.35l3.699-11.95l8.25-9.2l10.4-10.75c0.066,0.066,0.616,0.433,1.65,1.1c1.033,0.7,2.267,1.433,3.699,2.2
		c1.4,0.8,2.684,1.367,3.851,1.7c1.2,0.367,1.95,0.25,2.25-0.35c0.366-0.9,1.083-1.8,2.149-2.7c1.101-0.9,2.301-1.566,3.601-2
		c1.3-0.466,2.483-0.45,3.55,0.05c0.767,0.3,1.4,0.133,1.9-0.5c0.533-0.667,0.966-1.533,1.3-2.6c0.333-1.033,0.583-1.983,0.75-2.85
		c0.133-0.833,0.2-1.283,0.2-1.35c-0.034,0-0.284-0.483-0.75-1.45c-0.434-0.967-0.784-2.267-1.051-3.9
		c-0.3-1.633-0.216-3.467,0.25-5.5c0.567-2.3,0.784-4.383,0.65-6.25c-0.167-1.867-0.8-3.367-1.9-4.5
		c-1.066-1.1-2.716-1.667-4.949-1.7c-1.601-0.067-3.034-0.533-4.301-1.4s-2.35-1.883-3.25-3.05c-0.933-1.133-1.633-2.133-2.1-3
		c-0.5-0.9-0.75-1.367-0.75-1.4v-2.45l0.2,0.25l3.7-3.3l-4.5-5.7L547,99.4l-0.85-5.3l1.649-8.6l-2.35-2.45l-2.15-14.1l-8.899-8.9
		L534.1,57.6l4.301-2.15V53.6h3.649l1.851,3.7l7.35,2.15l4.3-3.05l4.601-4.6l3.699-0.35l1.851,1.25l9.149-2.75l2.801,0.3l0.899,2.15
		l2.75,12.25L581.9,70.15z"/>
	
		<path fill-rule="evenodd" clip-rule="evenodd" fill="none" stroke="#fff" stroke-width="0.65" stroke-linecap="round" stroke-linejoin="round" stroke-miterlimit="3" d="
		M581.9,70.15l-0.601-5.5l-2.75-12.25l-0.899-2.15l-2.801-0.3L565.7,52.7l-1.851-1.25l-3.699,0.35l-4.601,4.6l-4.3,3.05l-7.35-2.15
		l-1.851-3.7H538.4v1.85L534.1,57.6l0.301,2.45l8.899,8.9l2.15,14.1l2.35,2.45l-1.649,8.6l0.85,5.3l3.65,6.55l4.5,5.7l-3.7,3.3
		l-0.2-0.25v2.45c0,0.033,0.25,0.5,0.75,1.4c0.467,0.867,1.167,1.867,2.1,3c0.9,1.167,1.983,2.184,3.25,3.05s2.7,1.333,4.301,1.4
		c2.233,0.033,3.883,0.6,4.949,1.7c1.101,1.133,1.733,2.633,1.9,4.5c0.134,1.867-0.083,3.95-0.65,6.25
		c-0.466,2.033-0.55,3.867-0.25,5.5c0.267,1.633,0.617,2.933,1.051,3.9c0.466,0.967,0.716,1.45,0.75,1.45
		c0,0.067-0.067,0.517-0.2,1.35c-0.167,0.867-0.417,1.817-0.75,2.85c-0.334,1.067-0.767,1.933-1.3,2.6c-0.5,0.633-1.134,0.8-1.9,0.5
		c-1.066-0.5-2.25-0.517-3.55-0.05c-1.3,0.434-2.5,1.1-3.601,2c-1.066,0.9-1.783,1.8-2.149,2.7c-0.3,0.6-1.05,0.717-2.25,0.35
		c-1.167-0.333-2.45-0.9-3.851-1.7c-1.433-0.767-2.666-1.5-3.699-2.2c-1.034-0.667-1.584-1.034-1.65-1.1l-10.4,10.75l-8.25,9.2
		l-3.699,11.95l2.75,11.35l16.55-1.85l6.149,4.6l4.601,2.75H566.6l3.051-0.9l2.199-0.95l0.551-2.15l1.85-4.9l2.15-2.45l2.75,4
		l1.85-2.15l-0.6-4l-3.4-7.05l-2.75-13.8l4-16.55l-4.3-4.25l1.25-1.85l4.6-0.95l4.601-15.3l-3.101-1.25l-0.3-10.4l2.15-5.2
		l-2.15-4.6l-4.9-2.15v-5.55l-2.75-4.6l0.9-3.65l-2.15-8.9l4.9-6.75L581.9,70.15z"/>
</g>
<g>
	<path fill-rule="evenodd" clip-rule="evenodd" fill="#c8c8c8" d="M403.05,165.05c-0.533,0.367-1,0.717-1.399,1.05
		c-0.367,0.3-0.567,0.467-0.601,0.5c-0.967-0.6-1.5-1.333-1.6-2.2c-0.1-0.9-0.034-1.7,0.2-2.4c0.267-0.7,0.417-1.067,0.45-1.1
		l-6.95-7.85l5.9-5.45l13.9-15.9l6.55-9.5c0.634,0.2,1.35,0.35,2.15,0.45c0.8,0.1,1.483,0,2.05-0.3c0.533-0.3,1.267-0.2,2.2,0.3
		c0.933,0.467,1.8,1.017,2.6,1.65l-0.85,12.7l2.85,14.7l0.45,9.8l-4.101,4.1l0.051,0.2c-1.567-0.3-2.9-0.716-4-1.25
		c-1.101-0.533-1.934-1.033-2.5-1.5c-0.567-0.433-0.851-0.667-0.851-0.7l-1.2,1.15l-2.85,0.75l-2.35-0.95
		c-0.034,0-0.25,0.017-0.65,0.05s-0.866,0.083-1.4,0.15c-0.5,0.1-0.916,0.183-1.25,0.25c-0.366,0.067-0.866,0.117-1.5,0.15
		c-0.633,0-1.283,0.017-1.949,0.05c-0.7,0.033-1.301,0.133-1.801,0.3S403.583,164.683,403.05,165.05z"/>
	
		<path fill-rule="evenodd" clip-rule="evenodd" fill="none" stroke="#fff" stroke-width="0.65" stroke-linecap="round" stroke-linejoin="round" stroke-miterlimit="3" d="
		M403.05,165.05c0.533-0.367,1.05-0.633,1.55-0.8s1.101-0.267,1.801-0.3c0.666-0.034,1.316-0.05,1.949-0.05
		c0.634-0.033,1.134-0.083,1.5-0.15c0.334-0.067,0.75-0.15,1.25-0.25c0.534-0.067,1-0.117,1.4-0.15s0.616-0.05,0.65-0.05l2.35,0.95
		l2.85-0.75l1.2-1.15c0,0.033,0.283,0.267,0.851,0.7c0.566,0.467,1.399,0.967,2.5,1.5c1.1,0.534,2.433,0.95,4,1.25l-0.051-0.2
		l4.101-4.1l-0.45-9.8l-2.85-14.7l0.85-12.7c-0.8-0.633-1.667-1.183-2.6-1.65c-0.934-0.5-1.667-0.6-2.2-0.3
		c-0.566,0.3-1.25,0.4-2.05,0.3c-0.801-0.1-1.517-0.25-2.15-0.45l-6.55,9.5l-13.9,15.9l-5.9,5.45l6.95,7.85
		c-0.033,0.033-0.183,0.4-0.45,1.1c-0.233,0.7-0.3,1.5-0.2,2.4c0.1,0.867,0.633,1.6,1.6,2.2c0.033-0.033,0.233-0.2,0.601-0.5
		C402.05,165.767,402.517,165.417,403.05,165.05z"/>
</g>
<g>
	<path fill-rule="evenodd" clip-rule="evenodd" fill="#c8c8c8" d="M428.1,87.55l14.301,3.3l1.199,1.2L443.2,93.3v4.5l4.899,7.35
		c0.367,0.833,0.417,1.65,0.15,2.45c-0.3,0.8-0.65,1.467-1.05,2c-0.434,0.533-0.667,0.816-0.7,0.85l-10.65,7.75l0.801,2.9l-3.25,2
		l-4.9,1.25c-0.767-0.633-1.634-1.2-2.6-1.7c-0.934-0.467-1.667-0.566-2.2-0.3c-0.566,0.333-1.233,0.45-2,0.35
		c-0.8-0.1-1.517-0.267-2.15-0.5l4.45-6.45l3.25-9.8l0.45-9.4L425.25,90L428.1,87.55z"/>
	
		<path fill-rule="evenodd" clip-rule="evenodd" fill="none" stroke="#fff" stroke-width="0.65" stroke-linecap="round" stroke-linejoin="round" stroke-miterlimit="3" d="
		M428.1,87.55L425.25,90l2.45,6.55l-0.45,9.4l-3.25,9.8l-4.45,6.45c0.634,0.233,1.351,0.4,2.15,0.5c0.767,0.1,1.434-0.017,2-0.35
		c0.533-0.267,1.267-0.167,2.2,0.3c0.966,0.5,1.833,1.067,2.6,1.7l4.9-1.25l3.25-2l-0.801-2.9l10.65-7.75
		c0.033-0.034,0.267-0.317,0.7-0.85c0.399-0.533,0.75-1.2,1.05-2c0.267-0.8,0.217-1.617-0.15-2.45L443.2,97.8v-4.5l0.399-1.25
		l-1.199-1.2L428.1,87.55z"/>
</g>
<g>
	<path fill-rule="evenodd" clip-rule="evenodd" fill="#c8c8c8" d="M186.5,261.25l1.2-1.2l-0.4,2.45l0.4,4.1l0.5-0.35l-1.1,8.6
		c0.066-0.033,0.3,0.033,0.7,0.2c0.4,0.167,0.767,0.617,1.1,1.35c0.333,0.733,0.434,1.95,0.3,3.65c-0.1,1.333,0.167,2.95,0.8,4.85
		c0.6,1.867,1.367,3.783,2.3,5.75c0.967,1.934,1.883,3.684,2.75,5.25c0.867,1.533,1.517,2.65,1.95,3.35
		c0.533,0.833,1.267,1.35,2.2,1.55c0.933,0.2,1.867,0.267,2.8,0.2c0.933-0.1,1.683-0.167,2.25-0.2c0.533,0.066,1.133,0.4,1.8,1
		c0.667,0.634,1.25,1.267,1.75,1.9c0.467,0.633,0.717,0.967,0.75,1l-3.65,3.35l-5.55,3.101l0.95,0.899l1.5,2.15l-1.2,1.25
		l-3.4,0.899l-2.75-2.149h-1.5l1.8,5.2l-2.15,8.3v2.149l0.35,1.801l-3.7,0.649l-4-1.55l-6.55-1.65l-1.6-0.8l-0.85-2.45l-1.6,1.25
		l-5.75-2.5l0.85-4.449l2,0.8l2.05-3.7l5.35,2.45h3.65l-1.65-1.601l-5.3-2.05h-4.1l-3.65,0.8l-2.05-4.1l4.5-4.9l-1.65-0.8l0.4-6.149
		l2.05-12.25l3.7-0.8l5.3,3.25l-0.8-6.1l-1.25-18.8v-6.15l3.7-4.1L186.5,261.25z"/>
	
		<path fill-rule="evenodd" clip-rule="evenodd" fill="none" stroke="#fff" stroke-width="0.65" stroke-linecap="round" stroke-linejoin="round" stroke-miterlimit="3" d="
		M186.5,261.25l-4.5-5.3l-3.7,4.1v6.15l1.25,18.8l0.8,6.1l-5.3-3.25l-3.7,0.8l-2.05,12.25l-0.4,6.149l1.65,0.8l-4.5,4.9l2.05,4.1
		l3.65-0.8h4.1l5.3,2.05l1.65,1.601h-3.65l-5.35-2.45l-2.05,3.7l-2-0.8l-0.85,4.449l5.75,2.5l1.6-1.25l0.85,2.45l1.6,0.8l6.55,1.65
		l4,1.55l3.7-0.649l-0.35-1.801V327.7l2.15-8.3l-1.8-5.2h1.5l2.75,2.149l3.4-0.899l1.2-1.25l-1.5-2.15l-0.95-0.899l5.55-3.101
		l3.65-3.35c-0.033-0.033-0.283-0.367-0.75-1c-0.5-0.634-1.083-1.267-1.75-1.9c-0.667-0.6-1.267-0.934-1.8-1
		c-0.567,0.033-1.317,0.101-2.25,0.2c-0.933,0.066-1.867,0-2.8-0.2c-0.934-0.2-1.667-0.717-2.2-1.55
		c-0.433-0.7-1.083-1.817-1.95-3.35c-0.867-1.566-1.783-3.316-2.75-5.25c-0.933-1.967-1.7-3.883-2.3-5.75
		c-0.633-1.9-0.9-3.517-0.8-4.85c0.133-1.7,0.033-2.917-0.3-3.65c-0.333-0.733-0.7-1.183-1.1-1.35c-0.4-0.167-0.633-0.233-0.7-0.2
		l1.1-8.6l-0.5,0.35l-0.4-4.1l0.4-2.45L186.5,261.25z"/>
</g>
<g>
	<path fill-rule="evenodd" clip-rule="evenodd" fill="#c8c8c8" d="M189.2,280.05c0.133-1.7,0.033-2.917-0.3-3.65
		c-0.333-0.733-0.7-1.183-1.1-1.35c-0.4-0.167-0.617-0.233-0.65-0.2l1.05-8.6l19.3-13.45l-0.15,0.3l17.15,9.9l-3.35,13.5l0.9,2.75
		l1.85,1.85l0.3,1.8l-2.15,3.7l-6.45,7.65l-3.65,6.15l0.9,2.75l-3.35,2.149l-0.95-0.6c0-0.066-0.25-0.4-0.75-1
		c-0.5-0.634-1.083-1.267-1.75-1.9c-0.667-0.633-1.267-0.967-1.8-1c-0.567,0.033-1.317,0.084-2.25,0.15
		c-0.933,0.1-1.867,0.05-2.8-0.15c-0.934-0.2-1.667-0.717-2.2-1.55c-0.433-0.7-1.083-1.817-1.95-3.35
		c-0.867-1.566-1.783-3.333-2.75-5.3c-0.933-1.934-1.7-3.85-2.3-5.75C189.367,282.983,189.1,281.383,189.2,280.05z"/>
	
		<path fill-rule="evenodd" clip-rule="evenodd" fill="none" stroke="#fff" stroke-width="0.65" stroke-linecap="round" stroke-linejoin="round" stroke-miterlimit="3" d="
		M189.2,280.05c-0.1,1.333,0.167,2.934,0.8,4.8c0.6,1.9,1.367,3.816,2.3,5.75c0.967,1.967,1.883,3.733,2.75,5.3
		c0.867,1.533,1.517,2.65,1.95,3.35c0.533,0.833,1.267,1.35,2.2,1.55c0.933,0.2,1.867,0.25,2.8,0.15
		c0.933-0.066,1.683-0.117,2.25-0.15c0.533,0.033,1.133,0.367,1.8,1c0.667,0.634,1.25,1.267,1.75,1.9c0.5,0.6,0.75,0.934,0.75,1
		l0.95,0.6l3.35-2.149l-0.9-2.75l3.65-6.15l6.45-7.65l2.15-3.7l-0.3-1.8l-1.85-1.85l-0.9-2.75l3.35-13.5l-17.15-9.9l0.15-0.3
		l-19.3,13.45l-1.05,8.6c0.033-0.033,0.25,0.033,0.65,0.2c0.4,0.167,0.767,0.617,1.1,1.35
		C189.233,277.133,189.333,278.35,189.2,280.05z"/>
</g>
<g>
	<polygon fill-rule="evenodd" clip-rule="evenodd" fill="#c8c8c8" points="225.15,368.15 227.3,368.15 238.6,370.15 237.7,370.3 	
		"/>
	
		<polygon fill-rule="evenodd" clip-rule="evenodd" fill="none" stroke="#fff" stroke-width="0.65" stroke-linecap="round" stroke-linejoin="round" stroke-miterlimit="3" points="
		225.15,368.15 237.7,370.3 238.6,370.15 227.3,368.15 	"/>
</g>
<g>
	
		<polyline fill-rule="evenodd" clip-rule="evenodd" fill="none" stroke="#fff" stroke-width="0.65" stroke-linecap="round" stroke-linejoin="round" stroke-miterlimit="3" points="
		148.15,397.85 147.2,396.55 147.1,396.45 146.8,396.05 146.85,396.1 147.1,396.45 	"/>
</g>
<g>
	<polygon fill-rule="evenodd" clip-rule="evenodd" fill="#c8c8c8" points="220.85,312.65 218.05,310.2 222.65,313.9 	"/>
	
		<polygon fill-rule="evenodd" clip-rule="evenodd" fill="none" stroke="#fff" stroke-width="0.65" stroke-linecap="round" stroke-linejoin="round" stroke-miterlimit="3" points="
		220.85,312.65 222.65,313.9 218.05,310.2 	"/>
</g>
<g>
	<polygon fill-rule="evenodd" clip-rule="evenodd" fill="#c8c8c8" points="227.3,308.05 226.05,304.05 227.7,308.9 	"/>
	
		<polygon fill-rule="evenodd" clip-rule="evenodd" fill="none" stroke="#fff" stroke-width="0.65" stroke-linecap="round" stroke-linejoin="round" stroke-miterlimit="3" points="
		227.3,308.05 227.7,308.9 226.05,304.05 	"/>
</g>
<g>
	<polygon fill-rule="evenodd" clip-rule="evenodd" fill="#c8c8c8" points="250.3,307.75 254.55,308.05 253.65,308.95 253.65,308.05 
			"/>
	
		<polygon fill-rule="evenodd" clip-rule="evenodd" fill="none" stroke="#fff" stroke-width="0.65" stroke-linecap="round" stroke-linejoin="round" stroke-miterlimit="3" points="
		250.3,307.75 253.65,308.05 253.65,308.95 254.55,308.05 	"/>
</g>
<g>
	
		<line fill-rule="evenodd" clip-rule="evenodd" fill="none" stroke="#fff" stroke-width="0.65" stroke-linecap="round" stroke-linejoin="round" stroke-miterlimit="3" x1="250.3" y1="307.75" x2="245.55" y2="303"/>
</g>
<g>
	<path fill-rule="evenodd" clip-rule="evenodd" fill="#c8c8c8" d="M240.8,278.3l-4.6,3.7c-0.034,0-0.15,0.117-0.35,0.35
		c-0.233,0.233-0.383,0.533-0.45,0.9l-0.15-0.65L240.8,278.3z"/>
	
		<path fill-rule="evenodd" clip-rule="evenodd" fill="none" stroke="#fff" stroke-width="0.65" stroke-linecap="round" stroke-linejoin="round" stroke-miterlimit="3" d="
		M240.8,278.3l-5.55,4.3l0.15,0.65c0.067-0.367,0.217-0.667,0.45-0.9c0.2-0.233,0.316-0.35,0.35-0.35L240.8,278.3z"/>
</g>
<g>
	<path fill-rule="evenodd" clip-rule="evenodd" fill="#c8c8c8" d="M239.65,290.8l-0.15-0.2l-0.1-0.2
		C239.477,290.538,239.56,290.671,239.65,290.8z"/>
	
		<path fill-rule="evenodd" clip-rule="evenodd" fill="none" stroke="#fff" stroke-width="0.65" stroke-linecap="round" stroke-linejoin="round" stroke-miterlimit="3" d="
		M240.85,292.65c-0.167-0.233-0.333-0.483-0.5-0.75l-0.7-1.1l-0.15-0.2l-0.1-0.2c0.077,0.138,0.16,0.271,0.25,0.4"/>
</g>
<g>
	
		<line fill-rule="evenodd" clip-rule="evenodd" fill="none" stroke="#fff" stroke-width="0.65" stroke-linecap="round" stroke-linejoin="round" stroke-miterlimit="3" x1="80.45" y1="415.05" x2="82.05" y2="418.85"/>
</g>
<g>
	<polygon fill-rule="evenodd" clip-rule="evenodd" fill="#c8c8c8" points="123.55,404.25 121.8,403.05 121.6,402.85 	"/>
	
		<polyline fill-rule="evenodd" clip-rule="evenodd" fill="none" stroke="#fff" stroke-width="0.65" stroke-linecap="round" stroke-linejoin="round" stroke-miterlimit="3" points="
		125.3,405.4 123.55,404.25 121.8,403.05 121.6,402.85 123.55,404.25 	"/>
</g>
<g>
	<polygon fill-rule="evenodd" clip-rule="evenodd" fill="#c8c8c8" points="239.55,370.3 238.6,370.15 243.85,369.4 	"/>
	
		<polygon fill-rule="evenodd" clip-rule="evenodd" fill="none" stroke="#fff" stroke-width="0.65" stroke-linecap="round" stroke-linejoin="round" stroke-miterlimit="3" points="
		239.55,370.3 243.85,369.4 238.6,370.15 	"/>
</g>
<g>
	<path fill-rule="evenodd" clip-rule="evenodd" fill="#c8c8c8" d="M253.45,309.9c-0.067-0.267-0.067-0.483,0-0.65
		c0.1-0.2,0.167-0.3,0.2-0.3l0.6,1.85C253.783,310.5,253.517,310.2,253.45,309.9z"/>
	
		<path fill-rule="evenodd" clip-rule="evenodd" fill="none" stroke="#fff" stroke-width="0.65" stroke-linecap="round" stroke-linejoin="round" stroke-miterlimit="3" d="
		M253.45,309.9c0.066,0.3,0.333,0.6,0.8,0.899l-0.6-1.85c-0.033,0-0.1,0.1-0.2,0.3C253.383,309.417,253.383,309.634,253.45,309.9z"
		/>
</g>
<g>
	<polygon fill-rule="evenodd" clip-rule="evenodd" fill="#c8c8c8" points="239.55,323.35 238.6,322.15 239.7,323.2 	"/>
	
		<polygon fill-rule="evenodd" clip-rule="evenodd" fill="none" stroke="#fff" stroke-width="0.65" stroke-linecap="round" stroke-linejoin="round" stroke-miterlimit="3" points="
		239.55,323.35 239.7,323.2 238.6,322.15 	"/>
</g>
<g>
	<polygon fill-rule="evenodd" clip-rule="evenodd" fill="#c8c8c8" points="223.3,317.85 223.3,315.7 223.45,318.8 	"/>
	
		<polygon fill-rule="evenodd" clip-rule="evenodd" fill="none" stroke="#fff" stroke-width="0.65" stroke-linecap="round" stroke-linejoin="round" stroke-miterlimit="3" points="
		223.3,317.85 223.45,318.8 223.3,315.7 	"/>
</g>
<g>
	<path fill-rule="evenodd" clip-rule="evenodd" fill="#c8c8c8" d="M241.55,293.75l0.75,1.15c-0.033-0.033-0.183-0.25-0.45-0.65
		C241.75,294.117,241.65,293.95,241.55,293.75z"/>
	
		<path fill-rule="evenodd" clip-rule="evenodd" fill="none" stroke="#fff" stroke-width="0.65" stroke-linecap="round" stroke-linejoin="round" stroke-miterlimit="3" d="
		M240.85,292.65c0.1,0.167,0.217,0.333,0.35,0.5l0.35,0.6l0.75,1.15c-0.033-0.033-0.183-0.25-0.45-0.65c-0.1-0.133-0.2-0.3-0.3-0.5"
		/>
</g>
<g>
	<polygon fill-rule="evenodd" clip-rule="evenodd" fill="#c8c8c8" points="247.3,297.075 247.8,297.3 253.3,298.85 248.4,297.6 	"/>
	
		<path fill-rule="evenodd" clip-rule="evenodd" fill="none" stroke="#fff" stroke-width="0.65" stroke-linecap="round" stroke-linejoin="round" stroke-miterlimit="3" d="
		M247.3,297.075l0.5,0.225l5.5,1.55l-4.9-1.25L247.3,297.075c-0.167-0.074-0.334-0.149-0.5-0.225l-4.5-2"/>
</g>
<g>
	<path fill-rule="evenodd" clip-rule="evenodd" fill="#c8c8c8" d="M235.55,284.15c-0.133-0.3-0.183-0.6-0.15-0.9l0.15,0.75
		l3.85,6.35c-0.867-1.367-1.683-2.65-2.45-3.85C236.217,285.3,235.75,284.517,235.55,284.15z"/>
	
		<path fill-rule="evenodd" clip-rule="evenodd" fill="none" stroke="#fff" stroke-width="0.65" stroke-linecap="round" stroke-linejoin="round" stroke-miterlimit="3" d="
		M235.55,284.15c0.2,0.367,0.667,1.15,1.4,2.35c0.767,1.2,1.583,2.483,2.45,3.85l-3.85-6.35l-0.15-0.75
		C235.367,283.55,235.417,283.85,235.55,284.15z"/>
</g>
<g>
	<polygon fill-rule="evenodd" clip-rule="evenodd" fill="#c8c8c8" points="245.35,302.85 245.5,303 242.9,302.55 	"/>
	
		<polygon fill-rule="evenodd" clip-rule="evenodd" fill="none" stroke="#fff" stroke-width="0.65" stroke-linecap="round" stroke-linejoin="round" stroke-miterlimit="3" points="
		245.35,302.85 242.9,302.55 245.5,303 	"/>
</g>
<g>
	<polygon fill-rule="evenodd" clip-rule="evenodd" fill="#c8c8c8" points="228.05,309.75 226.65,312.05 227.9,309.6 227.65,308.9 	
		"/>
	
		<polygon fill-rule="evenodd" clip-rule="evenodd" fill="none" stroke="#fff" stroke-width="0.65" stroke-linecap="round" stroke-linejoin="round" stroke-miterlimit="3" points="
		228.05,309.75 227.65,308.9 227.9,309.6 226.65,312.05 	"/>
</g>
<g>
	
		<line fill-rule="evenodd" clip-rule="evenodd" fill="none" stroke="#fff" stroke-width="0.65" stroke-linecap="round" stroke-linejoin="round" stroke-miterlimit="3" x1="82.05" y1="418.85" x2="83.8" y2="423"/>
</g>
<g>
	<polygon fill-rule="evenodd" clip-rule="evenodd" fill="#c8c8c8" points="81.9,418.45 82.05,418.85 81.75,418.2 	"/>
	
		<polygon fill-rule="evenodd" clip-rule="evenodd" fill="none" stroke="#fff" stroke-width="0.65" stroke-linecap="round" stroke-linejoin="round" stroke-miterlimit="3" points="
		81.9,418.45 81.75,418.2 82.05,418.85 	"/>
</g>
<g>
	
		<line fill-rule="evenodd" clip-rule="evenodd" fill="none" stroke="#fff" stroke-width="0.5" stroke-linecap="round" stroke-linejoin="round" stroke-miterlimit="3" x1="81.8" y1="418.2" x2="82.05" y2="418.85"/>
</g>
<g>
	<polygon fill-rule="evenodd" clip-rule="evenodd" fill="#c8c8c8" points="82,419 81.8,418.2 82.05,418.85 	"/>
	
		<polygon fill-rule="evenodd" clip-rule="evenodd" fill="none" stroke="#fff" stroke-width="0.65" stroke-linecap="round" stroke-linejoin="round" stroke-miterlimit="3" points="
		82,419 82.05,418.85 81.8,418.2 	"/>
</g>
<g>
	
		<polygon fill-rule="evenodd" clip-rule="evenodd" fill="none" stroke="#fff" stroke-width="0.5" stroke-linecap="round" stroke-linejoin="round" stroke-miterlimit="3" points="
		82,419.05 82.05,418.85 81.8,418.2 	"/>
</g>
<g>
	<polygon fill-rule="evenodd" clip-rule="evenodd" fill="#c8c8c8" points="125.3,405.45 125.5,405.55 125.65,405.7 	"/>
	
		<polygon fill-rule="evenodd" clip-rule="evenodd" fill="none" stroke="#fff" stroke-width="0.65" stroke-linecap="round" stroke-linejoin="round" stroke-miterlimit="3" points="
		125.3,405.45 125.65,405.7 125.5,405.55 	"/>
</g>
<g>
	
		<polygon fill-rule="evenodd" clip-rule="evenodd" fill="none" stroke="#fff" stroke-width="0.5" stroke-linecap="round" stroke-linejoin="round" stroke-miterlimit="3" points="
		125.3,405.4 125.65,405.7 125.5,405.55 	"/>
</g>
<g>
	<polygon fill-rule="evenodd" clip-rule="evenodd" fill="#c8c8c8" points="121.3,402.65 120.8,402.05 121.6,402.85 	"/>
	
		<polygon fill-rule="evenodd" clip-rule="evenodd" fill="none" stroke="#fff" stroke-width="0.65" stroke-linecap="round" stroke-linejoin="round" stroke-miterlimit="3" points="
		121.3,402.65 121.6,402.85 120.8,402.05 	"/>
</g>
<g>
	
		<polygon fill-rule="evenodd" clip-rule="evenodd" fill="none" stroke="#fff" stroke-width="0.5" stroke-linecap="round" stroke-linejoin="round" stroke-miterlimit="3" points="
		121.3,402.65 121.6,402.85 120.8,402.05 	"/>
</g>
<text transform="matrix(0.85 0 0 1 486.9004 171.0244)" fill="#900" font-family="'_sans'" font-size="8">P220</text>
<text transform="matrix(0.85 0 0 1 367.1504 202.5742)" fill="#900" font-family="'_sans'" font-size="8">P217</text>
<text transform="matrix(0.85 0 0 1 299.4502 272.1743)" fill="#900" font-family="'_sans'" font-size="8">P214</text>
<text transform="matrix(0.85 0 0 1 253 324.8242)" fill="#900" font-family="'_sans'" font-size="8">P210</text>
<text transform="matrix(0.85 0 0 1 214.8506 339.4238)" fill="#900" font-family="'_sans'" font-size="8">P209</text>
<text transform="matrix(0.85 0 0 1 216.9502 385.9238)" fill="#900" font-family="'_sans'" font-size="8">P203</text>
<text transform="matrix(0.85 0 0 1 191.6006 366.9746)" fill="#900" font-family="'_sans'" font-size="8">P204</text>
<text transform="matrix(0.85 0 0 1 162.75 399.2744)" fill="#900" font-family="'_sans'" font-size="8">P202</text>
<text transform="matrix(0.85 0 0 1 102.3506 415.4238)" fill="#900" font-family="'_sans'" font-size="8">P199</text>
<text transform="matrix(0.85 0 0 1 77.4502 392.4238)" fill="#900" font-family="'_sans'" font-size="8">P198</text>
<text transform="matrix(0.85 0 0 1 26.6504 359.4238)" fill="#900" font-family="'_sans'" font-size="8">P192</text>
<text transform="matrix(0.85 0 0 1 29.75 387.874)" fill="#900" font-family="'_sans'" font-size="8">P196</text>
<text transform="matrix(0.85 0 0 1 68.7002 340.2246)" fill="#900" font-family="'_sans'" font-size="8">P194</text>
<text transform="matrix(0.85 0 0 1 153.2002 371.7744)" fill="#900" font-family="'_sans'" font-size="8">P201</text>
<text transform="matrix(0.85 0 0 1 301.1006 327.7744)" fill="#900" font-family="'_sans'" font-size="8">P215</text>
<text transform="matrix(0.85 0 0 1 424.1504 291.6743)" fill="#900" font-family="'_sans'" font-size="8">P216</text>
<text transform="matrix(0.85 0 0 1 247.7998 249.7744)" fill="#900" font-family="'_sans'" font-size="8">P213</text>
<text transform="matrix(0.85 0 0 1 98.6006 346.124)" fill="#900" font-family="'_sans'" font-size="8">P195</text>
<text transform="matrix(0.85 0 0 1 54.5 360.874)" fill="#900" font-family="'_sans'" font-size="8">P193</text>
<text transform="matrix(0.85 0 0 1 94.25 378.7744)" fill="#900" font-family="'_sans'" font-size="8">P197</text>
<text transform="matrix(0.85 0 0 1 114.4004 390.5244)" fill="#900" font-family="'_sans'" font-size="8">P200</text>
<text transform="matrix(0.85 0 0 1 227.1504 311.624)" fill="#900" font-family="'_sans'" font-size="8">P211</text>
<text transform="matrix(0.85 0 0 1 199.6006 315.8242)" fill="#900" font-family="'_sans'" font-size="8">P208</text>
<text transform="matrix(0.85 0 0 1 168.3506 338.8242)" fill="#900" font-family="'_sans'" font-size="8">P205</text>
<text transform="matrix(0.85 0 0 1 170.75 293.4243)" fill="#900" font-family="'_sans'" font-size="8">P206</text>
<text transform="matrix(0.85 0 0 1 193.6006 269.0742)" fill="#900" font-family="'_sans'" font-size="8">P207</text>
<text transform="matrix(0.85 0 0 1 218.4502 286.0244)" fill="#900" font-family="'_sans'" font-size="8">P212</text>
<text transform="matrix(0.85 0 0 1 403.9502 138.5742)" fill="#900" font-family="'_sans'" font-size="8">P218</text>
<text transform="matrix(0.85 0 0 1 421.5996 98.0742)" fill="#900" font-family="'_sans'" font-size="8">P219</text>
<text transform="matrix(0.85 0 0 1 516.7998 111.7744)" fill="#900" font-family="'_sans'" font-size="8">P221</text>
<text transform="matrix(0.85 0 0 1 549.5 86.874)" fill="#900" font-family="'_sans'" font-size="8">P222</text>
</svg>
