<?xml version="1.0" encoding="utf-8"?>
<!-- Generator: Adobe Illustrator 15.0.2, SVG Export Plug-In . SVG Version: 6.00 Build 0)  -->
<!DOCTYPE svg PUBLIC "-//W3C//DTD SVG 1.1//EN" "http://www.w3.org/Graphics/SVG/1.1/DTD/svg11.dtd">
<svg version="1.1" id="Layer_1" xmlns="http://www.w3.org/2000/svg" xmlns:xlink="http://www.w3.org/1999/xlink" x="0px" y="0px"
	 width="800px" height="600px" viewBox="0 0 800 600" enable-background="new 0 0 800 600" xml:space="preserve">
<g>
	<g>
		<g>
			<path fill-rule="evenodd" clip-rule="evenodd" fill="#c8c8c8" d="M496.25,133.45l0.95,1.8l1.8,1.15l-0.6,2.35h-2.75l-0.4,2
				l-1.75,0.95l-0.2,3.35l-2,2.15l0.2,5.1l-0.55,3.35l0.55,3.75l2.4,3.35l0.35,3.35l1.4,4.1l-0.2,2.35l0.2,2.75l1.149,0.8l9.65,17.3
				l-0.601,0.95l-2.35,1.6l-2.15,3.7l-2.149,2.55L497,203l-6.65-1.95l-1.8-2.35l1-2l-1.95-2.15l-1.6,2.15l0.4,4.15l2.35,4.1
				l-0.75,1.6l0.4,2.35l0.949,2.55l3.95,1.4l0.2,1.95l-2.55,5.1l-1.4,1.95l-4.3-6.65l-5.15-4.55l0.2-2.95l-1.55-2.55l-0.4-2.55
				l-1.35-1.15l-2.75-0.8l-1-1.55l-1.55,1.15l-1.2-0.8l-2.15-0.15l-2,1.15l-4.3-0.2l-2.149,4.55l-5.101,3.1l-2.55,2.55l-2.75,1.8
				l1.35,1.15l-1.949,2.2l-3.75,2.75l-4.7-1.8l0.399-3.35l2.15-4.1l3.15-2.95l0.199-2.55l3.15-4.5l0.35-2.95l-1.149-4.35l3.7-9.4
				l2.399-1.2l2.55-5.7v-1.75l2.351-4.15l2.55-2.55l0.4-2.95l0.949-1.55l1-2.15l-0.399-1.6l5.1-2.75l1-3.55l12.2-11.75l0.2-2.75
				l3.7-2.95l1.199,0.6l4.9-1.4l3.55-2.75L496.25,133.45z M431.6,253.7v1.2l-1.399,0.35l-0.55-0.55l0.55-1H431.6z M419.4,229.9
				l-0.601-0.8l1-2.9l0.95,0.95v1.8l3.75,1.55l2.55-0.6l2.15,1.4l-0.4,1.95l1,2.35l-0.399,0.6l-2.75-0.4l-2.15,0.6l-3.15-5.7
				L419.4,229.9z M460.85,224.45l-0.6,1.15l-1.15-0.8l0.75-0.75L460.85,224.45z M467,311.5l5.7-2l9.8-5.3l3.75-1.15l6.1-0.8
				l1.351-2.75l2.55,0.2l0.4-1l1.75-0.8l0.8-1.15v-3.55l2.149-0.4l1,0.8l-1,1l0.4,2.95l-2.55,3.3l-6.851,5.351l-3.75,4.1l0.4,5.101
				l2.75,0.399l1.95,1.95v5.3h9.05v2l1.55-0.2l1.8,0.95l2.15-0.95l1-1.199l1.15-1.75l1.199,0.6l1.15-0.4v13.351l23.6,0.2l2.75,2.75
				v37.1h-26.35l-0.6-0.55H500.8l0.2,9.2l-0.6,15.55H490.35l-0.75,5.7h-4.149v3.899l5.7,2l1,5.851l-1.801,2.949l-4.699,2
				l0.199,6.851l-5.899,1.6l-5.9-0.8l-2.75,2.95l-0.75,3.149l-0.6,1.551l-1.2,5.699l-2.35-0.399l-1,4.5h-5.7v2.8l-1.75,0.15
				l-1.75,0.8l-3.351-2.55h-1.399v1.75l-0.75,0.199l0.2,1.601l-0.801,3.899l-4.5-6.25l-0.6-5.149l-8.45,6.5l-4.7-9.05l-0.199-2.351
				L433,437l-0.2-1.35l-1.55-1.2l-3.75-12.75l0.6-4.55l4.301-3.9l0.199-3.15l1.2-3.949l1.15,0.6l1.6-1.55l3.9-0.4l2.2-1.95
				l-0.601-3.75v-3.35l3.55,0.4l0.95-2.95l-0.399-1.75l0.6-1.4l-1.15-2.55l0.95-2.15l-1.35-2.149l-1-2.55l-2.15-1.4v-1.55l-1.6-1
				l-0.351-1.95l-1.399-2.55l1.95-5.7l0.6-4.95l-2.55-5.1l-3.55-3.7L439.3,350l8.45-0.4l1.75-1l0.6-5.899l-7.649-6.851l-2.75-0.199
				l-2.2-1.95l-2.35-0.8l-2.75-5.5l-0.75-6.101l4.3-4.1l2.75-1.8l1-1.351l1.35-0.6h1.4l2.149-1.75l3.9-1.4l3.35,0.601l0.4-1h5.9
				l3.75,1l1.949,1.149L467,311.5z M509.4,213.6l-1,1l-1.551,0.4l-0.8-0.2l1.55-1.4L509.4,213.6z M540.4,199.1l-0.801,2.15
				l1.601,1.35l-0.601,3.95l-0.6,1.2l-4.3-2l-2.75-0.2L530,204.8l-1.2-0.6l1.8-3.75l3.101-3.15l3.95,2.2L540.4,199.1z
				 M194.375,111.775l-0.125,0.475L190.4,118v0.05l0.35,3.5l-1.95,8l-3.5,1.6l2.55,12.45l6.4,0.35l1.35-0.5v0.025v0.025l-2.95,23.8
				l0.2,0.1l-0.025,0.025l-0.75,1.325l-1.975,3.35l-1.775,1.1l-1.775,1.1l-4.15,0.65V175l0.35,12.9l-0.05,0.05l-3.5,3.3l1,5.45
				l-2.45,7.05l-0.05-0.075l-4.55-6.325l-10.55-8.95l-0.525-2.525L161.3,181.7l3.5-8.65l-9.85-7.25l-1-0.75l0.45-2.65l1.45-7.9
				l-3-9.575l-0.2-0.675l-1.25-6.7h-0.05l-0.775,0.075l-2.375,0.225l-0.65-1.9l-3.4-0.775l-2.05-0.525l-8.6-4.8l-7.7-1.6l-2.25-0.95
				l-3.5-2.25l-2.9,1.6v0.05l0.15,0.6l-0.075-0.1l-0.875-1.275l-1.45-2.125l1.85-4.85l0.75-1.9l3.8-5.4v-0.05v-3.5l-3.2-0.95v-6.7
				l-1.9-0.65l-1.3-9.3l-0.3-14.4h-12.15l-22.5-17.4L82,54.35l7.35,1.3l8-0.95l0.6-4.5l5.45-0.3l1.95-7.7l6.4-2.55l2.55-3.5l6.7-2.9
				l4.15,6.1l6.1,7.65l6.7,13.15l-2.55,5.1l1.6,3.5l43.2-2.85l7.35,2.55L187.2,79h9.95l0.6,14.1h1.35l0.25,8.95l-3.2,2.55
				L194.375,111.775z M233.475,253.225l-3.725,14.825v0.025l2.55,3.825l3.5-4.5l6.4,3.55l4.5,6.7l4.8-2.55l2.55,7.05l19-7.35
				l4.05,7.65l-2.6,11.5l-3.2,5.45l1,4.8l6.4,9.899l4.8-0.949l0.95-1.25l7.65,0.949l8,4.15l4.8,5.75l-0.3,3.85l-5.45,4.801
				l3.85,9.25l-3.55,9.3L287,362.4l-0.3,3.699v0.15l1.6,1.95l0.15,0.6h-8.5l-1.6-3.2h-24.3l-2.55-8.6h-16.95l7.7-6.75l2.2-11.15
				l8,0.95l3.55-1.95l-2.9-8.949l6.7-6.051l-2.2-4.199l-6.4-18.2l2.2-13.1v-0.05l-1.025-1.175L251.2,285l-0.025,0.025L251.15,285
				l-1.325,0.775l-8.225,4.675l-5.45,0.95l-6.1-0.95l-2.2-2.25v0.05l-0.05-0.05l0.125,2.125l0.225,5.225l-1.2,3.8l-0.75,2.3
				l-0.85,0.399l-9.7,4.7l-8.8-2.55l-1.1-0.325l-0.3-10.525l-0.05-0.025V293.3l-5.1-3.5l0.475-1.125l1.475-3.325l-1.6-2.25l0.3-4.15
				l-0.55-1.375l-1.7-4.4v-0.025l2.55-9.25l-0.775-3.4L200,258.45l3.85-3.8l3.8,2.55l5.8-0.95l2.5,2.2H216l2.525-0.6l2.225,4.45
				l0.025-0.025l0.025,0.025l1.9-1.9l-1.9-6.1l10.2-6.7l1.95,1l2,1.1v-0.025L235,249.7l-1.4,3L233.475,253.225z M79.575,275.9
				l4.275-7.5l3.55-0.65l8.3-8l10.25-0.95v-0.05l-0.65-3.8l4.5-8.65l4.15-2.2l4.15-6.4l4.15-0.65l1.6-2.55h2.525l-0.625,2.5h0.075
				l-0.025,0.05l4.45-0.35l0.95,2.9l1.925-0.65l0.5,0.225l3.675,1.725l0.65-2.6l1.575-0.3l1.575,3.8l0.025,0.025l0.025,0.025
				l1.575,0.75l0.925,0.5h0.05h2.2l5.75,6.4l0.975,0.475l12.825,6.275l11.175-2.375L176,255.25l-9,10.55l-8.3,7.35l-4.5,9.3
				l-6.35,6.05l2.4,10.95l-0.025,0.05l-1.475,2.45l-0.6,0.95l-2.25-0.301h-4.8l2.25,11.801l-2.9,4.199l0.825,1.426l0.475,0.774
				l0.95,4.5l-0.7,0.825l-0.9,1.075v0.05v4.45l-1.25,2.25l-3.375,3.825l-1.125,1.274l-0.1,0.55l-0.85,4.9l2.25,1.25l3.8,3.85
				l-2.55,13.75l-10.85,6.7l0.025,0.05l1.75,4.301l0.425,1.1l-7,9.6v0.051l0.3,2.199l-1.35,1.125l-3.45,2.726l-8.95,16.95
				l-2.425,10.399l-0.125,0.5l-3.2,0.601l-3.85-0.95l-5.1,2.85l-2.9-2.85l-3.2,2.55l-3.5-0.95l-0.35-1.3l2.25-2.25l-1.6-3.8
				l-1.6-2.55l7.05-8.351l-0.3-5.1l-7.05-2.9l-1.6-1.899l16.95-13.101l7.65-4.2l0.65-2.55l4.15-3.5l-3.5-0.649l0.3-3.2l8.65-3.851
				l-0.3-2.199l-6.1-7.4l-2.55-1.9l-1.25-5.75l2.2-1.3l-0.65-6.05l2.6-3.85l-3.85-18.851l-2.9-1l2.25-8l-11.85,7.7L89.3,301
				l-2.9-5.15l-10.2-1.25l-1.3-2.9l5.45-5.45l4.15-7l-2.55-3.2L79.575,275.9z"/>
			<path fill-rule="evenodd" clip-rule="evenodd" fill="#c8c8c8" d="M294.8,122.35l-9.7,0.5h-0.05l-1.25,2.25l-8.6,5.025
				l-0.65,0.375l-2.325-2.875l-3.775-4.775l-5.05,3.225l-2,1.225l-2.425-0.075L252.75,127l-4.45,3.2l-7.275-8.65L240,120.3
				l-0.025,0.025l-0.025-0.025l-32.575,25.95l-0.325,0.25l-1.6-6.4l-9.85,3.375v-0.025l-1.35,0.5l-6.4-0.35l-2.55-12.45l3.5-1.6
				l1.95-8l-0.35-3.5l3.85-5.75l0.125-0.525l1.775-7.175l3.2-2.55l-0.25-8.95h7.6l4.8,2.25l3.2-2.25l1.6,1.9l5.15,1.95l3.8,3.8
				l4.2-5.4l-4.5,0.6v-3.5l2.9-2.55l4.15-0.35l0.65-7.65l24.3-23.05l3.5,2.25l18.25-1.3l7.35,9.6l-5.1,7.05l-4.2,3.55v10.2
				l-1.6,3.85l4.8,1.3l9.6,11.8l4.15,14.75l1.15,0.45H294.8z M177.7,203.675l0.05,0.075l2.45-7.05l-1-5.45l3.5-3.3v0.15l7.05,5.75
				l0.3,2.075l0.3,2.075l0.05,0.025l0.95,0.625l0.3,2.2l0.05,0.025l1.85,1.275v0.025l0.675,1.45l0.625,1.425l2.85,2.85l-3.8,10.55
				h0.025l2.525,0.95l3.85-2.55h4.45l11.2-6.4l4.15,1.6l3.85-0.6l3.85-2.6l7.35,0.65l0.025,0.05l0.45,0.95l5.625,12.1l0.5,10.15
				l0.1,2.35l-6.9,14.575v0.025l-2-1.1l-1.95-1.05l-10.25,6.75l1.9,6.05l-1.875,1.925l-0.025,0.025l-2.225-4.45l-0.025-0.05
				l-2.5,0.65h-0.05l-2.5-2.2l-0.05-0.05l-5.75,0.95l-3.85-2.55l-3.85,3.85l0.525,2.05l0.775,3.4l-2.55,9.25v0.025l1.7,4.4
				l0.5,1.325l-0.3,4.2l1.6,2.2l-1.425,3.375L200.3,289.8l5.1,3.5v0.025l0.3,10.524l0.05,0.025l1.1,0.325v0.024l-1.25,2.5
				l-0.5,0.976v0.05l0.3,2.375l0.3,2.375l1.6,3.2l-1.075,2.7l-0.825,2.1l-3.85-0.3l-0.375,3.6l-0.275,2.15l-1.35,1.2l-4.05,3.6
				L168,309l-3.225-1.2l-1.925-0.75l-2.15-0.075l-3.6-0.225l-3.85-2.55l-2.55-2.55l-0.475-2.15l0.025-0.05l-2.4-10.95l6.35-6.05
				l4.5-9.3l8.3-7.35l9-10.55l0.625-1.375l0.075-0.025l2.5-5.3l-0.95-9.9L176,231.6l4.8-15.05l-3.2-12.45l0.1-0.35l-0.025-0.05
				L177.7,203.675z M251.175,285.025L251.2,285l1.175,1.375l1.025,1.225l-2.2,13.1l6.4,18.2l2.2,4.199l-6.7,6.051l2.9,8.949
				l-3.55,1.95l-8-0.95l-2.2,11.15l-7.7,6.75h16.95l2.55,8.6h24.3l1.6,3.2h8.5l0.8,3.2l2.55,5.15l0.95,5.1l3.2,0.95v1.3l-1.25,1.6
				l1.6,3.2l0.3,37.75l-40.3-1.3v40.3l-4.5-3.85l-8.95,8.35l-4.45,1.25v-6.7l3.85-0.649v-4.8l-2.6-3.5l-3.8,0.3l-2.9-13.101
				l-3.2-0.649l-2.55-1.25l-0.35-2.601l-2.2-0.3l-0.65-3.5l-2.25-2.25l1.3-3.5l-4.15,0.95l-3.75-0.35h-0.1l-3.55,6.399l-2.2,8h-4.2
				v-5.1l-12.45,0.95l-2.25,5.449l-9.6,2.851l-4.8-0.601l-4.8,2.851l-5.75-4.8l-15.65,8l-5.15,0.649l-5.1-1.6l-7.7-0.3l-5.75,3.199
				l1.6-11.199l-39.65-1l1.6-4.45l4.8-5.101l1.3,2.851l5.1-0.65l4.45,2.9l1.6-14.4l-0.2-4.149l12.175-2.45l0.525-0.101l6.4-5.149
				l8.6,0.649v1.301h0.05l2.5,0.3H137l0.95-1.9l2.55,0.3l-0.65,3.851l5.1,1.6H145l2.55-3.2l10.2,2.25h0.05l-0.2-2.35l-0.15-1.8
				v-0.05l-0.3-0.801l-2.9-7.8l18.2-0.649l1.95,0.3h13.1h0.05l-0.65-6.351l8.3,6.7l3.1-0.575l0.35-0.05l0.1-0.024l1.325-1.551
				l3.425-3.899l-0.95-5.101l-2.525-3.899l-0.975-1.55l1.6-6.7l-5.1-6.75l-1.35-1.325L192,371.7l-1.6-5.101l4.8-7.05l2.2-1
				l1.325-0.575l7.975,5.726l8.65,1.3l0.95-3.55l-0.95-1.601l-0.95-1.6l-0.2-2.35l-0.45-5.95l-1.2-3.4l-0.7-2.05l-1.325-1.2
				l-3.825-3.6l-0.95-1.9l-0.95-1.899v-8l20.15-24l0.55-1.9l0.75-0.35l0.7-2.3l1.2-3.8l-0.225-5.225l-0.075-2.075v-0.05l2.2,2.25
				l6.1,0.95l5.45-0.95l8.225-4.675L251.175,285.025z"/>
			<polygon fill-rule="evenodd" clip-rule="evenodd" fill="#c8c8c8" points="207.375,146.25 239.95,120.3 239.975,120.325 
				241.025,121.55 248.3,130.2 252.75,127 258.975,127.225 261.4,127.35 263.4,126.075 268.45,122.85 272.225,127.625 274.5,130.55 
				275.2,130.125 283.8,125.1 285.05,122.85 285.1,122.85 294.8,122.35 299.15,124.15 301.4,127.65 309.7,132.75 315.75,153.9 
				314.15,158.05 311.6,159.95 312.25,162.85 308.1,168.9 303,172.45 302,175.95 297.85,178.2 285.4,177.25 277.7,173.4 
				261.7,172.45 262.35,178.85 259.8,181.7 260.7,185.55 259.625,188.1 258.5,190.625 239,178.275 238.35,177.85 236.3,180.35 
				223.65,195.45 210.25,183.65 193.3,179.8 195.85,169.25 192.85,167.45 192.825,167.425 192.85,167.4 192.65,167.3 195.6,143.5 
				205.4,140.15 207,146.55 			"/>
			<path fill-rule="evenodd" clip-rule="evenodd" fill="#c8c8c8" d="M79.95,58.7l22.5,17.4h12.15l0.3,14.4l1.3,9.3l1.9,0.65v6.7
				l3.2,0.95v3.5l-3.85,5.45l-0.7,1.9l-1.85,4.85l1.45,2.125l0.9,1.375l0.85,4.675l0.95,5.225l-2.075,1.3l-6.225,3.85l-3.65-14
				l-0.2-0.75H97l-4.8-1.9v0.05v10.2l-5.1,9.9h-0.025H84.5l-0.125,0.525L83.55,149.7l-2.7-1.425l-2.7-1.475l-1.95,0.95l-5.45-1.9
				l0.35-16.6v-0.05l-19.5-18.85l-2.65-1.3l-2.6-1.3l3.3-4.75l5.15-4.15l0.95-5.45L58,92.1l2.55,0.65l6.7-8.95l-0.95-6.4l-5.45-5.75
				V67.5l9.3-7.4l9.6-0.95L79.95,58.7z M258.5,190.625l0.05,0.025l1.075-2.55l1.075-2.55l0.05,0.3l3.85,1.6l1.3,4.2l-1.6,5.4
				l1.9,5.45l9.6,1.6l2.9,1.95l7.65-0.35l11.5,4.15l-2.2,2.55l2.85,2.25l-2.25,8.35l-5.4,1.6l-0.35,7.65l-8-2.85l-4.15,0.3
				l-0.95,6.7l-1.6,4.8v5.45l-8,8.3l-1.25,7.35l6.5,12.5l-19,7.35l-2.55-7.05l-4.8,2.55l-4.5-6.7l-6.4-3.55l-3.5,4.5l-2.55-3.825
				v-0.025l3.725-14.825l0.125-0.475l8.3-17.6l-0.15-2.4l-0.5-10.15l-5.625-12.1l-0.425-0.95h-0.025l-0.025-0.05l-7.35-0.65
				l-3.85,2.6l-3.85,0.6l-4.15-1.6l-11.2,6.4h-4.45l-3.85,2.55l-2.525-0.95l3.825-10.5l-0.05-0.05l-2.85-2.85l-0.625-1.425
				L193.6,202.2l-0.05-0.025v-0.025l-1.85-1.275l-0.35-2.225l-0.95-0.625l-0.35-2.1l-0.3-2.075l-7.05-5.75v-0.15l0.05-0.05
				L182.4,175l4.15-0.65l1.775-1.15l1.775-1.1l1.975-3.35l0.775-1.3l3,1.8l-2.55,10.55l16.95,3.85l13.4,11.8l12.65-15.1l2.1-2.45
				l0.6,0.375L258.5,190.625z"/>
			<path fill-rule="evenodd" clip-rule="evenodd" fill="#c8c8c8" d="M117.225,127.2l0.075,0.1l-0.15-0.6l2.85-1.6l3.55,2.25
				l2.25,0.95l7.65,1.6l8.65,4.8l2.05,0.475l3.4,0.775l0.6,1.95l2.425-0.275l0.775-0.075l1.3,6.75l0.2,0.625l3,9.575l-1.45,7.9
				l-0.5,2.65l1.05,0.75l9.85,7.25l-3.5,8.65l0.775,4.175l0.475,2.525l10.55,9l4.575,6.3l0.025,0.05l-0.1,0.35l3.2,12.45L176,231.6
				l2.25,7.05l0.95,9.9l-2.5,5.3l-0.075,0.025l-11.175,2.375l-12.825-6.275L151.7,249.5l-5.75-6.4h-0.05h-2.2l-0.975-0.5
				l-1.575-0.75l-0.025-0.025L139.55,238h-0.025l-1.575,0.3l-0.65,2.6l-3.675-1.725l-0.475-0.225h-0.025l-1.925,0.65l-0.95-2.9
				l-4.45,0.35l0.025-0.05l0.575-2.5h-0.025h-2.525l-1.6,2.55l-4.15,0.65l-4.15,6.4l-4.15,2.2l-4.5,8.65l0.65,3.8v0.05l-10.25,0.95
				l-8.3,8l-3.55,0.65l-4.275,7.5l-0.025,0.05l-4.65-0.2l-3.5-4.15l-7.7-1.3l-4.45-3.2l-4.8,2.25L45.5,270l-0.35-12.8l-2.55-2.55
				l-3.85-6.4L33,246l-6.7-5.1l-5.1-9.3l-6.1-6.05l0.3-13.15l3.2-8.3l-0.95-6.7l2.55-8.35l4.2-10.2l2.2-7.7L24.4,167l1.25-20.15
				l-2.55-7.7l0.95-7.65l5.45,0.3l7.35-4.8l7.05-15.65l2.45-3.6l2.6,1.3l2.6,1.35l19.55,18.85l-0.35,16.6v0.05l5.45,1.9l1.9-0.95
				l2.75,1.425l2.7,1.425l0.825-3.325L84.5,145.9h2.55l0.025-0.05H87.1l5.1-9.9v-10.2l4.8,1.9h9.9l0.2,0.7l3.65,14l6.225-3.85
				l2.075-1.25v-0.05l-0.95-5.225l-0.85-4.675L117.225,127.2z M106.375,418.55l2.425-10.399l8.95-16.95l3.45-2.726l1.35-1.074
				v-0.051l-0.3-2.199l7.05-9.601l-0.475-1.149l-1.75-4.301L137.9,363.4l2.6-13.75l-0.05-0.051l-3.8-3.85l-2.25-1.25l0.85-4.9
				l0.1-0.5l1.125-1.324l3.375-3.825l1.25-2.25v-4.45l0.9-1.125l0.7-0.825l-0.95-4.5l-0.475-0.774L140.5,318.6l2.85-4.149v-0.05
				L141.1,302.6h4.8l2.25,0.351l0.6-1l1.475-2.45l0.475,2.15l2.55,2.55l3.85,2.55l3.6,0.225l2.15,0.125l1.925,0.7L168,309
				l27.5,21.75l4.05-3.6l1.4-1.2l0.225-2.15l0.375-3.6l3.85,0.3l0.825-2.1l1.125-2.65l-1.6-3.2l-0.35-2.425l-0.3-2.375l0.5-1.025
				l1.25-2.5V304.2l8.8,2.55l9.7-4.7l0.15-0.05l-0.6,1.9l-20.15,24v8l1,1.899l0.95,1.9l3.825,3.6l1.275,1.2l0.75,2.05l1.2,3.4
				l0.45,5.95l0.15,2.35l1,1.6l0.95,1.601l-0.95,3.55l-8.65-1.3l-7.975-5.726l-0.025-0.024l-1.3,0.6l-2.2,1l-4.8,7.05l1.6,5.101
				l2.2,2.175l1.3,1.325l5.1,6.75l-1.6,6.7l1.025,1.55l2.525,3.899l0.95,5.101l-3.425,3.899l-1.375,1.551h-0.05l-0.35,0.074
				l-3.1,0.575l-8.3-6.7l-0.05-0.05l0.65,6.4h-13.1l-1.95-0.3l-18.2,0.649l2.9,7.8l0.3,0.851l0.15,1.8l0.15,2.35l-10.2-2.25h-0.05
				l-2.55,3.2l-5.1-1.6l0.65-3.851l-2.55-0.3h-0.05l-0.95,1.9l-2.5-0.3h-0.05V413.6l-8.6-0.649h-0.05l-6.4,5.149l-0.475,0.101
				l-12.175,2.45h-0.05l-0.1-1.601l-0.3,0.05L106.375,418.55z"/>
			
				<path fill-rule="evenodd" clip-rule="evenodd" fill="none" stroke="#fff" stroke-linecap="round" stroke-linejoin="round" stroke-miterlimit="3" d="
				M496.25,133.45l-0.2-1.95l-3.55,2.75l-4.9,1.4l-1.199-0.6l-3.7,2.95l-0.2,2.75l-12.2,11.75l-1,3.55l-5.1,2.75l0.399,1.6l-1,2.15
				l-0.949,1.55l-0.4,2.95l-2.55,2.55l-2.351,4.15v1.75l-2.55,5.7l-2.399,1.2l-3.7,9.4l1.149,4.35l-0.35,2.95l-3.15,4.5l-0.199,2.55
				L443,209.1l-2.15,4.1l-0.399,3.35l4.7,1.8l3.75-2.75l1.949-2.2l-1.35-1.15l2.75-1.8l2.55-2.55l5.101-3.1l2.149-4.55l4.3,0.2
				l2-1.15l2.15,0.15l1.2,0.8l1.55-1.15l1,1.55l2.75,0.8l1.35,1.15l0.4,2.55l1.55,2.55l-0.2,2.95l5.15,4.55l4.3,6.65l1.4-1.95
				l2.55-5.1l-0.2-1.95l-3.95-1.4l-0.949-2.55l-0.4-2.35l0.75-1.6l-2.35-4.1l-0.4-4.15l1.6-2.15l1.95,2.15l-1,2l1.8,2.35L497,203
				l2.2-0.8l2.149-2.55l2.15-3.7l2.35-1.6l0.601-0.95l-9.65-17.3l-1.149-0.8l-0.2-2.75l0.2-2.35l-1.4-4.1l-0.35-3.35l-2.4-3.35
				l-0.55-3.75l0.55-3.35l-0.2-5.1l2-2.15l0.2-3.35l1.75-0.95l0.4-2h2.75l0.6-2.35l-1.8-1.15L496.25,133.45z M460.85,224.45l-1-0.4
				l-0.75,0.75l1.15,0.8L460.85,224.45z M419.4,229.9l1.949,0.8l3.15,5.7l2.15-0.6l2.75,0.4l0.399-0.6l-1-2.35l0.4-1.95l-2.15-1.4
				l-2.55,0.6l-3.75-1.55v-1.8l-0.95-0.95l-1,2.9L419.4,229.9z M431.6,253.7H430.2l-0.55,1l0.55,0.55l1.399-0.35V253.7z
				 M540.4,199.1l-2.75,0.4l-3.95-2.2l-3.101,3.15l-1.8,3.75l1.2,0.6l2.95,0.75l2.75,0.2l4.3,2l0.6-1.2l0.601-3.95l-1.601-1.35
				L540.4,199.1z M509.4,213.6l-1.801-0.2l-1.55,1.4l0.8,0.2l1.551-0.4L509.4,213.6z"/>
			
				<path fill-rule="evenodd" clip-rule="evenodd" fill="none" stroke="#fff" stroke-width="0.5" stroke-linecap="round" stroke-linejoin="round" stroke-miterlimit="3" d="
				M503.9,100.25l-20.45-0.5l-15.7,5.75l-35.1,34.6l-44,72.55l-3.15,14.65l0.8,20.7l11.75,21.5l11.05,10.7l25.101,5.5l15.2-4.45
				l50.3-33l47.399-9.15l-0.5-92.7L519.85,111L503.9,100.25z M467,311.5l-3.15,0.55L461.9,310.9l-3.75-1h-5.9l-0.4,1l-3.35-0.601
				l-3.9,1.4l-2.149,1.75h-1.4l-1.35,0.6l-1,1.351l-2.75,1.8l-4.3,4.1l0.75,6.101l2.75,5.5l2.35,0.8l2.2,1.95l2.75,0.199
				l7.649,6.851l-0.6,5.899l-1.75,1l-8.45,0.4l-4.149,2.75l3.55,3.7l2.55,5.1l-0.6,4.95l-1.95,5.7l1.399,2.55l0.351,1.95l1.6,1v1.55
				l2.15,1.4l1,2.55l1.35,2.149l-0.95,2.15l1.15,2.55l-0.6,1.4l0.399,1.75l-0.95,2.95l-3.55-0.4v3.35l0.601,3.75l-2.2,1.95l-3.9,0.4
				l-1.6,1.55l-1.15-0.6l-1.2,3.949l-0.199,3.15l-4.301,3.9l-0.6,4.55l3.75,12.75l1.55,1.2L433,437l-1.35,2.55l0.199,2.351l4.7,9.05
				l8.45-6.5l0.6,5.149l4.5,6.25l0.801-3.899l-0.2-1.601l0.75-0.199v-1.75h1.399l3.351,2.55l1.75-0.8l1.75-0.15v-2.8h5.7l1-4.5
				l2.35,0.399l1.2-5.699l0.6-1.551l0.75-3.149l2.75-2.95l5.9,0.8l5.899-1.6l-0.199-6.851l4.699-2l1.801-2.949l-1-5.851l-5.7-2
				V405.4h4.149l0.75-5.7H500.4l0.6-15.55l-0.2-9.2h11.351l0.6,0.55h26.35v-37.1l-2.75-2.75l-23.6-0.2V322.1l-1.15,0.4l-1.199-0.6
				l-1.15,1.75l-1,1.199l-2.15,0.95l-1.8-0.95l-1.55,0.2v-2h-9.05v-5.3l-1.95-1.95L489,315.4l-0.4-5.101l3.75-4.1l6.851-5.351
				l2.55-3.3l-0.4-2.95l1-1l-1-0.8l-2.149,0.4v3.55l-0.8,1.15l-1.75,0.8l-0.4,1l-2.55-0.2l-1.351,2.75l-6.1,0.8l-3.75,1.15l-9.8,5.3
				L467,311.5z M294.8,122.35h0.05l-1.15-0.45l-4.15-14.75l-9.6-11.8l-4.8-1.3l1.6-3.85V80l4.2-3.55l5.1-7.05l-7.35-9.6l-18.25,1.3
				l-3.5-2.25l-24.3,23.05L232,89.55l-4.15,0.35l-2.9,2.55v3.5l4.5-0.6l-4.2,5.4l-3.8-3.8L216.3,95l-1.6-1.9l-3.2,2.25l-4.8-2.25
				h-7.6l0.25,8.95l-3.2,2.55l-1.775,7.175l-0.125,0.525l-3.85,5.75l0.35,3.5l-1.95,8l-3.5,1.6l2.55,12.45l6.4,0.35l1.35-0.5v0.025
				l9.85-3.375l1.6,6.4l0.325-0.25l32.575-25.95l0.025,0.025L240,120.3l1.025,1.25l7.275,8.65l4.45-3.2l6.225,0.225l2.425,0.075
				l2-1.225l5.05-3.225l3.775,4.775l2.325,2.875l0.65-0.375l8.6-5.025l1.25-2.25h0.05L294.8,122.35z M199.1,93.1h-1.35l-0.6-14.1
				h-9.95l0.35-10.55l-7.35-2.55L137,68.75l-1.6-3.5l2.55-5.1L131.25,47l-6.1-7.65l-4.15-6.1l-6.7,2.9l-2.55,3.5l-6.4,2.55
				l-1.95,7.7l-5.45,0.3l-0.6,4.5l-8,0.95L82,54.35l-2.05,4.35l22.5,17.4h12.15l0.3,14.4l1.3,9.3l1.9,0.65v6.7l3.2,0.95v3.5v0.05
				l-3.8,5.4l-0.75,1.9l-1.85,4.85l1.45,2.125l0.875,1.275l0.075,0.1l-0.15-0.6v-0.05l2.9-1.6l3.5,2.25l2.25,0.95l7.7,1.6l8.6,4.8
				l2.05,0.525l3.4,0.775l0.65,1.9l2.375-0.225l0.775-0.075h0.05l1.25,6.7l0.2,0.675l3,9.575l-1.45,7.9l-0.45,2.65l1,0.75l9.85,7.25
				l-3.5,8.65l0.775,4.175l0.525,2.525l10.55,8.95l4.55,6.325l0.05,0.075l2.45-7.05l-1-5.45l3.5-3.3l0.05-0.05L182.4,175v-0.05
				l4.15-0.65l1.775-1.1l1.775-1.1l1.975-3.35l0.75-1.325l0.025-0.025l-0.2-0.1l2.95-23.8v-0.025 M241.025,121.55l-1.05-1.225
				 M207.375,146.25l-0.375,0.3l-1.6-6.4l-9.8,3.35 M190.4,118.05V118l3.85-5.75l0.125-0.475 M192.85,167.45l3,1.8l-2.55,10.55
				l16.95,3.85l13.4,11.8l12.65-15.1l2.05-2.5l0.65,0.425l19.5,12.35l1.125-2.525l1.075-2.55l-0.9-3.85l2.55-2.85l-0.65-6.4l16,0.95
				l7.7,3.85l12.45,0.95l4.15-2.25l1-3.5l5.1-3.55l4.15-6.05l-0.65-2.9l2.55-1.9l1.6-4.15l-6.05-21.15l-8.3-5.1l-2.25-3.5l-4.35-1.8
				 M192.825,167.425l0.025,0.025l-0.775,1.3 M177.675,203.7l-4.575-6.3l-10.55-9l-0.475-2.525 M188.325,173.2l-1.775,1.15
				L182.4,175 M182.7,187.95v0.15l7.05,5.75l0.3,2.075l0.35,2.1l0.95,0.625l0.35,2.225l1.85,1.275v0.025l0.05,0.025l0.625,1.425
				l0.625,1.425l2.85,2.85l0.05,0.05l-3.825,10.5l2.525,0.95l3.85-2.55h4.45l11.2-6.4l4.15,1.6l3.85-0.6l3.85-2.6l7.35,0.65
				l0.025,0.05h0.025l0.425,0.95l5.625,12.1l0.5,10.15l0.15,2.4l-8.3,17.6l-0.125,0.475l-3.725,14.825 M229.75,268.075l2.55,3.825
				l3.5-4.5l6.4,3.55l4.5,6.7l4.8-2.55l2.55,7.05l19-7.35l-6.5-12.5l1.25-7.35l8-8.3v-5.45l1.6-4.8l0.95-6.7l4.15-0.3l8,2.85
				l0.35-7.65l5.4-1.6l2.25-8.35l-2.85-2.25l2.2-2.55l-11.5-4.15l-7.65,0.35l-2.9-1.95l-9.6-1.6l-1.9-5.45l1.6-5.4l-1.3-4.2
				l-3.85-1.6l-0.05-0.3 M239,178.275l-0.6-0.375l-2.1,2.45 M263.4,126.075l-2,1.275l-2.425-0.125 M275.2,130.125l-0.7,0.425
				l-2.275-2.925 M259.625,188.1l-1.075,2.55l-0.05-0.025 M79.95,58.7l-0.2,0.45l-9.6,0.95l-9.3,7.4v4.15l5.45,5.75l0.95,6.4
				l-6.7,8.95L58,92.1l-2.25,1.3l-0.95,5.45L49.65,103l-3.3,4.75l2.6,1.3l2.65,1.3l19.5,18.85v0.05l-0.35,16.6l5.45,1.9l1.95-0.95
				l2.7,1.475l2.7,1.425l0.825-3.325l0.125-0.525h2.575H87.1l5.1-9.9v-10.2v-0.05l4.8,1.9h9.9l0.2,0.75l3.65,14l6.225-3.85
				l2.075-1.3v0.05l-2.075,1.25 M118.1,131.975l-0.85-4.675l-0.9-1.375 M71.1,129.25L51.55,110.4l-2.6-1.35 M46.35,107.75l-2.45,3.6
				L36.85,127l-7.35,4.8l-5.45-0.3l-0.95,7.65l2.55,7.7L24.4,167l2.2,4.15l-2.2,7.7l-4.2,10.2l-2.55,8.35l0.95,6.7l-3.2,8.3
				l-0.3,13.15l6.1,6.05l5.1,9.3L33,246l5.75,2.25l3.85,6.4l2.55,2.55L45.5,270l8.95-0.65l4.8-2.25l4.45,3.2l7.7,1.3l3.5,4.15
				l4.65,0.2l0.025-0.05l4.275-7.5l3.55-0.65l8.3-8l10.25-0.95v-0.05l-0.65-3.8l4.5-8.65l4.15-2.2l4.15-6.4l4.15-0.65l1.6-2.55
				h2.525h0.025l-0.575,2.5l-0.025,0.05l4.45-0.35l0.95,2.9l1.925-0.65h0.025l0.475,0.225l3.675,1.725l0.65-2.6l1.575-0.3h0.025
				l1.575,3.825l0.025,0.025l1.575,0.75l0.975,0.5h2.2h0.05l5.75,6.4l0.925,0.475l12.825,6.275l11.175-2.375l0.075-0.025l2.5-5.3
				l-0.95-9.9L176,231.6l4.8-15.05l-3.2-12.45l0.1-0.35l-0.025-0.05 M80.85,148.275l-2.75-1.425l-1.9,0.95l-5.45-1.9v-0.05
				 M144.15,135.175l-2.05-0.475l-8.65-4.8l-7.65-1.6l-2.25-0.95L120,125.1l-2.85,1.6 M150.575,137.625l-2.425,0.275l-0.6-1.95
				 M152.85,144.925l-0.2-0.625l-1.3-6.75 M116.75,118.95l0.7-1.9l3.85-5.45 M107.1,128.35l-0.2-0.7H97l-4.8-1.9 M87.075,145.85
				l-0.025,0.05H84.5l-0.125,0.475 M117.225,127.2l0.025,0.1 M154.95,165.8l-1.05-0.75l0.5-2.65 M125.825,237h-0.075l0.625-2.5
				 M133.625,239.175l-0.5-0.225 M141.125,241.825L141.1,241.8l-1.575-3.8 M143.7,243.1h-0.05l-0.925-0.5 M79.575,275.9l2.375,0.15
				l2.55,3.2l-4.15,7l-5.45,5.45l1.3,2.9l10.2,1.25l2.9,5.15l4.45,11.5l11.85-7.7l-2.25,8l2.9,1l3.85,18.851l-2.6,3.85l0.65,6.05
				l-2.2,1.3l1.25,5.75l2.55,1.9l6.1,7.4l0.3,2.199l-8.65,3.851l-0.3,3.2l3.5,0.649l-4.15,3.5l-0.65,2.55l-7.65,4.2L81.3,392.15
				l1.6,1.899l7.05,2.9l0.3,5.1L83.2,410.4l1.6,2.55l1.6,3.8L84.15,419l0.35,1.3l3.5,0.95l3.2-2.55l2.9,2.85l5.1-2.85l3.85,0.95
				l3.2-0.601l0.125-0.5l2.425-10.399l8.95-16.95l3.45-2.726l1.35-1.125v0.051l-1.35,1.074 M122.25,385.15V385.1l7-9.6l-0.425-1.1
				l-1.75-4.301l-0.025-0.05l10.85-6.7l2.55-13.75l-3.8-3.85l-2.25-1.25l0.85-4.9l0.1-0.55l1.125-1.274l3.375-3.825l1.25-2.25v-4.45
				v-0.05l0.9-1.075l0.7-0.825l-0.95-4.5l-0.475-0.774l-0.825-1.426l2.9-4.199v0.05l-2.85,4.149l0.775,1.426 M141.1,302.6h4.8
				l2.25,0.301l0.6-0.95l1.475-2.45l0.025-0.05l-2.4-10.95l6.35-6.05l4.5-9.3l8.3-7.35l9-10.55l0.625-1.375 M152.625,249.975
				l-0.975-0.475l-5.75-6.4 M150.225,299.5l0.475,2.15l2.55,2.55l3.85,2.55l3.6,0.225l2.15,0.075l1.925,0.75L168,309l27.5,21.75
				l4.05-3.6l1.35-1.2l0.275-2.15l0.375-3.6l3.85,0.3l0.825-2.1l1.075-2.7l-1.6-3.2l-0.3-2.375l-0.3-2.375v-0.05l0.5-0.976l1.25-2.5
				V304.2l-1.1-0.325l-0.05-0.025l-0.3-10.524V293.3l-5.1-3.5l0.475-1.125l1.425-3.375l-1.6-2.2l0.3-4.2l-0.5-1.325l-1.7-4.4v-0.025
				l2.55-9.25l-0.775-3.4l-0.525-2.05l3.85-3.85l3.85,2.55l5.75-0.95l0.05,0.05l2.5,2.2H216l2.5-0.65l0.025,0.05l2.225,4.45
				l0.025-0.025l1.875-1.925l-1.9-6.05l10.25-6.75l1.95,1.05l2,1.1v-0.025l6.9-14.575l-0.1-2.35 M148.75,301.95l-0.6,1l-2.25-0.351
				 M136.475,337.775l-1.125,1.324l-0.1,0.5 M142,326.125l-0.9,1.125 M140.45,349.6l0.05,0.051l-2.6,13.75l-10.825,6.699
				 M128.825,374.4l0.475,1.149l-7.05,9.601 M251.175,285.025l-1.35,0.75l-8.225,4.675l-5.45,0.95l-6.1-0.95l-2.2-2.25v0.05
				l0.075,2.075l0.225,5.225l-1.2,3.8l-0.7,2.3L225.5,302l-0.55,1.9l-20.15,24v8l0.95,1.899l0.95,1.9l3.825,3.6l1.325,1.2l0.7,2.05
				l1.2,3.4l0.45,5.95l0.2,2.35l0.95,1.6l0.95,1.601l-0.95,3.55l-8.65-1.3l-7.975-5.726l-1.325,0.575l-2.2,1l-4.8,7.05l1.6,5.101
				l2.2,2.175l1.35,1.325l5.1,6.75l-1.6,6.7l0.975,1.55l2.525,3.899l0.95,5.101l-3.425,3.899l-1.325,1.551l-0.1,0.024l-0.35,0.05
				l-3.1,0.575l-8.3-6.7l0.65,6.351h-0.05h-13.1l-1.95-0.3l-18.2,0.649l2.9,7.8l0.3,0.801v0.05l0.15,1.8l0.2,2.35h-0.05l-10.2-2.25
				l-2.55,3.2h-0.05l-5.1-1.6l0.65-3.851l-2.55-0.3l-0.95,1.9h-0.05l-2.5-0.3h-0.05V413.6l-8.6-0.649l-6.4,5.149l-0.525,0.101
				l-12.175,2.45l0.2,4.149l-1.6,14.4l-4.45-2.9l-5.1,0.65l-1.3-2.851l-4.8,5.101l-1.6,4.45l39.65,1l-1.6,11.199l5.75-3.199l7.7,0.3
				l5.1,1.6l5.15-0.649l15.65-8l5.75,4.8l4.8-2.851l4.8,0.601l9.6-2.851l2.25-5.449l12.45-0.95v5.1h4.2l2.2-8l3.55-6.399h0.1
				l3.75,0.35l4.15-0.95l-1.3,3.5l2.25,2.25l0.65,3.5l2.2,0.3l0.35,2.601l2.55,1.25l3.2,0.649l2.9,13.101l3.8-0.3l2.6,3.5v4.8
				l-3.85,0.649v6.7l4.45-1.25l8.95-8.35l4.5,3.85v-40.3l40.3,1.3l-0.3-37.75l-1.6-3.2l1.25-1.6v-1.3l-3.2-0.95l-0.95-5.1
				l-2.55-5.15l-0.8-3.2h-8.5l-1.6-3.2h-24.3l-2.55-8.6h-16.95l7.7-6.75l2.2-11.15l8,0.95l3.55-1.95l-2.9-8.949l6.7-6.051
				l-2.2-4.199l-6.4-18.2l2.2-13.1l-1.025-1.225L251.2,285L251.175,285.025z M249.825,285.775L251.15,285l0.025,0.025
				 M252.375,286.375l1.025,1.175v0.05 M288.45,368.8l-0.15-0.6l-1.6-1.95v-0.15l0.3-3.699l12.45-12.45l3.55-9.3l-3.85-9.25
				l5.45-4.801l0.3-3.85l-4.8-5.75l-8-4.15l-7.65-0.949l-0.95,1.25l-4.8,0.949l-6.4-9.899l-1-4.8l3.2-5.45l2.6-11.5l-4.05-7.65
				 M235.625,210.5l-0.45-0.95 M194.225,203.625l-0.675-1.45 M191.7,200.875l-0.05-0.025l-0.3-2.2 M190.4,198.025L190.35,198
				l-0.3-2.075 M193.925,218.45H193.9l3.8-10.55 M177.7,203.675l-0.025,0.025 M213.45,256.25l-5.8,0.95l-3.8-2.55l-3.85,3.8
				l0.475,2.05 M200.4,277.575l0.55,1.375l-0.3,4.15l1.6,2.25l-1.475,3.325 M233.475,253.225l0.125-0.525l1.4-3l-0.05-0.025
				 M232.95,248.6l-1.95-1l-10.2,6.7l1.9,6.1l-1.9,1.9l-0.025-0.025 M218.525,257.85l-2.525,0.6 M205.4,293.325l0.05,0.025
				l0.3,10.525 M227.925,290.325L227.8,288.2l0.05,0.05 M225.35,302.05l0.85-0.399l0.75-2.3 M205.75,337.8l-1-1.899v-8l20.15-24
				l0.6-1.9l-0.15,0.05l-9.7,4.7l-8.8-2.55 M205.6,306.725l-0.5,1.025 M205.4,310.125l0.35,2.425l1.6,3.2l-1.125,2.65
				 M212.55,346.55l-0.75-2.05l-1.275-1.2 M164.775,307.8l-1.925-0.7l-2.15-0.125 M201.175,323.8l-0.225,2.15l-1.4,1.2
				 M197.4,358.55l1.3-0.6l0.025,0.024 M200.025,390.2L199,388.65l1.6-6.7l-5.1-6.75l-1.3-1.325 M215.35,359.85l-1-1.6l-0.15-2.35
				 M198.3,404.725l0.35-0.074h0.05l1.375-1.551 M187.5,404.95l-0.65-6.4l0.05,0.05 M144.95,419.05l2.55-3.2h0.05 M157.45,413.95
				l-0.3-0.851 M157.75,418.1l-0.15-2.35 M118.875,418.2l0.475-0.101l6.4-5.149h0.05 M136.95,415.2l0.95-1.9h0.05 M106.375,418.55
				l-0.125,0.55l0.3-0.05l0.1,1.601h0.05"/>
		</g>
	</g>
</g>
<g>
	<text transform="matrix(0.85 0 0 1 140.1006 99.7241)" fill="#069" font-family="'_sans'" font-size="8">P115</text>
	<text transform="matrix(0.85 0 0 1 76.75 98.374)" fill="#069" font-family="'_sans'" font-size="8">P114</text>
	<text transform="matrix(0.85 0 0 1 234.6006 101.374)" fill="#069" font-family="'_sans'" font-size="8">P116</text>
	<text transform="matrix(0.85 0 0 1 79.5498 200.2241)" fill="#069" font-family="'_sans'" font-size="8">P117</text>
	<text transform="matrix(0.85 0 0 1 236.9502 148.624)" fill="#069" font-family="'_sans'" font-size="8">P118</text>
	<text transform="matrix(0.85 0 0 1 248.25 208.874)" fill="#069" font-family="'_sans'" font-size="8">P119</text>
	<text transform="matrix(0.85 0 0 1 197 239.4741)" fill="#069" font-family="'_sans'" font-size="8">P120</text>
	<text transform="matrix(0.85 0 0 1 110.7998 286.9243)" fill="#069" font-family="'_sans'" font-size="8">P121</text>
	<text transform="matrix(0.85 0 0 1 271.1504 322.5742)" fill="#069" font-family="'_sans'" font-size="8">P123</text>
	<text transform="matrix(0.85 0 0 1 152.1504 357.124)" fill="#069" font-family="'_sans'" font-size="8">P122</text>
	<text transform="matrix(0.85 0 0 1 241.1504 394.624)" fill="#069" font-family="'_sans'" font-size="8">P124</text>
	<text transform="matrix(0.85 0 0 1 473 174.4741)" fill="#069" font-family="'_sans'" font-size="8">P166</text>
	<text transform="matrix(0.85 0 0 1 463.5 363.0244)" fill="#069" font-family="'_sans'" font-size="8">P125</text>
</g>
</svg>
