<?xml version="1.0" encoding="utf-8"?>
<!-- Generator: Adobe Illustrator 15.0.2, SVG Export Plug-In . SVG Version: 6.00 Build 0)  -->
<!DOCTYPE svg PUBLIC "-//W3C//DTD SVG 1.1//EN" "http://www.w3.org/Graphics/SVG/1.1/DTD/svg11.dtd">
<svg version="1.1" id="Layer_1" xmlns="http://www.w3.org/2000/svg" xmlns:xlink="http://www.w3.org/1999/xlink" x="0px" y="0px"
	 width="800px" height="600px" viewBox="0 0 800 600" enable-background="new 0 0 800 600" xml:space="preserve">
<g>
	<path fill-rule="evenodd" clip-rule="evenodd" fill="#c8c8c8" d="M282.025,243.15l-0.525-1.05v-3.55v-0.05l-2.15-0.75l-1.05-1.2
		l-7.2-8.45l-0.05-0.05l-0.7-1.725L270,225.5l-3.25-2.5l-5.75-1.775l-0.05-0.025v-2.55l1.45-2.85l0.35-4.7l0.225-0.675l9.425,5.125
		l5.95,5.65l-0.5,1.35l18.6,10.85l10-1.4l0.85-1.6l-1.9-2.45l-1.35-4.85l4.3,1.65l3.25-1.1l2.95-1.35l16.25-0.85l5.1,3l3.8-1.1
		l13.25,11.1l4.6-8.4l3.45-0.475l-0.2-0.275l0.2,0.275l-3.45,0.475l-4.6,8.4l-13.25-11.1l-3.8,1.1l-5.1-3l-16.25,0.85l-2.95,1.35
		l-3.25,1.1l-4.3-1.65l1.35,4.85l1.9,2.45l-0.85,1.6l-10,1.4l-18.6-10.85l0.5-1.35l-5.95-5.65l-9.425-5.125l0.5-1.425l0.025-0.05
		l-1.8-1.1l-1.8,0.75l-3.6-2.9l-2.525,0.7h-0.025l-1.775-4.25l-0.025-0.05l-4.65-1.45l-1.8-3.6l-2.15-1.425l-0.05-0.025l-0.45-1.175
		l-0.25-0.625l-5.05-2.05l0.025-0.025l2.125-1.075l-2.25-6.05l-0.15-0.425v-0.025l1.05-2.15l3.55,0.55l1.05-2.95l4.85-4.35
		l0.05,0.05l2.35,2.35l1.4,1.4l0.8,2.7l0.875,0.375l2.925,1.225l2.15-2.15l4.35,1.35l0.8-1.9l26.2,5.4l9.45-4.85l5.15,1.1l5.15-0.55
		l10.8,3.5l8.1,1.1l0.8-3.8l1.9-1.9v-2.95l4.85-1.35h0.025l0.575,0.275l2.4,1.075l3.5-4.85l1.6-5.45l-1.35-2.15l1.35-1.6l-0.8-2.7
		l-3.25-0.55l-0.55-4.6l-1.6-3.25l0.25-1.35l-1.35-1.6v-2.45l-1.6-2.45l1.525-2.025l0.025-0.025l0.35,0.45l54.4,36.05l30.25,20.05
		l3.149-2.3l0.3-2.45l2.95,1.35l1.101,2.15l2.399,3.5l2.2,6.5l0.8,6.2l-1.35,4.35l3.25,3.25L406.4,300.2l-11,0.6l-2.75-12.55
		l3.55-5.15l-4.6-1.6v-14.6l-10-17.55l-6.5,8.65l-0.8-7.55l-7.05-6.25l-0.5-10.25l-5.75-8.375l4.35-0.575l1.35,1.9l4.05-2.75
		l1.9-3.5l0.3-6.75h16.75l1.7-34.75l-1.7,34.75h-16.75l-0.3,6.75l-1.9,3.5l-4.05,2.75l-1.35-1.9l-4.35,0.575l5.75,8.375l0.5,10.25
		l7.05,6.25l0.8,7.55l6.5-8.65l10,17.55v14.6l4.6,1.6l-3.55,5.15l2.75,12.55h-0.05l-2.15-2.15l-1.8,1.1l-6.15-5.4l-4.925,1.8
		l-1.925,0.7l-6.8-7.2v-4.7l-2.475-0.1l-49.775-2.75l-34.95,39.05V303.4v-0.051l-4.65-1.425l-0.05-0.024l4.35-2.9v-2.1v-0.05
		l-0.75-2.125V294.7l1.1-1.8l2.5-1.45l1.8-5.05l-1.5-1.8l-0.25-0.3l-0.05-0.05l0.35-6.15l5.45-1.8l3.2-4.3h2.2l3.6-3.25l1.05-4.3
		l2.55-0.75l-0.75-8.3l1.1-3.575V251.8l-0.15-0.4l-2.725-7.8l-0.025-0.025v-0.025h-0.025h-9.675l-0.75,5.4l-7.175,0.35H285.1
		L282.025,243.15z M30.35,228.05h9.75l1.45,3.6l0.475,0.075l6.375,1.025l-1.8,2.825l-0.75,1.125l0.05-0.025l3.95-1.075l2.05,1.85
		l1.15,1.05l0.025-0.025l5.775-3.225l0.65,4.05l0.4,2.45l-0.7,1.45l2.5,5.05l1.025,0.45l2.975,1.35l5.05-7.6l7.2,1.8l3.15,3.7
		l1.15,1.35h0.05l5.35-1.05l1.8-1.1l0.025,0.025l1.425,1.075l-0.525,2.425l-1.625,7.275l-1.45,1.1h-2.35l-2.35,0.75v2.3l-3.75-0.7
		l-0.525,18.15l0.525-18.15l3.75,0.7v-2.3l2.35-0.75h2.35l1.45-1.1l6.5,0.75L94,260.5l-1.3,1.8l1.45,3.95l0.55,0.125l7.75,1.675
		l2.5-2.55l0.825,0.6l0.625,0.5h0.025l2.125-0.7v0.025l0.025,0.075l0.075,0.15l1.2,2.625l1.1,2.525l0.15,0.35l1.8-0.35l2.55,1.975
		l0.65,0.525l-0.35,2.55l1.125,1.25l1.075,1.25l1.05-3.95l0.05,0.025l0.675,0.625l2.9,2.675l-0.025,0.025l1.1,1l6.5,7.55l-1.6,2
		l-0.95,1.2l0.025,0.025l-0.025,0.025l5.4,4.35l-0.35,2.8l-4.7,1.1l-6.85-3.25h-1.825l-0.475-1.2l3.05-2.9l-0.55-4.85l-5.6,0.55
		l-0.9-2l2.7-5.05l-3.75,0.75l-3.45,2.5L105.3,285l-1.8-1.45l-1.8-0.15l-0.55-2l-0.15-0.55l-2.35,2L88.2,282.3l-0.55-8.65L79,274
		l8.65-0.35l0.55,8.65l10.45,0.55l2.35-2l0.15,0.55l0.55,2l1.8,0.15l1.8,1.45l5.05-2.15l3.45-2.5l3.75-0.75l-2.7,5.05l0.9,2
		l5.6-0.55l0.55,4.85l-3.05,2.9l0.475,1.2H110.7l0.4-2.85h-4l0.4,2.15l-4,0.35v0.05v5l-1.425-1.075l-1.425-1.075l-1.35-2.975
		l-0.45-1.025l-2.3,0.85l-3.85,1.35l-2.525,0.35l-2.525,0.35V294l-3.6-0.65l-2.15-0.45l-0.35-3.2v-0.05l-3.6-3.6l-0.725-2.125
		l1.425-1.425v-2.9v-0.05h-0.325H64.95l-4.1,13H45.9l1.8-4.65l-6.85-18.4l-5.65,0.2l-2.2,0.05l-2.7-41.7H30.35z M110.95,271.3
		l-1.1,3.75l-3.75,0.4l-0.2,1.6l-2.5,0.35l0.5,1.65l-0.9,0.7l-0.15,1.8l-1.7-0.15l1.7,0.15l0.15-1.8l0.9-0.7l-0.5-1.65l2.5-0.35
		l0.2-1.6l3.75-0.4L110.95,271.3z M302.725,243.55l-1.675-2.6l1.35-1.1l2.45,0.55v-2.45l5.65,1.65l3.55-3.25l-1.9-2.45l1.9-1.35
		l1.35-5.4l-3.25-0.8l-0.55-2.7l0.55,2.7l3.25,0.8l-1.35,5.4l-1.9,1.35l1.9,2.45l-3.55,3.25l-5.65-1.65v2.45l-2.45-0.55l-1.35,1.1
		L302.725,243.55z"/>
	<path fill-rule="evenodd" clip-rule="evenodd" fill="#c8c8c8" d="M132.55,210.975l-1.15-4.875l-2.45-2.45l1.1-6.75l-1.65-5.15
		l2.15-4.85l-3.75-3.5l0.125-0.75l0.425-2.25l4.3,0.85l2.15,1.4l5.05-1.8l7.55-1.4l0.75,1.4l2.85,0.4l1.8-2.55l5.05-3.95l3.6,0.35
		l-1.8-1.8l2.15-2.5l1.1-3.25l-5.4-9l2.15-1.8l8.3-3.6l4.7-1.45l2.15,2.15l6.85-1.1l1.8-3.6l-0.35-2.5l6.1-6.85l3.95-1.1l3.25-0.35
		l2.55,0.75l1.8-2.9l3.2-2.55l2.55,1.1v-2.5l2.15-2.9l0.75-2.9l-1.45-5.4l1.8-0.7l2.85-2.55l5.8-2.85l7.9,2.15l3.25,2.5l1.8,1.8
		l9-0.35l-3.6-11.5l4.35-6.5V96.9l2.5-2.85l-0.35-7.95l0.35,7.95l-2.5,2.85v6.15l-4.35,6.5l3.6,11.5l-9,0.35l-1.8-1.8l-3.25-2.5
		l-7.9-2.15l-5.8,2.85l-2.85,2.55l-1.8,0.7l1.45,5.4l-0.75,2.9l-2.15,2.9v2.5l-2.55-1.1l-3.2,2.55l-1.8,2.9l-2.55-0.75l-3.25,0.35
		l-3.95,1.1l-6.1,6.85l0.35,2.5l-1.8,3.6l-6.85,1.1l-2.15-2.15l-4.7,1.45l-8.3,3.6l-2.15,1.8l5.4,9l-1.1,3.25l-2.15,2.5l1.8,1.8
		l-3.6-0.35l-5.05,3.95l-1.8,2.55l-2.85-0.4l-0.75-1.4l-7.55,1.4l-5.05,1.8l-2.15-1.4l-4.3-0.85l-1.075-1.675l-0.825-1.275
		l-6.75-3.5l-1.65-0.3l-1.05-0.8l-3-0.8l0.8-3l-2.8-0.925l-0.1-0.025l-0.3-0.1h-0.025h-0.025l-1.85,1.6l-0.55-2.7l-2.925-1.175
		L102.3,164.5l0.45-1.1l-0.3-2.15l1.9-1.35l1.1-8.4l1.6-1.35l1.9,0.8l1.9-3.25l-1.6-2.15l1.35-2.4l1.6,0.5l4.85-5.1l3.55,0.8
		l1.6-2.15l-2.45-9.2l1.1-1.1l-3-2.95l1.4-6.2l-1.9-2.2l-1.1-5.4l-2.7-3.5v-4.05l4.85-3.25l0.55-5.15l1.65-4.05l-3.55-2.7v-2.4
		l-1.35-2.7l-2.15-1.1l-1.9-8.65l-2.15-1.1l3.25-3.75l-0.55-5.4l1.6-0.55l-1.05-5.4l-3.25-7.3l-2.15-1.65l-1.65-2.15l1.1-2.7
		l-2.7-1.9l-0.8-1.6l-5.15-0.25l3.8-4.1l1.6-0.5l1.6-2.2l0.55-3.75l1.9-2.15l3,1.85l1.85,0.85l3,4.3l4.6-0.8l2.7,0.55
		c0,0.033,0,0.417,0,1.15c0.033,0.767,0.117,1.633,0.25,2.6l2.15,2.7c0.033,0.066,0.133,0.5,0.3,1.3
		c0.133,0.767,0.167,1.567,0.1,2.4c-0.1,0.833-0.5,1.317-1.2,1.45l5.4,4.3h2.7l7.3,4.9l3.25-2.45l6.5,1.35
		c0-0.033,0.25-0.117,0.75-0.25c0.533-0.167,1.15-0.184,1.85-0.05c0.733,0.133,1.45,0.567,2.15,1.3c0.7,0.767,1.267,2.05,1.7,3.85
		c0.033-0.034,0.117,0,0.25,0.1c0.167,0.067,0.35,0.467,0.55,1.2s0.4,2.017,0.6,3.85l0.5,0.5c0.333,0.333,0.65,0.783,0.95,1.35
		c0.267,0.566,0.35,1.2,0.25,1.9c-0.133,0.7-0.617,1.433-1.45,2.2V71l1.6,1.6l0.3,4.85l2.4,1.35l3-2.4l2.7,1.9l0.25-3l1.35-3.25
		l2.45-0.55l4.85-3.5l5.7-0.55l1.9,1.9l0.5-4.85l3.55,0.25l1.85,2.2l1.9,0.25l1.1-1.6l3.8-0.3l6.45,7.85L259.2,91l1.85,0.4
		l1.05,1.55l1.05,4.7l2.9,3.25l2.5-0.4l3.25,5.05v5.05l-2.15,1.45l3.95,3.25l2.55,5.75v5.05l3.95,3.95l0.7,4.7l2.2,1.45v3.95
		l-1.45,2.55l-1.1,6.1l2.9,11.55l-0.35,4.3l2.5,3.25l-33.15,2.15l-4.3,2.9l-0.2,2.35l0.2-2.35l4.3-2.9l33.15-2.15l-2.5-3.25
		l0.35-4.3l-2.9-11.55l1.1-6.1l1.45-2.55v-3.95l-2.2-1.45l-0.7-4.7l-3.95-3.95v-5.05l-2.55-5.75l-3.95-3.25l2.15-1.45v-5.05
		l-3.25-5.05l-2.5,0.4l-2.9-3.25l-1.05-4.7l-1.05-1.55l43,9.3l32.575,41.975L335.1,144.7l1.6,2.45v2.45l1.35,1.6l-0.25,1.35
		l1.6,3.25l0.55,4.6l3.25,0.55l0.8,2.7l-1.35,1.6l1.35,2.15l-1.6,5.45l-3.5,4.85l-2.4-1.075l-0.55-0.275h-0.025H335.9l-4.85,1.35
		v2.95l-1.9,1.9l-0.8,3.8l-8.1-1.1l-10.8-3.5l-5.15,0.55l-5.15-1.1l-9.45,4.85l-26.2-5.4l-0.8,1.9l-4.35-1.35l-2.15,2.15
		l-2.925-1.225l-0.825-0.375l-0.8-2.7l-1.45-1.4l-2.35-2.35l-0.05-0.05l-4.85,4.35l-1.05,2.95l-3.55-0.55l-1.05,2.15v0.025v0.025
		l0.15,0.4l2.25,6.05l-2.125,1.075l-1.875-1.575l-0.875,0.2l-2.675,0.6l-2.025-0.775l-0.675-0.275l-5.425-1.15l-2.125-0.5l-5.4,8.1
		l-2.175-1.05l-6.475-3.25L203,193.4l-2.15,0.95l-2.725,1.175l-2.975-1.875l-2.075,1.25l-10.7,6.95l-1.825,1.25v0.05l0.55,4
		l-3.25,0.55l-0.25,0.775L175.425,215l-2.675,0.8l-0.025,0.05H172.7l-2.925,4.2l-0.825,1.15l-2.3,0.45l-2.3,0.4v-0.15l-0.55-3.1
		l-4.6,1.05l-1.05,2.45h-2.2l-0.5-1.6l-1.9-0.85l-0.85,1.9l-2.4,1.1l-4.6-1.35l0.3-1.9l-1.25-2.025l-0.4-0.675l-2.7,1.35l-5.4-3.5
		l-2.95-0.85L132.55,210.975z M195.4,138.35l-2.55,20.55l3.6,4.65l3.6-1.05l-1.4,12.95l-4.7,3.25l2.15,6.85l4.75,8.8l-4.75-8.8
		l-2.15-6.85l4.7-3.25l1.4-12.95l-3.6,1.05l-3.6-4.65L195.4,138.35z M118.7,295.1l1.85,5.85l3.8,0.25l0.8,7.55l2.2-1.6l2.95,6.199
		l-1.6,2.45l0.25,5.4l3.8,0.55l-1.35,4.85l-3,2.7l-0.25,4.05l0.25-4.05l3-2.7l1.35-4.85l-3.8-0.55l-0.25-5.4l1.6-2.45l-2.95-6.199
		l-2.2,1.6l-0.8-7.55l-3.8-0.25L118.7,295.1h0.65h1.8l6.85,3.25l4.7-1.1v-0.05l0.35-2.8l-5.4-4.35l0.025-0.025l0.925-1.225l1.6-2
		l-6.5-7.55l-1.1-1l0.025-0.025l5-7.75L128,269.9h0.025l3.225,1.05v-0.025l1.1-1.425l-1.45-2.85l0.075,0.025l3.875,0.675l8.3,4.35
		l5.4-3.25l2.55,0.35l2.5,0.35l3.25-1.85l1.8-1v2.15l-3.25,11.5l1.075,1.625l1.075,1.625l1.8,0.35l0.025,0.025l3.225,3.225
		l0.025-0.025L164.4,285l2.9-0.7l1.8-2.9l-0.35-2.85l1.8,0.35l3.2-3.95l2.75,1.35l0.9,0.45l4.3-0.75h0.025l0.35,0.125l0.125,0.025
		l3.1,0.95l1.45-1.45l1.25,1.45l1.25,1.45l-0.4,2.55l-0.65,4.25l-1.075,0.725L186,286.8l-0.4,2.35l-1,5.95l1.025,6.2l0.375,2.45
		l1.45,3.6h0.05l0.625-0.074L190.35,307l1.1,1.8l2.5,0.351l2.6,3.875l1,1.524l2.15,2.15l0.025-0.025l1.075-1.024l1.625,0.524
		l0.125,0.05l0.1,0.025l0.3,0.1h0.025l0.05-0.024l2.825-2.125l1.45,1.8l-1.075,0.9L205.1,317.8l1.15,1.625l2.85,4.125l3.25,1.45
		l-1.45,5.4l2.15,2.149l0.1,0.726l0.25,2.175l8.65,7.2l0.825,2.449l0.275,0.801l-0.35,0.449l-2.55,3.851v5.399v0.051l1.45,2.149
		l2.15,2.5l2.9,1.45l0.7,2.15l-2.15,3.6v2.15l-1.85,3l0.025,0.024l-0.025,0.025l-1.4-0.851l-2.9-1.1l-1.8-1.8l-5-3.25l-14.8,17.3
		l-10.45-1.8l-13.35,6.5l-2.85-3.601l-1.8,1.051l-5.05-3.2l-1.45,5l-1.05,7.25l-2.55-0.75l-2.15,2.149l1.05,2.551l-1.4,1.8
		l-1.8-0.75l-2.55-0.351l-1.45-2.5l0.4-3.949l-2.2-0.95l-0.35-38.7l-1.8,0.35v-1.8l2.2-0.35l-0.4-5.05h-7.9l-0.75-11.45h8.5
		l0.55-22.15l-1.9-0.3v-13.2l1.9-4.1l3-1.85l2.15-4.35l5.275-4.925L154.1,288.5l-2.15,4.35l-3,1.85l-1.9,4.1V312l1.9,0.3
		l-0.55,22.15h-8.5v-0.101l-19.05-0.699h-0.05l5.05,2.899l0.075,0.4l1.025,6.05l-3.25-0.7l-0.475,1.575L122.6,345.9h-9.3h-6.5
		l-0.4-2.9l1.1-5v-0.05l-3.25-3.601v-11.5h-3.95v-0.024l0.7-2.525l-3.95-0.7l-0.35-8.649h-8.3l-2.5-1.45h-0.05l-6.8,1.1
		l3.875-11.425L83.35,298h-0.025l0.025-0.05l-4.3-1.8v-1.8l-3.6-1.8l-3.25-1.05v0.025l-0.05-0.025l-3.6,11.125L65,300.15L64.45,299
		l-3.05-6.45h-0.525l4.075-12.95h13.375h0.325v2.9l-1.425,1.425L77.2,283.95l0.75,2.15l3.6,3.6l0.35,3.2v0.05l2.15,0.4l3.6,0.65v2.5
		v0.05l2.525-0.4l2.525-0.35l3.85-1.35l2.3-0.8l0.45,0.975l1.35,2.975l1.425,1.075l1.425,1.125v-0.05v-5l4-0.35v-0.05l-0.4-2.15h4
		l-0.4,2.85v0.05H118.7z M188.125,307.275l-1.625,3.375v7.55l-1.6,3.55l-0.8,4.05l-1.65,2.4l-2.15,1.899l1.9,3.801l-1.35,1.35
		l4.85,2.15l-6.2,5.149l0.25,2.95l-4.3,4.85l1.35,2.7v3.25l-2.2,0.851l-7.55-0.551l-2.4,1.351l2.7,4.85l-14.6,4.05l-1.35-1.6
		l-2.2,0.8l2.2-0.8l1.35,1.6l14.6-4.05l-2.7-4.85l2.4-1.351l7.55,0.551l2.2-0.851v-3.25l-1.35-2.7l4.3-4.85l-0.25-2.95l6.2-5.149
		l-4.85-2.15l1.35-1.35l-1.9-3.801l2.15-1.899l1.65-2.4l0.8-4.05l1.6-3.55v-7.55L188.125,307.275z"/>
	<path fill-rule="evenodd" clip-rule="evenodd" fill="#c8c8c8" d="M245.45,345.9l0.35,0.05l22,3.149l7.2-2.149l0.175-6.3h7.775
		l1.6,1.649l3.5,1.351l3.8,3.199l2.7,5.4l6.5,0.55l3.5,5.15l3.25-2.15l-0.55-4.6l4.05,1.6l1.9-2.149l7.3,0.8l1.6-1.05l2.7,2.399
		l-0.25,6.75l3,0.3l-2.45,3.75l0.55,4.601l-4.35,6.25h-4.05l-3.875,2.35l3.875-2.35h4.05l4.35-6.25l-0.55-4.601l2.45-3.75l-3-0.3
		l0.25-6.75l-2.7-2.399l-1.6,1.05l-7.3-0.8l-1.9,2.149l-4.05-1.6l0.55,4.6l-3.25,2.15l-3.5-5.15l-6.5-0.55l-2.7-5.4l-3.8-3.199
		l-3.5-1.351l-1.6-1.649h-7.775l0.175-6.65l-2.15-0.35l11.2-12.5l34.95-39.05l49.775,2.75l2.425,0.15v4.65l6.85,7.25l1.925-0.75
		l4.925-1.8l6.15,5.4l1.8-1.05l2.15,2.149h0.05l11-0.6l-3.15,8.15l1.1,5.399l4.351,5.05l-0.75,3.25l-1.45,3.601l-3.95,1.45v1.449
		l-2.5,2.5l-1.45,3.95l-2.9,2.55l2.55,3.95c-0.033,0.033-0.217,0.5-0.55,1.4c-0.3,0.899-0.55,1.934-0.75,3.1
		c-0.2,1.167-0.133,2.184,0.2,3.05c0,0.034,0.1,0.317,0.3,0.851c0.2,0.566,0.466,1.217,0.8,1.95c0.367,0.767,0.767,1.466,1.2,2.1
		c0.4,0.634,0.833,1.05,1.3,1.25l-4.7,6.5l0.3,4.425l0.1,1.675l2.85,4.351v5.399l-3.6,2.15l-2.15,3.25l-1.1,0.35
		c0-0.066-0.083-0.166-0.25-0.3c-0.133-0.166-0.35-0.083-0.65,0.25c-0.267,0.334-0.566,1.2-0.9,2.601
		c-0.333,1.433-0.683,3.699-1.05,6.8l-1.1,6.149l1.45,1.801l-1.1,3.6l-2.15-2.55l-9.75-1.4l-57.25-16.25l1.05-4.3l-7.375-2.95
		l-20.725-8.25L270.7,374l-16.95,9l-19.45-3.6l-10.825-6.726l-0.025-0.024l1.85-3v-2.15l2.15-3.6l-0.7-2.15l-2.9-1.45l-3.6-4.7
		V350.2l2.55-3.851l1.1,0.525l3.2,1.525l1.45-1.801l4.65,2.5l2.9-4.649l0.025,0.024l1.775,1.775h0.05L245.45,345.9z M396.35,366.175
		l-16.1-0.625l-10-10l-3.75-1.1l-13-11.9l-8.9-15.399l-15.7,9.199l-12.7-17.3l-0.5-2.149l-3.55-5.4l1.1-8.4l4.85-4.85l0.3-3.8
		l-1.35-2.95l0.5-2.7l-1.85-2.15l1.85,2.15l-0.5,2.7l1.35,2.95l-0.3,3.8l-4.85,4.85l-1.1,8.4l3.55,5.4l0.5,2.149l12.7,17.3
		l15.7-9.199l8.9,15.399l13,11.9l3.75,1.1l10,10L396.35,366.175z M84.35,208.225l6.5,8.425l-1.05,1.6l5.95,3.5l1.35-1.35l1.85,0.55
		l0.3,3l6.75,4.85l7.85,0.25l3.2,3.55l-4.1,3.4l-1.65,4.15l5.75,8.1l-2,3.75l3.45,2.2v-2l0.9-1.45l4.5,2.55l1.05,1.05l1.1,0.55
		l2.9-1.05l1.8-0.2l-0.4,3.95l1.3,0.35l-0.2-0.9l1.8,0.75l-2.15,4.3l0.875,4.7l-0.875-4.7l2.15-4.3l-1.8-0.75l0.2,0.9l-1.3-0.35
		l0.4-3.95l-1.8,0.2l-2.9,1.05l-1.1-0.55l-1.05-1.05l-4.5-2.55l-0.9,1.45v2l-3.45-2.2l2-3.75l-5.75-8.1l1.65-4.15l4.1-3.4l-3.2-3.55
		L106,228.8l-6.75-4.85l-0.3-3l-1.85-0.55l-1.35,1.35l-5.95-3.5l1.05-1.6L84.35,208.225l17.9-43.675l2.975,1.175l2.925,1.175
		l0.55,2.7l1.85-1.6h0.025l0.325,0.1l0.1,0.025l2.8,0.925l-0.8,3l3,0.8l1.05,0.8l1.65,0.3l6.75,3.5l0.825,1.275l1.025,1.675
		l-0.375,2.25l-0.125,0.75l3.75,3.5l-2.15,4.85l1.65,5.15l-1.1,6.75l2.45,2.45l1.15,4.875l0.7,2.975l3,0.8l5.4,3.5l2.7-1.35
		l0.4,0.675l1.2,2.025l-0.25,1.9l4.6,1.35l2.4-1.1l0.85-1.9l1.9,0.85l0.5,1.6h2.2l1.05-2.45l4.6-1.05l0.55,3.1l-0.05,0.05
		l-1.275,1.775l-0.775,1.075v0.05l0.75,3.6l-2.15,1.8v2.15l-1.8,1.45l-2.2,1.05l-0.075,0.475l-0.625,4.225l2.5,2.5v0.05l-0.7,2.85
		l1.45,3.95l-0.025,0.025l-1.25,1.275l-1.275,1.25l0.75,4.3l2.5,2.9l-1.175,3.5l-0.275,0.8v0.05v3.2l-1.8,1.05l-3.25,1.85l-2.5-0.35
		l-2.5-0.4l-5.4,3.25l-8.3-4.3l-2.925-0.55l-1.025-0.2l0.025,0.075l-0.075-0.025l1.45,2.85l-1.1,1.425l-3.2-1.075l-0.025,0.05H128
		l-0.375,0.575l-1.575-2.225l0.55-3.25l-2.9-2.85l-3.25,1.8l-3.4,4.5l0.7,2.5L116,273.7l-0.55-0.425l-2.55-1.975l-1.8,0.35
		l-0.15-0.35l2.35-5.25l-1.65-1.6l3.55-4.05l1.85-4.05L115.7,255l0.85-1.65L115.7,255l1.35,1.35l-1.85,4.05l-3.55,4.05l1.65,1.6
		l-2.35,5.25l-1.1-2.525l-1.225-2.85l2.675-5.075l-0.7-1.6l-0.35-2.9l-2.2-4.15l3.25-12.05l-3.25,12.05l2.2,4.15l0.35,2.9l0.7,1.6
		l-2.675,5.075L108.6,265.9l-0.05,0.025V265.9l-2.125,0.7l-0.65-0.5l-0.825-0.6l-2.5,2.55l-7.75-1.675l-0.5-0.125l-1.45-3.95
		l1.25-1.8l1.25-1.8l-6.5-0.75l1.625-7.275l0.575-2.425l3.4,0.15l3.95-2.85l3.45-0.55l2.5-0.9l2-3.05l5.05-0.9l-5.05,0.9l-2,3.05
		l-2.5,0.9l-3.45,0.55l-3.95,2.85l-3.4-0.15l-1.45-1.1l-0.025,0.025l-0.025-0.025l-1.8,1.1l-5.35,1.05l-1.2-1.35l-3.15-3.7l-7.2-1.8
		l-5.05,7.6l-2.975-1.35l-0.975-0.45l-2.5-5.05l0.7-1.45l-0.45-2.45l-0.65-4.05l-5.775,3.225L51.9,237.45l-2.05-1.85l-3.95,1.075
		l0.7-1.1l1.8-2.825l-6.375-1.025L41.6,231.65l-1.45-3.6H40.1h-9.75l-1.4-21.4l55.4,1.6V208.225z M116.875,277.6l-1.075-1.25
		l0.35-2.55l-0.15-0.1l1.75-2.75l-0.7-2.5l3.4-4.5l3.25-1.8l2.9,2.85l-0.55,3.25l1.575,2.225l-5,7.75l-2.9-2.675l-0.675-0.65v0.025
		L119,274.9l-1.05,3.95L116.875,277.6z"/>
	<path fill-rule="evenodd" clip-rule="evenodd" fill="#c8c8c8" d="M242.85,194.425l0.45,1.175l0.05,0.025v0.025l2.15,1.45l1.8,3.6
		l4.675,1.45l1.775,4.25h0.025l0.025,0.05l2.5-0.7l3.6,2.9l1.8-0.75l1.775,1.1l-0.5,1.425l-0.225,0.675l-0.35,4.7l-1.45,2.85v2.55
		l0.05,0.025v0.025l5.75,1.8l3.25,2.5l0.35,0.775l0.7,1.725l0.05,0.05l7.2,8.45l1.05,1.25l2.15,0.75v3.55l-5,1.05l-21.25,7.95h-4.7
		l-3.25,3.6l-5.4,3.25l-2.15,0.35l-3.6-6.5l-5.8-3.2l-2.85-2.9l-2.9,4.7l-3.25-4l-3.5-1.85l0.6-2.45l-1.45-3.25l-2.85,2.9
		l-3.25-5.05l2.85-1.45l-1.4-2.5l5.05-3.25v-9.75l-2.9-2.85l-4.35-2.15l-2.5-0.4l-3.95-7.9l-1.8-6.5l-4.35-2.5l0.55-1.9l0.025-0.025
		l2.725-1.175l2.15-0.95l4.85-1.35l6.475,3.25l2.175,1.1l5.4-8.1l2.125,0.45l5.425,1.15l0.675,0.275L232.15,191l2.675-0.65
		l0.875-0.2l1.85,1.65l5.05,2.05L242.85,194.425z M279.75,301.925l-0.05,0.025l4.7,1.45v17.75l-11.2,12.5l2.15,0.35l-0.175,6.65
		l-0.175,6.3l-7.2,2.149l-22-3.149l-0.3-0.05h-0.05l-7.5,0.35l-1.8-1.8l-0.025,0.024l-0.025-0.024l-2.9,4.649l-4.65-2.5l-1.45,1.801
		l-3.2-1.525l-1.05-0.525l0.3-0.449l-0.275-0.801l-0.775-2.449l-8.65-7.2l-0.3-2.175l-0.1-0.726l-2.15-2.149l1.45-5.4l-3.25-1.45
		l-2.85-4.125l-1.1-1.625l1.075-0.899l1.075-0.9l-1.45-1.8l-2.825,2.125l-0.05,0.024l-0.325-0.1l-0.1-0.025l-0.125-0.05
		l-1.625-0.524l-1.075,1.024l-2.125-2.125l-1.05-1.524l-2.6-3.875l-2.5-0.351l-1.1-1.8l-2.225,0.275l-0.625,0.074l-1.45-3.6
		l-0.425-2.45l-1.025-6.2l1-5.95l0.45-2.35l1.075-0.725l1.075-0.725l0.65-4.25l0.45-2.55l-1.3-1.45l-1.25-1.45l-1.45,1.45l-3.1-0.95
		l-0.125-0.025L181.75,276h-0.025H181.7l-4.3,0.75l-0.9-0.45l-2.7-1.4l-0.05,0.05l-3.2,3.95l-1.8-0.35l0.35,2.85l-1.8,2.9l-2.9,0.7
		l-1.775,1.775l-3.225-3.225l-1.8-0.35l-1.125-1.625l-1.075-1.625l3.25-11.5v-2.15v-0.05v-3.2l0.275-0.85l1.175-3.5l-2.5-2.9
		l-0.75-4.3l1.275-1.25L159.4,249l-0.025-0.025l0.025-0.025l-1.45-3.95l0.7-2.85v-0.05l-2.5-2.5l0.625-4.225l0.075-0.425l2.2-1.1
		l1.8-1.45v-2.15l2.15-1.8l-0.75-3.6l0.775-1.125l1.275-1.775l0.05,0.1l2.3-0.4l2.3-0.4l0.825-1.2l2.925-4.2h0.025l2.675-0.8
		l0.025-0.05l2.175-6.525l0.25-0.725l3.25-0.55v-0.05l-0.55-4l1.825-1.3l10.7-6.95l2.075-1.2l2.95,1.85l-0.55,1.9l4.35,2.5l1.8,6.5
		l3.95,7.9l2.5,0.4l4.35,2.15l2.9,2.85v9.75l-5.05,3.25l1.4,2.5l-2.85,1.45l3.25,5.05l2.85-2.9l1.45,3.25l-0.6,2.45l3.5,1.85l3.25,4
		l2.9-4.7l2.85,2.9l5.8,3.2l3.6,6.5l2.15-0.35l5.4-3.25l3.25-3.6h4.7l21.25-7.95l5-1.05v0.05l0.525,1l3.075,6.15h0.025l0.025,0.05
		l7.2-0.35l0.7-5.4h9.725l2.725,7.8l0.15,0.425l-1.1,3.575l0.75,8.3l-2.55,0.75l-1.05,4.3l-3.6,3.25h-2.2l-3.2,4.3l-5.45,1.8
		l-0.35,6.15l0.05,0.05l0.25,0.3l1.5,1.8l-1.8,5.05l-2.5,1.45l-1.1,1.8v0.025v0.025l0.75,2.15v2.1l-4.35,2.9L279.75,301.925z
		 M200.85,194.35l0.3,0.55L200.85,194.35z M203.025,316.325L204.1,299l2.15,0.75l2.15-5.05l2.875-1.775l-2.525-5.075l5-3.6l2.55-2.5
		l7.55-4.35l1.1-1.8l-1.8-1.05l0.7-11.55l-10.45-2.15l2.9-6.85l6.1-3.25l-5-4.3l0.45-1.9l-0.45,1.9l5,4.3l-6.1,3.25l-2.9,6.85
		l10.45,2.15l-0.7,11.55l1.8,1.05l-1.1,1.8l-7.55,4.35l-2.55,2.5l-5,3.6l2.525,5.075L208.4,294.7l-2.15,5.05L204.1,299
		L203.025,316.325z M82.925,299.175L79.05,310.6l6.8-1.1h0.05l2.5,1.45h8.3l0.35,8.649l3.95,0.7l-0.7,2.525l-1.4,1.325l-4.3-3.2
		l-7.05,1.85l-4.3,5.15l-8.4,0.3l1.1,5.4l3.5,0.8v2.45l-1.275,8.475l1.875-0.125l4.3,4.85v6.801l-7,0.5l-2.45-2.15l-3.25,3.5
		l-5.15,2.2l-0.25-3.55l-4.3-1.851l-3.125,2.825l3.125-2.825l4.3,1.851l0.25,3.55l5.15-2.2l3.25-3.5l2.45,2.15l7-0.5V350.1
		l-4.3-4.85l-1.875,0.125l1.275-8.475v-2.45l-3.5-0.8l-1.1-5.4l8.4-0.3l4.3-5.15l7.05-1.85l4.3,3.2l1.4-1.325v0.024h3.95v11.5
		l3.25,3.601V338l-1.1,5l0.4,2.9h6.5l1.05,9.1l3.25,3.5l1.6-1.65l1.35,3.25l0.85,13.25l-11.9,0.801l-1.65,1.35l-6.75,0.3l-1.6,2.15
		l-1.9,1.1v1.601h-5.15l-0.5-3.25l0.25-2.7l-2.45-1.101l1.65-2.699l-3-0.5l-5.1,6.199l-2.2-2.699l-3.5-1.101l0.55,2.45l1.35,2.15
		l-0.8,2.149l-5.975,2.726l5.975-2.726l0.8-2.149l-1.35-2.15l-0.55-2.45l3.5,1.101l2.2,2.699l5.1-6.199l3,0.5l-1.65,2.699
		l2.45,1.101l-0.25,2.7l0.5,3.25h5.15v-1.601l1.9-1.1l1.6-2.15l6.75-0.3l1.65-1.35l11.9-0.801l-0.85-13.25l-1.35-3.25l-1.6,1.65
		l-3.25-3.5l-1.05-9.1h9.3h0.05l0.575-2.025l0.475-1.575l3.25,0.7l-1.025-6.05l-0.075-0.45l-5-2.85l19.05,0.699v0.101l0.75,11.45
		h7.9l0.4,5.05l-2.2,0.35v1.8l1.8-0.35l0.35,38.7l-0.35-0.15l-1.4,5.75L142.1,401l-1.8,3.6l-2.9,1.101l-4.7,2.5l-3.2-0.351
		l-4.35,5.051l-2.15-2.5l-1.35-2.2l-2.7-1.601l-2.15,0.801l-6.25-4.851l-0.8-3l-4.3-2.95l-1.9,0.801l-8.65,1.649l-0.8,1.851
		l-2.45,0.55l-1.35-1.05l-5.95-0.851l-2.7,1.101l-3.25-0.25l-3.25,2.949l-2.7-2.699l1.9-5.15l-0.8-12.15l-0.825-1.074L71.9,381.2
		l-1.85-0.8l0.8-2.45l1.6-2.15l-2.95-2.149l-3.25-7.301l-7.425-7.975L55.7,355l-5.65-0.85l-3.55,1.35v-3.2l3.25-6.75l-1.35-2.45
		l-2.4-0.55l2.15-3.25l-0.3-4.85l1.4,0.8l4.85,5.95l14.05,3v1.85l10.025-0.675L78.1,345.8l0.075-0.425L68.15,346.05v-1.85l-14.05-3
		l-4.85-5.95l-1.4-0.8l-4.15-3.125l-2.3-1.726l-0.3-3.25l-5.65-2.699l-4.6-3.25l-8.4,1.899l-2.4,2.95l-8.1-0.8l-0.85-2.15
		L8.15,320.4v-1.9l7.85-5.15l2.4,1.9l0.85-2.7v-2.7l-1.9-2.699l3.5-5.4l5.95-2.7l-0.8-4.6L23.55,292l3.25-4.85l2.15,0.8l0.8-1.6
		L28.4,285l1.65-1.9v-2.7l3.5-2.45L33,269.8l2.2-0.1l5.65-0.2l6.85,18.4l-1.8,4.65h14.95h0.025H61.4l3.05,6.45l-2,3.3l2.7,4.05
		l-1.35,3.75h-3.5l-3,14.051l-1.05-2.7H48.4l-2.95,1.899L47.3,325l1.65,2.95l2.7-1.351l1.1,2.45l-1.65,1.05l-0.25,1.9l-3.25-1.6
		h-2.7l-1.2,0.925l1.2-0.925h2.7l3.25,1.6l0.25-1.9l1.65-1.05l-1.1-2.45l-2.7,1.351L47.3,325l-1.85-1.65l2.95-1.899h7.85l1.05,2.7
		l3-14.051h3.5l1.35-3.75l-2.7-4.05l2-3.3l0.55,1.15l3.55,2.475l0.05,0.025l3.6-11.125V291.5l3.25,1.05l3.6,1.8v1.8l4.3,1.8
		L83.325,298L82.925,299.175z M241.9,257.95l-0.35,13.35l1.1,3.6l0.3,3.95v0.025l1.45,3.575l5.05,0.75l0.7,1.45l8.65-6.5v-5.75
		l11.2-2.55l1.4,3.6l2.55-0.35l0.35-3.95l3.6,3.95l5.05-0.35l3.25-3.25l7.9,4.3l-7.9-4.3l-3.25,3.25l-5.05,0.35l-3.6-3.95
		l-0.35,3.95l-2.55,0.35l-1.4-3.6l-11.2,2.55v5.75l-8.65,6.5l-0.7-1.45l-5.05-0.75l-1.45-3.575v-0.025l-0.3-3.95l-1.1-3.6
		L241.9,257.95z M211.275,292.925l1.075,2.175l9.7-10.85l3.95,4l16.95-9.4l-16.95,9.4l-3.95-4l-9.7,10.85L211.275,292.925z"/>
	
		<path fill-rule="evenodd" clip-rule="evenodd" fill="none" stroke="#fff" stroke-width="0.5" stroke-linecap="round" stroke-linejoin="round" stroke-miterlimit="3" d="
		M391.4,179.15L337,143.1l-0.35-0.45l-0.025,0.025L335.1,144.7l1.6,2.45v2.45l1.35,1.6l-0.25,1.35l1.6,3.25l0.55,4.6l3.25,0.55
		l0.8,2.7l-1.35,1.6l1.35,2.15l-1.6,5.45l-3.5,4.85l-2.4-1.075l-0.575-0.275H335.9l-4.85,1.35v2.95l-1.9,1.9l-0.8,3.8l-8.1-1.1
		l-10.8-3.5l-5.15,0.55l-5.15-1.1l-9.45,4.85l-26.2-5.4l-0.8,1.9l-4.35-1.35l-2.15,2.15l-2.925-1.225l-0.875-0.375l-0.8-2.7
		l-1.4-1.4l-2.35-2.35l-0.05-0.05l-4.85,4.35l-1.05,2.95l-3.55-0.55l-1.05,2.15v0.025l0.15,0.425l2.25,6.05l-2.125,1.075
		l-0.025,0.025l5.05,2.05l0.25,0.625l0.45,1.175l0.05,0.025l2.15,1.425l1.8,3.6l4.65,1.45l0.025,0.05l1.775,4.25h0.025l2.525-0.7
		l3.6,2.9l1.8-0.75l1.8,1.1l-0.025,0.05l-0.5,1.425 M335.925,176.35h0.025l0.55,0.275 M395.4,300.8l11-0.6l30.05-78.45l-3.25-3.25
		l1.35-4.35l-0.8-6.2l-2.2-6.5l-2.399-3.5l-1.101-2.15l-2.95-1.35l-0.3,2.45l-3.149,2.3l-30.25-20.05 M380.325,296.15l-1.925,0.75
		l-6.85-7.25V285l-2.425-0.15l-49.775-2.75l-34.95,39.05l-11.2,12.5l2.15,0.35l-0.175,6.65 M313.375,376.8l7.375,2.95l-1.05,4.3
		l57.25,16.25l9.75,1.4l2.15,2.55l1.1-3.6l-1.45-1.801l1.1-6.149c0.367-3.101,0.717-5.367,1.05-6.8c0.333-1.4,0.633-2.267,0.9-2.601
		c0.3-0.333,0.517-0.416,0.65-0.25c0.167,0.134,0.25,0.233,0.25,0.3l1.1-0.35l2.15-3.25l3.6-2.15V372.2l-2.85-4.351l-0.1-1.675
		l-0.3-4.425l4.7-6.5c-0.467-0.2-0.9-0.616-1.3-1.25c-0.434-0.634-0.833-1.333-1.2-2.1c-0.333-0.733-0.6-1.384-0.8-1.95
		c-0.2-0.533-0.3-0.816-0.3-0.851c-0.333-0.866-0.4-1.883-0.2-3.05c0.2-1.166,0.45-2.2,0.75-3.1c0.333-0.9,0.517-1.367,0.55-1.4
		l-2.55-3.95l2.9-2.55l1.45-3.95l2.5-2.5v-1.449l3.95-1.45l1.45-3.601l0.75-3.25l-4.351-5.05l-1.1-5.399l3.15-8.15l-11,0.6h-0.05
		l-2.15-2.149l-1.8,1.05 M369.125,284.85l2.475,0.1v4.7l6.8,7.2l1.925-0.7l4.925-1.8l6.15,5.4l1.8-1.1l2.15,2.15h0.05 M261.05,91.4
		l43,9.3l32.575,41.975 M261.05,91.4L259.2,91l-55.95-17.85l-6.45-7.85l-3.8,0.3l-1.1,1.6l-1.9-0.25l-1.85-2.2l-3.55-0.25l-0.5,4.85
		l-1.9-1.9L176.5,68l-4.85,3.5l-2.45,0.55l-1.35,3.25l-0.25,3l-2.7-1.9l-3,2.4l-2.4-1.35l-0.3-4.85l-1.6-1.6v-2.45
		c0.833-0.767,1.316-1.5,1.45-2.2c0.1-0.7,0.017-1.333-0.25-1.9c-0.3-0.567-0.617-1.017-0.95-1.35l-0.5-0.5
		c-0.2-1.833-0.4-3.117-0.6-3.85s-0.383-1.133-0.55-1.2c-0.133-0.1-0.217-0.133-0.25-0.1c-0.434-1.8-1-3.083-1.7-3.85
		c-0.7-0.733-1.417-1.167-2.15-1.3c-0.7-0.133-1.317-0.117-1.85,0.05c-0.5,0.133-0.75,0.217-0.75,0.25l-6.5-1.35l-3.25,2.45
		l-7.3-4.9h-2.7l-5.4-4.3c0.7-0.133,1.1-0.617,1.2-1.45c0.067-0.833,0.034-1.633-0.1-2.4c-0.167-0.8-0.267-1.233-0.3-1.3l-2.15-2.7
		c-0.133-0.967-0.217-1.833-0.25-2.6c0-0.733,0-1.117,0-1.15l-2.7-0.55l-4.6,0.8l-3-4.3L110.6,28l-3-1.85l-1.9,2.15l-0.55,3.75
		l-1.6,2.2l-1.6,0.5l-3.8,4.1l5.15,0.25l0.8,1.6l2.7,1.9l-1.1,2.7l1.65,2.15l2.15,1.65l3.25,7.3l1.05,5.4l-1.6,0.55l0.55,5.4
		l-3.25,3.75l2.15,1.1l1.9,8.65l2.15,1.1l1.35,2.7v2.4l3.55,2.7l-1.65,4.05l-0.55,5.15l-4.85,3.25v4.05l2.7,3.5l1.1,5.4l1.9,2.2
		l-1.4,6.2l3,2.95l-1.1,1.1l2.45,9.2l-1.6,2.15l-3.55-0.8l-4.85,5.1l-1.6-0.5l-1.35,2.4l1.6,2.15l-1.9,3.25l-1.9-0.8l-1.6,1.35
		l-1.1,8.4l-1.9,1.35l0.3,2.15l-0.45,1.1l2.925,1.225l2.925,1.175l0.55,2.7l1.85-1.6h0.025h0.025l0.3,0.1l0.1,0.025l2.8,0.925
		l-0.8,3l3,0.8l1.05,0.8l1.65,0.3l6.75,3.5l0.825,1.275l1.075,1.675 M200.85,194.35l2.15-0.95l4.85-1.35l6.475,3.25l2.175,1.05
		l5.4-8.1l2.125,0.5l5.425,1.15l0.675,0.275l2.025,0.775l2.675-0.6l0.875-0.2l1.875,1.575 M198.125,195.525l2.725-1.175
		 M198.125,195.525l-0.025,0.025l-2.95-1.85l-2.075,1.2l-10.7,6.95l-1.825,1.3l0.55,4v0.05l-3.25,0.55l-0.25,0.725L175.425,215
		l-0.025,0.05l-2.675,0.8H172.7l-2.925,4.2l-0.825,1.2l-2.3,0.4l-2.3,0.4l-0.05-0.1l-1.275,1.775l-0.775,1.125l0.75,3.6l-2.15,1.8
		v2.15l-1.8,1.45l-2.2,1.1l-0.075,0.425l-0.625,4.225l2.5,2.5v0.05l-0.7,2.85l1.45,3.95l-0.025,0.025L159.4,249l-1.275,1.25
		l-1.275,1.25l0.75,4.3l2.5,2.9l-1.175,3.5l-0.275,0.85v3.2v0.05v2.15l-3.25,11.5l1.075,1.625l1.125,1.625l1.8,0.35l3.225,3.225
		L164.4,285l2.9-0.7l1.8-2.9l-0.35-2.85l1.8,0.35l3.2-3.95l0.05-0.05l2.7,1.4l0.9,0.45l4.3-0.75h0.025h0.025l0.325,0.125
		l0.125,0.025l3.1,0.95l1.45-1.45l1.25,1.45l1.3,1.45l-0.45,2.55l-0.65,4.25l-1.075,0.725l-1.075,0.725l-0.45,2.35l-1,5.95
		l1.025,6.2l0.425,2.45l1.45,3.6l0.625-0.074L190.35,307l1.1,1.8l2.5,0.351l2.6,3.875l1.05,1.524l2.125,2.125l1.075-1.024
		l1.625,0.524l0.125,0.05l0.1,0.025l0.325,0.1l0.05-0.024 M281.5,242.1v-3.55l-2.15-0.75l-1.05-1.25l-7.2-8.45l-0.05-0.05
		l-0.7-1.725L270,225.55l-3.25-2.5l-5.75-1.8v-0.025l-0.05-0.025v-2.55l1.45-2.85l0.35-4.7l0.225-0.675 M193.075,194.9l2.075-1.25
		l2.975,1.875 M224.025,188.75l-2.125-0.45l-5.4,8.1l-2.175-1.1 M237.45,184.6l-0.15-0.4v-0.025 M234.825,190.35L232.15,191
		l-2.025-0.825 M242.85,194.425l-0.25-0.575l-5.05-2.05l-1.85-1.65 M250.2,177.65l1.45,1.4l0.8,2.7l0.825,0.375 M251.975,202.15
		l-4.675-1.45l-1.8-3.6l-2.15-1.45v-0.025 M105.225,165.725l-2.975-1.175l-17.9,43.675v0.025l-55.4-1.6l1.4,21.4H30.3l2.7,41.7
		l2.2-0.05l5.65-0.2l6.85,18.4l-1.8,4.65h14.95l4.1-13h13.375 M131.975,266.8l2.925,0.55l8.3,4.3l5.4-3.25l2.5,0.4l2.5,0.35
		l3.25-1.85l1.8-1.05 M110.9,168.1l-0.325-0.1 M127.3,180.4l-0.375,2.25l0.425-2.25 M132.55,210.975l-1.15-4.875l-2.45-2.45
		l1.1-6.75l-1.65-5.15l2.15-4.85l-3.75-3.5l0.125-0.75 M127.3,180.4l-1.025-1.675 M145.7,221.5l0.25-1.9l-1.2-2.025l-0.4-0.675
		l-2.7,1.35l-5.4-3.5l-3-0.8l-0.7-2.975l0.75,2.925l2.95,0.85 M144.75,217.575L146,219.6l-0.3,1.9l4.6,1.35l2.4-1.1l0.85-1.9
		l1.9,0.85l0.5,1.6h2.2l1.05-2.45l4.6-1.05l0.55,3.1v0.15 M156.775,235.375l0.075-0.475l2.2-1.05 M40.1,228.05h0.05l1.45,3.6
		l0.425,0.075l6.375,1.025l-1.8,2.825l-0.7,1.1l3.95-1.075l2.05,1.85l1.175,1.025l5.775-3.225l0.65,4.05l0.45,2.45l-0.7,1.45
		l2.5,5.05l0.975,0.45l2.975,1.35l5.05-7.6l7.2,1.8l3.15,3.7l1.2,1.35l5.35-1.05l1.8-1.1l0.025,0.025l0.025-0.025l1.45,1.1
		 M110.95,271.3l0.15,0.35l1.8-0.35l2.55,1.975L116,273.7l0.15,0.1l-0.35,2.55l1.075,1.25 M127.625,270.475L128,269.9h0.025
		l0.025-0.05l3.2,1.075l1.1-1.425l-1.45-2.85l0.075,0.025l-0.025-0.075l1.025,0.2 M108.625,265.925L108.6,265.9l-0.05,0.025
		l0.025,0.075 M108.55,265.925V265.9l-2.125,0.7H106.4l-0.625-0.5l-0.825-0.6l-2.5,2.55l-7.75-1.675l-0.55-0.125l-1.45-3.95l1.3-1.8
		l1.25-1.8l-6.5-0.75l1.625-7.275l0.575-2.425 M78.65,279.6v2.9l-1.425,1.425l0.725,2.125l3.6,3.6v0.05l0.35,3.2l2.15,0.45l3.6,0.65
		v2.5l2.525-0.35l2.525-0.35l3.85-1.35l2.3-0.85l0.45,1.025l1.35,2.975l1.425,1.075l1.425,1.075v-5v-0.05l4-0.35l-0.4-2.15h4
		l-0.4,2.85h8.625 M110.95,271.3l-1.1-2.525l-1.2-2.625 M108.625,265.925l1.225,2.85 M105.775,266.1l0.65,0.5 M90.9,248.25
		l-0.525,2.425 M82.3,249.3h-0.05l-1.15-1.35 M94,260.5l-1.25,1.8l1.45,3.95l0.5,0.125 M84.05,293.35l-2.15-0.4v-0.05
		 M90.175,296.15l-2.525,0.4v-0.05 M99.3,294.625l-0.45-0.975l-2.3,0.8 M119.05,274.925L119,274.9l-1.05,3.95l-1.075-1.25
		l-1.125-1.25l0.35-2.55l-0.65-0.525 M119.725,275.55l-0.675-0.625V274.9L119.725,275.55l2.9,2.675l5-7.75 M107.5,294.35v0.05
		l-4,0.35 M118.7,295.1h-8v-0.05 M119.35,295.1h1.8l6.85,3.25l4.7-1.1v-0.05l-4.7,1.1l-6.85-3.25h-1.825 M119.35,295.1h-0.65
		 M158.125,250.25l1.25-1.275 M151.1,268.8l-2.55-0.35l-5.4,3.25l-8.3-4.35l-3.875-0.675 M158.65,263.05V263l0.275-0.8
		 M158.65,266.3l-1.8,1 M131.25,270.925v0.025l-3.225-1.05 M122.625,278.225l-0.025,0.025l1.1,1l6.5,7.55l-1.6,2l-0.925,1.225
		l-0.025,0.025l5.4,4.35l-0.35,2.8 M127.675,290.025L127.65,290l0.95-1.2 M159.375,283.575l-0.025-0.025l-1.8-0.35l-1.075-1.625
		 M159.375,283.575l3.225,3.225l0.025-0.025 M139.9,334.45l0.75,11.45h7.9l0.4,5.05l-2.2,0.35v1.8l1.8-0.35l0.35,38.7l2.2,0.95
		l-0.4,3.949l1.45,2.5l2.55,0.351l1.8,0.75l1.4-1.8l-1.05-2.551l2.15-2.149l2.55,0.75l1.05-7.25l1.45-5l5.05,3.2l1.8-1.051
		l2.85,3.601l13.35-6.5l10.45,1.8l14.8-17.3l5,3.25l1.8,1.8l2.9,1.1l1.4,0.851l0.025-0.025l-0.025-0.024l1.85-3v-2.15l2.15-3.6
		l-0.7-2.15l-2.9-1.45l-2.15-2.5l-1.45-2.149V355.6V350.2l2.55-3.851l0.35-0.449l-0.275-0.801l-0.825-2.449l-8.65-7.2l-0.25-2.175
		l-0.1-0.726l-2.15-2.149l1.45-5.4l-3.25-1.45l-2.85-4.125l-1.15-1.625l1.125-0.899l1.075-0.9l-1.45-1.8l-2.825,2.125 M90.9,248.25
		l-1.425-1.075 M42.025,231.725l-0.475-0.075l-1.45-3.6 M45.9,236.675l-0.05,0.025l0.75-1.125 M53.075,238.475L53.05,238.5
		l-1.15-1.05 M62.725,248.7l-1.025-0.45l-2.5-5.05l0.7-1.45l-0.4-2.45 M35.2,269.7l-2.2,0.1l0.55,8.15l-3.5,2.45v2.7L28.4,285
		l1.35,1.35l-0.8,1.6l-2.15-0.8L23.55,292l2.45,2.45l0.8,4.6l-5.95,2.7l-3.5,5.4l1.9,2.699v2.7l-0.85,2.7l-2.4-1.9l-7.85,5.15v1.9
		l2.95,1.899l0.85,2.15l8.1,0.8l2.4-2.95l8.4-1.899l4.6,3.25l5.65,2.699l0.3,3.25l2.3,1.726l4.15,3.125l0.3,4.85L46,342.55l2.4,0.55
		l1.35,2.45l-3.25,6.75v3.2l3.55-1.35L55.7,355l3.125,3.375l7.425,7.975l3.25,7.301l2.95,2.149l-1.6,2.15l-0.8,2.45l1.85,0.8
		l0.825,1.075l0.825,1.074l0.8,12.15l-1.9,5.15l2.7,2.699l3.25-2.949l3.25,0.25l2.7-1.101l5.95,0.851l1.35,1.05l2.45-0.55l0.8-1.851
		l8.65-1.649l1.9-0.801l4.3,2.95l0.8,3l6.25,4.851l2.15-0.801l2.7,1.601l1.35,2.2l2.15,2.5l4.35-5.051l3.2,0.351l4.7-2.5l2.9-1.101
		l1.8-3.6l5.05-3.95l1.4-5.75l0.35,0.15 M64.45,299l-3.05-6.45h-0.525H60.85 M81.55,289.7l-3.6-3.6l-0.75-2.15l0.025-0.025
		 M83.325,298l0.025-0.05l-4.3-1.8v-1.8l-3.6-1.8l-3.25-1.05v0.025l-3.6,11.125l-0.05-0.025L65,300.15L64.45,299 M68.55,302.625
		l3.6-11.125l0.05,0.025 M78.325,279.6H64.95l-4.075,12.95 M113.3,345.9h-6.5l-0.4-2.9l1.1-5v-0.05l-3.25-3.601v-11.5h-3.95v-0.024
		 M125.925,336.95l-0.075-0.4l-5.05-2.899h0.05l19.05,0.699v0.101 M122.6,345.9l0.625-2.025l0.475-1.575l3.25,0.7l-1.025-6.05
		 M123.225,343.875l-0.575,2.025h-0.05h-9.3 M120.85,333.65l5,2.85l0.075,0.45 M103.5,299.75v0.05l-1.425-1.125 M82.925,299.175
		l0.4-1.175h0.025L82.925,299.175L79.05,310.6l6.8-1.1h0.05l2.5,1.45h8.3l0.35,8.649l3.95,0.7l-0.7,2.525 M302.775,243.6h-9.725
		l-0.7,5.4l-7.2,0.35l-0.025-0.05H285.1l-3.075-6.15l-0.525-1v-0.05l0.525,1.05 M302.725,243.55h0.025v0.025l0.025,0.025l2.725,7.8
		l0.15,0.4v0.025l-1.1,3.575l0.75,8.3l-2.55,0.75l-1.05,4.3l-3.6,3.25h-2.2l-3.2,4.3l-5.45,1.8l-0.35,6.15l0.05,0.05 M287.2,284.6
		l1.5,1.8l-1.8,5.05l-2.5,1.45l-1.1,1.8v0.025l0.75,2.125v0.05v2.1l-4.35,2.9l0.05,0.024l4.65,1.425v0.051v17.75 M285.125,249.3
		l7.175-0.35l0.75-5.4h9.675 M263.475,209l-1.775-1.1l-1.8,0.75l-3.6-2.9l-2.5,0.7l-0.025-0.05 M261,221.225l5.75,1.775l3.25,2.5
		l0.35,0.825 M278.3,236.55l1.05,1.2l2.15,0.75v0.05 M284.05,296.9l-0.75-2.15v-0.025 M305.65,251.825l-0.15-0.425 M177.6,208.475
		l0.25-0.775l3.25-0.55 M180.55,203.15v-0.05l1.825-1.25 M164.3,221.95l0.05-0.05 M166.65,221.65l2.3-0.45l0.825-1.15
		 M172.725,215.85l0.025-0.05l2.675-0.8 M162.25,224.85v-0.05l0.775-1.075 M182.075,276.125l-0.35-0.125 M176.5,276.3l-2.75-1.35
		 M188.85,281.1l0.4-2.55L188,277.1 M185.6,289.15l0.4-2.35l1.125-0.725 M206.225,316.9l-1.075,0.899l1.1,1.625 M202.975,316.35
		h-0.025l-0.3-0.1 M213.15,333.275l0.3,2.175l8.65,7.2l0.775,2.449 M237.95,346.25h-0.05l-1.775-1.775l-0.025-0.024l-2.9,4.649
		l-4.65-2.5l-1.45,1.801l-3.2-1.525l-1.1-0.525 M236.125,344.475l0.025-0.024l1.8,1.8l7.5-0.35h0.05 M245.8,345.95l22,3.149
		l7.2-2.149l0.175-6.3 M223.15,345.9l-0.3,0.449l1.05,0.525 M187.5,307.35h-0.05l-1.45-3.6l-0.375-2.45 M199.725,316.675
		L199.7,316.7l-2.15-2.15l-1-1.524 M223.475,372.675L234.3,379.4l19.45,3.6l16.95-9l21.95-5.45l20.725,8.25 M245.8,345.95
		l-0.35-0.05 M284.4,303.4l-4.7-1.45l0.05-0.025"/>
	
		<path fill-rule="evenodd" clip-rule="evenodd" fill="none" stroke="#aaa" stroke-width="0.7" stroke-linecap="round" stroke-linejoin="round" stroke-miterlimit="3" d="
		M262.975,210.425l9.425,5.125l5.95,5.65l-0.5,1.35l18.6,10.85l10-1.4l0.85-1.6l-1.9-2.45l-1.35-4.85l4.3,1.65l3.25-1.1l2.95-1.35
		l16.25-0.85l5.1,3l3.8-1.1l13.25,11.1l4.6-8.4l3.45-0.475l-0.2-0.275 M391.4,179.15l-1.7,34.75h-16.75l-0.3,6.75l-1.9,3.5
		l-4.05,2.75l-1.35-1.9l-4.35,0.575l5.75,8.375l0.5,10.25l7.05,6.25l0.8,7.55l6.5-8.65l10,17.55v14.6l4.6,1.6l-3.55,5.15l2.75,12.55
		v0.05 M275.175,340.65h7.775l1.6,1.649l3.5,1.351l3.8,3.199l2.7,5.4l6.5,0.55l3.5,5.15l3.25-2.15l-0.55-4.6l4.05,1.6l1.9-2.149
		l7.3,0.8l1.6-1.05l2.7,2.399l-0.25,6.75l3,0.3l-2.45,3.75l0.55,4.601l-4.35,6.25h-4.05l-3.875,2.35 M396.35,366.175l-16.1-0.625
		l-10-10l-3.75-1.1l-13-11.9l-8.9-15.399l-15.7,9.199l-12.7-17.3l-0.5-2.149l-3.55-5.4l1.1-8.4l4.85-4.85l0.3-3.8l-1.35-2.95
		l0.5-2.7l-1.85-2.15 M261.05,91.4l1.05,1.55l1.05,4.7l2.9,3.25l2.5-0.4l3.25,5.05v5.05l-2.15,1.45l3.95,3.25l2.55,5.75v5.05
		l3.95,3.95l0.7,4.7l2.2,1.45v3.95l-1.45,2.55l-1.1,6.1l2.9,11.55l-0.35,4.3l2.5,3.25l-33.15,2.15l-4.3,2.9l-0.2,2.35 M260.65,90.8
		l0.4,0.6 M127.35,180.4l4.3,0.85l2.15,1.4l5.05-1.8l7.55-1.4l0.75,1.4l2.85,0.4l1.8-2.55l5.05-3.95l3.6,0.35l-1.8-1.8l2.15-2.5
		l1.1-3.25l-5.4-9l2.15-1.8l8.3-3.6l4.7-1.45l2.15,2.15l6.85-1.1l1.8-3.6l-0.35-2.5l6.1-6.85l3.95-1.1l3.25-0.35l2.55,0.75l1.8-2.9
		l3.2-2.55l2.55,1.1v-2.5l2.15-2.9l0.75-2.9l-1.45-5.4l1.8-0.7l2.85-2.55l5.8-2.85l7.9,2.15l3.25,2.5l1.8,1.8l9-0.35l-3.6-11.5
		l4.35-6.5V96.9l2.5-2.85l-0.35-7.95 M195.4,138.35l-2.55,20.55l3.6,4.65l3.6-1.05l-1.4,12.95l-4.7,3.25l2.15,6.85l4.75,8.8
		l0.3,0.55 M198.1,195.55l-0.55,1.9l4.35,2.5l1.8,6.5l3.95,7.9l2.5,0.4l4.35,2.15l2.9,2.85v9.75l-5.05,3.25l1.4,2.5l-2.85,1.45
		l3.25,5.05l2.85-2.9l1.45,3.25l-0.6,2.45l3.5,1.85l3.25,4l2.9-4.7l2.85,2.9l5.8,3.2l3.6,6.5l2.15-0.35l5.4-3.25l3.25-3.6h4.7
		l21.25-7.95l5-1.05 M203.025,316.325L204.1,299l2.15,0.75l2.15-5.05l2.875-1.775l-2.525-5.075l5-3.6l2.55-2.5l7.55-4.35l1.1-1.8
		l-1.8-1.05l0.7-11.55l-10.45-2.15l2.9-6.85l6.1-3.25l-5-4.3l0.45-1.9 M84.35,208.225l6.5,8.425l-1.05,1.6l5.95,3.5l1.35-1.35
		l1.85,0.55l0.3,3l6.75,4.85l7.85,0.25l3.2,3.55l-4.1,3.4l-1.65,4.15l5.75,8.1l-2,3.75l3.45,2.2v-2l0.9-1.45l4.5,2.55l1.05,1.05
		l1.1,0.55l2.9-1.05l1.8-0.2l-0.4,3.95l1.3,0.35l-0.2-0.9l1.8,0.75l-2.15,4.3l0.875,4.7 M127.35,180.4h-0.05 M90.95,248.25l3.4,0.15
		l3.95-2.85l3.45-0.55l2.5-0.9l2-3.05l5.05-0.9 M116.55,253.35L115.7,255l1.35,1.35l-1.85,4.05l-3.55,4.05l1.65,1.6l-2.35,5.25
		l-1.1,3.75l-3.75,0.4l-0.2,1.6l-2.5,0.35l0.5,1.65l-0.9,0.7l-0.15,1.8l-1.7-0.15 M116,273.7l1.75-2.75l-0.7-2.5l3.4-4.5l3.25-1.8
		l2.9,2.85l-0.55,3.25l1.575,2.225 M108.625,265.925l2.675-5.075l-0.7-1.6l-0.35-2.9l-2.2-4.15l3.25-12.05 M108.575,266l0.05-0.075
		 M88.75,257.95l-1.45,1.1h-2.35l-2.35,0.75v2.3l-3.75-0.7l-0.525,18.15v0.05 M119.325,295.05l-0.475-1.2l3.05-2.9l-0.55-4.85
		l-5.6,0.55l-0.9-2l2.7-5.05l-3.75,0.75l-3.45,2.5L105.3,285l-1.8-1.45l-1.8-0.15l-0.55-2l-0.15-0.55l-2.35,2L88.2,282.3l-0.55-8.65
		L79,274 M108.65,266.15l-0.075-0.15 M90.95,248.25H90.9 M119.325,295.05l0.025,0.05 M118.7,295.1l1.85,5.85l3.8,0.25l0.8,7.55
		l2.2-1.6l2.95,6.199l-1.6,2.45l0.25,5.4l3.8,0.55l-1.35,4.85l-3,2.7l-0.25,4.05 M159.4,283.55l-0.025,0.025L154.1,288.5l-2.15,4.35
		l-3,1.85l-1.9,4.1V312l1.9,0.3l-0.55,22.15h-8.5 M43.7,331.325l1.2-0.925h2.7l3.25,1.6l0.25-1.9l1.65-1.05l-1.1-2.45l-2.7,1.351
		L47.3,325l-1.85-1.65l2.95-1.899h7.85l1.05,2.7l3-14.051h3.5l1.35-3.75l-2.7-4.05l2-3.3 M78.1,345.8l0.075-0.425L68.15,346.05
		v-1.85l-14.05-3l-4.85-5.95l-1.4-0.8 M58.825,358.375l3.125-2.825l4.3,1.851l0.25,3.55l5.15-2.2l3.25-3.5l2.45,2.15l7-0.5V350.1
		l-4.3-4.85l-1.875,0.125 M100.3,322.825l-1.4,1.325l-4.3-3.2l-7.05,1.85l-4.3,5.15l-8.4,0.3l1.1,5.4l3.5,0.8v2.45l-1.275,8.475
		 M72.725,382.275l5.975-2.726l0.8-2.149l-1.35-2.15l-0.55-2.45l3.5,1.101l2.2,2.699l5.1-6.199l3,0.5l-1.65,2.699l2.45,1.101
		l-0.25,2.7l0.5,3.25h5.15v-1.601l1.9-1.1l1.6-2.15l6.75-0.3l1.65-1.35l11.9-0.801l-0.85-13.25l-1.35-3.25l-1.6,1.65l-3.25-3.5
		l-1.05-9.1 M188.125,307.275l-1.625,3.375v7.55l-1.6,3.55l-0.8,4.05l-1.65,2.4l-2.15,1.899l1.9,3.801l-1.35,1.35l4.85,2.15
		l-6.2,5.149l0.25,2.95l-4.3,4.85l1.35,2.7v3.25l-2.2,0.851l-7.55-0.551l-2.4,1.351l2.7,4.85l-14.6,4.05l-1.35-1.6l-2.2,0.8
		 M302.725,243.55l-1.675-2.6l1.35-1.1l2.45,0.55v-2.45l5.65,1.65l3.55-3.25l-1.9-2.45l1.9-1.35l1.35-5.4l-3.25-0.8l-0.55-2.7
		 M302.725,243.55l0.025,0.025 M241.9,257.95l-0.35,13.35l1.1,3.6l0.3,3.95v0.025l1.45,3.575l5.05,0.75l0.7,1.45l8.65-6.5v-5.75
		l11.2-2.55l1.4,3.6l2.55-0.35l0.35-3.95l3.6,3.95l5.05-0.35l3.25-3.25l7.9,4.3 M211.275,292.925l1.075,2.175l9.7-10.85l3.95,4
		l16.95-9.4"/>
</g>
<text transform="matrix(0.85 0 0 1 83.3506 330.374)" fill="#069" font-family="'_sans'" font-size="8">P132</text>
<text transform="matrix(0.85 0 0 1 59.75 261.6743)" fill="#069" font-family="'_sans'" font-size="8">P130</text>
<text transform="matrix(0.85 0 0 1 205.6504 144.5244)" fill="#069" font-family="'_sans'" font-size="8">P126</text>
<text transform="matrix(0.85 0 0 1 118.1006 234.7744)" fill="#069" font-family="'_sans'" font-size="8">P128</text>
<text transform="matrix(0.85 0 0 1 151.8506 305.124)" fill="#069" font-family="'_sans'" font-size="8">P131</text>
<text transform="matrix(0.85 0 0 1 243.2998 260.5244)" fill="#069" font-family="'_sans'" font-size="8">P129</text>
<text transform="matrix(0.85 0 0 1 327.3506 230.9741)" fill="#069" font-family="'_sans'" font-size="8">P127</text>
<text transform="matrix(0.85 0 0 1 332.8506 340.2246)" fill="#069" font-family="'_sans'" font-size="8">P133</text>
</svg>
