<?xml version="1.0" encoding="utf-8"?>
<!-- Generator: Adobe Illustrator 15.0.2, SVG Export Plug-In . SVG Version: 6.00 Build 0)  -->
<!DOCTYPE svg PUBLIC "-//W3C//DTD SVG 1.1//EN" "http://www.w3.org/Graphics/SVG/1.1/DTD/svg11.dtd">
<svg version="1.1" id="Layer_1" xmlns="http://www.w3.org/2000/svg" xmlns:xlink="http://www.w3.org/1999/xlink" x="0px" y="0px"
	 width="800px" height="600px" viewBox="0 0 800 600" enable-background="new 0 0 800 600" xml:space="preserve">
<g>
	<path fill-rule="evenodd" clip-rule="evenodd" fill="#c8c8c8" d="M291.45,118.225l2.65,1.675l13.05-1.15l3.75,2.125l0.65,0.375
		l4.4,1.55l-4.4-1.55l-0.65-0.375L313.35,101l-0.2-3.7l-11.9,0.2v-4.1l-0.85-2.05l-0.4-2.9l-3.3-3.9l-2.65-1.85l-0.8-0.4l0.8,0.4
		l2.65,1.85l3.3,3.9l0.4,2.9l0.85,2.05v4.1l11.9-0.2l0.2,3.7l-2.45,19.875l-3.75-2.125l-13.05,1.15L291.45,118.225l4-2.125l2.1-0.15
		l1.55-1.95l-2.7-2.5l-0.75-0.15l-2.3-0.45l-2.775-0.075l2.775,0.075l2.3,0.45l-2.3-0.4l-2.775-0.125l-12.025-0.475l-9.35-1.4
		l-2.15-0.3l-1.425,1.15l1.425-1.2l2.15,0.35l-2.15-0.35l-1.425,1.2l-2.375,1.9l-3.85-3.45l-13.25,9.2l-1.9,1.35l-2.3-0.35
		l-5.7,0.15v-0.05l5.7-0.15l2.3,0.35l1.9-1.3l-1.9,1.3l-2.3-0.35l-5.7,0.15h-0.05l-1.9-25.1l-0.575-2.75l6.025-3.05l2.85,0.2
		l1.05-3.3l-2.3-4.1l3.3-3.3l22.05-2.05l1.4,11.7l8.25,2.9l2.65-0.2l4.95-7l0.6-2.5l1.45-1.4l7.25,3.7l1.2-4.55l1.65-3.7l3.1-4.7
		l0.85-7.85l-0.25-9.25l0.25,9.25l-0.85,7.85l-3.1,4.7l-1.65,3.7l-1.2,4.55L286,78.6l-1.45,1.4l-0.6,2.5l-4.95,7l-2.65,0.2
		l-8.25-2.9l-1.4-11.7l-22.05,2.05l-3.3,3.3l2.3,4.1l-1.05,3.3l-2.85-0.2l-6.025,3.05l-3.475-16.2l-8.9-19.85L211,47.45l-13.5-6
		l-1.45-3.9V34.4l12.6,0.95l11.05,2.55l3.8-2.55l3.15-4.75l0.95-5.35l4.75,1.25l5.05,3.8l3.15-0.95l1.55-3.15l3.15,0.3l2.85,6.65
		l5.4-0.95l3.45,0.95l8.85,3.8l2.2,4.7l4.7,4.75l7.3,0.95l7.55,1.6l8.2-2.55l-0.95,2.2l2.85,2.2l2.85,1.3l-0.65-4.1l5.7-2.85
		l3.75,0.95l1.3,0.95l0.95,2.5l1.9,1.9l0.9-3.8l2.25-3.45l4.4,0.95l5.05,3.15l3.8-2.2l6.6,0.95l0.95,2.5l2.85,0.95l7.25-3.15
		l6.3,4.75l0.65-11.7l6,4.75l5.35-0.65l9.15,1.6l1.25,4.7l2.85,3.15l5.7-1.85l4.7,1.25l4.1,0.6v4.45l0.95,4.7l2.85,0.35l0.3-4.75
		l2.55-1.55l-2.15,61.95l-2.25-1.05l2.25,1.05v0.05l-2.25-1.1l-3.75-1.75l-1.925,1.9l-1.175,1.15l-7.25,1.35l-1.575,1.325
		l1.575-1.325l7.25-1.35l1.175-1.15l-1.175,1.2l-7.25,1.35l-1.575,1.275l-3.975,3.3l-0.05,0.025l-2.975,5.2l-0.625,1.1h-5.4
		l0.025-0.05l5.925-21.05h-3.25l-6.175-2.875l-2.075-0.925l-3.05,1.9l-0.475,0.95l-0.475,0.95l-1.35,1.05l-1.35,1.1l-0.05,0.3
		l-0.35,2.15l3.45,2.3l-6.15,2.15l-2.075,0.75h-0.025l-0.5,1.1l-0.45,1l-2.3,2.3l-0.25,0.75l-0.7,2.3l-0.75,0.1l-2.3,0.3l-1.35-0.6
		h-1.9l-2.3,1.35l-2.15-0.55l-11.5,0.2l-0.3-3.05l-0.8-7.7l-6.15,0.2l-0.45,0.75l-0.35,0.6l0.8,3.4v0.05l-4.4-1.55l-0.65-0.375
		l-3.8-2.125l-7.525,0.675l-5.475,0.475l-2.7-1.7L291.45,118.225z M367.125,131.6h5.375l0.625-1.05l-0.625,1.05H367.125z
		 M358.025,109.6l0.475-1l3.05-1.9l2.075,0.975l-2.075-0.975l-3.05,1.9L358.025,109.6z M349.675,120.35l0.025-0.05l2.05-0.7
		l-2.05,0.7L349.675,120.35z M346.15,125.5l0.25-0.8l2.3-2.3l0.45-0.95l-0.45,0.95l-2.3,2.3L346.15,125.5z M354.8,113l0.05-0.35
		l1.35-1.05l-1.35,1.05L354.8,113z M341.05,127.6l1.35,0.55l2.3-0.25l-2.3,0.25L341.05,127.6z M322.9,125.55l0.35,3l11.5-0.2
		l2.1,0.6l-2.1-0.6l-11.5,0.2L322.9,125.55z M334.725,179.775l-1.25,0.875l1.225-0.9L334.725,179.775z M311.4,170.425l0.15-0.45V170
		L311.4,170.425z M309.125,167.375l-0.275,0.325l-2.1,0.35l2.1-0.4L309.125,167.375z M303.55,174.6l0.1-2.7l-0.65-2.4l0.7,2.4
		L303.55,174.6z M300.8,176.7l-0.75-2.3h0.025l0.725,2.25V176.7z M303,179.45l-2.2,0.9v-0.05L303,179.45z M307.3,176.7v-0.05
		l1.95-1.15l1.7,3.45l-0.025,0.025l-1.675-3.425L307.3,176.7z M49.7,149.3l-3.45,1.15l-3.45-3.15l-0.55-2.05l-5.45,2.05l-4.35-1.45
		v-0.05l4.35,1.45l5.45-2.05l0.55,2.05l3.45,3.15l3.45-1.15V149.3z M403.6,341.5l-1.774-2.075l-0.4,0.226L401.2,339.8l-3.05-3.05
		L397,335l-3.8-2.85l-3.65-0.4l-1.95-1.15l-2.3,1.551l-1.9-1.15l-1.15,0.95l-1.7,0.95l-1.35-1.351l-1-0.25l-3.05-0.7l-1.15,0.2
		l-2.65-0.6l-1,0.825l-1.3,1.125l-0.2,1.35l-9.6,5.15l-3.65-0.95l-2.85-0.3l-0.95-0.101l-2.5,1.15v0.05l-1.15-1.1L347,336.35
		l-1.9-0.199v-0.025l-0.6-3.825l-0.4-2.3l-2.85-3.8l-8.45-7.101l-1.925-2.774l-3.225-4.525l-4.6-1.55l-1.35-1.3l-1.575,1.125
		l-0.525,0.375l-0.95-3.65l-0.2-2.3l-4.2-0.55h-0.05l-1.35-1.375l-2.25-2.275l0.175-2.575l0.175-2.575l-7.85-8.65l5.75-15.5
		l-0.75-2.15l0.275-2.575l0.275-2.575l-4-0.95l-1.45-3.725l0.05-0.025l-0.15-0.3l3.45-1.15h0.025h0.025l6.375,0.75l1.625,0.2
		l4.2-2.3l1.1-1.05l1.05-1.05l2.85,2.1l1.35,2.1l2.05-0.925L328,257l5.6,0.75l2.525-20.6l0.325-3l0.05,0.05l2.25,2.1h2.1l1.95,1.3
		h2.45l1,1l2.1-1.35l3.65-0.6l4.6-2.3l1.9,2.7l3.25,0.75l1.75,0.95l0.55,2.5l3.05,2.3l0.6,2.9l6.15,0.2l3.25-0.6l3.45,1.35
		l3.325-1.825l0.475-0.275h0.025l9.175,2.8l-0.25,7.5v0.05l10.351,85.85l-0.051-0.075V341.5z M384.375,245.3l-0.5,0.275
		L384.375,245.3z M336.5,234.2l-0.375,2.95L336.5,234.2z M325.15,258.3l6.75,9.1l-1.65,0.8l-0.4,3.7l3.25,8.25l0.85,7l-0.65,4.3
		l1.05,0.25l6.2,3.3l3.1-3.1l3.5-2.25l1.6-2.05l-1.6-3.3l1-2.25l-0.8-3.5l2.05-1.25l-2.9-1.25l2.05-4.1l3.5,1.05l2.7,1.2l2.65-0.8
		l1.25-1.85l0.8-3.5l-0.8-1.05l-2.7-0.2l-2.25-1.85l-2.85,0.85l-1.25-4.75l-3.3,0.4l-1.05-1l-3.05,1.4l-0.4-1.85l2.45-2.65l2.25-0.4
		l2.7-3.1l1.85,0.8l3.05-4.3l7.65,0.4l1.4-4.1l-1.4-2.05l-0.2-1.85l-2.9-1.25l-0.15-4.45l0.15,4.45l2.9,1.25l0.2,1.85l1.4,2.05
		l-1.4,4.1l-7.65-0.4l-3.05,4.3l-1.85-0.8l-2.7,3.1l-2.25,0.4L341.8,260l0.4,1.85l3.05-1.4l1.05,1l3.3-0.4l1.25,4.75l2.85-0.85
		l2.25,1.85l2.7,0.2l0.8,1.05l-0.8,3.5l-1.25,1.85l-2.65,0.8l-2.7-1.2l-3.5-1.05l-2.05,4.1l2.9,1.25l-2.05,1.25l0.8,3.5l-1,2.25
		l1.6,3.3l-1.6,2.05l-3.5,2.25l-3.1,3.1l-6.2-3.3l-1.05-0.25l0.65-4.3l-0.85-7l-3.25-8.25l0.4-3.7l1.65-0.8L325.15,258.3z
		 M310.5,293.95l-0.2-3.9l-1.65-2.25l1.45-2.9l0.4-2.85l1.05,2.05l1.2,4.1l1.65-0.6l2.3,0.2l2.05-1.65l5.55,1.65l2.05,2.05l6.95,1.6
		l-6.95-1.6l-2.05-2.05l-5.55-1.65l-2.05,1.65l-2.3-0.2l-1.65,0.6l-1.2-4.1l-1.05-2.05l-0.4,2.85l-1.45,2.9l1.65,2.25L310.5,293.95z
		 M368.975,384.325l1.2-1.4l0.025,0.025L368.975,384.325z M369.85,411.725l1.3,1.075l0.4,2.9l1.275,1.024L371.5,415.7l-0.35-2.851
		L369.85,411.725z M371.35,330.2l2.7,0.55l1.15-0.2l3,0.75l-3-0.75l-1.15,0.2L371.35,330.2z M379.2,331.55l1.35,1.3l1.75-0.949
		l1.15-0.95l1.9,1.149l2.3-1.55l1.9,1.15l3.65,0.399l3.85,2.9l1.15,1.7l3.05,3.05l0.175-0.1l-0.175,0.1l-3.05-3.05l-1.15-1.7
		l-3.85-2.9l-3.65-0.399l-1.9-1.15l-2.3,1.55l-1.9-1.149l-1.15,0.95l-1.75,0.949L379.2,331.55z M352.75,337.4l2.9,0.25l3.65,0.949
		l9.55-5.149l0.2-1.351l1.3-1.074l-1.3,1.074l-0.2,1.351l-9.55,5.149l-3.65-0.949L352.75,337.4z M401.825,339.425l0.024-0.024
		l1.75,2.024l-1.75-2.024L401.825,339.425z M268.6,255.9l2.3,0.1l2.2,0.825l-2.2-0.775L268.6,255.9z M269.075,285.825l1.125-1.425
		h0.05L269.075,285.825z M330.875,316.325l1.975,2.725l8.4,7.101l2.9,3.85l0.35,2.3l-0.35-2.3l-2.9-3.85l-8.4-7.101L330.875,316.325
		z M345.1,336.15l1.9,0.149l1.15,1.101L347,336.3L345.1,336.15z M237.425,176.975l0.1-1.075h0.025L237.425,176.975z M253.625,172.65
		l0.775-0.35l-1.15-2.3l-2.1-1.35l-0.4-1.55h0.05l0.4,1.55l2.1,1.35l1.15,2.3L253.625,172.65z M256.35,162.7l-0.75,1.35l-0.35,0.05
		l0.3-0.05L256.35,162.7z M179.125,216.525l1.125,1.925l4,0.65v0.05l-4-0.65l-1.15-1.95L179.125,216.525z M180.975,213.5l-3.225-0.2
		v-0.05l3.25,0.2L180.975,213.5z M177.75,228.45v-0.05l2.7-5l0.925-2.575l0.025-0.025l-0.95,2.65L177.75,228.45z M175.85,229.775
		l-0.4-1.525v-0.025l0.4,1.525V229.775z M170.95,242.95l-0.1-0.3v-0.025L170.95,242.95z M136.175,251.2l2.175,0.425l2.2,0.375h0.05
		l1.125-0.975l1.325-1.175l3.3,0.6l2.65,0.95l3.85-0.75l3.65,1.5l2.1,3.1l4.4,0.2l1.15-0.2l0.95,2.85h5.1v0.05l-0.1,3.2l0.125,0.525
		l1.375,6.225l-2.3,1.95l-1.3,11.1l-0.725,2.65l-1.575,5.8l-3.65,7.45l-5.2,7.851l-2.65,8.85l-1.55,7.65l-3.25,3.449l-2.1,13.051
		l-3.85,4.399v7.65l-7.5,8.05l-1.15,8.2v0.024l0.8,2.875v0.025v0.025l-0.05,0.25c-0.033,0.233-0.15,0.85-0.35,1.85
		c-0.081,0.323-0.206,0.606-0.375,0.85l-0.675,0.575c-0.016,0.008-0.032,0.016-0.05,0.025l-0.475,0.225
		c-0.429,0.168-0.837,0.276-1.225,0.325c-0.533,0.066-0.816,0.1-0.85,0.1l-2.5-1.149l-3.45,0.399v-0.05l-0.75-8.2l-4.4-3.1
		l-1.2-3.225l-0.75-1.95l-11.55-7.575l0.025-0.025l6.375-13.074l1.15-4.2l2.85,0.55h0.05l4-0.75l0.95-2.5l-1.15-1.75l-0.4-1.7
		l-1.225-1.35l-3.175-3.45v-3.45l-4.2-3.25l-5.75,0.95l-1.15-1.9l-1.15-2.899l1.9-1.5l-0.2-1.351l-1.3-1.149l0.15-1.15l0.6-0.149
		l7.3-1.801l7.05-3.399l0.725,0.15l1.025,0.2l1.5,0.525l0.8,0.274l1.35-2.899l2.7-0.975l0.7-0.275l-1.125-2.975l1.175,2.925
		l2.85-1.025l0.05-0.025l-0.4-2.85v-2.65l4.4-4.4l-0.025-0.025l0.025-0.025l-1.35-2.1l2.725-4.425l0.925-1.475l-0.025-0.025
		l0.025-0.025l-11.9-13.6l9.375-11.1l0.975-1.15l2.2,0.375l-2.2-0.375l-0.975,1.15l0.975-1.2H136.175l-0.025,0.05L136.175,251.2z
		 M141.725,251.025l1.325-1.125l3.25,0.6l2.7,0.95l3.85-0.75l3.65,1.5l2.1,3.1l4.4,0.2l1.15-0.2l0.95,2.85h5.1h-5.1l-0.95-2.85
		l-1.15,0.2l-4.4-0.2l-2.1-3.1l-3.65-1.5l-3.85,0.75l-2.7-0.95l-3.25-0.6L141.725,251.025z M136.775,278.625l0.9-1.5l0.025,0.025
		L136.775,278.625z M131,289.6v-0.05l4.375-4.375l0.025,0.025L131,289.6z M181.15,192.825l-0.65-0.175l-1.05-0.7l1.1,0.7
		L181.15,192.825z M87.225,152.675L88.8,154.8l1.95-0.4l1.5,0.6l-0.025,0.05L92.25,155l-1.5-0.6l-1.95,0.4L87.225,152.675
		L87.2,152.65l0.2,0.05l6-7.2l6.65-4l4.6-6.9l5.15-0.6l7.75,5.45l4.35-1.15l3.7,1.45l3.45,3.45v6.05l3.75,1.45l6.6-1.15l6.05-0.3
		l2.6,3.15l6.05-0.3l2,2.05l6.05,0.85l-0.9,8.05l-8.6-1.3l-4.4-1.75l-4.8,4.4l-4.05,1.55l-2.65,0.55l-2.7,4.6l-3.05,3.1
		l-3.475,1.325l-0.725,1.125l-2.7,1.35l2.1,2.9l1.55,0.75l0.95-0.55l1.7-1.55h1.75l1.35,1.7l-0.95,5l0.15,4.6l-0.15,1.35v2.3
		l1.7,0.4l3.05,2.3l-0.15,1.3l-1.15,2.7l0.35,4.4l2.1,1.55l7.3,3.05l0.95,2.3l1.35,1.75h1.55h-1.55l-1.35-1.75l-0.95-2.3l-7.3-3.05
		l-2.1-1.55l-0.35-4.4l1.15-2.7l0.15-1.3l-3.05-2.3l-1.7-0.4v-2.3l0.15-1.35l-0.15-4.6l0.95-5l-1.35-1.7h-1.75l-1.7,1.55l-0.95,0.55
		l-1.55-0.75l-2.1-2.9l2.7-1.35l0.725-1.125L131,174.2l3.05-3.1l2.7-4.6l2.65-0.55l4.05-1.55l4.8-4.4l4.4,1.75l8.6,1.3l0.6,13.2
		l8.6,9.8l4.45,2.9l-2.7,4.95l0.2,5.55l-1.3,8.7l-0.05,0.35h-2.7l-5-2.85L158.4,202l-1.025-1.125L155.7,199.1l-1.35,0.2v9.95
		l1.85,5.175l-0.45-1.175l0.15,0.6l-4.2-0.8l-1.75,1.75l-1.325,1.725l-1.325,1.725h-0.05l-4.55-0.75h-0.05l-4.35,0.75h-0.025
		l-3.625-1.55h-0.025l-9.225,4.825l-0.675,0.175l-8.875,2.7l-0.4,3.8h-1.9l-0.75,2.9l-0.05-0.025l-2.45-0.775l-1.9,1.8l-1.15,1.1
		l-3.45,5.55l1.6,3.7l2-0.25l0.8,2.5l0.95,0.95v0.05l-1-0.95l-0.75-2.5l-2,0.25l-1.65-3.75l3.45-5.55l1.2-1.1l-1.2,1.1l-3.45,5.55
		l1.65,3.75h-0.05l0.35,0.675v0.025l-0.45,2l-0.025,0.175L105.1,245.9l-4-0.4L98,243l0.025-0.025l3.075,2.475l4,0.4l0.125-0.475
		l-0.125,0.475l-4-0.4l-3.075-2.475l2.275-1.675l-0.05-0.025l0.05-0.025l-4.8-2.5l-1.5-1.7l-0.8,2.45l-1.3,2.7l-3.1-9.2l-1.15-1.275
		L88.8,233l3.1,9.2l1.3-2.7l0.8-2.45l1.5,1.7l4.8,2.5l-0.05,0.025L95.5,238.8l-1.5-1.7l-0.8,2.45l-1.3,2.7l-3.1-9.2l-1.15-1.325
		l-3.45-3.875l0.075-0.5l0.025-0.175l0.3-1.775l2.3-0.8l1.15-4.2l4.8-4.2l-0.025-0.025L91.3,214.25v-0.05v-6.25l6.7-2.9l-0.05-0.025
		l-2.8-1.675l-3.65,0.55v-0.05l-0.2-4.35l2.1-0.95l-0.025-0.05l-0.725-1.1v-0.05l0.2-2.85l-0.925-3.1l-0.225-0.7l-0.8-5l-1.3-1.7
		v-0.05l-0.4-4.35l-1.55-3.3v-0.05v-3.4l2.3-1.7l1.95-4.2l-0.025-0.025L90.55,165.4l-1.35-2.3l0.025-0.025l1.125-2.475l1.9-5.55
		h-0.025l-1.475-0.6l-1.95,0.4l-1.6-2.15l-3.85-0.55l-3.45,2.6l-2.3-2l-3.15,2l-3.75-2l-8.35,4.6l-7.15,1.15l-5.5-3.45V155l5.5,3.45
		l7.15-1.15l8.35-4.6l3.75,2l3.15-2l2.3,2l3.45-2.6L87.225,152.675z M107.85,251.6l0.5-1.1l1.15-1.55l-0.25-2.45l0.3,2.4l-1.15,1.55
		L107.85,251.6z M108.95,257.95l-1.35-1.5l-1.75-0.6l0.525-1.45l-0.475,1.4l1.7,0.6l1.35,1.5V257.95z M227.875,208.95L223.1,220.6
		l-0.125,0.55l0.125-0.6l13.2-32.2v0.05L227.875,208.95z M310.9,120.875v0.05V120.875z M315.5,118.8l0.45-0.8l6.15-0.2v0.05v-0.05
		l-6.15,0.2L315.5,118.8z M271.65,193.55l0.975-1.725l-0.925,1.725H271.65z M271.475,193.5l-8.925-1.7l5.3,0.8L271.475,193.5z
		 M296.9,183.75l-0.1,2.3l-0.05,0.05L296.9,183.75z M32.75,142.1l-0.85-3.45l-3.75,1.75l-4.6,0.55l-4,4.6v-0.05l4-4.6l4.6-0.55
		l3.75-1.75l0.85,3.45V142.1z M28.75,166.2v0.05l-1.15,2.3l-3.45,2.3l-0.1,0.425l0.1-0.475l3.45-2.3L28.75,166.2z M23.975,184.65
		l-0.125,0.6v-0.05L23.975,184.65z M40.5,201.975V202l-6.3,24.725V226.7L40.5,201.975z M40.8,319.55l-0.1,0.5l-1.9-0.2l1.9,0.15
		L40.8,319.55z M30.625,248.525l0.125-0.575V248L30.625,248.525z M30.35,244.15v-0.05l2.1-8.8l1.55-3.85l6.05-1.275l0.1,0.025
		L34,231.5l-1.55,3.85L30.35,244.15z M29.2,333.45v0.05l-3.85,5.35l-1.9,3.851v-0.05l1.9-3.851L29.2,333.45z M27.65,324.075v-0.025
		l3.65-4.6l4.4-1.55l3.1,0.6v0.05l-3.1-0.6l-4.4,1.55L27.65,324.075z M113.8,274.9l0.15,2.55l2.5,2.3l2.3,3.65l1.3,0.95l1.35,2.9
		l1.35,1.15h1.55l1.975,2.9l-2.025-2.85h-1.5l-1.35-1.15l-1.35-2.9l-1.35-0.95l-2.3-3.65l-2.5-2.3L113.8,274.9z M109.15,272.7h2.1
		l2.5,1.3v0.05l-2.5-1.3h-2.1V272.7z M92.825,216.175l0.025-0.025l-1.55-1.95l1.55,1.95L92.825,216.175z M93.375,198.5H93.4
		l-0.75-1.15l0.75,1.15H93.375z M97.95,205.025L98,205l-2.85-1.7l-3.65,0.55l3.65-0.55L98,205L97.95,205.025z M91.15,169.75l6.7,0.6
		L99.2,169l2.1-0.2l1.7-1.15l3.1,1.55l2.3,0.75l0.15,9.6l1,1.55l2.1,0.15l3.65-2.65l1.3-2.5l0.8-2.7l2.85-2.1l0.6-2.7
		c0.033-0.033,0.383-0.383,1.05-1.05c0.667-0.667,1.367-1.383,2.1-2.15c0.733-0.733,1.217-1.25,1.45-1.55
		c0.333-0.434,0.75-0.917,1.25-1.45s0.783-0.816,0.85-0.85l1.55,0.75l-0.6,2.7l-3.05,5.15l2.1,5.35l-0.025,0.025l0.025-0.025
		l-2.1-5.35l3.05-5.15l0.6-2.7l-1.55-0.75c-0.066,0.034-0.35,0.317-0.85,0.85s-0.917,1.017-1.25,1.45
		c-0.233,0.3-0.717,0.816-1.45,1.55c-0.733,0.767-1.433,1.483-2.1,2.15c-0.667,0.667-1.017,1.017-1.05,1.05l-0.6,2.7l-2.85,2.1
		l-0.8,2.7l-1.3,2.5l-3.65,2.65l-2.1-0.15l-1-1.55l-0.15-9.6l-2.3-0.75l-3.1-1.55l-1.7,1.15l-2.1,0.2l-1.35,1.35L91.15,169.75z
		 M89.225,163.075l1.325,2.275l1.35,1.55l-0.025,0.025L91.9,166.9l-1.35-1.55L89.225,163.075z M87.65,176.25l1.55,3.3v0.05v-0.05
		L87.65,176.25z M89.6,183.95l1.3,1.7l0.8,5l0.225,0.75l-0.225-0.75l-0.8-5L89.6,183.95z M161.05,167.5l-2.1-1.15l-0.95,1.9
		l-0.4,4.2l-3.25,6.15l-2.3,6.3l0.4,3.3l4.4,8.6v2.7v-2.7l-4.4-8.6l-0.4-3.3l2.3-6.3l3.25-6.15l0.4-4.2l0.95-1.9L161.05,167.5z
		 M157.375,200.875l1.025,1.075l4.95,3.65l5,2.85h2.7l0.05-0.3l-0.05,0.3h-2.7l-5-2.85l-4.95-3.65L157.375,200.875z M154.35,199.3
		v-0.05l1.35-0.15l-1.35,0.15V199.3z M147.25,218.25l1.375-1.725L147.25,218.25z M155.9,213.85l-1.55-4.6L155.9,213.85z
		 M124.725,221.7l0.675-0.2l9.2-4.8h0.025H134.6l-9.2,4.8L124.725,221.7z M112.75,231.075l0.8-2.875L112.75,231.075z M131.4,295.1
		l13.2-2.1l5.55-2.5l6.3-10.7l4.6,2.65l1.55-0.2l3.85,1.55h0.825h-0.825l-3.85-1.55l-1.55,0.2l-4.6-2.65l-6.3,10.7l-5.55,2.5
		L131.4,295.1z M131.35,295.125v0.025l-3.6,1.325l3.6-1.325V295.125z M161.3,319.3l-0.2-4.25l2.1-3.05l0.4-3.45l3.05-3.85l-0.2-1.7
		l0.6-1.55h1.15l2.5-5.9l2.1-2.15l2.3-0.95l0.95-2.1h1.55l1.5,0.55l-0.35,2.35l0.95,2.1l1.55,2.45l0.55,2.351l-1.35,4.949l-0.35,4.2
		l-3.45,2.7l-3.85-0.4l-3.25,1.75l-2.3,2.851l0.95,4.6l-1.9,5l-1.75,1.351l-2.1-0.75L161.3,319.3z M128.7,296.7l-0.75,3.45
		l0.95,0.949l1.7,1.15l0.95,5.15l1.75,0.8h3.25l7.85,3.25l6.15,11.7l-6.15-11.7l-7.85-3.25h-3.25l-1.75-0.8l-0.95-5.15l-1.7-1.15
		l-0.95-0.949L128.7,296.7z M105.3,304.4l-0.55,0.149l-0.2,1.15l1.35,1.149l0.15,1.351l-0.15-1.351l-1.35-1.149l0.2-1.15
		L105.3,304.4z M119.575,323.7l1.275,1.35l0.35,1.7l-0.35-1.7L119.575,323.7z M118.5,356.075l0.05,0.024l0.7,1.926l-0.7-1.926
		L118.5,356.075z M120.25,384.45l-0.2-2.5l1.75-0.8l1.35,0.399l0.95,0.95h0.75l0.95-0.95l2.1-0.55v5.75l-1.3,0.95l-1-1.351
		l-1.3-1.35l-2.7,1.55L120.25,384.45z M135.6,369.125l-0.8-2.875v-0.025v0.025L135.6,369.125z M122.9,300.075l-2.525-0.725
		L122.9,300.075z M265.35,211.55l-2.1-0.35l-2.325-0.875l2.325,0.825L265.35,211.55z M257.2,214.4l0.9,1.95l0.35,0.05l-0.4-0.05
		L257.2,214.4z M250.05,225.475l0.3-0.075l0.25-0.05l1.7,0.75l0.6,2.3l2.3,3.45l1.9,1.1l-1.9-1.05l-2.3-3.45l-0.6-2.3l-1.7-0.8
		L250.05,225.475z M319.9,255.15l-1.05,1.05l-4.2,2.3h-0.05h0.05l4.2-2.3L319.9,255.15z M306.575,257.55l-3.425,1.15l1.5,4l4.05,1
		l-0.325,2.575l0.325-2.575l-4.05-1l-1.5-4L306.575,257.55z M308.1,268.85l0.8,2.1l-5.75,15.55l7.85,8.6l-0.225,2.625L311,295.1
		l-7.85-8.6l5.75-15.55L308.1,268.85z M170.225,261.875L170.1,261.4v-0.05v0.05L170.225,261.875z M242.95,371.5l2-3.45l2.9-2.899
		l0.55-3.15l1.45,0.3l2,1.15l-1.15,4.6l-3.45,3.15l-3.15,4.6l-1.45-1.45L242.95,371.5z M312.85,302.575l1.4,1.375L312.85,302.575z
		 M320.125,310.075l1.575-1.175l1.35,1.35l-1.35-1.35L320.125,310.075z M245.25,345.6l1.45-1.699l1.4,4l-1.15,5.75v7.5l-2.55,3.449
		l-1.75-5.449l0.85-3.45l2.05-3.2l-1.15-2.3L245.25,345.6z M266.5,366.6l1.7-0.6l3.45-5.45l1.425-1.399l-1.425,1.449l-3.45,5.45
		L266.5,366.6z M294.1,425.65l-2.2,0.399l-0.4-0.8l0.4,0.75L294.1,425.65z M324.4,404.575v-0.025l5.55-2.3l1.325,1.375l-1.325-1.325
		L324.4,404.575z M336.85,405.15l0.2,2.1l-0.75,1.875l0.7-1.875L336.85,405.15z M337.125,411.175l-1.225,0.875l0.95,1.15l-1-1.15
		L337.125,411.175z M343.675,420.55l2.175,0.101l0.75-0.95v0.05l-0.75,0.95L343.675,420.55z M348.55,417.725l-2.15,0.676v-0.051
		L348.55,417.725z M351.2,417.175l-0.375-0.125h0.025L351.2,417.175z M357.9,414.75L356,414l-0.95,2.3l-1.025,1.275l1.025-1.325
		l0.95-2.3L357.9,414.75z M342.875,418.65l-0.125-2.351h-3.05v-0.05h3.1L342.875,418.65z M292.025,426.4l0.025,0.05l-6.3,0.3
		l-0.975,1.15l0.975-1.2L292.025,426.4z M292,426.375l-7.1-2.275l-1.35-2.699l8.425,4.925L292,426.375z M308.9,467.975l-2.15-0.125
		L302.4,467l-0.825,0.425l0.875-0.475l4.3,0.85L308.9,467.975z M262.675,500.05l1.225-1.2l2-6.35l8.35-13.2l8.9-8.35l10.1,1.45
		l0.325-0.25l-0.375,0.3L283.15,471l-8.9,8.35l-8.35,13.2l-2,6.351L262.675,500.05z M253.875,513.2h-0.025l0.425-0.95L253.875,513.2
		z M360.425,507.025l-0.475,1.024h-0.025L360.425,507.025z"/>
	<path fill-rule="evenodd" clip-rule="evenodd" fill="#c8c8c8" d="M299.575,119.475L299.6,123l0.4,1.65l-0.6,2.25l1.85,2.45
		l-0.85,2.3l1.05,2.05l-2.7,6.35l1.25,1.05l-0.8,4.3l1.2,1.05l2.5-0.4l2.85,0.6l-0.8-10.1l2.85,0.85l1.65,3.5l2.5-0.2l2.65-2.05
		l2.7-1.45l-1.45,6.35l1.85,1.05l-0.6,4.1l3.9,0.2l2.45-0.2l12.35,9.25l0.4,1.65l-2.65,1.65l-2.9-0.6L329.4,160l-2.65-1h-2.05
		l-0.85,2.65l-1.65-0.4l-2.25,4.75l-1.65-1.45l-1.4,0.8l0.4,1.85l1.45,0.85l-1.05,1l0.4,2.1l-1,1.85l1-1.85l-0.4-2.1l1.05-1
		l-1.45-0.85l-0.4-1.85l1.4-0.8l1.65,1.45l2.25-4.75l1.65,0.4l0.85-2.65h2.05l2.65,1l1.25,0.65l2.9,0.6l2.65-1.65l-0.4-1.65
		l-12.35-9.25l-2.45,0.2l-3.9-0.2l0.6-4.1l-1.85-1.05l1.45-6.35l-2.7,1.45l-2.65,2.05l-2.5,0.2l-1.65-3.5l-2.85-0.85l0.8,10.1
		l-2.85-0.6l-2.5,0.4l-1.2-1.05l0.8-4.3l-1.25-1.05l2.7-6.35l-1.05-2.05l0.85-2.3l-1.85-2.45l0.6-2.25l-0.4-1.65L299.575,119.475
		l7.525-0.675l3.8,2.125l0.65,0.375l4.4,1.55v-0.05l-0.8-3.4l0.35-0.6l0.45-0.75l6.15-0.2l0.8,7.7l0.3,3.05l11.5-0.2l2.15,0.55
		l2.3-1.35h1.9l1.35,0.6l2.3-0.3l0.75-0.1l0.7-2.3l0.25-0.75l2.3-2.3l0.45-1l0.5-1.1h0.025l2.075-0.75l6.15-2.15l-3.45-2.3
		l0.35-2.15l0.05-0.3l1.35-1.1l1.35-1.05l0.475-0.95l0.475-0.95l3.05-1.9l2.075,0.925l6.175,2.875h3.25l-5.925,21.05l-0.025,0.05
		h5.4l0.625-1.1l2.975-5.2l0.05-0.025l3.975-3.3l1.575-1.275l7.25-1.35l1.175-1.2l1.925-1.9l3.75,1.75l2.25,1.1l-2.6,74.3
		l-2.85-3.55l-1.5-2.85l-2.5,0.2l-1.15,0.95l-3.45-0.4l-0.8-1.7l-2.3-1.35l-2.85,0.2l-0.75,0.9l-0.05,0.05l-6.1,0.35l-0.8-1.3
		l-3.6-1.75l-3.45,1.9l-0.4,2.9l-0.75-0.2l-1.15,1.55l-1.15,2.1l-5-0.95h-2.1l-2.1-2.5l-6.35-0.55l-1.35-2.15l-1.35-1.5l-2.45-0.95
		l-1.55-1.35l-1.15-0.4l-1.725-1.325l-0.025-0.025l-1.225,0.9l-1.425,1.05l-4.4-1.55v-0.05l-0.4-3.2l-1.55-3.3l-3.05-1.3l-1.35,4
		h-2.7l-0.35-1.55l-2.3-2.1l-2.1-0.95l-1.95,1.75l-0.95-1.75l0.45-1.275l0.15-0.425v-0.025l-0.95-1.325l-1.35,0.75h-2.9l0.4-1.35
		l2.1-0.35l0.275-0.325l0.275-0.275l-2.1-1.35l-2.1-0.75l-2.85,2.1l0.65,2.4l0.65,2.4l-0.1,2.7l-0.05,0.95l-2.5-1.95l-0.925,0.8
		h-0.025l0.75,2.3v3.6v0.05l2.2-0.9l2.2-0.85l1.55,1.35l1.15-0.6l-0.6-2.65l1.95-1.15l1.675,3.425L310.95,179l-3.25,3.05l-0.4,1.75
		l-2.3-0.4l-1.5-1.9l-1.15-0.4l0.75,6.3v0.05l-4.4,0.15l1.9-4.2l-1.35-1.35l-2.3,0.95l-0.05,0.75l-0.15,2.35l-2.3,2.5L292,188
		l-0.6-0.75v-0.05l0.2-3.2l-1.15-1.75l-2.5,3.05l0.2,3.3l-0.2,2.25l-2.1-0.55l-1.75-2.5l-2.1-1.35l-4.95-0.95l-2.9,3.45
		l-1.525,2.875l-0.975,1.725l-0.175-0.05l-3.625-0.9l-0.2-2.7l-0.6-1.9l2.5-5l-1.9-2.5l-1.95-1.15l-0.95-2.85l-0.15-2.3l-3.85-1.55
		l0.35-2.1l-2.1-7.1l-1.15-0.325l-1.5-0.425l-0.8,1.35l-0.3,0.05l-1.6,0.35v2.45l-2.85,0.2h-0.05l0.4,1.55l2.1,1.35l1.15,2.3
		l-0.775,0.35L246,176.1l-5.2,0.2l-3.25-0.4h-0.025H237.5l2.25-22.9l-3.55-34.4h0.05l5.7-0.15l2.3,0.35l1.9-1.35l13.25-9.2
		l3.85,3.45l2.375-1.9l1.425-1.15l2.15,0.3l9.35,1.4l12.025,0.475l2.775,0.125l2.3,0.4l0.75,0.15l2.7,2.5l-1.55,1.95l-2.1,0.15
		l-4,2.125l-0.05,0.025l2.7,1.7L299.575,119.475z M108.95,257.95l0.2,14.75l-2.5,0.75l-2.3-0.75l-0.6,2.1h-2.65l-0.6,1.55l-0.55,2.3
		l-1.15,3.25l-0.8,1.7l1.55,0.8l-0.2,1.7l-2.5,0.6l-1.15,4.4l-1.9,0.95l-0.6,4.4l-2.3,1.35l-1.5,2.5l-2.1,2.3l-4.25,1.551
		l1.35,2.449l-0.2,1.95l-1.5,1.9L80.4,312h-3.1l-2.5,2.85l-2.65-0.35l-4.05,1.9l0.2,2.5l-1.55,1.899l-1.5,0.601L63.7,323.3
		l-0.95,3.25l-1.55,2.5h-3.25l-2.85,2.5l-3.85,2.65l-4.2,1.55l-1.65-0.6l-1.45-3.25L34.2,328.1l-0.4-3.25l-1.15-1.55l-2.5-1.899
		l2.5,1.899l1.15,1.55l0.4,3.25l9.75,3.801l1.45,3.25l1.65,0.6l4.2-1.55l3.85-2.65l2.85-2.5h3.25l1.55-2.5l0.95-3.25l1.55-1.899
		l1.5-0.601l1.55-1.899l-0.2-2.5l4.05-1.9l2.65,0.35l2.5-2.85h3.1l2.3-1.55l1.5-1.9l0.2-1.95l-1.35-2.449l4.25-1.551l2.1-2.3
		l1.5-2.5l2.3-1.35l0.6-4.4l1.9-0.95l1.15-4.4l2.5-0.6l0.2-1.7L98,283.6l0.8-1.7l1.15-3.25l0.55-2.3l0.6-1.55h2.65l0.6-2.1l2.3,0.75
		l2.5-0.75v0.05h2.1l2.5,1.3l0.05,0.85l0.1,2.6l2.5,2.3l2.3,3.65l1.35,0.95l1.35,2.9l1.35,1.15h1.5l2.025,2.85l0.675,0.95
		l0.375,0.975l1.125,2.975l-0.7,0.275l-2.7,0.975l-1.35,2.899l-0.8-0.274l-1.5-0.525l-1.025-0.2l-0.725-0.15l-7.05,3.399l-7.3,1.801
		l-0.6,0.149l-0.15,1.15l1.3,1.149l0.2,1.351l-1.9,1.5l1.15,2.899l1.15,1.9l5.75-0.95l4.2,3.25v3.45l3.175,3.45l1.225,1.35l0.4,1.7
		l1.15,1.75l-0.95,2.5l-4,0.75h-0.05l-2.85-0.55l-1.15,4.2l-6.375,13.074l-0.025,0.025l-0.7-0.45l-3.45,2.101h-4l-1.95,4.399H93.6
		l-4.2-5.149v-0.051l0.2-1.699l-2.7-1.9l-7.3-3.05h-7.1l-0.75,2.85l-1.9,3.65l-6.15-2.7l-6.3,1.35l-2.9,1.9l-3.65,0.4l-7.25-3.25
		l-8.45,0.949l-3.65,6.7v6.9l-1.15,1.95L26.9,358.8v-0.05l0.4-4.4l-4.25-4.949l0.4-6.7l1.9-3.851l3.85-5.35v-0.05l0.2-4.4
		l-1.75-4.95v-0.024l3.65-4.575l4.4-1.55l3.1,0.6v1.3l1.9,0.2l0.1-0.5l0.65-3.149l-1.5-4.2v-0.05L39,301.45l-0.4-13.6v-0.05
		l-0.75-8.2l-7.7-28.75l0.475-2.325L30.75,248v-0.05l-0.4-3.8l2.1-8.8L34,231.5l6.15-1.3l-0.1-0.025l-5.5-1.325l-0.35-2.1v-0.025
		L40.5,202v-0.025v-0.025l-0.55-3.2l-1.75,0.2l-2.1-2.3l-1.7-0.8v-0.05l0.35-4.15l-1.5-1.55l-9.1-1.7v-0.05l-0.3-3.1l0.125-0.6
		l0.05-0.175l1.525-7.025l-2.3-2v-0.05l0.8-4.125l0.1-0.425l3.45-2.3l1.15-2.3v-0.05l-0.3-3.7l-2-11.5l-5.75-1.15l-1.15-4.3l4-4.6
		l4.6-0.55l3.75-1.75l0.85,3.45l-0.3,3.7v0.05l4.35,1.45l5.45-2.05l0.55,2.05l3.45,3.15l3.45-1.15L50,153v0.05L49.7,155v0.05
		l5.5,3.45l7.15-1.15l8.35-4.6l3.75,2l3.15-2l2.3,2l3.45-2.6l3.85,0.55l1.6,2.15l1.95-0.4l1.475,0.6h0.025l-1.9,5.55l-1.125,2.475
		L89.2,163.1l1.35,2.3l1.325,1.525l0.025,0.025l-1.95,4.2l-2.3,1.7v3.4v0.05l1.55,3.3l0.4,4.35V184l1.3,1.7l0.8,5l0.225,0.7
		l0.925,3.1l-0.2,2.85v0.05l0.725,1.1l0.025,0.05l-2.1,0.95l0.2,4.35v0.05l3.65-0.55l2.8,1.675L98,205.05l-6.7,2.9v6.25v0.05
		l1.525,1.925l0.025,0.025l-4.8,4.2l-1.15,4.2l-2.3,0.8l-0.3,1.775l-0.025,0.175l-0.075,0.5l3.45,3.875l1.15,1.325l3.1,9.2l1.3-2.7
		l0.8-2.45l1.5,1.7l4.75,2.475l0.05,0.025l-2.275,1.675L98,243l3.1,2.5l4,0.4l0.125-0.525l0.025-0.175l0.45-2v-0.025l-0.35-0.675
		h0.05l2-0.25l0.75,2.5l1,0.95l0.1,0.8l0.25,2.45l-1.15,1.55l-0.5,1.1l-0.45,0.95l-0.55,0.4l-0.475,1.45l-0.525,1.45l1.75,0.6
		L108.95,257.95z M372.825,416.725l-1.275-1.024l-0.4-2.9l-1.3-1.075l-2.15-1.774l-0.95-2.101l-7.1-0.399l-1.9,2.85l0.15,4.45
		l-1.9-0.8l-0.95,2.3l-1.025,1.325L353.7,418l-2.5-0.825l-0.35-0.125h-0.025l-2.275,0.675l-2.15,0.625v0.051l0.2,1.3l-0.75,0.95
		l-2.175-0.101l-0.725-0.05l-0.075-1.85l-0.075-2.4h-3.1l0.4-2.1l-0.4-1.9l-2.85,0.95l-0.95-1.15l1.225-0.875l2.025-1.425h-3.1
		l0.25-0.625l0.75-1.875l-0.2-2.1l-4.25-0.2l-1.325-1.325l-1.325-1.375l-5.55,2.3v0.025l-0.8,4.975l-1.15,1.75h-2.3L308.3,422.4
		l-5.95,0.399l-8.25,2.851l-2.2,0.35l-0.4-0.75l-5.15-4.85v-4.051l-2.05-13.8l-12.35-32.2l-4.3-0.85l-1.15-2.9l1.7-0.55l3.45-5.45
		l1.425-1.449l8.675-8.65l0.2-2.05l1.45-0.4l3.9-2.5l5.35-0.8l3.5,2.45l1,6.2l2.05,2.649l6.2-1.649l1.65-1.851l0.2-2.25l-0.85-3.7
		l2.5-2.449l3.7,1l1.85-1l1.85-2.7l0.8,0.6v3.5l2.3,1.45l4.3-0.8l1.45-2.3l1.85,0.449h4.1l2.25,0.801l2.1-1.25l-0.25-1.4l-3.05-0.65
		l-3.1-3.05l-0.4-2.3l3.3-1l2.25,1.65l1.65,0.199l2.05-0.649l0.8,2.1l-1.65,4.5h0.85l1.85-2.649l1.85-0.25l2.05,1.05l1.45-5.325
		l-1.45,5.325l-2.05-1.05l-1.85,0.25l-1.85,2.649h-0.85l1.65-4.5l-0.8-2.1l-2.05,0.649l-1.65-0.199l-2.25-1.65l-3.3,1l0.4,2.3
		l3.1,3.05l3.05,0.65l0.25,1.4l-2.1,1.25l-2.25-0.801H327l-1.85-0.449l-1.45,2.3l-4.3,0.8l-2.3-1.45v-3.5l-0.8-0.6l-1.85,2.7
		l-1.85,1l-3.7-1l-2.5,2.449l0.85,3.7l-0.2,2.25l-1.65,1.851l-6.2,1.649l-2.05-2.649l-1-6.2l-3.5-2.45l-5.35,0.8l-3.9,2.5l-1.45,0.4
		l0.05-0.5l-3.45-3.45l-0.125-0.55l-0.025-0.175l-4.7-20.575l-4.9-11.5l-3.15-0.851l-2.05-7.5l1.75-4.6l2.6-11.5l1.125-1.425
		l1.175-1.425h-0.05h-4.85l-9.2-5.2l-6.05-5.75l-0.625-0.8l-8.575-10.7l-5.75-1.15l-6.05-17.25l0.6-2.3l-2.85-1.425l5.95-3.125
		l1.7-4.8l1.35-5.55l2.5-0.4l7.25,0.55l4.45-1.025l0.55-0.125l1.7,0.8l0.6,2.3l2.3,3.45l1.9,1.05L259,234l-3.6,8.8l8.65,4.8
		l-14.575,25.05l14.575-25.05l5.5,3.05l-1.9,0.2l-0.2,0.95l0.4,1.55l-0.6,0.55l-0.2,1.15l0.8,0.8l0.75,0.05l2.3,0.15l2.2,0.775
		l15.25,5.525l4.8,0.4l10.05-3.725l1.45,3.725l4,0.95l-0.275,2.575l-0.275,2.575l0.75,2.15l-5.75,15.5l7.85,8.65l-0.175,2.575
		L310.6,300.3l2.25,2.275l1.35,1.375h0.05l4.2,0.55l0.2,2.3l0.95,3.65l0.525-0.375l1.575-1.125l1.35,1.3l4.6,1.55l3.225,4.525
		l1.925,2.774l8.45,7.101l2.85,3.8l0.4,2.3l0.6,3.825v0.025l1.9,0.199l1.15,1.051l1.15,1.1l-5.95,13.55l4.6,19.55l4.2,3.65l2.3-0.4
		l5,4.4l2.3-0.55l8.45,4.2l-0.025,0.024l-1.2,1.4L363.5,390.6l2.3,2.301l4.75-0.2l1.95,0.95l3.25-1.15l4.6-0.2l2.7,0.75v3.65
		l-1.75,1.95l1.75,2.85l0.55,5.2l-2.3,3.45l-1.15,4l-2.85,4.05h-0.05l-4-1.15L372.825,416.725z M257.85,163.125l1.45-1.675v-2.85
		l-2.25-2.3l-3.1-10.45l13.6-2.1l12.5-6.95l1.65-2.9l-1.2-0.8h-1.25l-1.45-1.45l-0.8-6l-5.35-3.25l-2.25-2.9l0.2-1.05l-1.85-1
		l-0.2-1.25l-1.45-0.2l-2.85-4.3l2.85,4.3l1.45,0.2l0.2,1.25l1.85,1l-0.2,1.05l2.25,2.9l5.35,3.25l0.8,6l1.45,1.45h1.25l1.2,0.8
		l-1.65,2.9l-12.5,6.95l-13.6,2.1l3.1,10.45l2.25,2.3v2.85L257.85,163.125z M84.275,227.35l-4.375,3l-0.55,2l-2.6,1.75l0.55,3.75
		l-2.55,6l-3.2,2.4l-1.5,2.1l-6.15,3.1l0.2,7.45l-5.75,3.1l-3.45,18.55L50.85,280L43,280.2l-4.4,1.35l4.4-1.35l7.85-0.2l4.05,0.55
		L58.35,262l5.75-3.1l-0.2-7.45l6.15-3.1l1.5-2.1l3.2-2.4l2.55-6l-0.55-3.75l2.6-1.75l0.55-2L84.275,227.35z M29.8,312.2
		l-0.95,1.149l-0.95-0.6l0.55-1.15L29.8,312.2z"/>
	<path fill-rule="evenodd" clip-rule="evenodd" fill="#c8c8c8" d="M333.475,180.65l1.25-0.875l1.725,1.325l1.15,0.4l1.55,1.35
		l2.45,0.95l1.35,1.5l1.35,2.15l6.35,0.55l2.1,2.5h2.1l5,0.95l1.15-2.1l1.15-1.55l0.75,0.2l0.4-2.9l3.45-1.9l3.6,1.75l0.8,1.3
		l6.1-0.35l0.05-0.05l0.75-0.9l2.85-0.2l2.3,1.35l0.8,1.7l3.45,0.4l1.15-0.95l2.5-0.2l1.5,2.85l2.85,3.55l-1.9,54.65l-9.175-2.8
		h-0.025l-0.475,0.275l-3.325,1.825l-3.45-1.35l-3.25,0.6l-6.15-0.2l-0.6-2.9l-3.05-2.3l-0.55-2.5l-1.75-0.95l-3.25-0.75l-1.9-2.7
		l-4.6,2.3l-3.65,0.6l-2.1,1.35l-1-1h-2.45l-1.95-1.3h-2.1l-2.25-2.1l-0.05-0.05l-0.325,3l-2.525,20.6L328,257l-0.8,0.375
		l2.05-6.425l0.4-5.55l-1.05-2.65l-1.4-8.25l1.2-3.3l1.45-8.45l-1.25-2.25l0.25-2.05l1.4-1.45l-1-2.25L328,213.3l-1.45-5.95
		l5.8-8.85l-0.65-2.05l-1.65,1.65l-7.2,0.8l-1.45,1.05l-4.3,1.45l-7.8-1.45l0.4-2.5l-1.25-3.7l0.85-1.2l-0.4-1.85l-5.8-3.3
		l-0.75-6.3l1.15,0.4l1.5,1.9l2.3,0.4l0.4-1.75l3.25-3.05l-0.025-0.025l0.025-0.025l-1.7-3.45l-1.95,1.15v0.05l0.6,2.65l-1.15,0.6
		l-1.55-1.35l-2.2,0.85l-2.2,0.85v-3.6v-0.05l-0.725-2.25l0.925-0.8l2.5,1.95l0.05-0.95l0.15-2.7l-0.7-2.4l-0.65-2.4l2.85-2.1
		l2.1,0.75l2.1,1.35l-0.275,0.275l-0.275,0.275l-2.1,0.4l-0.4,1.35h2.9l1.35-0.75l0.95,1.325l-0.15,0.45l-0.45,1.275l0.95,1.75
		l1.95-1.75l2.1,0.95l2.3,2.1l0.35,1.55h2.7l1.35-4l3.05,1.3l1.55,3.3l0.4,3.2v0.05l4.4,1.55L333.475,180.65z M312.975,258.3
		l-6.375-0.75h-0.025h-0.025l-3.45,1.15l0.15,0.3l-0.05,0.025l-10.05,3.725l-4.8-0.4l-15.25-5.525L270.9,256l-2.3-0.1l-0.75-0.05
		l-0.8-0.8l0.2-1.15l0.6-0.55l-0.4-1.55l0.2-0.95l1.9-0.2l-5.5-3.05l-8.65-4.8l3.6-8.8l-1.9-1.05l-1.9-1.1l-2.3-3.45l-0.6-2.3
		l-1.7-0.75l-0.25,0.05l0.65-2.35l-5.2-7.45v-2.3l5.55-4.8l3.45,0.4l2.4,5.5l0.85,1.95l0.4,0.05l4.25,0.55l2.85-3.45v-0.05l-0.2-1.9
		l-2.1-0.4l-2.325-0.825l-1.875-0.675l-0.4-2.85l3.25-2.7l0.775-1l0.575-0.75L260.2,197v-2.7l1.35-2.65l1,0.15l8.925,1.7l0.175,0.05
		h0.05l0.925-1.725l1.525-2.875l2.9-3.45l4.95,0.95l2.1,1.35l1.75,2.5l2.1,0.55l0.2-2.25l-0.2-3.3l2.5-3.05l1.15,1.75l-0.2,3.2v0.05
		L292,188l2.45,0.6l2.3-2.5l0.05-0.05l0.1-2.3l0.05-0.75l2.3-0.95l1.35,1.35l-1.9,4.2l4.4-0.15v-0.05l5.8,3.3l0.4,1.85l-0.85,1.2
		l1.25,3.7l-0.4,2.5l7.8,1.45l4.3-1.45l1.45-1.05l7.2-0.8l1.65-1.65l0.65,2.05l-5.8,8.85l1.45,5.95l1.25,1.45l1,2.25l-1.4,1.45
		l-0.25,2.05l1.25,2.25l-1.45,8.45l-1.2,3.3l1.4,8.25l1.05,2.65l-0.4,5.55l-2.05,6.425l-2.05,0.925l-1.35-2.1l-2.85-2.1l-1.05,1.05
		l-1.1,1.05l-4.2,2.3L312.975,258.3l-0.575-4.05l0.4-3.3v-1.85l-1.65-4.3l-3.9-5.35l-2.05-2.05l0.4-2.05l1.85-1.65l-0.4-3.3h-1.25
		l-3.3,1.05l-0.4-2.1v-1.85l-1.45-1l-2.45-5.55l-5.75,2.25l-9.3-1.05l-3.5,1.25l-1,1.05l-4.55-0.2l-3.5-0.65l-3.9,1.45l-2.05-1.85
		l1.45-4.1l0.6-4.95l0.4-1.85h-1.4h1.4l-0.4,1.85l-0.6,4.95l-1.45,4.1l2.05,1.85l3.9-1.45l3.5,0.65l4.55,0.2l1-1.05l3.5-1.25
		l9.3,1.05l5.75-2.25l2.45,5.55l1.45,1v1.85l0.4,2.1l3.3-1.05h1.25l0.4,3.3l-1.85,1.65l-0.4,2.05l2.05,2.05l3.9,5.35l1.65,4.3v1.85
		l-0.4,3.3L312.975,258.3z M184.25,219.1l-4-0.65l-1.125-1.925L181,213.5h-0.025l0.025-0.05l-3.25-0.2v-1.65l2.3-1.35l0.55-1.75
		l-9.5-0.35l1.3-8.7l-0.2-5.55l2.7-4.95l4.55,3l1.05,0.7l0.65,0.175l19.2,5.025l2.1,3.15l-0.15,2.3l-1.95,4.175v0.025l-4.95,3.85
		l-2.7,5.55l-1.9,1.95l-5.4-1.75l-0.95,1.15L184.25,219.1z M131,289.6v2.65l0.4,2.85l-0.05,0.025l-2.85,1.025l-1.175-2.925
		l-0.375-0.975l-0.675-0.95l-1.975-2.9h-1.55l-1.35-1.15l-1.35-2.9l-1.3-0.95l-2.3-3.65l-2.5-2.3l-0.15-2.55l-0.05-0.85V274
		l-2.5-1.3h-2.1l-0.2-14.75v-0.05l-1.35-1.5l-1.7-0.6l0.475-1.4l0.475-1.45l0.55-0.4l0.45-0.95l0.55-1.15l1.15-1.55l-0.3-2.4
		l-0.1-0.8v-0.05l-0.95-0.95l-0.8-2.5l-2,0.25l-1.6-3.7l3.45-5.55l1.15-1.1l1.9-1.8l2.45,0.775l0.05,0.025l0.75-2.9h1.9l0.4-3.8
		l8.875-2.7l0.675-0.175l1.35,2.325l-0.35,0.95l-0.8,1.5l-0.35,1.15l1.9,1l2.7,0.35l2.1-1.5l2.65,0.55l2.15,0.95l7.65-1.5
		l-0.55-1.75l3.8-2.85l2.3-2.3l1.35,1.7l1.15,0.95l2.9,0.4l-2.9-0.4l-1.15-0.95l-1.35-1.7l-2.3,2.3l-3.8,2.85l0.55,1.75l-7.65,1.5
		l-2.15-0.95l-2.65-0.55l-2.1,1.5l-2.7-0.35l-1.9-1l0.35-1.15l0.8-1.5l0.35-0.95l-1.35-2.325l9.225-4.825h0.025l3.625,1.55h0.025
		l4.35-0.75h0.05l4.55,0.75h0.05l1.325-1.725l1.325-1.725l1.75-1.75l4.2,0.8l-0.15-0.6l0.45,1.175l0.85,2.275v0.05l-1.9,10.3v0.025
		l5.35,13.225l1.55,2.65l9.1,0.75h0.05l0.8,2.9l-1.5,3.1l-0.3,8.4h-5.1l-0.95-2.85l-1.15,0.2l-4.4-0.2l-2.1-3.1l-3.65-1.5L149,251.4
		l-2.65-0.95l-3.3-0.6l-1.325,1.175L140.6,252h-0.05l-2.2-0.375l-2.175-0.425l7.075-13.95l4.05-3.65l0.35-2.7l-1.15-1.9l-2.1-1.7
		l2.1,1.7l1.15,1.9l-0.35,2.7l-4.05,3.65l-7.075,13.95h-0.025l-0.975,1.2l-9.375,11.1l11.9,13.6l-0.025,0.025l-0.9,1.5l-2.725,4.425
		l1.35,2.1l-0.025,0.025L131,289.55V289.6z M262.675,203.1l0.325,0.1L262.675,203.1z M172.75,201.4l7.5,3.6l3.45-2.65l0.95,0.35
		l1.35-1.5l5.35,2.85l0.5,2.225L195.2,206l1.75-2.1l1.55,0.75l1.85,2.825l-1.85-2.825l-1.55-0.75l-1.75,2.1l-3.35,0.275l-0.5-2.225
		L186,201.2l-1.35,1.5l-0.95-0.35l-3.45,2.65L172.75,201.4z M181.6,212.9l3.25,1.15l2.7-5.55l2.7-2.1l1.6-0.125l0.05,0.275
		l-0.05-0.275l-1.6,0.125l-2.7,2.1l-2.7,5.55L181.6,212.9z"/>
	<path fill-rule="evenodd" clip-rule="evenodd" fill="#c8c8c8" d="M357.9,414.75l7.1,3.4l-0.6,3.449l0.6,7.301l-0.75,4.05l0.75,2.1
		l2.5,3.05l-0.95,0.75l-2.3,1l-0.8,2.101l0.8,1.899l0.15,8.051l-0.95,3.05l1.75,1.75l-0.2,1.55l3.85,0.35l0.75,1.551l1.9,0.55
		l2.1,4.25l-2.45,12.45l-3.45-0.75l-0.4,1.3l2.5,1.95l-2.425,6.875L367.7,487l2.15,3.25v4.4l-0.575,2.074l0.575-2.074v-4.4
		L367.7,487l-0.325-0.225l2.425-6.875l-2.5-1.95l0.4-1.3l3.45,0.75l2.45-12.45l-2.1-4.25l-1.9-0.55l-0.75-1.551l-3.85-0.35l0.2-1.55
		l-1.75-1.75l0.95-3.05l-0.15-8.051l-0.8-1.899l0.8-2.101l2.3-1l0.95-0.75l-2.5-3.05l-0.75-2.1l0.75-4.05l-0.6-7.301l0.6-3.449
		L357.9,414.75l-0.15-4.45l1.9-2.85l7.1,0.399l0.95,2.101l2.15,1.774l1.3,1.125l0.35,2.851l1.325,1.024l0.425,0.325l4,1.15h0.05
		l2.85-4.05l1.15-4l2.3-3.45l-0.55-5.2l-1.75-2.85l1.75-1.95v-3.65l-2.7-0.75l-4.6,0.2l-3.25,1.15l-1.95-0.95l-4.75,0.2l-2.3-2.301
		l5.475-6.274l1.225-1.375l-0.025-0.025l0.025-0.024l-8.45-4.2l-2.3,0.55l-5-4.4l-2.3,0.4l-4.2-3.65l-4.6-19.55l5.95-13.55v-0.05
		l2.5-1.15l0.95,0.101l2.85,0.3l3.65,0.95l9.6-5.15l0.2-1.35l1.3-1.125l1-0.825l2.65,0.6l1.15-0.2l3.05,0.7l1,0.25l1.35,1.351
		l1.7-0.95l1.15-0.95l1.9,1.15l2.3-1.551l1.95,1.15l3.65,0.4L397,335l1.15,1.75l3.05,3.05l0.225-0.149l0.4-0.226l1.774,2.075
		l18.7,155.35l-9.5,4.65l-11.75-1.45l-23-5.75l-4.6,1.7l-4.175,0.725l-4.175,0.726l-4.675,9.575l-0.5,1.024l-0.025,0.05l-79.05,8.9
		l-16.95,2.3l-5.2-4.05l-4.85-2l0.025-0.05l0.4-0.95l3.275-7.35l5.125-4.851l1.225-1.149l2-6.351l8.35-13.2l8.9-8.35l10.05,1.45
		l0.375-0.3l2.225-1.75l5.775-2.976L302.4,467l4.35,0.85l2.15,0.125l2.15,0.125l-1.1-0.574l-6.65-3.426l-6.35,3.75l-5.45,2.301
		l-4.3-3.45l-7.2-3.75l-0.6-4.05l2.05-8.051l-0.3-2.55v-0.05l1.7-18.1l1.925-2.25l0.975-1.15l6.3-0.3l-0.025-0.05L292,426.375
		l-0.025-0.05l-0.125-0.275h0.05l2.2-0.399l8.25-2.851l5.95-0.399l11.85-11.101h2.3l1.15-1.75l0.8-4.975l5.55-2.275l1.325,1.325
		l1.325,1.325l4.25,0.2l0.15,2.1l-0.7,1.875l-0.25,0.625h3.1l-2.025,1.425l-1.275,0.875l1,1.15l2.85-0.95l0.4,1.9l-0.4,2.1v0.05
		h3.05l0.125,2.351l0.075,1.85l0.725,0.05l2.175,0.15l0.75-0.95v-0.05l-0.2-1.3l2.15-0.676l2.275-0.675l0.375,0.125l2.5,0.825
		l0.325-0.425l1.025-1.275L356,414L357.9,414.75z M256.35,162.7l1.5,0.425l1.15,0.325l2.1,7.1l-0.35,2.1l3.85,1.55l0.15,2.3
		l0.95,2.85l1.95,1.15l1.9,2.5l-2.5,5l0.6,1.9l0.2,2.7l-5.3-0.8l-1-0.15l-1.35,2.65v2.7l3.05,5.35l-0.575,0.75l-6.275-1.95
		l-2.05-2.45l0.6-3.1L250,195l-6.75-4.55l2.05-4.7l-8.25-1.45l8.25,1.45l-2.05,4.7L250,195l4.95,0.6l-0.6,3.1l2.05,2.45l6.275,1.95
		l-0.775,1l-3.25,2.7l0.4,2.85l1.875,0.675l2.325,0.875l2.1,0.35l0.2,1.9v0.05l-2.85,3.45l-4.25-0.55l-0.35-0.05l-0.9-1.95l-2.4-5.5
		l-3.45-0.4l-5.55,4.8v2.3l5.2,7.45l-0.65,2.35l-0.3,0.075l-4.45,1.025l-7.25-0.55l-2.5,0.4l-1.35,5.55l-1.7,4.8l-5.95,3.125
		l-0.05,0.025l-0.55-0.3l-4.6-12.95l1.325-5.45l0.125-0.55l4.775-11.65l13.075-2.2l10.9,0.6v0.85v-0.85l-10.9-0.6l-13.075,2.2
		l8.425-20.55v-0.05l1.125-11.375l0.125-1.075l3.25,0.4l5.2-0.2l7.625-3.45l0.825-0.35l-1.15-2.3l-2.1-1.35l-0.4-1.55l2.85-0.2
		v-2.45l1.6-0.35l0.35-0.05L256.35,162.7z M175.85,229.775v0.025l-3.3,6.7l-1.7,6.125v0.025l0.1,0.3l0.2,0.75l-9.1-0.75l-1.55-2.65
		l-5.35-13.225v-0.025l1.9-10.3v-0.05l-0.85-2.275l-1.85-5.175v-9.95l1.35-0.2l1.675,1.775L158.4,202l4.95,3.65l5,2.85h2.7
		l0.05-0.35l9.5,0.35l-0.55,1.75l-2.3,1.35v1.65v0.05l3.225,0.2H181l-1.875,3.025l-0.025,0.025l1.15,1.95l4,0.65l-0.55,2.4
		l-4.4,7.65l-1.35,0.95l-0.2-1.7l2.7-5l0.95-2.65l-0.025,0.025L178.9,222.5l-3.45,5.725v0.025L175.85,229.775z M177.15,213.1
		l-1.9-0.6l-1.7,0.6l4,5.75l-3.65,1.35l-3.45-1.95l-13.6,2.1l13.6-2.1l3.45,1.95l3.65-1.35l-4-5.75l1.7-0.6L177.15,213.1z
		 M169.9,218.85l-0.2,4.8l3.85,3.05l-5.35,4.6l-1.35,5l-3.1,2.5l-1.9,3.25l1.9-3.25l3.1-2.5l1.35-5l5.35-4.6l-3.85-3.05
		L169.9,218.85z M309.95,467.525l2,0.675l-0.2,5l-4,5.149l-1,2.5l2.9,1.351l10.55-0.95l5.95-1.95l2.65,2.3l-0.55,6.9l1.15,3.45
		l2.3,1.149l1.9-2.5l1.15-3.8l4.6-4.6l1.15-5l2.1-2.3l4.25-0.551l1.3,0.95l3.3,5.15l4.4-0.351l5.15-1.35l4.05,6.3l2.325,1.726
		l-2.325-1.726l-4.05-6.3l-5.15,1.35l-4.4,0.351l-3.3-5.15l-1.3-0.95l-4.25,0.551l-2.1,2.3l-1.15,5l-4.6,4.6l-1.15,3.8l-1.9,2.5
		l-2.3-1.149l-1.15-3.45l0.55-6.9l-2.65-2.3l-5.95,1.95l-10.55,0.95l-2.9-1.351l1-2.5l4-5.149l0.2-5L309.95,467.525z"/>
	
		<path fill-rule="evenodd" clip-rule="evenodd" fill="none" stroke="#fff" stroke-width="0.5" stroke-linecap="round" stroke-linejoin="round" stroke-miterlimit="3" d="
		M398.05,119.1l2.15-61.95l-2.55,1.55l-0.3,4.75l-2.85-0.35l-0.95-4.7v-4.45l-4.1-0.6l-4.7-1.25l-5.7,1.85l-2.85-3.15l-1.25-4.7
		l-9.15-1.6l-5.35,0.65l-6-4.75l-0.65,11.7l-6.3-4.75l-7.25,3.15l-2.85-0.95l-0.95-2.5l-6.6-0.95l-3.8,2.2L321,45.15l-4.4-0.95
		l-2.25,3.45l-0.9,3.8l-1.9-1.9l-0.95-2.5l-1.3-0.95l-3.75-0.95l-5.7,2.85l0.65,4.1l-2.85-1.3l-2.85-2.2l0.95-2.2l-8.2,2.55
		l-7.55-1.6l-7.3-0.95l-4.7-4.75l-2.2-4.7l-8.85-3.8l-3.45-0.95l-5.4,0.95l-2.85-6.65l-3.15-0.3l-1.55,3.15l-3.15,0.95l-5.05-3.8
		l-4.75-1.25l-0.95,5.35l-3.15,4.75l-3.8,2.55l-11.05-2.55l-12.6-0.95v3.15l1.45,3.9l13.5,6l10.35,7.2l8.9,19.85l3.475,16.2
		l0.575,2.75l1.9,25.1h0.05l5.7-0.15l2.3,0.35l1.9-1.3l13.25-9.2l3.85,3.45l2.375-1.9l1.425-1.2l2.15,0.35l9.35,1.4l12.025,0.475
		l2.775,0.075l2.3,0.45l0.75,0.15l2.7,2.5l-1.55,1.95l-2.1,0.15l-4,2.125l2.65,1.675l13.05-1.15l3.75,2.125l0.65,0.375l4.4,1.55
		 M398.05,119.1l-2.25-1.05l2.25,1.1V119.1z M380.125,122.025l1.575-1.325l7.25-1.35l1.175-1.15l1.925-1.9l3.75,1.75 M390.125,118.2
		l-1.175,1.2l-7.25,1.35l-1.575,1.275l-3.975,3.3l-0.05,0.025l-2.975,5.2l-0.625,1.1h-5.4l0.025-0.05l5.925-21.05h-3.25
		l-6.175-2.875l-2.075-0.925l-3.05,1.9l-0.475,0.95l-0.475,0.95l-1.35,1.05l-1.35,1.1l-0.05,0.3l-0.35,2.15l3.45,2.3l-6.15,2.15
		l-2.075,0.75h-0.025l-0.5,1.1l-0.45,1l-2.3,2.3l-0.25,0.75l-0.7,2.3l-0.75,0.1l-2.3,0.3l-1.35-0.6h-1.9l-2.3,1.35l-2.15-0.55
		l-11.5,0.2l-0.3-3.05l-0.8-7.7l-6.15,0.2l-0.45,0.75l-0.35,0.6l0.8,3.4v0.05l-4.4-1.55l-0.65-0.375l-3.8-2.125l-7.525,0.675
		l-5.475,0.475l-2.7-1.7l0.05-0.025 M367.125,131.6h5.375l0.625-1.05 M358.025,109.6l0.475-1l3.05-1.9l2.075,0.975 M349.675,120.35
		l0.025-0.05l2.05-0.7 M346.15,125.5l0.25-0.8l2.3-2.3l0.45-0.95 M354.8,113l0.05-0.35l1.35-1.05 M341.05,127.6l1.35,0.55l2.3-0.25
		 M322.9,125.55l0.35,3l11.5-0.2l2.1,0.6 M334.725,179.775l1.725,1.325l1.15,0.4l1.55,1.35l2.45,0.95l1.35,1.5l1.35,2.15l6.35,0.55
		l2.1,2.5h2.1l5,0.95l1.15-2.1l1.15-1.55l0.75,0.2l0.4-2.9l3.45-1.9l3.6,1.75l0.8,1.3l6.1-0.35l0.05-0.05l0.75-0.9l2.85-0.2
		l2.3,1.35l0.8,1.7l3.45,0.4l1.15-0.95l2.5-0.2l1.5,2.85l2.85,3.55l2.6-74.3 M333.475,180.65l1.225-0.9l0.025,0.025L333.475,180.65
		l-1.425,1.05l-4.4-1.55v-0.05l-0.4-3.2l-1.55-3.3l-3.05-1.3l-1.35,4h-2.7l-0.35-1.55l-2.3-2.1l-2.1-0.95l-1.95,1.75l-0.95-1.75
		l0.45-1.275l0.15-0.45l-0.95-1.325l-1.35,0.75h-2.9l0.4-1.35l2.1-0.4l0.275-0.275l0.275-0.275l-2.1-1.35l-2.1-0.75l-2.85,2.1
		l0.65,2.4l0.7,2.4l-0.15,2.7l-0.05,0.95l-2.5-1.95l-0.925,0.8l0.725,2.25v0.05v3.6l2.2-0.85l2.2-0.85l1.55,1.35l1.15-0.6l-0.6-2.65
		v-0.05l1.95-1.15l1.7,3.45l-0.025,0.025L310.95,179l-3.25,3.05l-0.4,1.75l-2.3-0.4l-1.5-1.9l-1.15-0.4l0.75,6.3 M327.2,257.375
		L328,257l5.6,0.75l2.525-20.6l0.325-3l0.05,0.05l2.25,2.1h2.1l1.95,1.3h2.45l1,1l2.1-1.35l3.65-0.6l4.6-2.3l1.9,2.7l3.25,0.75
		l1.75,0.95l0.55,2.5l3.05,2.3l0.6,2.9l6.15,0.2l3.25-0.6l3.45,1.35l3.325-1.825l0.475-0.275h0.025l9.175,2.8l1.9-54.65
		 M384.375,245.3l-0.5,0.275 M336.5,234.2l-0.375,2.95 M312.975,258.3l1.625,0.2l4.2-2.3l1.1-1.05l1.05-1.05l2.85,2.1l1.35,2.1
		l2.05-0.925 M393.3,255.6l0.25-7.5 M403.6,341.5l-1.774-2.075l-0.4,0.226L401.2,339.8l-3.05-3.05L397,335l-3.8-2.85l-3.65-0.4
		l-1.95-1.15l-2.3,1.551l-1.9-1.15l-1.15,0.95l-1.7,0.95l-1.35-1.351l-1-0.25l-3.05-0.7l-1.15,0.2l-2.65-0.6l-1,0.825l-1.3,1.125
		l-0.2,1.35l-9.6,5.15l-3.65-0.95l-2.85-0.3l-0.95-0.101l-2.5,1.15v0.05l-5.95,13.55l4.6,19.55l4.2,3.65l2.3-0.4l5,4.4l2.3-0.55
		l8.45,4.2l-0.025,0.024l0.025,0.025l-1.225,1.375L363.5,390.6l2.3,2.301l4.75-0.2l1.95,0.95l3.25-1.15l4.6-0.2l2.7,0.75v3.65
		l-1.75,1.95l1.75,2.85l0.55,5.2l-2.3,3.45l-1.15,4l-2.85,4.05h-0.05l-4-1.15l-0.425-0.325L371.5,415.7l-0.35-2.851l-1.3-1.125
		l-2.15-1.774l-0.95-2.101l-7.1-0.399l-1.9,2.85l0.15,4.45L356,414l-0.95,2.3l-1.025,1.275 M369.275,496.725L373.45,496l4.6-1.7
		l23,5.75l11.75,1.45l9.5-4.65L403.6,341.5v-0.075 M371.35,330.2l2.7,0.55l1.15-0.2l3,0.75 M379.2,331.55l1.35,1.3l1.75-0.949
		l1.15-0.95l1.9,1.149l2.3-1.55l1.9,1.15l3.65,0.399l3.85,2.9l1.15,1.7l3.05,3.05l0.175-0.1 M352.75,337.4l2.9,0.25l3.65,0.949
		l9.55-5.149l0.2-1.351l1.3-1.074 M401.825,339.425l0.024-0.024l1.75,2.024l0.051,0.075L393.3,255.65 M345.1,336.125l-0.6-3.825
		l-0.4-2.3l-2.85-3.8l-8.45-7.101l-1.925-2.774l-3.225-4.525l-4.6-1.55l-1.35-1.3l-1.575,1.125l-0.525,0.375l-0.95-3.65l-0.2-2.3
		l-4.2-0.55h-0.05l-1.35-1.375l-2.25-2.275l0.175-2.575l0.175-2.575l-7.85-8.65l5.75-15.5l-0.75-2.15l0.275-2.575l0.275-2.575
		l-4-0.95l-1.45-3.725l-10.05,3.725l-4.8-0.4l-15.25-5.525l-2.2-0.775l-2.3-0.15l-0.75-0.05l-0.8-0.8l0.2-1.15l0.6-0.55l-0.4-1.55
		l0.2-0.95l1.9-0.2l-5.5-3.05 M249.475,272.65l0.625,0.8l6.05,5.75l9.2,5.2h4.85h0.05l-1.175,1.425l-1.125,1.425l-2.6,11.5
		l-1.75,4.6l2.05,7.5l3.15,0.851l4.9,11.5l4.7,20.575l0.025,0.175l0.125,0.55l3.45,3.45l-0.05,0.5l-0.2,2.05l-8.675,8.65
		l-1.425,1.449l-3.45,5.45l-1.7,0.55l1.15,2.9l4.3,0.85l12.35,32.2l2.05,13.8v4.051l5.15,4.85l0.4,0.75l2.2-0.35l8.25-2.851
		l5.95-0.399l11.85-11.101h2.3l1.15-1.75l0.8-4.975v-0.025l5.55-2.3l1.325,1.375l1.325,1.325l4.25,0.2l0.2,2.1l-0.75,1.875
		l-0.25,0.625h3.1l-2.025,1.425l-1.225,0.875l0.95,1.15l2.85-0.95l0.4,1.9l-0.4,2.1h3.1l0.075,2.4l0.075,1.85l0.725,0.05
		l2.175,0.101l0.75-0.95l-0.2-1.3v-0.051l2.15-0.625l2.275-0.675h0.025l0.35,0.125l2.5,0.825l0.325-0.425l1.025-1.325l0.95-2.3
		l1.9,0.8 M330.875,316.325l1.975,2.725l8.4,7.101l2.9,3.85l0.35,2.3 M349.3,338.5l-1.15-1.1L347,336.35l-1.9-0.199v-0.025
		 M345.1,336.15l1.9,0.149l1.15,1.101 M368.975,384.325l1.2-1.4 M236.25,118.6h-0.05l3.55,34.4l-2.25,22.9h0.025h0.025l3.25,0.4
		l5.2-0.2l7.625-3.45l0.775-0.35l-1.15-2.3l-2.1-1.35l-0.4-1.55h0.05l2.85-0.2v-2.45l1.6-0.35l0.3-0.05l0.8-1.35l1.5,0.425
		l1.15,0.325l2.1,7.1l-0.35,2.1l3.85,1.55l0.15,2.3l0.95,2.85l1.95,1.15l1.9,2.5l-2.5,5l0.6,1.9l0.2,2.7l3.625,0.9l-8.925-1.7
		 M246.15,117.45l-1.9,1.35l-2.3-0.35l-5.7,0.15 M236.25,118.55v0.05 M181.15,192.825l19.2,5.025l2.1,3.15l-0.15,2.3l-1.95,4.175
		v0.025l-4.95,3.85l-2.7,5.55l-1.9,1.95l-5.4-1.75l-0.95,1.15l-0.2,0.85v0.05l-0.55,2.4l-4.4,7.65l-1.35,0.95l-0.2-1.7v-0.05l2.7-5
		l0.925-2.575L178.9,222.5l-3.45,5.725l0.4,1.525v0.025v0.025l-3.3,6.7l-1.7,6.125l0.1,0.325l0.2,0.75h0.05l0.8,2.9l-1.5,3.1
		l-0.3,8.4v0.05l-0.1,3.2l0.125,0.525l1.375,6.225l-2.3,1.95l-1.3,11.1l-0.725,2.65l-1.575,5.8l-3.65,7.45l-5.2,7.851l-2.65,8.85
		l-1.55,7.65l-3.25,3.449l-2.1,13.051l-3.85,4.399v7.65l-7.5,8.05l-1.15,8.2v0.024l0.8,2.875v0.025v0.025l-0.05,0.25
		c-0.033,0.233-0.15,0.85-0.35,1.85c-0.081,0.323-0.206,0.606-0.375,0.85l-0.675,0.575c-0.016,0.008-0.032,0.016-0.05,0.025
		l-0.475,0.225c-0.429,0.168-0.837,0.276-1.225,0.325c-0.533,0.066-0.816,0.1-0.85,0.1l-2.5-1.149l-3.45,0.399v-0.05l-0.75-8.2
		l-4.4-3.1l-1.2-3.225l-0.75-1.95l-11.55-7.575 M174.9,188.95l4.55,3l1.1,0.7l0.6,0.175l-0.65-0.175l-1.05-0.7 M171.1,208.15
		l1.3-8.7l-0.2-5.55l2.7-4.95l-4.45-2.9l-8.6-9.8l-0.6-13.2l0.9-8.05l-6.05-0.85l-2-2.05l-6.05,0.3l-2.6-3.15l-6.05,0.3l-6.6,1.15
		l-3.75-1.45v-6.05l-3.45-3.45l-3.7-1.45l-4.35,1.15L109.8,134l-5.15,0.6l-4.6,6.9l-6.65,4l-6,7.2l-0.2-0.05l0.025,0.025
		L83.35,152.1l-3.45,2.6l-2.3-2l-3.15,2l-3.75-2l-8.35,4.6l-7.15,1.15L49.7,155v0.05l5.5,3.45l7.15-1.15l8.35-4.6l3.75,2l3.15-2
		l2.3,2l3.45-2.6l3.85,0.55l1.6,2.15l1.95-0.4l1.475,0.6L92.25,155l-1.5-0.6l-1.95,0.4l-1.575-2.125 M237.55,175.9l-0.125,1.075
		L236.3,188.35v0.05l-8.425,20.55 M237.525,175.9l-0.1,1.075 M315.5,118.8l0.45-0.8l6.15-0.2v0.05 M295.65,111.35l-2.3-0.4
		l-2.775-0.125 M269.2,108.95l-2.15-0.3l-1.425,1.15 M250.8,167.1l0.4,1.55l2.1,1.35l1.15,2.3l-0.825,0.35 M256.35,162.7l-0.75,1.35
		 M271.65,193.55l0.975-1.725l1.525-2.875l2.9-3.45l4.95,0.95l2.1,1.35l1.75,2.5l2.1,0.55l0.2-2.25l-0.2-3.3l2.5-3.05l1.15,1.75
		l-0.2,3.2v0.05L292,188l2.45,0.6l2.3-2.5l0.15-2.35l0.05-0.75l2.3-0.95l1.35,1.35l-1.9,4.2l4.4-0.15v-0.05 M262.675,203.1
		l0.575-0.75L260.2,197v-2.7l1.35-2.65l1,0.15l5.3,0.8 M272.625,191.825l-0.925,1.725h-0.05 M311.55,169.975V170l-0.15,0.425
		 M309.125,167.375l-0.275,0.325l-2.1,0.35 M303.55,174.6l0.1-2.7l-0.65-2.4 M300.8,176.7l-0.75-2.3h0.025 M303,179.45l-2.2,0.9
		v-0.05 M296.9,183.75l-0.1,2.3l-0.05,0.05 M310.925,178.975l-1.675-3.425l-1.95,1.15 M49.7,149.3l-3.45,1.15l-3.45-3.15l-0.55-2.05
		l-5.45,2.05l-4.35-1.45v-0.05l0.3-3.7l-0.85-3.45l-3.75,1.75l-4.6,0.55l-4,4.6l1.15,4.3l5.75,1.15l2,11.5l0.3,3.7v0.05l-1.15,2.3
		l-3.45,2.3l-0.1,0.425l-0.8,4.125v0.05l2.3,2l-1.525,7.025l-0.05,0.175l-0.125,0.6l0.3,3.1v0.05l9.1,1.7l1.5,1.55l-0.35,4.15v0.05
		l1.7,0.8l2.1,2.3l1.75-0.2l0.55,3.2v0.025V202l-6.3,24.725v0.025l0.35,2.1l5.5,1.325l0.1,0.025L34,231.5l-1.55,3.85l-2.1,8.8
		l0.4,3.8V248l-0.125,0.525l-0.475,2.325l7.7,28.75l0.75,8.2 M38.6,287.85l0.4,13.6l0.95,10.7v0.05l1.5,4.2l-0.65,3.149l-0.1,0.5
		l-1.9-0.2v-1.3l-3.1-0.6l-4.4,1.55l-3.65,4.575v0.024l1.75,4.95l-0.2,4.4v0.05l-3.85,5.35l-1.9,3.851l-0.4,6.7l4.25,4.949l-0.4,4.4
		v0.05l3.45,4.601l1.15-1.95v-6.9l3.65-6.7l8.45-0.949l7.25,3.25l3.65-0.4l2.9-1.9l6.3-1.35l6.15,2.7l1.9-3.65l0.75-2.85h7.1
		l7.3,3.05l2.7,1.9l-0.2,1.699v0.051l4.2,5.149h3.25l1.95-4.399h4l3.45-2.101l0.7,0.45l0.025-0.025l6.375-13.074l1.15-4.2l2.85,0.55
		h0.05l4-0.75l0.95-2.5l-1.15-1.75l-0.4-1.7l-1.225-1.35l-3.175-3.45v-3.45l-4.2-3.25l-5.75,0.95l-1.15-1.9l-1.15-2.899l1.9-1.5
		l-0.2-1.351l-1.3-1.149l0.15-1.15l0.6-0.149l7.3-1.801l7.05-3.399l0.725,0.15l1.025,0.2l1.5,0.525l0.8,0.274l1.35-2.899l2.7-0.975
		l0.7-0.275l-1.125-2.975l-0.375-0.975l-0.675-0.95l-2.025-2.85h-1.5l-1.35-1.15l-1.35-2.9l-1.35-0.95l-2.3-3.65l-2.5-2.3l-0.1-2.6
		l-0.05-0.85l-2.5-1.3h-2.1v-0.05 M49.7,149.3v-0.05l-3.45,1.15l-3.45-3.15l-0.55-2.05l-5.45,2.05l-4.35-1.45 M32.75,142.1v-0.05
		l-0.85-3.45l-3.75,1.75l-4.6,0.55l-4,4.6v0.05 M28.75,166.2l-1.15,2.3l-3.45,2.3l-0.1,0.475 M23.975,184.65l-0.125,0.55v0.05
		 M49.7,155l0.3-1.95V153l-0.3-3.7 M84.3,227.175l0.3-1.775l2.3-0.8l1.15-4.2l4.8-4.2l-0.025-0.025L91.3,214.25v-0.05v-6.25l6.7-2.9
		l-0.05-0.025l-2.8-1.675l-3.65,0.55v-0.05l-0.2-4.35l2.1-0.95l-0.025-0.05l-0.725-1.1v-0.05l0.2-2.85l-0.925-3.1l-0.225-0.7l-0.8-5
		l-1.3-1.7v-0.05l-0.4-4.35l-1.55-3.3v-0.05v-3.4l2.3-1.7l1.95-4.2l-0.025-0.025L90.55,165.4l-1.35-2.3l0.025-0.025l1.125-2.475
		l1.9-5.55h-0.025 M89.225,163.075l1.325,2.275l1.35,1.55l-0.025,0.025 M87.65,176.25l1.55,3.3v0.05 M89.6,183.95l1.3,1.7l0.8,5
		l0.225,0.75 M171.1,208.15l-0.05,0.35h-2.7l-5-2.85L158.4,202l-1.025-1.125L155.7,199.1l-1.35,0.2v9.95l1.85,5.175l0.85,2.275v0.05
		l-1.9,10.3 M155.15,227.075l5.35,13.225l1.55,2.65l9.1,0.75 M157.375,200.875l1.025,1.075l4.95,3.65l5,2.85h2.7l0.05-0.3l9.5,0.35
		l-0.55,1.75l-2.3,1.35v1.65l3.25,0.2l-0.025,0.05H181l-1.875,3.025l1.125,1.925l4,0.65 M154.35,199.3v-0.05l1.35-0.15
		 M156.2,214.425l-0.45-1.175l0.15,0.6l-4.2-0.8l-1.75,1.75l-1.325,1.725l-1.325,1.725h-0.05l-4.55-0.75h-0.05l-4.35,0.75
		 M138.275,218.25l-3.625-1.55h-0.025l-9.225,4.825l-0.675,0.175l-8.875,2.7l-0.4,3.8h-1.9l-0.75,2.9l-0.05-0.025l-2.45-0.775
		l-1.9,1.8l-1.15,1.1l-3.45,5.55l1.6,3.7l2-0.25l0.8,2.5l0.95,0.95v0.05l0.1,0.8l0.3,2.4l-1.15,1.55l-0.55,1.15l-0.45,0.95
		l-0.55,0.4l-0.475,1.45l-0.475,1.4l1.7,0.6l1.35,1.5v0.05l0.2,14.75h2.1l2.5,1.3v0.05 M147.25,218.25l1.375-1.725 M155.9,213.85
		l-1.55-4.6 M124.725,221.7l0.675-0.2l9.2-4.8h0.025 M136.175,251.2l2.175,0.425l2.2,0.375h0.05l1.125-0.975l1.325-1.175l3.3,0.6
		l2.65,0.95l3.85-0.75l3.65,1.5l2.1,3.1l4.4,0.2l1.15-0.2l0.95,2.85h5.1 M91.5,203.85l3.65-0.55L98,205l-0.05,0.025 M92.65,197.35
		l0.75,1.15h-0.025 M91.3,214.2l1.55,1.95l-0.025,0.025 M87.65,231.725L88.8,233l3.1,9.2l1.3-2.7l0.8-2.45l1.5,1.7l4.8,2.5
		l-0.05,0.025l0.05,0.025l-2.275,1.675l3.075,2.475l4,0.4l0.125-0.475l0.025-0.175l0.45-2v-0.025l-0.35-0.675h0.05l-1.65-3.75
		l3.45-5.55l1.2-1.1 M100.25,241.275L95.5,238.8l-1.5-1.7l-0.8,2.45l-1.3,2.7l-3.1-9.2l-1.15-1.325l-3.45-3.875l0.075-0.5
		 M105.225,245.375L105.1,245.9l-4-0.4L98,243l0.025-0.025 M112.75,231.075l0.8-2.875 M109.15,245.7l-1-0.95l-0.75-2.5l-2,0.25
		 M107.85,251.6l0.5-1.1l1.15-1.55l-0.25-2.45 M108.95,257.95l-1.35-1.5l-1.75-0.6l0.525-1.45 M113.8,274.9l0.15,2.55l2.5,2.3
		l2.3,3.65l1.3,0.95l1.35,2.9l1.35,1.15h1.55l1.975,2.9 M170.2,258.15h-5.1l-0.95-2.85l-1.15,0.2l-4.4-0.2l-2.1-3.1l-3.65-1.5
		l-3.85,0.75l-2.7-0.95l-3.25-0.6l-1.325,1.125 M138.35,251.625l-2.2-0.375l-0.975,1.15l-9.375,11.1l11.9,13.6l-0.025,0.025
		l0.025,0.025l-0.925,1.475l-2.725,4.425l1.35,2.1l-0.025,0.025l0.025,0.025l-4.4,4.4v2.65l0.4,2.85 M135.175,252.4l0.975-1.2h0.025
		 M136.775,278.625l0.9-1.5 M131,289.6v-0.05l4.375-4.375 M131.35,295.125v0.025l-3.6,1.325 M127.325,293.225l1.175,2.925
		l2.85-1.025l0.05-0.025 M40.05,230.175L34,231.45l-1.55,3.85l-2.1,8.8v0.05 M40.5,201.975L34.2,226.7v0.025 M30.75,247.95
		l-0.125,0.575 M40.8,319.55L40.7,320l-1.9-0.15 M29.8,312.2l-1.35-0.601l-0.55,1.15l0.95,0.6L29.8,312.2z M38.8,318.55v-0.05
		l-3.1-0.6l-4.4,1.55l-3.65,4.6v0.025 M29.2,333.45l-3.85,5.35l-1.9,3.851v0.05 M161.3,319.3l1.15,7.101l2.1,0.75l1.75-1.351l1.9-5
		l-0.95-4.6l2.3-2.851l3.25-1.75l3.85,0.4l3.45-2.7l0.35-4.2l1.35-4.949l-0.55-2.351l-1.55-2.45l-0.95-2.1l0.35-2.35l-1.5-0.55
		h-1.55l-0.95,2.1l-2.3,0.95l-2.1,2.15l-2.5,5.9h-1.15l-0.6,1.55l0.2,1.7l-3.05,3.85l-0.4,3.45l-2.1,3.05L161.3,319.3z M105.3,304.4
		l-0.55,0.149l-0.2,1.15l1.35,1.149l0.15,1.351 M119.575,323.7l1.275,1.35l0.35,1.7 M118.5,356.075l0.05,0.024l0.7,1.926
		 M120.25,384.45l1.35,2.1l2.7-1.55l1.3,1.35l1,1.351l1.3-0.95V381l-2.1,0.55l-0.95,0.95h-0.75l-0.95-0.95l-1.35-0.399l-1.75,0.8
		L120.25,384.45z M135.6,369.125l-0.8-2.875v-0.025 M122.9,300.075l-2.525-0.725 M260.925,210.325l2.325,0.825l2.1,0.4l0.2,1.9v0.05
		l-2.85,3.45l-4.25-0.55l-0.4-0.05l-0.85-1.95l-2.4-5.5l-3.45-0.4l-5.55,4.8v2.3l5.2,7.45l-0.65,2.35l0.25-0.05l1.7,0.75l0.6,2.3
		l2.3,3.45l1.9,1.1L259,234l-3.6,8.8l8.65,4.8 M265.35,211.55l-2.1-0.35l-2.325-0.875l-1.875-0.675l-0.4-2.85l3.25-2.7l0.775-1
		 M257.2,214.4l0.9,1.95l0.35,0.05 M257.1,232.95l-1.9-1.05l-2.3-3.45l-0.6-2.3l-1.7-0.8l-0.55,0.125l-4.45,1.025l-7.25-0.55
		l-2.5,0.4l-1.35,5.55l-1.7,4.8l-5.95,3.125l2.85,1.425l-0.6,2.3l6.05,17.25l5.75,1.15l8.575,10.7 M250.05,225.475l0.3-0.075
		 M268.6,255.9l2.3,0.1l2.2,0.825 M270.2,284.4l-1.125,1.425 M319.9,255.15l-1.05,1.05l-4.2,2.3h-0.05 M303.2,259.025l0.05-0.025
		l-0.15-0.3l3.45-1.15h0.025h0.025l6.375,0.75 M306.575,257.55l-3.425,1.15l1.5,4l4.05,1l-0.325,2.575 M308.1,268.85l0.8,2.1
		l-5.75,15.55l7.85,8.6l-0.225,2.625 M236.3,188.35l-13.2,32.2l-0.125,0.6l0.125-0.55l4.775-11.65 M222.975,221.15l-1.325,5.45
		l4.6,12.95l0.55,0.3l0.05-0.025 M184.25,219.15l-4-0.65l-1.15-1.95l0.025-0.025 M180.975,213.5l-3.225-0.2v-0.05 M181.375,220.825
		l0.025-0.025l-0.95,2.65l-2.7,5 M175.85,229.775l-0.4-1.525v-0.025 M170.95,242.95l-0.1-0.3v-0.025 M170.225,261.875L170.1,261.4
		v-0.05 M242.95,371.5l2-3.45l2.9-2.899l0.55-3.15l1.45,0.3l2,1.15l-1.15,4.6l-3.45,3.15l-3.15,4.6l-1.45-1.45L242.95,371.5z
		 M312.85,302.575l1.4,1.375 M320.125,310.075l1.575-1.175l1.35,1.35 M245.25,345.6l-0.85,4.601l1.15,2.3l-2.05,3.2l-0.85,3.45
		l1.75,5.449l2.55-3.449v-7.5l1.15-5.75l-1.4-4L245.25,345.6z M273.075,359.15l-1.425,1.399L268.2,366l-1.7,0.6 M291.9,426.05h-0.05
		l0.125,0.275l0.025,0.05l0.025,0.025l0.025,0.05l-6.3,0.3l-0.975,1.15l-1.925,2.25l-1.7,18.1v0.05l0.3,2.55l-2.05,8.051l0.6,4.05
		l7.2,3.75l4.3,3.45l5.45-2.301l6.35-3.75l6.65,3.426l1.1,0.574l-2.15-0.125l-2.15-0.175l-4.3-0.85l-0.875,0.475L302.4,467
		l4.35,0.85l2.15,0.125 M291.5,425.25l0.4,0.8l2.2-0.399 M283.55,421.4l1.35,2.699l7.1,2.275 M292.025,426.4l-6.275,0.3l-0.975,1.2
		 M293.575,472.15l-0.375,0.3L283.15,471l-8.9,8.35l-8.35,13.2l-2,6.351l-1.225,1.149l-5.125,4.851l-3.275,7.35l-0.4,0.95
		l-0.025,0.05l4.85,2l5.2,4.05l16.95-2.3l79.05-8.9l0.025-0.05l0.5-1.024l4.675-9.575l4.175-0.726 M293.575,472.15l-0.325,0.25
		l-10.1-1.45l-8.9,8.35l-8.35,13.2l-2,6.35l-1.225,1.2 M301.575,467.425L295.8,470.4l-2.225,1.75 M254.275,512.25l-0.425,0.95h0.025
		 M369.85,411.725l1.3,1.075l0.4,2.9l1.275,1.024 M346.6,419.7v0.05l-0.75,0.95l-2.175-0.15 M348.55,417.725l-2.15,0.676
		 M351.2,417.175l-0.375-0.125 M336.3,409.125l0.7-1.875l-0.15-2.1 M331.275,403.625l-1.325-1.325l-5.55,2.275 M336.85,413.2
		l-1-1.15l1.275-0.875 M342.875,418.65l-0.125-2.351h-3.05v-0.05 M359.925,508.05h0.025l0.475-1.024"/>
	
		<path fill-rule="evenodd" clip-rule="evenodd" fill="none" stroke="#aaa" stroke-width="0.7" stroke-linecap="round" stroke-linejoin="round" stroke-miterlimit="3" d="
		M233.725,90.7l6.025-3.05l2.85,0.2l1.05-3.3l-2.3-4.1l3.3-3.3l22.05-2.05l1.4,11.7l8.25,2.9l2.65-0.2l4.95-7l0.6-2.5l1.45-1.4
		l7.25,3.7l1.2-4.55l1.65-3.7l3.1-4.7l0.85-7.85l-0.25-9.25 M299.575,119.475L299.6,123l0.4,1.65l-0.6,2.25l1.85,2.45l-0.85,2.3
		l1.05,2.05l-2.7,6.35l1.25,1.05l-0.8,4.3l1.2,1.05l2.5-0.4l2.85,0.6l-0.8-10.1l2.85,0.85l1.65,3.5l2.5-0.2l2.65-2.05l2.7-1.45
		l-1.45,6.35l1.85,1.05l-0.6,4.1l3.9,0.2l2.45-0.2l12.35,9.25l0.4,1.65l-2.65,1.65l-2.9-0.6L329.4,160l-2.65-1h-2.05l-0.85,2.65
		l-1.65-0.4l-2.25,4.75l-1.65-1.45l-1.4,0.8l0.4,1.85l1.45,0.85l-1.05,1l0.4,2.1l-1,1.85 M303.1,187.4l5.8,3.3l0.4,1.85l-0.85,1.2
		l1.25,3.7l-0.4,2.5l7.8,1.45l4.3-1.45l1.45-1.05l7.2-0.8l1.65-1.65l0.65,2.05l-5.8,8.85l1.45,5.95l1.25,1.45l1,2.25l-1.4,1.45
		l-0.25,2.05l1.25,2.25l-1.45,8.45l-1.2,3.3l1.4,8.25l1.05,2.65l-0.4,5.55l-2.05,6.425 M325.15,258.3l6.75,9.1l-1.65,0.8l-0.4,3.7
		l3.25,8.25l0.85,7l-0.65,4.3l1.05,0.25l6.2,3.3l3.1-3.1l3.5-2.25l1.6-2.05l-1.6-3.3l1-2.25l-0.8-3.5l2.05-1.25l-2.9-1.25l2.05-4.1
		l3.5,1.05l2.7,1.2l2.65-0.8l1.25-1.85l0.8-3.5l-0.8-1.05l-2.7-0.2l-2.25-1.85l-2.85,0.85l-1.25-4.75l-3.3,0.4l-1.05-1l-3.05,1.4
		l-0.4-1.85l2.45-2.65l2.25-0.4l2.7-3.1l1.85,0.8l3.05-4.3l7.65,0.4l1.4-4.1l-1.4-2.05l-0.2-1.85l-2.9-1.25l-0.15-4.45
		 M310.5,293.95l-0.2-3.9l-1.65-2.25l1.45-2.9l0.4-2.85l1.05,2.05l1.2,4.1l1.65-0.6l2.3,0.2l2.05-1.65l5.55,1.65l2.05,2.05l6.95,1.6
		 M357.9,414.75l7.1,3.4l-0.6,3.449l0.6,7.301l-0.75,4.05l0.75,2.1l2.5,3.05l-0.95,0.75l-2.3,1l-0.8,2.101l0.8,1.899l0.15,8.051
		l-0.95,3.05l1.75,1.75l-0.2,1.55l3.85,0.35l0.75,1.551l1.9,0.55l2.1,4.25l-2.45,12.45l-3.45-0.75l-0.4,1.3l2.5,1.95l-2.425,6.875
		L367.7,487l2.15,3.25v4.4l-0.575,2.074 M264.05,247.6l-14.575,25.05 M281.95,348.45l1.45-0.4l3.9-2.5l5.35-0.8l3.5,2.45l1,6.2
		l2.05,2.649l6.2-1.649l1.65-1.851l0.2-2.25l-0.85-3.7l2.5-2.449l3.7,1l1.85-1l1.85-2.7l0.8,0.6v3.5l2.3,1.45l4.3-0.8l1.45-2.3
		l1.85,0.449h4.1l2.25,0.801l2.1-1.25l-0.25-1.4l-3.05-0.65l-3.1-3.05l-0.4-2.3l3.3-1l2.25,1.65l1.65,0.199l2.05-0.649l0.8,2.1
		l-1.65,4.5h0.85l1.85-2.649l1.85-0.25l2.05,1.05l1.45-5.325 M293.25,82.3l0.8,0.4l2.65,1.85l3.3,3.9l0.4,2.9l0.85,2.05v4.1
		l11.9-0.2l0.2,3.7l-2.45,19.875v0.05 M257.85,163.125l1.45-1.675v-2.85l-2.25-2.3l-3.1-10.45l13.6-2.1l12.5-6.95l1.65-2.9l-1.2-0.8
		h-1.25l-1.45-1.45l-0.8-6l-5.35-3.25l-2.25-2.9l0.2-1.05l-1.85-1l-0.2-1.25l-1.45-0.2l-2.85-4.3 M167.275,283.8l46.325-0.2
		l2.65,1.55l1.75,5.75 M161.25,163.05l-8.6-1.3l-4.4-1.75l-4.8,4.4l-4.05,1.55l-2.65,0.55l-2.7,4.6l-3.05,3.1l-3.475,1.325
		l-0.725,1.125l-2.7,1.35l2.1,2.9l1.55,0.75l0.95-0.55l1.7-1.55h1.75l1.35,1.7l-0.95,5l0.15,4.6l-0.15,1.35v2.3l1.7,0.4l3.05,2.3
		l-0.15,1.3l-1.15,2.7l0.35,4.4l2.1,1.55l7.3,3.05l0.95,2.3l1.35,1.75h1.55 M227.875,208.95l13.075-2.2l10.9,0.6v0.85 M237.05,184.3
		l8.25,1.45l-2.05,4.7L250,195l4.95,0.6l-0.6,3.1l2.05,2.45l6.275,1.95l0.325,0.1 M109.15,272.7l-2.5,0.75l-2.3-0.75l-0.6,2.1h-2.65
		l-0.6,1.55l-0.55,2.3l-1.15,3.25l-0.8,1.7l1.55,0.8l-0.2,1.7l-2.5,0.6l-1.15,4.4l-1.9,0.95l-0.6,4.4l-2.3,1.35l-1.5,2.5l-2.1,2.3
		l-4.25,1.551l1.35,2.449l-0.2,1.95l-1.5,1.9L80.4,312h-3.1l-2.5,2.85l-2.65-0.35l-4.05,1.9l0.2,2.5l-1.55,1.899l-1.5,0.601
		L63.7,323.3l-0.95,3.25l-1.55,2.5h-3.25l-2.85,2.5l-3.85,2.65l-4.2,1.55l-1.65-0.6l-1.45-3.25L34.2,328.1l-0.4-3.25l-1.15-1.55
		l-2.5-1.899 M91.15,169.75l6.7,0.6L99.2,169l2.1-0.2l1.7-1.15l3.1,1.55l2.3,0.75l0.15,9.6l1,1.55l2.1,0.15l3.65-2.65l1.3-2.5
		l0.8-2.7l2.85-2.1l0.6-2.7c0.033-0.033,0.383-0.383,1.05-1.05c0.667-0.667,1.367-1.383,2.1-2.15c0.733-0.733,1.217-1.25,1.45-1.55
		c0.333-0.434,0.75-0.917,1.25-1.45s0.783-0.816,0.85-0.85l1.55,0.75l-0.6,2.7l-3.05,5.15l2.1,5.35l-0.025,0.025 M161.05,167.5
		l-2.1-1.15l-0.95,1.9l-0.4,4.2l-3.25,6.15l-2.3,6.3l0.4,3.3l4.4,8.6v2.7 M125.4,221.525l1.35,2.325l-0.35,0.95l-0.8,1.5l-0.35,1.15
		l1.9,1l2.7,0.35l2.1-1.5l2.65,0.55l2.15,0.95l7.65-1.5l-0.55-1.75l3.8-2.85l2.3-2.3l1.35,1.7l1.15,0.95l2.9,0.4 M144.4,227.3
		l2.1,1.7l1.15,1.9l-0.35,2.7l-4.05,3.65l-7.075,13.95l-0.025,0.05 M84.275,227.35l-4.375,3l-0.55,2l-2.6,1.75l0.55,3.75l-2.55,6
		l-3.2,2.4l-1.5,2.1l-6.15,3.1l0.2,7.45l-5.75,3.1l-3.45,18.55L50.85,280L43,280.2l-4.4,1.35 M84.275,227.35l0.025-0.175
		 M131.4,295.1l13.2-2.1l5.55-2.5l6.3-10.7l4.6,2.65l1.55-0.2l3.85,1.55h0.825 M128.7,296.7l-0.75,3.45l0.95,0.949l1.7,1.15
		l0.95,5.15l1.75,0.8h3.25l7.85,3.25l6.15,11.7 M312.975,258.3l-0.575-4.05l0.4-3.3v-1.85l-1.65-4.3l-3.9-5.35l-2.05-2.05l0.4-2.05
		l1.85-1.65l-0.4-3.3h-1.25l-3.3,1.05l-0.4-2.1v-1.85l-1.45-1l-2.45-5.55l-5.75,2.25l-9.3-1.05l-3.5,1.25l-1,1.05l-4.55-0.2
		l-3.5-0.65l-3.9,1.45l-2.05-1.85l1.45-4.1l0.6-4.95l0.4-1.85h-1.4 M172.75,201.4l7.5,3.6l3.45-2.65l0.95,0.35l1.35-1.5l5.35,2.85
		l0.5,2.225L195.2,206l1.75-2.1l1.55,0.75l1.85,2.825 M181.6,212.9l3.25,1.15l2.7-5.55l2.7-2.1l1.6-0.125l0.05,0.275 M177.15,213.1
		l-1.9-0.6l-1.7,0.6l4,5.75l-3.65,1.35l-3.45-1.95l-13.6,2.1 M169.9,218.85l-0.2,4.8l3.85,3.05l-5.35,4.6l-1.35,5l-3.1,2.5
		l-1.9,3.25 M245.1,341.85l35.4,7l1.45-0.399 M309.95,467.525l2,0.675l-0.2,5l-4,5.149l-1,2.5l2.9,1.351l10.55-0.95l5.95-1.95
		l2.65,2.3l-0.55,6.9l1.15,3.45l2.3,1.149l1.9-2.5l1.15-3.8l4.6-4.6l1.15-5l2.1-2.3l4.25-0.551l1.3,0.95l3.3,5.15l4.4-0.351
		l5.15-1.35l4.05,6.3l2.325,1.726 M278,468.6l6.35-0.399l4.8,2.5l4.95-0.2l1.75-0.95l5-3.649h4.2l4.9,1.625"/>
	
		<path fill-rule="evenodd" clip-rule="evenodd" fill="none" stroke="#000000" stroke-width="0.5" stroke-linecap="round" stroke-linejoin="round" stroke-miterlimit="3" d="
		M377.3,515.4l-0.75-0.601l-2.3,0.65 M373.15,515.85l-1.8,2.9 M364.5,519.25l0.1-3.4 M380.75,518.25l-2.5-2.05 M369.7,523.95
		l-2.75,0.75l-0.3-0.351 M371.1,519.9l-0.6,3.35 M384.05,521.65l-2.35-2.45 M365.95,523.35l-1.5-2.05v-0.85 M364.3,514.75l-2.15-2.6
		 M361.35,511.25l-2.25-2.6"/>
</g>
<text transform="matrix(0.85 0 0 1 116.7998 229.874)" fill="#069" font-family="'_sans'" font-size="8">P51</text>
<text transform="matrix(0.85 0 0 1 110.5 183.5244)" fill="#069" font-family="'_sans'" font-size="8">P48</text>
<text transform="matrix(0.85 0 0 1 164.4502 218.7744)" fill="#069" font-family="'_sans'" font-size="8">P50</text>
<text transform="matrix(0.85 0 0 1 187.1504 203.374)" fill="#069" font-family="'_sans'" font-size="8">P49</text>
<text transform="matrix(0.85 0 0 1 75.0498 254.624)" fill="#069" font-family="'_sans'" font-size="8">P53</text>
<text transform="matrix(0.85 0 0 1 117.6006 308.0742)" fill="#069" font-family="'_sans'" font-size="8">P52</text>
<text transform="matrix(0.85 0 0 1 375.75 443.2246)" fill="#069" font-family="'_sans'" font-size="8">P47</text>
<text transform="matrix(0.85 0 0 1 279.4502 288.2744)" fill="#069" font-family="'_sans'" font-size="8">P46</text>
<text transform="matrix(0.85 0 0 1 360.3506 271.0244)" fill="#069" font-family="'_sans'" font-size="8">P45</text>
<text transform="matrix(0.85 0 0 1 299.3506 209.2241)" fill="#069" font-family="'_sans'" font-size="8">P44</text>
<text transform="matrix(0.85 0 0 1 229.4502 210.5742)" fill="#069" font-family="'_sans'" font-size="8">P43</text>
<text transform="matrix(0.85 0 0 1 294.7998 151.9243)" fill="#069" font-family="'_sans'" font-size="8">P42</text>
<text transform="matrix(0.85 0 0 1 314.3506 72.374)" fill="#069" font-family="'_sans'" font-size="8">P41</text>
</svg>
