<?xml version="1.0" encoding="utf-8"?>
<!-- Generator: Adobe Illustrator 15.0.2, SVG Export Plug-In . SVG Version: 6.00 Build 0)  -->
<!DOCTYPE svg PUBLIC "-//W3C//DTD SVG 1.1//EN" "http://www.w3.org/Graphics/SVG/1.1/DTD/svg11.dtd">
<svg version="1.1" id="Layer_1" xmlns="http://www.w3.org/2000/svg" xmlns:xlink="http://www.w3.org/1999/xlink" x="0px" y="0px"
	 width="800px" height="600px" viewBox="0 0 800 600" enable-background="new 0 0 800 600" xml:space="preserve">
<g>
	<path fill-rule="evenodd" clip-rule="evenodd" fill="#c8c8c8" d="M284.55,295.1h1l2.3,5.3l1.35-0.301l2-2l2.35,2.3l2-0.65
		l-0.7-2.65l1.7-0.7l3.3,2l5,0.35l2.7-0.65l1.3,0.65l1,1.65h2.35l9.65,2l2.7-2l6-3l1.3-1.3l1.35,0.3l3-1l3.35-0.3l1.65-2.35l3-1
		l-0.35-1.65l1.7-0.35l2.3-2.65l-0.3-1.35h4.65l3,1l0.65-2h1l2.35-1.65l2-4l2-0.35l1.35-0.65l-0.7-1.7l1.35-1.65l4-0.65l1.35,1
		l2.3-0.7l2-1.3l7-0.35l6.35-1l1,0.65l0.4,0.2l-1.1,11.7l-0.2,7.15l-2,12.6l-0.55,0.45l-2.15,2.9L344.25,340.8l-6.55,4.8l-0.8,0.45
		l-1.1-0.649l-0.55-0.25l-4.1,4.149l-0.35,1.9l-1.8,0.55l-5.35,6.45l-11.15,17.6l-5.35,7.45l-2.2,1.8l-3.05,1.45l-1.4,1.35l-1.25,2
		l-2.45,3.101l-5.8,5.6l-6.35,4.8l-4,7.65l-1.15,3.5l-0.4,2.3l-1.7,0.55l-1.25,0.25l-4,3l-2.45,3l-1,0.7l-1.35,1.851l-1.2,0.8
		l-2.9,1.45l-3.6,3.449l-7.75,9.051l-1.5,2.75l-1.65,5.949l-2.2,2.351l-4.95,3.399l-1.85,1.601l-1.8,0.45l-0.45-0.25l-1.1,0.649
		l-0.35,1.05l-0.35,2.65l-0.55,1.9l-2.1,3.1l0.65,0.6v0.75l0.45,0.101l0.35,1.05l-0.15,1.9l0.25,0.55l-0.2,0.75l0.55,0.649
		l-0.55,0.25l-0.2,1l1.35,3l-1.35,2l-1,3l-2,1.65l-0.35,1.65l-1.3,1.35l-0.8,0.55l0.05-0.399l-0.25,0.5l0.2-0.101l-0.05,0.601
		l0.9,0.149v0.9l-2.1-0.25l-0.35-1.351l-1.7-1.1l-3.45-3.7l-2.35-1.45l-4.9-5.75l-5-7.25l-0.9-3.05l-3.55-2.2l-4.15-9
		c0,0.067,0,0.117,0,0.15l-0.15-0.55c-0.1-0.434-0.3-1.316-0.6-2.65c-0.333-1.533-0.533-2.517-0.6-2.95l-0.15-0.649l-3.7-8.45
		l-2.15-3.3l-4.2-12.05l0.3-3.801l-0.75-0.8l-4.6-10.35l-7.7-23.851l-0.95-2.05l1.3-0.149l4.35,0.699l6.3-0.699l2.35-1.301
		l3.35-1.35l0.3,2l2,1.35l15.35-10.35l-3.35-8l8.35,1.35l0.35,15.301l1.65,1.35l3-1.35h6l3.35,0.35l0.65-1.65l-0.35-4.35l3.35-1
		V358.1l-1.35-6.35l1.35-1.35l3.65,1l6.35,4.699l-0.35-9.699l2,0.35h8.7l1.65-1.65l0.35-1l1-0.699l1.3-2h1.35l1-2.65v-1.35l3.35-1
		l1.3-1.301l2.7-1.699l2.3-3.301l1.35-1.35v-3l0.35-1.65v-2.35l0.65-2.35l0.65-0.65l-0.65-2l1.35-0.65l1-1.699l-1.35-1l-3.35,0.35
		l1-2.35l2.7-4.301l-0.35-2.35l0.35-1l-0.35-1.35l-1.35-3.65l1.35-2l-0.35-1.65l-0.1-0.15l1.45,0.45l3,3.35h2L284.55,295.1z"/>
	
		<path fill-rule="evenodd" clip-rule="evenodd" fill="none" stroke="#fff" stroke-width="0.5" stroke-linecap="round" stroke-linejoin="round" stroke-miterlimit="3" d="
		M284.55,295.1l-4.35,3.65h-2l-3-3.35l-1.45-0.45l0.1,0.15l0.35,1.65l-1.35,2l1.35,3.65l0.35,1.35l-0.35,1l0.35,2.35l-2.7,4.301
		l-1,2.35l3.35-0.35l1.35,1l-1,1.699l-1.35,0.65l0.65,2l-0.65,0.65l-0.65,2.35v2.35l-0.35,1.65v3l-1.35,1.35l-2.3,3.301l-2.7,1.699
		l-1.3,1.301l-3.35,1v1.35l-1,2.65h-1.35l-1.3,2l-1,0.699l-0.35,1l-1.65,1.65h-8.7l-2-0.35l0.35,9.699l-6.35-4.699l-3.65-1
		l-1.35,1.35l1.35,6.35v16.65l-3.35,1l0.35,4.35l-0.65,1.65l-3.35-0.35h-6l-3,1.35l-1.65-1.35L216.2,366.1l-8.35-1.35l3.35,8
		l-15.35,10.35l-2-1.35l-0.3-2l-3.35,1.35l-2.35,1.301l-6.3,0.699l-4.35-0.699l-1.3,0.149l0.95,2.05l7.7,23.851l4.6,10.35l0.75,0.8
		l-0.3,3.801l4.2,12.05l2.15,3.3l3.7,8.45l0.15,0.649c0.067,0.434,0.267,1.417,0.6,2.95c0.3,1.334,0.5,2.217,0.6,2.65l0.15,0.55
		c0-0.033,0-0.083,0-0.15l4.15,9l3.55,2.2l0.9,3.05l5,7.25l4.9,5.75l2.35,1.45l3.45,3.7l1.7,1.1l0.35,1.351l2.1,0.25v-0.9
		l-0.9-0.149l0.05-0.601l-0.2,0.101l0.25-0.5l-0.05,0.399l0.8-0.55l1.3-1.35l0.35-1.65l2-1.65l1-3l1.35-2l-1.35-3l0.2-1l0.55-0.25
		l-0.55-0.649l0.2-0.75l-0.25-0.55l0.15-1.9l-0.35-1.05l-0.45-0.101v-0.75l-0.65-0.6l2.1-3.1l0.55-1.9l0.35-2.65l0.35-1.05
		l1.1-0.649l0.45,0.25l1.8-0.45l1.85-1.601l4.95-3.399l2.2-2.351l1.65-5.949l1.5-2.75l7.75-9.051l3.6-3.449l2.9-1.45l1.2-0.8
		l1.35-1.851l1-0.7l2.45-3l4-3l1.25-0.25l1.7-0.55l0.4-2.3l1.15-3.5l4-7.65l6.35-4.8l5.8-5.6l2.45-3.101l1.25-2l1.4-1.35l3.05-1.45
		l2.2-1.8l5.35-7.45l11.15-17.6l5.35-6.45l1.8-0.55l0.35-1.9l4.1-4.149l0.55,0.25l1.1,0.649l0.8-0.45l6.55-4.8L383.6,307.4l2.15-2.9
		l0.55-0.45l2-12.6l0.2-7.15l1.1-11.7l-0.4-0.2l-1-0.65l-6.35,1l-7,0.35l-2,1.3l-2.3,0.7l-1.35-1l-4,0.65l-1.35,1.65l0.7,1.7
		l-1.35,0.65l-2,0.35l-2,4l-2.35,1.65h-1l-0.65,2l-3-1h-4.65l0.3,1.35l-2.3,2.65l-1.7,0.35l0.35,1.65l-3,1l-1.65,2.35l-3.35,0.3
		l-3,1l-1.35-0.3l-1.3,1.3l-6,3l-2.7,2l-9.65-2h-2.35l-1-1.65l-1.3-0.65l-2.7,0.65l-5-0.35l-3.3-2l-1.7,0.7l0.7,2.65l-2,0.65
		l-2.35-2.3l-2,2l-1.35,0.301l-2.3-5.3H284.55z"/>
</g>
<g>
	<polygon fill-rule="evenodd" clip-rule="evenodd" fill="#c8c8c8" points="314.8,66.95 316.7,65.05 318.4,65.7 322.15,68.85 
		322.3,70.25 321.25,72.5 319.15,74.95 318.8,76.4 318.95,78.3 318.05,80 317.5,85.2 321.3,93 322.6,93.8 324.6,94.55 326.2,94.15 
		327.3,93.45 328.65,93.45 330.1,96.6 330.5,98.7 330.5,100.8 331.65,103.4 333.45,104.8 335.2,105.6 339.55,106.05 340.1,104.95 
		341.35,106.6 341.65,106.05 342.65,105.95 344.45,108.6 345.1,108.15 346.15,107.95 348.8,107.15 350.7,106.8 352.35,107.75 
		350.7,111.6 349.7,112.5 349,114.2 345.15,116.95 344.7,117.75 345.45,119.65 346.8,121.3 347.25,123.55 347.25,127.35 
		345.6,128.65 343.45,129.35 342.45,132.6 342.45,135 345.6,135.05 346.25,135 346.6,135.15 347.55,140.15 348.7,141.6 
		348.6,143.15 349.05,144.75 349.95,145.95 350.45,147.4 347.7,150.75 344.35,152.55 341.8,155.2 339.45,155.3 337.55,156.1 
		335.65,157.55 332,157.75 331.45,159.3 331.4,161.65 331,162.75 332,163.55 333.45,162.9 334.75,164 336.75,164.55 340.65,165.2 
		341.45,165.2 341.8,165.45 342.7,167.25 342.55,170.05 343.7,172.45 344.8,173.8 344.8,174.7 346,176.7 348.25,177.15 348.8,178.5 
		350.35,179.15 350.6,180.4 350.45,181.25 351.15,181.95 352.05,182.6 355.8,183.2 358.3,183.2 359.4,182.5 360.3,183.2 
		360.4,184.6 362.5,185.4 364.5,185.85 365.5,186.75 366.3,187.05 366.65,189.3 365.2,190.3 365.95,191.65 367.95,193.2 
		368.55,193.85 369.2,194.9 370.3,195 374.75,193.1 376.35,196.55 377.25,199.25 377.45,202 376.55,203.8 377.55,204.25 
		378.9,204.55 379.15,206.35 381,207.9 382.15,208.45 382.1,209.9 381.8,210.9 384.05,218.95 385.15,219.75 386.95,220.2 
		387.25,221.05 388.25,222.05 388.35,222.85 389.05,224.3 389.8,224.95 393.5,233.75 389.6,272.6 389.25,272.45 388.25,271.8 
		378.55,273.15 374.9,273.15 372.9,274.45 370.55,275.15 369.25,274.15 365.25,274.8 363.9,276.45 364.55,278.15 363.25,278.8 
		361.25,279.15 359.25,283.15 356.9,284.8 355.9,284.8 355.25,286.8 352.25,285.8 347.55,285.8 347.9,287.15 345.55,289.8 
		343.9,290.15 344.25,291.8 341.25,292.8 339.55,295.15 336.25,295.45 333.25,296.45 331.9,296.15 330.55,297.45 324.55,300.45 
		321.9,302.45 312.25,300.45 309.9,300.45 308.9,298.8 307.55,298.15 304.9,298.8 299.9,298.45 296.55,296.45 294.9,297.15 
		295.55,299.8 293.55,300.45 291.25,298.15 289.25,300.15 287.9,300.45 285.55,295.15 284.55,295.15 280.25,298.8 278.25,298.8 
		275.25,295.45 273.8,295 272.9,293.8 272.25,292.15 267.55,291.15 267.25,293.8 264.9,293.8 263.25,294.8 262.25,296.15 
		261.25,293.45 259.25,291.8 256.55,290.8 247.55,288.8 242.9,286.45 243.9,283.8 246.25,268.8 245.9,265.15 247.25,263.45 
		247.25,261.15 243.55,259.45 217.9,252.45 210.3,196.1 211.05,194.45 211.7,193.45 213.6,193.2 214.7,194.35 215.95,194.3 
		216.65,193.75 216.3,192.75 215.75,191.65 216.4,190.1 217.5,189.5 217.75,188.95 217.4,187.4 216.5,186.2 215.15,185.05 
		214.85,183.2 215.05,181.95 214.7,180.3 213.2,178.7 212.7,177.35 212.4,174.5 212.5,172.7 213.6,171.5 214.15,170.6 213.75,169.8 
		213.75,168.45 214.2,167.35 213.6,165.9 212.6,164.55 211.25,163.7 210.75,164.45 209.85,164.65 205.45,162.1 204.45,160.9 
		203.8,158.85 203.95,157.55 203.05,152.55 203.15,148.3 202.35,147.2 201.6,146.4 201.15,145.5 201.25,144.75 202.05,143.05 
		202.05,142.4 201.15,140.85 200.8,139.4 200.8,138.35 201.55,138.4 202.5,138.35 203.05,136.9 202.7,134 202.05,132.6 201.9,131.8 
		202.6,130.55 203.35,128 202.8,126.2 202.8,124.75 202.25,123.45 203.05,123 204.25,122.55 205.9,121 207.15,120.9 208.6,121 
		210.15,119.1 211.6,118.3 213.2,117 213.95,116.1 214.4,115.05 213.15,110.75 212.5,110.05 212.6,108.5 212.25,106.85 
		212.4,105.25 212.05,104.25 211.25,103.15 212.85,102.15 212.95,99.95 213.5,98.25 213.05,96.9 212.95,92.7 212.5,91.25 
		210.25,90.35 208.85,90.35 207.95,89.55 206.05,84.2 205.45,80.4 205.8,80.1 206.8,79.75 209.4,79.4 210.75,79.5 211.05,78.65 
		211.95,77.55 211.95,76.95 212.05,76.05 212.05,75.6 213.3,73.6 214.4,72.5 217.2,65.35 218.85,62.6 218.95,61.05 218.4,59.15 
		219.1,58.6 225.35,56.35 228,54.8 229.2,53.75 229.75,53.35 230.9,54.25 231.25,53.45 231.9,52.75 235,50.35 236,50 236,52.25 
		236.9,53.75 239.35,56.65 241.7,56.25 243.5,55.55 244.35,56.35 245.6,56.35 245.85,58.7 246.85,60.45 246.95,62.45 248.7,64.7 
		249.95,67.35 249.6,69.05 249.4,71.4 250.3,73.3 252.75,75.05 254.4,75.75 254.75,77.3 256.3,77.5 257.85,78.3 258.3,79.4 
		259.3,80.3 260.75,80.1 262.35,79.4 263.75,80.4 264.35,80.5 265.3,79.95 267.8,81.2 268.8,81.2 271.15,81.75 272.15,81.55 
		273.05,80.2 273.25,78.5 273.6,77.75 275.45,78.4 276.5,78.5 277.7,77.65 278.5,76.75 279.7,74.2 280.5,71.3 282.05,70.95 
		282.4,70.75 282.8,69.3 282.15,67.95 282.15,66.6 282.3,66.15 283.3,66.05 284.85,66.5 285.6,66.05 286.15,63.7 287.5,64.35 
		288.75,66.5 290.05,67.85 290.4,69.4 291.85,71.75 292.55,75.3 294.2,75.6 295.55,75.15 298.75,71.75 300.35,70.6 302.9,70.05 
		306.35,70.15 307.15,68.25 308.15,67.95 309.7,67.85 310.55,67.25 312,66.6 313.35,67.05 	"/>
	
		<polygon fill-rule="evenodd" clip-rule="evenodd" fill="none" stroke="#fff" stroke-width="0.5" stroke-linecap="round" stroke-linejoin="round" stroke-miterlimit="3" points="
		314.8,66.95 313.35,67.05 312,66.6 310.55,67.25 309.7,67.85 308.15,67.95 307.15,68.25 306.35,70.15 302.9,70.05 300.35,70.6 
		298.75,71.75 295.55,75.15 294.2,75.6 292.55,75.3 291.85,71.75 290.4,69.4 290.05,67.85 288.75,66.5 287.5,64.35 286.15,63.7 
		285.6,66.05 284.85,66.5 283.3,66.05 282.3,66.15 282.15,66.6 282.15,67.95 282.8,69.3 282.4,70.75 282.05,70.95 280.5,71.3 
		279.7,74.2 278.5,76.75 277.7,77.65 276.5,78.5 275.45,78.4 273.6,77.75 273.25,78.5 273.05,80.2 272.15,81.55 271.15,81.75 
		268.8,81.2 267.8,81.2 265.3,79.95 264.35,80.5 263.75,80.4 262.35,79.4 260.75,80.1 259.3,80.3 258.3,79.4 257.85,78.3 
		256.3,77.5 254.75,77.3 254.4,75.75 252.75,75.05 250.3,73.3 249.4,71.4 249.6,69.05 249.95,67.35 248.7,64.7 246.95,62.45 
		246.85,60.45 245.85,58.7 245.6,56.35 244.35,56.35 243.5,55.55 241.7,56.25 239.35,56.65 236.9,53.75 236,52.25 236,50 235,50.35 
		231.9,52.75 231.25,53.45 230.9,54.25 229.75,53.35 229.2,53.75 228,54.8 225.35,56.35 219.1,58.6 218.4,59.15 218.95,61.05 
		218.85,62.6 217.2,65.35 214.4,72.5 213.3,73.6 212.05,75.6 212.05,76.05 211.95,76.95 211.95,77.55 211.05,78.65 210.75,79.5 
		209.4,79.4 206.8,79.75 205.8,80.1 205.45,80.4 206.05,84.2 207.95,89.55 208.85,90.35 210.25,90.35 212.5,91.25 212.95,92.7 
		213.05,96.9 213.5,98.25 212.95,99.95 212.85,102.15 211.25,103.15 212.05,104.25 212.4,105.25 212.25,106.85 212.6,108.5 
		212.5,110.05 213.15,110.75 214.4,115.05 213.95,116.1 213.2,117 211.6,118.3 210.15,119.1 208.6,121 207.15,120.9 205.9,121 
		204.25,122.55 203.05,123 202.25,123.45 202.8,124.75 202.8,126.2 203.35,128 202.6,130.55 201.9,131.8 202.05,132.6 202.7,134 
		203.05,136.9 202.5,138.35 201.55,138.4 200.8,138.35 200.8,139.4 201.15,140.85 202.05,142.4 202.05,143.05 201.25,144.75 
		201.15,145.5 201.6,146.4 202.35,147.2 203.15,148.3 203.05,152.55 203.95,157.55 203.8,158.85 204.45,160.9 205.45,162.1 
		209.85,164.65 210.75,164.45 211.25,163.7 212.6,164.55 213.6,165.9 214.2,167.35 213.75,168.45 213.75,169.8 214.15,170.6 
		213.6,171.5 212.5,172.7 212.4,174.5 212.7,177.35 213.2,178.7 214.7,180.3 215.05,181.95 214.85,183.2 215.15,185.05 216.5,186.2 
		217.4,187.4 217.75,188.95 217.5,189.5 216.4,190.1 215.75,191.65 216.3,192.75 216.65,193.75 215.95,194.3 214.7,194.35 
		213.6,193.2 211.7,193.45 211.05,194.45 210.3,196.1 217.9,252.45 243.55,259.45 247.25,261.15 247.25,263.45 245.9,265.15 
		246.25,268.8 243.9,283.8 242.9,286.45 247.55,288.8 256.55,290.8 259.25,291.8 261.25,293.45 262.25,296.15 263.25,294.8 
		264.9,293.8 267.25,293.8 267.55,291.15 272.25,292.15 272.9,293.8 273.8,295 275.25,295.45 278.25,298.8 280.25,298.8 
		284.55,295.15 285.55,295.15 287.9,300.45 289.25,300.15 291.25,298.15 293.55,300.45 295.55,299.8 294.9,297.15 296.55,296.45 
		299.9,298.45 304.9,298.8 307.55,298.15 308.9,298.8 309.9,300.45 312.25,300.45 321.9,302.45 324.55,300.45 330.55,297.45 
		331.9,296.15 333.25,296.45 336.25,295.45 339.55,295.15 341.25,292.8 344.25,291.8 343.9,290.15 345.55,289.8 347.9,287.15 
		347.55,285.8 352.25,285.8 355.25,286.8 355.9,284.8 356.9,284.8 359.25,283.15 361.25,279.15 363.25,278.8 364.55,278.15 
		363.9,276.45 365.25,274.8 369.25,274.15 370.55,275.15 372.9,274.45 374.9,273.15 378.55,273.15 388.25,271.8 389.25,272.45 
		389.6,272.6 393.5,233.75 389.8,224.95 389.05,224.3 388.35,222.85 388.25,222.05 387.25,221.05 386.95,220.2 385.15,219.75 
		384.05,218.95 381.8,210.9 382.1,209.9 382.15,208.45 381,207.9 379.15,206.35 378.9,204.55 377.55,204.25 376.55,203.8 
		377.45,202 377.25,199.25 376.35,196.55 374.75,193.1 370.3,195 369.2,194.9 368.55,193.85 367.95,193.2 365.95,191.65 
		365.2,190.3 366.65,189.3 366.3,187.05 365.5,186.75 364.5,185.85 362.5,185.4 360.4,184.6 360.3,183.2 359.4,182.5 358.3,183.2 
		355.8,183.2 352.05,182.6 351.15,181.95 350.45,181.25 350.6,180.4 350.35,179.15 348.8,178.5 348.25,177.15 346,176.7 
		344.8,174.7 344.8,173.8 343.7,172.45 342.55,170.05 342.7,167.25 341.8,165.45 341.45,165.2 340.65,165.2 336.75,164.55 
		334.75,164 333.45,162.9 332,163.55 331,162.75 331.4,161.65 331.45,159.3 332,157.75 335.65,157.55 337.55,156.1 339.45,155.3 
		341.8,155.2 344.35,152.55 347.7,150.75 350.45,147.4 349.95,145.95 349.05,144.75 348.6,143.15 348.7,141.6 347.55,140.15 
		346.6,135.15 346.25,135 345.6,135.05 342.45,135 342.45,132.6 343.45,129.35 345.6,128.65 347.25,127.35 347.25,123.55 
		346.8,121.3 345.45,119.65 344.7,117.75 345.15,116.95 349,114.2 349.7,112.5 350.7,111.6 352.35,107.75 350.7,106.8 348.8,107.15 
		346.15,107.95 345.1,108.15 344.45,108.6 342.65,105.95 341.65,106.05 341.35,106.6 340.1,104.95 339.55,106.05 335.2,105.6 
		333.45,104.8 331.65,103.4 330.5,100.8 330.5,98.7 330.1,96.6 328.65,93.45 327.3,93.45 326.2,94.15 324.6,94.55 322.6,93.8 
		321.3,93 317.5,85.2 318.05,80 318.95,78.3 318.8,76.4 319.15,74.95 321.25,72.5 322.3,70.25 322.15,68.85 318.4,65.7 316.7,65.05 
			"/>
</g>
<g>
	<path fill-rule="evenodd" clip-rule="evenodd" fill="#c8c8c8" d="M209.95,196.9l0.35-0.8l7.6,56.35l25.65,7l3.65,1.65v2.35
		l-1.3,1.65l0.3,3.65l-2.3,15l-1,2.7l4.65,2.3l9,2l2.65,1l2,1.7l1,2.65l1-1.35l1.7-1h2.3l0.35-2.65l4.65,1l0.7,1.65l0.85,1.2
		l0.15,0.15l0.3,1.65l-1.3,2l1.65,5l-0.35,1l0.35,2.35l-2.65,4.351l-1,2.3l3.3-0.3l1.35,1l-1,1.649l-1.35,0.65l0.7,2l-0.7,0.7
		l-0.65,2.3v2.35l-0.35,1.65v3l-1.3,1.35l-2.35,3.351l-2.65,1.649l-1.35,1.351l-3.35,1v1.3l-1,2.7h-1.3l-1.35,2l-1,0.649l-0.35,1
		l-1.65,1.65h-8.65l-2-0.3l0.3,9.649l-6.3-4.649l-3.7-1l-1.3,1.3l1.3,6.35v16.65l-3.3,1l0.3,4.35l-0.65,1.65l-9.35-0.3l-3,1.3
		l-1.65-1.3L216.2,366.1l-8.3-1.35l3.3,8l-15.3,10.35l-2-1.35l-0.35-2l-3.35,1.35l-2.3,1.351l-6.35,0.649l-4.35-0.649l-1.4-0.05
		l-0.05-0.051l0.2-0.75l0.35-0.55l-1-1.6l-3.65-9.101l0.2-0.35l-0.2-0.55l-0.7-0.351l-1.45-3.899l-1.35-1.7l-0.2-1.75l-0.15-0.25
		c-0.1-0.2-0.433-0.783-1-1.75c-0.4-0.634-0.65-1.05-0.75-1.25c-0.1-0.167-0.117-0.233-0.05-0.2l-0.75-1.8v-1.2l0.8-0.45l-0.45-1.8
		l-1,0.8l-3.7-2c0,0.067-0.033-0.017-0.1-0.25c-0.1-0.233-0.35-0.866-0.75-1.899c-0.367-1.066-0.55-1.733-0.55-2
		c-0.033-0.267-0.033-0.384,0-0.351l-0.9-1.55V344.9l-0.45-1.301l-0.6-2.699l0.45-2l-1-1.7l-0.55-2.55l1.45-0.45l2.25,0.1
		l0.75-0.649l1.05-1.9l1.85-0.2l1.15-0.55l0.45-0.8l0.85-0.8l3.15-1.301l1.2-3.149l0.25-1.65l-0.1-1.8l-0.45-0.8l0.4-2.55l0.6-0.301
		l0.65-0.55l0.1-0.45v-0.55l-0.3-1.25l-0.9-1.35l0.65-0.101l1.15-0.449l0.75-0.551l2.1-2.25l0.55,0.101l0.9,0.35l1.15-0.3l0.3-0.25
		l-0.3-0.75l1-0.35l0.35-1l0.55-0.45l1.1-0.25l0.8-0.65l1.1-0.2l-0.1-0.8l-0.55-0.8l-0.5-1.35l-0.65-0.851l-0.3-2.35l-0.8-0.9
		l0.1-0.9l-0.45-3.1l0.9-1.45l0.45-2.1v-0.5l-0.1-0.75l0.65-0.1l1.25,0.35l2.75-1.9l0.7-0.7l0.2-1.1l-0.45-2.25l1.9-1.85l0.25-0.7
		l0.45-0.55l0.65,0.65l1.65-0.1l-0.2-1l2.35-0.2v-1.5h-0.8l-1.35-2.1h-0.35l-0.95,0.15l-0.35-2.05l0.3-1.75l0.9,0.1l1.9-0.2
		l1.25,0.55l0.85-0.35l-0.55-1l0.35-1.1l0.35-2l-0.15-0.5v-1.3l-0.75-0.8l-0.1-0.9l0.55-3.55l-0.35-1.25l1.8-1.55l-2-3.65l-0.65-0.7
		l0.3-1.2l0.1-2l-0.35-1.6l-1-1.85l0.5-0.8l-1.15-1.7l-0.2-0.95l-0.7-1.25l-1-3.7l1.15,1.15l1,0.2l0.65-2.2l-0.55-0.6l-0.1-1.4
		l0.05-0.2c0.067-0.167,0.2-0.633,0.4-1.4c0.2-0.767,0.267-1.2,0.2-1.3c-0.1-0.1-0.167-0.117-0.2-0.05l-0.35-0.75v-0.15
		c0-0.1-0.033-0.417-0.1-0.95c0-0.5,0.167-0.733,0.5-0.7c0.3,0,0.466,0.033,0.5,0.1l-0.55-2.65l-1.35-1.1l0.35-1.25l-0.05-0.75
		l-0.2-1l0.55-1.8l-0.05-0.15c-0.033-0.1-0.133-0.417-0.3-0.95c-0.167-0.533-0.25-0.883-0.25-1.05l0.05-0.3l-0.9-1.8l-0.05-0.3
		c-0.067-0.267-0.2-1.017-0.4-2.25c-0.167-0.833-0.267-1.383-0.3-1.65c-0.033-0.233-0.033-0.367,0-0.4l-0.7-2.1l-0.05-0.25
		c-0.033-0.2-0.117-0.783-0.25-1.75c-0.1-0.966-0.1-1.5,0-1.6c0.1-0.133,0.167-0.184,0.2-0.15l1-2.8l0.7-0.2h1.55l0.2-0.1
		c0.133-0.133,0.517-0.45,1.15-0.95c0.667-0.533,1.05-0.867,1.15-1c0.133-0.133,0.183-0.2,0.15-0.2l-0.1-2.1l-1-3.95l0.8-1.1
		l0.1-1.1l-0.7-1l-0.3-0.8l-0.15-1.8l-2.1-0.2l0.8-2l-0.15-0.9V189c0-0.067,0-0.25,0-0.55c-0.033-0.6-0.066-0.9-0.1-0.9l0.8-0.45
		l0.8,0.65l1.3,0.6l1.35,1.55l1.9,1.65v2.35l0.3,1.35l1.05,0.55l1,0.1l0.4,0.45l1-0.2l1.35-0.9l0.45-1.45l0.55-0.7l0.1-1.2l1.25,0.3
		l1.55,1.8l1.25,2.8l0.3,2.25l1.45,0.45l0.35-0.7V196.9z"/>
	
		<path fill-rule="evenodd" clip-rule="evenodd" fill="none" stroke="#fff" stroke-width="0.5" stroke-linecap="round" stroke-linejoin="round" stroke-miterlimit="3" d="
		M209.95,196.9v1.9l-0.35,0.7l-1.45-0.45l-0.3-2.25l-1.25-2.8l-1.55-1.8l-1.25-0.3l-0.1,1.2l-0.55,0.7l-0.45,1.45l-1.35,0.9l-1,0.2
		l-0.4-0.45l-1-0.1l-1.05-0.55l-0.3-1.35v-2.35l-1.9-1.65l-1.35-1.55l-1.3-0.6l-0.8-0.65l-0.8,0.45c0.033,0,0.066,0.3,0.1,0.9
		c0,0.3,0,0.483,0,0.55v0.1l0.15,0.9l-0.8,2l2.1,0.2l0.15,1.8l0.3,0.8l0.7,1l-0.1,1.1l-0.8,1.1l1,3.95l0.1,2.1
		c0.033,0-0.017,0.067-0.15,0.2c-0.1,0.133-0.483,0.467-1.15,1c-0.633,0.5-1.017,0.817-1.15,0.95l-0.2,0.1h-1.55l-0.7,0.2l-1,2.8
		c-0.034-0.033-0.1,0.017-0.2,0.15c-0.1,0.1-0.1,0.633,0,1.6c0.133,0.967,0.217,1.55,0.25,1.75l0.05,0.25l0.7,2.1
		c-0.033,0.033-0.033,0.167,0,0.4c0.033,0.267,0.133,0.817,0.3,1.65c0.2,1.233,0.333,1.983,0.4,2.25l0.05,0.3l0.9,1.8l-0.05,0.3
		c0,0.167,0.083,0.517,0.25,1.05c0.167,0.533,0.267,0.85,0.3,0.95l0.05,0.15l-0.55,1.8l0.2,1l0.05,0.75l-0.35,1.25l1.35,1.1
		l0.55,2.65c-0.034-0.066-0.2-0.1-0.5-0.1c-0.333-0.034-0.5,0.2-0.5,0.7c0.066,0.533,0.1,0.85,0.1,0.95v0.15l0.35,0.75
		c0.033-0.067,0.1-0.05,0.2,0.05c0.066,0.1,0,0.534-0.2,1.3c-0.2,0.767-0.333,1.233-0.4,1.4l-0.05,0.2l0.1,1.4l0.55,0.6l-0.65,2.2
		l-1-0.2l-1.15-1.15l1,3.7l0.7,1.25l0.2,0.95l1.15,1.7l-0.5,0.8l1,1.85l0.35,1.6l-0.1,2l-0.3,1.2l0.65,0.7l2,3.65l-1.8,1.55
		l0.35,1.25l-0.55,3.55l0.1,0.9l0.75,0.8v1.3l0.15,0.5l-0.35,2l-0.35,1.1l0.55,1l-0.85,0.35l-1.25-0.55l-1.9,0.2l-0.9-0.1l-0.3,1.75
		l0.35,2.05l0.95-0.15H191l1.35,2.1h0.8v1.5l-2.35,0.2l0.2,1l-1.65,0.1l-0.65-0.65l-0.45,0.55l-0.25,0.7l-1.9,1.85l0.45,2.25
		l-0.2,1.1l-0.7,0.7l-2.75,1.9l-1.25-0.35l-0.65,0.1l0.1,0.75v0.5l-0.45,2.1l-0.9,1.45l0.45,3.1l-0.1,0.9l0.8,0.9l0.3,2.35
		l0.65,0.851l0.5,1.35l0.55,0.8l0.1,0.8l-1.1,0.2l-0.8,0.65l-1.1,0.25l-0.55,0.45l-0.35,1l-1,0.35l0.3,0.75l-0.3,0.25l-1.15,0.3
		l-0.9-0.35l-0.55-0.101l-2.1,2.25l-0.75,0.551l-1.15,0.449l-0.65,0.101l0.9,1.35l0.3,1.25v0.55l-0.1,0.45l-0.65,0.55l-0.6,0.301
		l-0.4,2.55l0.45,0.8l0.1,1.8l-0.25,1.65l-1.2,3.149l-3.15,1.301l-0.85,0.8l-0.45,0.8l-1.15,0.55l-1.85,0.2l-1.05,1.9l-0.75,0.649
		l-2.25-0.1l-1.45,0.45l0.55,2.55l1,1.7l-0.45,2l0.6,2.699l0.45,1.301v0.899l0.9,1.55c-0.033-0.033-0.033,0.084,0,0.351
		c0,0.267,0.183,0.934,0.55,2c0.4,1.033,0.65,1.666,0.75,1.899c0.067,0.233,0.1,0.317,0.1,0.25l3.7,2l1-0.8l0.45,1.8l-0.8,0.45v1.2
		l0.75,1.8c-0.067-0.033-0.05,0.033,0.05,0.2c0.1,0.2,0.35,0.616,0.75,1.25c0.567,0.967,0.9,1.55,1,1.75l0.15,0.25l0.2,1.75
		l1.35,1.7l1.45,3.899l0.7,0.351l0.2,0.55l-0.2,0.35l3.65,9.101l1,1.6l-0.35,0.55l-0.2,0.75l0.05,0.051l1.4,0.05l4.35,0.649
		l6.35-0.649l2.3-1.351l3.35-1.35l0.35,2l2,1.35l15.3-10.35l-3.3-8l8.3,1.35l0.35,15.351l1.65,1.3l3-1.3l9.35,0.3l0.65-1.65
		l-0.3-4.35l3.3-1V358.1l-1.3-6.35l1.3-1.3l3.7,1l6.3,4.649l-0.3-9.649l2,0.3h8.65l1.65-1.65l0.35-1l1-0.649l1.35-2h1.3l1-2.7v-1.3
		l3.35-1l1.35-1.351l2.65-1.649l2.35-3.351l1.3-1.35v-3l0.35-1.65v-2.35l0.65-2.3l0.7-0.7l-0.7-2l1.35-0.65l1-1.649l-1.35-1
		l-3.3,0.3l1-2.3l2.65-4.351l-0.35-2.35l0.35-1l-1.65-5l1.3-2l-0.3-1.65l-0.15-0.15l-0.85-1.2l-0.7-1.65l-4.65-1l-0.35,2.65h-2.3
		l-1.7,1l-1,1.35l-1-2.65l-2-1.7l-2.65-1l-9-2l-4.65-2.3l1-2.7l2.3-15l-0.3-3.65l1.3-1.65v-2.35l-3.65-1.65l-25.65-7l-7.6-56.35
		L209.95,196.9z"/>
</g>
<g>
	
		<polyline fill-rule="evenodd" clip-rule="evenodd" fill="none" stroke="#aaa" stroke-width="0.7" stroke-linecap="round" stroke-linejoin="round" stroke-miterlimit="3" points="
		231.15,380.95 247.15,382.6 247.7,393.7 246.9,394.55 	"/>
</g>
<g>
	
		<line fill-rule="evenodd" clip-rule="evenodd" fill="none" stroke="#aaa" stroke-width="0.7" stroke-linecap="round" stroke-linejoin="round" stroke-miterlimit="3" x1="245.05" y1="396.65" x2="267.35" y2="426.1"/>
</g>
<g>
	
		<polyline fill-rule="evenodd" clip-rule="evenodd" fill="none" stroke="#aaa" stroke-width="0.7" stroke-linecap="round" stroke-linejoin="round" stroke-miterlimit="3" points="
		199.65,447.25 202.05,444.25 205.6,438.25 209.15,434.75 214,432 221.1,426.85 216.2,411.9 216.45,410.8 217.3,411.9 219.2,411.1 
		221.1,410.8 223,417.35 224.6,416.25 226,416 224.9,410.8 226.25,410.55 229.25,409.45 229.8,408.4 237.4,402.65 240.65,400.75 
		242,398.85 244.2,397.8 246.35,395.05 255.05,388.8 266.45,377.95 280.05,366.25 284.95,361.1 287.9,359.75 290.9,359.45 
		292.8,358.1 294.15,358.95 299.85,356.2 301.5,355.65 302.3,352.7 303.7,351.85 303.7,350.25 300.15,341.8 299.35,339.1 296.9,335 
		297.15,333.4 298.25,330.7 302.85,330.95 306.65,330.4 307.5,328.8 	"/>
</g>
<g>
	
		<polyline fill-rule="evenodd" clip-rule="evenodd" fill="none" stroke="#aaa" stroke-width="0.7" stroke-linecap="round" stroke-linejoin="round" stroke-miterlimit="3" points="
		307.5,328.8 315.65,326.6 317.25,326.35 318.9,328.5 337.7,345.65 	"/>
</g>
<g>
	
		<polyline fill-rule="evenodd" clip-rule="evenodd" fill="none" stroke="#aaa" stroke-width="0.7" stroke-linecap="round" stroke-linejoin="round" stroke-miterlimit="3" points="
		299.9,330.45 297.55,328.1 287.9,300.4 	"/>
</g>
<g>
	
		<polyline fill-rule="evenodd" clip-rule="evenodd" fill="none" stroke="#aaa" stroke-width="0.7" stroke-linecap="round" stroke-linejoin="round" stroke-miterlimit="3" points="
		182.9,305.8 187.45,308.15 187.45,314.05 191.85,327.25 190.7,329.3 190.4,332.25 188.35,335.15 186.9,335.75 184.8,340.75 
		183.05,349.55 185.7,358.05 186,362.5 187.45,366 191.3,371.6 190.4,373.05 193.65,376.55 193.05,377.45 193.65,378.35 
		193.55,379.8 	"/>
</g>
<g>
	
		<polyline fill-rule="evenodd" clip-rule="evenodd" fill="none" stroke="#aaa" stroke-width="0.7" stroke-linecap="round" stroke-linejoin="round" stroke-miterlimit="3" points="
		242.95,285.85 240.9,288.8 240.6,293.5 238.25,297 233.25,311.1 228.3,319.6 230.65,322.25 232.4,322.85 233.25,324.3 
		236.2,326.35 235.35,331.35 235.9,333.7 237.1,336.05 237.4,337.25 238.25,338.4 240.3,339.55 240.6,341.65 241.8,343.1 
		241.2,344.85 243.9,346.45 	"/>
</g>
<g>
	
		<polyline fill-rule="evenodd" clip-rule="evenodd" fill="none" stroke="#aaa" stroke-width="0.7" stroke-linecap="round" stroke-linejoin="round" stroke-miterlimit="3" points="
		191.3,324.3 193.65,323.1 193.05,325.45 193.65,327.25 196,329.85 197.2,329.6 195.7,328.1 196.3,327.5 198.35,327.8 
		198.95,326.95 198.95,325.75 199.8,326.35 200.7,326.65 201,324.9 201,323.7 201.9,323.7 203.05,324.9 203.95,324.6 205.7,324.9 
		207.15,324.6 208.65,323.1 210.1,323.4 210.25,323.65 211,324.6 212.15,321.95 213.05,322.25 213.05,323.4 213.9,323.4 
		215.4,324.3 216.85,318.4 215.95,316.95 215.4,313.15 220.35,312.85 221.55,315.8 223.6,315.8 232.7,311.65 	"/>
</g>
<g>
	
		<polyline fill-rule="evenodd" clip-rule="evenodd" fill="none" stroke="#aaa" stroke-width="0.7" stroke-linecap="round" stroke-linejoin="round" stroke-miterlimit="3" points="
		215.35,324.3 216.5,323.1 221.2,325.45 222.4,324.85 222.4,321.95 223.25,322.25 224.45,324 225.35,327.5 223.85,329.3 
		226.5,333.1 227.1,334.55 225.9,338.35 225.9,342.5 225.6,344.85 226.2,350.4 229.75,349.25 230.9,349.55 232.35,349.55 
		233.55,350.4 	"/>
</g>
<g>
	
		<polyline fill-rule="evenodd" clip-rule="evenodd" fill="none" stroke="#aaa" stroke-width="0.7" stroke-linecap="round" stroke-linejoin="round" stroke-miterlimit="3" points="
		217.9,252.4 222.1,250.6 224.75,243.85 226.8,240.9 229.45,238.85 230.35,235.9 230.95,235.05 232.4,235.35 235.35,237.4 
		236.2,237.4 235.9,236.2 234.45,233.55 260,233.55 260.3,242.4 261.45,242.95 261.15,247.65 268.2,248.25 274.65,248.25 
		279.35,247.35 282.3,247.1 284.05,246.5 284.95,241.2 287.9,229.45 288.75,222.4 288.2,207.75 287,194.25 290.25,188.35 
		292,174.85 343.1,170.75 	"/>
</g>
<g>
	
		<polyline fill-rule="evenodd" clip-rule="evenodd" fill="none" stroke="#aaa" stroke-width="0.7" stroke-linecap="round" stroke-linejoin="round" stroke-miterlimit="3" points="
		279.95,247.95 279.95,248.85 281.15,250.3 277.6,259.4 276.45,260.55 274.4,261.15 273.8,261.75 272.6,262.35 272.6,266.45 
		270.85,268.2 270,268.5 267.65,268.2 265.3,269.1 265,272.3 265.85,273.5 265.55,274.35 263.8,277.6 264.1,279.65 264.1,281.4 
		265.3,281.7 264.7,282.9 264.7,284.35 265,285.25 267.35,284.95 268.5,287 267.35,287 267.05,288.45 267.05,289.95 267.55,291.1 	
		"/>
</g>
<g>
	
		<polyline fill-rule="evenodd" clip-rule="evenodd" fill="none" stroke="#aaa" stroke-width="0.7" stroke-linecap="round" stroke-linejoin="round" stroke-miterlimit="3" points="
		277.3,258.55 279.35,260.05 280.55,259.45 281.4,260.05 283.15,260.6 284.05,260.05 284.95,258.25 283.45,257.1 283.75,255.65 
		285.25,254.75 287,252.7 287.85,253.6 288.75,252.7 288.75,254.45 287.85,260.35 288.15,263.55 290.5,268.85 293.75,269.45 
		294.05,270.6 294.05,271.5 294.9,271.8 296.4,271.8 297.85,272.95 298.45,273.25 299.3,275 299.9,275.9 301.4,276.75 304,277.05 
		304.9,277.35 307.25,277.35 307.85,276.75 308.4,277.65 311.35,277.95 314.3,277.35 316.05,278.25 316.05,282.05 314.6,286.45 
		312.55,290.85 316.05,293.8 315.15,295.85 314,296.75 312.85,296.75 309.6,295.25 308.7,295.85 307.55,298.15 	"/>
</g>
<g>
	
		<polyline fill-rule="evenodd" clip-rule="evenodd" fill="none" stroke="#aaa" stroke-width="0.7" stroke-linecap="round" stroke-linejoin="round" stroke-miterlimit="3" points="
		288.45,191.9 284.35,186.9 282,180.75 282.6,178.65 282.9,175.15 280.85,171.05 277.3,170.15 275.25,168.7 268.5,172.5 
		265.3,172.8 261.75,174.25 260.9,174.25 262.95,172.8 263.25,171.6 263.8,170.75 269.4,156.35 271.75,151.95 274.7,151.05 
		276.15,148.75 275.25,143.45 276.45,141.7 240.05,141.95 239.75,139.9 241.8,136.1 242.7,133.75 242.95,132 243.85,130.5 
		245,129.65 243.55,127.6 243.55,122.6 241.5,119.35 240.9,116.45 240.9,103.2 238.85,96.45 239.75,92.65 244.75,91.75 245.6,92.95 
		247.1,92.35 249.45,90 250.9,90.3 253.25,89.4 	"/>
</g>
<g>
	
		<polyline fill-rule="evenodd" clip-rule="evenodd" fill="none" stroke="#aaa" stroke-width="0.7" stroke-linecap="round" stroke-linejoin="round" stroke-miterlimit="3" points="
		253.25,89.4 253.85,88.85 257.05,85 259.3,80.25 	"/>
</g>
<text transform="matrix(0.85 0 0 1 287.25 343.2246)" fill="#069" font-family="'_sans'" font-size="8">P3</text>
<text transform="matrix(0.85 0 0 1 269.2998 158.9741)" fill="#069" font-family="'_sans'" font-size="8">P1</text>
<text transform="matrix(0.85 0 0 1 216.0498 296.9741)" fill="#069" font-family="'_sans'" font-size="8">P2</text>
</svg>
