<?xml version="1.0" encoding="utf-8"?>
<!-- Generator: Adobe Illustrator 15.0.2, SVG Export Plug-In . SVG Version: 6.00 Build 0)  -->
<!DOCTYPE svg PUBLIC "-//W3C//DTD SVG 1.1//EN" "http://www.w3.org/Graphics/SVG/1.1/DTD/svg11.dtd">
<svg version="1.1" id="Layer_1" xmlns="http://www.w3.org/2000/svg" xmlns:xlink="http://www.w3.org/1999/xlink" x="0px" y="0px"
	 width="800px" height="800px" viewBox="0 0 800 800" enable-background="new 0 0 800 800" xml:space="preserve">
<g>
	<polygon fill-rule="evenodd" clip-rule="evenodd" fill="#c8c8c8" points="250.1,426.45 256.1,422.05 258.9,420.85 264.1,421.65 
		267.7,424.85 267.3,428.05 268.5,448.1 268.1,453.7 267.3,456.5 265.3,457.7 263.7,457.7 262.1,458.9 260.5,459.7 257.3,462.9 
		252.1,466.5 244.45,483.7 240.85,490.5 235.65,496.1 232.85,498.1 230.45,495.7 231.25,491.7 230.85,484.5 231.65,480.1 
		232.45,478.5 230.05,475.7 231.25,465.7 233.65,460.5 239.65,452.1 244.05,441.3 246.85,431.65 	"/>
	
		<polygon fill-rule="evenodd" clip-rule="evenodd" fill="none" stroke="#fff" stroke-width="0.5" stroke-linecap="round" stroke-linejoin="round" stroke-miterlimit="3" points="
		250.1,426.45 256.1,422.05 258.9,420.85 264.1,421.65 267.7,424.85 267.3,428.05 268.5,448.1 268.1,453.7 267.3,456.5 265.3,457.7 
		263.7,457.7 262.1,458.9 260.5,459.7 257.3,462.9 252.1,466.5 244.45,483.7 240.85,490.5 235.65,496.1 232.85,498.1 230.45,495.7 
		231.25,491.7 230.85,484.5 231.65,480.1 232.45,478.5 230.05,475.7 231.25,465.7 233.65,460.5 239.65,452.1 244.05,441.3 
		246.85,431.65 	"/>
</g>
<g>
	<polygon fill-rule="evenodd" clip-rule="evenodd" fill="#c8c8c8" points="214.85,490.1 216.05,483.7 217.25,480.1 219.65,477.3 
		222.45,475.7 225.65,472.1 226.85,473.7 227.25,477.7 228.45,481.7 227.65,491.3 227.65,496.5 225.65,496.9 226.85,498.9 
		225.25,499.7 224.45,501.7 221.65,503.3 216.05,504.1 214.45,502.5 215.25,499.3 215.25,495.7 216.05,492.9 	"/>
	
		<polygon fill-rule="evenodd" clip-rule="evenodd" fill="none" stroke="#fff" stroke-width="0.5" stroke-linecap="round" stroke-linejoin="round" stroke-miterlimit="3" points="
		214.85,490.1 216.05,492.9 215.25,495.7 215.25,499.3 214.45,502.5 216.05,504.1 221.65,503.3 224.45,501.7 225.25,499.7 
		226.85,498.9 225.65,496.9 227.65,496.5 227.65,491.3 228.45,481.7 227.25,477.7 226.85,473.7 225.65,472.1 222.45,475.7 
		219.65,477.3 217.25,480.1 216.05,483.7 	"/>
</g>
<g>
	<polygon fill-rule="evenodd" clip-rule="evenodd" fill="#c8c8c8" points="211.2,443.25 212,439.65 218.8,432.05 224,428.05 
		228.8,426.45 232.8,426.45 236.85,429.65 239.25,432.45 238.45,436.05 234.4,440.85 227.6,445.65 227.2,447.65 230,447.65 
		230,450.05 229.2,454.05 224.8,457.25 214,468.9 210.4,471.7 208.8,471.7 208.4,467.7 209.2,463.7 210.4,462.5 210.4,458.9 
		213.2,458.1 211.6,454.05 214,451.25 212.4,451.65 210.4,450.85 208.8,450.45 209.6,446.85 	"/>
	
		<polygon fill-rule="evenodd" clip-rule="evenodd" fill="none" stroke="#fff" stroke-width="0.5" stroke-linecap="round" stroke-linejoin="round" stroke-miterlimit="3" points="
		211.2,443.25 209.6,446.85 208.8,450.45 210.4,450.85 212.4,451.65 214,451.25 211.6,454.05 213.2,458.1 210.4,458.9 210.4,462.5 
		209.2,463.7 208.4,467.7 208.8,471.7 210.4,471.7 214,468.9 224.8,457.25 229.2,454.05 230,450.05 230,447.65 227.2,447.65 
		227.6,445.65 234.4,440.85 238.45,436.05 239.25,432.45 236.85,429.65 232.8,426.45 228.8,426.45 224,428.05 218.8,432.05 
		212,439.65 	"/>
</g>
<g>
	<path fill-rule="evenodd" clip-rule="evenodd" fill="#c8c8c8" d="M275.7,457.4l-1.9,2.1l-3.65,0.95l-2.2,1.649l-2.7,2.75l-2,0.45
		l-4,3.2l-2.8,3.2l-3.2,2.8l-4,9.2l-2.8,2.8l-5.2,12.05l-4.8,7.2l-1.6,2l2.8,1.6l2.8,2.4l5.2-2.8l7.2-6.4l3.6-4.399l4.4-0.4l3.6,4
		l3.6,3.2h3.2l-0.8-2.4l-4.8-9.2l4-3.649l4-1.2l4-3.6l3.65-12l4.8-6.4l5.2-4l0.8-3.6l-10.15-0.2l-4.95-1.2L275.7,457.4z
		 M271.2,455.8h8.05l8.4,2l3.25-2.899l1.65,1.5l1,3.55l1.75,3.35l-3.2,4l-4.8,4l-4.8,6l-1.2,5.601l-4.05,6.399l0.85,5.25l4.05,6.95
		l-4.15-2.05l-4.4-8l-3.6-0.4l-2.8,2.8l4,5.2l1.6,2.8l0.4,3.601l-2,1.6l-2.8-0.8l-7.6-7.2h-3.6l-4,4.4l-3.6,4.8l-10.4,6.8l-7.2-4.8
		l-2-4.4l2-3.199l5.2-4.4l12-20.8l3.2-7.601L260,463L271.2,455.8z"/>
	
		<path fill-rule="evenodd" clip-rule="evenodd" fill="none" stroke="#fff" stroke-width="0.5" stroke-linecap="round" stroke-linejoin="round" stroke-miterlimit="3" d="
		M271.2,455.8L260,463l-7.6,6.85l-3.2,7.601l-12,20.8l-5.2,4.4l-2,3.199l2,4.4l7.2,4.8l10.4-6.8l3.6-4.8l4-4.4h3.6l7.6,7.2l2.8,0.8
		l2-1.6l-0.4-3.601l-1.6-2.8l-4-5.2l2.8-2.8l3.6,0.4l4.4,8l4.15,2.05l-4.05-6.95l-0.85-5.25l4.05-6.399l1.2-5.601l4.8-6l4.8-4l3.2-4
		l-1.75-3.35l-1-3.55l-1.65-1.5l-3.25,2.899l-8.4-2H271.2z M275.7,457.4l1.3,0.1l4.95,1.2l10.15,0.2l-0.8,3.6l-5.2,4l-4.8,6.4
		l-3.65,12l-4,3.6l-4,1.2l-4,3.649l4.8,9.2l0.8,2.4h-3.2l-3.6-3.2l-3.6-4l-4.4,0.4l-3.6,4.399l-7.2,6.4l-5.2,2.8l-2.8-2.4l-2.8-1.6
		l1.6-2l4.8-7.2l5.2-12.05l2.8-2.8l4-9.2l3.2-2.8l2.8-3.2l4-3.2l2-0.45l2.7-2.75l2.2-1.649l3.65-0.95L275.7,457.4z"/>
</g>
<g>
	<polygon fill-rule="evenodd" clip-rule="evenodd" fill="#c8c8c8" points="275.7,457.4 276.95,457.5 281.9,458.7 292.1,458.9 
		291.3,462.5 286.05,466.5 281.25,472.9 277.65,484.9 273.65,488.5 269.65,489.7 265.65,493.3 270.45,502.5 271.25,504.95 
		268.05,504.95 264.45,501.7 260.85,497.7 256.45,498.1 252.85,502.5 245.65,508.95 240.45,511.75 237.65,509.35 234.85,507.75 
		237.65,504.15 241.25,498.5 246.45,486.5 249.25,483.7 253.25,474.5 256.45,471.7 259.25,468.5 263.25,465.3 265.25,464.8 
		267.95,462.1 270.1,460.45 273.8,459.5 	"/>
	
		<polygon fill-rule="evenodd" clip-rule="evenodd" fill="none" stroke="#fff" stroke-width="0.5" stroke-linecap="round" stroke-linejoin="round" stroke-miterlimit="3" points="
		275.7,457.4 273.8,459.5 270.1,460.45 267.95,462.1 265.25,464.8 263.25,465.3 259.25,468.5 256.45,471.7 253.25,474.5 
		249.25,483.7 246.45,486.5 241.25,498.5 237.65,504.15 234.85,507.75 237.65,509.35 240.45,511.75 245.65,508.95 252.85,502.5 
		256.45,498.1 260.85,497.7 264.45,501.7 268.05,504.95 271.25,504.95 270.45,502.5 265.65,493.3 269.65,489.7 273.65,488.5 
		277.65,484.9 281.25,472.9 286.05,466.5 291.3,462.5 292.1,458.9 281.9,458.7 276.95,457.5 	"/>
</g>
<g>
	<polygon fill-rule="evenodd" clip-rule="evenodd" fill="#c8c8c8" points="486.85,455 489.8,457.4 487.4,457.8 482.2,457.8 
		479.4,459.8 483.4,460.6 488.6,460.2 491.8,459.4 495.4,459.4 500.6,463 502.6,463.4 502.2,464.6 501.4,471 499,472.2 498.2,477 
		496.2,478.2 496.2,480.6 498.2,484.6 503.4,486.6 501,489.85 499.8,491.05 497.4,490.25 493.8,490.25 496.2,494.65 497,500.65 
		496.6,506.65 495,507.85 494.6,509.45 494.6,511.45 491,511.85 490.6,510.25 487.8,505.05 481.8,504.65 479.8,505.45 475.4,506.25 
		473.4,507.85 468.2,509.85 464.6,510.25 465.4,507.45 467.8,504.65 473.8,501.05 475.4,495.45 475,487.05 473.8,479.8 469,473 
		469,465 467.8,462.2 460.55,455.8 458.15,449.8 452.15,442.6 450.55,443.8 448.95,446.2 448.55,449.4 448.55,450.6 445.75,450.6 
		445.75,453.4 443.75,453.8 437.35,457.4 436.95,445 438.55,441.8 440.55,439.8 440.95,437 440.15,434.6 442.15,433.8 445.75,433.8 
		450.15,432.6 452.15,429.4 454.55,429.8 454.95,432.6 457.35,435 457.35,438.6 458.95,439.4 461.35,437.8 462.15,429.4 471,428.55 
		471.55,422.3 472.6,422.15 474.6,424.55 476.6,426.15 479.8,427.8 481.8,428.15 485,432.6 481,441 482.05,443 	"/>
	
		<polygon fill-rule="evenodd" clip-rule="evenodd" fill="none" stroke="#fff" stroke-width="0.5" stroke-linecap="round" stroke-linejoin="round" stroke-miterlimit="3" points="
		486.85,455 482.05,443 481,441 485,432.6 481.8,428.15 479.8,427.8 476.6,426.15 474.6,424.55 472.6,422.15 471.55,422.3 
		471,428.55 462.15,429.4 461.35,437.8 458.95,439.4 457.35,438.6 457.35,435 454.95,432.6 454.55,429.8 452.15,429.4 450.15,432.6 
		445.75,433.8 442.15,433.8 440.15,434.6 440.95,437 440.55,439.8 438.55,441.8 436.95,445 437.35,457.4 443.75,453.8 445.75,453.4 
		445.75,450.6 448.55,450.6 448.55,449.4 448.95,446.2 450.55,443.8 452.15,442.6 458.15,449.8 460.55,455.8 467.8,462.2 469,465 
		469,473 473.8,479.8 475,487.05 475.4,495.45 473.8,501.05 467.8,504.65 465.4,507.45 464.6,510.25 468.2,509.85 473.4,507.85 
		475.4,506.25 479.8,505.45 481.8,504.65 487.8,505.05 490.6,510.25 491,511.85 494.6,511.45 494.6,509.45 495,507.85 496.6,506.65 
		497,500.65 496.2,494.65 493.8,490.25 497.4,490.25 499.8,491.05 501,489.85 503.4,486.6 498.2,484.6 496.2,480.6 496.2,478.2 
		498.2,477 499,472.2 501.4,471 502.2,464.6 502.6,463.4 500.6,463 495.4,459.4 491.8,459.4 488.6,460.2 483.4,460.6 479.4,459.8 
		482.2,457.8 487.4,457.8 489.8,457.4 	"/>
</g>
<g>
	<polygon fill-rule="evenodd" clip-rule="evenodd" fill="#c8c8c8" points="474.6,382.15 476.6,384.15 479.4,382.55 479.8,388.15 
		484.2,389.35 490.6,395.35 491.3,395.75 490.2,396.95 486.2,402.95 477.4,408.15 472.6,412.95 470.5,414.55 470.2,413.35 
		472.2,410.55 473.8,403.35 467.8,400.95 467.4,394.15 465.4,386.55 469.8,382.55 470.55,381 471.4,381.35 	"/>
	
		<polygon fill-rule="evenodd" clip-rule="evenodd" fill="none" stroke="#fff" stroke-width="0.5" stroke-linecap="round" stroke-linejoin="round" stroke-miterlimit="3" points="
		474.6,382.15 471.4,381.35 470.55,381 469.8,382.55 465.4,386.55 467.4,394.15 467.8,400.95 473.8,403.35 472.2,410.55 
		470.2,413.35 470.5,414.55 472.6,412.95 477.4,408.15 486.2,402.95 490.2,396.95 491.3,395.75 490.6,395.35 484.2,389.35 
		479.8,388.15 479.4,382.55 476.6,384.15 	"/>
</g>
<g>
	<polygon fill-rule="evenodd" clip-rule="evenodd" fill="#c8c8c8" points="450.55,443.8 452.15,442.6 458.15,449.8 455.75,451 
		456.95,453 456.55,463.8 385.7,465.4 385.7,462.6 387.3,459.4 388.5,459 389.3,456.2 388.9,453 390.1,451.4 390.1,449.8 
		389.7,446.6 389.7,445.4 386.9,441.8 385.3,441.4 385.25,441.25 384.1,439 384.5,434.6 384.45,433.5 395.3,434.6 396.1,429.8 
		401.7,430.6 403.3,430.2 407.75,424.95 409.35,419.75 412.95,419.75 414.15,418.95 420.55,420.15 424.8,422.3 423.35,423.75 
		422.95,425.75 426.95,427.8 426.15,432.6 429.35,433.4 430.95,434.2 433.35,436.2 436.95,436.2 440.15,434.6 440.95,437 
		440.55,439.8 438.55,441.8 436.95,445 437.35,457.4 443.75,453.8 445.75,453.4 445.75,450.6 448.55,450.6 448.55,449.4 
		448.95,446.2 	"/>
	
		<polygon fill-rule="evenodd" clip-rule="evenodd" fill="none" stroke="#fff" stroke-width="0.5" stroke-linecap="round" stroke-linejoin="round" stroke-miterlimit="3" points="
		450.55,443.8 448.95,446.2 448.55,449.4 448.55,450.6 445.75,450.6 445.75,453.4 443.75,453.8 437.35,457.4 436.95,445 
		438.55,441.8 440.55,439.8 440.95,437 440.15,434.6 436.95,436.2 433.35,436.2 430.95,434.2 429.35,433.4 426.15,432.6 
		426.95,427.8 422.95,425.75 423.35,423.75 424.8,422.3 420.55,420.15 414.15,418.95 412.95,419.75 409.35,419.75 407.75,424.95 
		403.3,430.2 401.7,430.6 396.1,429.8 395.3,434.6 384.45,433.5 384.5,434.6 384.1,439 385.25,441.25 385.3,441.4 386.9,441.8 
		389.7,445.4 389.7,446.6 390.1,449.8 390.1,451.4 388.9,453 389.3,456.2 388.5,459 387.3,459.4 385.7,462.6 385.7,465.4 
		456.55,463.8 456.95,453 455.75,451 458.15,449.8 452.15,442.6 	"/>
</g>
<g>
	<polygon fill-rule="evenodd" clip-rule="evenodd" fill="#c8c8c8" points="433.9,293.95 434.55,294.05 433.9,293.95 434.55,292.45 
		436.95,289.25 438.55,291.65 440.95,290.45 441.35,288.05 444.55,286.05 447.75,282.45 449.35,278.45 451.75,276.85 453.8,270.45 
		455,268.45 456.6,264.45 460.2,266.05 472.2,272.85 478.3,272.55 478.6,274.05 487.8,278.85 489.4,283.25 488.6,286.05 
		488.6,288.45 492.6,291.25 496.2,292.05 497.8,296.45 501.85,298.35 503.45,302.75 506.25,308.35 513.05,314.75 521.1,315.95 
		523.1,318.35 523.9,321.15 524.6,321.6 524.25,322.1 520.65,322.1 519.45,324.1 516.65,327.3 513.4,329.3 512.65,332.5 511,336.9 
		507.4,341.3 505.85,344.45 504.2,344.9 499.4,347.7 494.2,352.9 492.2,357.3 490.2,359.7 485.8,360.5 482.6,358.9 479,360.5 
		477.8,367.3 472.2,373.3 467.4,371.7 465.2,371.7 465,368.9 472.2,369.7 476.2,365.7 475.8,359.7 473.8,357.3 469.8,353.7 
		469.8,351.3 467.4,345.7 469.4,342.1 464.2,342.1 463,342.5 457.8,346.1 455.4,349.7 450.55,348.9 448.55,346.5 445.75,344.1 
		433.75,342.9 432.15,334.9 430.6,335.1 428.15,330.9 430.55,329.7 434.55,329.3 436.15,328.1 436.15,323.7 433.75,321.7 
		430.15,320.1 433.35,313.7 432.15,310.45 430.95,301.65 	"/>
	
		<polyline fill-rule="evenodd" clip-rule="evenodd" fill="none" stroke="#fff" stroke-width="0.5" stroke-linecap="round" stroke-linejoin="round" stroke-miterlimit="3" points="
		433.9,293.95 430.95,301.65 432.15,310.45 433.35,313.7 430.15,320.1 433.75,321.7 436.15,323.7 436.15,328.1 434.55,329.3 
		430.55,329.7 428.15,330.9 430.6,335.1 432.15,334.9 433.75,342.9 445.75,344.1 448.55,346.5 450.55,348.9 455.4,349.7 
		457.8,346.1 463,342.5 464.2,342.1 469.4,342.1 467.4,345.7 469.8,351.3 469.8,353.7 473.8,357.3 475.8,359.7 476.2,365.7 
		472.2,369.7 465,368.9 465.2,371.7 467.4,371.7 472.2,373.3 477.8,367.3 479,360.5 482.6,358.9 485.8,360.5 490.2,359.7 
		492.2,357.3 494.2,352.9 499.4,347.7 504.2,344.9 505.85,344.45 507.4,341.3 511,336.9 512.65,332.5 513.4,329.3 516.65,327.3 
		519.45,324.1 520.65,322.1 524.25,322.1 524.6,321.6 523.9,321.15 523.1,318.35 521.1,315.95 513.05,314.75 506.25,308.35 
		503.45,302.75 501.85,298.35 497.8,296.45 496.2,292.05 492.6,291.25 488.6,288.45 488.6,286.05 489.4,283.25 487.8,278.85 
		478.6,274.05 478.3,272.55 472.2,272.85 460.2,266.05 456.6,264.45 455,268.45 453.8,270.45 451.75,276.85 449.35,278.45 
		447.75,282.45 444.55,286.05 441.35,288.05 440.95,290.45 438.55,291.65 436.95,289.25 434.55,292.45 433.9,293.95 434.55,294.05 	
		"/>
</g>
<g>
	<polygon fill-rule="evenodd" clip-rule="evenodd" fill="#c8c8c8" points="479,360.5 482.6,358.95 485.8,360.5 490.2,359.75 
		492.2,357.3 494.2,352.9 499.4,347.7 504.2,344.9 505.85,344.45 504.2,347.7 504.6,352.9 501.8,358.95 497.8,363.35 498.2,366.15 
		501.4,372.15 503.4,378.95 502.6,382.55 497,386.95 495,391.75 491.3,395.75 490.6,395.35 484.2,389.35 479.8,388.15 479.4,382.55 
		476.6,384.15 474.6,382.15 471.35,381.35 470.55,381.05 472.15,377.75 464.95,375.35 465.35,374.15 465.2,371.75 467.35,371.75 
		472.15,373.35 477.8,367.35 	"/>
	
		<polygon fill-rule="evenodd" clip-rule="evenodd" fill="none" stroke="#fff" stroke-width="0.5" stroke-linecap="round" stroke-linejoin="round" stroke-miterlimit="3" points="
		479,360.5 477.8,367.35 472.15,373.35 467.35,371.75 465.2,371.75 465.35,374.15 464.95,375.35 472.15,377.75 470.55,381.05 
		471.35,381.35 474.6,382.15 476.6,384.15 479.4,382.55 479.8,388.15 484.2,389.35 490.6,395.35 491.3,395.75 495,391.75 
		497,386.95 502.6,382.55 503.4,378.95 501.4,372.15 498.2,366.15 497.8,363.35 501.8,358.95 504.6,352.9 504.2,347.7 
		505.85,344.45 504.2,344.9 499.4,347.7 494.2,352.9 492.2,357.3 490.2,359.75 485.8,360.5 482.6,358.95 	"/>
</g>
<g>
	<polygon fill-rule="evenodd" clip-rule="evenodd" fill="#c8c8c8" points="319.25,442.6 322.05,442.2 324.85,439.4 325,435.9 
		328.85,436.6 329.65,434.95 331.25,432.55 332.45,431.75 334.85,434.95 335.25,433.35 336.05,431.75 338.45,433.75 337.65,437 
		340.85,439 340.85,436.6 339.65,431.75 343.7,434.15 346.9,432.55 345.7,435.8 347.7,435.4 352.5,435.4 355.7,439.4 358.1,440.6 
		359.3,436.2 361.3,441 362.1,439.4 363.3,436.2 364.9,436.2 370.1,437 370.9,435.4 371.7,437.8 374.5,437.8 382.1,442.2 
		385.25,441.2 385.3,441.4 386.9,441.8 389.7,445.4 389.7,446.6 390.1,449.8 390.1,451.4 388.9,453 389.3,456.2 388.5,459 
		387.3,459.4 385.7,462.6 385.7,465.4 383.3,467.8 380.9,468.6 378.1,470.6 378.1,473 373.3,475.4 372.9,472.2 359.7,479.8 
		333.25,479.4 332.9,479.3 331.65,472.6 321.25,458.2 318.45,450.2 	"/>
	
		<polygon fill-rule="evenodd" clip-rule="evenodd" fill="none" stroke="#fff" stroke-width="0.5" stroke-linecap="round" stroke-linejoin="round" stroke-miterlimit="3" points="
		319.25,442.6 318.45,450.2 321.25,458.2 331.65,472.6 332.9,479.3 333.25,479.4 359.7,479.8 372.9,472.2 373.3,475.4 378.1,473 
		378.1,470.6 380.9,468.6 383.3,467.8 385.7,465.4 385.7,462.6 387.3,459.4 388.5,459 389.3,456.2 388.9,453 390.1,451.4 
		390.1,449.8 389.7,446.6 389.7,445.4 386.9,441.8 385.3,441.4 385.25,441.2 382.1,442.2 374.5,437.8 371.7,437.8 370.9,435.4 
		370.1,437 364.9,436.2 363.3,436.2 362.1,439.4 361.3,441 359.3,436.2 358.1,440.6 355.7,439.4 352.5,435.4 347.7,435.4 
		345.7,435.8 346.9,432.55 343.7,434.15 339.65,431.75 340.85,436.6 340.85,439 337.65,437 338.45,433.75 336.05,431.75 
		335.25,433.35 334.85,434.95 332.45,431.75 331.25,432.55 329.65,434.95 328.85,436.6 325,435.9 324.85,439.4 322.05,442.2 	"/>
</g>
<g>
	<polygon fill-rule="evenodd" clip-rule="evenodd" fill="#c8c8c8" points="378.1,403.85 378.5,404.95 378.1,403.85 378.1,403.75 
		381.3,400.15 386.1,400.15 390.9,402.55 392.1,404.95 392.5,406.15 395.3,402.55 398.1,403.35 402.95,402.95 402.95,405.75 
		405.35,414.15 407.35,414.55 409.35,414.15 410.95,416.55 409.35,419.75 407.75,424.95 403.35,430.2 401.7,430.6 396.1,429.8 
		395.3,434.6 384.45,433.5 383.3,417.75 381.7,418.15 378.1,417.75 376.9,417.75 375.7,414.15 376.1,408.95 377.3,406.55 	"/>
	
		<polyline fill-rule="evenodd" clip-rule="evenodd" fill="none" stroke="#fff" stroke-width="0.5" stroke-linecap="round" stroke-linejoin="round" stroke-miterlimit="3" points="
		378.1,403.85 377.3,406.55 376.1,408.95 375.7,414.15 376.9,417.75 378.1,417.75 381.7,418.15 383.3,417.75 384.45,433.5 
		395.3,434.6 396.1,429.8 401.7,430.6 403.35,430.2 407.75,424.95 409.35,419.75 410.95,416.55 409.35,414.15 407.35,414.55 
		405.35,414.15 402.95,405.75 402.95,402.95 398.1,403.35 395.3,402.55 392.5,406.15 392.1,404.95 390.9,402.55 386.1,400.15 
		381.3,400.15 378.1,403.75 378.1,403.85 378.5,404.95 	"/>
</g>
<g>
	<polygon fill-rule="evenodd" clip-rule="evenodd" fill="#c8c8c8" points="410.95,416.6 411.35,410.95 412.15,407.75 412.15,403.35 
		414.95,399.75 416.15,394.95 416.55,390.95 416.15,394.95 414.95,399.75 412.15,403.35 412.15,407.75 411.35,410.95 410.95,416.6 
		409.35,414.2 407.35,414.6 405.35,414.2 402.9,405.75 402.9,402.95 398.1,403.35 395.3,402.55 392.9,394.55 397.7,393.35 
		399.3,396.15 404.15,393.35 406.15,387.35 406.15,382.55 409.35,384.95 411.75,387.75 414.15,388.95 418.55,391.75 420.55,393.75 
		420.15,394.95 422.55,397.75 425.75,407.75 428.15,410.55 430.15,415.8 426.15,421 424.8,422.3 420.55,420.2 414.15,419 
		412.95,419.8 409.35,419.8 	"/>
	
		<polyline fill-rule="evenodd" clip-rule="evenodd" fill="none" stroke="#fff" stroke-width="0.5" stroke-linecap="round" stroke-linejoin="round" stroke-miterlimit="3" points="
		410.95,416.6 409.35,419.8 412.95,419.8 414.15,419 420.55,420.2 424.8,422.3 426.15,421 430.15,415.8 428.15,410.55 
		425.75,407.75 422.55,397.75 420.15,394.95 420.55,393.75 418.55,391.75 414.15,388.95 411.75,387.75 409.35,384.95 406.15,382.55 
		406.15,387.35 404.15,393.35 399.3,396.15 397.7,393.35 392.9,394.55 395.3,402.55 398.1,403.35 402.9,402.95 402.9,405.75 
		405.35,414.2 407.35,414.6 409.35,414.2 410.95,416.6 411.35,410.95 412.15,407.75 412.15,403.35 414.95,399.75 416.15,394.95 
		416.55,390.95 	"/>
</g>
<g>
	<polygon fill-rule="evenodd" clip-rule="evenodd" fill="#c8c8c8" points="324.6,257.95 325.7,258.85 324.6,257.95 326.9,256.45 
		335.7,260.45 334.9,262.85 336.1,263.25 339.7,266.85 340.1,272.45 344.9,274.05 346.1,275.25 348.1,279.25 349.7,280.05 
		351.3,281.25 352.9,281.25 354.1,282.05 356.9,282.05 365.3,284.05 373.35,283.65 375.75,284.85 378.55,285.25 381.35,287.25 
		388.95,289.25 390.95,286.05 393.75,286.05 392.95,288.05 392.95,290.05 394.15,292.85 398.95,293.25 400.95,294.45 404.55,295.25 
		408.15,296.85 410.95,296.45 415.35,296.45 417.35,297.65 420.95,293.25 424.15,290.05 426.55,293.65 432.2,293.65 433.95,293.95 
		431,301.65 431.8,308.5 432.2,310.5 433.4,313.7 430.2,320.1 433.8,321.7 436.2,323.7 436.2,328.1 434.6,329.3 430.6,329.7 
		428.15,330.9 430.65,335.1 429.4,335.3 427.75,336.1 425.35,338.1 420.55,339.7 418.55,341.3 417,343.65 414.95,342.5 
		410.95,343.7 402.95,343.3 395.35,341.7 388.95,341.3 386.95,338.5 384.55,340.1 375.35,343.3 372.95,348.1 366.1,348.1 
		360.9,346.9 359.7,347.7 355.7,347.7 352.9,344.9 348.5,345.7 345.7,342.5 344.3,342.15 344.5,319.7 331.3,319.3 330.5,308.5 
		319.3,307.7 314.9,304.9 315.7,300.85 321.7,291.25 322.5,281.65 321.7,279.65 320.9,260.45 	"/>
	
		<polyline fill-rule="evenodd" clip-rule="evenodd" fill="none" stroke="#fff" stroke-width="0.5" stroke-linecap="round" stroke-linejoin="round" stroke-miterlimit="3" points="
		324.6,257.95 320.9,260.45 321.7,279.65 322.5,281.65 321.7,291.25 315.7,300.85 314.9,304.9 319.3,307.7 330.5,308.5 331.3,319.3 
		344.5,319.7 344.3,342.15 345.7,342.5 348.5,345.7 352.9,344.9 355.7,347.7 359.7,347.7 360.9,346.9 366.1,348.1 372.95,348.1 
		375.35,343.3 384.55,340.1 386.95,338.5 388.95,341.3 395.35,341.7 402.95,343.3 410.95,343.7 414.95,342.5 417,343.65 
		418.55,341.3 420.55,339.7 425.35,338.1 427.75,336.1 429.4,335.3 430.65,335.1 428.15,330.9 430.6,329.7 434.6,329.3 436.2,328.1 
		436.2,323.7 433.8,321.7 430.2,320.1 433.4,313.7 432.2,310.5 431.8,308.5 431,301.65 433.95,293.95 432.2,293.65 426.55,293.65 
		424.15,290.05 420.95,293.25 417.35,297.65 415.35,296.45 410.95,296.45 408.15,296.85 404.55,295.25 400.95,294.45 398.95,293.25 
		394.15,292.85 392.95,290.05 392.95,288.05 393.75,286.05 390.95,286.05 388.95,289.25 381.35,287.25 378.55,285.25 375.75,284.85 
		373.35,283.65 365.3,284.05 356.9,282.05 354.1,282.05 352.9,281.25 351.3,281.25 349.7,280.05 348.1,279.25 346.1,275.25 
		344.9,274.05 340.1,272.45 339.7,266.85 336.1,263.25 334.9,262.85 335.7,260.45 326.9,256.45 324.6,257.95 325.7,258.85 	"/>
</g>
<g>
	<polygon fill-rule="evenodd" clip-rule="evenodd" fill="#c8c8c8" points="352.1,370.15 362.1,368.95 362.9,373.75 363.3,392.15 
		370.1,392.95 372.5,394.55 373.7,396.15 374.1,398.55 376.5,398.95 378.1,403.85 377.3,406.55 376.1,408.95 375.7,414.15 
		376.9,417.75 378.1,417.75 381.7,418.15 383.35,417.75 384.55,434.6 384.15,439 385.25,441.25 382.15,442.2 379.7,441 374.5,437.8 
		371.7,437.8 370.9,435.4 370.1,437 364.9,436.2 363.3,436.2 362.1,439.4 361.3,441 359.3,436.2 358.1,440.6 355.7,439.4 
		352.5,435.4 347.7,435.4 345.7,435.8 346.9,432.6 343.7,434.2 339.7,431.8 340.9,436.6 340.9,439 337.7,437 338.5,433.8 
		336.1,431.8 335.3,433.4 334.9,435 332.5,431.8 331.3,432.6 329.7,435 328.9,436.6 325,435.9 325.3,433.4 321.65,431.8 
		324.1,431.4 329.7,429 328.1,425 323.65,422.95 318.05,400.55 320.05,400.55 321.25,399.75 322.9,400.15 323.65,398.95 
		324.9,398.15 324.9,396.15 325.3,393.35 326.1,390.55 324.1,389.35 325.7,387.75 329.3,387.75 330.9,387.35 335.3,385.75 
		335.7,377.35 338.5,373.35 339.3,371.75 342.1,369.35 348.15,369.7 348.9,372.95 351.3,372.15 	"/>
	
		<polygon fill-rule="evenodd" clip-rule="evenodd" fill="none" stroke="#fff" stroke-width="0.5" stroke-linecap="round" stroke-linejoin="round" stroke-miterlimit="3" points="
		352.1,370.15 351.3,372.15 348.9,372.95 348.15,369.7 342.1,369.35 339.3,371.75 338.5,373.35 335.7,377.35 335.3,385.75 
		330.9,387.35 329.3,387.75 325.7,387.75 324.1,389.35 326.1,390.55 325.3,393.35 324.9,396.15 324.9,398.15 323.65,398.95 
		322.9,400.15 321.25,399.75 320.05,400.55 318.05,400.55 323.65,422.95 328.1,425 329.7,429 324.1,431.4 321.65,431.8 325.3,433.4 
		325,435.9 328.9,436.6 329.7,435 331.3,432.6 332.5,431.8 334.9,435 335.3,433.4 336.1,431.8 338.5,433.8 337.7,437 340.9,439 
		340.9,436.6 339.7,431.8 343.7,434.2 346.9,432.6 345.7,435.8 347.7,435.4 352.5,435.4 355.7,439.4 358.1,440.6 359.3,436.2 
		361.3,441 362.1,439.4 363.3,436.2 364.9,436.2 370.1,437 370.9,435.4 371.7,437.8 374.5,437.8 379.7,441 382.15,442.2 
		385.25,441.25 384.15,439 384.55,434.6 383.35,417.75 381.7,418.15 378.1,417.75 376.9,417.75 375.7,414.15 376.1,408.95 
		377.3,406.55 378.1,403.85 376.5,398.95 374.1,398.55 373.7,396.15 372.5,394.55 370.1,392.95 363.3,392.15 362.9,373.75 
		362.1,368.95 	"/>
</g>
<g>
	<polygon fill-rule="evenodd" clip-rule="evenodd" fill="#c8c8c8" points="270.1,494.1 272.9,493.35 275.7,498.55 281.7,503.35 
		283.3,503.35 282.15,501.5 282.85,501.85 287.25,501.85 289.25,499.45 292.85,493.05 292.45,487.05 293.25,483.05 298.85,478.65 
		300.45,476.25 303.65,469 305.65,466.6 310.85,468.2 314.05,469.8 316.05,472.25 316.85,473.85 315.65,475.45 312.85,476.65 
		310.05,477.05 308.05,480.25 317.25,479.45 320.85,479.45 322.05,478.25 328.9,478.25 333.3,479.45 359.7,479.85 372.9,472.25 
		373.3,475.45 378.1,473.05 378.1,470.65 380.9,468.6 383.3,467.8 385.75,465.4 418.95,529.9 415.35,531.5 413.75,530.3 
		411.35,527.9 388.55,525.85 377.7,534.3 380.5,541.1 378.5,543.9 380.1,545.5 381.3,548.3 382.5,546.3 382.9,544.3 385.35,543.5 
		390.15,545.5 392.95,550.7 391.75,552.7 390.15,550.7 371.3,549.9 365.7,554.7 357.7,553.1 356.9,551.5 354.9,551.9 354.9,554.7 
		352.1,551.5 347.7,556.7 362.5,564.3 365.3,564.7 364.5,573.9 359.7,573.9 350.9,587.15 328.1,572.7 322,583.1 318.9,577 
		316.1,572.6 308.5,565.8 306.5,563.4 303.3,562.2 300.9,555.4 303.7,552.55 300.1,550.55 292.9,550.95 283.7,549.75 279.7,549.75 
		276.1,546.15 272.9,545.75 261.25,538.95 252.45,538.95 247.65,537.75 243.65,530.95 242.45,522.55 243.65,516.15 248.45,512.95 
		253.25,508.95 256.05,504.55 257.65,500.95 262.05,501.75 268.5,508.15 273.7,508.15 275.7,505.75 273.3,499.75 269.7,495.35 	"/>
	
		<polygon fill-rule="evenodd" clip-rule="evenodd" fill="none" stroke="#fff" stroke-width="0.5" stroke-linecap="round" stroke-linejoin="round" stroke-miterlimit="3" points="
		270.1,494.1 269.7,495.35 273.3,499.75 275.7,505.75 273.7,508.15 268.5,508.15 262.05,501.75 257.65,500.95 256.05,504.55 
		253.25,508.95 248.45,512.95 243.65,516.15 242.45,522.55 243.65,530.95 247.65,537.75 252.45,538.95 261.25,538.95 272.9,545.75 
		276.1,546.15 279.7,549.75 283.7,549.75 292.9,550.95 300.1,550.55 303.7,552.55 300.9,555.4 303.3,562.2 306.5,563.4 308.5,565.8 
		316.1,572.6 318.9,577 322,583.1 328.1,572.7 350.9,587.15 359.7,573.9 364.5,573.9 365.3,564.7 362.5,564.3 347.7,556.7 
		352.1,551.5 354.9,554.7 354.9,551.9 356.9,551.5 357.7,553.1 365.7,554.7 371.3,549.9 390.15,550.7 391.75,552.7 392.95,550.7 
		390.15,545.5 385.35,543.5 382.9,544.3 382.5,546.3 381.3,548.3 380.1,545.5 378.5,543.9 380.5,541.1 377.7,534.3 388.55,525.85 
		411.35,527.9 413.75,530.3 415.35,531.5 418.95,529.9 385.75,465.4 383.3,467.8 380.9,468.6 378.1,470.65 378.1,473.05 
		373.3,475.45 372.9,472.25 359.7,479.85 333.3,479.45 328.9,478.25 322.05,478.25 320.85,479.45 317.25,479.45 308.05,480.25 
		310.05,477.05 312.85,476.65 315.65,475.45 316.85,473.85 316.05,472.25 314.05,469.8 310.85,468.2 305.65,466.6 303.65,469 
		300.45,476.25 298.85,478.65 293.25,483.05 292.45,487.05 292.85,493.05 289.25,499.45 287.25,501.85 282.85,501.85 282.15,501.5 
		283.3,503.35 281.7,503.35 275.7,498.55 272.9,493.35 	"/>
</g>
<g>
	<polygon fill-rule="evenodd" clip-rule="evenodd" fill="#c8c8c8" points="313.25,434.95 318.05,431.35 321.65,431.75 
		325.25,433.35 324.85,437.35 324.85,439.35 322.05,442.15 319.25,442.55 318.45,450.15 321.25,458.2 331.65,472.6 332.9,479.3 
		328.85,478.2 322.05,478.2 320.85,479.4 317.25,479.4 308.05,480.2 310.05,477 312.85,476.6 315.65,475.4 316.85,473.8 
		316.05,472.2 314.05,469.8 310.85,468.2 305.65,466.6 303.65,469 300.45,476.2 298.85,478.6 293.25,483 292.4,487 292.8,493 
		289.2,499.4 287.2,501.8 282.8,501.8 282.15,501.5 278.05,494.5 277.25,489.3 281.25,482.9 282.45,477.3 287.25,471.25 
		292.05,467.25 295.3,463.25 293.55,459.95 292.5,456.35 290.9,454.85 291.6,454.2 296.05,451 	"/>
	
		<polygon fill-rule="evenodd" clip-rule="evenodd" fill="none" stroke="#fff" stroke-width="0.5" stroke-linecap="round" stroke-linejoin="round" stroke-miterlimit="3" points="
		313.25,434.95 296.05,451 291.6,454.2 290.9,454.85 292.5,456.35 293.55,459.95 295.3,463.25 292.05,467.25 287.25,471.25 
		282.45,477.3 281.25,482.9 277.25,489.3 278.05,494.5 282.15,501.5 282.8,501.8 287.2,501.8 289.2,499.4 292.8,493 292.4,487 
		293.25,483 298.85,478.6 300.45,476.2 303.65,469 305.65,466.6 310.85,468.2 314.05,469.8 316.05,472.2 316.85,473.8 315.65,475.4 
		312.85,476.6 310.05,477 308.05,480.2 317.25,479.4 320.85,479.4 322.05,478.2 328.85,478.2 332.9,479.3 331.65,472.6 
		321.25,458.2 318.45,450.15 319.25,442.55 322.05,442.15 324.85,439.35 324.85,437.35 325.25,433.35 321.65,431.75 318.05,431.35 	
		"/>
</g>
<g>
	<path fill-rule="evenodd" clip-rule="evenodd" fill="#c8c8c8" d="M487.8,132.3l3.601,2.8l-0.4,8.4l0.8,2h4l1.601,4.05l-0.4,1.6
		l4.8,3.2l4,4.4l1.2,1.6v2l-2.8,2.8l-2.4,3.6l1.2,6.8l-2,5.2l0.4,4l-3.2,2l-3.2-0.4l-2.8,1.2l-4.8,2.8l-0.4,5.2l-3.2,4.4l-1.2,3.2
		l-3.6,1.65l1.2,7.6l0.399,1.6l0.4,6.8l4,4.4l1.2,4.4l2.399,6.4l1.601,2l0.399,5.2l2,2.4l2,3.2l-4.399,3.6l-4.8,5.6l-4.4,1.6
		l-0.2,0.1c-0.166,0.1-0.633,0.333-1.399,0.7c-0.4,0.233-0.567,0.684-0.5,1.35c0.066,0.667,0.233,1.4,0.5,2.2
		c0.267,0.767,0.533,1.433,0.8,2c0.233,0.566,0.366,0.867,0.399,0.9l-0.8,2.8l-1.6,2.4l0.1,0.5l-6.149,0.3l-12-6.8l-3.601-1.6
		l-1.6,4l-1.2,2l-2,6.4l-2.4,1.6l-1.6,4l-3.2,3.6l-3.2,2l-0.399,2.4l-2.4,1.2l-1.6-2.4l-2.4,3.2l-0.649,1.5l-1.75-0.3h-5.601
		l-2.399-3.6l-6.851,7.6l-2-1.2H410.9l-2.801,0.4l-3.6-1.6l-3.6-0.8l-2-1.2l-4.8-0.4l-1.2-2.8v-2l0.8-2h-2.8l-2,3.2l-7.6-2l-2.8-2
		l-2.8-0.4l-2.4-1.2l-8,0.4l-8.45-2h-2.8l-1.2-0.8h-1.6l-1.6-1.2l-1.6-0.8l-2-4l-1.2-1.2l-4.8-1.6l-0.4-5.6l-3.6-3.65l-1.2-0.4
		l0.8-2.4l-2.05-0.95l0.85-0.65l2.8-1.2l-0.8-4l2.4-0.4l2.8-1.6l4.8-4l2.8-3.2l1.6-6.4l-1.6-6v-4.4l2.8-1.2h2l0.4-3.2l2-2.8l0.8-8.8
		l-14.4-1.2l-0.8,2.4v2.4l-8.8-1.2l0.4-4.4h-6.4l-24.8-26.45l-28.9-24.6l1.65-0.6l-4-29.25l1.6-1.6l0.4-3.6l1.6-5.6v-2.8l-1.2-1.6
		l-1.6-0.8l-1.1-1.5l3.35-5.7l-1.15-4.1l-1.4-1.25l-0.45-4l-1.15-0.1l0.3-1.5v-1.9L269.45,91l0.55-2l-1.4-2.15l0.1-0.65l0.95-0.85
		l-1.4-0.95l-1.6,0.6l-0.95-2.45l-0.85-0.3l-0.55-1.85V77l-1.5-1.2l-0.85,0.1l-1.1-1.05l0.25-1.3l2.35-1.6l1.4-1.8v-1.1l0.65-0.65
		l-1.3-2.25l4.9-1.6l0.75-1.95l0.9-1.15l1.35,0.85l1.75-1.4l1.25-0.3l3-3.35l3.25,0.45l1.5,0.85l2.9-0.65l0.4,1.7l3,2.15l2.25,0.65
		l1.7,6.2l-0.5,1.55l0.75,3.6l1.15,0.35l1-2.25l1.9,1.9l1.2,0.75h0.85l0.3,1.3l1.1,1.7l1.15-0.2l0.1,1.2l1.2,1.05l1.4,0.1l1.7,2.05
		l1.75-1.6v1.05l1.35,0.1l0.9,1l-0.35,0.5l0.65,1.2l1.8,0.45l1.1-1.2l1.5,1.4l1.05-0.85l4.7,0.1l2.4,2.4l0.4,2.05l1.6,1.6l1.2,4v1.6
		l3.05,4.55c-0.1-0.133-0.117-0.133-0.05,0c0.1,0.133,0.167,0.217,0.2,0.25l-0.15-0.25c0.067,0.067,0.233,0.284,0.5,0.65
		c0.267,0.333,0.683,0.867,1.25,1.6c0.7,0.867,1.2,1.367,1.5,1.5s0.483,0.083,0.55-0.15c0.067-0.267,0.083-0.55,0.05-0.85
		c-0.067-0.3-0.1-0.466-0.1-0.5l2.8-0.4l0.8,1.2v3.6l6.8,3.2l6,1.6v1.6l6.4,2.4l1.2,2.4l4.45,1.2l0.8-1.2l5.2,1.2v-2.4l4.4-5.2v-2
		l7.2-3.2l3.2-2.4l2.8-3.6l2-1.6l2-1.2l0.15-0.3c0.133-0.267,0.483-0.967,1.05-2.1c0.367-0.833,0.55-1.65,0.55-2.45
		c-0.033-0.767-0.133-1.417-0.3-1.95c-0.133-0.534-0.217-0.8-0.25-0.8l2.4-1.2l3.6-4.45l2-2l1.6-6.8l3.2-2.8l0.15,0.05
		c0.133,0.033,0.483,0.1,1.05,0.2s1.5,0.283,2.8,0.55c1.334,0.267,2.316,0.35,2.95,0.25c0.634-0.067,1.033-0.184,1.2-0.35
		c0.166-0.133,0.25-0.217,0.25-0.25l0.399,1.55v0.15c0,0.1,0,0.367,0,0.8c0,0.467,0,1.217,0,2.25c0.034,0.8,0.334,1.467,0.9,2
		c0.566,0.5,1.217,0.9,1.95,1.2c0.7,0.3,1.333,0.517,1.899,0.65c0.567,0.1,0.867,0.15,0.9,0.15l4.4,6.45l5.6,7.2l7.6,4l2.801,0.8
		l6,5.6l0.149-0.1c0.134-0.1,0.483-0.333,1.05-0.7c0.434-0.267,1.101-0.45,2-0.55c0.867-0.133,1.667-0.216,2.4-0.25
		c0.767,0,1.167,0,1.2,0l1.6-0.8l7.2,2l2.8-1.6l1.601-0.4l2.399,1.6h2.8l-0.8,1.6l-0.399,4l10.05,8l1.6,0.4l2.8,1.2v1.6l1.601,2.8
		l-2,1.6l1.6,2.4l1.601,0.4L487.8,132.3z"/>
	
		<path fill-rule="evenodd" clip-rule="evenodd" fill="none" stroke="#fff" stroke-width="0.5" stroke-linecap="round" stroke-linejoin="round" stroke-miterlimit="3" d="
		M487.8,132.3l-2.399-3.2l-1.601-0.4l-1.6-2.4l2-1.6l-1.601-2.8v-1.6l-2.8-1.2l-1.6-0.4l-10.05-8l0.399-4l0.8-1.6h-2.8l-2.399-1.6
		l-1.601,0.4l-2.8,1.6l-7.2-2l-1.6,0.8c-0.033,0-0.434,0-1.2,0c-0.733,0.034-1.533,0.117-2.4,0.25c-0.899,0.1-1.566,0.284-2,0.55
		c-0.566,0.367-0.916,0.6-1.05,0.7l-0.149,0.1l-6-5.6l-2.801-0.8l-7.6-4l-5.6-7.2l-4.4-6.45c-0.033,0-0.333-0.05-0.9-0.15
		c-0.566-0.133-1.199-0.35-1.899-0.65c-0.733-0.3-1.384-0.7-1.95-1.2c-0.566-0.533-0.866-1.2-0.9-2c0-1.033,0-1.783,0-2.25
		c0-0.434,0-0.7,0-0.8v-0.15L411.7,73.1c0,0.033-0.084,0.117-0.25,0.25c-0.167,0.167-0.566,0.283-1.2,0.35
		c-0.634,0.1-1.616,0.017-2.95-0.25c-1.3-0.267-2.233-0.45-2.8-0.55s-0.917-0.167-1.05-0.2l-0.15-0.05l-3.2,2.8l-1.6,6.8l-2,2
		l-3.6,4.45l-2.4,1.2c0.033,0,0.117,0.267,0.25,0.8c0.167,0.533,0.267,1.183,0.3,1.95c0,0.8-0.183,1.617-0.55,2.45
		c-0.567,1.133-0.917,1.833-1.05,2.1l-0.15,0.3l-2,1.2l-2,1.6l-2.8,3.6l-3.2,2.4l-7.2,3.2v2l-4.4,5.2v2.4l-5.2-1.2l-0.8,1.2
		l-4.45-1.2l-1.2-2.4l-6.4-2.4v-1.6l-6-1.6l-6.8-3.2v-3.6l-0.8-1.2l-2.8,0.4c0,0.034,0.033,0.2,0.1,0.5
		c0.033,0.3,0.017,0.583-0.05,0.85c-0.066,0.233-0.25,0.283-0.55,0.15s-0.8-0.633-1.5-1.5c-0.567-0.733-0.983-1.267-1.25-1.6
		c-0.267-0.367-0.433-0.583-0.5-0.65l0.15,0.25c-0.033-0.033-0.1-0.117-0.2-0.25c-0.067-0.133-0.05-0.133,0.05,0l-3.05-4.55v-1.6
		l-1.2-4l-1.6-1.6l-0.4-2.05l-2.4-2.4l-4.7-0.1l-1.05,0.85l-1.5-1.4l-1.1,1.2l-1.8-0.45l-0.65-1.2l0.35-0.5l-0.9-1l-1.35-0.1V80.1
		l-1.75,1.6l-1.7-2.05l-1.4-0.1l-1.2-1.05l-0.1-1.2l-1.15,0.2l-1.1-1.7l-0.3-1.3h-0.85l-1.2-0.75l-1.9-1.9l-1,2.25l-1.15-0.35
		l-0.75-3.6l0.5-1.55l-1.7-6.2l-2.25-0.65l-3-2.15l-0.4-1.7l-2.9,0.65l-1.5-0.85l-3.25-0.45l-3,3.35l-1.25,0.3l-1.75,1.4l-1.35-0.85
		l-0.9,1.15l-0.75,1.95l-4.9,1.6l1.3,2.25l-0.65,0.65v1.1l-1.4,1.8l-2.35,1.6l-0.25,1.3l1.1,1.05l0.85-0.1l1.5,1.2v3.4l0.55,1.85
		l0.85,0.3l0.95,2.45l1.6-0.6l1.4,0.95l-0.95,0.85l-0.1,0.65L270,89l-0.55,2l0.95,1.65v1.9l-0.3,1.5l1.15,0.1l0.45,4l1.4,1.25
		l1.15,4.1l-3.35,5.7l1.1,1.5l1.6,0.8l1.2,1.6v2.8l-1.6,5.6l-0.4,3.6l-1.6,1.6l4,29.25l-1.65,0.6l28.9,24.6l24.8,26.45h6.4l-0.4,4.4
		l8.8,1.2v-2.4l0.8-2.4l14.4,1.2l-0.8,8.8l-2,2.8l-0.4,3.2h-2l-2.8,1.2v4.4l1.6,6l-1.6,6.4l-2.8,3.2l-4.8,4l-2.8,1.6l-2.4,0.4l0.8,4
		l-2.8,1.2l-0.85,0.65l2.05,0.95l-0.8,2.4l1.2,0.4l3.6,3.65l0.4,5.6l4.8,1.6l1.2,1.2l2,4l1.6,0.8l1.6,1.2h1.6l1.2,0.8h2.8l8.45,2
		l8-0.4l2.4,1.2l2.8,0.4l2.8,2l7.6,2l2-3.2h2.8l-0.8,2v2l1.2,2.8l4.8,0.4l2,1.2l3.6,0.8l3.6,1.6l2.801-0.4h4.399l2,1.2l6.851-7.6
		l2.399,3.6h5.601l1.75,0.3l0.649-1.5l2.4-3.2l1.6,2.4l2.4-1.2l0.399-2.4l3.2-2l3.2-3.6l1.6-4l2.4-1.6l2-6.4l1.2-2l1.6-4l3.601,1.6
		l12,6.8l6.149-0.3l-0.1-0.5l1.6-2.4l0.8-2.8c-0.033-0.033-0.166-0.333-0.399-0.9c-0.267-0.567-0.533-1.233-0.8-2
		c-0.267-0.8-0.434-1.534-0.5-2.2c-0.067-0.667,0.1-1.117,0.5-1.35c0.767-0.367,1.233-0.6,1.399-0.7l0.2-0.1l4.4-1.6l4.8-5.6
		l4.399-3.6l-2-3.2l-2-2.4L490.2,238l-1.601-2l-2.399-6.4l-1.2-4.4l-4-4.4l-0.4-6.8l-0.399-1.6l-1.2-7.6l3.6-1.65l1.2-3.2l3.2-4.4
		l0.4-5.2l4.8-2.8l2.8-1.2l3.2,0.4l3.2-2l-0.4-4l2-5.2l-1.2-6.8l2.4-3.6l2.8-2.8v-2l-1.2-1.6l-4-4.4l-4.8-3.2l0.4-1.6l-1.601-4.05
		h-4l-0.8-2l0.4-8.4L487.8,132.3z"/>
</g>
<g>
	<polygon fill-rule="evenodd" clip-rule="evenodd" fill="#c8c8c8" points="529.9,324.8 534.7,324.8 536.3,323.6 538.7,325.6 
		540.7,328 543.5,328 545.9,327.2 550.75,326.4 552.75,329.6 557.15,330.4 560.35,329.6 561.55,330.4 565.55,334.4 563.95,338 
		566.35,340 569.55,344.8 571.55,350.4 571.95,353.6 570.35,356.8 571.15,358.8 571.15,362.8 567.15,366.4 568.35,367.2 
		569.55,369.2 571.95,376.05 575.55,382.05 575.95,384.85 579.55,388.05 579.95,394.45 577.15,398.05 572.75,402.45 574.75,406.05 
		575.55,412.05 578.75,418.85 578.35,425.65 580.35,430.1 582.35,442.5 579.55,444.5 575.15,444.1 570.35,448.9 568.35,448.9 
		567.95,458.9 563.95,458.5 563.55,466.9 560.75,470.5 551.55,487.35 545.9,501.75 536.3,523.35 521.1,521.75 501.1,520.95 
		494.9,521.35 492.25,518.25 494.65,513.05 494.65,509.45 495.05,507.85 496.65,506.65 497.05,500.65 496.25,494.65 493.85,490.25 
		497.45,490.25 499.85,491.05 501.05,489.85 503.45,486.65 498.25,484.65 496.25,480.65 496.25,478.25 498.25,477.05 499.05,472.25 
		501.45,471.05 502.25,464.65 502.65,463.45 500.65,463.05 495.45,459.4 491.85,459.4 488.65,460.2 483.4,460.6 479.4,459.8 
		482.2,457.8 487.4,457.8 489.85,457.4 486.85,455 482.05,443 481,441 485,432.6 481.8,428.2 479.8,427.8 476.6,426.2 474.6,424.6 
		472.6,422.2 471.55,422.35 471.8,419.4 470.55,414.6 472.6,413 477.4,408.2 486.2,403 490.25,396.95 495.05,391.75 497.05,386.95 
		502.65,382.55 503.45,378.95 501.45,372.15 498.25,366.15 497.85,363.35 501.85,358.95 504.65,352.95 504.25,347.75 507.45,341.3 
		511.05,336.9 513.45,329.3 516.65,327.3 519.45,324.1 520.65,322.1 524.25,322.1 524.65,321.65 	"/>
	
		<polygon fill-rule="evenodd" clip-rule="evenodd" fill="none" stroke="#fff" stroke-width="0.5" stroke-linecap="round" stroke-linejoin="round" stroke-miterlimit="3" points="
		529.9,324.8 524.65,321.65 524.25,322.1 520.65,322.1 519.45,324.1 516.65,327.3 513.45,329.3 511.05,336.9 507.45,341.3 
		504.25,347.75 504.65,352.95 501.85,358.95 497.85,363.35 498.25,366.15 501.45,372.15 503.45,378.95 502.65,382.55 497.05,386.95 
		495.05,391.75 490.25,396.95 486.2,403 477.4,408.2 472.6,413 470.55,414.6 471.8,419.4 471.55,422.35 472.6,422.2 474.6,424.6 
		476.6,426.2 479.8,427.8 481.8,428.2 485,432.6 481,441 482.05,443 486.85,455 489.85,457.4 487.4,457.8 482.2,457.8 479.4,459.8 
		483.4,460.6 488.65,460.2 491.85,459.4 495.45,459.4 500.65,463.05 502.65,463.45 502.25,464.65 501.45,471.05 499.05,472.25 
		498.25,477.05 496.25,478.25 496.25,480.65 498.25,484.65 503.45,486.65 501.05,489.85 499.85,491.05 497.45,490.25 493.85,490.25 
		496.25,494.65 497.05,500.65 496.65,506.65 495.05,507.85 494.65,509.45 494.65,513.05 492.25,518.25 494.9,521.35 501.1,520.95 
		521.1,521.75 536.3,523.35 545.9,501.75 551.55,487.35 560.75,470.5 563.55,466.9 563.95,458.5 567.95,458.9 568.35,448.9 
		570.35,448.9 575.15,444.1 579.55,444.5 582.35,442.5 580.35,430.1 578.35,425.65 578.75,418.85 575.55,412.05 574.75,406.05 
		572.75,402.45 577.15,398.05 579.95,394.45 579.55,388.05 575.95,384.85 575.55,382.05 571.95,376.05 569.55,369.2 568.35,367.2 
		567.15,366.4 571.15,362.8 571.15,358.8 570.35,356.8 571.95,353.6 571.55,350.4 569.55,344.8 566.35,340 563.95,338 565.55,334.4 
		561.55,330.4 560.35,329.6 557.15,330.4 552.75,329.6 550.75,326.4 545.9,327.2 543.5,328 540.7,328 538.7,325.6 536.3,323.6 
		534.7,324.8 	"/>
</g>
<g>
	<path fill-rule="evenodd" clip-rule="evenodd" fill="#c8c8c8" d="M428.15,473.8l6.399,7.601l-0.399,1.6l-1.2,1.2l-0.8,4.05l2.8,6.8
		l-2,2l-1.601,4.4l-1.6,0.8l-2.4,4l1.2,3.2l0.8,3.6l7.2,0.4l2.05-4l3.2,1.6l0.4-1.2l2.8-1.199l1.2-1.601l2.8-2l-1.2-2l-0.399-2.399
		l2-0.801l2-4l0.8-4l10-0.399L462.6,479l-8.399-2.4l-2-1.199l-2,0.399l-2.8-2l-1.2-4.399L443,470.6l-10.05,0.4l-1.601,0.8h-1.6
		L428.15,473.8z M322.55,584.2L322,583.1l6.1-10.399l22.8,14.399l8.8-13.199h4.8l0.8-9.2l-2.8-0.4l-14.8-7.6l4.4-5.2l2.8,3.2v-2.8
		l2-0.4l0.8,1.6l8,1.601l5.6-4.8l18.85,0.8l1.6,2l1.2-2l-2.8-5.2l-4.8-2.05l-2.4,0.85l-0.4,2l-1.2,2l-1.2-2.8l-1.6-1.65l2-2.8
		l-2.85-6.8l10.85-8.4l22.8,2l2.4,2.4l1.6,1.2l3.601-1.601l-33.2-64.449l70.85-1.601L457,453l-1.2-2l2.4-1.2l2.399,6l7.2,6.4
		l1.2,2.8v8l4.8,6.8l1.2,7.25l0.4,8.4l-1.601,5.6l-6,3.601l-2.399,2.8l-0.801,2.8l3.601-0.4l5.2-2l2-1.6l4.399-0.8l2-0.8l6,0.399
		l2.8,5.2l0.4,1.6l3.65-0.399v1.6l-2.45,5.2l2.7,3.05l-6.65,0.45l-14.8-1.2l0.8,7.601l0.4,26l1.6,16.449l0.8,14l2,19.601l-2.8,1.6
		l-5.2,5.601l-3.6,2.8l0.8,5.6v1.2l2.8,3.6l-4.399,6.851l-6.4,2l0.8,4.8l2,6.4l-2.399,1.6l-5.2-2.8l-4.4,8l-6.399,4l-4.851-5.2
		l-28.8-11.2l-30-12.45l-6.45,0.4l-11.2-6.8h-6l-8.4-6l-4.8-1.2h-4.8l-6.8-6.8l-6.8-12l-2.4-6L322.55,584.2z"/>
	
		<path fill-rule="evenodd" clip-rule="evenodd" fill="none" stroke="#fff" stroke-width="0.5" stroke-linecap="round" stroke-linejoin="round" stroke-miterlimit="3" d="
		M322.55,584.2l0.8,4l2.4,6l6.8,12l6.8,6.8h4.8l4.8,1.2l8.4,6h6l11.2,6.8l6.45-0.4l30,12.45l28.8,11.2l4.851,5.2l6.399-4l4.4-8
		l5.2,2.8l2.399-1.6l-2-6.4l-0.8-4.8l6.4-2l4.399-6.851l-2.8-3.6v-1.2l-0.8-5.6l3.6-2.8l5.2-5.601l2.8-1.6l-2-19.601l-0.8-14
		l-1.6-16.449l-0.4-26l-0.8-7.601l14.8,1.2l6.65-0.45l-2.7-3.05l2.45-5.2v-1.6L491,511.85l-0.4-1.6l-2.8-5.2l-6-0.399l-2,0.8
		l-4.399,0.8l-2,1.6l-5.2,2l-3.601,0.4l0.801-2.8l2.399-2.8l6-3.601l1.601-5.6l-0.4-8.4l-1.2-7.25L469,473v-8l-1.2-2.8l-7.2-6.4
		l-2.399-6l-2.4,1.2l1.2,2l-0.4,10.8l-70.85,1.601l33.2,64.449l-3.601,1.601l-1.6-1.2l-2.4-2.4l-22.8-2l-10.85,8.4l2.85,6.8l-2,2.8
		l1.6,1.65l1.2,2.8l1.2-2l0.4-2l2.4-0.85l4.8,2.05l2.8,5.2l-1.2,2l-1.6-2l-18.85-0.8l-5.6,4.8l-8-1.601l-0.8-1.6l-2,0.4v2.8
		l-2.8-3.2l-4.4,5.2l14.8,7.6l2.8,0.4l-0.8,9.2h-4.8l-8.8,13.199L328.1,572.7L322,583.1L322.55,584.2z M428.15,473.8l1.6-2h1.6
		l1.601-0.8l10.05-0.4l3.2-1.199l1.2,4.399l2.8,2l2-0.399l2,1.199l8.399,2.4l-0.399,12.45l-10,0.399l-0.8,4l-2,4l-2,0.801
		l0.399,2.399l1.2,2l-2.8,2l-1.2,1.601l-2.8,1.199l-0.4,1.2l-3.2-1.6l-2.05,4l-7.2-0.4l-0.8-3.6l-1.2-3.2l2.4-4l1.6-0.8l1.601-4.4
		l2-2l-2.8-6.8l0.8-4.05l1.2-1.2l0.399-1.6L428.15,473.8z"/>
</g>
<g>
	<polygon fill-rule="evenodd" clip-rule="evenodd" fill="#c8c8c8" points="344.5,362.9 347.3,366.1 348.1,369.7 342.1,369.3 
		339.3,371.7 338.5,373.3 335.65,377.3 335.25,385.75 330.85,387.35 329.25,387.75 325.65,387.75 324.05,389.35 326.05,390.55 
		325.25,393.35 324.85,396.15 324.85,398.15 323.65,398.95 322.85,400.15 321.25,399.75 320.05,400.55 318.05,400.55 323.65,422.95 
		328.05,424.95 329.65,428.95 324.05,431.35 321.65,431.75 318.05,431.35 313.25,434.95 296.05,451 291.65,454.2 290.9,454.85 
		290.8,454.75 286.7,454.05 285.65,454.1 284.4,455.15 281.3,455.15 280.15,453.9 278.1,448.55 278.1,430.65 279.75,431.45 
		280.65,431.65 278.75,428.7 278.8,424.05 278.25,420.4 278.75,419.9 278.5,419.25 276.8,418.45 277.15,417.5 273.3,413.75 
		272.05,413.3 265.4,404.6 264,403.15 263.25,401.9 263.2,400.45 262.55,400.75 261.65,400.2 259.35,399.8 258.4,398.45 258,397 
		255.6,392.4 255.95,391.7 255.7,390.15 255.7,389.3 254.4,387.85 254.8,387.6 255.7,387.45 254.4,386 253.7,384.25 252.5,374.2 
		252.5,374.05 254,373.3 255.2,372.1 258,372.9 259.6,374.1 262,375.3 262.4,374.1 270.8,375.3 270.4,369.7 283.65,368.1 
		284.05,362.9 298.45,362.9 299.65,360.1 332.05,359.7 333.25,357.7 335.25,359.7 338.1,360.9 341.3,360.9 	"/>
	
		<polygon fill-rule="evenodd" clip-rule="evenodd" fill="none" stroke="#fff" stroke-width="0.5" stroke-linecap="round" stroke-linejoin="round" stroke-miterlimit="3" points="
		344.5,362.9 341.3,360.9 338.1,360.9 335.25,359.7 333.25,357.7 332.05,359.7 299.65,360.1 298.45,362.9 284.05,362.9 
		283.65,368.1 270.4,369.7 270.8,375.3 262.4,374.1 262,375.3 259.6,374.1 258,372.9 255.2,372.1 254,373.3 252.5,374.05 
		252.5,374.2 253.7,384.25 254.4,386 255.7,387.45 254.8,387.6 254.4,387.85 255.7,389.3 255.7,390.15 255.95,391.7 255.6,392.4 
		258,397 258.4,398.45 259.35,399.8 261.65,400.2 262.55,400.75 263.2,400.45 263.25,401.9 264,403.15 265.4,404.6 272.05,413.3 
		273.3,413.75 277.15,417.5 276.8,418.45 278.5,419.25 278.75,419.9 278.25,420.4 278.8,424.05 278.75,428.7 280.65,431.65 
		279.75,431.45 278.1,430.65 278.1,448.55 280.15,453.9 281.3,455.15 284.4,455.15 285.65,454.1 286.7,454.05 290.8,454.75 
		290.9,454.85 291.65,454.2 296.05,451 313.25,434.95 318.05,431.35 321.65,431.75 324.05,431.35 329.65,428.95 328.05,424.95 
		323.65,422.95 318.05,400.55 320.05,400.55 321.25,399.75 322.85,400.15 323.65,398.95 324.85,398.15 324.85,396.15 325.25,393.35 
		326.05,390.55 324.05,389.35 325.65,387.75 329.25,387.75 330.85,387.35 335.25,385.75 335.65,377.3 338.5,373.3 339.3,371.7 
		342.1,369.3 348.1,369.7 347.3,366.1 	"/>
</g>
<g>
	<polygon fill-rule="evenodd" clip-rule="evenodd" fill="#c8c8c8" points="331.3,319.3 344.5,319.7 344.1,362.7 341.3,360.95 
		338.1,360.95 335.3,359.75 333.3,357.75 332.1,359.75 299.65,360.15 298.45,362.95 284.05,362.95 283.65,368.15 270.4,369.75 
		270.8,375.35 262.4,374.15 262,375.35 259.6,374.15 258,372.95 255.2,372.15 254,373.35 252.5,374.1 252.6,373.3 252.1,371.05 
		252.75,370.35 252.9,369.65 252.45,369.15 252.35,363.4 252.25,362.55 252.65,361 252.05,359.25 252.05,346.2 251.8,343.95 
		249.8,341.1 249,338.55 249.25,334.25 249.55,332.8 249.5,331.9 249.15,330.3 248.7,329.5 247.25,329.3 245.15,326.5 245,325 
		244.3,324.2 243.35,321.3 242.95,320.6 240.85,317.9 239.1,316.45 236.9,312.4 235.2,310.85 234.1,309.35 233.95,308.4 
		233.35,307.6 233.45,307.2 232.75,307.2 232.25,306.4 232.1,305.7 231.3,305.45 231.05,304.8 230.75,303.55 229.85,303.7 
		229.45,302.5 227.65,302.4 225.9,301.15 224.1,300.6 223.3,299.85 222.7,299.85 222.6,299.55 221.15,298.8 220,297.3 219.35,295.5 
		217.9,293.95 217.1,293.4 216.05,291.9 216.4,290.2 216.85,289.35 216.95,288.4 216.05,286.85 218,279.25 221.2,279.25 224,280.9 
		226.4,284.1 228.8,289.7 232.4,289.3 232.4,285.7 228.4,281.7 228.4,280.05 231.2,274.05 232.4,273.65 236,275.65 237.6,274.85 
		242,269.25 240.4,264.85 244.4,266.85 246.8,264.05 249.2,264.85 251.6,263.65 257.2,264.85 258.4,267.65 261.2,269.25 
		265.2,270.85 262.4,272.45 264.8,276.05 266.4,274.85 268.8,274.85 270,274.45 271.6,273.65 274.45,273.25 277.25,274.45 
		278.45,272.85 281.25,275.65 282.45,272.45 286.85,270.45 288.05,268.45 296.85,264.85 298.05,262.85 300.85,262.85 302.85,263.25 
		305.25,264.85 308.05,264.05 310.05,261.65 310.85,257.25 316.05,253.25 318.45,252.45 321.65,257.65 323.65,257.25 324.6,258 
		320.85,260.45 321.65,279.65 322.45,281.7 321.65,291.3 315.65,300.9 314.85,304.9 319.25,307.7 330.45,308.5 	"/>
	
		<polygon fill-rule="evenodd" clip-rule="evenodd" fill="none" stroke="#fff" stroke-width="0.5" stroke-linecap="round" stroke-linejoin="round" stroke-miterlimit="3" points="
		331.3,319.3 330.45,308.5 319.25,307.7 314.85,304.9 315.65,300.9 321.65,291.3 322.45,281.7 321.65,279.65 320.85,260.45 
		324.6,258 323.65,257.25 321.65,257.65 318.45,252.45 316.05,253.25 310.85,257.25 310.05,261.65 308.05,264.05 305.25,264.85 
		302.85,263.25 300.85,262.85 298.05,262.85 296.85,264.85 288.05,268.45 286.85,270.45 282.45,272.45 281.25,275.65 278.45,272.85 
		277.25,274.45 274.45,273.25 271.6,273.65 270,274.45 268.8,274.85 266.4,274.85 264.8,276.05 262.4,272.45 265.2,270.85 
		261.2,269.25 258.4,267.65 257.2,264.85 251.6,263.65 249.2,264.85 246.8,264.05 244.4,266.85 240.4,264.85 242,269.25 
		237.6,274.85 236,275.65 232.4,273.65 231.2,274.05 228.4,280.05 228.4,281.7 232.4,285.7 232.4,289.3 228.8,289.7 226.4,284.1 
		224,280.9 221.2,279.25 218,279.25 216.05,286.85 216.95,288.4 216.85,289.35 216.4,290.2 216.05,291.9 217.1,293.4 217.9,293.95 
		219.35,295.5 220,297.3 221.15,298.8 222.6,299.55 222.7,299.85 223.3,299.85 224.1,300.6 225.9,301.15 227.65,302.4 229.45,302.5 
		229.85,303.7 230.75,303.55 231.05,304.8 231.3,305.45 232.1,305.7 232.25,306.4 232.75,307.2 233.45,307.2 233.35,307.6 
		233.95,308.4 234.1,309.35 235.2,310.85 236.9,312.4 239.1,316.45 240.85,317.9 242.95,320.6 243.35,321.3 244.3,324.2 245,325 
		245.15,326.5 247.25,329.3 248.7,329.5 249.15,330.3 249.5,331.9 249.55,332.8 249.25,334.25 249,338.55 249.8,341.1 251.8,343.95 
		252.05,346.2 252.05,359.25 252.65,361 252.25,362.55 252.35,363.4 252.45,369.15 252.9,369.65 252.75,370.35 252.1,371.05 
		252.6,373.3 252.5,374.1 254,373.35 255.2,372.15 258,372.95 259.6,374.15 262,375.35 262.4,374.15 270.8,375.35 270.4,369.75 
		283.65,368.15 284.05,362.95 298.45,362.95 299.65,360.15 332.1,359.75 333.3,357.75 335.3,359.75 338.1,360.95 341.3,360.95 
		344.1,362.7 344.5,319.7 	"/>
</g>
<g>
	<polygon fill-rule="evenodd" clip-rule="evenodd" fill="#c8c8c8" points="84.6,44.95 89.35,48.1 90.8,49.5 91.45,50.45 
		91.95,51.55 92.1,53.95 91.65,55.05 90.4,56.25 87.25,57.85 84.9,58.55 82.45,61.45 82.1,64.75 82.85,68.65 85.65,71.5 87.7,72.9 
		91.35,73.9 93.9,73.25 95.2,71.85 95.2,66.6 96.35,61.75 99.35,58.25 102.15,58 105.25,59.5 108.05,58.55 108.9,57.9 112.65,56.1 
		115,55.65 116.65,57.05 117.8,59.5 118.45,61.55 115.65,66.05 116.75,67.45 118,67.25 119.5,66.15 121.15,65.85 123.05,65.85 
		125.2,65.3 127.15,63.25 130.15,61.55 133.15,61.85 133.15,63.35 132.5,64.9 130.25,66.7 129.7,69.05 130,71.2 131.65,74.1 
		131,78.6 131.55,81.7 133.45,82.25 135.05,81.5 134.65,78.8 135.05,77 137.75,75.5 139.35,75.5 141.8,74.3 142.25,73.45 
		142.65,72.9 143.55,70.65 145.55,68.5 147.15,67.65 148.25,68 149.4,69.15 148.05,71.1 146,74.85 146.95,76.65 148.55,77.85 
		151.8,81.25 152.95,82.9 152.4,85 150.6,84.6 150.05,82.9 148.15,81.05 141.3,79.45 139.45,79.25 139.65,81.4 141.9,87.25 
		138.05,92.3 138.45,92.75 130.3,93.1 123.5,99.5 127.9,103.1 109.45,125.9 98.25,117.1 91.75,124.35 91,123.85 88.45,122.5 
		89.1,121.75 87.1,121.05 81.05,117.95 78.2,118.5 75.55,116.2 73,115.8 71.7,115.3 70.7,114.5 68.45,113.55 67.65,111.5 
		66.15,105.4 64.85,102.25 64.45,101.5 63.35,100.15 61.1,96.75 61.7,95.6 60.3,93.6 58.75,92.05 56.95,90.85 51.8,84.75 
		51.25,83.5 49.55,82.8 45.25,78.85 40.4,75.3 31.3,71.15 29.45,70.65 28.5,69.55 27.8,70.25 26.5,69.6 20.55,70 20.6,70.6 
		19.6,70.95 18.55,70.2 16.4,70.25 14.05,68.8 12.65,67.05 11.2,65.95 10.65,63.7 9.75,62.35 9.35,60.55 8.8,59.35 8.65,54.55 
		8.95,51.9 8.9,48.85 11.65,44.05 12.65,39.95 12.95,35.75 13.1,35 14.2,34.65 15.5,35.4 16.4,35.2 18.25,35.75 20.8,35.95 21,35 
		21.65,34.95 21.8,35.6 22.75,34.9 23.3,35.25 26.3,34.95 28,34.55 30.45,33.65 28.85,33.5 29.35,32.45 33,32.85 47.7,33.05 
		55.6,31 58.1,29.3 60.1,29.35 68.6,26 71.2,24.65 73.05,24.25 74.35,24.65 75.05,25.3 75.2,26.6 74.85,28.2 73.2,31.65 72.15,36.3 
		71.95,40.25 72.55,42.45 74.6,44.2 75.3,43.75 77.15,44.55 80.7,44.25 	"/>
	
		<polygon fill-rule="evenodd" clip-rule="evenodd" fill="none" stroke="#fff" stroke-width="0.5" stroke-linecap="round" stroke-linejoin="round" stroke-miterlimit="3" points="
		84.6,44.95 80.7,44.25 77.15,44.55 75.3,43.75 74.6,44.2 72.55,42.45 71.95,40.25 72.15,36.3 73.2,31.65 74.85,28.2 75.2,26.6 
		75.05,25.3 74.35,24.65 73.05,24.25 71.2,24.65 68.6,26 60.1,29.35 58.1,29.3 55.6,31 47.7,33.05 33,32.85 29.35,32.45 28.85,33.5 
		30.45,33.65 28,34.55 26.3,34.95 23.3,35.25 22.75,34.9 21.8,35.6 21.65,34.95 21,35 20.8,35.95 18.25,35.75 16.4,35.2 15.5,35.4 
		14.2,34.65 13.1,35 12.95,35.75 12.65,39.95 11.65,44.05 8.9,48.85 8.95,51.9 8.65,54.55 8.8,59.35 9.35,60.55 9.75,62.35 
		10.65,63.7 11.2,65.95 12.65,67.05 14.05,68.8 16.4,70.25 18.55,70.2 19.6,70.95 20.6,70.6 20.55,70 26.5,69.6 27.8,70.25 
		28.5,69.55 29.45,70.65 31.3,71.15 40.4,75.3 45.25,78.85 49.55,82.8 51.25,83.5 51.8,84.75 56.95,90.85 58.75,92.05 60.3,93.6 
		61.7,95.6 61.1,96.75 63.35,100.15 64.45,101.5 64.85,102.25 66.15,105.4 67.65,111.5 68.45,113.55 70.7,114.5 71.7,115.3 
		73,115.8 75.55,116.2 78.2,118.5 81.05,117.95 87.1,121.05 89.1,121.75 88.45,122.5 91,123.85 91.75,124.35 98.25,117.1 
		109.45,125.9 127.9,103.1 123.5,99.5 130.3,93.1 138.45,92.75 138.05,92.3 141.9,87.25 139.65,81.4 139.45,79.25 141.3,79.45 
		148.15,81.05 150.05,82.9 150.6,84.6 152.4,85 152.95,82.9 151.8,81.25 148.55,77.85 146.95,76.65 146,74.85 148.05,71.1 
		149.4,69.15 148.25,68 147.15,67.65 145.55,68.5 143.55,70.65 142.65,72.9 142.25,73.45 141.8,74.3 139.35,75.5 137.75,75.5 
		135.05,77 134.65,78.8 135.05,81.5 133.45,82.25 131.55,81.7 131,78.6 131.65,74.1 130,71.2 129.7,69.05 130.25,66.7 132.5,64.9 
		133.15,63.35 133.15,61.85 130.15,61.55 127.15,63.25 125.2,65.3 123.05,65.85 121.15,65.85 119.5,66.15 118,67.25 116.75,67.45 
		115.65,66.05 118.45,61.55 117.8,59.5 116.65,57.05 115,55.65 112.65,56.1 108.9,57.9 108.05,58.55 105.25,59.5 102.15,58 
		99.35,58.25 96.35,61.75 95.2,66.6 95.2,71.85 93.9,73.25 91.35,73.9 87.7,72.9 85.65,71.5 82.85,68.65 82.1,64.75 82.45,61.45 
		84.9,58.55 87.25,57.85 90.4,56.25 91.65,55.05 92.1,53.95 91.95,51.55 91.45,50.45 90.8,49.5 89.35,48.1 	"/>
</g>
<g>
	<polygon fill-rule="evenodd" clip-rule="evenodd" fill="#c8c8c8" points="273.55,158.6 272.85,157.95 273.55,158.6 196.35,187.2 
		188.35,189.6 181.55,194.4 151.1,214.2 149.9,212.55 148.55,208.3 148.45,206.85 147.5,205.45 146.3,202.75 145.6,199.95 
		143.5,195.25 143.45,192.45 142.95,192.05 141.05,189.35 139.85,185.4 138.25,181.9 136.25,178.75 135.45,174.8 129.4,162 
		128.45,159.45 127.55,158.95 126.15,157.6 123.9,154.1 120.95,150.5 121.2,149.05 118.95,148.2 116.7,145.8 116.15,143.8 
		114.75,143.4 111.7,140.55 111.4,139.1 109.15,138.3 105.1,135.25 100.55,131.05 98.85,130.1 98,130.55 97.5,129.6 98,129.05 
		96.45,127.95 95.65,127 91.8,124.35 98.3,117.15 109.5,125.95 127.9,103.1 123.5,99.5 130.3,93.1 138.45,92.8 138.95,93.4 
		142.7,93.6 144.4,87.4 148.8,87.6 151.5,86.55 152.15,91.35 153.4,92.35 155.45,91.7 155.65,89.55 155.35,87.95 155.75,86.45 
		157.05,85.35 157.9,85.5 159.3,86.55 160.5,88.9 161.9,90.6 163.15,90.75 164.15,89.75 163.6,87.4 163.8,85.15 165.3,83.35 
		168,77.65 168.85,77.1 169.15,77.45 169.4,79.45 170.15,82.45 171.2,83.35 173.75,85.05 175.05,86.45 173.75,86.85 171.85,88.7 
		169.6,89.85 169.25,90.95 170.9,91.6 172.25,91.9 174.85,93.3 179.15,94.25 178.15,90.3 177.95,87.3 180.2,87.1 180.2,90.2 
		181.4,91.8 182.65,93.95 182.8,95.45 183.85,95.85 184.5,87 184.4,83.95 186.2,86.55 186.4,89.85 187.3,94.9 192.65,94.8 
		195.95,93.75 196.9,93.1 197.65,93.5 197.15,94.8 193.9,95.85 192.85,97.25 192.4,98.75 189.95,101.35 189,101.1 188.45,100.25 
		187.8,99.5 187.3,99.5 187.3,101.85 188.8,103.6 189.85,103.9 190.8,102.75 191.15,102.2 191.9,102.2 192.4,101.75 193.8,99.85 
		196.6,99 197.25,97.05 199.4,97.25 197.65,99.5 198.85,100.25 200.15,100.25 200.9,100.5 200.65,98.65 199.9,96.4 199.9,95.25 
		201.3,95.55 202.5,95.35 201.2,97.15 201.85,99.1 203.15,98.1 204,99.1 204.55,99.1 205.15,102.2 206.45,102.2 207,101.25 
		207.85,100.7 208.95,101.65 208.05,103.5 207.85,105 209.35,105.3 211.8,103.05 213.1,102.5 215.55,102.2 217.95,101.1 219.65,101 
		221.45,99.85 221.8,98.55 222.1,98.75 223.05,99.95 224.05,99.5 224.35,99.75 225.45,99.5 225.55,100.05 225.55,103.9 
		224.45,105.1 224.45,107.25 224.15,109.05 224.25,110.35 225.55,110.75 225.65,111.6 224.35,113 224.25,114.4 225.1,115.9 
		224.05,117.1 224.55,118.7 225.55,119.15 226.05,118.8 226.5,120.95 229.05,123.75 230.7,122.9 232.05,124.4 233.45,124.5 
		234.95,124.15 236.35,124.8 237.55,124.8 237.85,123.75 239.25,124.5 241.3,125.15 242.25,124.5 242.45,122.15 243.1,121.5 
		243.55,121.4 245.25,121.4 246.35,120.5 248.35,120.85 249.75,119.55 250.6,121.9 251.6,123.1 254.35,121.05 254.15,120 
		254.8,119.25 255.75,119.35 256.2,118.25 256.4,117.5 256.3,116 257.15,116.15 258,116.9 259.6,115.7 260.7,114.4 262.5,113.9 
		263.25,114.2 264.85,113.45 265.6,112.8 266.15,112.8 266.8,113.55 267.1,114.75 268.5,113.9 269.7,112.9 270.95,111.2 
		272.05,112.7 273.65,113.5 274.85,115.1 274.85,117.95 273.25,123.55 272.85,127.15 271.25,128.75 275.25,157.95 	"/>
	
		<polyline fill-rule="evenodd" clip-rule="evenodd" fill="none" stroke="#fff" stroke-width="0.5" stroke-linecap="round" stroke-linejoin="round" stroke-miterlimit="3" points="
		273.55,158.6 275.25,157.95 271.25,128.75 272.85,127.15 273.25,123.55 274.85,117.95 274.85,115.1 273.65,113.5 272.05,112.7 
		270.95,111.2 269.7,112.9 268.5,113.9 267.1,114.75 266.8,113.55 266.15,112.8 265.6,112.8 264.85,113.45 263.25,114.2 
		262.5,113.9 260.7,114.4 259.6,115.7 258,116.9 257.15,116.15 256.3,116 256.4,117.5 256.2,118.25 255.75,119.35 254.8,119.25 
		254.15,120 254.35,121.05 251.6,123.1 250.6,121.9 249.75,119.55 248.35,120.85 246.35,120.5 245.25,121.4 243.55,121.4 
		243.1,121.5 242.45,122.15 242.25,124.5 241.3,125.15 239.25,124.5 237.85,123.75 237.55,124.8 236.35,124.8 234.95,124.15 
		233.45,124.5 232.05,124.4 230.7,122.9 229.05,123.75 226.5,120.95 226.05,118.8 225.55,119.15 224.55,118.7 224.05,117.1 
		225.1,115.9 224.25,114.4 224.35,113 225.65,111.6 225.55,110.75 224.25,110.35 224.15,109.05 224.45,107.25 224.45,105.1 
		225.55,103.9 225.55,100.05 225.45,99.5 224.35,99.75 224.05,99.5 223.05,99.95 222.1,98.75 221.8,98.55 221.45,99.85 219.65,101 
		217.95,101.1 215.55,102.2 213.1,102.5 211.8,103.05 209.35,105.3 207.85,105 208.05,103.5 208.95,101.65 207.85,100.7 207,101.25 
		206.45,102.2 205.15,102.2 204.55,99.1 204,99.1 203.15,98.1 201.85,99.1 201.2,97.15 202.5,95.35 201.3,95.55 199.9,95.25 
		199.9,96.4 200.65,98.65 200.9,100.5 200.15,100.25 198.85,100.25 197.65,99.5 199.4,97.25 197.25,97.05 196.6,99 193.8,99.85 
		192.4,101.75 191.9,102.2 191.15,102.2 190.8,102.75 189.85,103.9 188.8,103.6 187.3,101.85 187.3,99.5 187.8,99.5 188.45,100.25 
		189,101.1 189.95,101.35 192.4,98.75 192.85,97.25 193.9,95.85 197.15,94.8 197.65,93.5 196.9,93.1 195.95,93.75 192.65,94.8 
		187.3,94.9 186.4,89.85 186.2,86.55 184.4,83.95 184.5,87 183.85,95.85 182.8,95.45 182.65,93.95 181.4,91.8 180.2,90.2 
		180.2,87.1 177.95,87.3 178.15,90.3 179.15,94.25 174.85,93.3 172.25,91.9 170.9,91.6 169.25,90.95 169.6,89.85 171.85,88.7 
		173.75,86.85 175.05,86.45 173.75,85.05 171.2,83.35 170.15,82.45 169.4,79.45 169.15,77.45 168.85,77.1 168,77.65 165.3,83.35 
		163.8,85.15 163.6,87.4 164.15,89.75 163.15,90.75 161.9,90.6 160.5,88.9 159.3,86.55 157.9,85.5 157.05,85.35 155.75,86.45 
		155.35,87.95 155.65,89.55 155.45,91.7 153.4,92.35 152.15,91.35 151.5,86.55 148.8,87.6 144.4,87.4 142.7,93.6 138.95,93.4 
		138.45,92.8 130.3,93.1 123.5,99.5 127.9,103.1 109.5,125.95 98.3,117.15 91.8,124.35 95.65,127 96.45,127.95 98,129.05 
		97.5,129.6 98,130.55 98.85,130.1 100.55,131.05 105.1,135.25 109.15,138.3 111.4,139.1 111.7,140.55 114.75,143.4 116.15,143.8 
		116.7,145.8 118.95,148.2 121.2,149.05 120.95,150.5 123.9,154.1 126.15,157.6 127.55,158.95 128.45,159.45 129.4,162 
		135.45,174.8 136.25,178.75 138.25,181.9 139.85,185.4 141.05,189.35 142.95,192.05 143.45,192.45 143.5,195.25 145.6,199.95 
		146.3,202.75 147.5,205.45 148.45,206.85 148.55,208.3 149.9,212.55 151.1,214.2 181.55,194.4 188.35,189.6 196.35,187.2 
		273.55,158.6 272.85,157.95 	"/>
</g>
<g>
	<polygon fill-rule="evenodd" clip-rule="evenodd" fill="#c8c8c8" points="357.3,211.6 356.5,220.4 354.5,223.2 354.1,226.4 
		352.1,226.4 349.3,227.6 349.3,232.05 350.9,238.05 349.3,244.45 346.5,247.65 341.7,251.65 338.9,253.25 336.5,253.65 
		337.3,257.65 334.5,258.85 333.65,259.5 326.85,256.45 324.6,258 323.65,257.25 321.65,257.65 318.45,252.45 316.05,253.25 
		310.85,257.25 310.05,261.65 308.05,264.05 305.25,264.85 302.85,263.25 300.85,262.85 298.05,262.85 296.85,264.85 288.05,268.45 
		286.85,270.45 282.45,272.45 281.25,275.65 278.45,272.85 277.25,274.45 274.45,273.25 271.6,273.65 270,274.45 268.8,274.85 
		266.4,274.85 264.8,276.05 262.4,272.45 265.2,270.85 261.2,269.25 258.4,267.65 257.2,264.85 251.6,263.65 249.2,264.85 
		246.8,264.05 244.4,266.85 240.4,264.85 242,269.25 237.6,274.85 236,275.65 232.4,273.65 231.2,274.05 228.4,280.05 228.4,281.65 
		232.4,285.7 232.4,289.3 228.8,289.7 226.4,284.05 224,280.85 221.2,279.25 218,279.25 216.05,286.85 215.25,287.65 211.45,287.25 
		210.4,287.4 206.75,287.2 204.45,286.45 203.15,286.4 202.05,285.65 198.05,284.25 195.4,283.65 193.25,280.95 191.9,274.9 
		190.95,273.8 190.95,271.7 191.05,271.15 189.45,266.2 189.35,265.25 188.95,264.05 187.2,262.95 187.2,260.8 186.1,260.8 
		184.15,259.85 183.05,258.85 182.65,258.8 178.1,250.4 177.3,249.3 176.5,247.7 175.25,245.85 174.5,243.9 173.4,242.2 
		173.25,241.55 169.4,238.55 167.65,236 167.45,234.25 166.8,234.05 165.25,233.35 163.6,233.1 161.05,229.9 160.55,228.5 
		160.25,226.95 159.35,226.25 155.55,220.5 154.9,219.9 151.25,214.35 151.1,214.2 181.55,194.4 188.35,189.6 196.35,187.2 
		273.55,158.6 302.45,183.2 327.25,209.6 333.7,209.6 333.3,214 342.1,215.2 342.1,212.8 342.9,210.4 	"/>
	
		<polygon fill-rule="evenodd" clip-rule="evenodd" fill="none" stroke="#fff" stroke-width="0.5" stroke-linecap="round" stroke-linejoin="round" stroke-miterlimit="3" points="
		357.3,211.6 342.9,210.4 342.1,212.8 342.1,215.2 333.3,214 333.7,209.6 327.25,209.6 302.45,183.2 273.55,158.6 196.35,187.2 
		188.35,189.6 181.55,194.4 151.1,214.2 151.25,214.35 154.9,219.9 155.55,220.5 159.35,226.25 160.25,226.95 160.55,228.5 
		161.05,229.9 163.6,233.1 165.25,233.35 166.8,234.05 167.45,234.25 167.65,236 169.4,238.55 173.25,241.55 173.4,242.2 
		174.5,243.9 175.25,245.85 176.5,247.7 177.3,249.3 178.1,250.4 182.65,258.8 183.05,258.85 184.15,259.85 186.1,260.8 
		187.2,260.8 187.2,262.95 188.95,264.05 189.35,265.25 189.45,266.2 191.05,271.15 190.95,271.7 190.95,273.8 191.9,274.9 
		193.25,280.95 195.4,283.65 198.05,284.25 202.05,285.65 203.15,286.4 204.45,286.45 206.75,287.2 210.4,287.4 211.45,287.25 
		215.25,287.65 216.05,286.85 218,279.25 221.2,279.25 224,280.85 226.4,284.05 228.8,289.7 232.4,289.3 232.4,285.7 228.4,281.65 
		228.4,280.05 231.2,274.05 232.4,273.65 236,275.65 237.6,274.85 242,269.25 240.4,264.85 244.4,266.85 246.8,264.05 249.2,264.85 
		251.6,263.65 257.2,264.85 258.4,267.65 261.2,269.25 265.2,270.85 262.4,272.45 264.8,276.05 266.4,274.85 268.8,274.85 
		270,274.45 271.6,273.65 274.45,273.25 277.25,274.45 278.45,272.85 281.25,275.65 282.45,272.45 286.85,270.45 288.05,268.45 
		296.85,264.85 298.05,262.85 300.85,262.85 302.85,263.25 305.25,264.85 308.05,264.05 310.05,261.65 310.85,257.25 316.05,253.25 
		318.45,252.45 321.65,257.65 323.65,257.25 324.6,258 326.85,256.45 333.65,259.5 334.5,258.85 337.3,257.65 336.5,253.65 
		338.9,253.25 341.7,251.65 346.5,247.65 349.3,244.45 350.9,238.05 349.3,232.05 349.3,227.6 352.1,226.4 354.1,226.4 354.5,223.2 
		356.5,220.4 	"/>
</g>
<g>
	<polygon fill-rule="evenodd" clip-rule="evenodd" fill="#c8c8c8" points="424.85,422.3 425.35,422.55 424.85,422.3 426.15,420.95 
		430.2,415.75 428.15,410.55 425.75,407.75 422.55,397.75 420.15,394.95 420.55,393.75 418.55,391.75 414.15,388.95 411.75,387.75 
		409.35,384.9 406.15,382.5 405.35,380.1 406.55,371.7 407.35,359.3 414.15,353.3 416.55,350.1 418.55,348.1 416.15,344.9 
		418.55,341.3 420.55,339.7 425.35,338.1 427.8,336.1 429.4,335.3 430.65,335.1 431,335.7 430.65,335.1 432.2,334.9 433.8,342.9 
		445.8,344.1 448.6,346.5 450.6,348.9 455.4,349.7 457.8,346.1 463,342.5 464.2,342.1 469.4,342.1 467.4,345.7 469.8,351.3 
		469.8,353.7 473.8,357.3 475.8,359.7 476.2,365.7 472.2,369.7 465,368.9 465.4,374.1 465,375.3 472.2,377.7 469.8,382.5 
		465.4,386.55 467.4,394.15 467.8,400.95 473.8,403.35 472.2,410.55 470.2,413.35 471.8,419.35 471,428.55 462.2,429.35 
		461.4,437.75 459,439.35 457.4,438.55 457.4,434.95 455,432.55 454.6,429.75 452.2,429.35 450.2,432.55 445.8,433.75 442.2,433.75 
		437,436.15 433.4,436.15 431,434.15 429.4,433.35 426.15,432.55 427,427.75 422.95,425.75 423.35,423.75 	"/>
	
		<path fill-rule="evenodd" clip-rule="evenodd" fill="none" stroke="#fff" stroke-width="0.5" stroke-linecap="round" stroke-linejoin="round" stroke-miterlimit="3" d="
		M424.85,422.3l-1.5,1.45l-0.399,2l4.05,2l-0.85,4.8l3.25,0.8l1.6,0.801l2.4,2h3.6l5.2-2.4h3.6l4.4-1.2l2-3.2l2.399,0.4l0.4,2.8
		l2.4,2.4v3.6l1.6,0.8l2.4-1.6l0.8-8.4l8.8-0.8l0.8-9.2l-1.6-6l2-2.8l1.6-7.2l-6-2.399l-0.399-6.8l-2-7.6l4.399-4.05l2.4-4.8
		l-7.2-2.4l0.4-1.2l-0.4-5.2l7.2,0.8l4-4l-0.4-6l-2-2.4l-4-3.6v-2.4l-2.399-5.6l2-3.6h-5.2l-1.2,0.4l-5.2,3.6l-2.399,3.6l-4.801-0.8
		l-2-2.4l-2.8-2.4l-12-1.2l-1.6-8l-1.55,0.2l0.35,0.6 M430.65,335.1l-1.25,0.2l-1.601,0.8l-2.45,2l-4.8,1.6l-2,1.6l-2.399,3.6
		l2.399,3.2l-2,2l-2.399,3.2l-6.801,6l-0.8,12.4l-1.2,8.4l0.801,2.4l3.199,2.4l2.4,2.85l2.4,1.2l4.399,2.8l2,2l-0.399,1.2l2.399,2.8
		l3.2,10l2.4,2.8l2.05,5.2l-4.05,5.2l-1.301,1.35l0.5,0.25"/>
</g>
<g>
	<polygon fill-rule="evenodd" clip-rule="evenodd" fill="#c8c8c8" points="434.2,483.05 434.6,481.45 428.2,473.85 429.8,471.85 
		431.4,471.85 433,471.05 443,470.65 446.2,469.45 447.4,473.85 450.2,475.85 452.2,475.45 454.2,476.65 462.6,479.05 462.2,491.45 
		452.2,491.85 451.4,495.85 449.4,499.85 447.4,500.65 447.8,503.05 449,505.05 446.2,507.05 445,508.65 442.2,509.85 441.8,511.05 
		438.6,509.45 436.6,513.45 429.4,513.05 428.6,509.45 427.4,506.25 429.8,502.25 431.4,501.45 433,497.05 435,495.05 432.2,488.25 
		433,484.25 	"/>
	
		<polygon fill-rule="evenodd" clip-rule="evenodd" fill="none" stroke="#fff" stroke-width="0.5" stroke-linecap="round" stroke-linejoin="round" stroke-miterlimit="3" points="
		434.2,483.05 433,484.25 432.2,488.25 435,495.05 433,497.05 431.4,501.45 429.8,502.25 427.4,506.25 428.6,509.45 429.4,513.05 
		436.6,513.45 438.6,509.45 441.8,511.05 442.2,509.85 445,508.65 446.2,507.05 449,505.05 447.8,503.05 447.4,500.65 449.4,499.85 
		451.4,495.85 452.2,491.85 462.2,491.45 462.6,479.05 454.2,476.65 452.2,475.45 450.2,475.85 447.4,473.85 446.2,469.45 
		443,470.65 433,471.05 431.4,471.85 429.8,471.85 428.2,473.85 434.6,481.45 	"/>
</g>
<g>
	
		<polyline fill-rule="evenodd" clip-rule="evenodd" fill="none" stroke="#aaa" stroke-width="0.7" stroke-linecap="round" stroke-linejoin="round" stroke-miterlimit="3" points="
		86.05,70.65 84.8,75 87.35,76.25 86.85,77.55 80.3,82.55 78.2,86.2 75,90.4 72.1,92.3 72.75,95.05 64.25,102.9 	"/>
</g>
<g>
	
		<polyline fill-rule="evenodd" clip-rule="evenodd" fill="none" stroke="#aaa" stroke-width="0.7" stroke-linecap="round" stroke-linejoin="round" stroke-miterlimit="3" points="
		135.8,178.8 159.1,170.3 149.8,149.6 185.25,137.25 220.25,140.45 255.4,142.05 273.55,158.55 	"/>
</g>
<g>
	
		<polyline fill-rule="evenodd" clip-rule="evenodd" fill="none" stroke="#aaa" stroke-width="0.7" stroke-linecap="round" stroke-linejoin="round" stroke-miterlimit="3" points="
		254.3,165.5 204.7,243.35 199.05,243 194.75,248.3 193.15,247.65 186.2,255.05 186.55,256.8 183.65,258.9 184.45,260.35 
		185.1,262.9 184,264.7 	"/>
</g>
<g>
	
		<polyline fill-rule="evenodd" clip-rule="evenodd" fill="none" stroke="#aaa" stroke-width="0.7" stroke-linecap="round" stroke-linejoin="round" stroke-miterlimit="3" points="
		285.45,271.1 291.2,274.8 293.15,275.1 298.45,276.7 298.9,278 297.8,284.1 296.5,284.9 295.85,285.55 289.95,285.85 287.7,286.85 
		279.5,286.85 279.65,304.3 288,303.7 287.7,308.8 	"/>
</g>
<g>
	
		<polyline fill-rule="evenodd" clip-rule="evenodd" fill="none" stroke="#aaa" stroke-width="0.7" stroke-linecap="round" stroke-linejoin="round" stroke-miterlimit="3" points="
		247.05,331.8 249.45,329.25 250.6,329.25 251.85,327.45 254.75,324.9 256.7,324.25 258.95,324.1 262.15,322.35 261.8,319.75 
		270.5,316.55 271.3,315.6 278.05,311.9 282.2,311.6 283.35,310.15 283.8,309.35 291.2,308.7 292.15,307.1 295.2,306.95 
		297.15,309.2 301.95,309.2 304.5,306.95 306.75,307.4 306.75,310.8 310.95,311.25 314,313.35 314.95,314.8 316.1,318.8 
		317.85,320.9 318.95,322.65 319.45,324.25 320.75,324.4 322.35,323.6 323.3,323.45 325.7,324.25 327.8,326.35 331.8,331.35 
		332.95,332.15 333.75,335.35 337.4,338.7 338.55,340.3 338.7,342.4 341.25,344.95 343.05,346.25 344,346.25 	"/>
</g>
<g>
	
		<polyline fill-rule="evenodd" clip-rule="evenodd" fill="none" stroke="#aaa" stroke-width="0.7" stroke-linecap="round" stroke-linejoin="round" stroke-miterlimit="3" points="
		261.65,374.65 266.95,380.1 282.2,386.05 283.15,383.45 288.8,385.55 286.7,387.65 305.3,388.3 305.65,394.4 305.3,399.5 
		310.3,400.15 309.65,417 314.15,421.5 	"/>
</g>
<g>
	
		<polyline fill-rule="evenodd" clip-rule="evenodd" fill="none" stroke="#aaa" stroke-width="0.7" stroke-linecap="round" stroke-linejoin="round" stroke-miterlimit="3" points="
		324.55,423.45 324.25,426.3 316.05,420.85 313.8,421 312.2,421.65 307.4,422 301.6,418.95 301.15,416.35 299.2,417.8 289.25,422.8 
		288.45,423.6 286.2,424.05 284.1,425.05 284.75,433.05 285.9,432.75 287.15,432.25 288.95,437.4 288.75,442.55 	"/>
</g>
<g>
	
		<polyline fill-rule="evenodd" clip-rule="evenodd" fill="none" stroke="#aaa" stroke-width="0.7" stroke-linecap="round" stroke-linejoin="round" stroke-miterlimit="3" points="
		319.15,431 318,429.85 317.2,426.8 315.95,426.8 314.65,427.75 313.2,429.4 312.4,429.4 310.3,427.6 308.25,427.75 305.35,431.95 
		300.7,433.4 300.35,434.65 296.5,434.05 293.65,435.15 293.45,438.35 295.55,440.95 298.75,441.4 299.55,443 299.9,445.45 
		298.45,446.85 296.35,447.05 292.35,445.1 289.8,443.2 288.65,442.05 286.55,444.15 286.55,446.25 287.7,447.35 291.55,449.1 
		291.7,450.4 292.8,451.7 292.5,452.5 291.55,453.6 288.95,454.1 284.95,453.3 282.85,454.75 280.8,454.4 279.35,454.4 
		273.7,452.65 272.45,448.95 272.3,432.9 272.75,426.5 271.95,420.7 265.05,413.8 248.5,407.25 	"/>
</g>
<g>
	
		<polyline fill-rule="evenodd" clip-rule="evenodd" fill="none" stroke="#aaa" stroke-width="0.7" stroke-linecap="round" stroke-linejoin="round" stroke-miterlimit="3" points="
		329.65,428.95 336.8,426.45 339.85,425.05 343.85,424.7 343.35,429.05 348.65,429.7 351.25,429.7 353.95,429.05 354.45,432.25 
		357.5,429.7 359.1,427.45 360.4,426.3 366.8,425.35 368.55,424.4 371.95,421.65 374.5,420.7 377.25,418.75 377.7,417.8 	"/>
</g>
<g>
	
		<polyline fill-rule="evenodd" clip-rule="evenodd" fill="none" stroke="#aaa" stroke-width="0.7" stroke-linecap="round" stroke-linejoin="round" stroke-miterlimit="3" points="
		291.7,454.55 294.75,458.9 295.55,460.65 296.8,459.7 294.75,455.05 298.6,456.05 308.7,456.85 312.6,455.2 317.85,448.15 
		308.05,447.15 306.3,445.9 308.2,444.3 309.5,442.85 305.35,442.2 	"/>
</g>
<g>
	
		<polyline fill-rule="evenodd" clip-rule="evenodd" fill="none" stroke="#aaa" stroke-width="0.7" stroke-linecap="round" stroke-linejoin="round" stroke-miterlimit="3" points="
		293.45,555.55 298.75,552.35 302.6,552.35 303.7,551.05 304.85,540.95 303.05,536.3 305,533.7 305.45,530.5 308.05,531 
		309.8,528.9 308.85,525.85 310.45,521.65 313.5,521.85 316.05,521.5 317.85,520.85 319.9,521.05 322.3,518 323.3,514.6 
		326.8,513.65 333.25,509.8 334.35,510.1 334.2,513 334.85,515.55 336.75,513.95 337.9,509.8 341.75,512.35 339.5,513.5 
		337.75,515.55 336.95,518.6 334.7,520.55 338.4,522.15 339.35,524.9 338.55,526.5 351.4,525.85 	"/>
</g>
<g>
	
		<polyline fill-rule="evenodd" clip-rule="evenodd" fill="none" stroke="#aaa" stroke-width="0.7" stroke-linecap="round" stroke-linejoin="round" stroke-miterlimit="3" points="
		365.75,554.65 365.55,547.8 362.5,550.7 359.9,547.15 359.1,546.35 353.65,547.15 352.55,547.8 352.2,547 347.9,547.8 
		349.5,544.75 348.35,542.65 352.85,540.6 350.6,536.75 352.2,534.8 352.7,531.6 354.15,529.5 355.6,527.9 352.55,526.6 
		351.25,526.45 350.95,525.2 352.05,523.9 350.3,520.2 347.1,522.45 341.8,516.85 345,514.6 346.6,516.5 351.75,513.15 
		351.55,499.65 353.65,498.05 360.7,482.65 360.25,480.9 359.7,479.8 	"/>
</g>
<g>
	
		<polyline fill-rule="evenodd" clip-rule="evenodd" fill="none" stroke="#aaa" stroke-width="0.7" stroke-linecap="round" stroke-linejoin="round" stroke-miterlimit="3" points="
		389.6,550.55 389.45,574.65 394.6,574.45 394.6,590.5 412.9,589.7 446.6,590.2 444.35,601.1 445.8,604.95 433.6,604.95 
		434.25,619.25 439.2,622.3 441.3,628.9 440.65,632.9 440.8,637.7 440.5,640.45 438.75,641.1 437.75,641.25 437.45,642.5 
		440,642.85 440.5,645.4 438.75,645.4 438.4,646.2 438.55,647.35 438.75,647.8 439.05,649.1 437.6,652.15 437.3,653.3 	"/>
</g>
<g>
	
		<polyline fill-rule="evenodd" clip-rule="evenodd" fill="none" stroke="#aaa" stroke-width="0.7" stroke-linecap="round" stroke-linejoin="round" stroke-miterlimit="3" points="
		412.4,590.05 411.75,576.4 438.25,547.05 442.9,552.35 454.45,551.7 455.4,545.6 459.25,544.15 461.5,545.25 463.3,544 
		467.3,542.55 466.5,534.7 466.5,531.45 465.35,528.1 462.15,522.15 462.3,521.05 472.45,519.9 474.2,520.85 	"/>
</g>
<g>
	
		<polyline fill-rule="evenodd" clip-rule="evenodd" fill="none" stroke="#aaa" stroke-width="0.7" stroke-linecap="round" stroke-linejoin="round" stroke-miterlimit="3" points="
		461.35,437.4 462.8,440 458.3,449.45 	"/>
</g>
<g>
	
		<polyline fill-rule="evenodd" clip-rule="evenodd" fill="none" stroke="#aaa" stroke-width="0.7" stroke-linecap="round" stroke-linejoin="round" stroke-miterlimit="3" points="
		458.45,450.25 460.55,451.4 462.15,453.15 463.6,453.95 466.15,456.05 467.6,458.3 471.15,459.9 479,460.85 480.15,460.2 	"/>
</g>
<g>
	
		<polyline fill-rule="evenodd" clip-rule="evenodd" fill="none" stroke="#aaa" stroke-width="0.7" stroke-linecap="round" stroke-linejoin="round" stroke-miterlimit="3" points="
		496.15,460.35 502.75,457.15 504.35,454.75 507.25,451.7 506.1,449.6 508.05,445.95 508.35,444.15 510.3,443.85 509.15,440.95 
		509.8,439.2 512.85,438.2 519.1,430.7 514.3,428.1 513.65,427.65 	"/>
</g>
<g>
	
		<polyline fill-rule="evenodd" clip-rule="evenodd" fill="none" stroke="#aaa" stroke-width="0.7" stroke-linecap="round" stroke-linejoin="round" stroke-miterlimit="3" points="
		470.95,417.35 477.55,419.6 480.9,422.15 483.65,425.2 485.9,425.85 487.8,423.1 488.45,424.55 488.15,425.7 490.05,423.1 
		492.45,422.95 494.55,424.4 496,426.15 496.8,428.9 496.8,437.1 498.9,437.1 502.6,438.35 514.45,426.95 515.6,423.6 515.9,419.75 
		518.15,416.85 518.3,413.35 518.95,412.05 519.75,411.55 518.95,409.3 519.1,408.65 520.9,408.2 524.1,406.25 526,404.35 
		527.8,405.45 529.55,405.8 530.35,404.5 530.35,402.75 533.25,402.1 535.95,400.35 537.6,397.9 538.4,398.1 543.7,397.6 
		576.9,398.4 	"/>
</g>
<g>
	
		<polyline fill-rule="evenodd" clip-rule="evenodd" fill="none" stroke="#aaa" stroke-width="0.7" stroke-linecap="round" stroke-linejoin="round" stroke-miterlimit="3" points="
		466.8,392 470.65,390.05 474.35,395.65 477.05,395.5 478.85,398.1 482.2,396.95 486.85,392.8 488,392 	"/>
</g>
<g>
	
		<polyline fill-rule="evenodd" clip-rule="evenodd" fill="none" stroke="#aaa" stroke-width="0.7" stroke-linecap="round" stroke-linejoin="round" stroke-miterlimit="3" points="
		479,385.85 482.2,386.35 482.7,383.8 484.95,381.7 485.1,378.65 482.55,377.5 482.35,372.7 485.4,368.85 486.4,365.8 484.8,362.6 
		485.4,360.35 	"/>
</g>
<g>
	
		<polyline fill-rule="evenodd" clip-rule="evenodd" fill="none" stroke="#aaa" stroke-width="0.7" stroke-linecap="round" stroke-linejoin="round" stroke-miterlimit="3" points="
		469.4,342.7 470.5,341.25 472.45,339.65 474.35,338.85 475.95,339.15 478.2,338.05 483.35,330.15 485.6,327.45 486.7,319.9 
		489.9,315.55 491.35,317.8 494.75,314.1 495.55,314.45 498.25,318.15 499.7,317.8 503.9,315.55 505.15,314.45 508.55,313.5 
		509.85,310.9 	"/>
</g>
<g>
	
		<polyline fill-rule="evenodd" clip-rule="evenodd" fill="none" stroke="#aaa" stroke-width="0.7" stroke-linecap="round" stroke-linejoin="round" stroke-miterlimit="3" points="
		446.1,344.45 444.85,341.6 443.05,338.55 441.3,332.25 443.4,332.75 447.4,328.1 448.85,327.3 450.3,319.6 452.05,316.85 
		452.35,309.95 468.4,270.65 	"/>
</g>
<g>
	
		<polyline fill-rule="evenodd" clip-rule="evenodd" fill="none" stroke="#aaa" stroke-width="0.7" stroke-linecap="round" stroke-linejoin="round" stroke-miterlimit="3" points="
		321.7,291.25 332.3,292.3 335.05,294.7 336,296.95 343.7,300 350.95,299.05 353.8,300.65 359.75,305.75 368.75,308.65 
		374.2,313.15 376.15,314.3 376.75,311.7 379.2,311.55 380.45,312.35 384,313.65 385.6,313.8 386.4,315.7 387.5,317.35 
		388.3,313.65 388.95,311.7 390.4,312.05 392.8,313.45 391.4,316.5 391.4,317.95 392,323.45 393,325.2 396.5,325.2 398.3,327.45 
		399.55,327.1 402.6,328.55 403.25,328.55 	"/>
</g>
<g>
	
		<polyline fill-rule="evenodd" clip-rule="evenodd" fill="none" stroke="#aaa" stroke-width="0.7" stroke-linecap="round" stroke-linejoin="round" stroke-miterlimit="3" points="
		386.95,338.5 402.15,332.1 403.25,331 403.4,329.35 402.75,326.95 400.5,323.1 402.75,321 405.65,320.85 408.25,322 411.75,319.4 
		416.55,322.15 419.6,321.35 421.85,322.95 424.45,321.2 425.9,321.5 415.15,312.5 404.05,308.35 399.25,307.05 394.6,304.65 
		393.15,302.7 390.9,300.5 392.15,296.8 394.1,295.65 394.75,294.55 394.9,292.95 	"/>
</g>
<g>
	
		<polyline fill-rule="evenodd" clip-rule="evenodd" fill="none" stroke="#aaa" stroke-width="0.7" stroke-linecap="round" stroke-linejoin="round" stroke-miterlimit="3" points="
		395.7,394.1 396.65,371.6 397.3,369.5 398.4,368.4 395.05,366.8 386.05,367.45 388.3,364.55 386.05,358.75 388.8,357.8 
		388.95,354.1 	"/>
</g>
<g>
	
		<polyline fill-rule="evenodd" clip-rule="evenodd" fill="none" stroke="#aaa" stroke-width="0.7" stroke-linecap="round" stroke-linejoin="round" stroke-miterlimit="3" points="
		362.65,378 366.65,377.65 375.15,365.65 376.75,365 379.3,364.35 381.4,361.95 382.35,357.3 383.35,354.7 386.85,353.75 
		390.25,354.55 394.1,356.8 397.45,356.15 401.15,357.3 403.25,355.85 406.6,352.8 411.1,346.2 416.25,347.8 418.55,348.1 	"/>
</g>
<g>
	
		<polyline fill-rule="evenodd" clip-rule="evenodd" fill="none" stroke="#aaa" stroke-width="0.7" stroke-linecap="round" stroke-linejoin="round" stroke-miterlimit="3" points="
		360.2,439.55 360.2,446.85 360.75,448.55 350.35,453.3 346.7,453.6 345.85,449.1 341.4,449.65 331.25,456.7 327.6,455.85 
		328.15,455 319.2,454.15 	"/>
</g>
<g>
	
		<polyline fill-rule="evenodd" clip-rule="evenodd" fill="none" stroke="#aaa" stroke-width="0.7" stroke-linecap="round" stroke-linejoin="round" stroke-miterlimit="3" points="
		422.85,424.65 420.05,424.95 418.65,426.05 412.75,425.75 411.35,427.75 413.05,431.65 412.45,435.3 407.7,436.45 404.05,445.7 
		395.9,445.7 393.1,451.35 388.95,453 	"/>
</g>
<g>
	
		<polyline fill-rule="evenodd" clip-rule="evenodd" fill="none" stroke="#aaa" stroke-width="0.7" stroke-linecap="round" stroke-linejoin="round" stroke-miterlimit="3" points="
		481.25,204.7 479.3,202.15 478.2,198.25 473.4,196.55 464.95,191.5 462.45,191.75 459.9,188.4 452.6,188.4 448.95,190.35 
		439.7,187.25 438.85,188.7 434.9,191.5 432.95,190.9 429.6,190.65 423.7,188.95 422.25,188.1 415.25,190.1 413.85,197.65 
		415.25,204.7 421.45,213.95 419.2,221 419.2,223.25 424.25,224.35 429.85,229.15 432.1,232.8 429.3,232.8 427.35,231.95 
		422.85,231.1 421.45,229.15 418.9,226.9 415.8,227.45 416.65,229.7 418.35,230.55 421.45,234.2 421.7,236.15 425.1,239.8 
		424.8,241.5 422,246 422,246.85 418.9,245.4 416.95,243.75 416.65,237.55 415.25,235.6 413,237 411.6,240.35 	"/>
</g>
<g>
	
		<polyline fill-rule="evenodd" clip-rule="evenodd" fill="none" stroke="#aaa" stroke-width="0.7" stroke-linecap="round" stroke-linejoin="round" stroke-miterlimit="3" points="
		411.6,240.35 411.05,244.3 411.05,245.7 409.9,248.25 410.5,250.2 400.1,247.65 395.85,245.15 389.15,244.85 388,232.2 
		378.75,233.6 378.15,235.3 361.9,229.95 357.65,226.3 354,225.2 	"/>
</g>
<g>
	
		<polyline fill-rule="evenodd" clip-rule="evenodd" fill="none" stroke="#aaa" stroke-width="0.7" stroke-linecap="round" stroke-linejoin="round" stroke-miterlimit="3" points="
		304.05,184.75 335.25,171 350.95,153.85 355.75,159.2 361.35,172.1 365,168.2 372.05,176.35 384.4,166.5 390.3,160.05 
		395.35,158.05 399.55,150.5 402.35,151.9 402.35,150.5 404.35,149.05 406.3,146 408.55,144 410.5,143.75 411.35,141.2 
		409.95,139.8 411.35,137.55 411.65,135.6 411.35,133.6 416.15,131.4 416.15,127.75 419.2,125.75 421.2,124.9 425.1,119.6 
		426.8,120.15 425.7,112.85 427.95,105.25 427.1,99.65 427.75,95.5 428.2,93.75 	"/>
</g>
<g>
	
		<polygon fill-rule="evenodd" clip-rule="evenodd" fill="none" stroke="#aaa" stroke-width="0.7" stroke-linecap="round" stroke-linejoin="round" stroke-miterlimit="3" points="
		417.7,406.65 421.55,411.75 422.1,412.25 422.05,412.4 426.8,418.75 421.2,414 422.05,412.4 421.55,411.75 419.45,409.9 
		416.2,408.15 417.7,406.65 416.7,405.3 415.9,404.9 414.15,401.95 416.7,405.3 418.25,406.1 	"/>
</g>
<g>
	
		<polygon fill-rule="evenodd" clip-rule="evenodd" fill="none" stroke="#aaa" stroke-width="0.7" stroke-linecap="round" stroke-linejoin="round" stroke-miterlimit="3" points="
		396.4,419.1 383.6,418.65 385.1,415.9 389.6,415.6 391.1,414.4 394.1,414.1 395.9,417.15 396.4,419.1 409.45,419.55 396.5,419.55 	
		"/>
</g>
<g>
	
		<polyline fill-rule="evenodd" clip-rule="evenodd" fill="none" stroke="#aaa" stroke-width="0.7" stroke-linecap="round" stroke-linejoin="round" stroke-miterlimit="3" points="
		402.7,403.3 405.7,402.8 412.15,403.35 	"/>
</g>
<g>
	
		<line fill-rule="evenodd" clip-rule="evenodd" fill="none" stroke="#aaa" stroke-width="0.7" stroke-linecap="round" stroke-linejoin="round" stroke-miterlimit="3" x1="431.25" y1="418.45" x2="420.75" y2="418.45"/>
</g>
<text transform="matrix(0.85 0 0 1 56.25 65.2744)" fill="#069" font-family="'_sans'" font-size="8">P92</text>
<text transform="matrix(0.85 0 0 1 192.4004 124.124)" fill="#069" font-family="'_sans'" font-size="8">P93</text>
<text transform="matrix(0.85 0 0 1 387 176.9243)" fill="#069" font-family="'_sans'" font-size="8">P94</text>
<text transform="matrix(0.85 0 0 1 255.0498 210.6743)" fill="#069" font-family="'_sans'" font-size="8">P95</text>
<text transform="matrix(0.85 0 0 1 281.9502 320.124)" fill="#069" font-family="'_sans'" font-size="8">P96</text>
<text transform="matrix(0.85 0 0 1 368.7002 293.7241)" fill="#069" font-family="'_sans'" font-size="8">P97</text>
<text transform="matrix(0.85 0 0 1 468.4502 298.124)" fill="#069" font-family="'_sans'" font-size="8">P98</text>
<text transform="matrix(0.85 0 0 1 484.3496 382.7744)" fill="#069" font-family="'_sans'" font-size="8">P99</text>
<text transform="matrix(0.85 0 0 1 468.1504 393.6743)" fill="#069" font-family="'_sans'" font-size="8">P100</text>
<text transform="matrix(0.85 0 0 1 471.9004 466.9746)" fill="#069" font-family="'_sans'" font-size="8">P102</text>
<text transform="matrix(0.85 0 0 1 532.4004 417.7744)" fill="#069" font-family="'_sans'" font-size="8">P101</text>
<text transform="matrix(0.85 0 0 1 413 438.374)" fill="#069" font-family="'_sans'" font-size="8">P103</text>
<text transform="matrix(0.85 0 0 1 410.25 411.6738)" fill="#069" font-family="'_sans'" font-size="8">P105</text>
<text transform="matrix(0.85 0 0 1 395.75 398.4741)" fill="#069" font-family="'_sans'" font-size="8">P106</text>
<text transform="matrix(0.85 0 0 1 387.4502 417.624)" fill="#069" font-family="'_sans'" font-size="8">P104</text>
<text transform="matrix(0.85 0 0 1 373.7998 376.4741)" fill="#069" font-family="'_sans'" font-size="8">P107</text>
<text transform="matrix(0.85 0 0 1 336.25 407.3242)" fill="#069" font-family="'_sans'" font-size="8">P108</text>
<text transform="matrix(0.85 0 0 1 279.8506 407.1738)" fill="#069" font-family="'_sans'" font-size="8">P109</text>
<text transform="matrix(0.85 0 0 1 273.4004 464.874)" fill="#069" font-family="'_sans'" font-size="8">P110</text>
<text transform="matrix(0.85 0 0 1 317.6504 527.9746)" fill="#069" font-family="'_sans'" font-size="8">P112</text>
<text transform="matrix(0.85 0 0 1 364.25 449.624)" fill="#069" font-family="'_sans'" font-size="8">P111</text>
<text transform="matrix(0.85 0 0 1 435.5996 561.9238)" fill="#069" font-family="'_sans'" font-size="8">P113</text>
</svg>
