<?xml version="1.0" encoding="utf-8"?>
<!-- Generator: Adobe Illustrator 15.0.2, SVG Export Plug-In . SVG Version: 6.00 Build 0)  -->
<!DOCTYPE svg PUBLIC "-//W3C//DTD SVG 1.1//EN" "http://www.w3.org/Graphics/SVG/1.1/DTD/svg11.dtd">
<svg version="1.1" id="Layer_1" xmlns="http://www.w3.org/2000/svg" xmlns:xlink="http://www.w3.org/1999/xlink" x="0px" y="0px"
	 width="800px" height="800px" viewBox="0 0 800 800" enable-background="new 0 0 800 800" xml:space="preserve">
<g>
	<path fill-rule="evenodd" clip-rule="evenodd" fill="#c8c8c8" d="M465.2,413l1.1-0.2l1.101,1.95l1.75,0.45l0.199-1.3l3.75-1.101
		l16.95-1.1l2.7-1.4l5.15,12.9l-0.15,2.95l1.15,4.149l-2.5,2.5l-2.801,0.5l-2.949,6.601l-0.5,6.949L493.6,457.9v10.75l4.15,8.25
		l4.3,7.1l2.601,2.8l-1.301,3l0.65,1.5l-0.8,1.65l-0.851,3.1l-2.8,2.351l-0.35,1.949l0.2,6.301L495.1,506.8l-0.35,3.5l-1.3,1.15
		L491.1,512.1l-1.649,3.301l-1.15,1.5l-0.149,1l0.5,3.8l1,2.649L490.8,526l-0.95,2.7l-1.55-0.7l-4.399-0.85l-2.4,1.75l-18.95,1.1
		l-3.75-3.5H455.9l-1.301-0.9l-0.899,1.75l1.35,1.551v3.1l1.95,2.85l-0.85,1.101l0.85,3.75l-1.1,1.1l-0.2,4.4l-2.65,0.899l-2.2,2.4
		l-0.449,6.65l-0.851,2.199l1.101,4.601l2.649,0.649l3.3,5.95l-0.449,5.75l0.85,6.15l1.8,3.55l-0.899,3.05l0.449,7.95l-2.649,6.6
		l-4.851,0.9l3.101,5.75l-0.9,3.5l-3.1,2.2L439.85,588.4l-5.75-5.75l-2.649-6.15l-1.75-2.2l-5.75,3.101l-4.4-7.051l-4.399,2.601
		L409,571.2l-2.2-3.95l-4-0.45l-5.25-9.25l-4.85-0.899c-2.067-0.634-3.75-1.5-5.05-2.601c-1.3-1.1-2.25-2.1-2.85-3
		c-0.633-0.899-0.95-1.383-0.95-1.45l-4.4-2.199l-10.55-0.45l-5.3-2.601h-3.1l-2.65,1.75l-5.25,1.75l-8.85,4.851
		c-1.434,0.066-2.883-0.45-4.35-1.55c-1.433-1.067-2.75-2.334-3.95-3.801c-1.2-1.466-2.167-2.767-2.9-3.899
		c-0.733-1.101-1.1-1.684-1.1-1.75l7.9-5.75l0.45-10.15l-0.2-1.149c-0.1-0.733-0.184-1.667-0.25-2.801
		c-0.067-1.133-0.034-2.283,0.1-3.449c0.1-1.2,0.366-2.25,0.8-3.15c0.467-0.833,0.95-1.3,1.45-1.4c0.533-0.133,0.983-0.232,1.35-0.3
		c0.367-0.1,0.567-0.5,0.6-1.2c0.034-0.732-0.216-2.116-0.75-4.149c-0.7-2.767-0.917-4.816-0.65-6.15
		c0.267-1.3,0.633-2.149,1.1-2.55c0.5-0.4,0.783-0.583,0.85-0.55c1,0.733,1.816,1.1,2.45,1.1c0.633-0.033,1.117-0.233,1.45-0.6
		c0.367-0.4,0.617-0.8,0.75-1.2s0.2-0.616,0.2-0.65c0.6-3.666,1.4-6.383,2.4-8.149s2.017-2.9,3.05-3.4c1.066-0.5,1.95-0.7,2.65-0.6
		c0.733,0.1,1.117,0.184,1.15,0.25c2.733,0.566,4.667,0.8,5.8,0.7c1.1-0.101,1.75-0.301,1.95-0.601c0.2-0.3,0.267-0.467,0.2-0.5
		l-1.75-2.649l-0.9-9.7l3.95-2.65l1.35-5.3l1.75-3.95l2-0.649l0.4-2.25l3.55-2.4l1.75,2l3.75,0.2l1.1,1.55l2.2,1.3l2-1.1l2-0.2
		l1.75-1.55l0.85-1.55l2.45-0.2l0.65-1.351l3.1-0.399l2.649,0.85l2.4,3.75l1.35,1.55l1.75-0.899l0.9,1.8l0.65-1.35v-2.4l1.55-1.35
		l2.2-0.851l1.75-5.95l1.75-0.25l0.449-2.85l1.551-4.65l1.75,0.9l2-1.55l1.55-1.75l1.5,0.45v1.3l1.8,2.2l0.85,3.1v4.6l1.801,0.45
		l0.399-0.85l6.2-0.25l1.1-2.2l1.301,1.35h2.199l1.101-1.1l2.45-0.25l1.75-1.75l-0.45-6.15l0.25-2.25l3.05-1.75l0.7-2.399l-0.45-2
		l-2.2-4.4l0.851-0.649l-0.2-4.2l1.75-1.101l3.1-2.449l2.4,0.25l0.25-1.351h1.75l1.3-1.5l0.25-1.55l2.4-2.2l2.199-2.899L465.2,413z"
		/>
	
		<path fill-rule="evenodd" clip-rule="evenodd" fill="none" stroke="#fff" stroke-width="0.5" stroke-linecap="round" stroke-linejoin="round" stroke-miterlimit="3" d="
		M465.2,413l-3.351-3.1l-2.199,2.899l-2.4,2.2l-0.25,1.55l-1.3,1.5h-1.75l-0.25,1.351l-2.4-0.25l-3.1,2.449l-1.75,1.101l0.2,4.2
		l-0.851,0.649l2.2,4.4l0.45,2l-0.7,2.399l-3.05,1.75l-0.25,2.25l0.45,6.15l-1.75,1.75l-2.45,0.25l-1.101,1.1H437.4l-1.301-1.35
		l-1.1,2.2l-6.2,0.25l-0.399,0.85l-1.801-0.45v-4.6l-0.85-3.1l-1.8-2.2v-1.3l-1.5-0.45l-1.55,1.75l-2,1.55l-1.75-0.9l-1.551,4.65
		l-0.449,2.85l-1.75,0.25l-1.75,5.95l-2.2,0.851l-1.55,1.35v2.4l-0.65,1.35l-0.9-1.8l-1.75,0.899l-1.35-1.55l-2.4-3.75l-2.649-0.85
		l-3.1,0.399l-0.65,1.351l-2.45,0.2l-0.85,1.55l-1.75,1.55l-2,0.2l-2,1.1l-2.2-1.3l-1.1-1.55l-3.75-0.2l-1.75-2l-3.55,2.4l-0.4,2.25
		l-2,0.649L368.9,465l-1.35,5.3l-3.95,2.65l0.9,9.7l1.75,2.649c0.066,0.033,0,0.2-0.2,0.5c-0.2,0.3-0.85,0.5-1.95,0.601
		c-1.133,0.1-3.067-0.134-5.8-0.7c-0.033-0.066-0.417-0.15-1.15-0.25c-0.7-0.101-1.583,0.1-2.65,0.6c-1.033,0.5-2.05,1.634-3.05,3.4
		s-1.8,4.483-2.4,8.149c0,0.034-0.066,0.25-0.2,0.65s-0.383,0.8-0.75,1.2c-0.333,0.366-0.817,0.566-1.45,0.6
		c-0.633,0-1.45-0.366-2.45-1.1c-0.067-0.033-0.35,0.149-0.85,0.55c-0.467,0.4-0.833,1.25-1.1,2.55
		c-0.267,1.334-0.05,3.384,0.65,6.15c0.534,2.033,0.784,3.417,0.75,4.149c-0.033,0.7-0.233,1.101-0.6,1.2
		c-0.366,0.067-0.816,0.167-1.35,0.3c-0.5,0.101-0.983,0.567-1.45,1.4c-0.434,0.9-0.7,1.95-0.8,3.15
		c-0.134,1.166-0.167,2.316-0.1,3.449c0.066,1.134,0.15,2.067,0.25,2.801l0.2,1.149l-0.45,10.15l-7.9,5.75
		c0,0.066,0.366,0.649,1.1,1.75c0.733,1.133,1.7,2.434,2.9,3.899c1.2,1.467,2.517,2.733,3.95,3.801c1.467,1.1,2.917,1.616,4.35,1.55
		l8.85-4.851l5.25-1.75l2.65-1.75h3.1l5.3,2.601l10.55,0.45l4.4,2.199c0,0.067,0.316,0.551,0.95,1.45c0.6,0.9,1.55,1.9,2.85,3
		c1.3,1.101,2.983,1.967,5.05,2.601l4.85,0.899l5.25,9.25l4,0.45l2.2,3.95l6.15,1.75l4.399-2.601l4.4,7.051l5.75-3.101l1.75,2.2
		l2.649,6.15l5.75,5.75l10.101,25.55l3.1-2.2l0.9-3.5l-3.101-5.75l4.851-0.9l2.649-6.6l-0.449-7.95L458.8,584l-1.8-3.55l-0.85-6.15
		l0.449-5.75l-3.3-5.95l-2.649-0.649l-1.101-4.601l0.851-2.199l0.449-6.65l2.2-2.4l2.65-0.899l0.2-4.4l1.1-1.1l-0.85-3.75
		l0.85-1.101l-1.95-2.85v-3.1l-1.35-1.551l0.899-1.75l1.301,0.9h2.899l3.75,3.5l18.95-1.1l2.4-1.75L488.3,528l1.55,0.7l0.95-2.7
		l-1.149-1.65l-1-2.649l-0.5-3.8l0.149-1l1.15-1.5l1.649-3.301l2.351-0.649l1.3-1.15l0.35-3.5l4.301-0.149l-0.2-6.301l0.35-1.949
		l2.8-2.351l0.851-3.1l0.8-1.65l-0.65-1.5l1.301-3l-2.601-2.8l-4.3-7.1l-4.15-8.25V457.9l-3.449-11.051l0.5-6.949l2.949-6.601
		l2.801-0.5l2.5-2.5l-1.15-4.149l0.15-2.95l-5.15-12.9l-2.7,1.4l-16.95,1.1l-3.75,1.101l-0.199,1.3l-1.75-0.45l-1.101-1.95
		L465.2,413z"/>
</g>
<g>
	<path fill-rule="evenodd" clip-rule="evenodd" fill="#c8c8c8" d="M413.65,221.1l-2,3.55l-2.2-1.55l-1.75,2.65l-1.55-3.55
		l-0.45-2.75L413.65,221.1z M391.6,216.5l6.65,1.4l-1.8,0.55L391.6,216.5z"/>
	
		<path fill-rule="evenodd" clip-rule="evenodd" fill="none" stroke="#fff" stroke-width="0.5" stroke-linecap="round" stroke-linejoin="round" stroke-miterlimit="3" d="
		M398.25,217.9l0.85-0.3l2.4,0.2l1.75-1.1l0.9,1.55l1.35,0.2l0.2,1 M413.65,221.1l-2,3.55l-2.2-1.55l-1.75,2.65l-1.55-3.55
		l-0.45-2.75 M391.6,216.5l4.85,1.95l1.8-0.55"/>
</g>
<g>
	<polygon fill-rule="evenodd" clip-rule="evenodd" fill="#c8c8c8" points="400.4,203.25 400.4,201.25 401.95,200.15 402.35,197.8 
		403.85,199.45 407.5,205.25 407.5,206.9 417.25,221.6 415.6,221.75 414.6,220.25 413.6,221.1 411.6,224.6 409.4,223.1 
		407.65,225.7 406.1,222.2 405.45,218.45 404.15,218.25 403.25,216.7 401.5,217.8 399.05,217.55 396.4,218.45 391.55,216.45 
		387.8,211.85 387.6,208.1 389.15,206.1 393.35,203.7 395.55,205.25 	"/>
	
		<polygon fill-rule="evenodd" clip-rule="evenodd" fill="none" stroke="#fff" stroke-width="0.5" stroke-linecap="round" stroke-linejoin="round" stroke-miterlimit="3" points="
		400.4,203.25 395.55,205.25 393.35,203.7 389.15,206.1 387.6,208.1 387.8,211.85 391.55,216.45 396.4,218.45 399.05,217.55 
		401.5,217.8 403.25,216.7 404.15,218.25 405.45,218.45 406.1,222.2 407.65,225.7 409.4,223.1 411.6,224.6 413.6,221.1 
		414.6,220.25 415.6,221.75 417.25,221.6 407.5,206.9 407.5,205.25 403.85,199.45 402.35,197.8 401.95,200.15 400.4,201.25 	"/>
</g>
<g>
	<polygon fill-rule="evenodd" clip-rule="evenodd" fill="#c8c8c8" points="267.95,90.05 268.2,90.4 265.75,91.2 	"/>
	
		<polygon fill-rule="evenodd" clip-rule="evenodd" fill="none" stroke="#fff" stroke-width="0.5" stroke-linecap="round" stroke-linejoin="round" stroke-miterlimit="3" points="
		267.95,90.05 265.75,91.2 268.2,90.4 	"/>
</g>
<g>
	<polygon fill-rule="evenodd" clip-rule="evenodd" fill="#c8c8c8" points="415.85,225.45 419.25,232.15 418.25,230.5 	"/>
	
		<polygon fill-rule="evenodd" clip-rule="evenodd" fill="none" stroke="#fff" stroke-width="0.5" stroke-linecap="round" stroke-linejoin="round" stroke-miterlimit="3" points="
		415.85,225.45 418.25,230.5 419.25,232.15 	"/>
</g>
<g>
	
		<line fill-rule="evenodd" clip-rule="evenodd" fill="none" stroke="#fff" stroke-width="0.5" stroke-linecap="round" stroke-linejoin="round" stroke-miterlimit="3" x1="477.4" y1="337.65" x2="469.6" y2="324.05"/>
</g>
<g>
	<path fill-rule="evenodd" clip-rule="evenodd" fill="#c8c8c8" d="M465.2,413l1.1-0.2l1.101,1.95l1.75,0.45l0.199-1.3l3.75-1.101
		l16.95-1.1l2.7-1.4l5.15,12.9l-0.15,2.95l1.15,4.149l-2.5,2.5l-2.801,0.5l-2.949,6.601l-0.5,6.949L493.6,457.9v10.75l4.15,8.25
		l4.3,7.1l2.601,2.8l-1.301,3l0.65,1.5l-0.8,1.65l-0.851,3.1l-2.8,2.351l-0.35,1.949l0.2,6.301L495.1,506.8l-0.35,3.5l-1.3,1.15
		L491.1,512.1l-1.649,3.301l-1.15,1.5l-0.149,1l0.5,3.8l1,2.649L490.8,526l-0.95,2.7l-1.55-0.7l-4.399-0.85l-2.4,1.75l-18.95,1.1
		l-3.75-3.5H455.9l-1.301-0.9l-0.899,1.75l1.35,1.551v3.1l1.95,2.85l-0.85,1.101l0.85,3.75l-1.1,1.1l-0.2,4.4l-2.65,0.899l-2.2,2.4
		l-0.449,6.65l-0.851,2.199l1.101,4.601l2.649,0.649l3.3,5.95l-0.449,5.75l0.85,6.15l1.8,3.55l-0.899,3.05l0.449,7.95l-2.649,6.6
		l-4.851,0.9l3.101,5.75l-0.9,3.5l-3.1,2.2L439.85,588.4l-5.75-5.75l-2.649-6.15l-1.75-2.2l-5.75,3.101l-4.4-7.051l-4.399,2.601
		L409,571.2l-2.2-3.95l-4-0.45l-5.25-9.25l-4.85-0.899c-2.067-0.634-3.75-1.5-5.05-2.601c-1.3-1.1-2.25-2.1-2.85-3
		c-0.633-0.899-0.95-1.383-0.95-1.45l-4.4-2.199l-10.55-0.45l-5.3-2.601h-3.1l-2.65,1.75l-5.25,1.75l-8.85,4.851
		c-1.434,0.066-2.883-0.45-4.35-1.55c-1.433-1.067-2.75-2.334-3.95-3.801c-1.2-1.466-2.167-2.767-2.9-3.899
		c-0.733-1.101-1.1-1.684-1.1-1.75l7.9-5.75l0.45-10.15l-0.2-1.149c-0.1-0.733-0.184-1.667-0.25-2.801
		c-0.067-1.133-0.034-2.283,0.1-3.449c0.1-1.2,0.366-2.25,0.8-3.15c0.467-0.833,0.95-1.3,1.45-1.4c0.533-0.133,0.983-0.232,1.35-0.3
		c0.367-0.1,0.567-0.5,0.6-1.2c0.034-0.732-0.216-2.116-0.75-4.149c-0.7-2.767-0.917-4.816-0.65-6.15
		c0.267-1.3,0.633-2.149,1.1-2.55c0.5-0.4,0.783-0.583,0.85-0.55c1,0.733,1.816,1.1,2.45,1.1c0.633-0.033,1.117-0.233,1.45-0.6
		c0.367-0.4,0.617-0.8,0.75-1.2s0.2-0.616,0.2-0.65c0.6-3.666,1.4-6.383,2.4-8.149s2.017-2.9,3.05-3.4c1.066-0.5,1.95-0.7,2.65-0.6
		c0.733,0.1,1.117,0.184,1.15,0.25c2.733,0.566,4.667,0.8,5.8,0.7c1.1-0.101,1.75-0.301,1.95-0.601c0.2-0.3,0.267-0.467,0.2-0.5
		l-1.75-2.649l-0.9-9.7l3.95-2.65l1.35-5.3l1.75-3.95l2-0.649l0.4-2.25l3.55-2.4l1.75,2l3.75,0.2l1.1,1.55l2.2,1.3l2-1.1l2-0.2
		l1.75-1.55l0.85-1.55l2.45-0.2l0.65-1.351l3.1-0.399l2.649,0.85l2.4,3.75l1.35,1.55l1.75-0.899l0.9,1.8l0.65-1.35v-2.4l1.55-1.35
		l2.2-0.851l1.75-5.95l1.75-0.25l0.449-2.85l1.551-4.65l1.75,0.9l2-1.55l1.55-1.75l1.5,0.45v1.3l1.8,2.2l0.85,3.1v4.6l1.801,0.45
		l0.399-0.85l6.2-0.25l1.1-2.2l1.301,1.35h2.199l1.101-1.1l2.45-0.25l1.75-1.75l-0.45-6.15l0.25-2.25l3.05-1.75l0.7-2.399l-0.45-2
		l-2.2-4.4l0.851-0.649l-0.2-4.2l1.75-1.101l3.1-2.449l2.4,0.25l0.25-1.351h1.75l1.3-1.5l0.25-1.55l2.4-2.2l2.199-2.899L465.2,413z"
		/>
	
		<path fill-rule="evenodd" clip-rule="evenodd" fill="none" stroke="#fff" stroke-width="0.5" stroke-linecap="round" stroke-linejoin="round" stroke-miterlimit="3" d="
		M465.2,413l-3.351-3.1l-2.199,2.899l-2.4,2.2l-0.25,1.55l-1.3,1.5h-1.75l-0.25,1.351l-2.4-0.25l-3.1,2.449l-1.75,1.101l0.2,4.2
		l-0.851,0.649l2.2,4.4l0.45,2l-0.7,2.399l-3.05,1.75l-0.25,2.25l0.45,6.15l-1.75,1.75l-2.45,0.25l-1.101,1.1H437.4l-1.301-1.35
		l-1.1,2.2l-6.2,0.25l-0.399,0.85l-1.801-0.45v-4.6l-0.85-3.1l-1.8-2.2v-1.3l-1.5-0.45l-1.55,1.75l-2,1.55l-1.75-0.9l-1.551,4.65
		l-0.449,2.85l-1.75,0.25l-1.75,5.95l-2.2,0.851l-1.55,1.35v2.4l-0.65,1.35l-0.9-1.8l-1.75,0.899l-1.35-1.55l-2.4-3.75l-2.649-0.85
		l-3.1,0.399l-0.65,1.351l-2.45,0.2l-0.85,1.55l-1.75,1.55l-2,0.2l-2,1.1l-2.2-1.3l-1.1-1.55l-3.75-0.2l-1.75-2l-3.55,2.4l-0.4,2.25
		l-2,0.649L368.9,465l-1.35,5.3l-3.95,2.65l0.9,9.7l1.75,2.649c0.066,0.033,0,0.2-0.2,0.5c-0.2,0.3-0.85,0.5-1.95,0.601
		c-1.133,0.1-3.067-0.134-5.8-0.7c-0.033-0.066-0.417-0.15-1.15-0.25c-0.7-0.101-1.583,0.1-2.65,0.6c-1.033,0.5-2.05,1.634-3.05,3.4
		s-1.8,4.483-2.4,8.149c0,0.034-0.066,0.25-0.2,0.65s-0.383,0.8-0.75,1.2c-0.333,0.366-0.817,0.566-1.45,0.6
		c-0.633,0-1.45-0.366-2.45-1.1c-0.067-0.033-0.35,0.149-0.85,0.55c-0.467,0.4-0.833,1.25-1.1,2.55
		c-0.267,1.334-0.05,3.384,0.65,6.15c0.534,2.033,0.784,3.417,0.75,4.149c-0.033,0.7-0.233,1.101-0.6,1.2
		c-0.366,0.067-0.816,0.167-1.35,0.3c-0.5,0.101-0.983,0.567-1.45,1.4c-0.434,0.9-0.7,1.95-0.8,3.15
		c-0.134,1.166-0.167,2.316-0.1,3.449c0.066,1.134,0.15,2.067,0.25,2.801l0.2,1.149l-0.45,10.15l-7.9,5.75
		c0,0.066,0.366,0.649,1.1,1.75c0.733,1.133,1.7,2.434,2.9,3.899c1.2,1.467,2.517,2.733,3.95,3.801c1.467,1.1,2.917,1.616,4.35,1.55
		l8.85-4.851l5.25-1.75l2.65-1.75h3.1l5.3,2.601l10.55,0.45l4.4,2.199c0,0.067,0.316,0.551,0.95,1.45c0.6,0.9,1.55,1.9,2.85,3
		c1.3,1.101,2.983,1.967,5.05,2.601l4.85,0.899l5.25,9.25l4,0.45l2.2,3.95l6.15,1.75l4.399-2.601l4.4,7.051l5.75-3.101l1.75,2.2
		l2.649,6.15l5.75,5.75l10.101,25.55l3.1-2.2l0.9-3.5l-3.101-5.75l4.851-0.9l2.649-6.6l-0.449-7.95L458.8,584l-1.8-3.55l-0.85-6.15
		l0.449-5.75l-3.3-5.95l-2.649-0.649l-1.101-4.601l0.851-2.199l0.449-6.65l2.2-2.4l2.65-0.899l0.2-4.4l1.1-1.1l-0.85-3.75
		l0.85-1.101l-1.95-2.85v-3.1l-1.35-1.551l0.899-1.75l1.301,0.9h2.899l3.75,3.5l18.95-1.1l2.4-1.75L488.3,528l1.55,0.7l0.95-2.7
		l-1.149-1.65l-1-2.649l-0.5-3.8l0.149-1l1.15-1.5l1.649-3.301l2.351-0.649l1.3-1.15l0.35-3.5l4.301-0.149l-0.2-6.301l0.35-1.949
		l2.8-2.351l0.851-3.1l0.8-1.65l-0.65-1.5l1.301-3l-2.601-2.8l-4.3-7.1l-4.15-8.25V457.9l-3.449-11.051l0.5-6.949l2.949-6.601
		l2.801-0.5l2.5-2.5l-1.15-4.149l0.15-2.95l-5.15-12.9l-2.7,1.4l-16.95,1.1l-3.75,1.101l-0.199,1.3l-1.75-0.45l-1.101-1.95
		L465.2,413z"/>
</g>
<g>
	<path fill-rule="evenodd" clip-rule="evenodd" fill="#c8c8c8" d="M476.55,339.1l1.65,1.65l1.5,3.95l1.8-0.8l2.35,4.6l1.15,3.35
		l3.1,5.75l-3.449,1.85l-0.801,4.95l6.25,15.2l1.351,1.8l-1.2,6.45l1.35,3.95l-1,1.35l-1.149-0.35h-3l0.7,2.5l5.6,15.05l-2.7,1.351
		l-16.95,1.1l-3.75,1.101l-0.25,1.35l-1.75-0.45l-1.1-2l-1.1,0.25l-3.301-3.1l-2.199,2.85l-2.45,2.2l-0.2,1.55l-1.3,1.55h-1.8
		l-0.2,1.301l-2.45-0.2l-3.05,2.399l-1.8,1.101l0.25,4.2l-0.9,0.649l2.2,4.45l0.45,1.95l-0.65,2.45l-3.1,1.75l-0.2,2.199l0.45,6.15
		l-1.801,1.8l-2.399,0.2l-1.101,1.1H437.4l-1.351-1.3l-1.1,2.2l-6.15,0.2l-0.45,0.899l-1.75-0.449v-4.65l-0.899-3.05l-1.75-2.2
		v-1.35l-1.55-0.45l-1.551,1.8l-1.949,1.5l-1.801-0.85l-1.5,4.6l-0.449,2.9l-1.801,0.199l-1.75,5.95l-2.199,0.9l-1.551,1.3v2.45
		l-0.649,1.3l-0.9-1.75l-1.75,0.85l-1.3-1.5l-2.45-3.75l-2.65-0.899l-3.05,0.45l-0.7,1.3l-2.4,0.25l-0.9,1.55l-1.75,1.5l-2,0.25
		l-1.95,1.1l-2.2-1.35l-1.1-1.5l-3.75-0.25l-1.75-2l-3.55,2.45l-0.45,2.2l-1.95,0.649l-1.8,4c-1.5-0.267-2.55-0.767-3.15-1.5
		c-0.6-0.733-0.9-1.533-0.9-2.399c-0.033-0.834,0.05-1.567,0.25-2.2c0.167-0.601,0.267-0.917,0.3-0.95l-3.55-5.3l-2.2-0.45
		l-3.1-4.85l-2.6-2.2l-1.55,1.3h-1.8l-1.3,2l0.2,3.1l-2.6,0.851l-1.35-0.851l-2.2-2.649l-2.2-1.101h-7.7l-2.45-0.449
		c-0.034,0.033-0.317,0.133-0.85,0.3c-0.567,0.166-1.184,0.3-1.85,0.399c-0.667,0.101-1.184,0.051-1.55-0.149
		c-0.4-0.2-0.45-0.684-0.15-1.45c0.434-1,0.483-1.833,0.15-2.5c-0.333-0.667-0.917-1.184-1.75-1.55c-0.833-0.4-1.767-0.667-2.8-0.8
		c-1-0.167-1.767-0.45-2.3-0.851c-0.5-0.434-0.833-0.833-1-1.2c-0.167-0.333-0.25-0.517-0.25-0.55c0.267-1.934,0.216-3.7-0.15-5.3
		c-0.367-1.6-0.784-2.884-1.25-3.85c-0.467-0.934-0.733-1.417-0.8-1.45l-0.2-2.2l0.45-3.75l3.95-1.75l2.65,0.85l2.45-7.25
		l-1.8-2.199c-0.633-0.9-1.017-1.567-1.15-2c-0.133-0.434-0.184-0.65-0.15-0.65l5.05-0.9l1.55-1.1l-2.85-3.3l-2.2-1.75l1.55-2.65
		l-2-3.95l-2.65-3.95l-2.85-1.55l-1.35-2l0.9-0.9l0.45-1.95l0.2-3.75l-0.2-2.65l0.4-1.75l-1.5-2l0.4-2.2l2.25-0.25l3.3-1.3l2.65,0.9
		l-0.9-2.2l2.4-1.55l2.9-0.9l2.4-1.1v-3.1l-1.75-1.95l0.45-5.3l1.75-1.3l0.2-2.2l-1.5-2.65l0.65-2l3.5,0.65l3.1-1.3l3.95,1.1l2,0.85
		l3.75-1.3l2.85-2.2l2,0.9l2.2-0.45l1.1-1.8l1.3-3.5l2.9-1.55l2.4,2l2.85,0.2l2.45,0.65l3.5-1.3l0.9-2.2l-0.2-2.45l1.5-1.95
		l1.8,0.65l1.55,2.2l0.2-1.3h2.2l1.55-0.45l0.65-1.35l2.85,0.7l0.45-2l1.55-2.2l-1.55-2.65l0.9-1.55l-2.2-5.3l0.45-1.55l1.3-1.95
		l2,0.45l2.85-1.35l0.45-2.65l1.3-1.55l0.25-1.95l1.75-0.65l1.1,1.5l4.2-1.1l1.5,1.55l2.649,1.75l3.301-0.65l1.1-2.85l3.75,1.1
		l1.8,1.1l3.5,6.6l3.95-1.95l2.45-1.55l-1.75-2.9l1.3-2.85h2.85l1.551-1.1l1.1,11.9l9.95,4.2l1.3,2.85l2.2,0.45l2.2,4.6h3.1l0.9-1.5
		l2.199-1.35l1.75,2l1.551-0.65l1.1,1.1l3.75,2.4l0.65,2.85h4.399l4.2-1.95l1.1-1.35l0.45-1.75l3.55-2l4.051,7L476.55,339.1z"/>
	
		<path fill-rule="evenodd" clip-rule="evenodd" fill="none" stroke="#fff" stroke-width="0.5" stroke-linecap="round" stroke-linejoin="round" stroke-miterlimit="3" d="
		M476.55,339.1l0.851-1.5l-4.051-7l-3.55,2l-0.45,1.75l-1.1,1.35l-4.2,1.95h-4.399L459,334.8l-3.75-2.4l-1.1-1.1l-1.551,0.65
		l-1.75-2l-2.199,1.35l-0.9,1.5h-3.1l-2.2-4.6l-2.2-0.45l-1.3-2.85l-9.95-4.2l-1.1-11.9l-1.551,1.1h-2.85l-1.3,2.85l1.75,2.9
		l-2.45,1.55l-3.95,1.95l-3.5-6.6l-1.8-1.1l-3.75-1.1l-1.1,2.85l-3.301,0.65l-2.649-1.75l-1.5-1.55l-4.2,1.1l-1.1-1.5l-1.75,0.65
		l-0.25,1.95l-1.3,1.55l-0.45,2.65l-2.85,1.35l-2-0.45l-1.3,1.95l-0.45,1.55l2.2,5.3l-0.9,1.55l1.55,2.65l-1.55,2.2l-0.45,2
		l-2.85-0.7l-0.65,1.35l-1.55,0.45h-2.2l-0.2,1.3l-1.55-2.2l-1.8-0.65l-1.5,1.95l0.2,2.45l-0.9,2.2l-3.5,1.3l-2.45-0.65l-2.85-0.2
		l-2.4-2l-2.9,1.55l-1.3,3.5l-1.1,1.8l-2.2,0.45l-2-0.9l-2.85,2.2l-3.75,1.3l-2-0.85l-3.95-1.1l-3.1,1.3l-3.5-0.65l-0.65,2l1.5,2.65
		l-0.2,2.2l-1.75,1.3l-0.45,5.3l1.75,1.95v3.1l-2.4,1.1l-2.9,0.9l-2.4,1.55l0.9,2.2l-2.65-0.9l-3.3,1.3l-2.25,0.25l-0.4,2.2l1.5,2
		l-0.4,1.75l0.2,2.65l-0.2,3.75l-0.45,1.95l-0.9,0.9l1.35,2l2.85,1.55l2.65,3.95l2,3.95l-1.55,2.65l2.2,1.75l2.85,3.3l-1.55,1.1
		l-5.05,0.9c-0.034,0,0.017,0.217,0.15,0.65c0.133,0.433,0.517,1.1,1.15,2l1.8,2.199l-2.45,7.25l-2.65-0.85l-3.95,1.75l-0.45,3.75
		l0.2,2.2c0.067,0.033,0.333,0.517,0.8,1.45c0.466,0.966,0.883,2.25,1.25,3.85c0.366,1.6,0.417,3.366,0.15,5.3
		c0,0.033,0.083,0.217,0.25,0.55c0.167,0.367,0.5,0.767,1,1.2c0.533,0.4,1.3,0.684,2.3,0.851c1.034,0.133,1.967,0.399,2.8,0.8
		c0.833,0.366,1.417,0.883,1.75,1.55c0.333,0.667,0.283,1.5-0.15,2.5c-0.3,0.767-0.25,1.25,0.15,1.45
		c0.366,0.2,0.883,0.25,1.55,0.149c0.667-0.1,1.283-0.233,1.85-0.399c0.533-0.167,0.816-0.267,0.85-0.3l2.45,0.449h7.7l2.2,1.101
		l2.2,2.649l1.35,0.851l2.6-0.851l-0.2-3.1l1.3-2h1.8l1.55-1.3l2.6,2.2l3.1,4.85l2.2,0.45l3.55,5.3
		c-0.034,0.033-0.133,0.35-0.3,0.95c-0.2,0.633-0.283,1.366-0.25,2.2c0,0.866,0.3,1.666,0.9,2.399c0.6,0.733,1.65,1.233,3.15,1.5
		l1.8-4l1.95-0.649l0.45-2.2l3.55-2.45l1.75,2l3.75,0.25l1.1,1.5l2.2,1.35l1.95-1.1l2-0.25l1.75-1.5l0.9-1.55l2.4-0.25l0.7-1.3
		l3.05-0.45l2.65,0.899l2.45,3.75l1.3,1.5l1.75-0.85l0.9,1.75l0.649-1.3v-2.45l1.551-1.3l2.199-0.9l1.75-5.95l1.801-0.199l0.449-2.9
		l1.5-4.6l1.801,0.85l1.949-1.5l1.551-1.8l1.55,0.45v1.35l1.75,2.2l0.899,3.05v4.65l1.75,0.449l0.45-0.899l6.15-0.2l1.1-2.2
		l1.351,1.3h2.199l1.101-1.1l2.399-0.2l1.801-1.8l-0.45-6.15l0.2-2.199l3.1-1.75l0.65-2.45l-0.45-1.95l-2.2-4.45l0.9-0.649
		l-0.25-4.2l1.8-1.101l3.05-2.399l2.45,0.2l0.2-1.301h1.8l1.3-1.55l0.2-1.55l2.45-2.2l2.199-2.85l3.301,3.1l1.1-0.25l1.1,2
		l1.75,0.45l0.25-1.35l3.75-1.101l16.95-1.1l2.7-1.351l-5.6-15.05l-0.7-2.5h3l1.149,0.35l1-1.35l-1.35-3.95l1.2-6.45l-1.351-1.8
		l-6.25-15.2l0.801-4.95l3.449-1.85l-3.1-5.75l-1.15-3.35l-2.35-4.6l-1.8,0.8l-1.5-3.95L476.55,339.1z"/>
</g>
<g>
	<polygon fill-rule="evenodd" clip-rule="evenodd" fill="#c8c8c8" points="266.75,88.3 267.95,90 267.9,90 	"/>
	
		<polyline fill-rule="evenodd" clip-rule="evenodd" fill="none" stroke="#fff" stroke-width="0.5" stroke-linecap="round" stroke-linejoin="round" stroke-miterlimit="3" points="
		266.35,87.75 266.75,88.3 267.95,90 267.9,90 266.75,88.3 	"/>
</g>
<g>
	<polygon fill-rule="evenodd" clip-rule="evenodd" fill="#c8c8c8" points="250,67.1 250.85,68.9 252.15,70.4 254.15,73.55 
		255.65,72.85 256.6,74.7 267.95,90.05 265.8,91.2 265.35,91.35 261.8,93.3 259.6,93.95 257.15,91.75 256.05,90 254.3,88.9 
		250.55,89.55 246.8,88.9 245.7,88.05 243.05,87.35 242.65,86.05 239.75,86.7 238.65,85.4 233.4,85.4 233.15,86.25 231.4,88.05 
		229.4,93.55 227.2,93.55 227.65,95.5 225.9,97.5 224.8,96.85 224.1,97.95 226.35,105 229.4,110.7 230.75,111.8 232.25,115.15 
		232.7,118.45 234.5,120.4 235.8,119.75 240.45,123.3 241.95,125.05 243.5,124.6 245.05,126.6 247.7,128.35 249.7,128.15 
		250.8,128.8 252.35,129.25 252.1,131.85 253.45,134.1 253,135.2 253.85,136.5 251,141.35 250.35,144.2 252.55,145.55 253.85,147.5 
		253.65,149.3 249.45,151.05 247.7,150.6 248.8,152.35 247.05,153.7 246.4,156.55 244.6,158.3 245.95,159.65 244.4,162.3 
		245.95,166.7 246.15,169.55 244.15,170.85 245.5,172.4 245.05,175.3 243.3,175.05 240.85,177.25 244.15,181.65 242.2,185.2 
		241.1,186.3 241.75,188.5 242.85,188.95 243.5,191.6 241.55,192.05 238.45,190.9 236.25,192.25 233.8,194.45 231.6,193.8 
		230.75,196.85 228.95,198.65 229.2,199.95 224.35,201.3 221.5,199.5 221.25,196.85 214,194.65 213.1,193.35 210.25,194.65 
		209.35,196.2 206.05,196.65 203.65,194.9 202.3,193.35 200.95,190.55 198.6,190.7 195.5,186.25 195.15,184.6 193.35,184.6 
		192.5,183.1 190.2,182.6 188.05,179.95 185.9,178.65 185.9,174.85 187.55,174.65 190.5,171.7 189.35,166.4 189.2,163.45 
		187.2,160.15 187.55,157.15 187.55,153.05 185.75,150.55 184.9,147.1 186.9,147.1 188.55,146.1 191,140.45 192,139.65 191,138 
		191.35,136.35 189.7,132.05 189.05,129.25 189.7,123.3 189.55,120.65 188.55,119.65 188.55,117.5 187.05,115.5 187.4,112.7 
		185.9,109.9 187.05,107.1 185.75,105.45 185.4,103.1 184.4,101.3 184.55,98.8 187.4,97.5 189.35,96.85 190.85,94.85 191.85,93.05 
		196.3,88.4 199.1,83.95 208.05,77.35 215.8,70.4 228.05,56 230.2,55.85 235.15,58.35 237.95,59.15 241.1,62.15 243.4,63.6 
		246.4,64.95 248.2,66.75 	"/>
	
		<polygon fill-rule="evenodd" clip-rule="evenodd" fill="none" stroke="#fff" stroke-width="0.5" stroke-linecap="round" stroke-linejoin="round" stroke-miterlimit="3" points="
		250,67.1 248.2,66.75 246.4,64.95 243.4,63.6 241.1,62.15 237.95,59.15 235.15,58.35 230.2,55.85 228.05,56 215.8,70.4 
		208.05,77.35 199.1,83.95 196.3,88.4 191.85,93.05 190.85,94.85 189.35,96.85 187.4,97.5 184.55,98.8 184.4,101.3 185.4,103.1 
		185.75,105.45 187.05,107.1 185.9,109.9 187.4,112.7 187.05,115.5 188.55,117.5 188.55,119.65 189.55,120.65 189.7,123.3 
		189.05,129.25 189.7,132.05 191.35,136.35 191,138 192,139.65 191,140.45 188.55,146.1 186.9,147.1 184.9,147.1 185.75,150.55 
		187.55,153.05 187.55,157.15 187.2,160.15 189.2,163.45 189.35,166.4 190.5,171.7 187.55,174.65 185.9,174.85 185.9,178.65 
		188.05,179.95 190.2,182.6 192.5,183.1 193.35,184.6 195.15,184.6 195.5,186.25 198.6,190.7 200.95,190.55 202.3,193.35 
		203.65,194.9 206.05,196.65 209.35,196.2 210.25,194.65 213.1,193.35 214,194.65 221.25,196.85 221.5,199.5 224.35,201.3 
		229.2,199.95 228.95,198.65 230.75,196.85 231.6,193.8 233.8,194.45 236.25,192.25 238.45,190.9 241.55,192.05 243.5,191.6 
		242.85,188.95 241.75,188.5 241.1,186.3 242.2,185.2 244.15,181.65 240.85,177.25 243.3,175.05 245.05,175.3 245.5,172.4 
		244.15,170.85 246.15,169.55 245.95,166.7 244.4,162.3 245.95,159.65 244.6,158.3 246.4,156.55 247.05,153.7 248.8,152.35 
		247.7,150.6 249.45,151.05 253.65,149.3 253.85,147.5 252.55,145.55 250.35,144.2 251,141.35 253.85,136.5 253,135.2 253.45,134.1 
		252.1,131.85 252.35,129.25 250.8,128.8 249.7,128.15 247.7,128.35 245.05,126.6 243.5,124.6 241.95,125.05 240.45,123.3 
		235.8,119.75 234.5,120.4 232.7,118.45 232.25,115.15 230.75,111.8 229.4,110.7 226.35,105 224.1,97.95 224.8,96.85 225.9,97.5 
		227.65,95.5 227.2,93.55 229.4,93.55 231.4,88.05 233.15,86.25 233.4,85.4 238.65,85.4 239.75,86.7 242.65,86.05 243.05,87.35 
		245.7,88.05 246.8,88.9 250.55,89.55 254.3,88.9 256.05,90 257.15,91.75 259.6,93.95 261.8,93.3 265.35,91.35 265.8,91.2 
		267.95,90.05 256.6,74.7 255.65,72.85 254.15,73.55 252.15,70.4 250.85,68.9 	"/>
</g>
<g>
	
		<line fill-rule="evenodd" clip-rule="evenodd" fill="none" stroke="#fff" stroke-width="0.5" stroke-linecap="round" stroke-linejoin="round" stroke-miterlimit="3" x1="413.6" y1="221.1" x2="415.85" y2="225.5"/>
</g>
<g>
	<path fill-rule="evenodd" clip-rule="evenodd" fill="#c8c8c8" d="M407.5,205.25v1.65l9.75,14.7l-1.65,0.15l-1-1.5l-1,0.85
		l-1.949,3.5l-2.25-1.5l-1.75,2.6l-1.551-3.5l-0.649-3.75l-1.3-0.2l-0.9-1.55l-1.75,1.1l-2.45-0.25l-2.65,0.9l-4.8-2l-1.35-1.5
		l-1.4,0.4c-0.6-0.4-1.483-1.317-2.65-2.75c-0.7-0.9-0.917-1.7-0.65-2.4c0.267-0.667,0.667-1.184,1.2-1.55
		c0.5-0.367,0.783-0.55,0.85-0.55l1.55-2l4.2-2.4l2.2,1.55l4.851-2v-2l1.55-1.1l0.399-2.35l1.5,1.65L407.5,205.25z"/>
	
		<path fill-rule="evenodd" clip-rule="evenodd" fill="none" stroke="#fff" stroke-width="0.5" stroke-linecap="round" stroke-linejoin="round" stroke-miterlimit="3" d="
		M407.5,205.25l-3.65-5.8l-1.5-1.65l-0.399,2.35l-1.55,1.1v2l-4.851,2l-2.2-1.55l-4.2,2.4l-1.55,2c-0.067,0-0.35,0.183-0.85,0.55
		c-0.533,0.367-0.934,0.883-1.2,1.55c-0.267,0.7-0.05,1.5,0.65,2.4c1.167,1.433,2.05,2.35,2.65,2.75l1.4-0.4l1.35,1.5l4.8,2
		l2.65-0.9l2.45,0.25l1.75-1.1l0.9,1.55l1.3,0.2l0.649,3.75l1.551,3.5l1.75-2.6l2.25,1.5l1.949-3.5l1-0.85l1,1.5l1.65-0.15
		l-9.75-14.7V205.25z"/>
</g>
<g>
	<path fill-rule="evenodd" clip-rule="evenodd" fill="#c8c8c8" d="M255.85,166.7l2.4,0.65l1.1,2.45l2.9,2.2l1.5,5.25l-0.85,0.9
		l-1.1,2l0.45,1.75l-0.7,1.55l1.8,1.75l1.1-0.65l2.2-0.25l2.2,0.45v-1.95l2.4,0.85l-0.85,2.2l-0.25,2.2l1.75,9.7l1.8,1.55l1.55,0.45
		h2.85l1.75-1.35l0.2,2l2.45,0.45l0.45,2l1.1,2.6l-0.45,2.9V211l0.65,2.65l-1.3,2.4l0.65,2.4l0.2,3.75l1.1,0.25l2.25,0.2l2.4,2.45
		l2.4,1.75l1.35,0.45v0.85l1.55,1.35l1.75,1.95l3.75,1.55l2.2,0.25l6.6-4.65l2.45-0.85l1.1-1.55v-1.1l0.2-1.1l2.85,0.2l2.45-2.65
		l1.3-1.1l2,1.35l0.45,1.3l1.55,1.3l2.2,2.45l3.5-0.2l3.1,3.7v1.55l1.75,4l1.35-1.1l2.4,3.5l1.1,2.85l3.3,2l1.55-1.3l2-0.25
		l-0.25-2.2l1.8-0.85h1.75l2.4,0.4l2.65-1.95l5.1-5.1l3.05-1.75l4.2-5.3l1.3-2.65l1.55-4.4l4.2-3.05l3.3-1.8l1.35-1.3l2.4,0.2
		l0.45-1.75l1.3,0.2l2-1.75l3.3-0.45c-0.067,0.033-0.35,0.233-0.85,0.6c-0.533,0.367-0.934,0.883-1.2,1.55
		c-0.3,0.667-0.1,1.467,0.6,2.4c1.2,1.4,2.1,2.3,2.7,2.7l-3,0.9l-2.65,2l-3.75,2l-4.65-0.45l-2.6,3.5l0.65,10.6l1.75,2.2v1.1l2,1.35
		l-1.35,1.3l2.2,2.2v2.65l0.9,2.4l-1.55,5.95l3.95,4.2l3.75,5.5l0.7,1.8h1.5l4.65,3.7l1.75-1.5l2.45-0.7l2.4,2.2l2,3.1l-1.1,1.35
		l1.55,1.75l-0.7,1.3l2.899,0.65l-1.35,0.9l2.65,1.55l2.449,4.4l1.101-1.55l1.3,1.55l1.35,0.2l1.101,2.65l3.05,5.1h2.2l1.35,3.05
		l1.95,1.35l2.9,4.2l1.55,6.15l3.7,2.85l-1.5,1.1h-2.9l-1.3,2.9l1.75,2.85l-2.4,1.55l-4,1.95l-3.5-6.6l-1.75-1.1l-3.75-1.1
		l-1.1,2.85l-3.3,0.7l-2.65-1.8l-1.55-1.5l-4.2,1.1l-1.1-1.55l-1.75,0.65l-0.25,2l-1.3,1.5l-0.45,2.65l-2.85,1.35l-2-0.45l-1.3,2
		l-0.45,1.5l2.2,5.3l-0.9,1.55l1.55,2.65l-1.55,2.2l-0.4,2l-2.9-0.7l-0.65,1.35l-1.55,0.45h-2.2l-0.2,1.3l-1.55-2.2l-1.75-0.65
		l-1.55,2l0.2,2.4l-0.85,2.2l-3.55,1.35l-2.4-0.7l-2.9-0.2l-2.4-2l-2.9,1.55l-1.3,3.55l-1.1,1.75l-2.2,0.45l-2-0.9l-2.85,2.2
		l-3.75,1.35l-2-0.9l-3.95-1.1l-3.1,1.3l-3.5-0.65l-0.65,2l1.55,2.65l-0.25,2.2l-1.75,1.3l-0.45,5.3l1.75,2v3.05l-2.4,1.1l-2.85,0.9
		l-2.45,1.55l0.9,2.2l-2.65-0.9l-3.3,1.35l-2.2,0.2l-0.45,2.2l1.55,2l-0.45,1.75l0.2,2.65l-0.2,3.75l-0.45,2l-0.9,0.85l-2.6-0.65
		h-4.85l-3.55,0.9l-2.4-0.45l-3.75,2.4l-5.3-3.95l-3.1,0.45l-2.65-2.2l-3.05,1.3l-3.1-2.65l-2.65-0.85l-4.4-5.75l-4.4,0.9
		l-1.35-3.55l-3.5-3.95l-2.65-5.75l3.1-6.15l-4.4-8.8l-2.65-1.35l3.5-7.05l-12.35-6.15l-1.3-2.65l-5.3,0.45L238,326.2l-5.75-2.2
		l-3.5-0.4l-2.2,2.2l-6.65-1.35l0.7-1.85l0.3-2l1.35-3.45l-0.2-3.15l1.65-1v-1.3l-1.3-1.85l1.3-1.65v-2.15l-2.15-1.3l-0.95-2.5
		l-1.15-0.65l-0.5-2.15l-1.2-1.65l0.7-2l0.15-1.95l1.65-0.2l2.15-1.15l1.65-3.95l-1.3-1l0.5-1.3l-1.5-1.65l-0.35-2.15l1-1.35
		l-1.15-2.3l-0.85-2.5l-2.15-1.65l2.65-2.65l3-1.15l-0.2-2.95l3-2.35l-3.95-3.95l0.15-1l-1.65-1l-3.15-1.45l-1,0.15l-2.3-0.8
		l-1.3-3.5l-2.35-1.5l-0.3-1.8l-1.85-0.35l-2.15-1.95h-1.3l-2.65-0.5l-1.3-2.5l-4.15-0.65l-2.65,0.15l-0.85-2.15l2.35-4.45l-0.2-5.3
		l-1.65-1.65l-0.3-1.95l0.65-2.15l-0.15-4.95l1.15-3l-1.15-2.3l0.65-2l-0.5-2.15l0.5-1.3l1.3-5.8l1.85-2l-0.5-2.15l0.15-2.3
		l-0.15-2.8l0.8-2l1.2,0.35l1.65-1.15l0.15-1.65l0.55,1.3l1.3,1.55l2.45,1.75l3.3-0.45l0.85-1.5l2.9-1.35l0.85,1.35l7.3,2.2l0.2,2.6
		l2.9,1.8l4.85-1.35l-0.25-1.3l1.75-1.75l0.9-3.1l2.2,0.65l2.45-2.2l2.2-1.3l3.05,1.1l2-0.45l-0.65-2.65l-1.1-0.45l-0.7-2.2
		l1.15-1.1l1.95-3.5l-3.3-4.45l2.45-2.2l1.75,0.25l0.45-2.9l-1.35-1.5l2-1.35l-0.25-2.85l-1.5-4.4l1.5-2.65l1.8-0.45l2.65,0.2
		l1.5,1.55l1.8,0.45L255.85,166.7z"/>
	
		<path fill-rule="evenodd" clip-rule="evenodd" fill="none" stroke="#fff" stroke-width="0.5" stroke-linecap="round" stroke-linejoin="round" stroke-miterlimit="3" d="
		M255.85,166.7l-2.2-5.3l-1.8-0.45l-1.5-1.55l-2.65-0.2l-1.8,0.45l-1.5,2.65l1.5,4.4l0.25,2.85l-2,1.35l1.35,1.5l-0.45,2.9
		l-1.75-0.25l-2.45,2.2l3.3,4.45l-1.95,3.5l-1.15,1.1l0.7,2.2l1.1,0.45l0.65,2.65l-2,0.45l-3.05-1.1l-2.2,1.3l-2.45,2.2l-2.2-0.65
		l-0.9,3.1l-1.75,1.75l0.25,1.3l-4.85,1.35l-2.9-1.8l-0.2-2.6l-7.3-2.2l-0.85-1.35l-2.9,1.35l-0.85,1.5l-3.3,0.45l-2.45-1.75
		l-1.3-1.55l-0.55-1.3l-0.15,1.65l-1.65,1.15l-1.2-0.35l-0.8,2l0.15,2.8l-0.15,2.3l0.5,2.15l-1.85,2l-1.3,5.8l-0.5,1.3l0.5,2.15
		l-0.65,2l1.15,2.3l-1.15,3l0.15,4.95l-0.65,2.15l0.3,1.95l1.65,1.65l0.2,5.3l-2.35,4.45l0.85,2.15l2.65-0.15l4.15,0.65l1.3,2.5
		l2.65,0.5h1.3l2.15,1.95l1.85,0.35l0.3,1.8l2.35,1.5l1.3,3.5l2.3,0.8l1-0.15l3.15,1.45l1.65,1l-0.15,1l3.95,3.95l-3,2.35l0.2,2.95
		l-3,1.15l-2.65,2.65l2.15,1.65l0.85,2.5l1.15,2.3l-1,1.35l0.35,2.15l1.5,1.65l-0.5,1.3l1.3,1l-1.65,3.95l-2.15,1.15l-1.65,0.2
		l-0.15,1.95l-0.7,2l1.2,1.65l0.5,2.15l1.15,0.65l0.95,2.5l2.15,1.3v2.15l-1.3,1.65l1.3,1.85v1.3l-1.65,1l0.2,3.15l-1.35,3.45
		l-0.3,2l-0.7,1.85l6.65,1.35l2.2-2.2l3.5,0.4l5.75,2.2l6.15,6.65l5.3-0.45l1.3,2.65l12.35,6.15l-3.5,7.05l2.65,1.35l4.4,8.8
		l-3.1,6.15l2.65,5.75l3.5,3.95l1.35,3.55l4.4-0.9l4.4,5.75l2.65,0.85l3.1,2.65l3.05-1.3l2.65,2.2l3.1-0.45l5.3,3.95l3.75-2.4
		l2.4,0.45l3.55-0.9h4.85l2.6,0.65l0.9-0.85l0.45-2l0.2-3.75l-0.2-2.65l0.45-1.75l-1.55-2l0.45-2.2l2.2-0.2l3.3-1.35l2.65,0.9
		l-0.9-2.2l2.45-1.55l2.85-0.9l2.4-1.1v-3.05l-1.75-2l0.45-5.3l1.75-1.3l0.25-2.2l-1.55-2.65l0.65-2l3.5,0.65l3.1-1.3l3.95,1.1
		l2,0.9l3.75-1.35l2.85-2.2l2,0.9l2.2-0.45l1.1-1.75l1.3-3.55l2.9-1.55l2.4,2l2.9,0.2l2.4,0.7l3.55-1.35l0.85-2.2l-0.2-2.4l1.55-2
		l1.75,0.65l1.55,2.2l0.2-1.3h2.2l1.55-0.45l0.65-1.35l2.9,0.7l0.4-2l1.55-2.2l-1.55-2.65l0.9-1.55l-2.2-5.3l0.45-1.5l1.3-2l2,0.45
		l2.85-1.35l0.45-2.65l1.3-1.5l0.25-2l1.75-0.65l1.1,1.55l4.2-1.1l1.55,1.5l2.65,1.8l3.3-0.7l1.1-2.85l3.75,1.1l1.75,1.1l3.5,6.6
		l4-1.95l2.4-1.55l-1.75-2.85l1.3-2.9h2.9l1.5-1.1l-3.7-2.85l-1.55-6.15l-2.9-4.2l-1.95-1.35l-1.35-3.05h-2.2l-3.05-5.1l-1.101-2.65
		l-1.35-0.2l-1.3-1.55l-1.101,1.55l-2.449-4.4l-2.65-1.55l1.35-0.9l-2.899-0.65l0.7-1.3l-1.55-1.75l1.1-1.35l-2-3.1l-2.4-2.2
		l-2.45,0.7l-1.75,1.5l-4.65-3.7h-1.5l-0.7-1.8l-3.75-5.5l-3.95-4.2l1.55-5.95l-0.9-2.4v-2.65l-2.2-2.2l1.35-1.3l-2-1.35v-1.1
		l-1.75-2.2l-0.65-10.6l2.6-3.5l4.65,0.45l3.75-2l2.65-2l3-0.9c-0.6-0.4-1.5-1.3-2.7-2.7c-0.7-0.933-0.9-1.733-0.6-2.4
		c0.267-0.667,0.667-1.183,1.2-1.55c0.5-0.367,0.783-0.567,0.85-0.6l-3.3,0.45l-2,1.75l-1.3-0.2l-0.45,1.75l-2.4-0.2l-1.35,1.3
		l-3.3,1.8l-4.2,3.05l-1.55,4.4l-1.3,2.65l-4.2,5.3l-3.05,1.75l-5.1,5.1l-2.65,1.95l-2.4-0.4h-1.75l-1.8,0.85l0.25,2.2l-2,0.25
		l-1.55,1.3l-3.3-2l-1.1-2.85l-2.4-3.5l-1.35,1.1l-1.75-4v-1.55l-3.1-3.7l-3.5,0.2l-2.2-2.45l-1.55-1.3l-0.45-1.3l-2-1.35l-1.3,1.1
		l-2.45,2.65l-2.85-0.2l-0.2,1.1v1.1l-1.1,1.55l-2.45,0.85l-6.6,4.65l-2.2-0.25l-3.75-1.55l-1.75-1.95l-1.55-1.35v-0.85l-1.35-0.45
		l-2.4-1.75l-2.4-2.45l-2.25-0.2l-1.1-0.25l-0.2-3.75l-0.65-2.4l1.3-2.4L283.6,211v-2.65l0.45-2.9l-1.1-2.6l-0.45-2l-2.45-0.45
		l-0.2-2l-1.75,1.35h-2.85l-1.55-0.45l-1.8-1.55l-1.75-9.7l0.25-2.2l0.85-2.2l-2.4-0.85v1.95l-2.2-0.45l-2.2,0.25l-1.1,0.65
		l-1.8-1.75l0.7-1.55l-0.45-1.75l1.1-2l0.85-0.9l-1.5-5.25l-2.9-2.2l-1.1-2.45L255.85,166.7z"/>
</g>
<g>
	<polygon fill-rule="evenodd" clip-rule="evenodd" fill="#c8c8c8" points="404.15,218.25 405.5,218.45 406.15,222.2 407.7,225.75 
		409.45,223.1 411.65,224.65 413.65,221.1 418.25,230.55 419.25,232.2 422.05,235.8 422.7,239.3 425.55,241.1 429.35,248.85 
		431.5,252.15 433.65,257.3 455.95,301.6 473.4,330.6 469.8,332.6 469.4,334.35 468.3,335.7 464.1,337.65 459.7,337.65 459,334.8 
		455.3,332.4 454.2,331.3 452.65,331.95 450.85,329.95 448.65,331.3 447.8,332.8 444.7,332.8 442.5,328.2 440.3,327.75 
		438.95,324.9 429.05,320.7 427.95,308.8 424.2,305.95 422.65,299.75 419.8,295.6 417.8,294.25 416.5,291.15 414.3,291.15 
		412.75,288.3 411.2,286.1 410.1,283.45 408.8,283.25 407.45,281.7 406.35,283.25 403.95,278.85 401.3,277.3 402.6,276.4 
		399.75,275.75 400.4,274.45 398.85,272.65 399.95,271.35 398,268.25 395.55,266.05 393.15,266.7 391.4,268.25 386.75,264.5 
		385.2,264.5 384.55,262.75 380.8,257.25 376.85,253.05 378.4,247.1 377.5,244.7 377.5,242.05 375.3,239.85 376.6,238.5 
		374.65,237.2 374.65,236.1 372.85,233.9 372.2,223.3 374.85,219.8 379.5,220.2 383.25,218.25 385.85,216.25 390.3,214.95 
		391.6,216.5 396.45,218.45 399.1,217.6 401.5,217.8 403.3,216.7 	"/>
	
		<polygon fill-rule="evenodd" clip-rule="evenodd" fill="none" stroke="#fff" stroke-width="0.5" stroke-linecap="round" stroke-linejoin="round" stroke-miterlimit="3" points="
		404.15,218.25 403.3,216.7 401.5,217.8 399.1,217.6 396.45,218.45 391.6,216.5 390.3,214.95 385.85,216.25 383.25,218.25 
		379.5,220.2 374.85,219.8 372.2,223.3 372.85,233.9 374.65,236.1 374.65,237.2 376.6,238.5 375.3,239.85 377.5,242.05 377.5,244.7 
		378.4,247.1 376.85,253.05 380.8,257.25 384.55,262.75 385.2,264.5 386.75,264.5 391.4,268.25 393.15,266.7 395.55,266.05 
		398,268.25 399.95,271.35 398.85,272.65 400.4,274.45 399.75,275.75 402.6,276.4 401.3,277.3 403.95,278.85 406.35,283.25 
		407.45,281.7 408.8,283.25 410.1,283.45 411.2,286.1 412.75,288.3 414.3,291.15 416.5,291.15 417.8,294.25 419.8,295.6 
		422.65,299.75 424.2,305.95 427.95,308.8 429.05,320.7 438.95,324.9 440.3,327.75 442.5,328.2 444.7,332.8 447.8,332.8 
		448.65,331.3 450.85,329.95 452.65,331.95 454.2,331.3 455.3,332.4 459,334.8 459.7,337.65 464.1,337.65 468.3,335.7 469.4,334.35 
		469.8,332.6 473.4,330.6 455.95,301.6 433.65,257.3 431.5,252.15 429.35,248.85 425.55,241.1 422.7,239.3 422.05,235.8 
		419.25,232.2 418.25,230.55 413.65,221.1 411.65,224.65 409.45,223.1 407.7,225.75 406.15,222.2 405.5,218.45 	"/>
</g>
<g>
	<polygon fill-rule="evenodd" clip-rule="evenodd" fill="#c8c8c8" points="312.3,127.25 331.15,140 338.75,142.95 344.7,144.3 
		348,143.3 352.65,145.45 362.55,154.05 368.85,161.15 374.3,166.45 378.4,169.4 380.9,172.7 384.05,175 388,178.8 389.5,179.5 
		391.8,181.15 398.75,191.55 398.6,193.05 400.9,196.65 402.4,197.85 401.95,200.2 400.4,201.3 400.4,203.3 395.55,205.25 
		393.35,203.7 389.15,206.15 387.6,208.15 384.3,208.55 382.35,210.35 381,210.1 380.55,211.9 378.15,211.65 376.8,213 
		373.5,214.75 369.35,217.8 367.8,222.25 366.45,224.9 362.3,230.15 359.2,231.95 354.15,237 351.5,239 349.05,238.55 347.3,238.55 
		345.55,239.4 345.75,241.6 343.75,241.85 342.25,243.15 338.9,241.2 337.8,238.3 335.4,234.8 334.05,235.9 332.3,231.95 
		332.3,230.4 329.25,226.65 325.7,226.85 323.5,224.45 321.95,223.1 321.5,221.8 319.55,220.45 318.2,221.55 315.8,224.2 312.9,224 
		312.7,225.1 312.7,226.2 311.6,227.75 309.2,228.6 302.55,233.25 300.35,233.05 296.6,231.5 294.85,229.5 293.3,228.2 293.3,227.3 
		292,226.85 289.55,225.1 287.15,222.65 283.85,222.25 283.6,218.5 282.95,216.05 284.3,213.65 283.6,211 283.6,208.35 
		284.05,205.5 282.95,202.85 282.5,200.85 280.1,200.4 279.85,198.45 278.1,199.75 275.25,199.75 273.7,199.3 271.95,197.75 
		270.2,188.1 270.4,185.9 271.3,183.65 268.85,182.8 268.85,184.75 266.65,184.35 264.45,184.55 263.35,185.2 261.6,183.45 
		262.25,181.9 261.8,180.15 262.9,178.15 263.8,177.3 262.25,172 259.4,169.8 258.3,167.35 255.85,166.7 253.65,161.4 251.9,161 
		250.35,159.45 247.7,159.2 245.95,159.65 244.6,158.35 246.4,156.55 247.05,153.7 248.8,152.4 247.7,150.6 249.45,151.05 
		253.65,149.3 253.85,147.55 252.55,145.55 250.35,144.25 251,141.35 253.85,136.5 253,135.2 253.45,134.1 252.1,131.9 
		252.35,129.25 250.8,128.8 249.7,128.15 247.7,128.35 245.05,126.6 243.5,124.6 241.95,125.05 240.45,123.3 235.8,119.75 
		234.5,120.45 232.7,118.45 232.3,115.15 230.75,111.85 229.4,110.75 226.35,105 224.1,97.95 224.8,96.85 225.9,97.5 227.65,95.55 
		227.2,93.55 229.4,93.55 231.4,88.05 233.15,86.3 233.4,85.4 238.65,85.4 239.75,86.7 242.65,86.05 243.05,87.4 245.7,88.05 
		246.8,88.95 250.55,89.6 254.3,88.95 256.05,90.05 257.2,91.8 259.6,94 261.8,93.35 265.8,91.2 268.2,90.4 270.5,93.7 270.65,94.7 
		274.15,97.2 277.95,101 280.9,103.3 284.55,104.8 288,109.25 290,109.4 293.15,111.9 295.3,112.25 295.95,115.2 297.95,115.35 
		299.45,115.85 300.9,117 301.55,118.65 305.2,120.5 	"/>
	
		<polygon fill-rule="evenodd" clip-rule="evenodd" fill="none" stroke="#fff" stroke-width="0.5" stroke-linecap="round" stroke-linejoin="round" stroke-miterlimit="3" points="
		312.3,127.25 305.2,120.5 301.55,118.65 300.9,117 299.45,115.85 297.95,115.35 295.95,115.2 295.3,112.25 293.15,111.9 290,109.4 
		288,109.25 284.55,104.8 280.9,103.3 277.95,101 274.15,97.2 270.65,94.7 270.5,93.7 268.2,90.4 265.8,91.2 261.8,93.35 259.6,94 
		257.2,91.8 256.05,90.05 254.3,88.95 250.55,89.6 246.8,88.95 245.7,88.05 243.05,87.4 242.65,86.05 239.75,86.7 238.65,85.4 
		233.4,85.4 233.15,86.3 231.4,88.05 229.4,93.55 227.2,93.55 227.65,95.55 225.9,97.5 224.8,96.85 224.1,97.95 226.35,105 
		229.4,110.75 230.75,111.85 232.3,115.15 232.7,118.45 234.5,120.45 235.8,119.75 240.45,123.3 241.95,125.05 243.5,124.6 
		245.05,126.6 247.7,128.35 249.7,128.15 250.8,128.8 252.35,129.25 252.1,131.9 253.45,134.1 253,135.2 253.85,136.5 251,141.35 
		250.35,144.25 252.55,145.55 253.85,147.55 253.65,149.3 249.45,151.05 247.7,150.6 248.8,152.4 247.05,153.7 246.4,156.55 
		244.6,158.35 245.95,159.65 247.7,159.2 250.35,159.45 251.9,161 253.65,161.4 255.85,166.7 258.3,167.35 259.4,169.8 262.25,172 
		263.8,177.3 262.9,178.15 261.8,180.15 262.25,181.9 261.6,183.45 263.35,185.2 264.45,184.55 266.65,184.35 268.85,184.75 
		268.85,182.8 271.3,183.65 270.4,185.9 270.2,188.1 271.95,197.75 273.7,199.3 275.25,199.75 278.1,199.75 279.85,198.45 
		280.1,200.4 282.5,200.85 282.95,202.85 284.05,205.5 283.6,208.35 283.6,211 284.3,213.65 282.95,216.05 283.6,218.5 
		283.85,222.25 287.15,222.65 289.55,225.1 292,226.85 293.3,227.3 293.3,228.2 294.85,229.5 296.6,231.5 300.35,233.05 
		302.55,233.25 309.2,228.6 311.6,227.75 312.7,226.2 312.7,225.1 312.9,224 315.8,224.2 318.2,221.55 319.55,220.45 321.5,221.8 
		321.95,223.1 323.5,224.45 325.7,226.85 329.25,226.65 332.3,230.4 332.3,231.95 334.05,235.9 335.4,234.8 337.8,238.3 
		338.9,241.2 342.25,243.15 343.75,241.85 345.75,241.6 345.55,239.4 347.3,238.55 349.05,238.55 351.5,239 354.15,237 
		359.2,231.95 362.3,230.15 366.45,224.9 367.8,222.25 369.35,217.8 373.5,214.75 376.8,213 378.15,211.65 380.55,211.9 381,210.1 
		382.35,210.35 384.3,208.55 387.6,208.15 389.15,206.15 393.35,203.7 395.55,205.25 400.4,203.3 400.4,201.3 401.95,200.2 
		402.4,197.85 400.9,196.65 398.6,193.05 398.75,191.55 391.8,181.15 389.5,179.5 388,178.8 384.05,175 380.9,172.7 378.4,169.4 
		374.3,166.45 368.85,161.15 362.55,154.05 352.65,145.45 348,143.3 344.7,144.3 338.75,142.95 331.15,140 	"/>
</g>
<g>
	<polygon fill-rule="evenodd" clip-rule="evenodd" fill="#c8c8c8" points="261.8,93.3 265.35,91.35 265.8,91.2 	"/>
	
		<polygon fill-rule="evenodd" clip-rule="evenodd" fill="none" stroke="#fff" stroke-width="0.5" stroke-linecap="round" stroke-linejoin="round" stroke-miterlimit="3" points="
		261.8,93.3 265.8,91.2 265.35,91.35 	"/>
</g>
<g>
	<polygon fill-rule="evenodd" clip-rule="evenodd" fill="#c8c8c8" points="337.85,192.25 339.8,188.75 339.6,186.1 338.25,178.15 
		336.95,175.5 336.75,169.1 338.5,167.6 340.25,168.45 346.85,174.2 351.7,172.65 353.7,174.2 355.9,186.1 357.45,190.7 
		359.65,190.7 360.55,187.85 360.95,185 364.05,185.2 366.9,183.9 370.65,184.3 374.4,186.1 375.5,187.4 378.15,187.65 
		380.15,185.2 380.35,183.45 379.5,179.5 375.3,168.9 375.95,167.6 378.45,169.4 380.9,172.7 384.05,175 388,178.8 389.5,179.5 
		391.8,181.15 398.75,191.55 398.6,193.05 400.9,196.65 402.4,197.8 401.95,200.2 400.4,201.3 400.4,203.25 395.55,205.25 
		393.35,203.7 389.15,206.15 387.65,208.1 384.35,208.55 382.35,210.3 381,210.1 380.6,211.85 378.15,211.65 376.85,212.95 
		373.55,214.75 369.35,217.8 367.8,222.2 366.5,224.85 362.3,230.15 359.2,231.9 357.65,231.25 346.65,221.8 344.65,221.35 
		342.45,219.35 342.9,215.4 342,211.85 340.5,211.65 338.95,210.3 337.15,209.65 335.4,208.55 336.75,207.9 338.25,206.15 
		340.05,204.8 341.8,204.35 340.05,202.6 339.6,200.2 338.95,198.2 339.6,195.8 337.85,194.45 	"/>
	
		<polygon fill-rule="evenodd" clip-rule="evenodd" fill="none" stroke="#fff" stroke-width="0.5" stroke-linecap="round" stroke-linejoin="round" stroke-miterlimit="3" points="
		337.85,192.25 337.85,194.45 339.6,195.8 338.95,198.2 339.6,200.2 340.05,202.6 341.8,204.35 340.05,204.8 338.25,206.15 
		336.75,207.9 335.4,208.55 337.15,209.65 338.95,210.3 340.5,211.65 342,211.85 342.9,215.4 342.45,219.35 344.65,221.35 
		346.65,221.8 357.65,231.25 359.2,231.9 362.3,230.15 366.5,224.85 367.8,222.2 369.35,217.8 373.55,214.75 376.85,212.95 
		378.15,211.65 380.6,211.85 381,210.1 382.35,210.3 384.35,208.55 387.65,208.1 389.15,206.15 393.35,203.7 395.55,205.25 
		400.4,203.25 400.4,201.3 401.95,200.2 402.4,197.8 400.9,196.65 398.6,193.05 398.75,191.55 391.8,181.15 389.5,179.5 388,178.8 
		384.05,175 380.9,172.7 378.45,169.4 375.95,167.6 375.3,168.9 379.5,179.5 380.35,183.45 380.15,185.2 378.15,187.65 375.5,187.4 
		374.4,186.1 370.65,184.3 366.9,183.9 364.05,185.2 360.95,185 360.55,187.85 359.65,190.7 357.45,190.7 355.9,186.1 353.7,174.2 
		351.7,172.65 346.85,174.2 340.25,168.45 338.5,167.6 336.75,169.1 336.95,175.5 338.25,178.15 339.6,186.1 339.8,188.75 	"/>
</g>
<g>
	
		<polyline fill-rule="evenodd" clip-rule="evenodd" fill="none" stroke="#aaa" stroke-width="0.7" stroke-linecap="round" stroke-linejoin="round" stroke-miterlimit="3" points="
		271.05,183 272.6,182.35 274.8,183.65 276.35,183 279.4,183 280.95,183.9 281.6,182.35 280.5,181 280.75,179.45 282.05,177.25 
		282.05,175.3 284.9,175.3 286,174.2 287.1,175.7 289.55,177.25 291.1,177.25 291.95,179.25 293.5,177.7 295.7,174.4 297.5,173.1 
		299.25,173.1 300.55,174.4 300.35,177.05 301.9,176.4 303,176.6 304.95,176.6 306.3,175.95 305.85,172.85 306.5,171.75 
		306.05,169.35 303.85,169.35 300.55,170.45 301.25,168.9 300.55,167.8 301,166.7 303.2,167.15 302.1,165.35 301.9,162.3 
		301.65,161.6 304.3,160.5 310.25,154.15 315.1,151.25 316.65,149.7 319.05,148.6 319.05,145.75 321.5,150.8 	"/>
</g>
<g>
	
		<polyline fill-rule="evenodd" clip-rule="evenodd" fill="none" stroke="#aaa" stroke-width="0.7" stroke-linecap="round" stroke-linejoin="round" stroke-miterlimit="3" points="
		321.5,150.8 325,152.6 328.1,153.45 330.75,153.7 334.05,153.45 334.05,155.9 333.4,161.4 333.4,164.25 335.4,166.05 337.6,167.15 
			"/>
</g>
<g>
	
		<polyline fill-rule="evenodd" clip-rule="evenodd" fill="none" stroke="#aaa" stroke-width="0.7" stroke-linecap="round" stroke-linejoin="round" stroke-miterlimit="3" points="
		262,93.95 266.65,101.45 266.85,114.45 265.3,116.45 262.9,117.75 262.9,118.85 261.35,119.5 261.55,122.4 260,122.4 259.35,124.8 
		260,126.1 257.8,126.1 255.4,126.8 252.75,128.55 	"/>
</g>
<g>
	
		<polyline fill-rule="evenodd" clip-rule="evenodd" fill="none" stroke="#aaa" stroke-width="0.7" stroke-linecap="round" stroke-linejoin="round" stroke-miterlimit="3" points="
		206.7,79.2 208.25,79.65 208.25,82.7 209.55,82.05 213.75,83.8 215.75,83.6 216.85,84.9 219.7,84.7 221.25,82.05 219.25,80.3 
		219.25,78.1 221.7,77 223.9,75.2 227.2,74.55 232.25,76.35 235.35,78.3 238,79.4 239.1,81.4 239.75,83.15 238.65,83.6 238,84.7 	
		"/>
</g>
<g>
	
		<polyline fill-rule="evenodd" clip-rule="evenodd" fill="none" stroke="#aaa" stroke-width="0.7" stroke-linecap="round" stroke-linejoin="round" stroke-miterlimit="3" points="
		224.55,96.15 223,95.05 223.2,92.65 221.9,92.85 221.25,91.3 219.7,89.55 220.35,88.45 219.5,86.9 218.15,87.55 217.5,88.65 
		215.5,88.45 213.75,88.65 212.85,90.65 212.45,92.4 211.3,93.1 213.1,94.85 212,95.5 212.65,97.7 210,97.7 208.25,97.95 
		206.9,97.05 205.15,100.35 202.95,101 202.5,105.4 198.55,107.6 198.55,109.4 199.45,111.15 199.2,113.55 198.1,115.1 196.35,116 
		194.15,115.55 192.8,116.2 191.25,118.2 190.85,120.2 190.15,121.75 	"/>
</g>
<g>
	
		<polyline fill-rule="evenodd" clip-rule="evenodd" fill="none" stroke="#aaa" stroke-width="0.7" stroke-linecap="round" stroke-linejoin="round" stroke-miterlimit="3" points="
		344,170.85 361.4,153.65 310.5,66 	"/>
</g>
<g>
	
		<polyline fill-rule="evenodd" clip-rule="evenodd" fill="none" stroke="#aaa" stroke-width="0.7" stroke-linecap="round" stroke-linejoin="round" stroke-miterlimit="3" points="
		389.35,180.35 386.05,185 392,194.7 395.1,194.25 398.85,197.55 401.5,198 	"/>
</g>
<g>
	
		<polyline fill-rule="evenodd" clip-rule="evenodd" fill="none" stroke="#aaa" stroke-width="0.7" stroke-linecap="round" stroke-linejoin="round" stroke-miterlimit="3" points="
		373.3,235.45 372.85,236.55 371.75,237.4 372.65,240.95 364.5,245.15 365.35,248 367.35,251.3 366.7,252.4 364.05,254.8 
		362.05,254.15 360.95,254.8 359.2,254.6 354.35,257.7 354.55,258.55 352.8,259.9 351.5,260.1 351.5,261.2 352.8,261.85 
		354.8,262.55 354.1,263.65 354.55,265.85 356.35,266.3 356.35,268.25 353.7,270.45 355.9,271.8 355.65,275.95 356.35,277.75 
		357.45,278.6 355.65,280.4 355.65,281.9 354.55,282.8 354.35,285.45 357.45,285.45 359.4,284.55 361.85,284.15 363.4,286.75 
		365.6,287.85 366.7,290.75 367.55,294.5 368.65,295.8 370,296.45 369.35,298.65 369.35,300.85 368.9,303.3 367.55,304.2 
		368,305.95 365.15,305.95 364.25,306.8 364.7,309.9 	"/>
</g>
<g>
	
		<polyline fill-rule="evenodd" clip-rule="evenodd" fill="none" stroke="#aaa" stroke-width="0.7" stroke-linecap="round" stroke-linejoin="round" stroke-miterlimit="3" points="
		364.7,309.9 364.7,313.2 362.95,314.3 361.4,314.3 359.65,315.85 359.4,318.5 357.45,319.6 358.1,321.6 356.75,322.45 
		355.65,322.45 354.8,324.25 352.35,324.45 348.85,323.8 345.1,322.45 342.9,322.9 341.8,321.8 340.25,321.8 337.8,324 
		337.6,325.75 335.85,327.1 333.2,331.05 333.2,333.05 331.45,336.15 331.45,338.1 329,339.85 325.9,340.95 323.7,342.75 
		324.4,344.5 328.55,348.25 327.25,350.65 327.9,351.55 329.65,350.45 331,349.8 	"/>
</g>
<g>
	
		<polyline fill-rule="evenodd" clip-rule="evenodd" fill="none" stroke="#aaa" stroke-width="0.7" stroke-linecap="round" stroke-linejoin="round" stroke-miterlimit="3" points="
		404.35,461.3 405.9,463.7 411.6,468.8 414.25,471.85 414.9,473.85 416,475.85 417.8,474.5 420,473.65 424.2,479.55 425.7,482.65 
		428.8,485.75 431,486.4 435.65,489.25 438.05,489.95 441.6,493.7 443.35,495.2 446.65,496.55 481,502.95 483,503.8 482.15,504.45 
		483,505.35 482.8,507.35 481.9,508 482.35,510 484.75,507.8 486.3,508 487.65,508.9 488.75,510.65 491.1,512.15 	"/>
</g>
<g>
	
		<polyline fill-rule="evenodd" clip-rule="evenodd" fill="none" stroke="#aaa" stroke-width="0.7" stroke-linecap="round" stroke-linejoin="round" stroke-miterlimit="3" points="
		450.85,547.65 448.45,537.75 447.1,535.75 444.9,533.55 445.1,530.9 444.25,529.15 446.65,528.9 447.55,530 450.4,528.7 
		449.75,525.6 448.45,523.65 450.2,520.75 452.6,520.3 453.7,518.8 456.8,520.3 460.1,519.2 463.2,519 465.6,521 467.4,520.75 
		468.25,519.2 472.45,517.7 475.55,517.45 476.85,518.8 475.75,520.3 475.55,522.1 477.3,522.95 479.95,520.3 480.6,517.45 
		480.6,514.6 479.5,513.7 478.2,513.7 476.85,512.6 477.75,510.85 479.5,510.65 480.8,509.95 481.85,509.65 	"/>
</g>
<g>
	
		<polyline fill-rule="evenodd" clip-rule="evenodd" fill="none" stroke="#aaa" stroke-width="0.7" stroke-linecap="round" stroke-linejoin="round" stroke-miterlimit="3" points="
		445.8,446.75 447.15,446.1 448,447.6 447.8,449.85 447.55,450.95 447.8,452.25 450.45,450.25 453.3,450.5 453.95,451.8 
		456.15,451.6 457.7,449.4 457.7,446.3 459.9,445 461,445.4 467.6,443.2 470.05,446.95 469.6,449.15 471.8,456.65 470.05,460.4 
		465.2,460.85 465.2,462.6 467.85,465.25 468.7,468.8 467.85,472.3 471.35,473.4 474.25,470.55 475.55,471.2 478.65,470.3 
		480.85,471.4 483.95,468.35 485.25,468.1 489,469.2 493.4,467.25 	"/>
</g>
<g>
	
		<polyline fill-rule="evenodd" clip-rule="evenodd" fill="none" stroke="#aaa" stroke-width="0.7" stroke-linecap="round" stroke-linejoin="round" stroke-miterlimit="3" points="
		444.55,333.15 439.4,340.95 437.65,344.95 436.3,345.15 434.8,347.35 434.1,349.35 435.45,350.2 436.75,352.85 435,353.75 
		437.65,354.85 437.85,357.95 439.4,357.25 440.05,358.8 439.6,360.15 442.95,361.25 445.55,359.9 449.3,360.15 451.95,359.05 
		452.6,360.15 454.15,360.35 454.6,362.55 456.35,363.2 458.15,365.65 458.8,366.95 460.35,366.75 462.75,365 465.2,366.5 
		465.85,366.1 468.25,365.65 469.6,365.65 471.15,369.15 470.9,371.6 472.45,373.6 475.55,376 479.3,375.55 479.95,373.15 
		483.7,371.35 481.7,366.75 	"/>
</g>
<g>
	
		<polyline fill-rule="evenodd" clip-rule="evenodd" fill="none" stroke="#aaa" stroke-width="0.7" stroke-linecap="round" stroke-linejoin="round" stroke-miterlimit="3" points="
		358.5,230.8 358.05,228.4 356.75,228.4 356.1,225.3 357.2,224.4 355.85,223.3 357.4,221.8 359.4,220.45 358.95,218.9 358.5,214.95 
		356.55,212.5 357.2,210.3 359.4,209.45 360.95,210.55 362.9,209.2 364,210.1 367.75,206.35 369.75,206.15 373.5,204.35 
		375.05,204.35 375.7,203.05 381,199.1 382.1,197.3 382.75,198.4 387.15,198.65 388.5,199.95 391.35,201.75 390.25,203.95 
		389.35,205.25 	"/>
</g>
<g>
	
		<path fill-rule="evenodd" clip-rule="evenodd" fill="none" stroke="#aaa" stroke-width="0.7" stroke-linecap="round" stroke-linejoin="round" stroke-miterlimit="3" d="
		M406.8,225.05l-1.1,3.1l-1.55,3.1l1.1,1.95l-1.3,2.45v3.75l0.649,1.95l-1.3,1.1l1.3,1.8l-1.3,1.3l0.4,1.75l1.35,1.1l0.65,2.25
		h0.399c0.267,0.033,0.584,0.1,0.95,0.2c0.334,0.133,0.667,0.35,1,0.65c0.334,0.267,0.5,0.417,0.5,0.45l5.3-2.2l2-0.45l0.851,1.75
		l-0.65,4l0.65,2.65l2,1.5l1.55-0.65h1.1l-0.449,2l1.35,2.85l1.1,0.9l2.4,0.45l0.65,2.4l-1.95,2.65l3.3,2.65l1.3,2.4l1.55-0.65
		l1.101,3.1l9.5-3.55"/>
</g>
<g>
	
		<polyline fill-rule="evenodd" clip-rule="evenodd" fill="none" stroke="#aaa" stroke-width="0.7" stroke-linecap="round" stroke-linejoin="round" stroke-miterlimit="3" points="
		384.5,264.5 380.75,266.5 376.6,266.7 368.2,268.7 367.55,270 369.1,271.55 370.65,270.45 371.1,271.1 371.5,272.45 373.3,274 
		375.5,275.3 377.7,276.2 378.35,278.4 380.35,279.05 382.1,281.7 381.65,282.6 379.9,283 380.35,285.2 378.15,284.1 374.4,283.7 
		372.6,284.55 370.85,283.45 366.45,288.1 	"/>
</g>
<g>
	
		<polyline fill-rule="evenodd" clip-rule="evenodd" fill="none" stroke="#aaa" stroke-width="0.7" stroke-linecap="round" stroke-linejoin="round" stroke-miterlimit="3" points="
		484.05,366.7 480.4,366.9 479.25,367.7 479.25,365.05 476.1,363.9 476.1,361.6 475.3,361.1 474.6,359.8 476.45,358.8 484.55,357.8 
		487,358.6 490.15,360.3 579.45,361.6 579.45,330.2 	"/>
</g>
<g>
	
		<polyline fill-rule="evenodd" clip-rule="evenodd" fill="none" stroke="#aaa" stroke-width="0.7" stroke-linecap="round" stroke-linejoin="round" stroke-miterlimit="3" points="
		439.55,360.6 439.7,362.25 438.25,363.25 437.75,366.2 436.6,368.7 437.25,370.35 436.9,371.65 437.55,372.8 436.75,373.65 
		436.6,375.6 437.75,378.95 438.9,381.1 438.9,382.25 440.4,383.4 439.7,384.9 440.7,392.3 440.4,394.15 441.85,395.45 
		442.85,400.9 444.7,401.9 443.85,403.4 444.2,405.85 443.5,406.7 443.35,409.5 444.5,411.15 443.85,412.95 444.7,415.1 446,416.75 
		445.35,419.25 446.15,421.9 	"/>
</g>
<g>
	
		<polyline fill-rule="evenodd" clip-rule="evenodd" fill="none" stroke="#aaa" stroke-width="0.7" stroke-linecap="round" stroke-linejoin="round" stroke-miterlimit="3" points="
		227.2,74.6 228.2,73.4 226.25,71.1 230.85,69.1 232.85,69.1 233.15,67.1 234.8,68.45 236.45,66.1 235.8,61.85 236.45,59.5 
		238,58.3 314.9,58.75 	"/>
</g>
<g>
	
		<polyline fill-rule="evenodd" clip-rule="evenodd" fill="none" stroke="#aaa" stroke-width="0.7" stroke-linecap="round" stroke-linejoin="round" stroke-miterlimit="3" points="
		405.35,217.6 406.7,214.8 408.2,214 408.5,207.7 409.15,206.05 409.65,203.55 	"/>
</g>
<g>
	
		<polyline fill-rule="evenodd" clip-rule="evenodd" fill="none" stroke="#aaa" stroke-width="0.7" stroke-linecap="round" stroke-linejoin="round" stroke-miterlimit="3" points="
		406.2,204.1 404.7,205.75 403.7,207.9 401.55,209.35 400.25,211 399.9,216.8 	"/>
</g>
<g>
	
		<polyline fill-rule="evenodd" clip-rule="evenodd" fill="none" stroke="#aaa" stroke-width="0.7" stroke-linecap="round" stroke-linejoin="round" stroke-miterlimit="3" points="
		397.3,205.25 396.6,207.55 397.75,211.35 399.9,212.2 	"/>
</g>
<g>
	
		<polyline fill-rule="evenodd" clip-rule="evenodd" fill="none" stroke="#aaa" stroke-width="0.7" stroke-linecap="round" stroke-linejoin="round" stroke-miterlimit="3" points="
		402,218.15 400.55,219.65 400.05,222.6 398.55,223.6 395.75,221.95 394.1,222.6 392.25,224.6 391.45,228.25 390.3,231.2 
		391.3,232.85 398.05,232.85 396.75,236.15 397.55,236.8 398.7,236.15 399.85,236.5 401.2,235 402.7,234.65 404.15,235.15 	"/>
</g>
<g>
	
		<polyline fill-rule="evenodd" clip-rule="evenodd" fill="none" stroke="#aaa" stroke-width="0.7" stroke-linecap="round" stroke-linejoin="round" stroke-miterlimit="3" points="
		391.3,232.8 387.65,241.75 383.7,247.7 378.05,250.65 	"/>
</g>
<g>
	<polygon fill-rule="evenodd" clip-rule="evenodd" fill="#c8c8c8" points="281.95,29.6 283.6,29.25 283.75,30.4 283.1,30.9 
		283.4,32.2 284.4,33.2 284.1,34.05 283.4,34.35 283.25,35.05 284.1,36.2 286.2,37.35 286.05,39 284.9,40.8 284.25,42.15 
		281.1,41.5 280.6,37.85 281.1,36.35 281.25,34.05 281.6,32.55 281.45,30.4 	"/>
	
		<polygon fill-rule="evenodd" clip-rule="evenodd" fill="none" stroke="#fff" stroke-width="0.5" stroke-linecap="round" stroke-linejoin="round" stroke-miterlimit="3" points="
		281.95,29.6 281.45,30.4 281.6,32.55 281.25,34.05 281.1,36.35 280.6,37.85 281.1,41.5 284.25,42.15 284.9,40.8 286.05,39 
		286.2,37.35 284.1,36.2 283.25,35.05 283.4,34.35 284.1,34.05 284.4,33.2 283.4,32.2 283.1,30.9 283.75,30.4 283.6,29.25 	"/>
</g>
<g>
	<polygon fill-rule="evenodd" clip-rule="evenodd" fill="#c8c8c8" points="286.9,39.15 288.35,39.15 290.05,36 291,36.65 292,36.65 
		292.15,35.5 293.15,33.85 296.95,36.5 296.65,39.45 297.3,42.45 295.95,43.75 294.5,44.75 294,43.6 292.35,41.95 291.5,41.8 
		290.2,42.3 289.7,44.6 288.35,44.6 287.2,41.6 	"/>
	
		<polygon fill-rule="evenodd" clip-rule="evenodd" fill="none" stroke="#fff" stroke-width="0.5" stroke-linecap="round" stroke-linejoin="round" stroke-miterlimit="3" points="
		286.9,39.15 287.2,41.6 288.35,44.6 289.7,44.6 290.2,42.3 291.5,41.8 292.35,41.95 294,43.6 294.5,44.75 295.95,43.75 
		297.3,42.45 296.65,39.45 296.95,36.5 293.15,33.85 292.15,35.5 292,36.65 291,36.65 290.05,36 288.35,39.15 	"/>
</g>
<g>
	<polygon fill-rule="evenodd" clip-rule="evenodd" fill="#c8c8c8" points="360.2,68.4 360.4,66.6 361.05,64.6 361.4,63.8 
		363.2,63.3 364.2,64.6 365.2,64.3 365.7,63.95 367.5,66.25 368,67.4 366.85,68.25 367.15,68.9 366.85,70.4 365.7,72.05 
		365.2,73.55 365.35,75 366.5,73.35 367.15,72.05 368.5,70.4 371.3,70.4 372.1,71.2 373.6,71.2 375.1,71.55 374.25,72.2 371.8,75 
		372.1,77.35 371.45,79.3 370.45,78.8 369.8,79.15 368.5,80.8 366.65,82.6 365.7,84.1 365.35,83.1 364,82.45 363.85,80.15 
		362.7,81.3 361.85,82.6 361.4,81.95 360.9,80.65 360.7,77 359.25,73.85 359.05,72.7 360.2,71.55 360.55,69.75 	"/>
	
		<polygon fill-rule="evenodd" clip-rule="evenodd" fill="none" stroke="#fff" stroke-width="0.5" stroke-linecap="round" stroke-linejoin="round" stroke-miterlimit="3" points="
		360.2,68.4 360.55,69.75 360.2,71.55 359.05,72.7 359.25,73.85 360.7,77 360.9,80.65 361.4,81.95 361.85,82.6 362.7,81.3 
		363.85,80.15 364,82.45 365.35,83.1 365.7,84.1 366.65,82.6 368.5,80.8 369.8,79.15 370.45,78.8 371.45,79.3 372.1,77.35 371.8,75 
		374.25,72.2 375.1,71.55 373.6,71.2 372.1,71.2 371.3,70.4 368.5,70.4 367.15,72.05 366.5,73.35 365.35,75 365.2,73.55 
		365.7,72.05 366.85,70.4 367.15,68.9 366.85,68.25 368,67.4 367.5,66.25 365.7,63.95 365.2,64.3 364.2,64.6 363.2,63.3 361.4,63.8 
		361.05,64.6 360.4,66.6 	"/>
</g>
<g>
	
		<polyline fill-rule="evenodd" clip-rule="evenodd" fill="none" stroke="#fff" stroke-width="0.5" stroke-linecap="round" stroke-linejoin="round" stroke-miterlimit="3" points="
		268,90 371.3,30.05 436.55,107.2 375.95,167.55 	"/>
</g>
<g>
	
		<polyline fill-rule="evenodd" clip-rule="evenodd" fill="none" stroke="#fff" stroke-width="0.5" stroke-linecap="round" stroke-linejoin="round" stroke-miterlimit="3" points="
		315.1,62.25 315.1,23.95 260.45,23.95 	"/>
</g>
<g>
	
		<line fill-rule="evenodd" clip-rule="evenodd" fill="none" stroke="#fff" stroke-width="0.5" stroke-linecap="round" stroke-linejoin="round" stroke-miterlimit="3" x1="403.9" y1="198.85" x2="435.65" y2="198.85"/>
</g>
<g>
	
		<line fill-rule="evenodd" clip-rule="evenodd" fill="none" stroke="#fff" stroke-width="0.5" stroke-linecap="round" stroke-linejoin="round" stroke-miterlimit="3" x1="579.55" y1="330.2" x2="473.4" y2="330.6"/>
</g>
<g>
	
		<line fill-rule="evenodd" clip-rule="evenodd" fill="none" stroke="#fff" stroke-width="0.5" stroke-linecap="round" stroke-linejoin="round" stroke-miterlimit="3" x1="451.3" y1="220.45" x2="416.25" y2="220.25"/>
</g>
<g>
	
		<polyline fill-rule="evenodd" clip-rule="evenodd" fill="none" stroke="#aaa" stroke-width="0.7" stroke-linecap="round" stroke-linejoin="round" stroke-miterlimit="3" points="
		391.5,194.8 389.2,195.95 388.2,199.1 	"/>
</g>
<g>
	
		<polyline fill-rule="evenodd" clip-rule="evenodd" fill="none" stroke="#aaa" stroke-width="0.7" stroke-linecap="round" stroke-linejoin="round" stroke-miterlimit="3" points="
		362.7,230 364.2,230.7 365.35,229.05 367.65,229.35 371.95,230.7 	"/>
</g>
<g>
	<polygon fill-rule="evenodd" clip-rule="evenodd" fill="#c8c8c8" points="557.85,353.75 556.65,353.05 555.45,350.9 556.4,349.95 
		556.4,348.55 558.1,347.6 560.2,348.55 560.2,349.95 559.05,351.65 559.25,353.55 	"/>
	
		<polygon fill-rule="evenodd" clip-rule="evenodd" fill="none" stroke="#fff" stroke-width="0.5" stroke-linecap="round" stroke-linejoin="round" stroke-miterlimit="3" points="
		557.85,353.75 559.25,353.55 559.05,351.65 560.2,349.95 560.2,348.55 558.1,347.6 556.4,348.55 556.4,349.95 555.45,350.9 
		556.65,353.05 	"/>
</g>
<text transform="matrix(0.85 0 0 1 401.3496 374.4741)" fill="#069" font-family="'_sans'" font-size="8">P39</text>
<text transform="matrix(0.85 0 0 1 405.2998 264.2744)" fill="#069" font-family="'_sans'" font-size="8">P37</text>
<text transform="matrix(0.85 0 0 1 269.3506 244.6743)" fill="#069" font-family="'_sans'" font-size="8">P38</text>
<text transform="matrix(0.85 0 0 1 348.0498 198.9243)" fill="#069" font-family="'_sans'" font-size="8">P35</text>
<text transform="matrix(0.85 0 0 1 279.4004 124.7241)" fill="#069" font-family="'_sans'" font-size="8">P34</text>
<text transform="matrix(0.85 0 0 1 199.7002 118.874)" fill="#069" font-family="'_sans'" font-size="8">P33</text>
<text transform="matrix(0.85 0 0 1 417.7002 207.5742)" fill="#069" font-family="'_sans'" font-size="8">P36</text>
<text transform="matrix(0.85 0 0 1 423.8496 497.5742)" fill="#069" font-family="'_sans'" font-size="8">P40</text>
</svg>
